M48
; DRILL file {KiCad 5.99.0-unknown-1463dd1~101~ubuntu20.04.1} date Wed Jul  8 00:09:39 2020
; FORMAT={-:-/ absolute / inch / decimal}
; #@! TF.CreationDate,2020-07-08T00:09:39-04:00
; #@! TF.GenerationSoftware,Kicad,Pcbnew,5.99.0-unknown-1463dd1~101~ubuntu20.04.1
; #@! TF.FileFunction,Plated,1,2,PTH
FMAT,2
INCH
T1C0.0079
T2C0.0157
T3C0.0256
T4C0.0276
T5C0.0394
T6C0.0598
%
G90
G05
T1
X7.2429Y-5.0317
X7.2429Y-5.075
X7.2941Y-5.0317
X7.2941Y-5.075
T2
X3.9961Y-5.935
X4.0128Y-4.1929
X4.0354Y-6.1417
X4.0354Y-6.2402
X4.0492Y-6.0049
X4.0783Y-6.9965
X4.0906Y-5.3199
X4.1102Y-6.2421
X4.1142Y-6.1417
X4.124Y-4.5335
X4.124Y-5.7874
X4.124Y-5.8858
X4.126Y-5.5876
X4.1299Y-6.9134
X4.1909Y-7.3701
X4.2136Y-7.7992
X4.2323Y-5.4331
X4.2382Y-7.3701
X4.2626Y-7.4835
X4.3346Y-4.1309
X4.3406Y-6.25
X4.3425Y-5.1496
X4.3512Y-7.0217
X4.3514Y-4.4724
X4.3524Y-6.8098
X4.3669Y-4.6091
X4.3711Y-4.9213
X4.373Y-7.3628
X4.376Y-5.0295
X4.3996Y-7.6614
X4.4094Y-4.6102
X4.4272Y-7.4803
X4.4413Y-4.8508
X4.4469Y-4.9154
X4.4469Y-5.0925
X4.4488Y-5.3051
X4.4547Y-5.624
X4.4949Y-6.8354
X4.5079Y-5.3051
X4.5217Y-4.5591
X4.5551Y-4.7087
X4.5669Y-5.3051
X4.5807Y-7.3346
X4.6083Y-4.8956
X4.6258Y-4.8159
X4.6378Y-4.6935
X4.685Y-5.1339
X4.6909Y-4.064
X4.7224Y-7.4488
X4.7264Y-7.6654
X4.7303Y-5.937
X4.7343Y-5.3406
X4.7477Y-4.782
X4.7539Y-5.5807
X4.7559Y-4.065
X4.757Y-6.377
X4.7608Y-6.5896
X4.7618Y-5.248
X4.7638Y-5.9764
X4.7638Y-6.2362
X4.7736Y-6.8248
X4.7953Y-4.6535
X4.7953Y-5.0472
X4.7997Y-4.766
X4.8012Y-4.876
X4.8012Y-5.0
X4.8268Y-5.6378
X4.8346Y-5.4409
X4.8661Y-4.7244
X4.872Y-4.3209
X4.872Y-5.1339
X4.8848Y-5.0846
X4.8898Y-5.4016
X4.8898Y-6.0945
X4.8898Y-6.3386
X4.9016Y-4.8898
X4.9065Y-7.7972
X4.9213Y-4.3799
X4.9242Y-4.4744
X4.9247Y-4.786
X4.9606Y-5.5354
X4.9606Y-5.7402
X4.9705Y-4.311
X4.9764Y-4.937
X4.9833Y-4.4734
X4.9902Y-5.0593
X4.9941Y-5.2441
X4.998Y-4.8602
X5.0Y-5.5984
X5.0167Y-4.941
X5.0197Y-6.1417
X5.0295Y-4.3898
X5.0295Y-5.0571
X5.0374Y-6.2726
X5.0394Y-7.1555
X5.0433Y-7.0866
X5.0591Y-6.4272
X5.061Y-6.0079
X5.0787Y-4.3091
X5.0984Y-7.1555
X5.128Y-4.3799
X5.1476Y-7.1555
X5.1575Y-5.0787
X5.1772Y-4.2618
X5.1789Y-4.9432
X5.1877Y-5.0502
X5.1949Y-5.189
X5.2047Y-4.9754
X5.2236Y-4.5728
X5.2264Y-4.3898
X5.2406Y-5.1432
X5.2597Y-4.841
X5.2756Y-4.3228
X5.3041Y-5.3661
X5.3091Y-5.874
X5.3228Y-4.378
X5.3268Y-5.4154
X5.3287Y-5.626
X5.3307Y-4.748
X5.3346Y-5.1437
X5.3346Y-7.4705
X5.3426Y-4.6384
X5.3543Y-6.2441
X5.3617Y-4.4887
X5.3622Y-4.7835
X5.3642Y-7.5098
X5.3666Y-5.615
X5.374Y-4.3799
X5.3937Y-7.4705
X5.4114Y-5.5689
X5.417Y-6.207
X5.4232Y-4.3799
X5.4272Y-5.2244
X5.437Y-7.0472
X5.4429Y-7.3425
X5.4587Y-4.8917
X5.4665Y-5.1378
X5.4724Y-4.3898
X5.4823Y-7.3031
X5.4961Y-4.874
X5.5Y-4.748
X5.5118Y-5.2008
X5.5118Y-7.3425
X5.5138Y-6.6772
X5.5222Y-4.3991
X5.5315Y-6.5354
X5.5492Y-5.2386
X5.561Y-5.5118
X5.5659Y-5.7087
X5.5689Y-5.9094
X5.5709Y-4.3996
X5.5779Y-4.8078
X5.5807Y-6.0335
X5.5906Y-5.2126
X5.5906Y-7.1555
X5.5925Y-5.1378
X5.5945Y-7.0866
X5.6004Y-4.439
X5.6161Y-4.8878
X5.6201Y-5.5049
X5.626Y-6.2835
X5.6362Y-5.2327
X5.6395Y-4.7793
X5.6398Y-4.3996
X5.6496Y-7.1555
X5.6643Y-5.3212
X5.6668Y-4.7197
X5.6685Y-5.2642
X5.689Y-5.374
X5.6895Y-4.4788
X5.6988Y-7.1555
X5.7283Y-5.3455
X5.7315Y-4.5937
X5.748Y-5.4134
X5.7579Y-6.811
X5.7618Y-4.185
X5.7756Y-4.4803
X5.7772Y-4.5433
X5.7776Y-4.3406
X5.7776Y-4.3996
X5.874Y-4.5984
X5.876Y-4.3799
X5.876Y-7.4705
X5.878Y-4.8661
X5.9154Y-7.5295
X5.9331Y-6.622
X5.939Y-5.3898
X5.9429Y-5.1299
X5.9547Y-7.4705
X5.9646Y-4.3799
X5.9646Y-6.0551
X5.9843Y-7.3425
X5.9882Y-7.0472
X5.9941Y-5.1339
X6.0217Y-4.374
X6.0236Y-7.3031
X6.0531Y-4.4193
X6.0591Y-4.6693
X6.063Y-4.7953
X6.063Y-7.3425
X6.0738Y-5.4242
X6.0807Y-5.1575
X6.0886Y-5.6654
X6.0921Y-5.9646
X6.0984Y-6.0512
X6.1004Y-5.9094
X6.1112Y-5.4498
X6.122Y-4.4193
X6.1496Y-3.9724
X6.1565Y-6.5118
X6.1732Y-4.5433
X6.1772Y-6.8622
X6.1929Y-7.7992
X6.2175Y-6.0591
X6.2205Y-4.4961
X6.2244Y-4.6217
X6.252Y-4.5787
X6.2681Y-4.652
X6.2697Y-4.0098
X6.2697Y-5.0295
X6.2707Y-4.6921
X6.2707Y-5.0788
X6.2953Y-4.4724
X6.2953Y-5.7717
X6.3278Y-5.2618
X6.3583Y-5.876
X6.3878Y-6.622
X6.4173Y-4.4646
X6.4272Y-6.0925
X6.436Y-4.187
X6.4606Y-7.1594
X6.4685Y-3.9921
X6.5846Y-4.5382
X6.5891Y-4.3704
X6.5906Y-6.8465
X6.5945Y-7.1358
X6.6469Y-4.6228
X6.6634Y-7.628
X6.6673Y-6.8484
X6.689Y-5.0787
X6.7098Y-4.8382
X6.7173Y-4.4362
X6.7283Y-5.1978
X6.7291Y-4.7343
X6.7431Y-6.0276
X6.7638Y-4.937
X6.8047Y-7.201
X6.8047Y-7.331
X6.8366Y-7.81
X6.8547Y-6.926
X6.8996Y-7.7362
X6.9016Y-7.5335
X6.9497Y-7.696
X6.9539Y-6.7552
X6.9547Y-6.961
X6.9744Y-6.2205
X7.0276Y-5.9055
X7.0413Y-4.8878
X7.1165Y-7.5692
X7.1247Y-6.631
X7.126Y-6.0236
X7.126Y-6.811
X7.132Y-6.212
X7.1339Y-6.9685
X7.1339Y-7.7559
X7.1388Y-5.9163
X7.1555Y-5.065
X7.1673Y-4.9508
X7.1797Y-6.621
X7.1831Y-5.4774
X7.186Y-5.7736
X7.2323Y-4.8957
X7.25Y-4.4488
X7.2547Y-6.771
X7.2559Y-5.1831
X7.2597Y-6.071
X7.2638Y-7.7067
X7.2942Y-5.1921
X7.307Y-5.912
X7.3183Y-6.077
X7.3228Y-6.7717
X7.3228Y-7.0079
X7.3228Y-7.7165
X7.342Y-5.912
X7.3576Y-6.077
X7.3622Y-6.7717
X7.3622Y-7.0079
X7.3622Y-7.7165
X7.377Y-5.912
X7.3858Y-5.1713
X7.397Y-6.077
X7.4016Y-6.7717
X7.4016Y-7.0079
X7.4016Y-7.7165
X7.4104Y-5.4508
X7.417Y-5.912
X7.4705Y-4.0787
X7.4705Y-4.2362
X7.5177Y-4.3465
X7.6496Y-7.3012
X7.6693Y-7.8248
X7.7094Y-6.0551
X7.7431Y-6.9094
X7.7953Y-5.4626
T4
X7.0047Y-7.3122
X7.0047Y-7.3622
X7.0047Y-7.4122
X7.1047Y-7.2622
X7.1047Y-7.3122
X7.1047Y-7.3622
X7.1047Y-7.4122
X7.1047Y-7.4622
X7.2047Y-7.2622
X7.2047Y-7.3122
X7.2047Y-7.3622
X7.2047Y-7.4122
X7.2047Y-7.4622
X7.3047Y-7.2622
X7.3047Y-7.3122
X7.3047Y-7.3622
X7.3047Y-7.4122
X7.3047Y-7.4622
X7.4047Y-7.3122
X7.4047Y-7.3622
X7.4047Y-7.4122
X7.0047Y-6.3664
X7.0047Y-6.4164
X7.0047Y-6.4664
X7.1047Y-6.3164
X7.1047Y-6.3664
X7.1047Y-6.4164
X7.1047Y-6.4664
X7.1047Y-6.5164
X7.2047Y-6.3164
X7.2047Y-6.3664
X7.2047Y-6.4164
X7.2047Y-6.4664
X7.2047Y-6.5164
X7.3047Y-6.3164
X7.3047Y-6.3664
X7.3047Y-6.4164
X7.3047Y-6.4664
X7.3047Y-6.5164
X7.4047Y-6.3664
X7.4047Y-6.4164
X7.4047Y-6.4664
T5
X6.4793Y-4.7829
X6.4793Y-4.8829
X4.5075Y-6.0376
X4.5075Y-6.1376
X4.5075Y-6.2376
X4.5075Y-6.3376
X4.5075Y-6.3376
X4.5075Y-6.4376
X4.5075Y-6.5376
X5.2075Y-6.1376
X5.2075Y-6.2376
X5.2075Y-6.3376
X5.2075Y-6.4376
T6
X5.2992Y-7.7165
X5.4992Y-7.7165
X5.6992Y-7.7165
X5.8992Y-7.7165
X7.7067Y-6.1795
X7.7067Y-6.3795
X7.7067Y-6.5795
X7.7067Y-6.7795
X7.7067Y-7.0047
X7.7067Y-7.2047
X7.7067Y-7.4047
X7.7067Y-7.6047
X7.7067Y-4.4663
X7.7067Y-4.6663
X7.7067Y-4.8663
X7.7067Y-5.0663
T3
G00X4.1215Y-7.3441
M15
G01X4.1372Y-7.3441
M16
G05
G00X4.1215Y-7.5346
M15
G01X4.1372Y-7.5346
M16
G05
T4
G00X4.0014Y-7.3319
M15
G01X4.0211Y-7.3319
M16
G05
G00X4.0014Y-7.5469
M15
G01X4.0211Y-7.5469
M16
G05
T0
M30
