G04 #@! TF.GenerationSoftware,KiCad,Pcbnew,5.99.0-unknown-1463dd1~101~ubuntu20.04.1*
G04 #@! TF.CreationDate,2020-07-08T00:09:35-04:00*
G04 #@! TF.ProjectId,goldhat,676f6c64-6861-4742-9e6b-696361645f70,rev?*
G04 #@! TF.SameCoordinates,Original*
G04 #@! TF.FileFunction,Paste,Top*
G04 #@! TF.FilePolarity,Positive*
%FSLAX46Y46*%
G04 Gerber Fmt 4.6, Leading zero omitted, Abs format (unit mm)*
G04 Created by KiCad (PCBNEW 5.99.0-unknown-1463dd1~101~ubuntu20.04.1) date 2020-07-08 00:09:35*
%MOMM*%
%LPD*%
G01*
G04 APERTURE LIST*
%ADD10R,1.200000X0.900000*%
%ADD11R,1.000000X3.000000*%
%ADD12R,1.000000X3.150000*%
%ADD13R,2.415000X3.400000*%
%ADD14R,0.700000X1.700000*%
%ADD15R,11.270000X6.400000*%
%ADD16R,4.600000X1.100000*%
%ADD17R,4.550000X5.250000*%
%ADD18R,1.900000X1.000000*%
%ADD19R,0.802000X1.505000*%
%ADD20R,2.101200X1.567800*%
%ADD21R,0.800000X0.900000*%
%ADD22R,0.900000X0.800000*%
%ADD23R,2.500000X1.430000*%
%ADD24R,1.650000X0.400000*%
%ADD25R,1.500000X2.000000*%
%ADD26R,0.700000X1.825000*%
%ADD27R,2.000000X1.350000*%
%ADD28R,0.250000X0.360000*%
%ADD29R,0.450000X1.750000*%
%ADD30R,1.400000X1.600000*%
%ADD31R,1.900000X0.400000*%
%ADD32R,3.000000X5.500000*%
%ADD33R,1.060000X0.650000*%
%ADD34R,3.810000X3.910000*%
%ADD35R,1.020000X0.610000*%
%ADD36R,1.270000X0.610000*%
G04 APERTURE END LIST*
D10*
X150038000Y-184710000D03*
X150038000Y-188010000D03*
X136068000Y-184964000D03*
X136068000Y-188264000D03*
G36*
G01*
X105203000Y-118013000D02*
X105203000Y-116863000D01*
G75*
G02*
X105453000Y-116613000I250000J0D01*
G01*
X106553000Y-116613000D01*
G75*
G02*
X106803000Y-116863000I0J-250000D01*
G01*
X106803000Y-118013000D01*
G75*
G02*
X106553000Y-118263000I-250000J0D01*
G01*
X105453000Y-118263000D01*
G75*
G02*
X105203000Y-118013000I0J250000D01*
G01*
G37*
G36*
G01*
X102353000Y-118013000D02*
X102353000Y-116863000D01*
G75*
G02*
X102603000Y-116613000I250000J0D01*
G01*
X103703000Y-116613000D01*
G75*
G02*
X103953000Y-116863000I0J-250000D01*
G01*
X103953000Y-118013000D01*
G75*
G02*
X103703000Y-118263000I-250000J0D01*
G01*
X102603000Y-118263000D01*
G75*
G02*
X102353000Y-118013000I0J250000D01*
G01*
G37*
G36*
G01*
X105203000Y-120426000D02*
X105203000Y-119276000D01*
G75*
G02*
X105453000Y-119026000I250000J0D01*
G01*
X106553000Y-119026000D01*
G75*
G02*
X106803000Y-119276000I0J-250000D01*
G01*
X106803000Y-120426000D01*
G75*
G02*
X106553000Y-120676000I-250000J0D01*
G01*
X105453000Y-120676000D01*
G75*
G02*
X105203000Y-120426000I0J250000D01*
G01*
G37*
G36*
G01*
X102353000Y-120426000D02*
X102353000Y-119276000D01*
G75*
G02*
X102603000Y-119026000I250000J0D01*
G01*
X103703000Y-119026000D01*
G75*
G02*
X103953000Y-119276000I0J-250000D01*
G01*
X103953000Y-120426000D01*
G75*
G02*
X103703000Y-120676000I-250000J0D01*
G01*
X102603000Y-120676000D01*
G75*
G02*
X102353000Y-120426000I0J250000D01*
G01*
G37*
G36*
G01*
X105219000Y-122839000D02*
X105219000Y-121689000D01*
G75*
G02*
X105469000Y-121439000I250000J0D01*
G01*
X106569000Y-121439000D01*
G75*
G02*
X106819000Y-121689000I0J-250000D01*
G01*
X106819000Y-122839000D01*
G75*
G02*
X106569000Y-123089000I-250000J0D01*
G01*
X105469000Y-123089000D01*
G75*
G02*
X105219000Y-122839000I0J250000D01*
G01*
G37*
G36*
G01*
X102369000Y-122839000D02*
X102369000Y-121689000D01*
G75*
G02*
X102619000Y-121439000I250000J0D01*
G01*
X103719000Y-121439000D01*
G75*
G02*
X103969000Y-121689000I0J-250000D01*
G01*
X103969000Y-122839000D01*
G75*
G02*
X103719000Y-123089000I-250000J0D01*
G01*
X102619000Y-123089000D01*
G75*
G02*
X102369000Y-122839000I0J250000D01*
G01*
G37*
G36*
G01*
X105203000Y-125252000D02*
X105203000Y-124102000D01*
G75*
G02*
X105453000Y-123852000I250000J0D01*
G01*
X106553000Y-123852000D01*
G75*
G02*
X106803000Y-124102000I0J-250000D01*
G01*
X106803000Y-125252000D01*
G75*
G02*
X106553000Y-125502000I-250000J0D01*
G01*
X105453000Y-125502000D01*
G75*
G02*
X105203000Y-125252000I0J250000D01*
G01*
G37*
G36*
G01*
X102353000Y-125252000D02*
X102353000Y-124102000D01*
G75*
G02*
X102603000Y-123852000I250000J0D01*
G01*
X103703000Y-123852000D01*
G75*
G02*
X103953000Y-124102000I0J-250000D01*
G01*
X103953000Y-125252000D01*
G75*
G02*
X103703000Y-125502000I-250000J0D01*
G01*
X102603000Y-125502000D01*
G75*
G02*
X102353000Y-125252000I0J250000D01*
G01*
G37*
G36*
G01*
X105231000Y-127665000D02*
X105231000Y-126515000D01*
G75*
G02*
X105481000Y-126265000I250000J0D01*
G01*
X106581000Y-126265000D01*
G75*
G02*
X106831000Y-126515000I0J-250000D01*
G01*
X106831000Y-127665000D01*
G75*
G02*
X106581000Y-127915000I-250000J0D01*
G01*
X105481000Y-127915000D01*
G75*
G02*
X105231000Y-127665000I0J250000D01*
G01*
G37*
G36*
G01*
X102381000Y-127665000D02*
X102381000Y-126515000D01*
G75*
G02*
X102631000Y-126265000I250000J0D01*
G01*
X103731000Y-126265000D01*
G75*
G02*
X103981000Y-126515000I0J-250000D01*
G01*
X103981000Y-127665000D01*
G75*
G02*
X103731000Y-127915000I-250000J0D01*
G01*
X102631000Y-127915000D01*
G75*
G02*
X102381000Y-127665000I0J250000D01*
G01*
G37*
G36*
G01*
X105203000Y-130078000D02*
X105203000Y-128928000D01*
G75*
G02*
X105453000Y-128678000I250000J0D01*
G01*
X106553000Y-128678000D01*
G75*
G02*
X106803000Y-128928000I0J-250000D01*
G01*
X106803000Y-130078000D01*
G75*
G02*
X106553000Y-130328000I-250000J0D01*
G01*
X105453000Y-130328000D01*
G75*
G02*
X105203000Y-130078000I0J250000D01*
G01*
G37*
G36*
G01*
X102353000Y-130078000D02*
X102353000Y-128928000D01*
G75*
G02*
X102603000Y-128678000I250000J0D01*
G01*
X103703000Y-128678000D01*
G75*
G02*
X103953000Y-128928000I0J-250000D01*
G01*
X103953000Y-130078000D01*
G75*
G02*
X103703000Y-130328000I-250000J0D01*
G01*
X102603000Y-130328000D01*
G75*
G02*
X102353000Y-130078000I0J250000D01*
G01*
G37*
G36*
G01*
X114225000Y-192050000D02*
X113075000Y-192050000D01*
G75*
G02*
X112825000Y-191800000I0J250000D01*
G01*
X112825000Y-190700000D01*
G75*
G02*
X113075000Y-190450000I250000J0D01*
G01*
X114225000Y-190450000D01*
G75*
G02*
X114475000Y-190700000I0J-250000D01*
G01*
X114475000Y-191800000D01*
G75*
G02*
X114225000Y-192050000I-250000J0D01*
G01*
G37*
G36*
G01*
X114225000Y-194900000D02*
X113075000Y-194900000D01*
G75*
G02*
X112825000Y-194650000I0J250000D01*
G01*
X112825000Y-193550000D01*
G75*
G02*
X113075000Y-193300000I250000J0D01*
G01*
X114225000Y-193300000D01*
G75*
G02*
X114475000Y-193550000I0J-250000D01*
G01*
X114475000Y-194650000D01*
G75*
G02*
X114225000Y-194900000I-250000J0D01*
G01*
G37*
G36*
G01*
X117675000Y-192050000D02*
X116525000Y-192050000D01*
G75*
G02*
X116275000Y-191800000I0J250000D01*
G01*
X116275000Y-190700000D01*
G75*
G02*
X116525000Y-190450000I250000J0D01*
G01*
X117675000Y-190450000D01*
G75*
G02*
X117925000Y-190700000I0J-250000D01*
G01*
X117925000Y-191800000D01*
G75*
G02*
X117675000Y-192050000I-250000J0D01*
G01*
G37*
G36*
G01*
X117675000Y-194900000D02*
X116525000Y-194900000D01*
G75*
G02*
X116275000Y-194650000I0J250000D01*
G01*
X116275000Y-193550000D01*
G75*
G02*
X116525000Y-193300000I250000J0D01*
G01*
X117675000Y-193300000D01*
G75*
G02*
X117925000Y-193550000I0J-250000D01*
G01*
X117925000Y-194650000D01*
G75*
G02*
X117675000Y-194900000I-250000J0D01*
G01*
G37*
G36*
G01*
X149875000Y-106075000D02*
X149875000Y-104925000D01*
G75*
G02*
X150125000Y-104675000I250000J0D01*
G01*
X151225000Y-104675000D01*
G75*
G02*
X151475000Y-104925000I0J-250000D01*
G01*
X151475000Y-106075000D01*
G75*
G02*
X151225000Y-106325000I-250000J0D01*
G01*
X150125000Y-106325000D01*
G75*
G02*
X149875000Y-106075000I0J250000D01*
G01*
G37*
G36*
G01*
X147025000Y-106075000D02*
X147025000Y-104925000D01*
G75*
G02*
X147275000Y-104675000I250000J0D01*
G01*
X148375000Y-104675000D01*
G75*
G02*
X148625000Y-104925000I0J-250000D01*
G01*
X148625000Y-106075000D01*
G75*
G02*
X148375000Y-106325000I-250000J0D01*
G01*
X147275000Y-106325000D01*
G75*
G02*
X147025000Y-106075000I0J250000D01*
G01*
G37*
G36*
G01*
X140518750Y-107521250D02*
X140518750Y-106371250D01*
G75*
G02*
X140768750Y-106121250I250000J0D01*
G01*
X141868750Y-106121250D01*
G75*
G02*
X142118750Y-106371250I0J-250000D01*
G01*
X142118750Y-107521250D01*
G75*
G02*
X141868750Y-107771250I-250000J0D01*
G01*
X140768750Y-107771250D01*
G75*
G02*
X140518750Y-107521250I0J250000D01*
G01*
G37*
G36*
G01*
X137668750Y-107521250D02*
X137668750Y-106371250D01*
G75*
G02*
X137918750Y-106121250I250000J0D01*
G01*
X139018750Y-106121250D01*
G75*
G02*
X139268750Y-106371250I0J-250000D01*
G01*
X139268750Y-107521250D01*
G75*
G02*
X139018750Y-107771250I-250000J0D01*
G01*
X137918750Y-107771250D01*
G75*
G02*
X137668750Y-107521250I0J250000D01*
G01*
G37*
G36*
G01*
X159775000Y-189723000D02*
X160875000Y-189723000D01*
G75*
G02*
X161125000Y-189973000I0J-250000D01*
G01*
X161125000Y-192973000D01*
G75*
G02*
X160875000Y-193223000I-250000J0D01*
G01*
X159775000Y-193223000D01*
G75*
G02*
X159525000Y-192973000I0J250000D01*
G01*
X159525000Y-189973000D01*
G75*
G02*
X159775000Y-189723000I250000J0D01*
G01*
G37*
G36*
G01*
X159775000Y-184323000D02*
X160875000Y-184323000D01*
G75*
G02*
X161125000Y-184573000I0J-250000D01*
G01*
X161125000Y-187573000D01*
G75*
G02*
X160875000Y-187823000I-250000J0D01*
G01*
X159775000Y-187823000D01*
G75*
G02*
X159525000Y-187573000I0J250000D01*
G01*
X159525000Y-184573000D01*
G75*
G02*
X159775000Y-184323000I250000J0D01*
G01*
G37*
G36*
G01*
X160664000Y-158100000D02*
X161764000Y-158100000D01*
G75*
G02*
X162014000Y-158350000I0J-250000D01*
G01*
X162014000Y-161350000D01*
G75*
G02*
X161764000Y-161600000I-250000J0D01*
G01*
X160664000Y-161600000D01*
G75*
G02*
X160414000Y-161350000I0J250000D01*
G01*
X160414000Y-158350000D01*
G75*
G02*
X160664000Y-158100000I250000J0D01*
G01*
G37*
G36*
G01*
X160664000Y-152700000D02*
X161764000Y-152700000D01*
G75*
G02*
X162014000Y-152950000I0J-250000D01*
G01*
X162014000Y-155950000D01*
G75*
G02*
X161764000Y-156200000I-250000J0D01*
G01*
X160664000Y-156200000D01*
G75*
G02*
X160414000Y-155950000I0J250000D01*
G01*
X160414000Y-152950000D01*
G75*
G02*
X160664000Y-152700000I250000J0D01*
G01*
G37*
D11*
X152770000Y-135750000D03*
X152770000Y-140790000D03*
X155310000Y-135750000D03*
X155310000Y-140790000D03*
G36*
G01*
X115094500Y-124607000D02*
X115094500Y-124807000D01*
G75*
G02*
X114994500Y-124907000I-100000J0D01*
G01*
X113719500Y-124907000D01*
G75*
G02*
X113619500Y-124807000I0J100000D01*
G01*
X113619500Y-124607000D01*
G75*
G02*
X113719500Y-124507000I100000J0D01*
G01*
X114994500Y-124507000D01*
G75*
G02*
X115094500Y-124607000I0J-100000D01*
G01*
G37*
G36*
G01*
X115094500Y-123957000D02*
X115094500Y-124157000D01*
G75*
G02*
X114994500Y-124257000I-100000J0D01*
G01*
X113719500Y-124257000D01*
G75*
G02*
X113619500Y-124157000I0J100000D01*
G01*
X113619500Y-123957000D01*
G75*
G02*
X113719500Y-123857000I100000J0D01*
G01*
X114994500Y-123857000D01*
G75*
G02*
X115094500Y-123957000I0J-100000D01*
G01*
G37*
G36*
G01*
X115094500Y-123307000D02*
X115094500Y-123507000D01*
G75*
G02*
X114994500Y-123607000I-100000J0D01*
G01*
X113719500Y-123607000D01*
G75*
G02*
X113619500Y-123507000I0J100000D01*
G01*
X113619500Y-123307000D01*
G75*
G02*
X113719500Y-123207000I100000J0D01*
G01*
X114994500Y-123207000D01*
G75*
G02*
X115094500Y-123307000I0J-100000D01*
G01*
G37*
G36*
G01*
X115094500Y-122657000D02*
X115094500Y-122857000D01*
G75*
G02*
X114994500Y-122957000I-100000J0D01*
G01*
X113719500Y-122957000D01*
G75*
G02*
X113619500Y-122857000I0J100000D01*
G01*
X113619500Y-122657000D01*
G75*
G02*
X113719500Y-122557000I100000J0D01*
G01*
X114994500Y-122557000D01*
G75*
G02*
X115094500Y-122657000I0J-100000D01*
G01*
G37*
G36*
G01*
X120819500Y-122657000D02*
X120819500Y-122857000D01*
G75*
G02*
X120719500Y-122957000I-100000J0D01*
G01*
X119444500Y-122957000D01*
G75*
G02*
X119344500Y-122857000I0J100000D01*
G01*
X119344500Y-122657000D01*
G75*
G02*
X119444500Y-122557000I100000J0D01*
G01*
X120719500Y-122557000D01*
G75*
G02*
X120819500Y-122657000I0J-100000D01*
G01*
G37*
G36*
G01*
X120819500Y-123307000D02*
X120819500Y-123507000D01*
G75*
G02*
X120719500Y-123607000I-100000J0D01*
G01*
X119444500Y-123607000D01*
G75*
G02*
X119344500Y-123507000I0J100000D01*
G01*
X119344500Y-123307000D01*
G75*
G02*
X119444500Y-123207000I100000J0D01*
G01*
X120719500Y-123207000D01*
G75*
G02*
X120819500Y-123307000I0J-100000D01*
G01*
G37*
G36*
G01*
X120819500Y-123957000D02*
X120819500Y-124157000D01*
G75*
G02*
X120719500Y-124257000I-100000J0D01*
G01*
X119444500Y-124257000D01*
G75*
G02*
X119344500Y-124157000I0J100000D01*
G01*
X119344500Y-123957000D01*
G75*
G02*
X119444500Y-123857000I100000J0D01*
G01*
X120719500Y-123857000D01*
G75*
G02*
X120819500Y-123957000I0J-100000D01*
G01*
G37*
G36*
G01*
X120819500Y-124607000D02*
X120819500Y-124807000D01*
G75*
G02*
X120719500Y-124907000I-100000J0D01*
G01*
X119444500Y-124907000D01*
G75*
G02*
X119344500Y-124807000I0J100000D01*
G01*
X119344500Y-124607000D01*
G75*
G02*
X119444500Y-124507000I100000J0D01*
G01*
X120719500Y-124507000D01*
G75*
G02*
X120819500Y-124607000I0J-100000D01*
G01*
G37*
D12*
X112628750Y-110171250D03*
X112628750Y-105121250D03*
X115168750Y-110171250D03*
X115168750Y-105121250D03*
X117708750Y-110171250D03*
X117708750Y-105121250D03*
G36*
G01*
X130000000Y-132987500D02*
X128675000Y-132987500D01*
G75*
G02*
X128600000Y-132912500I0J75000D01*
G01*
X128600000Y-132762500D01*
G75*
G02*
X128675000Y-132687500I75000J0D01*
G01*
X130000000Y-132687500D01*
G75*
G02*
X130075000Y-132762500I0J-75000D01*
G01*
X130075000Y-132912500D01*
G75*
G02*
X130000000Y-132987500I-75000J0D01*
G01*
G37*
G36*
G01*
X130000000Y-132487500D02*
X128675000Y-132487500D01*
G75*
G02*
X128600000Y-132412500I0J75000D01*
G01*
X128600000Y-132262500D01*
G75*
G02*
X128675000Y-132187500I75000J0D01*
G01*
X130000000Y-132187500D01*
G75*
G02*
X130075000Y-132262500I0J-75000D01*
G01*
X130075000Y-132412500D01*
G75*
G02*
X130000000Y-132487500I-75000J0D01*
G01*
G37*
G36*
G01*
X130000000Y-131987500D02*
X128675000Y-131987500D01*
G75*
G02*
X128600000Y-131912500I0J75000D01*
G01*
X128600000Y-131762500D01*
G75*
G02*
X128675000Y-131687500I75000J0D01*
G01*
X130000000Y-131687500D01*
G75*
G02*
X130075000Y-131762500I0J-75000D01*
G01*
X130075000Y-131912500D01*
G75*
G02*
X130000000Y-131987500I-75000J0D01*
G01*
G37*
G36*
G01*
X130000000Y-131487500D02*
X128675000Y-131487500D01*
G75*
G02*
X128600000Y-131412500I0J75000D01*
G01*
X128600000Y-131262500D01*
G75*
G02*
X128675000Y-131187500I75000J0D01*
G01*
X130000000Y-131187500D01*
G75*
G02*
X130075000Y-131262500I0J-75000D01*
G01*
X130075000Y-131412500D01*
G75*
G02*
X130000000Y-131487500I-75000J0D01*
G01*
G37*
G36*
G01*
X130000000Y-130987500D02*
X128675000Y-130987500D01*
G75*
G02*
X128600000Y-130912500I0J75000D01*
G01*
X128600000Y-130762500D01*
G75*
G02*
X128675000Y-130687500I75000J0D01*
G01*
X130000000Y-130687500D01*
G75*
G02*
X130075000Y-130762500I0J-75000D01*
G01*
X130075000Y-130912500D01*
G75*
G02*
X130000000Y-130987500I-75000J0D01*
G01*
G37*
G36*
G01*
X130000000Y-130487500D02*
X128675000Y-130487500D01*
G75*
G02*
X128600000Y-130412500I0J75000D01*
G01*
X128600000Y-130262500D01*
G75*
G02*
X128675000Y-130187500I75000J0D01*
G01*
X130000000Y-130187500D01*
G75*
G02*
X130075000Y-130262500I0J-75000D01*
G01*
X130075000Y-130412500D01*
G75*
G02*
X130000000Y-130487500I-75000J0D01*
G01*
G37*
G36*
G01*
X130000000Y-129987500D02*
X128675000Y-129987500D01*
G75*
G02*
X128600000Y-129912500I0J75000D01*
G01*
X128600000Y-129762500D01*
G75*
G02*
X128675000Y-129687500I75000J0D01*
G01*
X130000000Y-129687500D01*
G75*
G02*
X130075000Y-129762500I0J-75000D01*
G01*
X130075000Y-129912500D01*
G75*
G02*
X130000000Y-129987500I-75000J0D01*
G01*
G37*
G36*
G01*
X130000000Y-129487500D02*
X128675000Y-129487500D01*
G75*
G02*
X128600000Y-129412500I0J75000D01*
G01*
X128600000Y-129262500D01*
G75*
G02*
X128675000Y-129187500I75000J0D01*
G01*
X130000000Y-129187500D01*
G75*
G02*
X130075000Y-129262500I0J-75000D01*
G01*
X130075000Y-129412500D01*
G75*
G02*
X130000000Y-129487500I-75000J0D01*
G01*
G37*
G36*
G01*
X130000000Y-128987500D02*
X128675000Y-128987500D01*
G75*
G02*
X128600000Y-128912500I0J75000D01*
G01*
X128600000Y-128762500D01*
G75*
G02*
X128675000Y-128687500I75000J0D01*
G01*
X130000000Y-128687500D01*
G75*
G02*
X130075000Y-128762500I0J-75000D01*
G01*
X130075000Y-128912500D01*
G75*
G02*
X130000000Y-128987500I-75000J0D01*
G01*
G37*
G36*
G01*
X130000000Y-128487500D02*
X128675000Y-128487500D01*
G75*
G02*
X128600000Y-128412500I0J75000D01*
G01*
X128600000Y-128262500D01*
G75*
G02*
X128675000Y-128187500I75000J0D01*
G01*
X130000000Y-128187500D01*
G75*
G02*
X130075000Y-128262500I0J-75000D01*
G01*
X130075000Y-128412500D01*
G75*
G02*
X130000000Y-128487500I-75000J0D01*
G01*
G37*
G36*
G01*
X130000000Y-127987500D02*
X128675000Y-127987500D01*
G75*
G02*
X128600000Y-127912500I0J75000D01*
G01*
X128600000Y-127762500D01*
G75*
G02*
X128675000Y-127687500I75000J0D01*
G01*
X130000000Y-127687500D01*
G75*
G02*
X130075000Y-127762500I0J-75000D01*
G01*
X130075000Y-127912500D01*
G75*
G02*
X130000000Y-127987500I-75000J0D01*
G01*
G37*
G36*
G01*
X130000000Y-127487500D02*
X128675000Y-127487500D01*
G75*
G02*
X128600000Y-127412500I0J75000D01*
G01*
X128600000Y-127262500D01*
G75*
G02*
X128675000Y-127187500I75000J0D01*
G01*
X130000000Y-127187500D01*
G75*
G02*
X130075000Y-127262500I0J-75000D01*
G01*
X130075000Y-127412500D01*
G75*
G02*
X130000000Y-127487500I-75000J0D01*
G01*
G37*
G36*
G01*
X130000000Y-126987500D02*
X128675000Y-126987500D01*
G75*
G02*
X128600000Y-126912500I0J75000D01*
G01*
X128600000Y-126762500D01*
G75*
G02*
X128675000Y-126687500I75000J0D01*
G01*
X130000000Y-126687500D01*
G75*
G02*
X130075000Y-126762500I0J-75000D01*
G01*
X130075000Y-126912500D01*
G75*
G02*
X130000000Y-126987500I-75000J0D01*
G01*
G37*
G36*
G01*
X130000000Y-126487500D02*
X128675000Y-126487500D01*
G75*
G02*
X128600000Y-126412500I0J75000D01*
G01*
X128600000Y-126262500D01*
G75*
G02*
X128675000Y-126187500I75000J0D01*
G01*
X130000000Y-126187500D01*
G75*
G02*
X130075000Y-126262500I0J-75000D01*
G01*
X130075000Y-126412500D01*
G75*
G02*
X130000000Y-126487500I-75000J0D01*
G01*
G37*
G36*
G01*
X130000000Y-125987500D02*
X128675000Y-125987500D01*
G75*
G02*
X128600000Y-125912500I0J75000D01*
G01*
X128600000Y-125762500D01*
G75*
G02*
X128675000Y-125687500I75000J0D01*
G01*
X130000000Y-125687500D01*
G75*
G02*
X130075000Y-125762500I0J-75000D01*
G01*
X130075000Y-125912500D01*
G75*
G02*
X130000000Y-125987500I-75000J0D01*
G01*
G37*
G36*
G01*
X130000000Y-125487500D02*
X128675000Y-125487500D01*
G75*
G02*
X128600000Y-125412500I0J75000D01*
G01*
X128600000Y-125262500D01*
G75*
G02*
X128675000Y-125187500I75000J0D01*
G01*
X130000000Y-125187500D01*
G75*
G02*
X130075000Y-125262500I0J-75000D01*
G01*
X130075000Y-125412500D01*
G75*
G02*
X130000000Y-125487500I-75000J0D01*
G01*
G37*
G36*
G01*
X130000000Y-124987500D02*
X128675000Y-124987500D01*
G75*
G02*
X128600000Y-124912500I0J75000D01*
G01*
X128600000Y-124762500D01*
G75*
G02*
X128675000Y-124687500I75000J0D01*
G01*
X130000000Y-124687500D01*
G75*
G02*
X130075000Y-124762500I0J-75000D01*
G01*
X130075000Y-124912500D01*
G75*
G02*
X130000000Y-124987500I-75000J0D01*
G01*
G37*
G36*
G01*
X130000000Y-124487500D02*
X128675000Y-124487500D01*
G75*
G02*
X128600000Y-124412500I0J75000D01*
G01*
X128600000Y-124262500D01*
G75*
G02*
X128675000Y-124187500I75000J0D01*
G01*
X130000000Y-124187500D01*
G75*
G02*
X130075000Y-124262500I0J-75000D01*
G01*
X130075000Y-124412500D01*
G75*
G02*
X130000000Y-124487500I-75000J0D01*
G01*
G37*
G36*
G01*
X130000000Y-123987500D02*
X128675000Y-123987500D01*
G75*
G02*
X128600000Y-123912500I0J75000D01*
G01*
X128600000Y-123762500D01*
G75*
G02*
X128675000Y-123687500I75000J0D01*
G01*
X130000000Y-123687500D01*
G75*
G02*
X130075000Y-123762500I0J-75000D01*
G01*
X130075000Y-123912500D01*
G75*
G02*
X130000000Y-123987500I-75000J0D01*
G01*
G37*
G36*
G01*
X130000000Y-123487500D02*
X128675000Y-123487500D01*
G75*
G02*
X128600000Y-123412500I0J75000D01*
G01*
X128600000Y-123262500D01*
G75*
G02*
X128675000Y-123187500I75000J0D01*
G01*
X130000000Y-123187500D01*
G75*
G02*
X130075000Y-123262500I0J-75000D01*
G01*
X130075000Y-123412500D01*
G75*
G02*
X130000000Y-123487500I-75000J0D01*
G01*
G37*
G36*
G01*
X130000000Y-122987500D02*
X128675000Y-122987500D01*
G75*
G02*
X128600000Y-122912500I0J75000D01*
G01*
X128600000Y-122762500D01*
G75*
G02*
X128675000Y-122687500I75000J0D01*
G01*
X130000000Y-122687500D01*
G75*
G02*
X130075000Y-122762500I0J-75000D01*
G01*
X130075000Y-122912500D01*
G75*
G02*
X130000000Y-122987500I-75000J0D01*
G01*
G37*
G36*
G01*
X130000000Y-122487500D02*
X128675000Y-122487500D01*
G75*
G02*
X128600000Y-122412500I0J75000D01*
G01*
X128600000Y-122262500D01*
G75*
G02*
X128675000Y-122187500I75000J0D01*
G01*
X130000000Y-122187500D01*
G75*
G02*
X130075000Y-122262500I0J-75000D01*
G01*
X130075000Y-122412500D01*
G75*
G02*
X130000000Y-122487500I-75000J0D01*
G01*
G37*
G36*
G01*
X130000000Y-121987500D02*
X128675000Y-121987500D01*
G75*
G02*
X128600000Y-121912500I0J75000D01*
G01*
X128600000Y-121762500D01*
G75*
G02*
X128675000Y-121687500I75000J0D01*
G01*
X130000000Y-121687500D01*
G75*
G02*
X130075000Y-121762500I0J-75000D01*
G01*
X130075000Y-121912500D01*
G75*
G02*
X130000000Y-121987500I-75000J0D01*
G01*
G37*
G36*
G01*
X130000000Y-121487500D02*
X128675000Y-121487500D01*
G75*
G02*
X128600000Y-121412500I0J75000D01*
G01*
X128600000Y-121262500D01*
G75*
G02*
X128675000Y-121187500I75000J0D01*
G01*
X130000000Y-121187500D01*
G75*
G02*
X130075000Y-121262500I0J-75000D01*
G01*
X130075000Y-121412500D01*
G75*
G02*
X130000000Y-121487500I-75000J0D01*
G01*
G37*
G36*
G01*
X130000000Y-120987500D02*
X128675000Y-120987500D01*
G75*
G02*
X128600000Y-120912500I0J75000D01*
G01*
X128600000Y-120762500D01*
G75*
G02*
X128675000Y-120687500I75000J0D01*
G01*
X130000000Y-120687500D01*
G75*
G02*
X130075000Y-120762500I0J-75000D01*
G01*
X130075000Y-120912500D01*
G75*
G02*
X130000000Y-120987500I-75000J0D01*
G01*
G37*
G36*
G01*
X131075000Y-119912500D02*
X130925000Y-119912500D01*
G75*
G02*
X130850000Y-119837500I0J75000D01*
G01*
X130850000Y-118512500D01*
G75*
G02*
X130925000Y-118437500I75000J0D01*
G01*
X131075000Y-118437500D01*
G75*
G02*
X131150000Y-118512500I0J-75000D01*
G01*
X131150000Y-119837500D01*
G75*
G02*
X131075000Y-119912500I-75000J0D01*
G01*
G37*
G36*
G01*
X131575000Y-119912500D02*
X131425000Y-119912500D01*
G75*
G02*
X131350000Y-119837500I0J75000D01*
G01*
X131350000Y-118512500D01*
G75*
G02*
X131425000Y-118437500I75000J0D01*
G01*
X131575000Y-118437500D01*
G75*
G02*
X131650000Y-118512500I0J-75000D01*
G01*
X131650000Y-119837500D01*
G75*
G02*
X131575000Y-119912500I-75000J0D01*
G01*
G37*
G36*
G01*
X132075000Y-119912500D02*
X131925000Y-119912500D01*
G75*
G02*
X131850000Y-119837500I0J75000D01*
G01*
X131850000Y-118512500D01*
G75*
G02*
X131925000Y-118437500I75000J0D01*
G01*
X132075000Y-118437500D01*
G75*
G02*
X132150000Y-118512500I0J-75000D01*
G01*
X132150000Y-119837500D01*
G75*
G02*
X132075000Y-119912500I-75000J0D01*
G01*
G37*
G36*
G01*
X132575000Y-119912500D02*
X132425000Y-119912500D01*
G75*
G02*
X132350000Y-119837500I0J75000D01*
G01*
X132350000Y-118512500D01*
G75*
G02*
X132425000Y-118437500I75000J0D01*
G01*
X132575000Y-118437500D01*
G75*
G02*
X132650000Y-118512500I0J-75000D01*
G01*
X132650000Y-119837500D01*
G75*
G02*
X132575000Y-119912500I-75000J0D01*
G01*
G37*
G36*
G01*
X133075000Y-119912500D02*
X132925000Y-119912500D01*
G75*
G02*
X132850000Y-119837500I0J75000D01*
G01*
X132850000Y-118512500D01*
G75*
G02*
X132925000Y-118437500I75000J0D01*
G01*
X133075000Y-118437500D01*
G75*
G02*
X133150000Y-118512500I0J-75000D01*
G01*
X133150000Y-119837500D01*
G75*
G02*
X133075000Y-119912500I-75000J0D01*
G01*
G37*
G36*
G01*
X133575000Y-119912500D02*
X133425000Y-119912500D01*
G75*
G02*
X133350000Y-119837500I0J75000D01*
G01*
X133350000Y-118512500D01*
G75*
G02*
X133425000Y-118437500I75000J0D01*
G01*
X133575000Y-118437500D01*
G75*
G02*
X133650000Y-118512500I0J-75000D01*
G01*
X133650000Y-119837500D01*
G75*
G02*
X133575000Y-119912500I-75000J0D01*
G01*
G37*
G36*
G01*
X134075000Y-119912500D02*
X133925000Y-119912500D01*
G75*
G02*
X133850000Y-119837500I0J75000D01*
G01*
X133850000Y-118512500D01*
G75*
G02*
X133925000Y-118437500I75000J0D01*
G01*
X134075000Y-118437500D01*
G75*
G02*
X134150000Y-118512500I0J-75000D01*
G01*
X134150000Y-119837500D01*
G75*
G02*
X134075000Y-119912500I-75000J0D01*
G01*
G37*
G36*
G01*
X134575000Y-119912500D02*
X134425000Y-119912500D01*
G75*
G02*
X134350000Y-119837500I0J75000D01*
G01*
X134350000Y-118512500D01*
G75*
G02*
X134425000Y-118437500I75000J0D01*
G01*
X134575000Y-118437500D01*
G75*
G02*
X134650000Y-118512500I0J-75000D01*
G01*
X134650000Y-119837500D01*
G75*
G02*
X134575000Y-119912500I-75000J0D01*
G01*
G37*
G36*
G01*
X135075000Y-119912500D02*
X134925000Y-119912500D01*
G75*
G02*
X134850000Y-119837500I0J75000D01*
G01*
X134850000Y-118512500D01*
G75*
G02*
X134925000Y-118437500I75000J0D01*
G01*
X135075000Y-118437500D01*
G75*
G02*
X135150000Y-118512500I0J-75000D01*
G01*
X135150000Y-119837500D01*
G75*
G02*
X135075000Y-119912500I-75000J0D01*
G01*
G37*
G36*
G01*
X135575000Y-119912500D02*
X135425000Y-119912500D01*
G75*
G02*
X135350000Y-119837500I0J75000D01*
G01*
X135350000Y-118512500D01*
G75*
G02*
X135425000Y-118437500I75000J0D01*
G01*
X135575000Y-118437500D01*
G75*
G02*
X135650000Y-118512500I0J-75000D01*
G01*
X135650000Y-119837500D01*
G75*
G02*
X135575000Y-119912500I-75000J0D01*
G01*
G37*
G36*
G01*
X136075000Y-119912500D02*
X135925000Y-119912500D01*
G75*
G02*
X135850000Y-119837500I0J75000D01*
G01*
X135850000Y-118512500D01*
G75*
G02*
X135925000Y-118437500I75000J0D01*
G01*
X136075000Y-118437500D01*
G75*
G02*
X136150000Y-118512500I0J-75000D01*
G01*
X136150000Y-119837500D01*
G75*
G02*
X136075000Y-119912500I-75000J0D01*
G01*
G37*
G36*
G01*
X136575000Y-119912500D02*
X136425000Y-119912500D01*
G75*
G02*
X136350000Y-119837500I0J75000D01*
G01*
X136350000Y-118512500D01*
G75*
G02*
X136425000Y-118437500I75000J0D01*
G01*
X136575000Y-118437500D01*
G75*
G02*
X136650000Y-118512500I0J-75000D01*
G01*
X136650000Y-119837500D01*
G75*
G02*
X136575000Y-119912500I-75000J0D01*
G01*
G37*
G36*
G01*
X137075000Y-119912500D02*
X136925000Y-119912500D01*
G75*
G02*
X136850000Y-119837500I0J75000D01*
G01*
X136850000Y-118512500D01*
G75*
G02*
X136925000Y-118437500I75000J0D01*
G01*
X137075000Y-118437500D01*
G75*
G02*
X137150000Y-118512500I0J-75000D01*
G01*
X137150000Y-119837500D01*
G75*
G02*
X137075000Y-119912500I-75000J0D01*
G01*
G37*
G36*
G01*
X137575000Y-119912500D02*
X137425000Y-119912500D01*
G75*
G02*
X137350000Y-119837500I0J75000D01*
G01*
X137350000Y-118512500D01*
G75*
G02*
X137425000Y-118437500I75000J0D01*
G01*
X137575000Y-118437500D01*
G75*
G02*
X137650000Y-118512500I0J-75000D01*
G01*
X137650000Y-119837500D01*
G75*
G02*
X137575000Y-119912500I-75000J0D01*
G01*
G37*
G36*
G01*
X138075000Y-119912500D02*
X137925000Y-119912500D01*
G75*
G02*
X137850000Y-119837500I0J75000D01*
G01*
X137850000Y-118512500D01*
G75*
G02*
X137925000Y-118437500I75000J0D01*
G01*
X138075000Y-118437500D01*
G75*
G02*
X138150000Y-118512500I0J-75000D01*
G01*
X138150000Y-119837500D01*
G75*
G02*
X138075000Y-119912500I-75000J0D01*
G01*
G37*
G36*
G01*
X138575000Y-119912500D02*
X138425000Y-119912500D01*
G75*
G02*
X138350000Y-119837500I0J75000D01*
G01*
X138350000Y-118512500D01*
G75*
G02*
X138425000Y-118437500I75000J0D01*
G01*
X138575000Y-118437500D01*
G75*
G02*
X138650000Y-118512500I0J-75000D01*
G01*
X138650000Y-119837500D01*
G75*
G02*
X138575000Y-119912500I-75000J0D01*
G01*
G37*
G36*
G01*
X139075000Y-119912500D02*
X138925000Y-119912500D01*
G75*
G02*
X138850000Y-119837500I0J75000D01*
G01*
X138850000Y-118512500D01*
G75*
G02*
X138925000Y-118437500I75000J0D01*
G01*
X139075000Y-118437500D01*
G75*
G02*
X139150000Y-118512500I0J-75000D01*
G01*
X139150000Y-119837500D01*
G75*
G02*
X139075000Y-119912500I-75000J0D01*
G01*
G37*
G36*
G01*
X139575000Y-119912500D02*
X139425000Y-119912500D01*
G75*
G02*
X139350000Y-119837500I0J75000D01*
G01*
X139350000Y-118512500D01*
G75*
G02*
X139425000Y-118437500I75000J0D01*
G01*
X139575000Y-118437500D01*
G75*
G02*
X139650000Y-118512500I0J-75000D01*
G01*
X139650000Y-119837500D01*
G75*
G02*
X139575000Y-119912500I-75000J0D01*
G01*
G37*
G36*
G01*
X140075000Y-119912500D02*
X139925000Y-119912500D01*
G75*
G02*
X139850000Y-119837500I0J75000D01*
G01*
X139850000Y-118512500D01*
G75*
G02*
X139925000Y-118437500I75000J0D01*
G01*
X140075000Y-118437500D01*
G75*
G02*
X140150000Y-118512500I0J-75000D01*
G01*
X140150000Y-119837500D01*
G75*
G02*
X140075000Y-119912500I-75000J0D01*
G01*
G37*
G36*
G01*
X140575000Y-119912500D02*
X140425000Y-119912500D01*
G75*
G02*
X140350000Y-119837500I0J75000D01*
G01*
X140350000Y-118512500D01*
G75*
G02*
X140425000Y-118437500I75000J0D01*
G01*
X140575000Y-118437500D01*
G75*
G02*
X140650000Y-118512500I0J-75000D01*
G01*
X140650000Y-119837500D01*
G75*
G02*
X140575000Y-119912500I-75000J0D01*
G01*
G37*
G36*
G01*
X141075000Y-119912500D02*
X140925000Y-119912500D01*
G75*
G02*
X140850000Y-119837500I0J75000D01*
G01*
X140850000Y-118512500D01*
G75*
G02*
X140925000Y-118437500I75000J0D01*
G01*
X141075000Y-118437500D01*
G75*
G02*
X141150000Y-118512500I0J-75000D01*
G01*
X141150000Y-119837500D01*
G75*
G02*
X141075000Y-119912500I-75000J0D01*
G01*
G37*
G36*
G01*
X141575000Y-119912500D02*
X141425000Y-119912500D01*
G75*
G02*
X141350000Y-119837500I0J75000D01*
G01*
X141350000Y-118512500D01*
G75*
G02*
X141425000Y-118437500I75000J0D01*
G01*
X141575000Y-118437500D01*
G75*
G02*
X141650000Y-118512500I0J-75000D01*
G01*
X141650000Y-119837500D01*
G75*
G02*
X141575000Y-119912500I-75000J0D01*
G01*
G37*
G36*
G01*
X142075000Y-119912500D02*
X141925000Y-119912500D01*
G75*
G02*
X141850000Y-119837500I0J75000D01*
G01*
X141850000Y-118512500D01*
G75*
G02*
X141925000Y-118437500I75000J0D01*
G01*
X142075000Y-118437500D01*
G75*
G02*
X142150000Y-118512500I0J-75000D01*
G01*
X142150000Y-119837500D01*
G75*
G02*
X142075000Y-119912500I-75000J0D01*
G01*
G37*
G36*
G01*
X142575000Y-119912500D02*
X142425000Y-119912500D01*
G75*
G02*
X142350000Y-119837500I0J75000D01*
G01*
X142350000Y-118512500D01*
G75*
G02*
X142425000Y-118437500I75000J0D01*
G01*
X142575000Y-118437500D01*
G75*
G02*
X142650000Y-118512500I0J-75000D01*
G01*
X142650000Y-119837500D01*
G75*
G02*
X142575000Y-119912500I-75000J0D01*
G01*
G37*
G36*
G01*
X143075000Y-119912500D02*
X142925000Y-119912500D01*
G75*
G02*
X142850000Y-119837500I0J75000D01*
G01*
X142850000Y-118512500D01*
G75*
G02*
X142925000Y-118437500I75000J0D01*
G01*
X143075000Y-118437500D01*
G75*
G02*
X143150000Y-118512500I0J-75000D01*
G01*
X143150000Y-119837500D01*
G75*
G02*
X143075000Y-119912500I-75000J0D01*
G01*
G37*
G36*
G01*
X145325000Y-120987500D02*
X144000000Y-120987500D01*
G75*
G02*
X143925000Y-120912500I0J75000D01*
G01*
X143925000Y-120762500D01*
G75*
G02*
X144000000Y-120687500I75000J0D01*
G01*
X145325000Y-120687500D01*
G75*
G02*
X145400000Y-120762500I0J-75000D01*
G01*
X145400000Y-120912500D01*
G75*
G02*
X145325000Y-120987500I-75000J0D01*
G01*
G37*
G36*
G01*
X145325000Y-121487500D02*
X144000000Y-121487500D01*
G75*
G02*
X143925000Y-121412500I0J75000D01*
G01*
X143925000Y-121262500D01*
G75*
G02*
X144000000Y-121187500I75000J0D01*
G01*
X145325000Y-121187500D01*
G75*
G02*
X145400000Y-121262500I0J-75000D01*
G01*
X145400000Y-121412500D01*
G75*
G02*
X145325000Y-121487500I-75000J0D01*
G01*
G37*
G36*
G01*
X145325000Y-121987500D02*
X144000000Y-121987500D01*
G75*
G02*
X143925000Y-121912500I0J75000D01*
G01*
X143925000Y-121762500D01*
G75*
G02*
X144000000Y-121687500I75000J0D01*
G01*
X145325000Y-121687500D01*
G75*
G02*
X145400000Y-121762500I0J-75000D01*
G01*
X145400000Y-121912500D01*
G75*
G02*
X145325000Y-121987500I-75000J0D01*
G01*
G37*
G36*
G01*
X145325000Y-122487500D02*
X144000000Y-122487500D01*
G75*
G02*
X143925000Y-122412500I0J75000D01*
G01*
X143925000Y-122262500D01*
G75*
G02*
X144000000Y-122187500I75000J0D01*
G01*
X145325000Y-122187500D01*
G75*
G02*
X145400000Y-122262500I0J-75000D01*
G01*
X145400000Y-122412500D01*
G75*
G02*
X145325000Y-122487500I-75000J0D01*
G01*
G37*
G36*
G01*
X145325000Y-122987500D02*
X144000000Y-122987500D01*
G75*
G02*
X143925000Y-122912500I0J75000D01*
G01*
X143925000Y-122762500D01*
G75*
G02*
X144000000Y-122687500I75000J0D01*
G01*
X145325000Y-122687500D01*
G75*
G02*
X145400000Y-122762500I0J-75000D01*
G01*
X145400000Y-122912500D01*
G75*
G02*
X145325000Y-122987500I-75000J0D01*
G01*
G37*
G36*
G01*
X145325000Y-123487500D02*
X144000000Y-123487500D01*
G75*
G02*
X143925000Y-123412500I0J75000D01*
G01*
X143925000Y-123262500D01*
G75*
G02*
X144000000Y-123187500I75000J0D01*
G01*
X145325000Y-123187500D01*
G75*
G02*
X145400000Y-123262500I0J-75000D01*
G01*
X145400000Y-123412500D01*
G75*
G02*
X145325000Y-123487500I-75000J0D01*
G01*
G37*
G36*
G01*
X145325000Y-123987500D02*
X144000000Y-123987500D01*
G75*
G02*
X143925000Y-123912500I0J75000D01*
G01*
X143925000Y-123762500D01*
G75*
G02*
X144000000Y-123687500I75000J0D01*
G01*
X145325000Y-123687500D01*
G75*
G02*
X145400000Y-123762500I0J-75000D01*
G01*
X145400000Y-123912500D01*
G75*
G02*
X145325000Y-123987500I-75000J0D01*
G01*
G37*
G36*
G01*
X145325000Y-124487500D02*
X144000000Y-124487500D01*
G75*
G02*
X143925000Y-124412500I0J75000D01*
G01*
X143925000Y-124262500D01*
G75*
G02*
X144000000Y-124187500I75000J0D01*
G01*
X145325000Y-124187500D01*
G75*
G02*
X145400000Y-124262500I0J-75000D01*
G01*
X145400000Y-124412500D01*
G75*
G02*
X145325000Y-124487500I-75000J0D01*
G01*
G37*
G36*
G01*
X145325000Y-124987500D02*
X144000000Y-124987500D01*
G75*
G02*
X143925000Y-124912500I0J75000D01*
G01*
X143925000Y-124762500D01*
G75*
G02*
X144000000Y-124687500I75000J0D01*
G01*
X145325000Y-124687500D01*
G75*
G02*
X145400000Y-124762500I0J-75000D01*
G01*
X145400000Y-124912500D01*
G75*
G02*
X145325000Y-124987500I-75000J0D01*
G01*
G37*
G36*
G01*
X145325000Y-125487500D02*
X144000000Y-125487500D01*
G75*
G02*
X143925000Y-125412500I0J75000D01*
G01*
X143925000Y-125262500D01*
G75*
G02*
X144000000Y-125187500I75000J0D01*
G01*
X145325000Y-125187500D01*
G75*
G02*
X145400000Y-125262500I0J-75000D01*
G01*
X145400000Y-125412500D01*
G75*
G02*
X145325000Y-125487500I-75000J0D01*
G01*
G37*
G36*
G01*
X145325000Y-125987500D02*
X144000000Y-125987500D01*
G75*
G02*
X143925000Y-125912500I0J75000D01*
G01*
X143925000Y-125762500D01*
G75*
G02*
X144000000Y-125687500I75000J0D01*
G01*
X145325000Y-125687500D01*
G75*
G02*
X145400000Y-125762500I0J-75000D01*
G01*
X145400000Y-125912500D01*
G75*
G02*
X145325000Y-125987500I-75000J0D01*
G01*
G37*
G36*
G01*
X145325000Y-126487500D02*
X144000000Y-126487500D01*
G75*
G02*
X143925000Y-126412500I0J75000D01*
G01*
X143925000Y-126262500D01*
G75*
G02*
X144000000Y-126187500I75000J0D01*
G01*
X145325000Y-126187500D01*
G75*
G02*
X145400000Y-126262500I0J-75000D01*
G01*
X145400000Y-126412500D01*
G75*
G02*
X145325000Y-126487500I-75000J0D01*
G01*
G37*
G36*
G01*
X145325000Y-126987500D02*
X144000000Y-126987500D01*
G75*
G02*
X143925000Y-126912500I0J75000D01*
G01*
X143925000Y-126762500D01*
G75*
G02*
X144000000Y-126687500I75000J0D01*
G01*
X145325000Y-126687500D01*
G75*
G02*
X145400000Y-126762500I0J-75000D01*
G01*
X145400000Y-126912500D01*
G75*
G02*
X145325000Y-126987500I-75000J0D01*
G01*
G37*
G36*
G01*
X145325000Y-127487500D02*
X144000000Y-127487500D01*
G75*
G02*
X143925000Y-127412500I0J75000D01*
G01*
X143925000Y-127262500D01*
G75*
G02*
X144000000Y-127187500I75000J0D01*
G01*
X145325000Y-127187500D01*
G75*
G02*
X145400000Y-127262500I0J-75000D01*
G01*
X145400000Y-127412500D01*
G75*
G02*
X145325000Y-127487500I-75000J0D01*
G01*
G37*
G36*
G01*
X145325000Y-127987500D02*
X144000000Y-127987500D01*
G75*
G02*
X143925000Y-127912500I0J75000D01*
G01*
X143925000Y-127762500D01*
G75*
G02*
X144000000Y-127687500I75000J0D01*
G01*
X145325000Y-127687500D01*
G75*
G02*
X145400000Y-127762500I0J-75000D01*
G01*
X145400000Y-127912500D01*
G75*
G02*
X145325000Y-127987500I-75000J0D01*
G01*
G37*
G36*
G01*
X145325000Y-128487500D02*
X144000000Y-128487500D01*
G75*
G02*
X143925000Y-128412500I0J75000D01*
G01*
X143925000Y-128262500D01*
G75*
G02*
X144000000Y-128187500I75000J0D01*
G01*
X145325000Y-128187500D01*
G75*
G02*
X145400000Y-128262500I0J-75000D01*
G01*
X145400000Y-128412500D01*
G75*
G02*
X145325000Y-128487500I-75000J0D01*
G01*
G37*
G36*
G01*
X145325000Y-128987500D02*
X144000000Y-128987500D01*
G75*
G02*
X143925000Y-128912500I0J75000D01*
G01*
X143925000Y-128762500D01*
G75*
G02*
X144000000Y-128687500I75000J0D01*
G01*
X145325000Y-128687500D01*
G75*
G02*
X145400000Y-128762500I0J-75000D01*
G01*
X145400000Y-128912500D01*
G75*
G02*
X145325000Y-128987500I-75000J0D01*
G01*
G37*
G36*
G01*
X145325000Y-129487500D02*
X144000000Y-129487500D01*
G75*
G02*
X143925000Y-129412500I0J75000D01*
G01*
X143925000Y-129262500D01*
G75*
G02*
X144000000Y-129187500I75000J0D01*
G01*
X145325000Y-129187500D01*
G75*
G02*
X145400000Y-129262500I0J-75000D01*
G01*
X145400000Y-129412500D01*
G75*
G02*
X145325000Y-129487500I-75000J0D01*
G01*
G37*
G36*
G01*
X145325000Y-129987500D02*
X144000000Y-129987500D01*
G75*
G02*
X143925000Y-129912500I0J75000D01*
G01*
X143925000Y-129762500D01*
G75*
G02*
X144000000Y-129687500I75000J0D01*
G01*
X145325000Y-129687500D01*
G75*
G02*
X145400000Y-129762500I0J-75000D01*
G01*
X145400000Y-129912500D01*
G75*
G02*
X145325000Y-129987500I-75000J0D01*
G01*
G37*
G36*
G01*
X145325000Y-130487500D02*
X144000000Y-130487500D01*
G75*
G02*
X143925000Y-130412500I0J75000D01*
G01*
X143925000Y-130262500D01*
G75*
G02*
X144000000Y-130187500I75000J0D01*
G01*
X145325000Y-130187500D01*
G75*
G02*
X145400000Y-130262500I0J-75000D01*
G01*
X145400000Y-130412500D01*
G75*
G02*
X145325000Y-130487500I-75000J0D01*
G01*
G37*
G36*
G01*
X145325000Y-130987500D02*
X144000000Y-130987500D01*
G75*
G02*
X143925000Y-130912500I0J75000D01*
G01*
X143925000Y-130762500D01*
G75*
G02*
X144000000Y-130687500I75000J0D01*
G01*
X145325000Y-130687500D01*
G75*
G02*
X145400000Y-130762500I0J-75000D01*
G01*
X145400000Y-130912500D01*
G75*
G02*
X145325000Y-130987500I-75000J0D01*
G01*
G37*
G36*
G01*
X145325000Y-131487500D02*
X144000000Y-131487500D01*
G75*
G02*
X143925000Y-131412500I0J75000D01*
G01*
X143925000Y-131262500D01*
G75*
G02*
X144000000Y-131187500I75000J0D01*
G01*
X145325000Y-131187500D01*
G75*
G02*
X145400000Y-131262500I0J-75000D01*
G01*
X145400000Y-131412500D01*
G75*
G02*
X145325000Y-131487500I-75000J0D01*
G01*
G37*
G36*
G01*
X145325000Y-131987500D02*
X144000000Y-131987500D01*
G75*
G02*
X143925000Y-131912500I0J75000D01*
G01*
X143925000Y-131762500D01*
G75*
G02*
X144000000Y-131687500I75000J0D01*
G01*
X145325000Y-131687500D01*
G75*
G02*
X145400000Y-131762500I0J-75000D01*
G01*
X145400000Y-131912500D01*
G75*
G02*
X145325000Y-131987500I-75000J0D01*
G01*
G37*
G36*
G01*
X145325000Y-132487500D02*
X144000000Y-132487500D01*
G75*
G02*
X143925000Y-132412500I0J75000D01*
G01*
X143925000Y-132262500D01*
G75*
G02*
X144000000Y-132187500I75000J0D01*
G01*
X145325000Y-132187500D01*
G75*
G02*
X145400000Y-132262500I0J-75000D01*
G01*
X145400000Y-132412500D01*
G75*
G02*
X145325000Y-132487500I-75000J0D01*
G01*
G37*
G36*
G01*
X145325000Y-132987500D02*
X144000000Y-132987500D01*
G75*
G02*
X143925000Y-132912500I0J75000D01*
G01*
X143925000Y-132762500D01*
G75*
G02*
X144000000Y-132687500I75000J0D01*
G01*
X145325000Y-132687500D01*
G75*
G02*
X145400000Y-132762500I0J-75000D01*
G01*
X145400000Y-132912500D01*
G75*
G02*
X145325000Y-132987500I-75000J0D01*
G01*
G37*
G36*
G01*
X143075000Y-135237500D02*
X142925000Y-135237500D01*
G75*
G02*
X142850000Y-135162500I0J75000D01*
G01*
X142850000Y-133837500D01*
G75*
G02*
X142925000Y-133762500I75000J0D01*
G01*
X143075000Y-133762500D01*
G75*
G02*
X143150000Y-133837500I0J-75000D01*
G01*
X143150000Y-135162500D01*
G75*
G02*
X143075000Y-135237500I-75000J0D01*
G01*
G37*
G36*
G01*
X142575000Y-135237500D02*
X142425000Y-135237500D01*
G75*
G02*
X142350000Y-135162500I0J75000D01*
G01*
X142350000Y-133837500D01*
G75*
G02*
X142425000Y-133762500I75000J0D01*
G01*
X142575000Y-133762500D01*
G75*
G02*
X142650000Y-133837500I0J-75000D01*
G01*
X142650000Y-135162500D01*
G75*
G02*
X142575000Y-135237500I-75000J0D01*
G01*
G37*
G36*
G01*
X142075000Y-135237500D02*
X141925000Y-135237500D01*
G75*
G02*
X141850000Y-135162500I0J75000D01*
G01*
X141850000Y-133837500D01*
G75*
G02*
X141925000Y-133762500I75000J0D01*
G01*
X142075000Y-133762500D01*
G75*
G02*
X142150000Y-133837500I0J-75000D01*
G01*
X142150000Y-135162500D01*
G75*
G02*
X142075000Y-135237500I-75000J0D01*
G01*
G37*
G36*
G01*
X141575000Y-135237500D02*
X141425000Y-135237500D01*
G75*
G02*
X141350000Y-135162500I0J75000D01*
G01*
X141350000Y-133837500D01*
G75*
G02*
X141425000Y-133762500I75000J0D01*
G01*
X141575000Y-133762500D01*
G75*
G02*
X141650000Y-133837500I0J-75000D01*
G01*
X141650000Y-135162500D01*
G75*
G02*
X141575000Y-135237500I-75000J0D01*
G01*
G37*
G36*
G01*
X141075000Y-135237500D02*
X140925000Y-135237500D01*
G75*
G02*
X140850000Y-135162500I0J75000D01*
G01*
X140850000Y-133837500D01*
G75*
G02*
X140925000Y-133762500I75000J0D01*
G01*
X141075000Y-133762500D01*
G75*
G02*
X141150000Y-133837500I0J-75000D01*
G01*
X141150000Y-135162500D01*
G75*
G02*
X141075000Y-135237500I-75000J0D01*
G01*
G37*
G36*
G01*
X140575000Y-135237500D02*
X140425000Y-135237500D01*
G75*
G02*
X140350000Y-135162500I0J75000D01*
G01*
X140350000Y-133837500D01*
G75*
G02*
X140425000Y-133762500I75000J0D01*
G01*
X140575000Y-133762500D01*
G75*
G02*
X140650000Y-133837500I0J-75000D01*
G01*
X140650000Y-135162500D01*
G75*
G02*
X140575000Y-135237500I-75000J0D01*
G01*
G37*
G36*
G01*
X140075000Y-135237500D02*
X139925000Y-135237500D01*
G75*
G02*
X139850000Y-135162500I0J75000D01*
G01*
X139850000Y-133837500D01*
G75*
G02*
X139925000Y-133762500I75000J0D01*
G01*
X140075000Y-133762500D01*
G75*
G02*
X140150000Y-133837500I0J-75000D01*
G01*
X140150000Y-135162500D01*
G75*
G02*
X140075000Y-135237500I-75000J0D01*
G01*
G37*
G36*
G01*
X139575000Y-135237500D02*
X139425000Y-135237500D01*
G75*
G02*
X139350000Y-135162500I0J75000D01*
G01*
X139350000Y-133837500D01*
G75*
G02*
X139425000Y-133762500I75000J0D01*
G01*
X139575000Y-133762500D01*
G75*
G02*
X139650000Y-133837500I0J-75000D01*
G01*
X139650000Y-135162500D01*
G75*
G02*
X139575000Y-135237500I-75000J0D01*
G01*
G37*
G36*
G01*
X139075000Y-135237500D02*
X138925000Y-135237500D01*
G75*
G02*
X138850000Y-135162500I0J75000D01*
G01*
X138850000Y-133837500D01*
G75*
G02*
X138925000Y-133762500I75000J0D01*
G01*
X139075000Y-133762500D01*
G75*
G02*
X139150000Y-133837500I0J-75000D01*
G01*
X139150000Y-135162500D01*
G75*
G02*
X139075000Y-135237500I-75000J0D01*
G01*
G37*
G36*
G01*
X138575000Y-135237500D02*
X138425000Y-135237500D01*
G75*
G02*
X138350000Y-135162500I0J75000D01*
G01*
X138350000Y-133837500D01*
G75*
G02*
X138425000Y-133762500I75000J0D01*
G01*
X138575000Y-133762500D01*
G75*
G02*
X138650000Y-133837500I0J-75000D01*
G01*
X138650000Y-135162500D01*
G75*
G02*
X138575000Y-135237500I-75000J0D01*
G01*
G37*
G36*
G01*
X138075000Y-135237500D02*
X137925000Y-135237500D01*
G75*
G02*
X137850000Y-135162500I0J75000D01*
G01*
X137850000Y-133837500D01*
G75*
G02*
X137925000Y-133762500I75000J0D01*
G01*
X138075000Y-133762500D01*
G75*
G02*
X138150000Y-133837500I0J-75000D01*
G01*
X138150000Y-135162500D01*
G75*
G02*
X138075000Y-135237500I-75000J0D01*
G01*
G37*
G36*
G01*
X137575000Y-135237500D02*
X137425000Y-135237500D01*
G75*
G02*
X137350000Y-135162500I0J75000D01*
G01*
X137350000Y-133837500D01*
G75*
G02*
X137425000Y-133762500I75000J0D01*
G01*
X137575000Y-133762500D01*
G75*
G02*
X137650000Y-133837500I0J-75000D01*
G01*
X137650000Y-135162500D01*
G75*
G02*
X137575000Y-135237500I-75000J0D01*
G01*
G37*
G36*
G01*
X137075000Y-135237500D02*
X136925000Y-135237500D01*
G75*
G02*
X136850000Y-135162500I0J75000D01*
G01*
X136850000Y-133837500D01*
G75*
G02*
X136925000Y-133762500I75000J0D01*
G01*
X137075000Y-133762500D01*
G75*
G02*
X137150000Y-133837500I0J-75000D01*
G01*
X137150000Y-135162500D01*
G75*
G02*
X137075000Y-135237500I-75000J0D01*
G01*
G37*
G36*
G01*
X136575000Y-135237500D02*
X136425000Y-135237500D01*
G75*
G02*
X136350000Y-135162500I0J75000D01*
G01*
X136350000Y-133837500D01*
G75*
G02*
X136425000Y-133762500I75000J0D01*
G01*
X136575000Y-133762500D01*
G75*
G02*
X136650000Y-133837500I0J-75000D01*
G01*
X136650000Y-135162500D01*
G75*
G02*
X136575000Y-135237500I-75000J0D01*
G01*
G37*
G36*
G01*
X136075000Y-135237500D02*
X135925000Y-135237500D01*
G75*
G02*
X135850000Y-135162500I0J75000D01*
G01*
X135850000Y-133837500D01*
G75*
G02*
X135925000Y-133762500I75000J0D01*
G01*
X136075000Y-133762500D01*
G75*
G02*
X136150000Y-133837500I0J-75000D01*
G01*
X136150000Y-135162500D01*
G75*
G02*
X136075000Y-135237500I-75000J0D01*
G01*
G37*
G36*
G01*
X135575000Y-135237500D02*
X135425000Y-135237500D01*
G75*
G02*
X135350000Y-135162500I0J75000D01*
G01*
X135350000Y-133837500D01*
G75*
G02*
X135425000Y-133762500I75000J0D01*
G01*
X135575000Y-133762500D01*
G75*
G02*
X135650000Y-133837500I0J-75000D01*
G01*
X135650000Y-135162500D01*
G75*
G02*
X135575000Y-135237500I-75000J0D01*
G01*
G37*
G36*
G01*
X135075000Y-135237500D02*
X134925000Y-135237500D01*
G75*
G02*
X134850000Y-135162500I0J75000D01*
G01*
X134850000Y-133837500D01*
G75*
G02*
X134925000Y-133762500I75000J0D01*
G01*
X135075000Y-133762500D01*
G75*
G02*
X135150000Y-133837500I0J-75000D01*
G01*
X135150000Y-135162500D01*
G75*
G02*
X135075000Y-135237500I-75000J0D01*
G01*
G37*
G36*
G01*
X134575000Y-135237500D02*
X134425000Y-135237500D01*
G75*
G02*
X134350000Y-135162500I0J75000D01*
G01*
X134350000Y-133837500D01*
G75*
G02*
X134425000Y-133762500I75000J0D01*
G01*
X134575000Y-133762500D01*
G75*
G02*
X134650000Y-133837500I0J-75000D01*
G01*
X134650000Y-135162500D01*
G75*
G02*
X134575000Y-135237500I-75000J0D01*
G01*
G37*
G36*
G01*
X134075000Y-135237500D02*
X133925000Y-135237500D01*
G75*
G02*
X133850000Y-135162500I0J75000D01*
G01*
X133850000Y-133837500D01*
G75*
G02*
X133925000Y-133762500I75000J0D01*
G01*
X134075000Y-133762500D01*
G75*
G02*
X134150000Y-133837500I0J-75000D01*
G01*
X134150000Y-135162500D01*
G75*
G02*
X134075000Y-135237500I-75000J0D01*
G01*
G37*
G36*
G01*
X133575000Y-135237500D02*
X133425000Y-135237500D01*
G75*
G02*
X133350000Y-135162500I0J75000D01*
G01*
X133350000Y-133837500D01*
G75*
G02*
X133425000Y-133762500I75000J0D01*
G01*
X133575000Y-133762500D01*
G75*
G02*
X133650000Y-133837500I0J-75000D01*
G01*
X133650000Y-135162500D01*
G75*
G02*
X133575000Y-135237500I-75000J0D01*
G01*
G37*
G36*
G01*
X133075000Y-135237500D02*
X132925000Y-135237500D01*
G75*
G02*
X132850000Y-135162500I0J75000D01*
G01*
X132850000Y-133837500D01*
G75*
G02*
X132925000Y-133762500I75000J0D01*
G01*
X133075000Y-133762500D01*
G75*
G02*
X133150000Y-133837500I0J-75000D01*
G01*
X133150000Y-135162500D01*
G75*
G02*
X133075000Y-135237500I-75000J0D01*
G01*
G37*
G36*
G01*
X132575000Y-135237500D02*
X132425000Y-135237500D01*
G75*
G02*
X132350000Y-135162500I0J75000D01*
G01*
X132350000Y-133837500D01*
G75*
G02*
X132425000Y-133762500I75000J0D01*
G01*
X132575000Y-133762500D01*
G75*
G02*
X132650000Y-133837500I0J-75000D01*
G01*
X132650000Y-135162500D01*
G75*
G02*
X132575000Y-135237500I-75000J0D01*
G01*
G37*
G36*
G01*
X132075000Y-135237500D02*
X131925000Y-135237500D01*
G75*
G02*
X131850000Y-135162500I0J75000D01*
G01*
X131850000Y-133837500D01*
G75*
G02*
X131925000Y-133762500I75000J0D01*
G01*
X132075000Y-133762500D01*
G75*
G02*
X132150000Y-133837500I0J-75000D01*
G01*
X132150000Y-135162500D01*
G75*
G02*
X132075000Y-135237500I-75000J0D01*
G01*
G37*
G36*
G01*
X131575000Y-135237500D02*
X131425000Y-135237500D01*
G75*
G02*
X131350000Y-135162500I0J75000D01*
G01*
X131350000Y-133837500D01*
G75*
G02*
X131425000Y-133762500I75000J0D01*
G01*
X131575000Y-133762500D01*
G75*
G02*
X131650000Y-133837500I0J-75000D01*
G01*
X131650000Y-135162500D01*
G75*
G02*
X131575000Y-135237500I-75000J0D01*
G01*
G37*
G36*
G01*
X131075000Y-135237500D02*
X130925000Y-135237500D01*
G75*
G02*
X130850000Y-135162500I0J75000D01*
G01*
X130850000Y-133837500D01*
G75*
G02*
X130925000Y-133762500I75000J0D01*
G01*
X131075000Y-133762500D01*
G75*
G02*
X131150000Y-133837500I0J-75000D01*
G01*
X131150000Y-135162500D01*
G75*
G02*
X131075000Y-135237500I-75000J0D01*
G01*
G37*
D13*
X176157500Y-187000000D03*
X189842500Y-187000000D03*
D14*
X188715000Y-193850000D03*
X187445000Y-193850000D03*
X186175000Y-193850000D03*
X184905000Y-193850000D03*
X183635000Y-193850000D03*
X182365000Y-193850000D03*
X181095000Y-193850000D03*
X179825000Y-193850000D03*
X178555000Y-193850000D03*
X177285000Y-193850000D03*
X177285000Y-180150000D03*
X178555000Y-180150000D03*
X179825000Y-180150000D03*
X181095000Y-180150000D03*
X182365000Y-180150000D03*
X183635000Y-180150000D03*
X184905000Y-180150000D03*
X186175000Y-180150000D03*
X187445000Y-180150000D03*
D15*
X183000000Y-187000000D03*
D14*
X188715000Y-180150000D03*
D13*
X176157500Y-162977070D03*
X189842500Y-162977070D03*
D14*
X188715000Y-169827070D03*
X187445000Y-169827070D03*
X186175000Y-169827070D03*
X184905000Y-169827070D03*
X183635000Y-169827070D03*
X182365000Y-169827070D03*
X181095000Y-169827070D03*
X179825000Y-169827070D03*
X178555000Y-169827070D03*
X177285000Y-169827070D03*
X177285000Y-156127070D03*
X178555000Y-156127070D03*
X179825000Y-156127070D03*
X181095000Y-156127070D03*
X182365000Y-156127070D03*
X183635000Y-156127070D03*
X184905000Y-156127070D03*
X186175000Y-156127070D03*
X187445000Y-156127070D03*
D15*
X183000000Y-162977070D03*
D14*
X188715000Y-156127070D03*
G36*
G01*
X185256250Y-123112500D02*
X184743750Y-123112500D01*
G75*
G02*
X184525000Y-122893750I0J218750D01*
G01*
X184525000Y-122456250D01*
G75*
G02*
X184743750Y-122237500I218750J0D01*
G01*
X185256250Y-122237500D01*
G75*
G02*
X185475000Y-122456250I0J-218750D01*
G01*
X185475000Y-122893750D01*
G75*
G02*
X185256250Y-123112500I-218750J0D01*
G01*
G37*
G36*
G01*
X185256250Y-124687500D02*
X184743750Y-124687500D01*
G75*
G02*
X184525000Y-124468750I0J218750D01*
G01*
X184525000Y-124031250D01*
G75*
G02*
X184743750Y-123812500I218750J0D01*
G01*
X185256250Y-123812500D01*
G75*
G02*
X185475000Y-124031250I0J-218750D01*
G01*
X185475000Y-124468750D01*
G75*
G02*
X185256250Y-124687500I-218750J0D01*
G01*
G37*
D12*
X144468750Y-109471250D03*
X144468750Y-104421250D03*
G36*
G01*
X126862500Y-135143750D02*
X126862500Y-135656250D01*
G75*
G02*
X126643750Y-135875000I-218750J0D01*
G01*
X126206250Y-135875000D01*
G75*
G02*
X125987500Y-135656250I0J218750D01*
G01*
X125987500Y-135143750D01*
G75*
G02*
X126206250Y-134925000I218750J0D01*
G01*
X126643750Y-134925000D01*
G75*
G02*
X126862500Y-135143750I0J-218750D01*
G01*
G37*
G36*
G01*
X128437500Y-135143750D02*
X128437500Y-135656250D01*
G75*
G02*
X128218750Y-135875000I-218750J0D01*
G01*
X127781250Y-135875000D01*
G75*
G02*
X127562500Y-135656250I0J218750D01*
G01*
X127562500Y-135143750D01*
G75*
G02*
X127781250Y-134925000I218750J0D01*
G01*
X128218750Y-134925000D01*
G75*
G02*
X128437500Y-135143750I0J-218750D01*
G01*
G37*
D16*
X159775000Y-138460000D03*
X159775000Y-143540000D03*
D17*
X171350000Y-143775000D03*
X166500000Y-138225000D03*
X171350000Y-138225000D03*
X166500000Y-143775000D03*
G36*
G01*
X136168750Y-116112500D02*
X136681250Y-116112500D01*
G75*
G02*
X136900000Y-116331250I0J-218750D01*
G01*
X136900000Y-116768750D01*
G75*
G02*
X136681250Y-116987500I-218750J0D01*
G01*
X136168750Y-116987500D01*
G75*
G02*
X135950000Y-116768750I0J218750D01*
G01*
X135950000Y-116331250D01*
G75*
G02*
X136168750Y-116112500I218750J0D01*
G01*
G37*
G36*
G01*
X136168750Y-114537500D02*
X136681250Y-114537500D01*
G75*
G02*
X136900000Y-114756250I0J-218750D01*
G01*
X136900000Y-115193750D01*
G75*
G02*
X136681250Y-115412500I-218750J0D01*
G01*
X136168750Y-115412500D01*
G75*
G02*
X135950000Y-115193750I0J218750D01*
G01*
X135950000Y-114756250D01*
G75*
G02*
X136168750Y-114537500I218750J0D01*
G01*
G37*
G36*
X144310001Y-188712500D02*
G01*
X145890000Y-188712501D01*
X147310000Y-187500001D01*
X148100000Y-187500001D01*
X148100000Y-189500000D01*
X142100000Y-189499999D01*
X142100000Y-187500000D01*
X142890000Y-187500000D01*
X144310001Y-188712500D01*
G37*
G36*
X148100000Y-185500000D02*
G01*
X147310000Y-185500000D01*
X145890000Y-184287500D01*
X144310000Y-184287500D01*
X142890000Y-185500000D01*
X142100000Y-185500000D01*
X142100000Y-183500000D01*
X148100000Y-183500000D01*
X148100000Y-185500000D01*
G37*
G36*
X130310001Y-188712500D02*
G01*
X131890000Y-188712501D01*
X133310000Y-187500001D01*
X134100000Y-187500001D01*
X134100000Y-189500000D01*
X128100000Y-189499999D01*
X128100000Y-187500000D01*
X128890000Y-187500000D01*
X130310001Y-188712500D01*
G37*
G36*
X134100000Y-185500000D02*
G01*
X133310000Y-185500000D01*
X131890000Y-184287500D01*
X130310000Y-184287500D01*
X128890000Y-185500000D01*
X128100000Y-185500000D01*
X128100000Y-183500000D01*
X134100000Y-183500000D01*
X134100000Y-185500000D01*
G37*
D18*
X106150000Y-177810000D03*
X106150000Y-172730000D03*
X106150000Y-167650000D03*
X102850000Y-180350000D03*
X102850000Y-175270000D03*
X102850000Y-170190000D03*
G36*
G01*
X115078500Y-119839000D02*
X115078500Y-120039000D01*
G75*
G02*
X114978500Y-120139000I-100000J0D01*
G01*
X113703500Y-120139000D01*
G75*
G02*
X113603500Y-120039000I0J100000D01*
G01*
X113603500Y-119839000D01*
G75*
G02*
X113703500Y-119739000I100000J0D01*
G01*
X114978500Y-119739000D01*
G75*
G02*
X115078500Y-119839000I0J-100000D01*
G01*
G37*
G36*
G01*
X115078500Y-119189000D02*
X115078500Y-119389000D01*
G75*
G02*
X114978500Y-119489000I-100000J0D01*
G01*
X113703500Y-119489000D01*
G75*
G02*
X113603500Y-119389000I0J100000D01*
G01*
X113603500Y-119189000D01*
G75*
G02*
X113703500Y-119089000I100000J0D01*
G01*
X114978500Y-119089000D01*
G75*
G02*
X115078500Y-119189000I0J-100000D01*
G01*
G37*
G36*
G01*
X115078500Y-118539000D02*
X115078500Y-118739000D01*
G75*
G02*
X114978500Y-118839000I-100000J0D01*
G01*
X113703500Y-118839000D01*
G75*
G02*
X113603500Y-118739000I0J100000D01*
G01*
X113603500Y-118539000D01*
G75*
G02*
X113703500Y-118439000I100000J0D01*
G01*
X114978500Y-118439000D01*
G75*
G02*
X115078500Y-118539000I0J-100000D01*
G01*
G37*
G36*
G01*
X115078500Y-117889000D02*
X115078500Y-118089000D01*
G75*
G02*
X114978500Y-118189000I-100000J0D01*
G01*
X113703500Y-118189000D01*
G75*
G02*
X113603500Y-118089000I0J100000D01*
G01*
X113603500Y-117889000D01*
G75*
G02*
X113703500Y-117789000I100000J0D01*
G01*
X114978500Y-117789000D01*
G75*
G02*
X115078500Y-117889000I0J-100000D01*
G01*
G37*
G36*
G01*
X120803500Y-117889000D02*
X120803500Y-118089000D01*
G75*
G02*
X120703500Y-118189000I-100000J0D01*
G01*
X119428500Y-118189000D01*
G75*
G02*
X119328500Y-118089000I0J100000D01*
G01*
X119328500Y-117889000D01*
G75*
G02*
X119428500Y-117789000I100000J0D01*
G01*
X120703500Y-117789000D01*
G75*
G02*
X120803500Y-117889000I0J-100000D01*
G01*
G37*
G36*
G01*
X120803500Y-118539000D02*
X120803500Y-118739000D01*
G75*
G02*
X120703500Y-118839000I-100000J0D01*
G01*
X119428500Y-118839000D01*
G75*
G02*
X119328500Y-118739000I0J100000D01*
G01*
X119328500Y-118539000D01*
G75*
G02*
X119428500Y-118439000I100000J0D01*
G01*
X120703500Y-118439000D01*
G75*
G02*
X120803500Y-118539000I0J-100000D01*
G01*
G37*
G36*
G01*
X120803500Y-119189000D02*
X120803500Y-119389000D01*
G75*
G02*
X120703500Y-119489000I-100000J0D01*
G01*
X119428500Y-119489000D01*
G75*
G02*
X119328500Y-119389000I0J100000D01*
G01*
X119328500Y-119189000D01*
G75*
G02*
X119428500Y-119089000I100000J0D01*
G01*
X120703500Y-119089000D01*
G75*
G02*
X120803500Y-119189000I0J-100000D01*
G01*
G37*
G36*
G01*
X120803500Y-119839000D02*
X120803500Y-120039000D01*
G75*
G02*
X120703500Y-120139000I-100000J0D01*
G01*
X119428500Y-120139000D01*
G75*
G02*
X119328500Y-120039000I0J100000D01*
G01*
X119328500Y-119839000D01*
G75*
G02*
X119428500Y-119739000I100000J0D01*
G01*
X120703500Y-119739000D01*
G75*
G02*
X120803500Y-119839000I0J-100000D01*
G01*
G37*
G36*
G01*
X115094500Y-129179000D02*
X115094500Y-129379000D01*
G75*
G02*
X114994500Y-129479000I-100000J0D01*
G01*
X113719500Y-129479000D01*
G75*
G02*
X113619500Y-129379000I0J100000D01*
G01*
X113619500Y-129179000D01*
G75*
G02*
X113719500Y-129079000I100000J0D01*
G01*
X114994500Y-129079000D01*
G75*
G02*
X115094500Y-129179000I0J-100000D01*
G01*
G37*
G36*
G01*
X115094500Y-128529000D02*
X115094500Y-128729000D01*
G75*
G02*
X114994500Y-128829000I-100000J0D01*
G01*
X113719500Y-128829000D01*
G75*
G02*
X113619500Y-128729000I0J100000D01*
G01*
X113619500Y-128529000D01*
G75*
G02*
X113719500Y-128429000I100000J0D01*
G01*
X114994500Y-128429000D01*
G75*
G02*
X115094500Y-128529000I0J-100000D01*
G01*
G37*
G36*
G01*
X115094500Y-127879000D02*
X115094500Y-128079000D01*
G75*
G02*
X114994500Y-128179000I-100000J0D01*
G01*
X113719500Y-128179000D01*
G75*
G02*
X113619500Y-128079000I0J100000D01*
G01*
X113619500Y-127879000D01*
G75*
G02*
X113719500Y-127779000I100000J0D01*
G01*
X114994500Y-127779000D01*
G75*
G02*
X115094500Y-127879000I0J-100000D01*
G01*
G37*
G36*
G01*
X115094500Y-127229000D02*
X115094500Y-127429000D01*
G75*
G02*
X114994500Y-127529000I-100000J0D01*
G01*
X113719500Y-127529000D01*
G75*
G02*
X113619500Y-127429000I0J100000D01*
G01*
X113619500Y-127229000D01*
G75*
G02*
X113719500Y-127129000I100000J0D01*
G01*
X114994500Y-127129000D01*
G75*
G02*
X115094500Y-127229000I0J-100000D01*
G01*
G37*
G36*
G01*
X120819500Y-127229000D02*
X120819500Y-127429000D01*
G75*
G02*
X120719500Y-127529000I-100000J0D01*
G01*
X119444500Y-127529000D01*
G75*
G02*
X119344500Y-127429000I0J100000D01*
G01*
X119344500Y-127229000D01*
G75*
G02*
X119444500Y-127129000I100000J0D01*
G01*
X120719500Y-127129000D01*
G75*
G02*
X120819500Y-127229000I0J-100000D01*
G01*
G37*
G36*
G01*
X120819500Y-127879000D02*
X120819500Y-128079000D01*
G75*
G02*
X120719500Y-128179000I-100000J0D01*
G01*
X119444500Y-128179000D01*
G75*
G02*
X119344500Y-128079000I0J100000D01*
G01*
X119344500Y-127879000D01*
G75*
G02*
X119444500Y-127779000I100000J0D01*
G01*
X120719500Y-127779000D01*
G75*
G02*
X120819500Y-127879000I0J-100000D01*
G01*
G37*
G36*
G01*
X120819500Y-128529000D02*
X120819500Y-128729000D01*
G75*
G02*
X120719500Y-128829000I-100000J0D01*
G01*
X119444500Y-128829000D01*
G75*
G02*
X119344500Y-128729000I0J100000D01*
G01*
X119344500Y-128529000D01*
G75*
G02*
X119444500Y-128429000I100000J0D01*
G01*
X120719500Y-128429000D01*
G75*
G02*
X120819500Y-128529000I0J-100000D01*
G01*
G37*
G36*
G01*
X120819500Y-129179000D02*
X120819500Y-129379000D01*
G75*
G02*
X120719500Y-129479000I-100000J0D01*
G01*
X119444500Y-129479000D01*
G75*
G02*
X119344500Y-129379000I0J100000D01*
G01*
X119344500Y-129179000D01*
G75*
G02*
X119444500Y-129079000I100000J0D01*
G01*
X120719500Y-129079000D01*
G75*
G02*
X120819500Y-129179000I0J-100000D01*
G01*
G37*
D19*
X147505000Y-175002500D03*
X146235000Y-175002500D03*
X144965000Y-175002500D03*
X143695000Y-175002500D03*
X143695000Y-179997500D03*
X144965000Y-179997500D03*
X146235000Y-179997500D03*
X147505000Y-179997500D03*
D20*
X145600000Y-177500000D03*
D19*
X133505000Y-175002500D03*
X132235000Y-175002500D03*
X130965000Y-175002500D03*
X129695000Y-175002500D03*
X129695000Y-179997500D03*
X130965000Y-179997500D03*
X132235000Y-179997500D03*
X133505000Y-179997500D03*
D20*
X131600000Y-177500000D03*
G36*
G01*
X108419000Y-119086750D02*
X108419000Y-119599250D01*
G75*
G02*
X108200250Y-119818000I-218750J0D01*
G01*
X107762750Y-119818000D01*
G75*
G02*
X107544000Y-119599250I0J218750D01*
G01*
X107544000Y-119086750D01*
G75*
G02*
X107762750Y-118868000I218750J0D01*
G01*
X108200250Y-118868000D01*
G75*
G02*
X108419000Y-119086750I0J-218750D01*
G01*
G37*
G36*
G01*
X109994000Y-119086750D02*
X109994000Y-119599250D01*
G75*
G02*
X109775250Y-119818000I-218750J0D01*
G01*
X109337750Y-119818000D01*
G75*
G02*
X109119000Y-119599250I0J218750D01*
G01*
X109119000Y-119086750D01*
G75*
G02*
X109337750Y-118868000I218750J0D01*
G01*
X109775250Y-118868000D01*
G75*
G02*
X109994000Y-119086750I0J-218750D01*
G01*
G37*
G36*
G01*
X108419000Y-120737750D02*
X108419000Y-121250250D01*
G75*
G02*
X108200250Y-121469000I-218750J0D01*
G01*
X107762750Y-121469000D01*
G75*
G02*
X107544000Y-121250250I0J218750D01*
G01*
X107544000Y-120737750D01*
G75*
G02*
X107762750Y-120519000I218750J0D01*
G01*
X108200250Y-120519000D01*
G75*
G02*
X108419000Y-120737750I0J-218750D01*
G01*
G37*
G36*
G01*
X109994000Y-120737750D02*
X109994000Y-121250250D01*
G75*
G02*
X109775250Y-121469000I-218750J0D01*
G01*
X109337750Y-121469000D01*
G75*
G02*
X109119000Y-121250250I0J218750D01*
G01*
X109119000Y-120737750D01*
G75*
G02*
X109337750Y-120519000I218750J0D01*
G01*
X109775250Y-120519000D01*
G75*
G02*
X109994000Y-120737750I0J-218750D01*
G01*
G37*
G36*
G01*
X108419000Y-122388750D02*
X108419000Y-122901250D01*
G75*
G02*
X108200250Y-123120000I-218750J0D01*
G01*
X107762750Y-123120000D01*
G75*
G02*
X107544000Y-122901250I0J218750D01*
G01*
X107544000Y-122388750D01*
G75*
G02*
X107762750Y-122170000I218750J0D01*
G01*
X108200250Y-122170000D01*
G75*
G02*
X108419000Y-122388750I0J-218750D01*
G01*
G37*
G36*
G01*
X109994000Y-122388750D02*
X109994000Y-122901250D01*
G75*
G02*
X109775250Y-123120000I-218750J0D01*
G01*
X109337750Y-123120000D01*
G75*
G02*
X109119000Y-122901250I0J218750D01*
G01*
X109119000Y-122388750D01*
G75*
G02*
X109337750Y-122170000I218750J0D01*
G01*
X109775250Y-122170000D01*
G75*
G02*
X109994000Y-122388750I0J-218750D01*
G01*
G37*
G36*
G01*
X108419000Y-124039750D02*
X108419000Y-124552250D01*
G75*
G02*
X108200250Y-124771000I-218750J0D01*
G01*
X107762750Y-124771000D01*
G75*
G02*
X107544000Y-124552250I0J218750D01*
G01*
X107544000Y-124039750D01*
G75*
G02*
X107762750Y-123821000I218750J0D01*
G01*
X108200250Y-123821000D01*
G75*
G02*
X108419000Y-124039750I0J-218750D01*
G01*
G37*
G36*
G01*
X109994000Y-124039750D02*
X109994000Y-124552250D01*
G75*
G02*
X109775250Y-124771000I-218750J0D01*
G01*
X109337750Y-124771000D01*
G75*
G02*
X109119000Y-124552250I0J218750D01*
G01*
X109119000Y-124039750D01*
G75*
G02*
X109337750Y-123821000I218750J0D01*
G01*
X109775250Y-123821000D01*
G75*
G02*
X109994000Y-124039750I0J-218750D01*
G01*
G37*
G36*
G01*
X122990750Y-125535000D02*
X123503250Y-125535000D01*
G75*
G02*
X123722000Y-125753750I0J-218750D01*
G01*
X123722000Y-126191250D01*
G75*
G02*
X123503250Y-126410000I-218750J0D01*
G01*
X122990750Y-126410000D01*
G75*
G02*
X122772000Y-126191250I0J218750D01*
G01*
X122772000Y-125753750D01*
G75*
G02*
X122990750Y-125535000I218750J0D01*
G01*
G37*
G36*
G01*
X122990750Y-123960000D02*
X123503250Y-123960000D01*
G75*
G02*
X123722000Y-124178750I0J-218750D01*
G01*
X123722000Y-124616250D01*
G75*
G02*
X123503250Y-124835000I-218750J0D01*
G01*
X122990750Y-124835000D01*
G75*
G02*
X122772000Y-124616250I0J218750D01*
G01*
X122772000Y-124178750D01*
G75*
G02*
X122990750Y-123960000I218750J0D01*
G01*
G37*
G36*
G01*
X122990750Y-122487000D02*
X123503250Y-122487000D01*
G75*
G02*
X123722000Y-122705750I0J-218750D01*
G01*
X123722000Y-123143250D01*
G75*
G02*
X123503250Y-123362000I-218750J0D01*
G01*
X122990750Y-123362000D01*
G75*
G02*
X122772000Y-123143250I0J218750D01*
G01*
X122772000Y-122705750D01*
G75*
G02*
X122990750Y-122487000I218750J0D01*
G01*
G37*
G36*
G01*
X122990750Y-120912000D02*
X123503250Y-120912000D01*
G75*
G02*
X123722000Y-121130750I0J-218750D01*
G01*
X123722000Y-121568250D01*
G75*
G02*
X123503250Y-121787000I-218750J0D01*
G01*
X122990750Y-121787000D01*
G75*
G02*
X122772000Y-121568250I0J218750D01*
G01*
X122772000Y-121130750D01*
G75*
G02*
X122990750Y-120912000I218750J0D01*
G01*
G37*
G36*
G01*
X162232250Y-103434500D02*
X161719750Y-103434500D01*
G75*
G02*
X161501000Y-103215750I0J218750D01*
G01*
X161501000Y-102778250D01*
G75*
G02*
X161719750Y-102559500I218750J0D01*
G01*
X162232250Y-102559500D01*
G75*
G02*
X162451000Y-102778250I0J-218750D01*
G01*
X162451000Y-103215750D01*
G75*
G02*
X162232250Y-103434500I-218750J0D01*
G01*
G37*
G36*
G01*
X162232250Y-105009500D02*
X161719750Y-105009500D01*
G75*
G02*
X161501000Y-104790750I0J218750D01*
G01*
X161501000Y-104353250D01*
G75*
G02*
X161719750Y-104134500I218750J0D01*
G01*
X162232250Y-104134500D01*
G75*
G02*
X162451000Y-104353250I0J-218750D01*
G01*
X162451000Y-104790750D01*
G75*
G02*
X162232250Y-105009500I-218750J0D01*
G01*
G37*
G36*
G01*
X156644250Y-103460000D02*
X156131750Y-103460000D01*
G75*
G02*
X155913000Y-103241250I0J218750D01*
G01*
X155913000Y-102803750D01*
G75*
G02*
X156131750Y-102585000I218750J0D01*
G01*
X156644250Y-102585000D01*
G75*
G02*
X156863000Y-102803750I0J-218750D01*
G01*
X156863000Y-103241250D01*
G75*
G02*
X156644250Y-103460000I-218750J0D01*
G01*
G37*
G36*
G01*
X156644250Y-105035000D02*
X156131750Y-105035000D01*
G75*
G02*
X155913000Y-104816250I0J218750D01*
G01*
X155913000Y-104378750D01*
G75*
G02*
X156131750Y-104160000I218750J0D01*
G01*
X156644250Y-104160000D01*
G75*
G02*
X156863000Y-104378750I0J-218750D01*
G01*
X156863000Y-104816250D01*
G75*
G02*
X156644250Y-105035000I-218750J0D01*
G01*
G37*
G36*
G01*
X108419000Y-125690750D02*
X108419000Y-126203250D01*
G75*
G02*
X108200250Y-126422000I-218750J0D01*
G01*
X107762750Y-126422000D01*
G75*
G02*
X107544000Y-126203250I0J218750D01*
G01*
X107544000Y-125690750D01*
G75*
G02*
X107762750Y-125472000I218750J0D01*
G01*
X108200250Y-125472000D01*
G75*
G02*
X108419000Y-125690750I0J-218750D01*
G01*
G37*
G36*
G01*
X109994000Y-125690750D02*
X109994000Y-126203250D01*
G75*
G02*
X109775250Y-126422000I-218750J0D01*
G01*
X109337750Y-126422000D01*
G75*
G02*
X109119000Y-126203250I0J218750D01*
G01*
X109119000Y-125690750D01*
G75*
G02*
X109337750Y-125472000I218750J0D01*
G01*
X109775250Y-125472000D01*
G75*
G02*
X109994000Y-125690750I0J-218750D01*
G01*
G37*
G36*
G01*
X108419000Y-127341750D02*
X108419000Y-127854250D01*
G75*
G02*
X108200250Y-128073000I-218750J0D01*
G01*
X107762750Y-128073000D01*
G75*
G02*
X107544000Y-127854250I0J218750D01*
G01*
X107544000Y-127341750D01*
G75*
G02*
X107762750Y-127123000I218750J0D01*
G01*
X108200250Y-127123000D01*
G75*
G02*
X108419000Y-127341750I0J-218750D01*
G01*
G37*
G36*
G01*
X109994000Y-127341750D02*
X109994000Y-127854250D01*
G75*
G02*
X109775250Y-128073000I-218750J0D01*
G01*
X109337750Y-128073000D01*
G75*
G02*
X109119000Y-127854250I0J218750D01*
G01*
X109119000Y-127341750D01*
G75*
G02*
X109337750Y-127123000I218750J0D01*
G01*
X109775250Y-127123000D01*
G75*
G02*
X109994000Y-127341750I0J-218750D01*
G01*
G37*
G36*
G01*
X111956250Y-192925000D02*
X111443750Y-192925000D01*
G75*
G02*
X111225000Y-192706250I0J218750D01*
G01*
X111225000Y-192268750D01*
G75*
G02*
X111443750Y-192050000I218750J0D01*
G01*
X111956250Y-192050000D01*
G75*
G02*
X112175000Y-192268750I0J-218750D01*
G01*
X112175000Y-192706250D01*
G75*
G02*
X111956250Y-192925000I-218750J0D01*
G01*
G37*
G36*
G01*
X111956250Y-191350000D02*
X111443750Y-191350000D01*
G75*
G02*
X111225000Y-191131250I0J218750D01*
G01*
X111225000Y-190693750D01*
G75*
G02*
X111443750Y-190475000I218750J0D01*
G01*
X111956250Y-190475000D01*
G75*
G02*
X112175000Y-190693750I0J-218750D01*
G01*
X112175000Y-191131250D01*
G75*
G02*
X111956250Y-191350000I-218750J0D01*
G01*
G37*
G36*
G01*
X118843750Y-192050000D02*
X119356250Y-192050000D01*
G75*
G02*
X119575000Y-192268750I0J-218750D01*
G01*
X119575000Y-192706250D01*
G75*
G02*
X119356250Y-192925000I-218750J0D01*
G01*
X118843750Y-192925000D01*
G75*
G02*
X118625000Y-192706250I0J218750D01*
G01*
X118625000Y-192268750D01*
G75*
G02*
X118843750Y-192050000I218750J0D01*
G01*
G37*
G36*
G01*
X118843750Y-190475000D02*
X119356250Y-190475000D01*
G75*
G02*
X119575000Y-190693750I0J-218750D01*
G01*
X119575000Y-191131250D01*
G75*
G02*
X119356250Y-191350000I-218750J0D01*
G01*
X118843750Y-191350000D01*
G75*
G02*
X118625000Y-191131250I0J218750D01*
G01*
X118625000Y-190693750D01*
G75*
G02*
X118843750Y-190475000I218750J0D01*
G01*
G37*
G36*
G01*
X113687500Y-176743750D02*
X113687500Y-177256250D01*
G75*
G02*
X113468750Y-177475000I-218750J0D01*
G01*
X113031250Y-177475000D01*
G75*
G02*
X112812500Y-177256250I0J218750D01*
G01*
X112812500Y-176743750D01*
G75*
G02*
X113031250Y-176525000I218750J0D01*
G01*
X113468750Y-176525000D01*
G75*
G02*
X113687500Y-176743750I0J-218750D01*
G01*
G37*
G36*
G01*
X112112500Y-176743750D02*
X112112500Y-177256250D01*
G75*
G02*
X111893750Y-177475000I-218750J0D01*
G01*
X111456250Y-177475000D01*
G75*
G02*
X111237500Y-177256250I0J218750D01*
G01*
X111237500Y-176743750D01*
G75*
G02*
X111456250Y-176525000I218750J0D01*
G01*
X111893750Y-176525000D01*
G75*
G02*
X112112500Y-176743750I0J-218750D01*
G01*
G37*
G36*
G01*
X112112500Y-174993750D02*
X112112500Y-175506250D01*
G75*
G02*
X111893750Y-175725000I-218750J0D01*
G01*
X111456250Y-175725000D01*
G75*
G02*
X111237500Y-175506250I0J218750D01*
G01*
X111237500Y-174993750D01*
G75*
G02*
X111456250Y-174775000I218750J0D01*
G01*
X111893750Y-174775000D01*
G75*
G02*
X112112500Y-174993750I0J-218750D01*
G01*
G37*
G36*
G01*
X113687500Y-174993750D02*
X113687500Y-175506250D01*
G75*
G02*
X113468750Y-175725000I-218750J0D01*
G01*
X113031250Y-175725000D01*
G75*
G02*
X112812500Y-175506250I0J218750D01*
G01*
X112812500Y-174993750D01*
G75*
G02*
X113031250Y-174775000I218750J0D01*
G01*
X113468750Y-174775000D01*
G75*
G02*
X113687500Y-174993750I0J-218750D01*
G01*
G37*
G36*
G01*
X103062500Y-147256250D02*
X103062500Y-146743750D01*
G75*
G02*
X103281250Y-146525000I218750J0D01*
G01*
X103718750Y-146525000D01*
G75*
G02*
X103937500Y-146743750I0J-218750D01*
G01*
X103937500Y-147256250D01*
G75*
G02*
X103718750Y-147475000I-218750J0D01*
G01*
X103281250Y-147475000D01*
G75*
G02*
X103062500Y-147256250I0J218750D01*
G01*
G37*
G36*
G01*
X101487500Y-147256250D02*
X101487500Y-146743750D01*
G75*
G02*
X101706250Y-146525000I218750J0D01*
G01*
X102143750Y-146525000D01*
G75*
G02*
X102362500Y-146743750I0J-218750D01*
G01*
X102362500Y-147256250D01*
G75*
G02*
X102143750Y-147475000I-218750J0D01*
G01*
X101706250Y-147475000D01*
G75*
G02*
X101487500Y-147256250I0J218750D01*
G01*
G37*
G36*
G01*
X101525000Y-149827250D02*
X101525000Y-149314750D01*
G75*
G02*
X101743750Y-149096000I218750J0D01*
G01*
X102181250Y-149096000D01*
G75*
G02*
X102400000Y-149314750I0J-218750D01*
G01*
X102400000Y-149827250D01*
G75*
G02*
X102181250Y-150046000I-218750J0D01*
G01*
X101743750Y-150046000D01*
G75*
G02*
X101525000Y-149827250I0J218750D01*
G01*
G37*
G36*
G01*
X103100000Y-149827250D02*
X103100000Y-149314750D01*
G75*
G02*
X103318750Y-149096000I218750J0D01*
G01*
X103756250Y-149096000D01*
G75*
G02*
X103975000Y-149314750I0J-218750D01*
G01*
X103975000Y-149827250D01*
G75*
G02*
X103756250Y-150046000I-218750J0D01*
G01*
X103318750Y-150046000D01*
G75*
G02*
X103100000Y-149827250I0J218750D01*
G01*
G37*
G36*
G01*
X111506250Y-146400000D02*
X110993750Y-146400000D01*
G75*
G02*
X110775000Y-146181250I0J218750D01*
G01*
X110775000Y-145743750D01*
G75*
G02*
X110993750Y-145525000I218750J0D01*
G01*
X111506250Y-145525000D01*
G75*
G02*
X111725000Y-145743750I0J-218750D01*
G01*
X111725000Y-146181250D01*
G75*
G02*
X111506250Y-146400000I-218750J0D01*
G01*
G37*
G36*
G01*
X111506250Y-147975000D02*
X110993750Y-147975000D01*
G75*
G02*
X110775000Y-147756250I0J218750D01*
G01*
X110775000Y-147318750D01*
G75*
G02*
X110993750Y-147100000I218750J0D01*
G01*
X111506250Y-147100000D01*
G75*
G02*
X111725000Y-147318750I0J-218750D01*
G01*
X111725000Y-147756250D01*
G75*
G02*
X111506250Y-147975000I-218750J0D01*
G01*
G37*
G36*
G01*
X111506250Y-150150000D02*
X110993750Y-150150000D01*
G75*
G02*
X110775000Y-149931250I0J218750D01*
G01*
X110775000Y-149493750D01*
G75*
G02*
X110993750Y-149275000I218750J0D01*
G01*
X111506250Y-149275000D01*
G75*
G02*
X111725000Y-149493750I0J-218750D01*
G01*
X111725000Y-149931250D01*
G75*
G02*
X111506250Y-150150000I-218750J0D01*
G01*
G37*
G36*
G01*
X111506250Y-151725000D02*
X110993750Y-151725000D01*
G75*
G02*
X110775000Y-151506250I0J218750D01*
G01*
X110775000Y-151068750D01*
G75*
G02*
X110993750Y-150850000I218750J0D01*
G01*
X111506250Y-150850000D01*
G75*
G02*
X111725000Y-151068750I0J-218750D01*
G01*
X111725000Y-151506250D01*
G75*
G02*
X111506250Y-151725000I-218750J0D01*
G01*
G37*
G36*
G01*
X152475000Y-189875000D02*
X153725000Y-189875000D01*
G75*
G02*
X153975000Y-190125000I0J-250000D01*
G01*
X153975000Y-190875000D01*
G75*
G02*
X153725000Y-191125000I-250000J0D01*
G01*
X152475000Y-191125000D01*
G75*
G02*
X152225000Y-190875000I0J250000D01*
G01*
X152225000Y-190125000D01*
G75*
G02*
X152475000Y-189875000I250000J0D01*
G01*
G37*
G36*
G01*
X152475000Y-187075000D02*
X153725000Y-187075000D01*
G75*
G02*
X153975000Y-187325000I0J-250000D01*
G01*
X153975000Y-188075000D01*
G75*
G02*
X153725000Y-188325000I-250000J0D01*
G01*
X152475000Y-188325000D01*
G75*
G02*
X152225000Y-188075000I0J250000D01*
G01*
X152225000Y-187325000D01*
G75*
G02*
X152475000Y-187075000I250000J0D01*
G01*
G37*
G36*
G01*
X149506250Y-174362500D02*
X148993750Y-174362500D01*
G75*
G02*
X148775000Y-174143750I0J218750D01*
G01*
X148775000Y-173706250D01*
G75*
G02*
X148993750Y-173487500I218750J0D01*
G01*
X149506250Y-173487500D01*
G75*
G02*
X149725000Y-173706250I0J-218750D01*
G01*
X149725000Y-174143750D01*
G75*
G02*
X149506250Y-174362500I-218750J0D01*
G01*
G37*
G36*
G01*
X149506250Y-175937500D02*
X148993750Y-175937500D01*
G75*
G02*
X148775000Y-175718750I0J218750D01*
G01*
X148775000Y-175281250D01*
G75*
G02*
X148993750Y-175062500I218750J0D01*
G01*
X149506250Y-175062500D01*
G75*
G02*
X149725000Y-175281250I0J-218750D01*
G01*
X149725000Y-175718750D01*
G75*
G02*
X149506250Y-175937500I-218750J0D01*
G01*
G37*
G36*
G01*
X154893750Y-175062500D02*
X155406250Y-175062500D01*
G75*
G02*
X155625000Y-175281250I0J-218750D01*
G01*
X155625000Y-175718750D01*
G75*
G02*
X155406250Y-175937500I-218750J0D01*
G01*
X154893750Y-175937500D01*
G75*
G02*
X154675000Y-175718750I0J218750D01*
G01*
X154675000Y-175281250D01*
G75*
G02*
X154893750Y-175062500I218750J0D01*
G01*
G37*
G36*
G01*
X154893750Y-173487500D02*
X155406250Y-173487500D01*
G75*
G02*
X155625000Y-173706250I0J-218750D01*
G01*
X155625000Y-174143750D01*
G75*
G02*
X155406250Y-174362500I-218750J0D01*
G01*
X154893750Y-174362500D01*
G75*
G02*
X154675000Y-174143750I0J218750D01*
G01*
X154675000Y-173706250D01*
G75*
G02*
X154893750Y-173487500I218750J0D01*
G01*
G37*
G36*
G01*
X138475000Y-189875000D02*
X139725000Y-189875000D01*
G75*
G02*
X139975000Y-190125000I0J-250000D01*
G01*
X139975000Y-190875000D01*
G75*
G02*
X139725000Y-191125000I-250000J0D01*
G01*
X138475000Y-191125000D01*
G75*
G02*
X138225000Y-190875000I0J250000D01*
G01*
X138225000Y-190125000D01*
G75*
G02*
X138475000Y-189875000I250000J0D01*
G01*
G37*
G36*
G01*
X138475000Y-187075000D02*
X139725000Y-187075000D01*
G75*
G02*
X139975000Y-187325000I0J-250000D01*
G01*
X139975000Y-188075000D01*
G75*
G02*
X139725000Y-188325000I-250000J0D01*
G01*
X138475000Y-188325000D01*
G75*
G02*
X138225000Y-188075000I0J250000D01*
G01*
X138225000Y-187325000D01*
G75*
G02*
X138475000Y-187075000I250000J0D01*
G01*
G37*
G36*
G01*
X135556250Y-174362500D02*
X135043750Y-174362500D01*
G75*
G02*
X134825000Y-174143750I0J218750D01*
G01*
X134825000Y-173706250D01*
G75*
G02*
X135043750Y-173487500I218750J0D01*
G01*
X135556250Y-173487500D01*
G75*
G02*
X135775000Y-173706250I0J-218750D01*
G01*
X135775000Y-174143750D01*
G75*
G02*
X135556250Y-174362500I-218750J0D01*
G01*
G37*
G36*
G01*
X135556250Y-175937500D02*
X135043750Y-175937500D01*
G75*
G02*
X134825000Y-175718750I0J218750D01*
G01*
X134825000Y-175281250D01*
G75*
G02*
X135043750Y-175062500I218750J0D01*
G01*
X135556250Y-175062500D01*
G75*
G02*
X135775000Y-175281250I0J-218750D01*
G01*
X135775000Y-175718750D01*
G75*
G02*
X135556250Y-175937500I-218750J0D01*
G01*
G37*
G36*
G01*
X140843750Y-175062500D02*
X141356250Y-175062500D01*
G75*
G02*
X141575000Y-175281250I0J-218750D01*
G01*
X141575000Y-175718750D01*
G75*
G02*
X141356250Y-175937500I-218750J0D01*
G01*
X140843750Y-175937500D01*
G75*
G02*
X140625000Y-175718750I0J218750D01*
G01*
X140625000Y-175281250D01*
G75*
G02*
X140843750Y-175062500I218750J0D01*
G01*
G37*
G36*
G01*
X140843750Y-173487500D02*
X141356250Y-173487500D01*
G75*
G02*
X141575000Y-173706250I0J-218750D01*
G01*
X141575000Y-174143750D01*
G75*
G02*
X141356250Y-174362500I-218750J0D01*
G01*
X140843750Y-174362500D01*
G75*
G02*
X140625000Y-174143750I0J218750D01*
G01*
X140625000Y-173706250D01*
G75*
G02*
X140843750Y-173487500I218750J0D01*
G01*
G37*
G36*
G01*
X156886500Y-106322250D02*
X156886500Y-106834750D01*
G75*
G02*
X156667750Y-107053500I-218750J0D01*
G01*
X156230250Y-107053500D01*
G75*
G02*
X156011500Y-106834750I0J218750D01*
G01*
X156011500Y-106322250D01*
G75*
G02*
X156230250Y-106103500I218750J0D01*
G01*
X156667750Y-106103500D01*
G75*
G02*
X156886500Y-106322250I0J-218750D01*
G01*
G37*
G36*
G01*
X158461500Y-106322250D02*
X158461500Y-106834750D01*
G75*
G02*
X158242750Y-107053500I-218750J0D01*
G01*
X157805250Y-107053500D01*
G75*
G02*
X157586500Y-106834750I0J218750D01*
G01*
X157586500Y-106322250D01*
G75*
G02*
X157805250Y-106103500I218750J0D01*
G01*
X158242750Y-106103500D01*
G75*
G02*
X158461500Y-106322250I0J-218750D01*
G01*
G37*
D21*
X159243000Y-102572000D03*
X160193000Y-104572000D03*
X158293000Y-104572000D03*
D22*
X109000000Y-146000000D03*
X107000000Y-146950000D03*
X107000000Y-145050000D03*
X109000000Y-149750000D03*
X107000000Y-150700000D03*
X107000000Y-148800000D03*
D12*
X141210000Y-147525000D03*
X141210000Y-142475000D03*
X143750000Y-147525000D03*
X143750000Y-142475000D03*
X146290000Y-147525000D03*
X146290000Y-142475000D03*
D23*
X101615000Y-189920000D03*
X101615000Y-188000000D03*
D24*
X104765000Y-190260000D03*
X104765000Y-189610000D03*
X104765000Y-188960000D03*
X104765000Y-188310000D03*
X104765000Y-187660000D03*
D25*
X104885000Y-191860000D03*
X104865000Y-186110000D03*
D26*
X103565000Y-191960000D03*
X103565000Y-186010000D03*
D27*
X102815000Y-186230000D03*
X102815000Y-191710000D03*
D28*
X154544000Y-103420000D03*
X154544000Y-102580000D03*
G36*
G01*
X110562500Y-167756250D02*
X110562500Y-167243750D01*
G75*
G02*
X110781250Y-167025000I218750J0D01*
G01*
X111218750Y-167025000D01*
G75*
G02*
X111437500Y-167243750I0J-218750D01*
G01*
X111437500Y-167756250D01*
G75*
G02*
X111218750Y-167975000I-218750J0D01*
G01*
X110781250Y-167975000D01*
G75*
G02*
X110562500Y-167756250I0J218750D01*
G01*
G37*
G36*
G01*
X108987500Y-167756250D02*
X108987500Y-167243750D01*
G75*
G02*
X109206250Y-167025000I218750J0D01*
G01*
X109643750Y-167025000D01*
G75*
G02*
X109862500Y-167243750I0J-218750D01*
G01*
X109862500Y-167756250D01*
G75*
G02*
X109643750Y-167975000I-218750J0D01*
G01*
X109206250Y-167975000D01*
G75*
G02*
X108987500Y-167756250I0J218750D01*
G01*
G37*
G36*
G01*
X110356250Y-192925000D02*
X109843750Y-192925000D01*
G75*
G02*
X109625000Y-192706250I0J218750D01*
G01*
X109625000Y-192268750D01*
G75*
G02*
X109843750Y-192050000I218750J0D01*
G01*
X110356250Y-192050000D01*
G75*
G02*
X110575000Y-192268750I0J-218750D01*
G01*
X110575000Y-192706250D01*
G75*
G02*
X110356250Y-192925000I-218750J0D01*
G01*
G37*
G36*
G01*
X110356250Y-191350000D02*
X109843750Y-191350000D01*
G75*
G02*
X109625000Y-191131250I0J218750D01*
G01*
X109625000Y-190693750D01*
G75*
G02*
X109843750Y-190475000I218750J0D01*
G01*
X110356250Y-190475000D01*
G75*
G02*
X110575000Y-190693750I0J-218750D01*
G01*
X110575000Y-191131250D01*
G75*
G02*
X110356250Y-191350000I-218750J0D01*
G01*
G37*
G36*
G01*
X108516250Y-191312500D02*
X108003750Y-191312500D01*
G75*
G02*
X107785000Y-191093750I0J218750D01*
G01*
X107785000Y-190656250D01*
G75*
G02*
X108003750Y-190437500I218750J0D01*
G01*
X108516250Y-190437500D01*
G75*
G02*
X108735000Y-190656250I0J-218750D01*
G01*
X108735000Y-191093750D01*
G75*
G02*
X108516250Y-191312500I-218750J0D01*
G01*
G37*
G36*
G01*
X108516250Y-192887500D02*
X108003750Y-192887500D01*
G75*
G02*
X107785000Y-192668750I0J218750D01*
G01*
X107785000Y-192231250D01*
G75*
G02*
X108003750Y-192012500I218750J0D01*
G01*
X108516250Y-192012500D01*
G75*
G02*
X108735000Y-192231250I0J-218750D01*
G01*
X108735000Y-192668750D01*
G75*
G02*
X108516250Y-192887500I-218750J0D01*
G01*
G37*
D29*
X118225000Y-181400000D03*
X117575000Y-181400000D03*
X116925000Y-181400000D03*
X116275000Y-181400000D03*
X115625000Y-181400000D03*
X114975000Y-181400000D03*
X114325000Y-181400000D03*
X113675000Y-181400000D03*
X113025000Y-181400000D03*
X112375000Y-181400000D03*
X111725000Y-181400000D03*
X111075000Y-181400000D03*
X110425000Y-181400000D03*
X109775000Y-181400000D03*
X109775000Y-188600000D03*
X110425000Y-188600000D03*
X111075000Y-188600000D03*
X111725000Y-188600000D03*
X112375000Y-188600000D03*
X113025000Y-188600000D03*
X113675000Y-188600000D03*
X114325000Y-188600000D03*
X114975000Y-188600000D03*
X115625000Y-188600000D03*
X116275000Y-188600000D03*
X116925000Y-188600000D03*
X117575000Y-188600000D03*
X118225000Y-188600000D03*
G36*
G01*
X114112500Y-114243750D02*
X114112500Y-114756250D01*
G75*
G02*
X113893750Y-114975000I-218750J0D01*
G01*
X113456250Y-114975000D01*
G75*
G02*
X113237500Y-114756250I0J218750D01*
G01*
X113237500Y-114243750D01*
G75*
G02*
X113456250Y-114025000I218750J0D01*
G01*
X113893750Y-114025000D01*
G75*
G02*
X114112500Y-114243750I0J-218750D01*
G01*
G37*
G36*
G01*
X115687500Y-114243750D02*
X115687500Y-114756250D01*
G75*
G02*
X115468750Y-114975000I-218750J0D01*
G01*
X115031250Y-114975000D01*
G75*
G02*
X114812500Y-114756250I0J218750D01*
G01*
X114812500Y-114243750D01*
G75*
G02*
X115031250Y-114025000I218750J0D01*
G01*
X115468750Y-114025000D01*
G75*
G02*
X115687500Y-114243750I0J-218750D01*
G01*
G37*
D30*
X145750000Y-164250000D03*
X145750000Y-156250000D03*
X141250000Y-164250000D03*
X141250000Y-156250000D03*
X134218750Y-115446250D03*
X134218750Y-107446250D03*
X129718750Y-115446250D03*
X129718750Y-107446250D03*
X121218750Y-107446250D03*
X121218750Y-115446250D03*
X125718750Y-107446250D03*
X125718750Y-115446250D03*
D31*
X148982800Y-130250000D03*
X148982800Y-129050000D03*
X148982800Y-127850000D03*
G36*
G01*
X180450000Y-124443750D02*
X180450000Y-124956250D01*
G75*
G02*
X180231250Y-125175000I-218750J0D01*
G01*
X179793750Y-125175000D01*
G75*
G02*
X179575000Y-124956250I0J218750D01*
G01*
X179575000Y-124443750D01*
G75*
G02*
X179793750Y-124225000I218750J0D01*
G01*
X180231250Y-124225000D01*
G75*
G02*
X180450000Y-124443750I0J-218750D01*
G01*
G37*
G36*
G01*
X182025000Y-124443750D02*
X182025000Y-124956250D01*
G75*
G02*
X181806250Y-125175000I-218750J0D01*
G01*
X181368750Y-125175000D01*
G75*
G02*
X181150000Y-124956250I0J218750D01*
G01*
X181150000Y-124443750D01*
G75*
G02*
X181368750Y-124225000I218750J0D01*
G01*
X181806250Y-124225000D01*
G75*
G02*
X182025000Y-124443750I0J-218750D01*
G01*
G37*
G36*
G01*
X187862500Y-126743750D02*
X187862500Y-127256250D01*
G75*
G02*
X187643750Y-127475000I-218750J0D01*
G01*
X187206250Y-127475000D01*
G75*
G02*
X186987500Y-127256250I0J218750D01*
G01*
X186987500Y-126743750D01*
G75*
G02*
X187206250Y-126525000I218750J0D01*
G01*
X187643750Y-126525000D01*
G75*
G02*
X187862500Y-126743750I0J-218750D01*
G01*
G37*
G36*
G01*
X189437500Y-126743750D02*
X189437500Y-127256250D01*
G75*
G02*
X189218750Y-127475000I-218750J0D01*
G01*
X188781250Y-127475000D01*
G75*
G02*
X188562500Y-127256250I0J218750D01*
G01*
X188562500Y-126743750D01*
G75*
G02*
X188781250Y-126525000I218750J0D01*
G01*
X189218750Y-126525000D01*
G75*
G02*
X189437500Y-126743750I0J-218750D01*
G01*
G37*
G36*
G01*
X173062500Y-192256250D02*
X173062500Y-191743750D01*
G75*
G02*
X173281250Y-191525000I218750J0D01*
G01*
X173718750Y-191525000D01*
G75*
G02*
X173937500Y-191743750I0J-218750D01*
G01*
X173937500Y-192256250D01*
G75*
G02*
X173718750Y-192475000I-218750J0D01*
G01*
X173281250Y-192475000D01*
G75*
G02*
X173062500Y-192256250I0J218750D01*
G01*
G37*
G36*
G01*
X171487500Y-192256250D02*
X171487500Y-191743750D01*
G75*
G02*
X171706250Y-191525000I218750J0D01*
G01*
X172143750Y-191525000D01*
G75*
G02*
X172362500Y-191743750I0J-218750D01*
G01*
X172362500Y-192256250D01*
G75*
G02*
X172143750Y-192475000I-218750J0D01*
G01*
X171706250Y-192475000D01*
G75*
G02*
X171487500Y-192256250I0J218750D01*
G01*
G37*
G36*
G01*
X173100000Y-180256250D02*
X173100000Y-179743750D01*
G75*
G02*
X173318750Y-179525000I218750J0D01*
G01*
X173756250Y-179525000D01*
G75*
G02*
X173975000Y-179743750I0J-218750D01*
G01*
X173975000Y-180256250D01*
G75*
G02*
X173756250Y-180475000I-218750J0D01*
G01*
X173318750Y-180475000D01*
G75*
G02*
X173100000Y-180256250I0J218750D01*
G01*
G37*
G36*
G01*
X171525000Y-180256250D02*
X171525000Y-179743750D01*
G75*
G02*
X171743750Y-179525000I218750J0D01*
G01*
X172181250Y-179525000D01*
G75*
G02*
X172400000Y-179743750I0J-218750D01*
G01*
X172400000Y-180256250D01*
G75*
G02*
X172181250Y-180475000I-218750J0D01*
G01*
X171743750Y-180475000D01*
G75*
G02*
X171525000Y-180256250I0J218750D01*
G01*
G37*
G36*
G01*
X167812500Y-184756250D02*
X167812500Y-184243750D01*
G75*
G02*
X168031250Y-184025000I218750J0D01*
G01*
X168468750Y-184025000D01*
G75*
G02*
X168687500Y-184243750I0J-218750D01*
G01*
X168687500Y-184756250D01*
G75*
G02*
X168468750Y-184975000I-218750J0D01*
G01*
X168031250Y-184975000D01*
G75*
G02*
X167812500Y-184756250I0J218750D01*
G01*
G37*
G36*
G01*
X166237500Y-184756250D02*
X166237500Y-184243750D01*
G75*
G02*
X166456250Y-184025000I218750J0D01*
G01*
X166893750Y-184025000D01*
G75*
G02*
X167112500Y-184243750I0J-218750D01*
G01*
X167112500Y-184756250D01*
G75*
G02*
X166893750Y-184975000I-218750J0D01*
G01*
X166456250Y-184975000D01*
G75*
G02*
X166237500Y-184756250I0J218750D01*
G01*
G37*
G36*
G01*
X173052000Y-168506250D02*
X173052000Y-167993750D01*
G75*
G02*
X173270750Y-167775000I218750J0D01*
G01*
X173708250Y-167775000D01*
G75*
G02*
X173927000Y-167993750I0J-218750D01*
G01*
X173927000Y-168506250D01*
G75*
G02*
X173708250Y-168725000I-218750J0D01*
G01*
X173270750Y-168725000D01*
G75*
G02*
X173052000Y-168506250I0J218750D01*
G01*
G37*
G36*
G01*
X171477000Y-168506250D02*
X171477000Y-167993750D01*
G75*
G02*
X171695750Y-167775000I218750J0D01*
G01*
X172133250Y-167775000D01*
G75*
G02*
X172352000Y-167993750I0J-218750D01*
G01*
X172352000Y-168506250D01*
G75*
G02*
X172133250Y-168725000I-218750J0D01*
G01*
X171695750Y-168725000D01*
G75*
G02*
X171477000Y-168506250I0J218750D01*
G01*
G37*
G36*
G01*
X173100000Y-156256250D02*
X173100000Y-155743750D01*
G75*
G02*
X173318750Y-155525000I218750J0D01*
G01*
X173756250Y-155525000D01*
G75*
G02*
X173975000Y-155743750I0J-218750D01*
G01*
X173975000Y-156256250D01*
G75*
G02*
X173756250Y-156475000I-218750J0D01*
G01*
X173318750Y-156475000D01*
G75*
G02*
X173100000Y-156256250I0J218750D01*
G01*
G37*
G36*
G01*
X171525000Y-156256250D02*
X171525000Y-155743750D01*
G75*
G02*
X171743750Y-155525000I218750J0D01*
G01*
X172181250Y-155525000D01*
G75*
G02*
X172400000Y-155743750I0J-218750D01*
G01*
X172400000Y-156256250D01*
G75*
G02*
X172181250Y-156475000I-218750J0D01*
G01*
X171743750Y-156475000D01*
G75*
G02*
X171525000Y-156256250I0J218750D01*
G01*
G37*
G36*
G01*
X167862500Y-159793750D02*
X167862500Y-160306250D01*
G75*
G02*
X167643750Y-160525000I-218750J0D01*
G01*
X167206250Y-160525000D01*
G75*
G02*
X166987500Y-160306250I0J218750D01*
G01*
X166987500Y-159793750D01*
G75*
G02*
X167206250Y-159575000I218750J0D01*
G01*
X167643750Y-159575000D01*
G75*
G02*
X167862500Y-159793750I0J-218750D01*
G01*
G37*
G36*
G01*
X169437500Y-159793750D02*
X169437500Y-160306250D01*
G75*
G02*
X169218750Y-160525000I-218750J0D01*
G01*
X168781250Y-160525000D01*
G75*
G02*
X168562500Y-160306250I0J218750D01*
G01*
X168562500Y-159793750D01*
G75*
G02*
X168781250Y-159575000I218750J0D01*
G01*
X169218750Y-159575000D01*
G75*
G02*
X169437500Y-159793750I0J-218750D01*
G01*
G37*
G36*
X166987500Y-186250001D02*
G01*
X166987500Y-187350000D01*
X166412499Y-187350000D01*
X166412499Y-186850000D01*
X165912500Y-186850000D01*
X165912500Y-187350000D01*
X165337500Y-187350000D01*
X165337500Y-186250000D01*
X166987500Y-186250001D01*
G37*
G36*
X165912501Y-190150000D02*
G01*
X166412500Y-190150001D01*
X166412500Y-189650000D01*
X166987500Y-189650001D01*
X166987500Y-190750000D01*
X165337500Y-190749999D01*
X165337501Y-189650000D01*
X165912501Y-189650000D01*
X165912501Y-190150000D01*
G37*
G36*
X168462501Y-190150000D02*
G01*
X168962500Y-190150001D01*
X168962500Y-189650000D01*
X169537500Y-189650001D01*
X169537500Y-190750000D01*
X167887500Y-190749999D01*
X167887501Y-189650000D01*
X168462501Y-189650000D01*
X168462501Y-190150000D01*
G37*
G36*
X169537500Y-186250001D02*
G01*
X169537500Y-187350000D01*
X168962499Y-187350000D01*
X168962499Y-186850000D01*
X168462500Y-186850000D01*
X168462500Y-187350000D01*
X167887500Y-187350000D01*
X167887500Y-186250000D01*
X169537500Y-186250001D01*
G37*
G36*
X167566000Y-161850001D02*
G01*
X167566000Y-162950000D01*
X166990999Y-162950000D01*
X166990999Y-162450000D01*
X166491000Y-162450000D01*
X166491000Y-162950000D01*
X165916000Y-162950000D01*
X165916000Y-161850000D01*
X167566000Y-161850001D01*
G37*
G36*
X166491001Y-165750000D02*
G01*
X166991000Y-165750001D01*
X166991000Y-165250000D01*
X167566000Y-165250001D01*
X167566000Y-166350000D01*
X165916000Y-166349999D01*
X165916001Y-165250000D01*
X166491001Y-165250000D01*
X166491001Y-165750000D01*
G37*
G36*
X169250001Y-165650000D02*
G01*
X169750000Y-165650001D01*
X169750000Y-165150000D01*
X170325000Y-165150001D01*
X170325000Y-166250000D01*
X168675000Y-166249999D01*
X168675001Y-165150000D01*
X169250001Y-165150000D01*
X169250001Y-165650000D01*
G37*
G36*
X170325000Y-161750001D02*
G01*
X170325000Y-162850000D01*
X169749999Y-162850000D01*
X169749999Y-162350000D01*
X169250000Y-162350000D01*
X169250000Y-162850000D01*
X168675000Y-162850000D01*
X168675000Y-161750000D01*
X170325000Y-161750001D01*
G37*
G36*
G01*
X172400000Y-193493750D02*
X172400000Y-194006250D01*
G75*
G02*
X172181250Y-194225000I-218750J0D01*
G01*
X171743750Y-194225000D01*
G75*
G02*
X171525000Y-194006250I0J218750D01*
G01*
X171525000Y-193493750D01*
G75*
G02*
X171743750Y-193275000I218750J0D01*
G01*
X172181250Y-193275000D01*
G75*
G02*
X172400000Y-193493750I0J-218750D01*
G01*
G37*
G36*
G01*
X173975000Y-193493750D02*
X173975000Y-194006250D01*
G75*
G02*
X173756250Y-194225000I-218750J0D01*
G01*
X173318750Y-194225000D01*
G75*
G02*
X173100000Y-194006250I0J218750D01*
G01*
X173100000Y-193493750D01*
G75*
G02*
X173318750Y-193275000I218750J0D01*
G01*
X173756250Y-193275000D01*
G75*
G02*
X173975000Y-193493750I0J-218750D01*
G01*
G37*
G36*
G01*
X172400000Y-181493750D02*
X172400000Y-182006250D01*
G75*
G02*
X172181250Y-182225000I-218750J0D01*
G01*
X171743750Y-182225000D01*
G75*
G02*
X171525000Y-182006250I0J218750D01*
G01*
X171525000Y-181493750D01*
G75*
G02*
X171743750Y-181275000I218750J0D01*
G01*
X172181250Y-181275000D01*
G75*
G02*
X172400000Y-181493750I0J-218750D01*
G01*
G37*
G36*
G01*
X173975000Y-181493750D02*
X173975000Y-182006250D01*
G75*
G02*
X173756250Y-182225000I-218750J0D01*
G01*
X173318750Y-182225000D01*
G75*
G02*
X173100000Y-182006250I0J218750D01*
G01*
X173100000Y-181493750D01*
G75*
G02*
X173318750Y-181275000I218750J0D01*
G01*
X173756250Y-181275000D01*
G75*
G02*
X173975000Y-181493750I0J-218750D01*
G01*
G37*
G36*
G01*
X167100000Y-182243750D02*
X167100000Y-182756250D01*
G75*
G02*
X166881250Y-182975000I-218750J0D01*
G01*
X166443750Y-182975000D01*
G75*
G02*
X166225000Y-182756250I0J218750D01*
G01*
X166225000Y-182243750D01*
G75*
G02*
X166443750Y-182025000I218750J0D01*
G01*
X166881250Y-182025000D01*
G75*
G02*
X167100000Y-182243750I0J-218750D01*
G01*
G37*
G36*
G01*
X168675000Y-182243750D02*
X168675000Y-182756250D01*
G75*
G02*
X168456250Y-182975000I-218750J0D01*
G01*
X168018750Y-182975000D01*
G75*
G02*
X167800000Y-182756250I0J218750D01*
G01*
X167800000Y-182243750D01*
G75*
G02*
X168018750Y-182025000I218750J0D01*
G01*
X168456250Y-182025000D01*
G75*
G02*
X168675000Y-182243750I0J-218750D01*
G01*
G37*
G36*
G01*
X167200000Y-191818750D02*
X167200000Y-192331250D01*
G75*
G02*
X166981250Y-192550000I-218750J0D01*
G01*
X166543750Y-192550000D01*
G75*
G02*
X166325000Y-192331250I0J218750D01*
G01*
X166325000Y-191818750D01*
G75*
G02*
X166543750Y-191600000I218750J0D01*
G01*
X166981250Y-191600000D01*
G75*
G02*
X167200000Y-191818750I0J-218750D01*
G01*
G37*
G36*
G01*
X168775000Y-191818750D02*
X168775000Y-192331250D01*
G75*
G02*
X168556250Y-192550000I-218750J0D01*
G01*
X168118750Y-192550000D01*
G75*
G02*
X167900000Y-192331250I0J218750D01*
G01*
X167900000Y-191818750D01*
G75*
G02*
X168118750Y-191600000I218750J0D01*
G01*
X168556250Y-191600000D01*
G75*
G02*
X168775000Y-191818750I0J-218750D01*
G01*
G37*
G36*
G01*
X188784500Y-173636250D02*
X188784500Y-173123750D01*
G75*
G02*
X189003250Y-172905000I218750J0D01*
G01*
X189440750Y-172905000D01*
G75*
G02*
X189659500Y-173123750I0J-218750D01*
G01*
X189659500Y-173636250D01*
G75*
G02*
X189440750Y-173855000I-218750J0D01*
G01*
X189003250Y-173855000D01*
G75*
G02*
X188784500Y-173636250I0J218750D01*
G01*
G37*
G36*
G01*
X187209500Y-173636250D02*
X187209500Y-173123750D01*
G75*
G02*
X187428250Y-172905000I218750J0D01*
G01*
X187865750Y-172905000D01*
G75*
G02*
X188084500Y-173123750I0J-218750D01*
G01*
X188084500Y-173636250D01*
G75*
G02*
X187865750Y-173855000I-218750J0D01*
G01*
X187428250Y-173855000D01*
G75*
G02*
X187209500Y-173636250I0J218750D01*
G01*
G37*
G36*
G01*
X172362500Y-169743750D02*
X172362500Y-170256250D01*
G75*
G02*
X172143750Y-170475000I-218750J0D01*
G01*
X171706250Y-170475000D01*
G75*
G02*
X171487500Y-170256250I0J218750D01*
G01*
X171487500Y-169743750D01*
G75*
G02*
X171706250Y-169525000I218750J0D01*
G01*
X172143750Y-169525000D01*
G75*
G02*
X172362500Y-169743750I0J-218750D01*
G01*
G37*
G36*
G01*
X173937500Y-169743750D02*
X173937500Y-170256250D01*
G75*
G02*
X173718750Y-170475000I-218750J0D01*
G01*
X173281250Y-170475000D01*
G75*
G02*
X173062500Y-170256250I0J218750D01*
G01*
X173062500Y-169743750D01*
G75*
G02*
X173281250Y-169525000I218750J0D01*
G01*
X173718750Y-169525000D01*
G75*
G02*
X173937500Y-169743750I0J-218750D01*
G01*
G37*
G36*
G01*
X172400000Y-157493750D02*
X172400000Y-158006250D01*
G75*
G02*
X172181250Y-158225000I-218750J0D01*
G01*
X171743750Y-158225000D01*
G75*
G02*
X171525000Y-158006250I0J218750D01*
G01*
X171525000Y-157493750D01*
G75*
G02*
X171743750Y-157275000I218750J0D01*
G01*
X172181250Y-157275000D01*
G75*
G02*
X172400000Y-157493750I0J-218750D01*
G01*
G37*
G36*
G01*
X173975000Y-157493750D02*
X173975000Y-158006250D01*
G75*
G02*
X173756250Y-158225000I-218750J0D01*
G01*
X173318750Y-158225000D01*
G75*
G02*
X173100000Y-158006250I0J218750D01*
G01*
X173100000Y-157493750D01*
G75*
G02*
X173318750Y-157275000I218750J0D01*
G01*
X173756250Y-157275000D01*
G75*
G02*
X173975000Y-157493750I0J-218750D01*
G01*
G37*
G36*
G01*
X168562500Y-158306250D02*
X168562500Y-157793750D01*
G75*
G02*
X168781250Y-157575000I218750J0D01*
G01*
X169218750Y-157575000D01*
G75*
G02*
X169437500Y-157793750I0J-218750D01*
G01*
X169437500Y-158306250D01*
G75*
G02*
X169218750Y-158525000I-218750J0D01*
G01*
X168781250Y-158525000D01*
G75*
G02*
X168562500Y-158306250I0J218750D01*
G01*
G37*
G36*
G01*
X166987500Y-158306250D02*
X166987500Y-157793750D01*
G75*
G02*
X167206250Y-157575000I218750J0D01*
G01*
X167643750Y-157575000D01*
G75*
G02*
X167862500Y-157793750I0J-218750D01*
G01*
X167862500Y-158306250D01*
G75*
G02*
X167643750Y-158525000I-218750J0D01*
G01*
X167206250Y-158525000D01*
G75*
G02*
X166987500Y-158306250I0J218750D01*
G01*
G37*
G36*
G01*
X167437500Y-167793750D02*
X167437500Y-168306250D01*
G75*
G02*
X167218750Y-168525000I-218750J0D01*
G01*
X166781250Y-168525000D01*
G75*
G02*
X166562500Y-168306250I0J218750D01*
G01*
X166562500Y-167793750D01*
G75*
G02*
X166781250Y-167575000I218750J0D01*
G01*
X167218750Y-167575000D01*
G75*
G02*
X167437500Y-167793750I0J-218750D01*
G01*
G37*
G36*
G01*
X169012500Y-167793750D02*
X169012500Y-168306250D01*
G75*
G02*
X168793750Y-168525000I-218750J0D01*
G01*
X168356250Y-168525000D01*
G75*
G02*
X168137500Y-168306250I0J218750D01*
G01*
X168137500Y-167793750D01*
G75*
G02*
X168356250Y-167575000I218750J0D01*
G01*
X168793750Y-167575000D01*
G75*
G02*
X169012500Y-167793750I0J-218750D01*
G01*
G37*
G36*
G01*
X189064000Y-198020250D02*
X189064000Y-197507750D01*
G75*
G02*
X189282750Y-197289000I218750J0D01*
G01*
X189720250Y-197289000D01*
G75*
G02*
X189939000Y-197507750I0J-218750D01*
G01*
X189939000Y-198020250D01*
G75*
G02*
X189720250Y-198239000I-218750J0D01*
G01*
X189282750Y-198239000D01*
G75*
G02*
X189064000Y-198020250I0J218750D01*
G01*
G37*
G36*
G01*
X187489000Y-198020250D02*
X187489000Y-197507750D01*
G75*
G02*
X187707750Y-197289000I218750J0D01*
G01*
X188145250Y-197289000D01*
G75*
G02*
X188364000Y-197507750I0J-218750D01*
G01*
X188364000Y-198020250D01*
G75*
G02*
X188145250Y-198239000I-218750J0D01*
G01*
X187707750Y-198239000D01*
G75*
G02*
X187489000Y-198020250I0J218750D01*
G01*
G37*
G36*
G01*
X146643750Y-129400000D02*
X147156250Y-129400000D01*
G75*
G02*
X147375000Y-129618750I0J-218750D01*
G01*
X147375000Y-130056250D01*
G75*
G02*
X147156250Y-130275000I-218750J0D01*
G01*
X146643750Y-130275000D01*
G75*
G02*
X146425000Y-130056250I0J218750D01*
G01*
X146425000Y-129618750D01*
G75*
G02*
X146643750Y-129400000I218750J0D01*
G01*
G37*
G36*
G01*
X146643750Y-127825000D02*
X147156250Y-127825000D01*
G75*
G02*
X147375000Y-128043750I0J-218750D01*
G01*
X147375000Y-128481250D01*
G75*
G02*
X147156250Y-128700000I-218750J0D01*
G01*
X146643750Y-128700000D01*
G75*
G02*
X146425000Y-128481250I0J218750D01*
G01*
X146425000Y-128043750D01*
G75*
G02*
X146643750Y-127825000I218750J0D01*
G01*
G37*
D32*
X177000000Y-143750000D03*
X186500000Y-143750000D03*
X179800000Y-107600000D03*
X170300000Y-107600000D03*
G36*
G01*
X174406250Y-116012500D02*
X173493750Y-116012500D01*
G75*
G02*
X173250000Y-115768750I0J243750D01*
G01*
X173250000Y-115281250D01*
G75*
G02*
X173493750Y-115037500I243750J0D01*
G01*
X174406250Y-115037500D01*
G75*
G02*
X174650000Y-115281250I0J-243750D01*
G01*
X174650000Y-115768750D01*
G75*
G02*
X174406250Y-116012500I-243750J0D01*
G01*
G37*
G36*
G01*
X174406250Y-117887500D02*
X173493750Y-117887500D01*
G75*
G02*
X173250000Y-117643750I0J243750D01*
G01*
X173250000Y-117156250D01*
G75*
G02*
X173493750Y-116912500I243750J0D01*
G01*
X174406250Y-116912500D01*
G75*
G02*
X174650000Y-117156250I0J-243750D01*
G01*
X174650000Y-117643750D01*
G75*
G02*
X174406250Y-117887500I-243750J0D01*
G01*
G37*
G36*
G01*
X177477462Y-115989500D02*
X176564962Y-115989500D01*
G75*
G02*
X176321212Y-115745750I0J243750D01*
G01*
X176321212Y-115258250D01*
G75*
G02*
X176564962Y-115014500I243750J0D01*
G01*
X177477462Y-115014500D01*
G75*
G02*
X177721212Y-115258250I0J-243750D01*
G01*
X177721212Y-115745750D01*
G75*
G02*
X177477462Y-115989500I-243750J0D01*
G01*
G37*
G36*
G01*
X177477462Y-117864500D02*
X176564962Y-117864500D01*
G75*
G02*
X176321212Y-117620750I0J243750D01*
G01*
X176321212Y-117133250D01*
G75*
G02*
X176564962Y-116889500I243750J0D01*
G01*
X177477462Y-116889500D01*
G75*
G02*
X177721212Y-117133250I0J-243750D01*
G01*
X177721212Y-117620750D01*
G75*
G02*
X177477462Y-117864500I-243750J0D01*
G01*
G37*
G36*
G01*
X180714962Y-115989500D02*
X179802462Y-115989500D01*
G75*
G02*
X179558712Y-115745750I0J243750D01*
G01*
X179558712Y-115258250D01*
G75*
G02*
X179802462Y-115014500I243750J0D01*
G01*
X180714962Y-115014500D01*
G75*
G02*
X180958712Y-115258250I0J-243750D01*
G01*
X180958712Y-115745750D01*
G75*
G02*
X180714962Y-115989500I-243750J0D01*
G01*
G37*
G36*
G01*
X180714962Y-117864500D02*
X179802462Y-117864500D01*
G75*
G02*
X179558712Y-117620750I0J243750D01*
G01*
X179558712Y-117133250D01*
G75*
G02*
X179802462Y-116889500I243750J0D01*
G01*
X180714962Y-116889500D01*
G75*
G02*
X180958712Y-117133250I0J-243750D01*
G01*
X180958712Y-117620750D01*
G75*
G02*
X180714962Y-117864500I-243750J0D01*
G01*
G37*
G36*
G01*
X191143750Y-107537500D02*
X191656250Y-107537500D01*
G75*
G02*
X191875000Y-107756250I0J-218750D01*
G01*
X191875000Y-108193750D01*
G75*
G02*
X191656250Y-108412500I-218750J0D01*
G01*
X191143750Y-108412500D01*
G75*
G02*
X190925000Y-108193750I0J218750D01*
G01*
X190925000Y-107756250D01*
G75*
G02*
X191143750Y-107537500I218750J0D01*
G01*
G37*
G36*
G01*
X191143750Y-105962500D02*
X191656250Y-105962500D01*
G75*
G02*
X191875000Y-106181250I0J-218750D01*
G01*
X191875000Y-106618750D01*
G75*
G02*
X191656250Y-106837500I-218750J0D01*
G01*
X191143750Y-106837500D01*
G75*
G02*
X190925000Y-106618750I0J218750D01*
G01*
X190925000Y-106181250D01*
G75*
G02*
X191143750Y-105962500I218750J0D01*
G01*
G37*
G36*
G01*
X194807000Y-139667000D02*
X193407000Y-139667000D01*
G75*
G02*
X193157000Y-139417000I0J250000D01*
G01*
X193157000Y-135767000D01*
G75*
G02*
X193407000Y-135517000I250000J0D01*
G01*
X194807000Y-135517000D01*
G75*
G02*
X195057000Y-135767000I0J-250000D01*
G01*
X195057000Y-139417000D01*
G75*
G02*
X194807000Y-139667000I-250000J0D01*
G01*
G37*
G36*
G01*
X194807000Y-146617000D02*
X193407000Y-146617000D01*
G75*
G02*
X193157000Y-146367000I0J250000D01*
G01*
X193157000Y-142717000D01*
G75*
G02*
X193407000Y-142467000I250000J0D01*
G01*
X194807000Y-142467000D01*
G75*
G02*
X195057000Y-142717000I0J-250000D01*
G01*
X195057000Y-146367000D01*
G75*
G02*
X194807000Y-146617000I-250000J0D01*
G01*
G37*
G36*
G01*
X149537500Y-107756250D02*
X149537500Y-107243750D01*
G75*
G02*
X149756250Y-107025000I218750J0D01*
G01*
X150193750Y-107025000D01*
G75*
G02*
X150412500Y-107243750I0J-218750D01*
G01*
X150412500Y-107756250D01*
G75*
G02*
X150193750Y-107975000I-218750J0D01*
G01*
X149756250Y-107975000D01*
G75*
G02*
X149537500Y-107756250I0J218750D01*
G01*
G37*
G36*
G01*
X147962500Y-107756250D02*
X147962500Y-107243750D01*
G75*
G02*
X148181250Y-107025000I218750J0D01*
G01*
X148618750Y-107025000D01*
G75*
G02*
X148837500Y-107243750I0J-218750D01*
G01*
X148837500Y-107756250D01*
G75*
G02*
X148618750Y-107975000I-218750J0D01*
G01*
X148181250Y-107975000D01*
G75*
G02*
X147962500Y-107756250I0J218750D01*
G01*
G37*
G36*
G01*
X183954000Y-128425500D02*
X184364000Y-128425500D01*
G75*
G02*
X184544000Y-128605500I0J-180000D01*
G01*
X184544000Y-128965500D01*
G75*
G02*
X184364000Y-129145500I-180000J0D01*
G01*
X183954000Y-129145500D01*
G75*
G02*
X183774000Y-128965500I0J180000D01*
G01*
X183774000Y-128605500D01*
G75*
G02*
X183954000Y-128425500I180000J0D01*
G01*
G37*
G36*
G01*
X184874000Y-128425500D02*
X185284000Y-128425500D01*
G75*
G02*
X185464000Y-128605500I0J-180000D01*
G01*
X185464000Y-128965500D01*
G75*
G02*
X185284000Y-129145500I-180000J0D01*
G01*
X184874000Y-129145500D01*
G75*
G02*
X184694000Y-128965500I0J180000D01*
G01*
X184694000Y-128605500D01*
G75*
G02*
X184874000Y-128425500I180000J0D01*
G01*
G37*
G36*
G01*
X183954000Y-127565500D02*
X184364000Y-127565500D01*
G75*
G02*
X184544000Y-127745500I0J-180000D01*
G01*
X184544000Y-128105500D01*
G75*
G02*
X184364000Y-128285500I-180000J0D01*
G01*
X183954000Y-128285500D01*
G75*
G02*
X183774000Y-128105500I0J180000D01*
G01*
X183774000Y-127745500D01*
G75*
G02*
X183954000Y-127565500I180000J0D01*
G01*
G37*
G36*
G01*
X184874000Y-127565500D02*
X185284000Y-127565500D01*
G75*
G02*
X185464000Y-127745500I0J-180000D01*
G01*
X185464000Y-128105500D01*
G75*
G02*
X185284000Y-128285500I-180000J0D01*
G01*
X184874000Y-128285500D01*
G75*
G02*
X184694000Y-128105500I0J180000D01*
G01*
X184694000Y-127745500D01*
G75*
G02*
X184874000Y-127565500I180000J0D01*
G01*
G37*
G36*
G01*
X185494000Y-129805500D02*
X185694000Y-129805500D01*
G75*
G02*
X185794000Y-129905500I0J-100000D01*
G01*
X185794000Y-131130500D01*
G75*
G02*
X185694000Y-131230500I-100000J0D01*
G01*
X185494000Y-131230500D01*
G75*
G02*
X185394000Y-131130500I0J100000D01*
G01*
X185394000Y-129905500D01*
G75*
G02*
X185494000Y-129805500I100000J0D01*
G01*
G37*
G36*
G01*
X184844000Y-129805500D02*
X185044000Y-129805500D01*
G75*
G02*
X185144000Y-129905500I0J-100000D01*
G01*
X185144000Y-131130500D01*
G75*
G02*
X185044000Y-131230500I-100000J0D01*
G01*
X184844000Y-131230500D01*
G75*
G02*
X184744000Y-131130500I0J100000D01*
G01*
X184744000Y-129905500D01*
G75*
G02*
X184844000Y-129805500I100000J0D01*
G01*
G37*
G36*
G01*
X184194000Y-129805500D02*
X184394000Y-129805500D01*
G75*
G02*
X184494000Y-129905500I0J-100000D01*
G01*
X184494000Y-131130500D01*
G75*
G02*
X184394000Y-131230500I-100000J0D01*
G01*
X184194000Y-131230500D01*
G75*
G02*
X184094000Y-131130500I0J100000D01*
G01*
X184094000Y-129905500D01*
G75*
G02*
X184194000Y-129805500I100000J0D01*
G01*
G37*
G36*
G01*
X183544000Y-129805500D02*
X183744000Y-129805500D01*
G75*
G02*
X183844000Y-129905500I0J-100000D01*
G01*
X183844000Y-131130500D01*
G75*
G02*
X183744000Y-131230500I-100000J0D01*
G01*
X183544000Y-131230500D01*
G75*
G02*
X183444000Y-131130500I0J100000D01*
G01*
X183444000Y-129905500D01*
G75*
G02*
X183544000Y-129805500I100000J0D01*
G01*
G37*
G36*
G01*
X183544000Y-125480500D02*
X183744000Y-125480500D01*
G75*
G02*
X183844000Y-125580500I0J-100000D01*
G01*
X183844000Y-126805500D01*
G75*
G02*
X183744000Y-126905500I-100000J0D01*
G01*
X183544000Y-126905500D01*
G75*
G02*
X183444000Y-126805500I0J100000D01*
G01*
X183444000Y-125580500D01*
G75*
G02*
X183544000Y-125480500I100000J0D01*
G01*
G37*
G36*
G01*
X184194000Y-125480500D02*
X184394000Y-125480500D01*
G75*
G02*
X184494000Y-125580500I0J-100000D01*
G01*
X184494000Y-126805500D01*
G75*
G02*
X184394000Y-126905500I-100000J0D01*
G01*
X184194000Y-126905500D01*
G75*
G02*
X184094000Y-126805500I0J100000D01*
G01*
X184094000Y-125580500D01*
G75*
G02*
X184194000Y-125480500I100000J0D01*
G01*
G37*
G36*
G01*
X184844000Y-125480500D02*
X185044000Y-125480500D01*
G75*
G02*
X185144000Y-125580500I0J-100000D01*
G01*
X185144000Y-126805500D01*
G75*
G02*
X185044000Y-126905500I-100000J0D01*
G01*
X184844000Y-126905500D01*
G75*
G02*
X184744000Y-126805500I0J100000D01*
G01*
X184744000Y-125580500D01*
G75*
G02*
X184844000Y-125480500I100000J0D01*
G01*
G37*
G36*
G01*
X185494000Y-125480500D02*
X185694000Y-125480500D01*
G75*
G02*
X185794000Y-125580500I0J-100000D01*
G01*
X185794000Y-126805500D01*
G75*
G02*
X185694000Y-126905500I-100000J0D01*
G01*
X185494000Y-126905500D01*
G75*
G02*
X185394000Y-126805500I0J100000D01*
G01*
X185394000Y-125580500D01*
G75*
G02*
X185494000Y-125480500I100000J0D01*
G01*
G37*
D33*
X189600000Y-109500000D03*
X189600000Y-108550000D03*
X189600000Y-110450000D03*
X187400000Y-110450000D03*
X187400000Y-109500000D03*
X187400000Y-108550000D03*
G36*
G01*
X149993750Y-153387500D02*
X150506250Y-153387500D01*
G75*
G02*
X150725000Y-153606250I0J-218750D01*
G01*
X150725000Y-154043750D01*
G75*
G02*
X150506250Y-154262500I-218750J0D01*
G01*
X149993750Y-154262500D01*
G75*
G02*
X149775000Y-154043750I0J218750D01*
G01*
X149775000Y-153606250D01*
G75*
G02*
X149993750Y-153387500I218750J0D01*
G01*
G37*
G36*
G01*
X149993750Y-151812500D02*
X150506250Y-151812500D01*
G75*
G02*
X150725000Y-152031250I0J-218750D01*
G01*
X150725000Y-152468750D01*
G75*
G02*
X150506250Y-152687500I-218750J0D01*
G01*
X149993750Y-152687500D01*
G75*
G02*
X149775000Y-152468750I0J218750D01*
G01*
X149775000Y-152031250D01*
G75*
G02*
X149993750Y-151812500I218750J0D01*
G01*
G37*
G36*
G01*
X180464000Y-122388750D02*
X180464000Y-122901250D01*
G75*
G02*
X180245250Y-123120000I-218750J0D01*
G01*
X179807750Y-123120000D01*
G75*
G02*
X179589000Y-122901250I0J218750D01*
G01*
X179589000Y-122388750D01*
G75*
G02*
X179807750Y-122170000I218750J0D01*
G01*
X180245250Y-122170000D01*
G75*
G02*
X180464000Y-122388750I0J-218750D01*
G01*
G37*
G36*
G01*
X182039000Y-122388750D02*
X182039000Y-122901250D01*
G75*
G02*
X181820250Y-123120000I-218750J0D01*
G01*
X181382750Y-123120000D01*
G75*
G02*
X181164000Y-122901250I0J218750D01*
G01*
X181164000Y-122388750D01*
G75*
G02*
X181382750Y-122170000I218750J0D01*
G01*
X181820250Y-122170000D01*
G75*
G02*
X182039000Y-122388750I0J-218750D01*
G01*
G37*
G36*
G01*
X181101500Y-127115250D02*
X181101500Y-126602750D01*
G75*
G02*
X181320250Y-126384000I218750J0D01*
G01*
X181757750Y-126384000D01*
G75*
G02*
X181976500Y-126602750I0J-218750D01*
G01*
X181976500Y-127115250D01*
G75*
G02*
X181757750Y-127334000I-218750J0D01*
G01*
X181320250Y-127334000D01*
G75*
G02*
X181101500Y-127115250I0J218750D01*
G01*
G37*
G36*
G01*
X179526500Y-127115250D02*
X179526500Y-126602750D01*
G75*
G02*
X179745250Y-126384000I218750J0D01*
G01*
X180182750Y-126384000D01*
G75*
G02*
X180401500Y-126602750I0J-218750D01*
G01*
X180401500Y-127115250D01*
G75*
G02*
X180182750Y-127334000I-218750J0D01*
G01*
X179745250Y-127334000D01*
G75*
G02*
X179526500Y-127115250I0J218750D01*
G01*
G37*
G36*
G01*
X185775000Y-134875000D02*
X185775000Y-133625000D01*
G75*
G02*
X186025000Y-133375000I250000J0D01*
G01*
X186775000Y-133375000D01*
G75*
G02*
X187025000Y-133625000I0J-250000D01*
G01*
X187025000Y-134875000D01*
G75*
G02*
X186775000Y-135125000I-250000J0D01*
G01*
X186025000Y-135125000D01*
G75*
G02*
X185775000Y-134875000I0J250000D01*
G01*
G37*
G36*
G01*
X182975000Y-134875000D02*
X182975000Y-133625000D01*
G75*
G02*
X183225000Y-133375000I250000J0D01*
G01*
X183975000Y-133375000D01*
G75*
G02*
X184225000Y-133625000I0J-250000D01*
G01*
X184225000Y-134875000D01*
G75*
G02*
X183975000Y-135125000I-250000J0D01*
G01*
X183225000Y-135125000D01*
G75*
G02*
X182975000Y-134875000I0J250000D01*
G01*
G37*
G36*
G01*
X184743750Y-115137500D02*
X185256250Y-115137500D01*
G75*
G02*
X185475000Y-115356250I0J-218750D01*
G01*
X185475000Y-115793750D01*
G75*
G02*
X185256250Y-116012500I-218750J0D01*
G01*
X184743750Y-116012500D01*
G75*
G02*
X184525000Y-115793750I0J218750D01*
G01*
X184525000Y-115356250D01*
G75*
G02*
X184743750Y-115137500I218750J0D01*
G01*
G37*
G36*
G01*
X184743750Y-113562500D02*
X185256250Y-113562500D01*
G75*
G02*
X185475000Y-113781250I0J-218750D01*
G01*
X185475000Y-114218750D01*
G75*
G02*
X185256250Y-114437500I-218750J0D01*
G01*
X184743750Y-114437500D01*
G75*
G02*
X184525000Y-114218750I0J218750D01*
G01*
X184525000Y-113781250D01*
G75*
G02*
X184743750Y-113562500I218750J0D01*
G01*
G37*
G36*
G01*
X183256250Y-114437500D02*
X182743750Y-114437500D01*
G75*
G02*
X182525000Y-114218750I0J218750D01*
G01*
X182525000Y-113781250D01*
G75*
G02*
X182743750Y-113562500I218750J0D01*
G01*
X183256250Y-113562500D01*
G75*
G02*
X183475000Y-113781250I0J-218750D01*
G01*
X183475000Y-114218750D01*
G75*
G02*
X183256250Y-114437500I-218750J0D01*
G01*
G37*
G36*
G01*
X183256250Y-116012500D02*
X182743750Y-116012500D01*
G75*
G02*
X182525000Y-115793750I0J218750D01*
G01*
X182525000Y-115356250D01*
G75*
G02*
X182743750Y-115137500I218750J0D01*
G01*
X183256250Y-115137500D01*
G75*
G02*
X183475000Y-115356250I0J-218750D01*
G01*
X183475000Y-115793750D01*
G75*
G02*
X183256250Y-116012500I-218750J0D01*
G01*
G37*
G36*
G01*
X188550000Y-125587500D02*
X188550000Y-125075000D01*
G75*
G02*
X188768750Y-124856250I218750J0D01*
G01*
X189206250Y-124856250D01*
G75*
G02*
X189425000Y-125075000I0J-218750D01*
G01*
X189425000Y-125587500D01*
G75*
G02*
X189206250Y-125806250I-218750J0D01*
G01*
X188768750Y-125806250D01*
G75*
G02*
X188550000Y-125587500I0J218750D01*
G01*
G37*
G36*
G01*
X186975000Y-125587500D02*
X186975000Y-125075000D01*
G75*
G02*
X187193750Y-124856250I218750J0D01*
G01*
X187631250Y-124856250D01*
G75*
G02*
X187850000Y-125075000I0J-218750D01*
G01*
X187850000Y-125587500D01*
G75*
G02*
X187631250Y-125806250I-218750J0D01*
G01*
X187193750Y-125806250D01*
G75*
G02*
X186975000Y-125587500I0J218750D01*
G01*
G37*
D34*
X178310000Y-131250000D03*
D35*
X176205000Y-133155000D03*
X176205000Y-131885000D03*
X176205000Y-130615000D03*
X176205000Y-129345000D03*
D36*
X181670000Y-129345000D03*
X181670000Y-130615000D03*
X181670000Y-131885000D03*
X181670000Y-133155000D03*
G36*
G01*
X182262500Y-198400000D02*
X182262500Y-195600000D01*
G75*
G02*
X182512500Y-195350000I250000J0D01*
G01*
X183487500Y-195350000D01*
G75*
G02*
X183737500Y-195600000I0J-250000D01*
G01*
X183737500Y-198400000D01*
G75*
G02*
X183487500Y-198650000I-250000J0D01*
G01*
X182512500Y-198650000D01*
G75*
G02*
X182262500Y-198400000I0J250000D01*
G01*
G37*
G36*
G01*
X177937500Y-198400000D02*
X177937500Y-195600000D01*
G75*
G02*
X178187500Y-195350000I250000J0D01*
G01*
X179162500Y-195350000D01*
G75*
G02*
X179412500Y-195600000I0J-250000D01*
G01*
X179412500Y-198400000D01*
G75*
G02*
X179162500Y-198650000I-250000J0D01*
G01*
X178187500Y-198650000D01*
G75*
G02*
X177937500Y-198400000I0J250000D01*
G01*
G37*
G36*
G01*
X182025000Y-178400000D02*
X182025000Y-175600000D01*
G75*
G02*
X182275000Y-175350000I250000J0D01*
G01*
X183250000Y-175350000D01*
G75*
G02*
X183500000Y-175600000I0J-250000D01*
G01*
X183500000Y-178400000D01*
G75*
G02*
X183250000Y-178650000I-250000J0D01*
G01*
X182275000Y-178650000D01*
G75*
G02*
X182025000Y-178400000I0J250000D01*
G01*
G37*
G36*
G01*
X177700000Y-178400000D02*
X177700000Y-175600000D01*
G75*
G02*
X177950000Y-175350000I250000J0D01*
G01*
X178925000Y-175350000D01*
G75*
G02*
X179175000Y-175600000I0J-250000D01*
G01*
X179175000Y-178400000D01*
G75*
G02*
X178925000Y-178650000I-250000J0D01*
G01*
X177950000Y-178650000D01*
G75*
G02*
X177700000Y-178400000I0J250000D01*
G01*
G37*
G36*
G01*
X182025000Y-174400000D02*
X182025000Y-171600000D01*
G75*
G02*
X182275000Y-171350000I250000J0D01*
G01*
X183250000Y-171350000D01*
G75*
G02*
X183500000Y-171600000I0J-250000D01*
G01*
X183500000Y-174400000D01*
G75*
G02*
X183250000Y-174650000I-250000J0D01*
G01*
X182275000Y-174650000D01*
G75*
G02*
X182025000Y-174400000I0J250000D01*
G01*
G37*
G36*
G01*
X177700000Y-174400000D02*
X177700000Y-171600000D01*
G75*
G02*
X177950000Y-171350000I250000J0D01*
G01*
X178925000Y-171350000D01*
G75*
G02*
X179175000Y-171600000I0J-250000D01*
G01*
X179175000Y-174400000D01*
G75*
G02*
X178925000Y-174650000I-250000J0D01*
G01*
X177950000Y-174650000D01*
G75*
G02*
X177700000Y-174400000I0J250000D01*
G01*
G37*
G36*
G01*
X182025000Y-154400000D02*
X182025000Y-151600000D01*
G75*
G02*
X182275000Y-151350000I250000J0D01*
G01*
X183250000Y-151350000D01*
G75*
G02*
X183500000Y-151600000I0J-250000D01*
G01*
X183500000Y-154400000D01*
G75*
G02*
X183250000Y-154650000I-250000J0D01*
G01*
X182275000Y-154650000D01*
G75*
G02*
X182025000Y-154400000I0J250000D01*
G01*
G37*
G36*
G01*
X177700000Y-154400000D02*
X177700000Y-151600000D01*
G75*
G02*
X177950000Y-151350000I250000J0D01*
G01*
X178925000Y-151350000D01*
G75*
G02*
X179175000Y-151600000I0J-250000D01*
G01*
X179175000Y-154400000D01*
G75*
G02*
X178925000Y-154650000I-250000J0D01*
G01*
X177950000Y-154650000D01*
G75*
G02*
X177700000Y-154400000I0J250000D01*
G01*
G37*
G36*
G01*
X188612500Y-130043750D02*
X188612500Y-130956250D01*
G75*
G02*
X188368750Y-131200000I-243750J0D01*
G01*
X187881250Y-131200000D01*
G75*
G02*
X187637500Y-130956250I0J243750D01*
G01*
X187637500Y-130043750D01*
G75*
G02*
X187881250Y-129800000I243750J0D01*
G01*
X188368750Y-129800000D01*
G75*
G02*
X188612500Y-130043750I0J-243750D01*
G01*
G37*
G36*
G01*
X190487500Y-130043750D02*
X190487500Y-130956250D01*
G75*
G02*
X190243750Y-131200000I-243750J0D01*
G01*
X189756250Y-131200000D01*
G75*
G02*
X189512500Y-130956250I0J243750D01*
G01*
X189512500Y-130043750D01*
G75*
G02*
X189756250Y-129800000I243750J0D01*
G01*
X190243750Y-129800000D01*
G75*
G02*
X190487500Y-130043750I0J-243750D01*
G01*
G37*
G36*
G01*
X188850000Y-105056250D02*
X188850000Y-104543750D01*
G75*
G02*
X189068750Y-104325000I218750J0D01*
G01*
X189506250Y-104325000D01*
G75*
G02*
X189725000Y-104543750I0J-218750D01*
G01*
X189725000Y-105056250D01*
G75*
G02*
X189506250Y-105275000I-218750J0D01*
G01*
X189068750Y-105275000D01*
G75*
G02*
X188850000Y-105056250I0J218750D01*
G01*
G37*
G36*
G01*
X187275000Y-105056250D02*
X187275000Y-104543750D01*
G75*
G02*
X187493750Y-104325000I218750J0D01*
G01*
X187931250Y-104325000D01*
G75*
G02*
X188150000Y-104543750I0J-218750D01*
G01*
X188150000Y-105056250D01*
G75*
G02*
X187931250Y-105275000I-218750J0D01*
G01*
X187493750Y-105275000D01*
G75*
G02*
X187275000Y-105056250I0J218750D01*
G01*
G37*
G36*
G01*
X190625000Y-120975000D02*
X189375000Y-120975000D01*
G75*
G02*
X189125000Y-120725000I0J250000D01*
G01*
X189125000Y-119975000D01*
G75*
G02*
X189375000Y-119725000I250000J0D01*
G01*
X190625000Y-119725000D01*
G75*
G02*
X190875000Y-119975000I0J-250000D01*
G01*
X190875000Y-120725000D01*
G75*
G02*
X190625000Y-120975000I-250000J0D01*
G01*
G37*
G36*
G01*
X190625000Y-123775000D02*
X189375000Y-123775000D01*
G75*
G02*
X189125000Y-123525000I0J250000D01*
G01*
X189125000Y-122775000D01*
G75*
G02*
X189375000Y-122525000I250000J0D01*
G01*
X190625000Y-122525000D01*
G75*
G02*
X190875000Y-122775000I0J-250000D01*
G01*
X190875000Y-123525000D01*
G75*
G02*
X190625000Y-123775000I-250000J0D01*
G01*
G37*
G36*
G01*
X187825000Y-113986250D02*
X186575000Y-113986250D01*
G75*
G02*
X186325000Y-113736250I0J250000D01*
G01*
X186325000Y-112986250D01*
G75*
G02*
X186575000Y-112736250I250000J0D01*
G01*
X187825000Y-112736250D01*
G75*
G02*
X188075000Y-112986250I0J-250000D01*
G01*
X188075000Y-113736250D01*
G75*
G02*
X187825000Y-113986250I-250000J0D01*
G01*
G37*
G36*
G01*
X187825000Y-116786250D02*
X186575000Y-116786250D01*
G75*
G02*
X186325000Y-116536250I0J250000D01*
G01*
X186325000Y-115786250D01*
G75*
G02*
X186575000Y-115536250I250000J0D01*
G01*
X187825000Y-115536250D01*
G75*
G02*
X188075000Y-115786250I0J-250000D01*
G01*
X188075000Y-116536250D01*
G75*
G02*
X187825000Y-116786250I-250000J0D01*
G01*
G37*
G36*
G01*
X188085000Y-120975000D02*
X186835000Y-120975000D01*
G75*
G02*
X186585000Y-120725000I0J250000D01*
G01*
X186585000Y-119975000D01*
G75*
G02*
X186835000Y-119725000I250000J0D01*
G01*
X188085000Y-119725000D01*
G75*
G02*
X188335000Y-119975000I0J-250000D01*
G01*
X188335000Y-120725000D01*
G75*
G02*
X188085000Y-120975000I-250000J0D01*
G01*
G37*
G36*
G01*
X188085000Y-123775000D02*
X186835000Y-123775000D01*
G75*
G02*
X186585000Y-123525000I0J250000D01*
G01*
X186585000Y-122775000D01*
G75*
G02*
X186835000Y-122525000I250000J0D01*
G01*
X188085000Y-122525000D01*
G75*
G02*
X188335000Y-122775000I0J-250000D01*
G01*
X188335000Y-123525000D01*
G75*
G02*
X188085000Y-123775000I-250000J0D01*
G01*
G37*
G36*
G01*
X190365000Y-113980250D02*
X189115000Y-113980250D01*
G75*
G02*
X188865000Y-113730250I0J250000D01*
G01*
X188865000Y-112980250D01*
G75*
G02*
X189115000Y-112730250I250000J0D01*
G01*
X190365000Y-112730250D01*
G75*
G02*
X190615000Y-112980250I0J-250000D01*
G01*
X190615000Y-113730250D01*
G75*
G02*
X190365000Y-113980250I-250000J0D01*
G01*
G37*
G36*
G01*
X190365000Y-116780250D02*
X189115000Y-116780250D01*
G75*
G02*
X188865000Y-116530250I0J250000D01*
G01*
X188865000Y-115780250D01*
G75*
G02*
X189115000Y-115530250I250000J0D01*
G01*
X190365000Y-115530250D01*
G75*
G02*
X190615000Y-115780250I0J-250000D01*
G01*
X190615000Y-116530250D01*
G75*
G02*
X190365000Y-116780250I-250000J0D01*
G01*
G37*
M02*
