G04 #@! TF.GenerationSoftware,KiCad,Pcbnew,5.99.0-unknown-1463dd1~101~ubuntu20.04.1*
G04 #@! TF.CreationDate,2020-07-08T00:09:36-04:00*
G04 #@! TF.ProjectId,goldhat,676f6c64-6861-4742-9e6b-696361645f70,rev?*
G04 #@! TF.SameCoordinates,Original*
G04 #@! TF.FileFunction,Soldermask,Bot*
G04 #@! TF.FilePolarity,Negative*
%FSLAX46Y46*%
G04 Gerber Fmt 4.6, Leading zero omitted, Abs format (unit mm)*
G04 Created by KiCad (PCBNEW 5.99.0-unknown-1463dd1~101~ubuntu20.04.1) date 2020-07-08 00:09:36*
%MOMM*%
%LPD*%
G01*
G04 APERTURE LIST*
%ADD10C,3.102000*%
%ADD11O,1.802000X1.802000*%
%ADD12C,3.150000*%
%ADD13C,1.802000*%
%ADD14C,2.802000*%
%ADD15O,1.802000X1.452000*%
%ADD16O,1.602000X1.202000*%
G04 APERTURE END LIST*
D10*
X195750000Y-113445250D03*
G36*
G01*
X197248266Y-130236250D02*
X194251734Y-130236250D01*
G75*
G02*
X194199000Y-130183516I0J52734D01*
G01*
X194199000Y-127186984D01*
G75*
G02*
X194251734Y-127134250I52734J0D01*
G01*
X197248266Y-127134250D01*
G75*
G02*
X197301000Y-127186984I0J-52734D01*
G01*
X197301000Y-130183516D01*
G75*
G02*
X197248266Y-130236250I-52734J0D01*
G01*
G37*
X195750000Y-118525250D03*
X195750000Y-123605250D03*
D11*
X164575000Y-124025000D03*
G36*
G01*
X163674000Y-122331940D02*
X163674000Y-120638060D01*
G75*
G02*
X163728060Y-120584000I54060J0D01*
G01*
X165421940Y-120584000D01*
G75*
G02*
X165476000Y-120638060I0J-54060D01*
G01*
X165476000Y-122331940D01*
G75*
G02*
X165421940Y-122386000I-54060J0D01*
G01*
X163728060Y-122386000D01*
G75*
G02*
X163674000Y-122331940I0J54060D01*
G01*
G37*
G36*
G01*
X113589000Y-154201940D02*
X113589000Y-152508060D01*
G75*
G02*
X113643060Y-152454000I54060J0D01*
G01*
X115336940Y-152454000D01*
G75*
G02*
X115391000Y-152508060I0J-54060D01*
G01*
X115391000Y-154201940D01*
G75*
G02*
X115336940Y-154256000I-54060J0D01*
G01*
X113643060Y-154256000D01*
G75*
G02*
X113589000Y-154201940I0J54060D01*
G01*
G37*
X114490000Y-160975000D03*
D12*
X115760000Y-148910000D03*
X131000000Y-170500000D03*
X115760000Y-170500000D03*
X131000000Y-148910000D03*
D13*
X132270000Y-155895000D03*
X132270000Y-158435000D03*
X132270000Y-160975000D03*
X132270000Y-163515000D03*
X114490000Y-166055000D03*
X114490000Y-163515000D03*
X114490000Y-160975000D03*
X114490000Y-158435000D03*
X114490000Y-155895000D03*
G36*
G01*
X171149000Y-158914798D02*
X171149000Y-157925202D01*
G75*
G02*
X171205202Y-157869000I56202J0D01*
G01*
X173704798Y-157869000D01*
G75*
G02*
X173761000Y-157925202I0J-56202D01*
G01*
X173761000Y-158914798D01*
G75*
G02*
X173704798Y-158971000I-56202J0D01*
G01*
X171205202Y-158971000D01*
G75*
G02*
X171149000Y-158914798I0J56202D01*
G01*
G37*
G36*
G01*
X171149000Y-163994798D02*
X171149000Y-163005202D01*
G75*
G02*
X171205202Y-162949000I56202J0D01*
G01*
X173704798Y-162949000D01*
G75*
G02*
X173761000Y-163005202I0J-56202D01*
G01*
X173761000Y-163994798D01*
G75*
G02*
X173704798Y-164051000I-56202J0D01*
G01*
X171205202Y-164051000D01*
G75*
G02*
X171149000Y-163994798I0J56202D01*
G01*
G37*
G36*
G01*
X171149000Y-169074798D02*
X171149000Y-168085202D01*
G75*
G02*
X171205202Y-168029000I56202J0D01*
G01*
X173704798Y-168029000D01*
G75*
G02*
X173761000Y-168085202I0J-56202D01*
G01*
X173761000Y-169074798D01*
G75*
G02*
X173704798Y-169131000I-56202J0D01*
G01*
X171205202Y-169131000D01*
G75*
G02*
X171149000Y-169074798I0J56202D01*
G01*
G37*
G36*
G01*
X171149000Y-174154798D02*
X171149000Y-173165202D01*
G75*
G02*
X171205202Y-173109000I56202J0D01*
G01*
X173704798Y-173109000D01*
G75*
G02*
X173761000Y-173165202I0J-56202D01*
G01*
X173761000Y-174154798D01*
G75*
G02*
X173704798Y-174211000I-56202J0D01*
G01*
X171205202Y-174211000D01*
G75*
G02*
X171149000Y-174154798I0J56202D01*
G01*
G37*
G36*
G01*
X167839000Y-156374798D02*
X167839000Y-155385202D01*
G75*
G02*
X167895202Y-155329000I56202J0D01*
G01*
X170394798Y-155329000D01*
G75*
G02*
X170451000Y-155385202I0J-56202D01*
G01*
X170451000Y-156374798D01*
G75*
G02*
X170394798Y-156431000I-56202J0D01*
G01*
X167895202Y-156431000D01*
G75*
G02*
X167839000Y-156374798I0J56202D01*
G01*
G37*
G36*
G01*
X167839000Y-161454798D02*
X167839000Y-160465202D01*
G75*
G02*
X167895202Y-160409000I56202J0D01*
G01*
X170394798Y-160409000D01*
G75*
G02*
X170451000Y-160465202I0J-56202D01*
G01*
X170451000Y-161454798D01*
G75*
G02*
X170394798Y-161511000I-56202J0D01*
G01*
X167895202Y-161511000D01*
G75*
G02*
X167839000Y-161454798I0J56202D01*
G01*
G37*
G36*
G01*
X167839000Y-166534798D02*
X167839000Y-165545202D01*
G75*
G02*
X167895202Y-165489000I56202J0D01*
G01*
X170394798Y-165489000D01*
G75*
G02*
X170451000Y-165545202I0J-56202D01*
G01*
X170451000Y-166534798D01*
G75*
G02*
X170394798Y-166591000I-56202J0D01*
G01*
X167895202Y-166591000D01*
G75*
G02*
X167839000Y-166534798I0J56202D01*
G01*
G37*
G36*
G01*
X167839000Y-171614798D02*
X167839000Y-170625202D01*
G75*
G02*
X167895202Y-170569000I56202J0D01*
G01*
X170394798Y-170569000D01*
G75*
G02*
X170451000Y-170625202I0J-56202D01*
G01*
X170451000Y-171614798D01*
G75*
G02*
X170394798Y-171671000I-56202J0D01*
G01*
X167895202Y-171671000D01*
G75*
G02*
X167839000Y-171614798I0J56202D01*
G01*
G37*
D14*
X195000000Y-104000000D03*
X195000000Y-150000000D03*
X105000000Y-162000000D03*
X105000000Y-104000000D03*
G36*
G01*
X171149000Y-113194798D02*
X171149000Y-112205202D01*
G75*
G02*
X171205202Y-112149000I56202J0D01*
G01*
X173704798Y-112149000D01*
G75*
G02*
X173761000Y-112205202I0J-56202D01*
G01*
X173761000Y-113194798D01*
G75*
G02*
X173704798Y-113251000I-56202J0D01*
G01*
X171205202Y-113251000D01*
G75*
G02*
X171149000Y-113194798I0J56202D01*
G01*
G37*
G36*
G01*
X171149000Y-118274798D02*
X171149000Y-117285202D01*
G75*
G02*
X171205202Y-117229000I56202J0D01*
G01*
X173704798Y-117229000D01*
G75*
G02*
X173761000Y-117285202I0J-56202D01*
G01*
X173761000Y-118274798D01*
G75*
G02*
X173704798Y-118331000I-56202J0D01*
G01*
X171205202Y-118331000D01*
G75*
G02*
X171149000Y-118274798I0J56202D01*
G01*
G37*
G36*
G01*
X171149000Y-123354798D02*
X171149000Y-122365202D01*
G75*
G02*
X171205202Y-122309000I56202J0D01*
G01*
X173704798Y-122309000D01*
G75*
G02*
X173761000Y-122365202I0J-56202D01*
G01*
X173761000Y-123354798D01*
G75*
G02*
X173704798Y-123411000I-56202J0D01*
G01*
X171205202Y-123411000D01*
G75*
G02*
X171149000Y-123354798I0J56202D01*
G01*
G37*
G36*
G01*
X171149000Y-128434798D02*
X171149000Y-127445202D01*
G75*
G02*
X171205202Y-127389000I56202J0D01*
G01*
X173704798Y-127389000D01*
G75*
G02*
X173761000Y-127445202I0J-56202D01*
G01*
X173761000Y-128434798D01*
G75*
G02*
X173704798Y-128491000I-56202J0D01*
G01*
X171205202Y-128491000D01*
G75*
G02*
X171149000Y-128434798I0J56202D01*
G01*
G37*
G36*
G01*
X167839000Y-110654798D02*
X167839000Y-109665202D01*
G75*
G02*
X167895202Y-109609000I56202J0D01*
G01*
X170394798Y-109609000D01*
G75*
G02*
X170451000Y-109665202I0J-56202D01*
G01*
X170451000Y-110654798D01*
G75*
G02*
X170394798Y-110711000I-56202J0D01*
G01*
X167895202Y-110711000D01*
G75*
G02*
X167839000Y-110654798I0J56202D01*
G01*
G37*
G36*
G01*
X167839000Y-115734798D02*
X167839000Y-114745202D01*
G75*
G02*
X167895202Y-114689000I56202J0D01*
G01*
X170394798Y-114689000D01*
G75*
G02*
X170451000Y-114745202I0J-56202D01*
G01*
X170451000Y-115734798D01*
G75*
G02*
X170394798Y-115791000I-56202J0D01*
G01*
X167895202Y-115791000D01*
G75*
G02*
X167839000Y-115734798I0J56202D01*
G01*
G37*
G36*
G01*
X167839000Y-120814798D02*
X167839000Y-119825202D01*
G75*
G02*
X167895202Y-119769000I56202J0D01*
G01*
X170394798Y-119769000D01*
G75*
G02*
X170451000Y-119825202I0J-56202D01*
G01*
X170451000Y-120814798D01*
G75*
G02*
X170394798Y-120871000I-56202J0D01*
G01*
X167895202Y-120871000D01*
G75*
G02*
X167839000Y-120814798I0J56202D01*
G01*
G37*
G36*
G01*
X167839000Y-125894798D02*
X167839000Y-124905202D01*
G75*
G02*
X167895202Y-124849000I56202J0D01*
G01*
X170394798Y-124849000D01*
G75*
G02*
X170451000Y-124905202I0J-56202D01*
G01*
X170451000Y-125894798D01*
G75*
G02*
X170394798Y-125951000I-56202J0D01*
G01*
X167895202Y-125951000D01*
G75*
G02*
X167839000Y-125894798I0J56202D01*
G01*
G37*
G36*
G01*
X165225202Y-107249000D02*
X166214798Y-107249000D01*
G75*
G02*
X166271000Y-107305202I0J-56202D01*
G01*
X166271000Y-110444798D01*
G75*
G02*
X166214798Y-110501000I-56202J0D01*
G01*
X165225202Y-110501000D01*
G75*
G02*
X165169000Y-110444798I0J56202D01*
G01*
X165169000Y-107305202D01*
G75*
G02*
X165225202Y-107249000I56202J0D01*
G01*
G37*
G36*
G01*
X165225202Y-102199000D02*
X166214798Y-102199000D01*
G75*
G02*
X166271000Y-102255202I0J-56202D01*
G01*
X166271000Y-105394798D01*
G75*
G02*
X166214798Y-105451000I-56202J0D01*
G01*
X165225202Y-105451000D01*
G75*
G02*
X165169000Y-105394798I0J56202D01*
G01*
X165169000Y-102255202D01*
G75*
G02*
X165225202Y-102199000I56202J0D01*
G01*
G37*
G36*
G01*
X162685202Y-107249000D02*
X163674798Y-107249000D01*
G75*
G02*
X163731000Y-107305202I0J-56202D01*
G01*
X163731000Y-110444798D01*
G75*
G02*
X163674798Y-110501000I-56202J0D01*
G01*
X162685202Y-110501000D01*
G75*
G02*
X162629000Y-110444798I0J56202D01*
G01*
X162629000Y-107305202D01*
G75*
G02*
X162685202Y-107249000I56202J0D01*
G01*
G37*
G36*
G01*
X162685202Y-102199000D02*
X163674798Y-102199000D01*
G75*
G02*
X163731000Y-102255202I0J-56202D01*
G01*
X163731000Y-105394798D01*
G75*
G02*
X163674798Y-105451000I-56202J0D01*
G01*
X162685202Y-105451000D01*
G75*
G02*
X162629000Y-105394798I0J56202D01*
G01*
X162629000Y-102255202D01*
G75*
G02*
X162685202Y-102199000I56202J0D01*
G01*
G37*
G36*
G01*
X160145202Y-107249000D02*
X161134798Y-107249000D01*
G75*
G02*
X161191000Y-107305202I0J-56202D01*
G01*
X161191000Y-110444798D01*
G75*
G02*
X161134798Y-110501000I-56202J0D01*
G01*
X160145202Y-110501000D01*
G75*
G02*
X160089000Y-110444798I0J56202D01*
G01*
X160089000Y-107305202D01*
G75*
G02*
X160145202Y-107249000I56202J0D01*
G01*
G37*
G36*
G01*
X160145202Y-102199000D02*
X161134798Y-102199000D01*
G75*
G02*
X161191000Y-102255202I0J-56202D01*
G01*
X161191000Y-105394798D01*
G75*
G02*
X161134798Y-105451000I-56202J0D01*
G01*
X160145202Y-105451000D01*
G75*
G02*
X160089000Y-105394798I0J56202D01*
G01*
X160089000Y-102255202D01*
G75*
G02*
X160145202Y-102199000I56202J0D01*
G01*
G37*
G36*
G01*
X157605202Y-107249000D02*
X158594798Y-107249000D01*
G75*
G02*
X158651000Y-107305202I0J-56202D01*
G01*
X158651000Y-110444798D01*
G75*
G02*
X158594798Y-110501000I-56202J0D01*
G01*
X157605202Y-110501000D01*
G75*
G02*
X157549000Y-110444798I0J56202D01*
G01*
X157549000Y-107305202D01*
G75*
G02*
X157605202Y-107249000I56202J0D01*
G01*
G37*
G36*
G01*
X157605202Y-102199000D02*
X158594798Y-102199000D01*
G75*
G02*
X158651000Y-102255202I0J-56202D01*
G01*
X158651000Y-105394798D01*
G75*
G02*
X158594798Y-105451000I-56202J0D01*
G01*
X157605202Y-105451000D01*
G75*
G02*
X157549000Y-105394798I0J56202D01*
G01*
X157549000Y-102255202D01*
G75*
G02*
X157605202Y-102199000I56202J0D01*
G01*
G37*
G36*
G01*
X155065202Y-107249000D02*
X156054798Y-107249000D01*
G75*
G02*
X156111000Y-107305202I0J-56202D01*
G01*
X156111000Y-110444798D01*
G75*
G02*
X156054798Y-110501000I-56202J0D01*
G01*
X155065202Y-110501000D01*
G75*
G02*
X155009000Y-110444798I0J56202D01*
G01*
X155009000Y-107305202D01*
G75*
G02*
X155065202Y-107249000I56202J0D01*
G01*
G37*
G36*
G01*
X155065202Y-102199000D02*
X156054798Y-102199000D01*
G75*
G02*
X156111000Y-102255202I0J-56202D01*
G01*
X156111000Y-105394798D01*
G75*
G02*
X156054798Y-105451000I-56202J0D01*
G01*
X155065202Y-105451000D01*
G75*
G02*
X155009000Y-105394798I0J56202D01*
G01*
X155009000Y-102255202D01*
G75*
G02*
X155065202Y-102199000I56202J0D01*
G01*
G37*
G36*
G01*
X152525202Y-107249000D02*
X153514798Y-107249000D01*
G75*
G02*
X153571000Y-107305202I0J-56202D01*
G01*
X153571000Y-110444798D01*
G75*
G02*
X153514798Y-110501000I-56202J0D01*
G01*
X152525202Y-110501000D01*
G75*
G02*
X152469000Y-110444798I0J56202D01*
G01*
X152469000Y-107305202D01*
G75*
G02*
X152525202Y-107249000I56202J0D01*
G01*
G37*
G36*
G01*
X152525202Y-102199000D02*
X153514798Y-102199000D01*
G75*
G02*
X153571000Y-102255202I0J-56202D01*
G01*
X153571000Y-105394798D01*
G75*
G02*
X153514798Y-105451000I-56202J0D01*
G01*
X152525202Y-105451000D01*
G75*
G02*
X152469000Y-105394798I0J56202D01*
G01*
X152469000Y-102255202D01*
G75*
G02*
X152525202Y-102199000I56202J0D01*
G01*
G37*
G36*
G01*
X149985202Y-107249000D02*
X150974798Y-107249000D01*
G75*
G02*
X151031000Y-107305202I0J-56202D01*
G01*
X151031000Y-110444798D01*
G75*
G02*
X150974798Y-110501000I-56202J0D01*
G01*
X149985202Y-110501000D01*
G75*
G02*
X149929000Y-110444798I0J56202D01*
G01*
X149929000Y-107305202D01*
G75*
G02*
X149985202Y-107249000I56202J0D01*
G01*
G37*
G36*
G01*
X149985202Y-102199000D02*
X150974798Y-102199000D01*
G75*
G02*
X151031000Y-102255202I0J-56202D01*
G01*
X151031000Y-105394798D01*
G75*
G02*
X150974798Y-105451000I-56202J0D01*
G01*
X149985202Y-105451000D01*
G75*
G02*
X149929000Y-105394798I0J56202D01*
G01*
X149929000Y-102255202D01*
G75*
G02*
X149985202Y-102199000I56202J0D01*
G01*
G37*
G36*
G01*
X147445202Y-107249000D02*
X148434798Y-107249000D01*
G75*
G02*
X148491000Y-107305202I0J-56202D01*
G01*
X148491000Y-110444798D01*
G75*
G02*
X148434798Y-110501000I-56202J0D01*
G01*
X147445202Y-110501000D01*
G75*
G02*
X147389000Y-110444798I0J56202D01*
G01*
X147389000Y-107305202D01*
G75*
G02*
X147445202Y-107249000I56202J0D01*
G01*
G37*
G36*
G01*
X147445202Y-102199000D02*
X148434798Y-102199000D01*
G75*
G02*
X148491000Y-102255202I0J-56202D01*
G01*
X148491000Y-105394798D01*
G75*
G02*
X148434798Y-105451000I-56202J0D01*
G01*
X147445202Y-105451000D01*
G75*
G02*
X147389000Y-105394798I0J56202D01*
G01*
X147389000Y-102255202D01*
G75*
G02*
X147445202Y-102199000I56202J0D01*
G01*
G37*
G36*
G01*
X144905202Y-107249000D02*
X145894798Y-107249000D01*
G75*
G02*
X145951000Y-107305202I0J-56202D01*
G01*
X145951000Y-110444798D01*
G75*
G02*
X145894798Y-110501000I-56202J0D01*
G01*
X144905202Y-110501000D01*
G75*
G02*
X144849000Y-110444798I0J56202D01*
G01*
X144849000Y-107305202D01*
G75*
G02*
X144905202Y-107249000I56202J0D01*
G01*
G37*
G36*
G01*
X144905202Y-102199000D02*
X145894798Y-102199000D01*
G75*
G02*
X145951000Y-102255202I0J-56202D01*
G01*
X145951000Y-105394798D01*
G75*
G02*
X145894798Y-105451000I-56202J0D01*
G01*
X144905202Y-105451000D01*
G75*
G02*
X144849000Y-105394798I0J56202D01*
G01*
X144849000Y-102255202D01*
G75*
G02*
X144905202Y-102199000I56202J0D01*
G01*
G37*
G36*
G01*
X142365202Y-107249000D02*
X143354798Y-107249000D01*
G75*
G02*
X143411000Y-107305202I0J-56202D01*
G01*
X143411000Y-110444798D01*
G75*
G02*
X143354798Y-110501000I-56202J0D01*
G01*
X142365202Y-110501000D01*
G75*
G02*
X142309000Y-110444798I0J56202D01*
G01*
X142309000Y-107305202D01*
G75*
G02*
X142365202Y-107249000I56202J0D01*
G01*
G37*
G36*
G01*
X142365202Y-102199000D02*
X143354798Y-102199000D01*
G75*
G02*
X143411000Y-102255202I0J-56202D01*
G01*
X143411000Y-105394798D01*
G75*
G02*
X143354798Y-105451000I-56202J0D01*
G01*
X142365202Y-105451000D01*
G75*
G02*
X142309000Y-105394798I0J56202D01*
G01*
X142309000Y-102255202D01*
G75*
G02*
X142365202Y-102199000I56202J0D01*
G01*
G37*
G36*
G01*
X139825202Y-107249000D02*
X140814798Y-107249000D01*
G75*
G02*
X140871000Y-107305202I0J-56202D01*
G01*
X140871000Y-110444798D01*
G75*
G02*
X140814798Y-110501000I-56202J0D01*
G01*
X139825202Y-110501000D01*
G75*
G02*
X139769000Y-110444798I0J56202D01*
G01*
X139769000Y-107305202D01*
G75*
G02*
X139825202Y-107249000I56202J0D01*
G01*
G37*
G36*
G01*
X139825202Y-102199000D02*
X140814798Y-102199000D01*
G75*
G02*
X140871000Y-102255202I0J-56202D01*
G01*
X140871000Y-105394798D01*
G75*
G02*
X140814798Y-105451000I-56202J0D01*
G01*
X139825202Y-105451000D01*
G75*
G02*
X139769000Y-105394798I0J56202D01*
G01*
X139769000Y-102255202D01*
G75*
G02*
X139825202Y-102199000I56202J0D01*
G01*
G37*
G36*
G01*
X137285202Y-107249000D02*
X138274798Y-107249000D01*
G75*
G02*
X138331000Y-107305202I0J-56202D01*
G01*
X138331000Y-110444798D01*
G75*
G02*
X138274798Y-110501000I-56202J0D01*
G01*
X137285202Y-110501000D01*
G75*
G02*
X137229000Y-110444798I0J56202D01*
G01*
X137229000Y-107305202D01*
G75*
G02*
X137285202Y-107249000I56202J0D01*
G01*
G37*
G36*
G01*
X137285202Y-102199000D02*
X138274798Y-102199000D01*
G75*
G02*
X138331000Y-102255202I0J-56202D01*
G01*
X138331000Y-105394798D01*
G75*
G02*
X138274798Y-105451000I-56202J0D01*
G01*
X137285202Y-105451000D01*
G75*
G02*
X137229000Y-105394798I0J56202D01*
G01*
X137229000Y-102255202D01*
G75*
G02*
X137285202Y-102199000I56202J0D01*
G01*
G37*
G36*
G01*
X134745202Y-107249000D02*
X135734798Y-107249000D01*
G75*
G02*
X135791000Y-107305202I0J-56202D01*
G01*
X135791000Y-110444798D01*
G75*
G02*
X135734798Y-110501000I-56202J0D01*
G01*
X134745202Y-110501000D01*
G75*
G02*
X134689000Y-110444798I0J56202D01*
G01*
X134689000Y-107305202D01*
G75*
G02*
X134745202Y-107249000I56202J0D01*
G01*
G37*
G36*
G01*
X134745202Y-102199000D02*
X135734798Y-102199000D01*
G75*
G02*
X135791000Y-102255202I0J-56202D01*
G01*
X135791000Y-105394798D01*
G75*
G02*
X135734798Y-105451000I-56202J0D01*
G01*
X134745202Y-105451000D01*
G75*
G02*
X134689000Y-105394798I0J56202D01*
G01*
X134689000Y-102255202D01*
G75*
G02*
X134745202Y-102199000I56202J0D01*
G01*
G37*
G36*
G01*
X132205202Y-107249000D02*
X133194798Y-107249000D01*
G75*
G02*
X133251000Y-107305202I0J-56202D01*
G01*
X133251000Y-110444798D01*
G75*
G02*
X133194798Y-110501000I-56202J0D01*
G01*
X132205202Y-110501000D01*
G75*
G02*
X132149000Y-110444798I0J56202D01*
G01*
X132149000Y-107305202D01*
G75*
G02*
X132205202Y-107249000I56202J0D01*
G01*
G37*
G36*
G01*
X132205202Y-102199000D02*
X133194798Y-102199000D01*
G75*
G02*
X133251000Y-102255202I0J-56202D01*
G01*
X133251000Y-105394798D01*
G75*
G02*
X133194798Y-105451000I-56202J0D01*
G01*
X132205202Y-105451000D01*
G75*
G02*
X132149000Y-105394798I0J56202D01*
G01*
X132149000Y-102255202D01*
G75*
G02*
X132205202Y-102199000I56202J0D01*
G01*
G37*
G36*
G01*
X129665202Y-107249000D02*
X130654798Y-107249000D01*
G75*
G02*
X130711000Y-107305202I0J-56202D01*
G01*
X130711000Y-110444798D01*
G75*
G02*
X130654798Y-110501000I-56202J0D01*
G01*
X129665202Y-110501000D01*
G75*
G02*
X129609000Y-110444798I0J56202D01*
G01*
X129609000Y-107305202D01*
G75*
G02*
X129665202Y-107249000I56202J0D01*
G01*
G37*
G36*
G01*
X129665202Y-102199000D02*
X130654798Y-102199000D01*
G75*
G02*
X130711000Y-102255202I0J-56202D01*
G01*
X130711000Y-105394798D01*
G75*
G02*
X130654798Y-105451000I-56202J0D01*
G01*
X129665202Y-105451000D01*
G75*
G02*
X129609000Y-105394798I0J56202D01*
G01*
X129609000Y-102255202D01*
G75*
G02*
X129665202Y-102199000I56202J0D01*
G01*
G37*
G36*
G01*
X127125202Y-107249000D02*
X128114798Y-107249000D01*
G75*
G02*
X128171000Y-107305202I0J-56202D01*
G01*
X128171000Y-110444798D01*
G75*
G02*
X128114798Y-110501000I-56202J0D01*
G01*
X127125202Y-110501000D01*
G75*
G02*
X127069000Y-110444798I0J56202D01*
G01*
X127069000Y-107305202D01*
G75*
G02*
X127125202Y-107249000I56202J0D01*
G01*
G37*
G36*
G01*
X127125202Y-102199000D02*
X128114798Y-102199000D01*
G75*
G02*
X128171000Y-102255202I0J-56202D01*
G01*
X128171000Y-105394798D01*
G75*
G02*
X128114798Y-105451000I-56202J0D01*
G01*
X127125202Y-105451000D01*
G75*
G02*
X127069000Y-105394798I0J56202D01*
G01*
X127069000Y-102255202D01*
G75*
G02*
X127125202Y-102199000I56202J0D01*
G01*
G37*
G36*
G01*
X124585202Y-107249000D02*
X125574798Y-107249000D01*
G75*
G02*
X125631000Y-107305202I0J-56202D01*
G01*
X125631000Y-110444798D01*
G75*
G02*
X125574798Y-110501000I-56202J0D01*
G01*
X124585202Y-110501000D01*
G75*
G02*
X124529000Y-110444798I0J56202D01*
G01*
X124529000Y-107305202D01*
G75*
G02*
X124585202Y-107249000I56202J0D01*
G01*
G37*
G36*
G01*
X124585202Y-102199000D02*
X125574798Y-102199000D01*
G75*
G02*
X125631000Y-102255202I0J-56202D01*
G01*
X125631000Y-105394798D01*
G75*
G02*
X125574798Y-105451000I-56202J0D01*
G01*
X124585202Y-105451000D01*
G75*
G02*
X124529000Y-105394798I0J56202D01*
G01*
X124529000Y-102255202D01*
G75*
G02*
X124585202Y-102199000I56202J0D01*
G01*
G37*
G36*
G01*
X122045202Y-107249000D02*
X123034798Y-107249000D01*
G75*
G02*
X123091000Y-107305202I0J-56202D01*
G01*
X123091000Y-110444798D01*
G75*
G02*
X123034798Y-110501000I-56202J0D01*
G01*
X122045202Y-110501000D01*
G75*
G02*
X121989000Y-110444798I0J56202D01*
G01*
X121989000Y-107305202D01*
G75*
G02*
X122045202Y-107249000I56202J0D01*
G01*
G37*
G36*
G01*
X122045202Y-102199000D02*
X123034798Y-102199000D01*
G75*
G02*
X123091000Y-102255202I0J-56202D01*
G01*
X123091000Y-105394798D01*
G75*
G02*
X123034798Y-105451000I-56202J0D01*
G01*
X122045202Y-105451000D01*
G75*
G02*
X121989000Y-105394798I0J56202D01*
G01*
X121989000Y-102255202D01*
G75*
G02*
X122045202Y-102199000I56202J0D01*
G01*
G37*
G36*
G01*
X100929000Y-109364798D02*
X100929000Y-108375202D01*
G75*
G02*
X100985202Y-108319000I56202J0D01*
G01*
X103974798Y-108319000D01*
G75*
G02*
X104031000Y-108375202I0J-56202D01*
G01*
X104031000Y-109364798D01*
G75*
G02*
X103974798Y-109421000I-56202J0D01*
G01*
X100985202Y-109421000D01*
G75*
G02*
X100929000Y-109364798I0J56202D01*
G01*
G37*
G36*
G01*
X105969000Y-109364798D02*
X105969000Y-108375202D01*
G75*
G02*
X106025202Y-108319000I56202J0D01*
G01*
X109014798Y-108319000D01*
G75*
G02*
X109071000Y-108375202I0J-56202D01*
G01*
X109071000Y-109364798D01*
G75*
G02*
X109014798Y-109421000I-56202J0D01*
G01*
X106025202Y-109421000D01*
G75*
G02*
X105969000Y-109364798I0J56202D01*
G01*
G37*
G36*
G01*
X100929000Y-111904798D02*
X100929000Y-110915202D01*
G75*
G02*
X100985202Y-110859000I56202J0D01*
G01*
X103974798Y-110859000D01*
G75*
G02*
X104031000Y-110915202I0J-56202D01*
G01*
X104031000Y-111904798D01*
G75*
G02*
X103974798Y-111961000I-56202J0D01*
G01*
X100985202Y-111961000D01*
G75*
G02*
X100929000Y-111904798I0J56202D01*
G01*
G37*
G36*
G01*
X105969000Y-111904798D02*
X105969000Y-110915202D01*
G75*
G02*
X106025202Y-110859000I56202J0D01*
G01*
X109014798Y-110859000D01*
G75*
G02*
X109071000Y-110915202I0J-56202D01*
G01*
X109071000Y-111904798D01*
G75*
G02*
X109014798Y-111961000I-56202J0D01*
G01*
X106025202Y-111961000D01*
G75*
G02*
X105969000Y-111904798I0J56202D01*
G01*
G37*
G36*
G01*
X100929000Y-114444798D02*
X100929000Y-113455202D01*
G75*
G02*
X100985202Y-113399000I56202J0D01*
G01*
X103974798Y-113399000D01*
G75*
G02*
X104031000Y-113455202I0J-56202D01*
G01*
X104031000Y-114444798D01*
G75*
G02*
X103974798Y-114501000I-56202J0D01*
G01*
X100985202Y-114501000D01*
G75*
G02*
X100929000Y-114444798I0J56202D01*
G01*
G37*
G36*
G01*
X105969000Y-114444798D02*
X105969000Y-113455202D01*
G75*
G02*
X106025202Y-113399000I56202J0D01*
G01*
X109014798Y-113399000D01*
G75*
G02*
X109071000Y-113455202I0J-56202D01*
G01*
X109071000Y-114444798D01*
G75*
G02*
X109014798Y-114501000I-56202J0D01*
G01*
X106025202Y-114501000D01*
G75*
G02*
X105969000Y-114444798I0J56202D01*
G01*
G37*
G36*
G01*
X100929000Y-116984798D02*
X100929000Y-115995202D01*
G75*
G02*
X100985202Y-115939000I56202J0D01*
G01*
X103974798Y-115939000D01*
G75*
G02*
X104031000Y-115995202I0J-56202D01*
G01*
X104031000Y-116984798D01*
G75*
G02*
X103974798Y-117041000I-56202J0D01*
G01*
X100985202Y-117041000D01*
G75*
G02*
X100929000Y-116984798I0J56202D01*
G01*
G37*
G36*
G01*
X105969000Y-116984798D02*
X105969000Y-115995202D01*
G75*
G02*
X106025202Y-115939000I56202J0D01*
G01*
X109014798Y-115939000D01*
G75*
G02*
X109071000Y-115995202I0J-56202D01*
G01*
X109071000Y-116984798D01*
G75*
G02*
X109014798Y-117041000I-56202J0D01*
G01*
X106025202Y-117041000D01*
G75*
G02*
X105969000Y-116984798I0J56202D01*
G01*
G37*
G36*
G01*
X100929000Y-119524798D02*
X100929000Y-118535202D01*
G75*
G02*
X100985202Y-118479000I56202J0D01*
G01*
X103974798Y-118479000D01*
G75*
G02*
X104031000Y-118535202I0J-56202D01*
G01*
X104031000Y-119524798D01*
G75*
G02*
X103974798Y-119581000I-56202J0D01*
G01*
X100985202Y-119581000D01*
G75*
G02*
X100929000Y-119524798I0J56202D01*
G01*
G37*
G36*
G01*
X105969000Y-119524798D02*
X105969000Y-118535202D01*
G75*
G02*
X106025202Y-118479000I56202J0D01*
G01*
X109014798Y-118479000D01*
G75*
G02*
X109071000Y-118535202I0J-56202D01*
G01*
X109071000Y-119524798D01*
G75*
G02*
X109014798Y-119581000I-56202J0D01*
G01*
X106025202Y-119581000D01*
G75*
G02*
X105969000Y-119524798I0J56202D01*
G01*
G37*
G36*
G01*
X100929000Y-122064798D02*
X100929000Y-121075202D01*
G75*
G02*
X100985202Y-121019000I56202J0D01*
G01*
X103974798Y-121019000D01*
G75*
G02*
X104031000Y-121075202I0J-56202D01*
G01*
X104031000Y-122064798D01*
G75*
G02*
X103974798Y-122121000I-56202J0D01*
G01*
X100985202Y-122121000D01*
G75*
G02*
X100929000Y-122064798I0J56202D01*
G01*
G37*
G36*
G01*
X105969000Y-122064798D02*
X105969000Y-121075202D01*
G75*
G02*
X106025202Y-121019000I56202J0D01*
G01*
X109014798Y-121019000D01*
G75*
G02*
X109071000Y-121075202I0J-56202D01*
G01*
X109071000Y-122064798D01*
G75*
G02*
X109014798Y-122121000I-56202J0D01*
G01*
X106025202Y-122121000D01*
G75*
G02*
X105969000Y-122064798I0J56202D01*
G01*
G37*
G36*
G01*
X100929000Y-124604798D02*
X100929000Y-123615202D01*
G75*
G02*
X100985202Y-123559000I56202J0D01*
G01*
X103974798Y-123559000D01*
G75*
G02*
X104031000Y-123615202I0J-56202D01*
G01*
X104031000Y-124604798D01*
G75*
G02*
X103974798Y-124661000I-56202J0D01*
G01*
X100985202Y-124661000D01*
G75*
G02*
X100929000Y-124604798I0J56202D01*
G01*
G37*
G36*
G01*
X105969000Y-124604798D02*
X105969000Y-123615202D01*
G75*
G02*
X106025202Y-123559000I56202J0D01*
G01*
X109014798Y-123559000D01*
G75*
G02*
X109071000Y-123615202I0J-56202D01*
G01*
X109071000Y-124604798D01*
G75*
G02*
X109014798Y-124661000I-56202J0D01*
G01*
X106025202Y-124661000D01*
G75*
G02*
X105969000Y-124604798I0J56202D01*
G01*
G37*
G36*
G01*
X100929000Y-127144798D02*
X100929000Y-126155202D01*
G75*
G02*
X100985202Y-126099000I56202J0D01*
G01*
X103974798Y-126099000D01*
G75*
G02*
X104031000Y-126155202I0J-56202D01*
G01*
X104031000Y-127144798D01*
G75*
G02*
X103974798Y-127201000I-56202J0D01*
G01*
X100985202Y-127201000D01*
G75*
G02*
X100929000Y-127144798I0J56202D01*
G01*
G37*
G36*
G01*
X105969000Y-127144798D02*
X105969000Y-126155202D01*
G75*
G02*
X106025202Y-126099000I56202J0D01*
G01*
X109014798Y-126099000D01*
G75*
G02*
X109071000Y-126155202I0J-56202D01*
G01*
X109071000Y-127144798D01*
G75*
G02*
X109014798Y-127201000I-56202J0D01*
G01*
X106025202Y-127201000D01*
G75*
G02*
X105969000Y-127144798I0J56202D01*
G01*
G37*
G36*
G01*
X100929000Y-129684798D02*
X100929000Y-128695202D01*
G75*
G02*
X100985202Y-128639000I56202J0D01*
G01*
X103974798Y-128639000D01*
G75*
G02*
X104031000Y-128695202I0J-56202D01*
G01*
X104031000Y-129684798D01*
G75*
G02*
X103974798Y-129741000I-56202J0D01*
G01*
X100985202Y-129741000D01*
G75*
G02*
X100929000Y-129684798I0J56202D01*
G01*
G37*
G36*
G01*
X105969000Y-129684798D02*
X105969000Y-128695202D01*
G75*
G02*
X106025202Y-128639000I56202J0D01*
G01*
X109014798Y-128639000D01*
G75*
G02*
X109071000Y-128695202I0J-56202D01*
G01*
X109071000Y-129684798D01*
G75*
G02*
X109014798Y-129741000I-56202J0D01*
G01*
X106025202Y-129741000D01*
G75*
G02*
X105969000Y-129684798I0J56202D01*
G01*
G37*
G36*
G01*
X100929000Y-132224798D02*
X100929000Y-131235202D01*
G75*
G02*
X100985202Y-131179000I56202J0D01*
G01*
X103974798Y-131179000D01*
G75*
G02*
X104031000Y-131235202I0J-56202D01*
G01*
X104031000Y-132224798D01*
G75*
G02*
X103974798Y-132281000I-56202J0D01*
G01*
X100985202Y-132281000D01*
G75*
G02*
X100929000Y-132224798I0J56202D01*
G01*
G37*
G36*
G01*
X105969000Y-132224798D02*
X105969000Y-131235202D01*
G75*
G02*
X106025202Y-131179000I56202J0D01*
G01*
X109014798Y-131179000D01*
G75*
G02*
X109071000Y-131235202I0J-56202D01*
G01*
X109071000Y-132224798D01*
G75*
G02*
X109014798Y-132281000I-56202J0D01*
G01*
X106025202Y-132281000D01*
G75*
G02*
X105969000Y-132224798I0J56202D01*
G01*
G37*
G36*
G01*
X100929000Y-134764798D02*
X100929000Y-133775202D01*
G75*
G02*
X100985202Y-133719000I56202J0D01*
G01*
X103974798Y-133719000D01*
G75*
G02*
X104031000Y-133775202I0J-56202D01*
G01*
X104031000Y-134764798D01*
G75*
G02*
X103974798Y-134821000I-56202J0D01*
G01*
X100985202Y-134821000D01*
G75*
G02*
X100929000Y-134764798I0J56202D01*
G01*
G37*
G36*
G01*
X105969000Y-134764798D02*
X105969000Y-133775202D01*
G75*
G02*
X106025202Y-133719000I56202J0D01*
G01*
X109014798Y-133719000D01*
G75*
G02*
X109071000Y-133775202I0J-56202D01*
G01*
X109071000Y-134764798D01*
G75*
G02*
X109014798Y-134821000I-56202J0D01*
G01*
X106025202Y-134821000D01*
G75*
G02*
X105969000Y-134764798I0J56202D01*
G01*
G37*
G36*
G01*
X100929000Y-137304798D02*
X100929000Y-136315202D01*
G75*
G02*
X100985202Y-136259000I56202J0D01*
G01*
X103974798Y-136259000D01*
G75*
G02*
X104031000Y-136315202I0J-56202D01*
G01*
X104031000Y-137304798D01*
G75*
G02*
X103974798Y-137361000I-56202J0D01*
G01*
X100985202Y-137361000D01*
G75*
G02*
X100929000Y-137304798I0J56202D01*
G01*
G37*
G36*
G01*
X105969000Y-137304798D02*
X105969000Y-136315202D01*
G75*
G02*
X106025202Y-136259000I56202J0D01*
G01*
X109014798Y-136259000D01*
G75*
G02*
X109071000Y-136315202I0J-56202D01*
G01*
X109071000Y-137304798D01*
G75*
G02*
X109014798Y-137361000I-56202J0D01*
G01*
X106025202Y-137361000D01*
G75*
G02*
X105969000Y-137304798I0J56202D01*
G01*
G37*
G36*
G01*
X100929000Y-139844798D02*
X100929000Y-138855202D01*
G75*
G02*
X100985202Y-138799000I56202J0D01*
G01*
X103974798Y-138799000D01*
G75*
G02*
X104031000Y-138855202I0J-56202D01*
G01*
X104031000Y-139844798D01*
G75*
G02*
X103974798Y-139901000I-56202J0D01*
G01*
X100985202Y-139901000D01*
G75*
G02*
X100929000Y-139844798I0J56202D01*
G01*
G37*
G36*
G01*
X105969000Y-139844798D02*
X105969000Y-138855202D01*
G75*
G02*
X106025202Y-138799000I56202J0D01*
G01*
X109014798Y-138799000D01*
G75*
G02*
X109071000Y-138855202I0J-56202D01*
G01*
X109071000Y-139844798D01*
G75*
G02*
X109014798Y-139901000I-56202J0D01*
G01*
X106025202Y-139901000D01*
G75*
G02*
X105969000Y-139844798I0J56202D01*
G01*
G37*
G36*
G01*
X100929000Y-142384798D02*
X100929000Y-141395202D01*
G75*
G02*
X100985202Y-141339000I56202J0D01*
G01*
X103974798Y-141339000D01*
G75*
G02*
X104031000Y-141395202I0J-56202D01*
G01*
X104031000Y-142384798D01*
G75*
G02*
X103974798Y-142441000I-56202J0D01*
G01*
X100985202Y-142441000D01*
G75*
G02*
X100929000Y-142384798I0J56202D01*
G01*
G37*
G36*
G01*
X105969000Y-142384798D02*
X105969000Y-141395202D01*
G75*
G02*
X106025202Y-141339000I56202J0D01*
G01*
X109014798Y-141339000D01*
G75*
G02*
X109071000Y-141395202I0J-56202D01*
G01*
X109071000Y-142384798D01*
G75*
G02*
X109014798Y-142441000I-56202J0D01*
G01*
X106025202Y-142441000D01*
G75*
G02*
X105969000Y-142384798I0J56202D01*
G01*
G37*
G36*
G01*
X100929000Y-144924798D02*
X100929000Y-143935202D01*
G75*
G02*
X100985202Y-143879000I56202J0D01*
G01*
X103974798Y-143879000D01*
G75*
G02*
X104031000Y-143935202I0J-56202D01*
G01*
X104031000Y-144924798D01*
G75*
G02*
X103974798Y-144981000I-56202J0D01*
G01*
X100985202Y-144981000D01*
G75*
G02*
X100929000Y-144924798I0J56202D01*
G01*
G37*
G36*
G01*
X105969000Y-144924798D02*
X105969000Y-143935202D01*
G75*
G02*
X106025202Y-143879000I56202J0D01*
G01*
X109014798Y-143879000D01*
G75*
G02*
X109071000Y-143935202I0J-56202D01*
G01*
X109071000Y-144924798D01*
G75*
G02*
X109014798Y-144981000I-56202J0D01*
G01*
X106025202Y-144981000D01*
G75*
G02*
X105969000Y-144924798I0J56202D01*
G01*
G37*
G36*
G01*
X100929000Y-147464798D02*
X100929000Y-146475202D01*
G75*
G02*
X100985202Y-146419000I56202J0D01*
G01*
X103974798Y-146419000D01*
G75*
G02*
X104031000Y-146475202I0J-56202D01*
G01*
X104031000Y-147464798D01*
G75*
G02*
X103974798Y-147521000I-56202J0D01*
G01*
X100985202Y-147521000D01*
G75*
G02*
X100929000Y-147464798I0J56202D01*
G01*
G37*
G36*
G01*
X105969000Y-147464798D02*
X105969000Y-146475202D01*
G75*
G02*
X106025202Y-146419000I56202J0D01*
G01*
X109014798Y-146419000D01*
G75*
G02*
X109071000Y-146475202I0J-56202D01*
G01*
X109071000Y-147464798D01*
G75*
G02*
X109014798Y-147521000I-56202J0D01*
G01*
X106025202Y-147521000D01*
G75*
G02*
X105969000Y-147464798I0J56202D01*
G01*
G37*
G36*
G01*
X100929000Y-150004798D02*
X100929000Y-149015202D01*
G75*
G02*
X100985202Y-148959000I56202J0D01*
G01*
X103974798Y-148959000D01*
G75*
G02*
X104031000Y-149015202I0J-56202D01*
G01*
X104031000Y-150004798D01*
G75*
G02*
X103974798Y-150061000I-56202J0D01*
G01*
X100985202Y-150061000D01*
G75*
G02*
X100929000Y-150004798I0J56202D01*
G01*
G37*
G36*
G01*
X105969000Y-150004798D02*
X105969000Y-149015202D01*
G75*
G02*
X106025202Y-148959000I56202J0D01*
G01*
X109014798Y-148959000D01*
G75*
G02*
X109071000Y-149015202I0J-56202D01*
G01*
X109071000Y-150004798D01*
G75*
G02*
X109014798Y-150061000I-56202J0D01*
G01*
X106025202Y-150061000D01*
G75*
G02*
X105969000Y-150004798I0J56202D01*
G01*
G37*
G36*
G01*
X100929000Y-152544798D02*
X100929000Y-151555202D01*
G75*
G02*
X100985202Y-151499000I56202J0D01*
G01*
X103974798Y-151499000D01*
G75*
G02*
X104031000Y-151555202I0J-56202D01*
G01*
X104031000Y-152544798D01*
G75*
G02*
X103974798Y-152601000I-56202J0D01*
G01*
X100985202Y-152601000D01*
G75*
G02*
X100929000Y-152544798I0J56202D01*
G01*
G37*
G36*
G01*
X105969000Y-152544798D02*
X105969000Y-151555202D01*
G75*
G02*
X106025202Y-151499000I56202J0D01*
G01*
X109014798Y-151499000D01*
G75*
G02*
X109071000Y-151555202I0J-56202D01*
G01*
X109071000Y-152544798D01*
G75*
G02*
X109014798Y-152601000I-56202J0D01*
G01*
X106025202Y-152601000D01*
G75*
G02*
X105969000Y-152544798I0J56202D01*
G01*
G37*
G36*
G01*
X100929000Y-155084798D02*
X100929000Y-154095202D01*
G75*
G02*
X100985202Y-154039000I56202J0D01*
G01*
X103974798Y-154039000D01*
G75*
G02*
X104031000Y-154095202I0J-56202D01*
G01*
X104031000Y-155084798D01*
G75*
G02*
X103974798Y-155141000I-56202J0D01*
G01*
X100985202Y-155141000D01*
G75*
G02*
X100929000Y-155084798I0J56202D01*
G01*
G37*
G36*
G01*
X105969000Y-155084798D02*
X105969000Y-154095202D01*
G75*
G02*
X106025202Y-154039000I56202J0D01*
G01*
X109014798Y-154039000D01*
G75*
G02*
X109071000Y-154095202I0J-56202D01*
G01*
X109071000Y-155084798D01*
G75*
G02*
X109014798Y-155141000I-56202J0D01*
G01*
X106025202Y-155141000D01*
G75*
G02*
X105969000Y-155084798I0J56202D01*
G01*
G37*
G36*
G01*
X100929000Y-157624798D02*
X100929000Y-156635202D01*
G75*
G02*
X100985202Y-156579000I56202J0D01*
G01*
X103974798Y-156579000D01*
G75*
G02*
X104031000Y-156635202I0J-56202D01*
G01*
X104031000Y-157624798D01*
G75*
G02*
X103974798Y-157681000I-56202J0D01*
G01*
X100985202Y-157681000D01*
G75*
G02*
X100929000Y-157624798I0J56202D01*
G01*
G37*
G36*
G01*
X105969000Y-157624798D02*
X105969000Y-156635202D01*
G75*
G02*
X106025202Y-156579000I56202J0D01*
G01*
X109014798Y-156579000D01*
G75*
G02*
X109071000Y-156635202I0J-56202D01*
G01*
X109071000Y-157624798D01*
G75*
G02*
X109014798Y-157681000I-56202J0D01*
G01*
X106025202Y-157681000D01*
G75*
G02*
X105969000Y-157624798I0J56202D01*
G01*
G37*
G36*
G01*
X122889000Y-118274798D02*
X122889000Y-117285202D01*
G75*
G02*
X122945202Y-117229000I56202J0D01*
G01*
X125444798Y-117229000D01*
G75*
G02*
X125501000Y-117285202I0J-56202D01*
G01*
X125501000Y-118274798D01*
G75*
G02*
X125444798Y-118331000I-56202J0D01*
G01*
X122945202Y-118331000D01*
G75*
G02*
X122889000Y-118274798I0J56202D01*
G01*
G37*
G36*
G01*
X122889000Y-123354798D02*
X122889000Y-122365202D01*
G75*
G02*
X122945202Y-122309000I56202J0D01*
G01*
X125444798Y-122309000D01*
G75*
G02*
X125501000Y-122365202I0J-56202D01*
G01*
X125501000Y-123354798D01*
G75*
G02*
X125444798Y-123411000I-56202J0D01*
G01*
X122945202Y-123411000D01*
G75*
G02*
X122889000Y-123354798I0J56202D01*
G01*
G37*
G36*
G01*
X122889000Y-128434798D02*
X122889000Y-127445202D01*
G75*
G02*
X122945202Y-127389000I56202J0D01*
G01*
X125444798Y-127389000D01*
G75*
G02*
X125501000Y-127445202I0J-56202D01*
G01*
X125501000Y-128434798D01*
G75*
G02*
X125444798Y-128491000I-56202J0D01*
G01*
X122945202Y-128491000D01*
G75*
G02*
X122889000Y-128434798I0J56202D01*
G01*
G37*
G36*
G01*
X122889000Y-133514798D02*
X122889000Y-132525202D01*
G75*
G02*
X122945202Y-132469000I56202J0D01*
G01*
X125444798Y-132469000D01*
G75*
G02*
X125501000Y-132525202I0J-56202D01*
G01*
X125501000Y-133514798D01*
G75*
G02*
X125444798Y-133571000I-56202J0D01*
G01*
X122945202Y-133571000D01*
G75*
G02*
X122889000Y-133514798I0J56202D01*
G01*
G37*
G36*
G01*
X119579000Y-115734798D02*
X119579000Y-114745202D01*
G75*
G02*
X119635202Y-114689000I56202J0D01*
G01*
X122134798Y-114689000D01*
G75*
G02*
X122191000Y-114745202I0J-56202D01*
G01*
X122191000Y-115734798D01*
G75*
G02*
X122134798Y-115791000I-56202J0D01*
G01*
X119635202Y-115791000D01*
G75*
G02*
X119579000Y-115734798I0J56202D01*
G01*
G37*
G36*
G01*
X119579000Y-120814798D02*
X119579000Y-119825202D01*
G75*
G02*
X119635202Y-119769000I56202J0D01*
G01*
X122134798Y-119769000D01*
G75*
G02*
X122191000Y-119825202I0J-56202D01*
G01*
X122191000Y-120814798D01*
G75*
G02*
X122134798Y-120871000I-56202J0D01*
G01*
X119635202Y-120871000D01*
G75*
G02*
X119579000Y-120814798I0J56202D01*
G01*
G37*
G36*
G01*
X119579000Y-125894798D02*
X119579000Y-124905202D01*
G75*
G02*
X119635202Y-124849000I56202J0D01*
G01*
X122134798Y-124849000D01*
G75*
G02*
X122191000Y-124905202I0J-56202D01*
G01*
X122191000Y-125894798D01*
G75*
G02*
X122134798Y-125951000I-56202J0D01*
G01*
X119635202Y-125951000D01*
G75*
G02*
X119579000Y-125894798I0J56202D01*
G01*
G37*
G36*
G01*
X119579000Y-130974798D02*
X119579000Y-129985202D01*
G75*
G02*
X119635202Y-129929000I56202J0D01*
G01*
X122134798Y-129929000D01*
G75*
G02*
X122191000Y-129985202I0J-56202D01*
G01*
X122191000Y-130974798D01*
G75*
G02*
X122134798Y-131031000I-56202J0D01*
G01*
X119635202Y-131031000D01*
G75*
G02*
X119579000Y-130974798I0J56202D01*
G01*
G37*
G36*
G01*
X122191000Y-174689202D02*
X122191000Y-175678798D01*
G75*
G02*
X122134798Y-175735000I-56202J0D01*
G01*
X119635202Y-175735000D01*
G75*
G02*
X119579000Y-175678798I0J56202D01*
G01*
X119579000Y-174689202D01*
G75*
G02*
X119635202Y-174633000I56202J0D01*
G01*
X122134798Y-174633000D01*
G75*
G02*
X122191000Y-174689202I0J-56202D01*
G01*
G37*
G36*
G01*
X122191000Y-169609202D02*
X122191000Y-170598798D01*
G75*
G02*
X122134798Y-170655000I-56202J0D01*
G01*
X119635202Y-170655000D01*
G75*
G02*
X119579000Y-170598798I0J56202D01*
G01*
X119579000Y-169609202D01*
G75*
G02*
X119635202Y-169553000I56202J0D01*
G01*
X122134798Y-169553000D01*
G75*
G02*
X122191000Y-169609202I0J-56202D01*
G01*
G37*
G36*
G01*
X122191000Y-164529202D02*
X122191000Y-165518798D01*
G75*
G02*
X122134798Y-165575000I-56202J0D01*
G01*
X119635202Y-165575000D01*
G75*
G02*
X119579000Y-165518798I0J56202D01*
G01*
X119579000Y-164529202D01*
G75*
G02*
X119635202Y-164473000I56202J0D01*
G01*
X122134798Y-164473000D01*
G75*
G02*
X122191000Y-164529202I0J-56202D01*
G01*
G37*
G36*
G01*
X122191000Y-159449202D02*
X122191000Y-160438798D01*
G75*
G02*
X122134798Y-160495000I-56202J0D01*
G01*
X119635202Y-160495000D01*
G75*
G02*
X119579000Y-160438798I0J56202D01*
G01*
X119579000Y-159449202D01*
G75*
G02*
X119635202Y-159393000I56202J0D01*
G01*
X122134798Y-159393000D01*
G75*
G02*
X122191000Y-159449202I0J-56202D01*
G01*
G37*
G36*
G01*
X125501000Y-177229202D02*
X125501000Y-178218798D01*
G75*
G02*
X125444798Y-178275000I-56202J0D01*
G01*
X122945202Y-178275000D01*
G75*
G02*
X122889000Y-178218798I0J56202D01*
G01*
X122889000Y-177229202D01*
G75*
G02*
X122945202Y-177173000I56202J0D01*
G01*
X125444798Y-177173000D01*
G75*
G02*
X125501000Y-177229202I0J-56202D01*
G01*
G37*
G36*
G01*
X125501000Y-172149202D02*
X125501000Y-173138798D01*
G75*
G02*
X125444798Y-173195000I-56202J0D01*
G01*
X122945202Y-173195000D01*
G75*
G02*
X122889000Y-173138798I0J56202D01*
G01*
X122889000Y-172149202D01*
G75*
G02*
X122945202Y-172093000I56202J0D01*
G01*
X125444798Y-172093000D01*
G75*
G02*
X125501000Y-172149202I0J-56202D01*
G01*
G37*
G36*
G01*
X125501000Y-167069202D02*
X125501000Y-168058798D01*
G75*
G02*
X125444798Y-168115000I-56202J0D01*
G01*
X122945202Y-168115000D01*
G75*
G02*
X122889000Y-168058798I0J56202D01*
G01*
X122889000Y-167069202D01*
G75*
G02*
X122945202Y-167013000I56202J0D01*
G01*
X125444798Y-167013000D01*
G75*
G02*
X125501000Y-167069202I0J-56202D01*
G01*
G37*
G36*
G01*
X125501000Y-161989202D02*
X125501000Y-162978798D01*
G75*
G02*
X125444798Y-163035000I-56202J0D01*
G01*
X122945202Y-163035000D01*
G75*
G02*
X122889000Y-162978798I0J56202D01*
G01*
X122889000Y-161989202D01*
G75*
G02*
X122945202Y-161933000I56202J0D01*
G01*
X125444798Y-161933000D01*
G75*
G02*
X125501000Y-161989202I0J-56202D01*
G01*
G37*
G36*
G01*
X122191000Y-152845202D02*
X122191000Y-153834798D01*
G75*
G02*
X122134798Y-153891000I-56202J0D01*
G01*
X119635202Y-153891000D01*
G75*
G02*
X119579000Y-153834798I0J56202D01*
G01*
X119579000Y-152845202D01*
G75*
G02*
X119635202Y-152789000I56202J0D01*
G01*
X122134798Y-152789000D01*
G75*
G02*
X122191000Y-152845202I0J-56202D01*
G01*
G37*
G36*
G01*
X122191000Y-147765202D02*
X122191000Y-148754798D01*
G75*
G02*
X122134798Y-148811000I-56202J0D01*
G01*
X119635202Y-148811000D01*
G75*
G02*
X119579000Y-148754798I0J56202D01*
G01*
X119579000Y-147765202D01*
G75*
G02*
X119635202Y-147709000I56202J0D01*
G01*
X122134798Y-147709000D01*
G75*
G02*
X122191000Y-147765202I0J-56202D01*
G01*
G37*
G36*
G01*
X122191000Y-142685202D02*
X122191000Y-143674798D01*
G75*
G02*
X122134798Y-143731000I-56202J0D01*
G01*
X119635202Y-143731000D01*
G75*
G02*
X119579000Y-143674798I0J56202D01*
G01*
X119579000Y-142685202D01*
G75*
G02*
X119635202Y-142629000I56202J0D01*
G01*
X122134798Y-142629000D01*
G75*
G02*
X122191000Y-142685202I0J-56202D01*
G01*
G37*
G36*
G01*
X122191000Y-137605202D02*
X122191000Y-138594798D01*
G75*
G02*
X122134798Y-138651000I-56202J0D01*
G01*
X119635202Y-138651000D01*
G75*
G02*
X119579000Y-138594798I0J56202D01*
G01*
X119579000Y-137605202D01*
G75*
G02*
X119635202Y-137549000I56202J0D01*
G01*
X122134798Y-137549000D01*
G75*
G02*
X122191000Y-137605202I0J-56202D01*
G01*
G37*
G36*
G01*
X125501000Y-155385202D02*
X125501000Y-156374798D01*
G75*
G02*
X125444798Y-156431000I-56202J0D01*
G01*
X122945202Y-156431000D01*
G75*
G02*
X122889000Y-156374798I0J56202D01*
G01*
X122889000Y-155385202D01*
G75*
G02*
X122945202Y-155329000I56202J0D01*
G01*
X125444798Y-155329000D01*
G75*
G02*
X125501000Y-155385202I0J-56202D01*
G01*
G37*
G36*
G01*
X125501000Y-150305202D02*
X125501000Y-151294798D01*
G75*
G02*
X125444798Y-151351000I-56202J0D01*
G01*
X122945202Y-151351000D01*
G75*
G02*
X122889000Y-151294798I0J56202D01*
G01*
X122889000Y-150305202D01*
G75*
G02*
X122945202Y-150249000I56202J0D01*
G01*
X125444798Y-150249000D01*
G75*
G02*
X125501000Y-150305202I0J-56202D01*
G01*
G37*
G36*
G01*
X125501000Y-145225202D02*
X125501000Y-146214798D01*
G75*
G02*
X125444798Y-146271000I-56202J0D01*
G01*
X122945202Y-146271000D01*
G75*
G02*
X122889000Y-146214798I0J56202D01*
G01*
X122889000Y-145225202D01*
G75*
G02*
X122945202Y-145169000I56202J0D01*
G01*
X125444798Y-145169000D01*
G75*
G02*
X125501000Y-145225202I0J-56202D01*
G01*
G37*
G36*
G01*
X125501000Y-140145202D02*
X125501000Y-141134798D01*
G75*
G02*
X125444798Y-141191000I-56202J0D01*
G01*
X122945202Y-141191000D01*
G75*
G02*
X122889000Y-141134798I0J56202D01*
G01*
X122889000Y-140145202D01*
G75*
G02*
X122945202Y-140089000I56202J0D01*
G01*
X125444798Y-140089000D01*
G75*
G02*
X125501000Y-140145202I0J-56202D01*
G01*
G37*
G36*
G01*
X171149000Y-136054798D02*
X171149000Y-135065202D01*
G75*
G02*
X171205202Y-135009000I56202J0D01*
G01*
X173704798Y-135009000D01*
G75*
G02*
X173761000Y-135065202I0J-56202D01*
G01*
X173761000Y-136054798D01*
G75*
G02*
X173704798Y-136111000I-56202J0D01*
G01*
X171205202Y-136111000D01*
G75*
G02*
X171149000Y-136054798I0J56202D01*
G01*
G37*
G36*
G01*
X171149000Y-141134798D02*
X171149000Y-140145202D01*
G75*
G02*
X171205202Y-140089000I56202J0D01*
G01*
X173704798Y-140089000D01*
G75*
G02*
X173761000Y-140145202I0J-56202D01*
G01*
X173761000Y-141134798D01*
G75*
G02*
X173704798Y-141191000I-56202J0D01*
G01*
X171205202Y-141191000D01*
G75*
G02*
X171149000Y-141134798I0J56202D01*
G01*
G37*
G36*
G01*
X171149000Y-146214798D02*
X171149000Y-145225202D01*
G75*
G02*
X171205202Y-145169000I56202J0D01*
G01*
X173704798Y-145169000D01*
G75*
G02*
X173761000Y-145225202I0J-56202D01*
G01*
X173761000Y-146214798D01*
G75*
G02*
X173704798Y-146271000I-56202J0D01*
G01*
X171205202Y-146271000D01*
G75*
G02*
X171149000Y-146214798I0J56202D01*
G01*
G37*
G36*
G01*
X171149000Y-151294798D02*
X171149000Y-150305202D01*
G75*
G02*
X171205202Y-150249000I56202J0D01*
G01*
X173704798Y-150249000D01*
G75*
G02*
X173761000Y-150305202I0J-56202D01*
G01*
X173761000Y-151294798D01*
G75*
G02*
X173704798Y-151351000I-56202J0D01*
G01*
X171205202Y-151351000D01*
G75*
G02*
X171149000Y-151294798I0J56202D01*
G01*
G37*
G36*
G01*
X167839000Y-133514798D02*
X167839000Y-132525202D01*
G75*
G02*
X167895202Y-132469000I56202J0D01*
G01*
X170394798Y-132469000D01*
G75*
G02*
X170451000Y-132525202I0J-56202D01*
G01*
X170451000Y-133514798D01*
G75*
G02*
X170394798Y-133571000I-56202J0D01*
G01*
X167895202Y-133571000D01*
G75*
G02*
X167839000Y-133514798I0J56202D01*
G01*
G37*
G36*
G01*
X167839000Y-138594798D02*
X167839000Y-137605202D01*
G75*
G02*
X167895202Y-137549000I56202J0D01*
G01*
X170394798Y-137549000D01*
G75*
G02*
X170451000Y-137605202I0J-56202D01*
G01*
X170451000Y-138594798D01*
G75*
G02*
X170394798Y-138651000I-56202J0D01*
G01*
X167895202Y-138651000D01*
G75*
G02*
X167839000Y-138594798I0J56202D01*
G01*
G37*
G36*
G01*
X167839000Y-143674798D02*
X167839000Y-142685202D01*
G75*
G02*
X167895202Y-142629000I56202J0D01*
G01*
X170394798Y-142629000D01*
G75*
G02*
X170451000Y-142685202I0J-56202D01*
G01*
X170451000Y-143674798D01*
G75*
G02*
X170394798Y-143731000I-56202J0D01*
G01*
X167895202Y-143731000D01*
G75*
G02*
X167839000Y-143674798I0J56202D01*
G01*
G37*
G36*
G01*
X167839000Y-148754798D02*
X167839000Y-147765202D01*
G75*
G02*
X167895202Y-147709000I56202J0D01*
G01*
X170394798Y-147709000D01*
G75*
G02*
X170451000Y-147765202I0J-56202D01*
G01*
X170451000Y-148754798D01*
G75*
G02*
X170394798Y-148811000I-56202J0D01*
G01*
X167895202Y-148811000D01*
G75*
G02*
X167839000Y-148754798I0J56202D01*
G01*
G37*
D10*
X195750000Y-177920000D03*
G36*
G01*
X197248266Y-194711000D02*
X194251734Y-194711000D01*
G75*
G02*
X194199000Y-194658266I0J52734D01*
G01*
X194199000Y-191661734D01*
G75*
G02*
X194251734Y-191609000I52734J0D01*
G01*
X197248266Y-191609000D01*
G75*
G02*
X197301000Y-191661734I0J-52734D01*
G01*
X197301000Y-194658266D01*
G75*
G02*
X197248266Y-194711000I-52734J0D01*
G01*
G37*
X195750000Y-183000000D03*
X195750000Y-188080000D03*
X195750000Y-156960000D03*
G36*
G01*
X197248266Y-173751000D02*
X194251734Y-173751000D01*
G75*
G02*
X194199000Y-173698266I0J52734D01*
G01*
X194199000Y-170701734D01*
G75*
G02*
X194251734Y-170649000I52734J0D01*
G01*
X197248266Y-170649000D01*
G75*
G02*
X197301000Y-170701734I0J-52734D01*
G01*
X197301000Y-173698266D01*
G75*
G02*
X197248266Y-173751000I-52734J0D01*
G01*
G37*
X195750000Y-162040000D03*
X195750000Y-167120000D03*
D15*
X101885000Y-191690000D03*
X101885000Y-186230000D03*
D16*
X104885000Y-191380000D03*
X104885000Y-186540000D03*
D10*
X149840000Y-196000000D03*
G36*
G01*
X133049000Y-197498266D02*
X133049000Y-194501734D01*
G75*
G02*
X133101734Y-194449000I52734J0D01*
G01*
X136098266Y-194449000D01*
G75*
G02*
X136151000Y-194501734I0J-52734D01*
G01*
X136151000Y-197498266D01*
G75*
G02*
X136098266Y-197551000I-52734J0D01*
G01*
X133101734Y-197551000D01*
G75*
G02*
X133049000Y-197498266I0J52734D01*
G01*
G37*
X144760000Y-196000000D03*
X139680000Y-196000000D03*
M02*
