G04 #@! TF.GenerationSoftware,KiCad,Pcbnew,5.99.0-unknown-1463dd1~101~ubuntu20.04.1*
G04 #@! TF.CreationDate,2020-07-08T00:09:35-04:00*
G04 #@! TF.ProjectId,goldhat,676f6c64-6861-4742-9e6b-696361645f70,rev?*
G04 #@! TF.SameCoordinates,Original*
G04 #@! TF.FileFunction,Legend,Top*
G04 #@! TF.FilePolarity,Positive*
%FSLAX46Y46*%
G04 Gerber Fmt 4.6, Leading zero omitted, Abs format (unit mm)*
G04 Created by KiCad (PCBNEW 5.99.0-unknown-1463dd1~101~ubuntu20.04.1) date 2020-07-08 00:09:35*
%MOMM*%
%LPD*%
G01*
G04 APERTURE LIST*
%ADD10C,0.120000*%
%ADD11C,0.200000*%
%ADD12C,0.300000*%
%ADD13C,0.250000*%
%ADD14C,0.150000*%
G04 APERTURE END LIST*
D10*
X129800000Y-195600000D02*
X131600000Y-195600000D01*
X156200000Y-196400000D02*
X156200000Y-194400000D01*
X129800000Y-196600000D02*
X129800000Y-194600000D01*
X155000000Y-195400000D02*
X156200000Y-196400000D01*
X155000000Y-196400000D02*
X155000000Y-194400000D01*
X156200000Y-194400000D02*
X155000000Y-195400000D01*
X153000000Y-196200000D02*
X153000000Y-195400000D01*
X126400000Y-196400000D02*
X126400000Y-195600000D01*
X156200000Y-195400000D02*
X158200000Y-195400000D01*
X128600000Y-195600000D02*
X126400000Y-195600000D01*
X128600000Y-196600000D02*
X128600000Y-194600000D01*
X131600000Y-196400000D02*
X131600000Y-195600000D01*
X158200000Y-196200000D02*
X158200000Y-195400000D01*
X128600000Y-195600000D02*
X129800000Y-196600000D01*
X155000000Y-195400000D02*
X153000000Y-195400000D01*
X129800000Y-194600000D02*
X128600000Y-195600000D01*
D11*
X132880952Y-125137380D02*
X132880952Y-124137380D01*
X133690476Y-124613571D02*
X133357142Y-124613571D01*
X133357142Y-125137380D02*
X133357142Y-124137380D01*
X133833333Y-124137380D01*
X135166666Y-124661190D02*
X135166666Y-125137380D01*
X134833333Y-124137380D02*
X135166666Y-124661190D01*
X135500000Y-124137380D01*
X136023809Y-124137380D02*
X136214285Y-124137380D01*
X136309523Y-124185000D01*
X136404761Y-124280238D01*
X136452380Y-124470714D01*
X136452380Y-124804047D01*
X136404761Y-124994523D01*
X136309523Y-125089761D01*
X136214285Y-125137380D01*
X136023809Y-125137380D01*
X135928571Y-125089761D01*
X135833333Y-124994523D01*
X135785714Y-124804047D01*
X135785714Y-124470714D01*
X135833333Y-124280238D01*
X135928571Y-124185000D01*
X136023809Y-124137380D01*
X136880952Y-124137380D02*
X136880952Y-124946904D01*
X136928571Y-125042142D01*
X136976190Y-125089761D01*
X137071428Y-125137380D01*
X137261904Y-125137380D01*
X137357142Y-125089761D01*
X137404761Y-125042142D01*
X137452380Y-124946904D01*
X137452380Y-124137380D01*
X139261904Y-125042142D02*
X139214285Y-125089761D01*
X139071428Y-125137380D01*
X138976190Y-125137380D01*
X138833333Y-125089761D01*
X138738095Y-124994523D01*
X138690476Y-124899285D01*
X138642857Y-124708809D01*
X138642857Y-124565952D01*
X138690476Y-124375476D01*
X138738095Y-124280238D01*
X138833333Y-124185000D01*
X138976190Y-124137380D01*
X139071428Y-124137380D01*
X139214285Y-124185000D01*
X139261904Y-124232619D01*
X139642857Y-124851666D02*
X140119047Y-124851666D01*
X139547619Y-125137380D02*
X139880952Y-124137380D01*
X140214285Y-125137380D01*
X140547619Y-125137380D02*
X140547619Y-124137380D01*
X141119047Y-125137380D01*
X141119047Y-124137380D01*
X133690476Y-126747380D02*
X133357142Y-126271190D01*
X133119047Y-126747380D02*
X133119047Y-125747380D01*
X133500000Y-125747380D01*
X133595238Y-125795000D01*
X133642857Y-125842619D01*
X133690476Y-125937857D01*
X133690476Y-126080714D01*
X133642857Y-126175952D01*
X133595238Y-126223571D01*
X133500000Y-126271190D01*
X133119047Y-126271190D01*
X134119047Y-126223571D02*
X134452380Y-126223571D01*
X134595238Y-126747380D02*
X134119047Y-126747380D01*
X134119047Y-125747380D01*
X134595238Y-125747380D01*
X134976190Y-126461666D02*
X135452380Y-126461666D01*
X134880952Y-126747380D02*
X135214285Y-125747380D01*
X135547619Y-126747380D01*
X135880952Y-126747380D02*
X135880952Y-125747380D01*
X136119047Y-125747380D01*
X136261904Y-125795000D01*
X136357142Y-125890238D01*
X136404761Y-125985476D01*
X136452380Y-126175952D01*
X136452380Y-126318809D01*
X136404761Y-126509285D01*
X136357142Y-126604523D01*
X136261904Y-126699761D01*
X136119047Y-126747380D01*
X135880952Y-126747380D01*
X137500000Y-125747380D02*
X138071428Y-125747380D01*
X137785714Y-126747380D02*
X137785714Y-125747380D01*
X138404761Y-126747380D02*
X138404761Y-125747380D01*
X138404761Y-126223571D02*
X138976190Y-126223571D01*
X138976190Y-126747380D02*
X138976190Y-125747380D01*
X139452380Y-126747380D02*
X139452380Y-125747380D01*
X139880952Y-126699761D02*
X140023809Y-126747380D01*
X140261904Y-126747380D01*
X140357142Y-126699761D01*
X140404761Y-126652142D01*
X140452380Y-126556904D01*
X140452380Y-126461666D01*
X140404761Y-126366428D01*
X140357142Y-126318809D01*
X140261904Y-126271190D01*
X140071428Y-126223571D01*
X139976190Y-126175952D01*
X139928571Y-126128333D01*
X139880952Y-126033095D01*
X139880952Y-125937857D01*
X139928571Y-125842619D01*
X139976190Y-125795000D01*
X140071428Y-125747380D01*
X140309523Y-125747380D01*
X140452380Y-125795000D01*
X140928571Y-126699761D02*
X140928571Y-126747380D01*
X140880952Y-126842619D01*
X140833333Y-126890238D01*
X132595238Y-127357380D02*
X133166666Y-127357380D01*
X132880952Y-128357380D02*
X132880952Y-127357380D01*
X133500000Y-128357380D02*
X133500000Y-127357380D01*
X133500000Y-127833571D02*
X134071428Y-127833571D01*
X134071428Y-128357380D02*
X134071428Y-127357380D01*
X134547619Y-127833571D02*
X134880952Y-127833571D01*
X135023809Y-128357380D02*
X134547619Y-128357380D01*
X134547619Y-127357380D01*
X135023809Y-127357380D01*
X136166666Y-128071666D02*
X136642857Y-128071666D01*
X136071428Y-128357380D02*
X136404761Y-127357380D01*
X136738095Y-128357380D01*
X136928571Y-127357380D02*
X137500000Y-127357380D01*
X137214285Y-128357380D02*
X137214285Y-127357380D01*
X137833333Y-128357380D02*
X137833333Y-127357380D01*
X138166666Y-128071666D01*
X138500000Y-127357380D01*
X138500000Y-128357380D01*
X138976190Y-127833571D02*
X139309523Y-127833571D01*
X139452380Y-128357380D02*
X138976190Y-128357380D01*
X138976190Y-127357380D01*
X139452380Y-127357380D01*
X140404761Y-127405000D02*
X140309523Y-127357380D01*
X140166666Y-127357380D01*
X140023809Y-127405000D01*
X139928571Y-127500238D01*
X139880952Y-127595476D01*
X139833333Y-127785952D01*
X139833333Y-127928809D01*
X139880952Y-128119285D01*
X139928571Y-128214523D01*
X140023809Y-128309761D01*
X140166666Y-128357380D01*
X140261904Y-128357380D01*
X140404761Y-128309761D01*
X140452380Y-128262142D01*
X140452380Y-127928809D01*
X140261904Y-127928809D01*
X140833333Y-128071666D02*
X141309523Y-128071666D01*
X140738095Y-128357380D02*
X141071428Y-127357380D01*
X141404761Y-128357380D01*
X133404761Y-129443571D02*
X133071428Y-129443571D01*
X133071428Y-129967380D02*
X133071428Y-128967380D01*
X133547619Y-128967380D01*
X133928571Y-129443571D02*
X134261904Y-129443571D01*
X134404761Y-129967380D02*
X133928571Y-129967380D01*
X133928571Y-128967380D01*
X134404761Y-128967380D01*
X135309523Y-129967380D02*
X134833333Y-129967380D01*
X134833333Y-128967380D01*
X136119047Y-129967380D02*
X135642857Y-129967380D01*
X135642857Y-128967380D01*
X137404761Y-128967380D02*
X137595238Y-128967380D01*
X137690476Y-129015000D01*
X137785714Y-129110238D01*
X137833333Y-129300714D01*
X137833333Y-129634047D01*
X137785714Y-129824523D01*
X137690476Y-129919761D01*
X137595238Y-129967380D01*
X137404761Y-129967380D01*
X137309523Y-129919761D01*
X137214285Y-129824523D01*
X137166666Y-129634047D01*
X137166666Y-129300714D01*
X137214285Y-129110238D01*
X137309523Y-129015000D01*
X137404761Y-128967380D01*
X138595238Y-129443571D02*
X138261904Y-129443571D01*
X138261904Y-129967380D02*
X138261904Y-128967380D01*
X138738095Y-128967380D01*
X139452380Y-129443571D02*
X139119047Y-129443571D01*
X139119047Y-129967380D02*
X139119047Y-128967380D01*
X139595238Y-128967380D01*
X139976190Y-129872142D02*
X140023809Y-129919761D01*
X139976190Y-129967380D01*
X139928571Y-129919761D01*
X139976190Y-129872142D01*
X139976190Y-129967380D01*
X139976190Y-129586428D02*
X139928571Y-129015000D01*
X139976190Y-128967380D01*
X140023809Y-129015000D01*
X139976190Y-129586428D01*
X139976190Y-128967380D01*
X140452380Y-129872142D02*
X140500000Y-129919761D01*
X140452380Y-129967380D01*
X140404761Y-129919761D01*
X140452380Y-129872142D01*
X140452380Y-129967380D01*
X140452380Y-129586428D02*
X140404761Y-129015000D01*
X140452380Y-128967380D01*
X140500000Y-129015000D01*
X140452380Y-129586428D01*
X140452380Y-128967380D01*
X140928571Y-129872142D02*
X140976190Y-129919761D01*
X140928571Y-129967380D01*
X140880952Y-129919761D01*
X140928571Y-129872142D01*
X140928571Y-129967380D01*
X140928571Y-129586428D02*
X140880952Y-129015000D01*
X140928571Y-128967380D01*
X140976190Y-129015000D01*
X140928571Y-129586428D01*
X140928571Y-128967380D01*
D12*
X110821428Y-131656071D02*
X110821428Y-132727500D01*
X110750000Y-132941785D01*
X110607142Y-133084642D01*
X110392857Y-133156071D01*
X110250000Y-133156071D01*
X111821428Y-131656071D02*
X112107142Y-131656071D01*
X112250000Y-131727500D01*
X112392857Y-131870357D01*
X112464285Y-132156071D01*
X112464285Y-132656071D01*
X112392857Y-132941785D01*
X112250000Y-133084642D01*
X112107142Y-133156071D01*
X111821428Y-133156071D01*
X111678571Y-133084642D01*
X111535714Y-132941785D01*
X111464285Y-132656071D01*
X111464285Y-132156071D01*
X111535714Y-131870357D01*
X111678571Y-131727500D01*
X111821428Y-131656071D01*
X113107142Y-133156071D02*
X113107142Y-131656071D01*
X113107142Y-132370357D02*
X113964285Y-132370357D01*
X113964285Y-133156071D02*
X113964285Y-131656071D01*
X114678571Y-133156071D02*
X114678571Y-131656071D01*
X115535714Y-133156071D01*
X115535714Y-131656071D01*
X118250000Y-133013214D02*
X118178571Y-133084642D01*
X117964285Y-133156071D01*
X117821428Y-133156071D01*
X117607142Y-133084642D01*
X117464285Y-132941785D01*
X117392857Y-132798928D01*
X117321428Y-132513214D01*
X117321428Y-132298928D01*
X117392857Y-132013214D01*
X117464285Y-131870357D01*
X117607142Y-131727500D01*
X117821428Y-131656071D01*
X117964285Y-131656071D01*
X118178571Y-131727500D01*
X118250000Y-131798928D01*
X119178571Y-131656071D02*
X119464285Y-131656071D01*
X119607142Y-131727500D01*
X119750000Y-131870357D01*
X119821428Y-132156071D01*
X119821428Y-132656071D01*
X119750000Y-132941785D01*
X119607142Y-133084642D01*
X119464285Y-133156071D01*
X119178571Y-133156071D01*
X119035714Y-133084642D01*
X118892857Y-132941785D01*
X118821428Y-132656071D01*
X118821428Y-132156071D01*
X118892857Y-131870357D01*
X119035714Y-131727500D01*
X119178571Y-131656071D01*
X120464285Y-133156071D02*
X120464285Y-131656071D01*
X121035714Y-131656071D01*
X121178571Y-131727500D01*
X121250000Y-131798928D01*
X121321428Y-131941785D01*
X121321428Y-132156071D01*
X121250000Y-132298928D01*
X121178571Y-132370357D01*
X121035714Y-132441785D01*
X120464285Y-132441785D01*
X121964285Y-132370357D02*
X122464285Y-132370357D01*
X122678571Y-133156071D02*
X121964285Y-133156071D01*
X121964285Y-131656071D01*
X122678571Y-131656071D01*
X112392857Y-134071071D02*
X113250000Y-134071071D01*
X112821428Y-135571071D02*
X112821428Y-134071071D01*
X114892857Y-135571071D02*
X114892857Y-134071071D01*
X115250000Y-134071071D01*
X115464285Y-134142500D01*
X115607142Y-134285357D01*
X115678571Y-134428214D01*
X115750000Y-134713928D01*
X115750000Y-134928214D01*
X115678571Y-135213928D01*
X115607142Y-135356785D01*
X115464285Y-135499642D01*
X115250000Y-135571071D01*
X114892857Y-135571071D01*
X116321428Y-135142500D02*
X117035714Y-135142500D01*
X116178571Y-135571071D02*
X116678571Y-134071071D01*
X117178571Y-135571071D01*
X117464285Y-134071071D02*
X117964285Y-135571071D01*
X118464285Y-134071071D01*
X118964285Y-135571071D02*
X118964285Y-134071071D01*
X119607142Y-135499642D02*
X119821428Y-135571071D01*
X120178571Y-135571071D01*
X120321428Y-135499642D01*
X120392857Y-135428214D01*
X120464285Y-135285357D01*
X120464285Y-135142500D01*
X120392857Y-134999642D01*
X120321428Y-134928214D01*
X120178571Y-134856785D01*
X119892857Y-134785357D01*
X119750000Y-134713928D01*
X119678571Y-134642500D01*
X119607142Y-134499642D01*
X119607142Y-134356785D01*
X119678571Y-134213928D01*
X119750000Y-134142500D01*
X119892857Y-134071071D01*
X120250000Y-134071071D01*
X120464285Y-134142500D01*
X110035714Y-137914642D02*
X110250000Y-137986071D01*
X110607142Y-137986071D01*
X110750000Y-137914642D01*
X110821428Y-137843214D01*
X110892857Y-137700357D01*
X110892857Y-137557500D01*
X110821428Y-137414642D01*
X110750000Y-137343214D01*
X110607142Y-137271785D01*
X110321428Y-137200357D01*
X110178571Y-137128928D01*
X110107142Y-137057500D01*
X110035714Y-136914642D01*
X110035714Y-136771785D01*
X110107142Y-136628928D01*
X110178571Y-136557500D01*
X110321428Y-136486071D01*
X110678571Y-136486071D01*
X110892857Y-136557500D01*
X111464285Y-137557500D02*
X112178571Y-137557500D01*
X111321428Y-137986071D02*
X111821428Y-136486071D01*
X112321428Y-137986071D01*
X113678571Y-137986071D02*
X113178571Y-137271785D01*
X112821428Y-137986071D02*
X112821428Y-136486071D01*
X113392857Y-136486071D01*
X113535714Y-136557500D01*
X113607142Y-136628928D01*
X113678571Y-136771785D01*
X113678571Y-136986071D01*
X113607142Y-137128928D01*
X113535714Y-137200357D01*
X113392857Y-137271785D01*
X112821428Y-137271785D01*
X114250000Y-137557500D02*
X114964285Y-137557500D01*
X114107142Y-137986071D02*
X114607142Y-136486071D01*
X115107142Y-137986071D01*
X115607142Y-137986071D02*
X115607142Y-136486071D01*
X115607142Y-137200357D02*
X116464285Y-137200357D01*
X116464285Y-137986071D02*
X116464285Y-136486071D01*
X119178571Y-137986071D02*
X118678571Y-137271785D01*
X118321428Y-137986071D02*
X118321428Y-136486071D01*
X118892857Y-136486071D01*
X119035714Y-136557500D01*
X119107142Y-136628928D01*
X119178571Y-136771785D01*
X119178571Y-136986071D01*
X119107142Y-137128928D01*
X119035714Y-137200357D01*
X118892857Y-137271785D01*
X118321428Y-137271785D01*
X119821428Y-137200357D02*
X120321428Y-137200357D01*
X120535714Y-137986071D02*
X119821428Y-137986071D01*
X119821428Y-136486071D01*
X120535714Y-136486071D01*
X121178571Y-137986071D02*
X121178571Y-136486071D01*
X121892857Y-137986071D02*
X121892857Y-136486071D01*
X122392857Y-137557500D01*
X122892857Y-136486071D01*
X122892857Y-137986071D01*
X109892857Y-138901071D02*
X110750000Y-138901071D01*
X110321428Y-140401071D02*
X110321428Y-138901071D01*
X111535714Y-139686785D02*
X111535714Y-140401071D01*
X111035714Y-138901071D02*
X111535714Y-139686785D01*
X112035714Y-138901071D01*
X113250000Y-140401071D02*
X112535714Y-140401071D01*
X112535714Y-138901071D01*
X113750000Y-139615357D02*
X114250000Y-139615357D01*
X114464285Y-140401071D02*
X113750000Y-140401071D01*
X113750000Y-138901071D01*
X114464285Y-138901071D01*
X115964285Y-140401071D02*
X115464285Y-139686785D01*
X115107142Y-140401071D02*
X115107142Y-138901071D01*
X115678571Y-138901071D01*
X115821428Y-138972500D01*
X115892857Y-139043928D01*
X115964285Y-139186785D01*
X115964285Y-139401071D01*
X115892857Y-139543928D01*
X115821428Y-139615357D01*
X115678571Y-139686785D01*
X115107142Y-139686785D01*
X118607142Y-140401071D02*
X118107142Y-139686785D01*
X117750000Y-140401071D02*
X117750000Y-138901071D01*
X118321428Y-138901071D01*
X118464285Y-138972500D01*
X118535714Y-139043928D01*
X118607142Y-139186785D01*
X118607142Y-139401071D01*
X118535714Y-139543928D01*
X118464285Y-139615357D01*
X118321428Y-139686785D01*
X117750000Y-139686785D01*
X119535714Y-138901071D02*
X119821428Y-138901071D01*
X119964285Y-138972500D01*
X120107142Y-139115357D01*
X120178571Y-139401071D01*
X120178571Y-139901071D01*
X120107142Y-140186785D01*
X119964285Y-140329642D01*
X119821428Y-140401071D01*
X119535714Y-140401071D01*
X119392857Y-140329642D01*
X119250000Y-140186785D01*
X119178571Y-139901071D01*
X119178571Y-139401071D01*
X119250000Y-139115357D01*
X119392857Y-138972500D01*
X119535714Y-138901071D01*
X120750000Y-140329642D02*
X120964285Y-140401071D01*
X121321428Y-140401071D01*
X121464285Y-140329642D01*
X121535714Y-140258214D01*
X121607142Y-140115357D01*
X121607142Y-139972500D01*
X121535714Y-139829642D01*
X121464285Y-139758214D01*
X121321428Y-139686785D01*
X121035714Y-139615357D01*
X120892857Y-139543928D01*
X120821428Y-139472500D01*
X120750000Y-139329642D01*
X120750000Y-139186785D01*
X120821428Y-139043928D01*
X120892857Y-138972500D01*
X121035714Y-138901071D01*
X121392857Y-138901071D01*
X121607142Y-138972500D01*
X122250000Y-139615357D02*
X122750000Y-139615357D01*
X122964285Y-140401071D02*
X122250000Y-140401071D01*
X122250000Y-138901071D01*
X122964285Y-138901071D01*
X146852142Y-112877857D02*
X147066428Y-112949285D01*
X147137857Y-113020714D01*
X147209285Y-113163571D01*
X147209285Y-113377857D01*
X147137857Y-113520714D01*
X147066428Y-113592142D01*
X146923571Y-113663571D01*
X146352142Y-113663571D01*
X146352142Y-112163571D01*
X146852142Y-112163571D01*
X146995000Y-112235000D01*
X147066428Y-112306428D01*
X147137857Y-112449285D01*
X147137857Y-112592142D01*
X147066428Y-112735000D01*
X146995000Y-112806428D01*
X146852142Y-112877857D01*
X146352142Y-112877857D01*
X148137857Y-112163571D02*
X148423571Y-112163571D01*
X148566428Y-112235000D01*
X148709285Y-112377857D01*
X148780714Y-112663571D01*
X148780714Y-113163571D01*
X148709285Y-113449285D01*
X148566428Y-113592142D01*
X148423571Y-113663571D01*
X148137857Y-113663571D01*
X147995000Y-113592142D01*
X147852142Y-113449285D01*
X147780714Y-113163571D01*
X147780714Y-112663571D01*
X147852142Y-112377857D01*
X147995000Y-112235000D01*
X148137857Y-112163571D01*
X149209285Y-112163571D02*
X150066428Y-112163571D01*
X149637857Y-113663571D02*
X149637857Y-112163571D01*
X150352142Y-112163571D02*
X151209285Y-112163571D01*
X150780714Y-113663571D02*
X150780714Y-112163571D01*
X151995000Y-112163571D02*
X152280714Y-112163571D01*
X152423571Y-112235000D01*
X152566428Y-112377857D01*
X152637857Y-112663571D01*
X152637857Y-113163571D01*
X152566428Y-113449285D01*
X152423571Y-113592142D01*
X152280714Y-113663571D01*
X151995000Y-113663571D01*
X151852142Y-113592142D01*
X151709285Y-113449285D01*
X151637857Y-113163571D01*
X151637857Y-112663571D01*
X151709285Y-112377857D01*
X151852142Y-112235000D01*
X151995000Y-112163571D01*
X153280714Y-113663571D02*
X153280714Y-112163571D01*
X153780714Y-113235000D01*
X154280714Y-112163571D01*
X154280714Y-113663571D01*
X156637857Y-112877857D02*
X156137857Y-112877857D01*
X156137857Y-113663571D02*
X156137857Y-112163571D01*
X156852142Y-112163571D01*
X157423571Y-112877857D02*
X157923571Y-112877857D01*
X158137857Y-113663571D02*
X157423571Y-113663571D01*
X157423571Y-112163571D01*
X158137857Y-112163571D01*
X158780714Y-112877857D02*
X159280714Y-112877857D01*
X159495000Y-113663571D02*
X158780714Y-113663571D01*
X158780714Y-112163571D01*
X159495000Y-112163571D01*
X160137857Y-113663571D02*
X160137857Y-112163571D01*
X160495000Y-112163571D01*
X160709285Y-112235000D01*
X160852142Y-112377857D01*
X160923571Y-112520714D01*
X160995000Y-112806428D01*
X160995000Y-113020714D01*
X160923571Y-113306428D01*
X160852142Y-113449285D01*
X160709285Y-113592142D01*
X160495000Y-113663571D01*
X160137857Y-113663571D01*
X161637857Y-112877857D02*
X162137857Y-112877857D01*
X162352142Y-113663571D02*
X161637857Y-113663571D01*
X161637857Y-112163571D01*
X162352142Y-112163571D01*
X163852142Y-113663571D02*
X163352142Y-112949285D01*
X162995000Y-113663571D02*
X162995000Y-112163571D01*
X163566428Y-112163571D01*
X163709285Y-112235000D01*
X163780714Y-112306428D01*
X163852142Y-112449285D01*
X163852142Y-112663571D01*
X163780714Y-112806428D01*
X163709285Y-112877857D01*
X163566428Y-112949285D01*
X162995000Y-112949285D01*
X146280714Y-116007142D02*
X146495000Y-116078571D01*
X146852142Y-116078571D01*
X146995000Y-116007142D01*
X147066428Y-115935714D01*
X147137857Y-115792857D01*
X147137857Y-115650000D01*
X147066428Y-115507142D01*
X146995000Y-115435714D01*
X146852142Y-115364285D01*
X146566428Y-115292857D01*
X146423571Y-115221428D01*
X146352142Y-115150000D01*
X146280714Y-115007142D01*
X146280714Y-114864285D01*
X146352142Y-114721428D01*
X146423571Y-114650000D01*
X146566428Y-114578571D01*
X146923571Y-114578571D01*
X147137857Y-114650000D01*
X147780714Y-115292857D02*
X148280714Y-115292857D01*
X148495000Y-116078571D02*
X147780714Y-116078571D01*
X147780714Y-114578571D01*
X148495000Y-114578571D01*
X149137857Y-116078571D02*
X149137857Y-114578571D01*
X149995000Y-116078571D01*
X149995000Y-114578571D01*
X150709285Y-116078571D02*
X150709285Y-114578571D01*
X151709285Y-114578571D02*
X151995000Y-114578571D01*
X152137857Y-114650000D01*
X152280714Y-114792857D01*
X152352142Y-115078571D01*
X152352142Y-115578571D01*
X152280714Y-115864285D01*
X152137857Y-116007142D01*
X151995000Y-116078571D01*
X151709285Y-116078571D01*
X151566428Y-116007142D01*
X151423571Y-115864285D01*
X151352142Y-115578571D01*
X151352142Y-115078571D01*
X151423571Y-114792857D01*
X151566428Y-114650000D01*
X151709285Y-114578571D01*
X153852142Y-116078571D02*
X153352142Y-115364285D01*
X152995000Y-116078571D02*
X152995000Y-114578571D01*
X153566428Y-114578571D01*
X153709285Y-114650000D01*
X153780714Y-114721428D01*
X153852142Y-114864285D01*
X153852142Y-115078571D01*
X153780714Y-115221428D01*
X153709285Y-115292857D01*
X153566428Y-115364285D01*
X152995000Y-115364285D01*
X155637857Y-116078571D02*
X155637857Y-114578571D01*
X155995000Y-114578571D01*
X156209285Y-114650000D01*
X156352142Y-114792857D01*
X156423571Y-114935714D01*
X156495000Y-115221428D01*
X156495000Y-115435714D01*
X156423571Y-115721428D01*
X156352142Y-115864285D01*
X156209285Y-116007142D01*
X155995000Y-116078571D01*
X155637857Y-116078571D01*
X157137857Y-115292857D02*
X157637857Y-115292857D01*
X157852142Y-116078571D02*
X157137857Y-116078571D01*
X157137857Y-114578571D01*
X157852142Y-114578571D01*
X158423571Y-116007142D02*
X158637857Y-116078571D01*
X158995000Y-116078571D01*
X159137857Y-116007142D01*
X159209285Y-115935714D01*
X159280714Y-115792857D01*
X159280714Y-115650000D01*
X159209285Y-115507142D01*
X159137857Y-115435714D01*
X158995000Y-115364285D01*
X158709285Y-115292857D01*
X158566428Y-115221428D01*
X158495000Y-115150000D01*
X158423571Y-115007142D01*
X158423571Y-114864285D01*
X158495000Y-114721428D01*
X158566428Y-114650000D01*
X158709285Y-114578571D01*
X159066428Y-114578571D01*
X159280714Y-114650000D01*
X159923571Y-116078571D02*
X159923571Y-114578571D01*
X161423571Y-114650000D02*
X161280714Y-114578571D01*
X161066428Y-114578571D01*
X160852142Y-114650000D01*
X160709285Y-114792857D01*
X160637857Y-114935714D01*
X160566428Y-115221428D01*
X160566428Y-115435714D01*
X160637857Y-115721428D01*
X160709285Y-115864285D01*
X160852142Y-116007142D01*
X161066428Y-116078571D01*
X161209285Y-116078571D01*
X161423571Y-116007142D01*
X161495000Y-115935714D01*
X161495000Y-115435714D01*
X161209285Y-115435714D01*
X162137857Y-116078571D02*
X162137857Y-114578571D01*
X162995000Y-116078571D01*
X162995000Y-114578571D01*
X146280714Y-118422142D02*
X146495000Y-118493571D01*
X146852142Y-118493571D01*
X146995000Y-118422142D01*
X147066428Y-118350714D01*
X147137857Y-118207857D01*
X147137857Y-118065000D01*
X147066428Y-117922142D01*
X146995000Y-117850714D01*
X146852142Y-117779285D01*
X146566428Y-117707857D01*
X146423571Y-117636428D01*
X146352142Y-117565000D01*
X146280714Y-117422142D01*
X146280714Y-117279285D01*
X146352142Y-117136428D01*
X146423571Y-117065000D01*
X146566428Y-116993571D01*
X146923571Y-116993571D01*
X147137857Y-117065000D01*
X147780714Y-118493571D02*
X147780714Y-116993571D01*
X148352142Y-116993571D01*
X148495000Y-117065000D01*
X148566428Y-117136428D01*
X148637857Y-117279285D01*
X148637857Y-117493571D01*
X148566428Y-117636428D01*
X148495000Y-117707857D01*
X148352142Y-117779285D01*
X147780714Y-117779285D01*
X150137857Y-118493571D02*
X149637857Y-117779285D01*
X149280714Y-118493571D02*
X149280714Y-116993571D01*
X149852142Y-116993571D01*
X149995000Y-117065000D01*
X150066428Y-117136428D01*
X150137857Y-117279285D01*
X150137857Y-117493571D01*
X150066428Y-117636428D01*
X149995000Y-117707857D01*
X149852142Y-117779285D01*
X149280714Y-117779285D01*
X150780714Y-118493571D02*
X150780714Y-116993571D01*
X151495000Y-118493571D02*
X151495000Y-116993571D01*
X152352142Y-118493571D01*
X152352142Y-116993571D01*
X153852142Y-117065000D02*
X153709285Y-116993571D01*
X153495000Y-116993571D01*
X153280714Y-117065000D01*
X153137857Y-117207857D01*
X153066428Y-117350714D01*
X152995000Y-117636428D01*
X152995000Y-117850714D01*
X153066428Y-118136428D01*
X153137857Y-118279285D01*
X153280714Y-118422142D01*
X153495000Y-118493571D01*
X153637857Y-118493571D01*
X153852142Y-118422142D01*
X153923571Y-118350714D01*
X153923571Y-117850714D01*
X153637857Y-117850714D01*
X155637857Y-116922142D02*
X154352142Y-118850714D01*
X156066428Y-118422142D02*
X156280714Y-118493571D01*
X156637857Y-118493571D01*
X156780714Y-118422142D01*
X156852142Y-118350714D01*
X156923571Y-118207857D01*
X156923571Y-118065000D01*
X156852142Y-117922142D01*
X156780714Y-117850714D01*
X156637857Y-117779285D01*
X156352142Y-117707857D01*
X156209285Y-117636428D01*
X156137857Y-117565000D01*
X156066428Y-117422142D01*
X156066428Y-117279285D01*
X156137857Y-117136428D01*
X156209285Y-117065000D01*
X156352142Y-116993571D01*
X156709285Y-116993571D01*
X156923571Y-117065000D01*
X157566428Y-116993571D02*
X157566428Y-118207857D01*
X157637857Y-118350714D01*
X157709285Y-118422142D01*
X157852142Y-118493571D01*
X158137857Y-118493571D01*
X158280714Y-118422142D01*
X158352142Y-118350714D01*
X158423571Y-118207857D01*
X158423571Y-116993571D01*
X159137857Y-118493571D02*
X159137857Y-116993571D01*
X159637857Y-118065000D01*
X160137857Y-116993571D01*
X160137857Y-118493571D01*
X160852142Y-118493571D02*
X160852142Y-116993571D01*
X161352142Y-118065000D01*
X161852142Y-116993571D01*
X161852142Y-118493571D01*
X162566428Y-117707857D02*
X163066428Y-117707857D01*
X163280714Y-118493571D02*
X162566428Y-118493571D01*
X162566428Y-116993571D01*
X163280714Y-116993571D01*
X164780714Y-118493571D02*
X164280714Y-117779285D01*
X163923571Y-118493571D02*
X163923571Y-116993571D01*
X164495000Y-116993571D01*
X164637857Y-117065000D01*
X164709285Y-117136428D01*
X164780714Y-117279285D01*
X164780714Y-117493571D01*
X164709285Y-117636428D01*
X164637857Y-117707857D01*
X164495000Y-117779285D01*
X163923571Y-117779285D01*
X166495000Y-117136428D02*
X166566428Y-117065000D01*
X166709285Y-116993571D01*
X167066428Y-116993571D01*
X167209285Y-117065000D01*
X167280714Y-117136428D01*
X167352142Y-117279285D01*
X167352142Y-117422142D01*
X167280714Y-117636428D01*
X166423571Y-118493571D01*
X167352142Y-118493571D01*
X168280714Y-116993571D02*
X168423571Y-116993571D01*
X168566428Y-117065000D01*
X168637857Y-117136428D01*
X168709285Y-117279285D01*
X168780714Y-117565000D01*
X168780714Y-117922142D01*
X168709285Y-118207857D01*
X168637857Y-118350714D01*
X168566428Y-118422142D01*
X168423571Y-118493571D01*
X168280714Y-118493571D01*
X168137857Y-118422142D01*
X168066428Y-118350714D01*
X167995000Y-118207857D01*
X167923571Y-117922142D01*
X167923571Y-117565000D01*
X167995000Y-117279285D01*
X168066428Y-117136428D01*
X168137857Y-117065000D01*
X168280714Y-116993571D01*
X169352142Y-117136428D02*
X169423571Y-117065000D01*
X169566428Y-116993571D01*
X169923571Y-116993571D01*
X170066428Y-117065000D01*
X170137857Y-117136428D01*
X170209285Y-117279285D01*
X170209285Y-117422142D01*
X170137857Y-117636428D01*
X169280714Y-118493571D01*
X170209285Y-118493571D01*
X171137857Y-116993571D02*
X171280714Y-116993571D01*
X171423571Y-117065000D01*
X171495000Y-117136428D01*
X171566428Y-117279285D01*
X171637857Y-117565000D01*
X171637857Y-117922142D01*
X171566428Y-118207857D01*
X171495000Y-118350714D01*
X171423571Y-118422142D01*
X171280714Y-118493571D01*
X171137857Y-118493571D01*
X170995000Y-118422142D01*
X170923571Y-118350714D01*
X170852142Y-118207857D01*
X170780714Y-117922142D01*
X170780714Y-117565000D01*
X170852142Y-117279285D01*
X170923571Y-117136428D01*
X170995000Y-117065000D01*
X171137857Y-116993571D01*
X191228571Y-195575000D02*
X189728571Y-195575000D01*
X190800000Y-195075000D01*
X189728571Y-194575000D01*
X191228571Y-194575000D01*
X191228571Y-193860714D02*
X189728571Y-193860714D01*
X189728571Y-193503571D01*
X189800000Y-193289285D01*
X189942857Y-193146428D01*
X190085714Y-193075000D01*
X190371428Y-193003571D01*
X190585714Y-193003571D01*
X190871428Y-193075000D01*
X191014285Y-193146428D01*
X191157142Y-193289285D01*
X191228571Y-193503571D01*
X191228571Y-193860714D01*
X191278571Y-181000000D02*
X189778571Y-181000000D01*
X190850000Y-180500000D01*
X189778571Y-180000000D01*
X191278571Y-180000000D01*
X191135714Y-178428571D02*
X191207142Y-178500000D01*
X191278571Y-178714285D01*
X191278571Y-178857142D01*
X191207142Y-179071428D01*
X191064285Y-179214285D01*
X190921428Y-179285714D01*
X190635714Y-179357142D01*
X190421428Y-179357142D01*
X190135714Y-179285714D01*
X189992857Y-179214285D01*
X189850000Y-179071428D01*
X189778571Y-178857142D01*
X189778571Y-178714285D01*
X189850000Y-178500000D01*
X189921428Y-178428571D01*
X191328571Y-171750000D02*
X189828571Y-171750000D01*
X190900000Y-171250000D01*
X189828571Y-170750000D01*
X191328571Y-170750000D01*
X190542857Y-169535714D02*
X190614285Y-169321428D01*
X190685714Y-169250000D01*
X190828571Y-169178571D01*
X191042857Y-169178571D01*
X191185714Y-169250000D01*
X191257142Y-169321428D01*
X191328571Y-169464285D01*
X191328571Y-170035714D01*
X189828571Y-170035714D01*
X189828571Y-169535714D01*
X189900000Y-169392857D01*
X189971428Y-169321428D01*
X190114285Y-169250000D01*
X190257142Y-169250000D01*
X190400000Y-169321428D01*
X190471428Y-169392857D01*
X190542857Y-169535714D01*
X190542857Y-170035714D01*
X191303571Y-156692857D02*
X189803571Y-156692857D01*
X190875000Y-156192857D01*
X189803571Y-155692857D01*
X191303571Y-155692857D01*
X190875000Y-155050000D02*
X190875000Y-154335714D01*
X191303571Y-155192857D02*
X189803571Y-154692857D01*
X191303571Y-154192857D01*
D11*
X121464464Y-102713630D02*
X121464464Y-103427916D01*
X121416845Y-103570773D01*
X121321607Y-103666011D01*
X121178750Y-103713630D01*
X121083511Y-103713630D01*
X121940654Y-103189821D02*
X122273988Y-103189821D01*
X122416845Y-103713630D02*
X121940654Y-103713630D01*
X121940654Y-102713630D01*
X122416845Y-102713630D01*
X122702559Y-102713630D02*
X123273988Y-102713630D01*
X122988273Y-103713630D02*
X122988273Y-102713630D01*
X123559702Y-103666011D02*
X123702559Y-103713630D01*
X123940654Y-103713630D01*
X124035892Y-103666011D01*
X124083511Y-103618392D01*
X124131130Y-103523154D01*
X124131130Y-103427916D01*
X124083511Y-103332678D01*
X124035892Y-103285059D01*
X123940654Y-103237440D01*
X123750178Y-103189821D01*
X123654940Y-103142202D01*
X123607321Y-103094583D01*
X123559702Y-102999345D01*
X123559702Y-102904107D01*
X123607321Y-102808869D01*
X123654940Y-102761250D01*
X123750178Y-102713630D01*
X123988273Y-102713630D01*
X124131130Y-102761250D01*
X124750178Y-102713630D02*
X124940654Y-102713630D01*
X125035892Y-102761250D01*
X125131130Y-102856488D01*
X125178750Y-103046964D01*
X125178750Y-103380297D01*
X125131130Y-103570773D01*
X125035892Y-103666011D01*
X124940654Y-103713630D01*
X124750178Y-103713630D01*
X124654940Y-103666011D01*
X124559702Y-103570773D01*
X124512083Y-103380297D01*
X124512083Y-103046964D01*
X124559702Y-102856488D01*
X124654940Y-102761250D01*
X124750178Y-102713630D01*
X125607321Y-103713630D02*
X125607321Y-102713630D01*
X126178750Y-103713630D01*
X126178750Y-102713630D01*
X122226369Y-105323630D02*
X121893035Y-104847440D01*
X121654940Y-105323630D02*
X121654940Y-104323630D01*
X122035892Y-104323630D01*
X122131130Y-104371250D01*
X122178750Y-104418869D01*
X122226369Y-104514107D01*
X122226369Y-104656964D01*
X122178750Y-104752202D01*
X122131130Y-104799821D01*
X122035892Y-104847440D01*
X121654940Y-104847440D01*
X122654940Y-104799821D02*
X122988273Y-104799821D01*
X123131130Y-105323630D02*
X122654940Y-105323630D01*
X122654940Y-104323630D01*
X123131130Y-104323630D01*
X123512083Y-105276011D02*
X123654940Y-105323630D01*
X123893035Y-105323630D01*
X123988273Y-105276011D01*
X124035892Y-105228392D01*
X124083511Y-105133154D01*
X124083511Y-105037916D01*
X124035892Y-104942678D01*
X123988273Y-104895059D01*
X123893035Y-104847440D01*
X123702559Y-104799821D01*
X123607321Y-104752202D01*
X123559702Y-104704583D01*
X123512083Y-104609345D01*
X123512083Y-104514107D01*
X123559702Y-104418869D01*
X123607321Y-104371250D01*
X123702559Y-104323630D01*
X123940654Y-104323630D01*
X124083511Y-104371250D01*
X124512083Y-104799821D02*
X124845416Y-104799821D01*
X124988273Y-105323630D02*
X124512083Y-105323630D01*
X124512083Y-104323630D01*
X124988273Y-104323630D01*
X125273988Y-104323630D02*
X125845416Y-104323630D01*
X125559702Y-105323630D02*
X125559702Y-104323630D01*
D13*
X198528571Y-106219047D02*
X198528571Y-106980952D01*
X198147619Y-106600000D02*
X198909523Y-106600000D01*
X198528571Y-108219047D02*
X198528571Y-108980952D01*
X198671428Y-134780952D02*
X198671428Y-134019047D01*
X199052380Y-134400000D02*
X198290476Y-134400000D01*
X198671428Y-132780952D02*
X198671428Y-132019047D01*
D11*
X137541964Y-102593630D02*
X137541964Y-103307916D01*
X137494345Y-103450773D01*
X137399107Y-103546011D01*
X137256250Y-103593630D01*
X137161011Y-103593630D01*
X138018154Y-103069821D02*
X138351488Y-103069821D01*
X138494345Y-103593630D02*
X138018154Y-103593630D01*
X138018154Y-102593630D01*
X138494345Y-102593630D01*
X138780059Y-102593630D02*
X139351488Y-102593630D01*
X139065773Y-103593630D02*
X139065773Y-102593630D01*
X139637202Y-103546011D02*
X139780059Y-103593630D01*
X140018154Y-103593630D01*
X140113392Y-103546011D01*
X140161011Y-103498392D01*
X140208630Y-103403154D01*
X140208630Y-103307916D01*
X140161011Y-103212678D01*
X140113392Y-103165059D01*
X140018154Y-103117440D01*
X139827678Y-103069821D01*
X139732440Y-103022202D01*
X139684821Y-102974583D01*
X139637202Y-102879345D01*
X139637202Y-102784107D01*
X139684821Y-102688869D01*
X139732440Y-102641250D01*
X139827678Y-102593630D01*
X140065773Y-102593630D01*
X140208630Y-102641250D01*
X140827678Y-102593630D02*
X141018154Y-102593630D01*
X141113392Y-102641250D01*
X141208630Y-102736488D01*
X141256250Y-102926964D01*
X141256250Y-103260297D01*
X141208630Y-103450773D01*
X141113392Y-103546011D01*
X141018154Y-103593630D01*
X140827678Y-103593630D01*
X140732440Y-103546011D01*
X140637202Y-103450773D01*
X140589583Y-103260297D01*
X140589583Y-102926964D01*
X140637202Y-102736488D01*
X140732440Y-102641250D01*
X140827678Y-102593630D01*
X141684821Y-103593630D02*
X141684821Y-102593630D01*
X142256250Y-103593630D01*
X142256250Y-102593630D01*
X137446726Y-105203630D02*
X137446726Y-104203630D01*
X137827678Y-104203630D01*
X137922916Y-104251250D01*
X137970535Y-104298869D01*
X138018154Y-104394107D01*
X138018154Y-104536964D01*
X137970535Y-104632202D01*
X137922916Y-104679821D01*
X137827678Y-104727440D01*
X137446726Y-104727440D01*
X138637202Y-104203630D02*
X138827678Y-104203630D01*
X138922916Y-104251250D01*
X139018154Y-104346488D01*
X139065773Y-104536964D01*
X139065773Y-104870297D01*
X139018154Y-105060773D01*
X138922916Y-105156011D01*
X138827678Y-105203630D01*
X138637202Y-105203630D01*
X138541964Y-105156011D01*
X138446726Y-105060773D01*
X138399107Y-104870297D01*
X138399107Y-104536964D01*
X138446726Y-104346488D01*
X138541964Y-104251250D01*
X138637202Y-104203630D01*
X139399107Y-104203630D02*
X139637202Y-105203630D01*
X139827678Y-104489345D01*
X140018154Y-105203630D01*
X140256250Y-104203630D01*
X140637202Y-104679821D02*
X140970535Y-104679821D01*
X141113392Y-105203630D02*
X140637202Y-105203630D01*
X140637202Y-104203630D01*
X141113392Y-104203630D01*
X142113392Y-105203630D02*
X141780059Y-104727440D01*
X141541964Y-105203630D02*
X141541964Y-104203630D01*
X141922916Y-104203630D01*
X142018154Y-104251250D01*
X142065773Y-104298869D01*
X142113392Y-104394107D01*
X142113392Y-104536964D01*
X142065773Y-104632202D01*
X142018154Y-104679821D01*
X141922916Y-104727440D01*
X141541964Y-104727440D01*
X129754464Y-102743630D02*
X129754464Y-103457916D01*
X129706845Y-103600773D01*
X129611607Y-103696011D01*
X129468750Y-103743630D01*
X129373511Y-103743630D01*
X130230654Y-103219821D02*
X130563988Y-103219821D01*
X130706845Y-103743630D02*
X130230654Y-103743630D01*
X130230654Y-102743630D01*
X130706845Y-102743630D01*
X130992559Y-102743630D02*
X131563988Y-102743630D01*
X131278273Y-103743630D02*
X131278273Y-102743630D01*
X131849702Y-103696011D02*
X131992559Y-103743630D01*
X132230654Y-103743630D01*
X132325892Y-103696011D01*
X132373511Y-103648392D01*
X132421130Y-103553154D01*
X132421130Y-103457916D01*
X132373511Y-103362678D01*
X132325892Y-103315059D01*
X132230654Y-103267440D01*
X132040178Y-103219821D01*
X131944940Y-103172202D01*
X131897321Y-103124583D01*
X131849702Y-103029345D01*
X131849702Y-102934107D01*
X131897321Y-102838869D01*
X131944940Y-102791250D01*
X132040178Y-102743630D01*
X132278273Y-102743630D01*
X132421130Y-102791250D01*
X133040178Y-102743630D02*
X133230654Y-102743630D01*
X133325892Y-102791250D01*
X133421130Y-102886488D01*
X133468750Y-103076964D01*
X133468750Y-103410297D01*
X133421130Y-103600773D01*
X133325892Y-103696011D01*
X133230654Y-103743630D01*
X133040178Y-103743630D01*
X132944940Y-103696011D01*
X132849702Y-103600773D01*
X132802083Y-103410297D01*
X132802083Y-103076964D01*
X132849702Y-102886488D01*
X132944940Y-102791250D01*
X133040178Y-102743630D01*
X133897321Y-103743630D02*
X133897321Y-102743630D01*
X134468750Y-103743630D01*
X134468750Y-102743630D01*
X130611607Y-104829821D02*
X130754464Y-104877440D01*
X130802083Y-104925059D01*
X130849702Y-105020297D01*
X130849702Y-105163154D01*
X130802083Y-105258392D01*
X130754464Y-105306011D01*
X130659226Y-105353630D01*
X130278273Y-105353630D01*
X130278273Y-104353630D01*
X130611607Y-104353630D01*
X130706845Y-104401250D01*
X130754464Y-104448869D01*
X130802083Y-104544107D01*
X130802083Y-104639345D01*
X130754464Y-104734583D01*
X130706845Y-104782202D01*
X130611607Y-104829821D01*
X130278273Y-104829821D01*
X131468750Y-104353630D02*
X131659226Y-104353630D01*
X131754464Y-104401250D01*
X131849702Y-104496488D01*
X131897321Y-104686964D01*
X131897321Y-105020297D01*
X131849702Y-105210773D01*
X131754464Y-105306011D01*
X131659226Y-105353630D01*
X131468750Y-105353630D01*
X131373511Y-105306011D01*
X131278273Y-105210773D01*
X131230654Y-105020297D01*
X131230654Y-104686964D01*
X131278273Y-104496488D01*
X131373511Y-104401250D01*
X131468750Y-104353630D01*
X132516369Y-104353630D02*
X132706845Y-104353630D01*
X132802083Y-104401250D01*
X132897321Y-104496488D01*
X132944940Y-104686964D01*
X132944940Y-105020297D01*
X132897321Y-105210773D01*
X132802083Y-105306011D01*
X132706845Y-105353630D01*
X132516369Y-105353630D01*
X132421130Y-105306011D01*
X132325892Y-105210773D01*
X132278273Y-105020297D01*
X132278273Y-104686964D01*
X132325892Y-104496488D01*
X132421130Y-104401250D01*
X132516369Y-104353630D01*
X133230654Y-104353630D02*
X133802083Y-104353630D01*
X133516369Y-105353630D02*
X133516369Y-104353630D01*
D14*
X148490380Y-187574285D02*
X147490380Y-187574285D01*
X147490380Y-187336190D01*
X147538000Y-187193333D01*
X147633238Y-187098095D01*
X147728476Y-187050476D01*
X147918952Y-187002857D01*
X148061809Y-187002857D01*
X148252285Y-187050476D01*
X148347523Y-187098095D01*
X148442761Y-187193333D01*
X148490380Y-187336190D01*
X148490380Y-187574285D01*
X148490380Y-186050476D02*
X148490380Y-186621904D01*
X148490380Y-186336190D02*
X147490380Y-186336190D01*
X147633238Y-186431428D01*
X147728476Y-186526666D01*
X147776095Y-186621904D01*
X148490380Y-185098095D02*
X148490380Y-185669523D01*
X148490380Y-185383809D02*
X147490380Y-185383809D01*
X147633238Y-185479047D01*
X147728476Y-185574285D01*
X147776095Y-185669523D01*
X134520380Y-187828285D02*
X133520380Y-187828285D01*
X133520380Y-187590190D01*
X133568000Y-187447333D01*
X133663238Y-187352095D01*
X133758476Y-187304476D01*
X133948952Y-187256857D01*
X134091809Y-187256857D01*
X134282285Y-187304476D01*
X134377523Y-187352095D01*
X134472761Y-187447333D01*
X134520380Y-187590190D01*
X134520380Y-187828285D01*
X134520380Y-186304476D02*
X134520380Y-186875904D01*
X134520380Y-186590190D02*
X133520380Y-186590190D01*
X133663238Y-186685428D01*
X133758476Y-186780666D01*
X133806095Y-186875904D01*
X133520380Y-185685428D02*
X133520380Y-185590190D01*
X133568000Y-185494952D01*
X133615619Y-185447333D01*
X133710857Y-185399714D01*
X133901333Y-185352095D01*
X134139428Y-185352095D01*
X134329904Y-185399714D01*
X134425142Y-185447333D01*
X134472761Y-185494952D01*
X134520380Y-185590190D01*
X134520380Y-185685428D01*
X134472761Y-185780666D01*
X134425142Y-185828285D01*
X134329904Y-185875904D01*
X134139428Y-185923523D01*
X133901333Y-185923523D01*
X133710857Y-185875904D01*
X133615619Y-185828285D01*
X133568000Y-185780666D01*
X133520380Y-185685428D01*
X101814285Y-118410714D02*
X101064285Y-118410714D01*
X101064285Y-118232142D01*
X101100000Y-118125000D01*
X101171428Y-118053571D01*
X101242857Y-118017857D01*
X101385714Y-117982142D01*
X101492857Y-117982142D01*
X101635714Y-118017857D01*
X101707142Y-118053571D01*
X101778571Y-118125000D01*
X101814285Y-118232142D01*
X101814285Y-118410714D01*
X101814285Y-117267857D02*
X101814285Y-117696428D01*
X101814285Y-117482142D02*
X101064285Y-117482142D01*
X101171428Y-117553571D01*
X101242857Y-117625000D01*
X101278571Y-117696428D01*
X101064285Y-117017857D02*
X101064285Y-116517857D01*
X101814285Y-116839285D01*
X101764285Y-120785714D02*
X101014285Y-120785714D01*
X101014285Y-120607142D01*
X101050000Y-120500000D01*
X101121428Y-120428571D01*
X101192857Y-120392857D01*
X101335714Y-120357142D01*
X101442857Y-120357142D01*
X101585714Y-120392857D01*
X101657142Y-120428571D01*
X101728571Y-120500000D01*
X101764285Y-120607142D01*
X101764285Y-120785714D01*
X101764285Y-119642857D02*
X101764285Y-120071428D01*
X101764285Y-119857142D02*
X101014285Y-119857142D01*
X101121428Y-119928571D01*
X101192857Y-120000000D01*
X101228571Y-120071428D01*
X101014285Y-119000000D02*
X101014285Y-119142857D01*
X101050000Y-119214285D01*
X101085714Y-119250000D01*
X101192857Y-119321428D01*
X101335714Y-119357142D01*
X101621428Y-119357142D01*
X101692857Y-119321428D01*
X101728571Y-119285714D01*
X101764285Y-119214285D01*
X101764285Y-119071428D01*
X101728571Y-119000000D01*
X101692857Y-118964285D01*
X101621428Y-118928571D01*
X101442857Y-118928571D01*
X101371428Y-118964285D01*
X101335714Y-119000000D01*
X101300000Y-119071428D01*
X101300000Y-119214285D01*
X101335714Y-119285714D01*
X101371428Y-119321428D01*
X101442857Y-119357142D01*
X101764285Y-123185714D02*
X101014285Y-123185714D01*
X101014285Y-123007142D01*
X101050000Y-122900000D01*
X101121428Y-122828571D01*
X101192857Y-122792857D01*
X101335714Y-122757142D01*
X101442857Y-122757142D01*
X101585714Y-122792857D01*
X101657142Y-122828571D01*
X101728571Y-122900000D01*
X101764285Y-123007142D01*
X101764285Y-123185714D01*
X101764285Y-122042857D02*
X101764285Y-122471428D01*
X101764285Y-122257142D02*
X101014285Y-122257142D01*
X101121428Y-122328571D01*
X101192857Y-122400000D01*
X101228571Y-122471428D01*
X101014285Y-121364285D02*
X101014285Y-121721428D01*
X101371428Y-121757142D01*
X101335714Y-121721428D01*
X101300000Y-121650000D01*
X101300000Y-121471428D01*
X101335714Y-121400000D01*
X101371428Y-121364285D01*
X101442857Y-121328571D01*
X101621428Y-121328571D01*
X101692857Y-121364285D01*
X101728571Y-121400000D01*
X101764285Y-121471428D01*
X101764285Y-121650000D01*
X101728571Y-121721428D01*
X101692857Y-121757142D01*
X101789285Y-125560714D02*
X101039285Y-125560714D01*
X101039285Y-125382142D01*
X101075000Y-125275000D01*
X101146428Y-125203571D01*
X101217857Y-125167857D01*
X101360714Y-125132142D01*
X101467857Y-125132142D01*
X101610714Y-125167857D01*
X101682142Y-125203571D01*
X101753571Y-125275000D01*
X101789285Y-125382142D01*
X101789285Y-125560714D01*
X101789285Y-124417857D02*
X101789285Y-124846428D01*
X101789285Y-124632142D02*
X101039285Y-124632142D01*
X101146428Y-124703571D01*
X101217857Y-124775000D01*
X101253571Y-124846428D01*
X101289285Y-123775000D02*
X101789285Y-123775000D01*
X101003571Y-123953571D02*
X101539285Y-124132142D01*
X101539285Y-123667857D01*
X101764285Y-128035714D02*
X101014285Y-128035714D01*
X101014285Y-127857142D01*
X101050000Y-127750000D01*
X101121428Y-127678571D01*
X101192857Y-127642857D01*
X101335714Y-127607142D01*
X101442857Y-127607142D01*
X101585714Y-127642857D01*
X101657142Y-127678571D01*
X101728571Y-127750000D01*
X101764285Y-127857142D01*
X101764285Y-128035714D01*
X101764285Y-126892857D02*
X101764285Y-127321428D01*
X101764285Y-127107142D02*
X101014285Y-127107142D01*
X101121428Y-127178571D01*
X101192857Y-127250000D01*
X101228571Y-127321428D01*
X101014285Y-126642857D02*
X101014285Y-126178571D01*
X101300000Y-126428571D01*
X101300000Y-126321428D01*
X101335714Y-126250000D01*
X101371428Y-126214285D01*
X101442857Y-126178571D01*
X101621428Y-126178571D01*
X101692857Y-126214285D01*
X101728571Y-126250000D01*
X101764285Y-126321428D01*
X101764285Y-126535714D01*
X101728571Y-126607142D01*
X101692857Y-126642857D01*
X101739285Y-130385714D02*
X100989285Y-130385714D01*
X100989285Y-130207142D01*
X101025000Y-130100000D01*
X101096428Y-130028571D01*
X101167857Y-129992857D01*
X101310714Y-129957142D01*
X101417857Y-129957142D01*
X101560714Y-129992857D01*
X101632142Y-130028571D01*
X101703571Y-130100000D01*
X101739285Y-130207142D01*
X101739285Y-130385714D01*
X101739285Y-129242857D02*
X101739285Y-129671428D01*
X101739285Y-129457142D02*
X100989285Y-129457142D01*
X101096428Y-129528571D01*
X101167857Y-129600000D01*
X101203571Y-129671428D01*
X101060714Y-128957142D02*
X101025000Y-128921428D01*
X100989285Y-128850000D01*
X100989285Y-128671428D01*
X101025000Y-128600000D01*
X101060714Y-128564285D01*
X101132142Y-128528571D01*
X101203571Y-128528571D01*
X101310714Y-128564285D01*
X101739285Y-128992857D01*
X101739285Y-128528571D01*
X114164880Y-197175595D02*
X113164880Y-197175595D01*
X113164880Y-196937500D01*
X113212500Y-196794642D01*
X113307738Y-196699404D01*
X113402976Y-196651785D01*
X113593452Y-196604166D01*
X113736309Y-196604166D01*
X113926785Y-196651785D01*
X114022023Y-196699404D01*
X114117261Y-196794642D01*
X114164880Y-196937500D01*
X114164880Y-197175595D01*
X114164880Y-196127976D02*
X114164880Y-195937500D01*
X114117261Y-195842261D01*
X114069642Y-195794642D01*
X113926785Y-195699404D01*
X113736309Y-195651785D01*
X113355357Y-195651785D01*
X113260119Y-195699404D01*
X113212500Y-195747023D01*
X113164880Y-195842261D01*
X113164880Y-196032738D01*
X113212500Y-196127976D01*
X113260119Y-196175595D01*
X113355357Y-196223214D01*
X113593452Y-196223214D01*
X113688690Y-196175595D01*
X113736309Y-196127976D01*
X113783928Y-196032738D01*
X113783928Y-195842261D01*
X113736309Y-195747023D01*
X113688690Y-195699404D01*
X113593452Y-195651785D01*
X117614880Y-197175595D02*
X116614880Y-197175595D01*
X116614880Y-196937500D01*
X116662500Y-196794642D01*
X116757738Y-196699404D01*
X116852976Y-196651785D01*
X117043452Y-196604166D01*
X117186309Y-196604166D01*
X117376785Y-196651785D01*
X117472023Y-196699404D01*
X117567261Y-196794642D01*
X117614880Y-196937500D01*
X117614880Y-197175595D01*
X117043452Y-196032738D02*
X116995833Y-196127976D01*
X116948214Y-196175595D01*
X116852976Y-196223214D01*
X116805357Y-196223214D01*
X116710119Y-196175595D01*
X116662500Y-196127976D01*
X116614880Y-196032738D01*
X116614880Y-195842261D01*
X116662500Y-195747023D01*
X116710119Y-195699404D01*
X116805357Y-195651785D01*
X116852976Y-195651785D01*
X116948214Y-195699404D01*
X116995833Y-195747023D01*
X117043452Y-195842261D01*
X117043452Y-196032738D01*
X117091071Y-196127976D01*
X117138690Y-196175595D01*
X117233928Y-196223214D01*
X117424404Y-196223214D01*
X117519642Y-196175595D01*
X117567261Y-196127976D01*
X117614880Y-196032738D01*
X117614880Y-195842261D01*
X117567261Y-195747023D01*
X117519642Y-195699404D01*
X117424404Y-195651785D01*
X117233928Y-195651785D01*
X117138690Y-195699404D01*
X117091071Y-195747023D01*
X117043452Y-195842261D01*
X152011904Y-105952380D02*
X152011904Y-104952380D01*
X152250000Y-104952380D01*
X152392857Y-105000000D01*
X152488095Y-105095238D01*
X152535714Y-105190476D01*
X152583333Y-105380952D01*
X152583333Y-105523809D01*
X152535714Y-105714285D01*
X152488095Y-105809523D01*
X152392857Y-105904761D01*
X152250000Y-105952380D01*
X152011904Y-105952380D01*
X152916666Y-104952380D02*
X153535714Y-104952380D01*
X153202380Y-105333333D01*
X153345238Y-105333333D01*
X153440476Y-105380952D01*
X153488095Y-105428571D01*
X153535714Y-105523809D01*
X153535714Y-105761904D01*
X153488095Y-105857142D01*
X153440476Y-105904761D01*
X153345238Y-105952380D01*
X153059523Y-105952380D01*
X152964285Y-105904761D01*
X152916666Y-105857142D01*
X164317857Y-188130142D02*
X164270238Y-188082523D01*
X164222619Y-187939666D01*
X164222619Y-187844428D01*
X164270238Y-187701571D01*
X164365476Y-187606333D01*
X164460714Y-187558714D01*
X164651190Y-187511095D01*
X164794047Y-187511095D01*
X164984523Y-187558714D01*
X165079761Y-187606333D01*
X165175000Y-187701571D01*
X165222619Y-187844428D01*
X165222619Y-187939666D01*
X165175000Y-188082523D01*
X165127380Y-188130142D01*
X165127380Y-188511095D02*
X165175000Y-188558714D01*
X165222619Y-188653952D01*
X165222619Y-188892047D01*
X165175000Y-188987285D01*
X165127380Y-189034904D01*
X165032142Y-189082523D01*
X164936904Y-189082523D01*
X164794047Y-189034904D01*
X164222619Y-188463476D01*
X164222619Y-189082523D01*
X165222619Y-189987285D02*
X165222619Y-189511095D01*
X164746428Y-189463476D01*
X164794047Y-189511095D01*
X164841666Y-189606333D01*
X164841666Y-189844428D01*
X164794047Y-189939666D01*
X164746428Y-189987285D01*
X164651190Y-190034904D01*
X164413095Y-190034904D01*
X164317857Y-189987285D01*
X164270238Y-189939666D01*
X164222619Y-189844428D01*
X164222619Y-189606333D01*
X164270238Y-189511095D01*
X164317857Y-189463476D01*
X165206857Y-156507142D02*
X165159238Y-156459523D01*
X165111619Y-156316666D01*
X165111619Y-156221428D01*
X165159238Y-156078571D01*
X165254476Y-155983333D01*
X165349714Y-155935714D01*
X165540190Y-155888095D01*
X165683047Y-155888095D01*
X165873523Y-155935714D01*
X165968761Y-155983333D01*
X166064000Y-156078571D01*
X166111619Y-156221428D01*
X166111619Y-156316666D01*
X166064000Y-156459523D01*
X166016380Y-156507142D01*
X165111619Y-157459523D02*
X165111619Y-156888095D01*
X165111619Y-157173809D02*
X166111619Y-157173809D01*
X165968761Y-157078571D01*
X165873523Y-156983333D01*
X165825904Y-156888095D01*
X165111619Y-157935714D02*
X165111619Y-158126190D01*
X165159238Y-158221428D01*
X165206857Y-158269047D01*
X165349714Y-158364285D01*
X165540190Y-158411904D01*
X165921142Y-158411904D01*
X166016380Y-158364285D01*
X166064000Y-158316666D01*
X166111619Y-158221428D01*
X166111619Y-158030952D01*
X166064000Y-157935714D01*
X166016380Y-157888095D01*
X165921142Y-157840476D01*
X165683047Y-157840476D01*
X165587809Y-157888095D01*
X165540190Y-157935714D01*
X165492571Y-158030952D01*
X165492571Y-158221428D01*
X165540190Y-158316666D01*
X165587809Y-158364285D01*
X165683047Y-158411904D01*
X157532380Y-138603333D02*
X158246666Y-138603333D01*
X158389523Y-138650952D01*
X158484761Y-138746190D01*
X158532380Y-138889047D01*
X158532380Y-138984285D01*
X158532380Y-137603333D02*
X158532380Y-138174761D01*
X158532380Y-137889047D02*
X157532380Y-137889047D01*
X157675238Y-137984285D01*
X157770476Y-138079523D01*
X157818095Y-138174761D01*
X161336904Y-127247380D02*
X160860714Y-127247380D01*
X160860714Y-126247380D01*
X161670238Y-126723571D02*
X162003571Y-126723571D01*
X162146428Y-127247380D02*
X161670238Y-127247380D01*
X161670238Y-126247380D01*
X162146428Y-126247380D01*
X162527380Y-126961666D02*
X163003571Y-126961666D01*
X162432142Y-127247380D02*
X162765476Y-126247380D01*
X163098809Y-127247380D01*
X163432142Y-127247380D02*
X163432142Y-126247380D01*
X164003571Y-127247380D02*
X163575000Y-126675952D01*
X164003571Y-126247380D02*
X163432142Y-126818809D01*
X164765476Y-126723571D02*
X164432142Y-126723571D01*
X164432142Y-127247380D02*
X164432142Y-126247380D01*
X164908333Y-126247380D01*
X165241666Y-126961666D02*
X165717857Y-126961666D01*
X165146428Y-127247380D02*
X165479761Y-126247380D01*
X165813095Y-127247380D01*
X166146428Y-126247380D02*
X166146428Y-127056904D01*
X166194047Y-127152142D01*
X166241666Y-127199761D01*
X166336904Y-127247380D01*
X166527380Y-127247380D01*
X166622619Y-127199761D01*
X166670238Y-127152142D01*
X166717857Y-127056904D01*
X166717857Y-126247380D01*
X167670238Y-127247380D02*
X167194047Y-127247380D01*
X167194047Y-126247380D01*
X167860714Y-126247380D02*
X168432142Y-126247380D01*
X168146428Y-127247380D02*
X168146428Y-126247380D01*
X134728571Y-160504761D02*
X134776190Y-160361904D01*
X134823809Y-160314285D01*
X134919047Y-160266666D01*
X135061904Y-160266666D01*
X135157142Y-160314285D01*
X135204761Y-160361904D01*
X135252380Y-160457142D01*
X135252380Y-160838095D01*
X134252380Y-160838095D01*
X134252380Y-160504761D01*
X134300000Y-160409523D01*
X134347619Y-160361904D01*
X134442857Y-160314285D01*
X134538095Y-160314285D01*
X134633333Y-160361904D01*
X134680952Y-160409523D01*
X134728571Y-160504761D01*
X134728571Y-160838095D01*
X134728571Y-159504761D02*
X134776190Y-159361904D01*
X134823809Y-159314285D01*
X134919047Y-159266666D01*
X135061904Y-159266666D01*
X135157142Y-159314285D01*
X135204761Y-159361904D01*
X135252380Y-159457142D01*
X135252380Y-159838095D01*
X134252380Y-159838095D01*
X134252380Y-159504761D01*
X134300000Y-159409523D01*
X134347619Y-159361904D01*
X134442857Y-159314285D01*
X134538095Y-159314285D01*
X134633333Y-159361904D01*
X134680952Y-159409523D01*
X134728571Y-159504761D01*
X134728571Y-159838095D01*
X135252380Y-158314285D02*
X135252380Y-158885714D01*
X135252380Y-158600000D02*
X134252380Y-158600000D01*
X134395238Y-158695238D01*
X134490476Y-158790476D01*
X134538095Y-158885714D01*
X121193380Y-124906095D02*
X122002904Y-124906095D01*
X122098142Y-124858476D01*
X122145761Y-124810857D01*
X122193380Y-124715619D01*
X122193380Y-124525142D01*
X122145761Y-124429904D01*
X122098142Y-124382285D01*
X122002904Y-124334666D01*
X121193380Y-124334666D01*
X122193380Y-123334666D02*
X122193380Y-123906095D01*
X122193380Y-123620380D02*
X121193380Y-123620380D01*
X121336238Y-123715619D01*
X121431476Y-123810857D01*
X121479095Y-123906095D01*
X121193380Y-122715619D02*
X121193380Y-122620380D01*
X121241000Y-122525142D01*
X121288619Y-122477523D01*
X121383857Y-122429904D01*
X121574333Y-122382285D01*
X121812428Y-122382285D01*
X122002904Y-122429904D01*
X122098142Y-122477523D01*
X122145761Y-122525142D01*
X122193380Y-122620380D01*
X122193380Y-122715619D01*
X122145761Y-122810857D01*
X122098142Y-122858476D01*
X122002904Y-122906095D01*
X121812428Y-122953714D01*
X121574333Y-122953714D01*
X121383857Y-122906095D01*
X121288619Y-122858476D01*
X121241000Y-122810857D01*
X121193380Y-122715619D01*
X126802380Y-123099404D02*
X127611904Y-123099404D01*
X127707142Y-123051785D01*
X127754761Y-123004166D01*
X127802380Y-122908928D01*
X127802380Y-122718452D01*
X127754761Y-122623214D01*
X127707142Y-122575595D01*
X127611904Y-122527976D01*
X126802380Y-122527976D01*
X127135714Y-121623214D02*
X127802380Y-121623214D01*
X126754761Y-121861309D02*
X127469047Y-122099404D01*
X127469047Y-121480357D01*
X173302380Y-187811904D02*
X174111904Y-187811904D01*
X174207142Y-187764285D01*
X174254761Y-187716666D01*
X174302380Y-187621428D01*
X174302380Y-187430952D01*
X174254761Y-187335714D01*
X174207142Y-187288095D01*
X174111904Y-187240476D01*
X173302380Y-187240476D01*
X173302380Y-186335714D02*
X173302380Y-186526190D01*
X173350000Y-186621428D01*
X173397619Y-186669047D01*
X173540476Y-186764285D01*
X173730952Y-186811904D01*
X174111904Y-186811904D01*
X174207142Y-186764285D01*
X174254761Y-186716666D01*
X174302380Y-186621428D01*
X174302380Y-186430952D01*
X174254761Y-186335714D01*
X174207142Y-186288095D01*
X174111904Y-186240476D01*
X173873809Y-186240476D01*
X173778571Y-186288095D01*
X173730952Y-186335714D01*
X173683333Y-186430952D01*
X173683333Y-186621428D01*
X173730952Y-186716666D01*
X173778571Y-186764285D01*
X173873809Y-186811904D01*
X173502380Y-163636904D02*
X174311904Y-163636904D01*
X174407142Y-163589285D01*
X174454761Y-163541666D01*
X174502380Y-163446428D01*
X174502380Y-163255952D01*
X174454761Y-163160714D01*
X174407142Y-163113095D01*
X174311904Y-163065476D01*
X173502380Y-163065476D01*
X173502380Y-162113095D02*
X173502380Y-162589285D01*
X173978571Y-162636904D01*
X173930952Y-162589285D01*
X173883333Y-162494047D01*
X173883333Y-162255952D01*
X173930952Y-162160714D01*
X173978571Y-162113095D01*
X174073809Y-162065476D01*
X174311904Y-162065476D01*
X174407142Y-162113095D01*
X174454761Y-162160714D01*
X174502380Y-162255952D01*
X174502380Y-162494047D01*
X174454761Y-162589285D01*
X174407142Y-162636904D01*
X185477380Y-121041666D02*
X185001190Y-121375000D01*
X185477380Y-121613095D02*
X184477380Y-121613095D01*
X184477380Y-121232142D01*
X184525000Y-121136904D01*
X184572619Y-121089285D01*
X184667857Y-121041666D01*
X184810714Y-121041666D01*
X184905952Y-121089285D01*
X184953571Y-121136904D01*
X185001190Y-121232142D01*
X185001190Y-121613095D01*
X185477380Y-120089285D02*
X185477380Y-120660714D01*
X185477380Y-120375000D02*
X184477380Y-120375000D01*
X184620238Y-120470238D01*
X184715476Y-120565476D01*
X184763095Y-120660714D01*
X146002380Y-109359523D02*
X146716666Y-109359523D01*
X146859523Y-109407142D01*
X146954761Y-109502380D01*
X147002380Y-109645238D01*
X147002380Y-109740476D01*
X147002380Y-108359523D02*
X147002380Y-108930952D01*
X147002380Y-108645238D02*
X146002380Y-108645238D01*
X146145238Y-108740476D01*
X146240476Y-108835714D01*
X146288095Y-108930952D01*
X146430952Y-107788095D02*
X146383333Y-107883333D01*
X146335714Y-107930952D01*
X146240476Y-107978571D01*
X146192857Y-107978571D01*
X146097619Y-107930952D01*
X146050000Y-107883333D01*
X146002380Y-107788095D01*
X146002380Y-107597619D01*
X146050000Y-107502380D01*
X146097619Y-107454761D01*
X146192857Y-107407142D01*
X146240476Y-107407142D01*
X146335714Y-107454761D01*
X146383333Y-107502380D01*
X146430952Y-107597619D01*
X146430952Y-107788095D01*
X146478571Y-107883333D01*
X146526190Y-107930952D01*
X146621428Y-107978571D01*
X146811904Y-107978571D01*
X146907142Y-107930952D01*
X146954761Y-107883333D01*
X147002380Y-107788095D01*
X147002380Y-107597619D01*
X146954761Y-107502380D01*
X146907142Y-107454761D01*
X146811904Y-107407142D01*
X146621428Y-107407142D01*
X146526190Y-107454761D01*
X146478571Y-107502380D01*
X146430952Y-107597619D01*
X104238095Y-158752380D02*
X104238095Y-157752380D01*
X104238095Y-158228571D02*
X104809523Y-158228571D01*
X104809523Y-158752380D02*
X104809523Y-157752380D01*
X105238095Y-157847619D02*
X105285714Y-157800000D01*
X105380952Y-157752380D01*
X105619047Y-157752380D01*
X105714285Y-157800000D01*
X105761904Y-157847619D01*
X105809523Y-157942857D01*
X105809523Y-158038095D01*
X105761904Y-158180952D01*
X105190476Y-158752380D01*
X105809523Y-158752380D01*
X126569642Y-137187142D02*
X126522023Y-137234761D01*
X126379166Y-137282380D01*
X126283928Y-137282380D01*
X126141071Y-137234761D01*
X126045833Y-137139523D01*
X125998214Y-137044285D01*
X125950595Y-136853809D01*
X125950595Y-136710952D01*
X125998214Y-136520476D01*
X126045833Y-136425238D01*
X126141071Y-136330000D01*
X126283928Y-136282380D01*
X126379166Y-136282380D01*
X126522023Y-136330000D01*
X126569642Y-136377619D01*
X126902976Y-136282380D02*
X127522023Y-136282380D01*
X127188690Y-136663333D01*
X127331547Y-136663333D01*
X127426785Y-136710952D01*
X127474404Y-136758571D01*
X127522023Y-136853809D01*
X127522023Y-137091904D01*
X127474404Y-137187142D01*
X127426785Y-137234761D01*
X127331547Y-137282380D01*
X127045833Y-137282380D01*
X126950595Y-137234761D01*
X126902976Y-137187142D01*
X128474404Y-137282380D02*
X127902976Y-137282380D01*
X128188690Y-137282380D02*
X128188690Y-136282380D01*
X128093452Y-136425238D01*
X127998214Y-136520476D01*
X127902976Y-136568095D01*
X170628904Y-134910380D02*
X170628904Y-133910380D01*
X170867000Y-133910380D01*
X171009857Y-133958000D01*
X171105095Y-134053238D01*
X171152714Y-134148476D01*
X171200333Y-134338952D01*
X171200333Y-134481809D01*
X171152714Y-134672285D01*
X171105095Y-134767523D01*
X171009857Y-134862761D01*
X170867000Y-134910380D01*
X170628904Y-134910380D01*
X172152714Y-134910380D02*
X171581285Y-134910380D01*
X171867000Y-134910380D02*
X171867000Y-133910380D01*
X171771761Y-134053238D01*
X171676523Y-134148476D01*
X171581285Y-134196095D01*
X138212142Y-116405357D02*
X138259761Y-116452976D01*
X138307380Y-116595833D01*
X138307380Y-116691071D01*
X138259761Y-116833928D01*
X138164523Y-116929166D01*
X138069285Y-116976785D01*
X137878809Y-117024404D01*
X137735952Y-117024404D01*
X137545476Y-116976785D01*
X137450238Y-116929166D01*
X137355000Y-116833928D01*
X137307380Y-116691071D01*
X137307380Y-116595833D01*
X137355000Y-116452976D01*
X137402619Y-116405357D01*
X137307380Y-116072023D02*
X137307380Y-115452976D01*
X137688333Y-115786309D01*
X137688333Y-115643452D01*
X137735952Y-115548214D01*
X137783571Y-115500595D01*
X137878809Y-115452976D01*
X138116904Y-115452976D01*
X138212142Y-115500595D01*
X138259761Y-115548214D01*
X138307380Y-115643452D01*
X138307380Y-115929166D01*
X138259761Y-116024404D01*
X138212142Y-116072023D01*
X137307380Y-114833928D02*
X137307380Y-114738690D01*
X137355000Y-114643452D01*
X137402619Y-114595833D01*
X137497857Y-114548214D01*
X137688333Y-114500595D01*
X137926428Y-114500595D01*
X138116904Y-114548214D01*
X138212142Y-114595833D01*
X138259761Y-114643452D01*
X138307380Y-114738690D01*
X138307380Y-114833928D01*
X138259761Y-114929166D01*
X138212142Y-114976785D01*
X138116904Y-115024404D01*
X137926428Y-115072023D01*
X137688333Y-115072023D01*
X137497857Y-115024404D01*
X137402619Y-114976785D01*
X137355000Y-114929166D01*
X137307380Y-114833928D01*
X146883333Y-182882380D02*
X146407142Y-182882380D01*
X146407142Y-181882380D01*
X147645238Y-182215714D02*
X147645238Y-182882380D01*
X147407142Y-181834761D02*
X147169047Y-182549047D01*
X147788095Y-182549047D01*
X132823333Y-182922380D02*
X132347142Y-182922380D01*
X132347142Y-181922380D01*
X133061428Y-181922380D02*
X133680476Y-181922380D01*
X133347142Y-182303333D01*
X133490000Y-182303333D01*
X133585238Y-182350952D01*
X133632857Y-182398571D01*
X133680476Y-182493809D01*
X133680476Y-182731904D01*
X133632857Y-182827142D01*
X133585238Y-182874761D01*
X133490000Y-182922380D01*
X133204285Y-182922380D01*
X133109047Y-182874761D01*
X133061428Y-182827142D01*
X108453571Y-178184523D02*
X108453571Y-178517857D01*
X108977380Y-178517857D02*
X107977380Y-178517857D01*
X107977380Y-178041666D01*
X107977380Y-177803571D02*
X107977380Y-177232142D01*
X108977380Y-177517857D02*
X107977380Y-177517857D01*
X108977380Y-176898809D02*
X107977380Y-176898809D01*
X107977380Y-176660714D01*
X108025000Y-176517857D01*
X108120238Y-176422619D01*
X108215476Y-176375000D01*
X108405952Y-176327380D01*
X108548809Y-176327380D01*
X108739285Y-176375000D01*
X108834523Y-176422619D01*
X108929761Y-176517857D01*
X108977380Y-176660714D01*
X108977380Y-176898809D01*
X108977380Y-175898809D02*
X107977380Y-175898809D01*
X108453571Y-174327380D02*
X108501190Y-174184523D01*
X108548809Y-174136904D01*
X108644047Y-174089285D01*
X108786904Y-174089285D01*
X108882142Y-174136904D01*
X108929761Y-174184523D01*
X108977380Y-174279761D01*
X108977380Y-174660714D01*
X107977380Y-174660714D01*
X107977380Y-174327380D01*
X108025000Y-174232142D01*
X108072619Y-174184523D01*
X108167857Y-174136904D01*
X108263095Y-174136904D01*
X108358333Y-174184523D01*
X108405952Y-174232142D01*
X108453571Y-174327380D01*
X108453571Y-174660714D01*
X108691666Y-173708333D02*
X108691666Y-173232142D01*
X108977380Y-173803571D02*
X107977380Y-173470238D01*
X108977380Y-173136904D01*
X108882142Y-172232142D02*
X108929761Y-172279761D01*
X108977380Y-172422619D01*
X108977380Y-172517857D01*
X108929761Y-172660714D01*
X108834523Y-172755952D01*
X108739285Y-172803571D01*
X108548809Y-172851190D01*
X108405952Y-172851190D01*
X108215476Y-172803571D01*
X108120238Y-172755952D01*
X108025000Y-172660714D01*
X107977380Y-172517857D01*
X107977380Y-172422619D01*
X108025000Y-172279761D01*
X108072619Y-172232142D01*
X108977380Y-171803571D02*
X107977380Y-171803571D01*
X108977380Y-171232142D02*
X108405952Y-171660714D01*
X107977380Y-171232142D02*
X108548809Y-171803571D01*
X107977380Y-170803571D02*
X108786904Y-170803571D01*
X108882142Y-170755952D01*
X108929761Y-170708333D01*
X108977380Y-170613095D01*
X108977380Y-170422619D01*
X108929761Y-170327380D01*
X108882142Y-170279761D01*
X108786904Y-170232142D01*
X107977380Y-170232142D01*
X108977380Y-169755952D02*
X107977380Y-169755952D01*
X107977380Y-169375000D01*
X108025000Y-169279761D01*
X108072619Y-169232142D01*
X108167857Y-169184523D01*
X108310714Y-169184523D01*
X108405952Y-169232142D01*
X108453571Y-169279761D01*
X108501190Y-169375000D01*
X108501190Y-169755952D01*
X121177380Y-120138095D02*
X121986904Y-120138095D01*
X122082142Y-120090476D01*
X122129761Y-120042857D01*
X122177380Y-119947619D01*
X122177380Y-119757142D01*
X122129761Y-119661904D01*
X122082142Y-119614285D01*
X121986904Y-119566666D01*
X121177380Y-119566666D01*
X122177380Y-118566666D02*
X122177380Y-119138095D01*
X122177380Y-118852380D02*
X121177380Y-118852380D01*
X121320238Y-118947619D01*
X121415476Y-119042857D01*
X121463095Y-119138095D01*
X122177380Y-117614285D02*
X122177380Y-118185714D01*
X122177380Y-117900000D02*
X121177380Y-117900000D01*
X121320238Y-117995238D01*
X121415476Y-118090476D01*
X121463095Y-118185714D01*
X121193380Y-129001904D02*
X122002904Y-129001904D01*
X122098142Y-128954285D01*
X122145761Y-128906666D01*
X122193380Y-128811428D01*
X122193380Y-128620952D01*
X122145761Y-128525714D01*
X122098142Y-128478095D01*
X122002904Y-128430476D01*
X121193380Y-128430476D01*
X122193380Y-127906666D02*
X122193380Y-127716190D01*
X122145761Y-127620952D01*
X122098142Y-127573333D01*
X121955285Y-127478095D01*
X121764809Y-127430476D01*
X121383857Y-127430476D01*
X121288619Y-127478095D01*
X121241000Y-127525714D01*
X121193380Y-127620952D01*
X121193380Y-127811428D01*
X121241000Y-127906666D01*
X121288619Y-127954285D01*
X121383857Y-128001904D01*
X121621952Y-128001904D01*
X121717190Y-127954285D01*
X121764809Y-127906666D01*
X121812428Y-127811428D01*
X121812428Y-127620952D01*
X121764809Y-127525714D01*
X121717190Y-127478095D01*
X121621952Y-127430476D01*
X141552380Y-178261904D02*
X142361904Y-178261904D01*
X142457142Y-178214285D01*
X142504761Y-178166666D01*
X142552380Y-178071428D01*
X142552380Y-177880952D01*
X142504761Y-177785714D01*
X142457142Y-177738095D01*
X142361904Y-177690476D01*
X141552380Y-177690476D01*
X141980952Y-177071428D02*
X141933333Y-177166666D01*
X141885714Y-177214285D01*
X141790476Y-177261904D01*
X141742857Y-177261904D01*
X141647619Y-177214285D01*
X141600000Y-177166666D01*
X141552380Y-177071428D01*
X141552380Y-176880952D01*
X141600000Y-176785714D01*
X141647619Y-176738095D01*
X141742857Y-176690476D01*
X141790476Y-176690476D01*
X141885714Y-176738095D01*
X141933333Y-176785714D01*
X141980952Y-176880952D01*
X141980952Y-177071428D01*
X142028571Y-177166666D01*
X142076190Y-177214285D01*
X142171428Y-177261904D01*
X142361904Y-177261904D01*
X142457142Y-177214285D01*
X142504761Y-177166666D01*
X142552380Y-177071428D01*
X142552380Y-176880952D01*
X142504761Y-176785714D01*
X142457142Y-176738095D01*
X142361904Y-176690476D01*
X142171428Y-176690476D01*
X142076190Y-176738095D01*
X142028571Y-176785714D01*
X141980952Y-176880952D01*
X127552380Y-178261904D02*
X128361904Y-178261904D01*
X128457142Y-178214285D01*
X128504761Y-178166666D01*
X128552380Y-178071428D01*
X128552380Y-177880952D01*
X128504761Y-177785714D01*
X128457142Y-177738095D01*
X128361904Y-177690476D01*
X127552380Y-177690476D01*
X127552380Y-177309523D02*
X127552380Y-176642857D01*
X128552380Y-177071428D01*
X113121309Y-141452380D02*
X113121309Y-142166666D01*
X113073690Y-142309523D01*
X112978452Y-142404761D01*
X112835595Y-142452380D01*
X112740357Y-142452380D01*
X114168928Y-142452380D02*
X113835595Y-141976190D01*
X113597500Y-142452380D02*
X113597500Y-141452380D01*
X113978452Y-141452380D01*
X114073690Y-141500000D01*
X114121309Y-141547619D01*
X114168928Y-141642857D01*
X114168928Y-141785714D01*
X114121309Y-141880952D01*
X114073690Y-141928571D01*
X113978452Y-141976190D01*
X113597500Y-141976190D01*
X114502261Y-141452380D02*
X115168928Y-142452380D01*
X115168928Y-141452380D02*
X114502261Y-142452380D01*
X102371309Y-153332380D02*
X102371309Y-154046666D01*
X102323690Y-154189523D01*
X102228452Y-154284761D01*
X102085595Y-154332380D01*
X101990357Y-154332380D01*
X102704642Y-153332380D02*
X103276071Y-153332380D01*
X102990357Y-154332380D02*
X102990357Y-153332380D01*
X103514166Y-153332380D02*
X104180833Y-154332380D01*
X104180833Y-153332380D02*
X103514166Y-154332380D01*
X111148642Y-119795380D02*
X110815309Y-119319190D01*
X110577214Y-119795380D02*
X110577214Y-118795380D01*
X110958166Y-118795380D01*
X111053404Y-118843000D01*
X111101023Y-118890619D01*
X111148642Y-118985857D01*
X111148642Y-119128714D01*
X111101023Y-119223952D01*
X111053404Y-119271571D01*
X110958166Y-119319190D01*
X110577214Y-119319190D01*
X112005785Y-119128714D02*
X112005785Y-119795380D01*
X111767690Y-118747761D02*
X111529595Y-119462047D01*
X112148642Y-119462047D01*
X112434357Y-118795380D02*
X113053404Y-118795380D01*
X112720071Y-119176333D01*
X112862928Y-119176333D01*
X112958166Y-119223952D01*
X113005785Y-119271571D01*
X113053404Y-119366809D01*
X113053404Y-119604904D01*
X113005785Y-119700142D01*
X112958166Y-119747761D01*
X112862928Y-119795380D01*
X112577214Y-119795380D01*
X112481976Y-119747761D01*
X112434357Y-119700142D01*
X111148642Y-121446380D02*
X110815309Y-120970190D01*
X110577214Y-121446380D02*
X110577214Y-120446380D01*
X110958166Y-120446380D01*
X111053404Y-120494000D01*
X111101023Y-120541619D01*
X111148642Y-120636857D01*
X111148642Y-120779714D01*
X111101023Y-120874952D01*
X111053404Y-120922571D01*
X110958166Y-120970190D01*
X110577214Y-120970190D01*
X112005785Y-120779714D02*
X112005785Y-121446380D01*
X111767690Y-120398761D02*
X111529595Y-121113047D01*
X112148642Y-121113047D01*
X112481976Y-120541619D02*
X112529595Y-120494000D01*
X112624833Y-120446380D01*
X112862928Y-120446380D01*
X112958166Y-120494000D01*
X113005785Y-120541619D01*
X113053404Y-120636857D01*
X113053404Y-120732095D01*
X113005785Y-120874952D01*
X112434357Y-121446380D01*
X113053404Y-121446380D01*
X111148642Y-123097380D02*
X110815309Y-122621190D01*
X110577214Y-123097380D02*
X110577214Y-122097380D01*
X110958166Y-122097380D01*
X111053404Y-122145000D01*
X111101023Y-122192619D01*
X111148642Y-122287857D01*
X111148642Y-122430714D01*
X111101023Y-122525952D01*
X111053404Y-122573571D01*
X110958166Y-122621190D01*
X110577214Y-122621190D01*
X112005785Y-122430714D02*
X112005785Y-123097380D01*
X111767690Y-122049761D02*
X111529595Y-122764047D01*
X112148642Y-122764047D01*
X113053404Y-123097380D02*
X112481976Y-123097380D01*
X112767690Y-123097380D02*
X112767690Y-122097380D01*
X112672452Y-122240238D01*
X112577214Y-122335476D01*
X112481976Y-122383095D01*
X111148642Y-124748380D02*
X110815309Y-124272190D01*
X110577214Y-124748380D02*
X110577214Y-123748380D01*
X110958166Y-123748380D01*
X111053404Y-123796000D01*
X111101023Y-123843619D01*
X111148642Y-123938857D01*
X111148642Y-124081714D01*
X111101023Y-124176952D01*
X111053404Y-124224571D01*
X110958166Y-124272190D01*
X110577214Y-124272190D01*
X112005785Y-124081714D02*
X112005785Y-124748380D01*
X111767690Y-123700761D02*
X111529595Y-124415047D01*
X112148642Y-124415047D01*
X112720071Y-123748380D02*
X112815309Y-123748380D01*
X112910547Y-123796000D01*
X112958166Y-123843619D01*
X113005785Y-123938857D01*
X113053404Y-124129333D01*
X113053404Y-124367428D01*
X113005785Y-124557904D01*
X112958166Y-124653142D01*
X112910547Y-124700761D01*
X112815309Y-124748380D01*
X112720071Y-124748380D01*
X112624833Y-124700761D01*
X112577214Y-124653142D01*
X112529595Y-124557904D01*
X112481976Y-124367428D01*
X112481976Y-124129333D01*
X112529595Y-123938857D01*
X112577214Y-123843619D01*
X112624833Y-123796000D01*
X112720071Y-123748380D01*
X125129380Y-125827857D02*
X124653190Y-126161190D01*
X125129380Y-126399285D02*
X124129380Y-126399285D01*
X124129380Y-126018333D01*
X124177000Y-125923095D01*
X124224619Y-125875476D01*
X124319857Y-125827857D01*
X124462714Y-125827857D01*
X124557952Y-125875476D01*
X124605571Y-125923095D01*
X124653190Y-126018333D01*
X124653190Y-126399285D01*
X124129380Y-125494523D02*
X124129380Y-124875476D01*
X124510333Y-125208809D01*
X124510333Y-125065952D01*
X124557952Y-124970714D01*
X124605571Y-124923095D01*
X124700809Y-124875476D01*
X124938904Y-124875476D01*
X125034142Y-124923095D01*
X125081761Y-124970714D01*
X125129380Y-125065952D01*
X125129380Y-125351666D01*
X125081761Y-125446904D01*
X125034142Y-125494523D01*
X125129380Y-124399285D02*
X125129380Y-124208809D01*
X125081761Y-124113571D01*
X125034142Y-124065952D01*
X124891285Y-123970714D01*
X124700809Y-123923095D01*
X124319857Y-123923095D01*
X124224619Y-123970714D01*
X124177000Y-124018333D01*
X124129380Y-124113571D01*
X124129380Y-124304047D01*
X124177000Y-124399285D01*
X124224619Y-124446904D01*
X124319857Y-124494523D01*
X124557952Y-124494523D01*
X124653190Y-124446904D01*
X124700809Y-124399285D01*
X124748428Y-124304047D01*
X124748428Y-124113571D01*
X124700809Y-124018333D01*
X124653190Y-123970714D01*
X124557952Y-123923095D01*
X125129380Y-122779857D02*
X124653190Y-123113190D01*
X125129380Y-123351285D02*
X124129380Y-123351285D01*
X124129380Y-122970333D01*
X124177000Y-122875095D01*
X124224619Y-122827476D01*
X124319857Y-122779857D01*
X124462714Y-122779857D01*
X124557952Y-122827476D01*
X124605571Y-122875095D01*
X124653190Y-122970333D01*
X124653190Y-123351285D01*
X124129380Y-122446523D02*
X124129380Y-121827476D01*
X124510333Y-122160809D01*
X124510333Y-122017952D01*
X124557952Y-121922714D01*
X124605571Y-121875095D01*
X124700809Y-121827476D01*
X124938904Y-121827476D01*
X125034142Y-121875095D01*
X125081761Y-121922714D01*
X125129380Y-122017952D01*
X125129380Y-122303666D01*
X125081761Y-122398904D01*
X125034142Y-122446523D01*
X124557952Y-121256047D02*
X124510333Y-121351285D01*
X124462714Y-121398904D01*
X124367476Y-121446523D01*
X124319857Y-121446523D01*
X124224619Y-121398904D01*
X124177000Y-121351285D01*
X124129380Y-121256047D01*
X124129380Y-121065571D01*
X124177000Y-120970333D01*
X124224619Y-120922714D01*
X124319857Y-120875095D01*
X124367476Y-120875095D01*
X124462714Y-120922714D01*
X124510333Y-120970333D01*
X124557952Y-121065571D01*
X124557952Y-121256047D01*
X124605571Y-121351285D01*
X124653190Y-121398904D01*
X124748428Y-121446523D01*
X124938904Y-121446523D01*
X125034142Y-121398904D01*
X125081761Y-121351285D01*
X125129380Y-121256047D01*
X125129380Y-121065571D01*
X125081761Y-120970333D01*
X125034142Y-120922714D01*
X124938904Y-120875095D01*
X124748428Y-120875095D01*
X124653190Y-120922714D01*
X124605571Y-120970333D01*
X124557952Y-121065571D01*
X163902380Y-104542857D02*
X163426190Y-104876190D01*
X163902380Y-105114285D02*
X162902380Y-105114285D01*
X162902380Y-104733333D01*
X162950000Y-104638095D01*
X162997619Y-104590476D01*
X163092857Y-104542857D01*
X163235714Y-104542857D01*
X163330952Y-104590476D01*
X163378571Y-104638095D01*
X163426190Y-104733333D01*
X163426190Y-105114285D01*
X162902380Y-104209523D02*
X162902380Y-103590476D01*
X163283333Y-103923809D01*
X163283333Y-103780952D01*
X163330952Y-103685714D01*
X163378571Y-103638095D01*
X163473809Y-103590476D01*
X163711904Y-103590476D01*
X163807142Y-103638095D01*
X163854761Y-103685714D01*
X163902380Y-103780952D01*
X163902380Y-104066666D01*
X163854761Y-104161904D01*
X163807142Y-104209523D01*
X162902380Y-103257142D02*
X162902380Y-102590476D01*
X163902380Y-103019047D01*
X155807142Y-101927380D02*
X155473809Y-101451190D01*
X155235714Y-101927380D02*
X155235714Y-100927380D01*
X155616666Y-100927380D01*
X155711904Y-100975000D01*
X155759523Y-101022619D01*
X155807142Y-101117857D01*
X155807142Y-101260714D01*
X155759523Y-101355952D01*
X155711904Y-101403571D01*
X155616666Y-101451190D01*
X155235714Y-101451190D01*
X156140476Y-100927380D02*
X156759523Y-100927380D01*
X156426190Y-101308333D01*
X156569047Y-101308333D01*
X156664285Y-101355952D01*
X156711904Y-101403571D01*
X156759523Y-101498809D01*
X156759523Y-101736904D01*
X156711904Y-101832142D01*
X156664285Y-101879761D01*
X156569047Y-101927380D01*
X156283333Y-101927380D01*
X156188095Y-101879761D01*
X156140476Y-101832142D01*
X157616666Y-100927380D02*
X157426190Y-100927380D01*
X157330952Y-100975000D01*
X157283333Y-101022619D01*
X157188095Y-101165476D01*
X157140476Y-101355952D01*
X157140476Y-101736904D01*
X157188095Y-101832142D01*
X157235714Y-101879761D01*
X157330952Y-101927380D01*
X157521428Y-101927380D01*
X157616666Y-101879761D01*
X157664285Y-101832142D01*
X157711904Y-101736904D01*
X157711904Y-101498809D01*
X157664285Y-101403571D01*
X157616666Y-101355952D01*
X157521428Y-101308333D01*
X157330952Y-101308333D01*
X157235714Y-101355952D01*
X157188095Y-101403571D01*
X157140476Y-101498809D01*
X111148642Y-126399380D02*
X110815309Y-125923190D01*
X110577214Y-126399380D02*
X110577214Y-125399380D01*
X110958166Y-125399380D01*
X111053404Y-125447000D01*
X111101023Y-125494619D01*
X111148642Y-125589857D01*
X111148642Y-125732714D01*
X111101023Y-125827952D01*
X111053404Y-125875571D01*
X110958166Y-125923190D01*
X110577214Y-125923190D01*
X111481976Y-125399380D02*
X112101023Y-125399380D01*
X111767690Y-125780333D01*
X111910547Y-125780333D01*
X112005785Y-125827952D01*
X112053404Y-125875571D01*
X112101023Y-125970809D01*
X112101023Y-126208904D01*
X112053404Y-126304142D01*
X112005785Y-126351761D01*
X111910547Y-126399380D01*
X111624833Y-126399380D01*
X111529595Y-126351761D01*
X111481976Y-126304142D01*
X113005785Y-125399380D02*
X112529595Y-125399380D01*
X112481976Y-125875571D01*
X112529595Y-125827952D01*
X112624833Y-125780333D01*
X112862928Y-125780333D01*
X112958166Y-125827952D01*
X113005785Y-125875571D01*
X113053404Y-125970809D01*
X113053404Y-126208904D01*
X113005785Y-126304142D01*
X112958166Y-126351761D01*
X112862928Y-126399380D01*
X112624833Y-126399380D01*
X112529595Y-126351761D01*
X112481976Y-126304142D01*
X111148642Y-128050380D02*
X110815309Y-127574190D01*
X110577214Y-128050380D02*
X110577214Y-127050380D01*
X110958166Y-127050380D01*
X111053404Y-127098000D01*
X111101023Y-127145619D01*
X111148642Y-127240857D01*
X111148642Y-127383714D01*
X111101023Y-127478952D01*
X111053404Y-127526571D01*
X110958166Y-127574190D01*
X110577214Y-127574190D01*
X111481976Y-127050380D02*
X112101023Y-127050380D01*
X111767690Y-127431333D01*
X111910547Y-127431333D01*
X112005785Y-127478952D01*
X112053404Y-127526571D01*
X112101023Y-127621809D01*
X112101023Y-127859904D01*
X112053404Y-127955142D01*
X112005785Y-128002761D01*
X111910547Y-128050380D01*
X111624833Y-128050380D01*
X111529595Y-128002761D01*
X111481976Y-127955142D01*
X112958166Y-127383714D02*
X112958166Y-128050380D01*
X112720071Y-127002761D02*
X112481976Y-127717047D01*
X113101023Y-127717047D01*
X112152380Y-195252857D02*
X111676190Y-195586190D01*
X112152380Y-195824285D02*
X111152380Y-195824285D01*
X111152380Y-195443333D01*
X111200000Y-195348095D01*
X111247619Y-195300476D01*
X111342857Y-195252857D01*
X111485714Y-195252857D01*
X111580952Y-195300476D01*
X111628571Y-195348095D01*
X111676190Y-195443333D01*
X111676190Y-195824285D01*
X111152380Y-194919523D02*
X111152380Y-194300476D01*
X111533333Y-194633809D01*
X111533333Y-194490952D01*
X111580952Y-194395714D01*
X111628571Y-194348095D01*
X111723809Y-194300476D01*
X111961904Y-194300476D01*
X112057142Y-194348095D01*
X112104761Y-194395714D01*
X112152380Y-194490952D01*
X112152380Y-194776666D01*
X112104761Y-194871904D01*
X112057142Y-194919523D01*
X111152380Y-193967142D02*
X111152380Y-193348095D01*
X111533333Y-193681428D01*
X111533333Y-193538571D01*
X111580952Y-193443333D01*
X111628571Y-193395714D01*
X111723809Y-193348095D01*
X111961904Y-193348095D01*
X112057142Y-193395714D01*
X112104761Y-193443333D01*
X112152380Y-193538571D01*
X112152380Y-193824285D01*
X112104761Y-193919523D01*
X112057142Y-193967142D01*
X119652380Y-195242857D02*
X119176190Y-195576190D01*
X119652380Y-195814285D02*
X118652380Y-195814285D01*
X118652380Y-195433333D01*
X118700000Y-195338095D01*
X118747619Y-195290476D01*
X118842857Y-195242857D01*
X118985714Y-195242857D01*
X119080952Y-195290476D01*
X119128571Y-195338095D01*
X119176190Y-195433333D01*
X119176190Y-195814285D01*
X118652380Y-194909523D02*
X118652380Y-194290476D01*
X119033333Y-194623809D01*
X119033333Y-194480952D01*
X119080952Y-194385714D01*
X119128571Y-194338095D01*
X119223809Y-194290476D01*
X119461904Y-194290476D01*
X119557142Y-194338095D01*
X119604761Y-194385714D01*
X119652380Y-194480952D01*
X119652380Y-194766666D01*
X119604761Y-194861904D01*
X119557142Y-194909523D01*
X118747619Y-193909523D02*
X118700000Y-193861904D01*
X118652380Y-193766666D01*
X118652380Y-193528571D01*
X118700000Y-193433333D01*
X118747619Y-193385714D01*
X118842857Y-193338095D01*
X118938095Y-193338095D01*
X119080952Y-193385714D01*
X119652380Y-193957142D01*
X119652380Y-193338095D01*
X114827142Y-177612380D02*
X114493809Y-177136190D01*
X114255714Y-177612380D02*
X114255714Y-176612380D01*
X114636666Y-176612380D01*
X114731904Y-176660000D01*
X114779523Y-176707619D01*
X114827142Y-176802857D01*
X114827142Y-176945714D01*
X114779523Y-177040952D01*
X114731904Y-177088571D01*
X114636666Y-177136190D01*
X114255714Y-177136190D01*
X115160476Y-176612380D02*
X115779523Y-176612380D01*
X115446190Y-176993333D01*
X115589047Y-176993333D01*
X115684285Y-177040952D01*
X115731904Y-177088571D01*
X115779523Y-177183809D01*
X115779523Y-177421904D01*
X115731904Y-177517142D01*
X115684285Y-177564761D01*
X115589047Y-177612380D01*
X115303333Y-177612380D01*
X115208095Y-177564761D01*
X115160476Y-177517142D01*
X116731904Y-177612380D02*
X116160476Y-177612380D01*
X116446190Y-177612380D02*
X116446190Y-176612380D01*
X116350952Y-176755238D01*
X116255714Y-176850476D01*
X116160476Y-176898095D01*
X114847142Y-175802380D02*
X114513809Y-175326190D01*
X114275714Y-175802380D02*
X114275714Y-174802380D01*
X114656666Y-174802380D01*
X114751904Y-174850000D01*
X114799523Y-174897619D01*
X114847142Y-174992857D01*
X114847142Y-175135714D01*
X114799523Y-175230952D01*
X114751904Y-175278571D01*
X114656666Y-175326190D01*
X114275714Y-175326190D01*
X115180476Y-174802380D02*
X115799523Y-174802380D01*
X115466190Y-175183333D01*
X115609047Y-175183333D01*
X115704285Y-175230952D01*
X115751904Y-175278571D01*
X115799523Y-175373809D01*
X115799523Y-175611904D01*
X115751904Y-175707142D01*
X115704285Y-175754761D01*
X115609047Y-175802380D01*
X115323333Y-175802380D01*
X115228095Y-175754761D01*
X115180476Y-175707142D01*
X116418571Y-174802380D02*
X116513809Y-174802380D01*
X116609047Y-174850000D01*
X116656666Y-174897619D01*
X116704285Y-174992857D01*
X116751904Y-175183333D01*
X116751904Y-175421428D01*
X116704285Y-175611904D01*
X116656666Y-175707142D01*
X116609047Y-175754761D01*
X116513809Y-175802380D01*
X116418571Y-175802380D01*
X116323333Y-175754761D01*
X116275714Y-175707142D01*
X116228095Y-175611904D01*
X116180476Y-175421428D01*
X116180476Y-175183333D01*
X116228095Y-174992857D01*
X116275714Y-174897619D01*
X116323333Y-174850000D01*
X116418571Y-174802380D01*
X102032142Y-146077380D02*
X101698809Y-145601190D01*
X101460714Y-146077380D02*
X101460714Y-145077380D01*
X101841666Y-145077380D01*
X101936904Y-145125000D01*
X101984523Y-145172619D01*
X102032142Y-145267857D01*
X102032142Y-145410714D01*
X101984523Y-145505952D01*
X101936904Y-145553571D01*
X101841666Y-145601190D01*
X101460714Y-145601190D01*
X102413095Y-145172619D02*
X102460714Y-145125000D01*
X102555952Y-145077380D01*
X102794047Y-145077380D01*
X102889285Y-145125000D01*
X102936904Y-145172619D01*
X102984523Y-145267857D01*
X102984523Y-145363095D01*
X102936904Y-145505952D01*
X102365476Y-146077380D01*
X102984523Y-146077380D01*
X103460714Y-146077380D02*
X103651190Y-146077380D01*
X103746428Y-146029761D01*
X103794047Y-145982142D01*
X103889285Y-145839285D01*
X103936904Y-145648809D01*
X103936904Y-145267857D01*
X103889285Y-145172619D01*
X103841666Y-145125000D01*
X103746428Y-145077380D01*
X103555952Y-145077380D01*
X103460714Y-145125000D01*
X103413095Y-145172619D01*
X103365476Y-145267857D01*
X103365476Y-145505952D01*
X103413095Y-145601190D01*
X103460714Y-145648809D01*
X103555952Y-145696428D01*
X103746428Y-145696428D01*
X103841666Y-145648809D01*
X103889285Y-145601190D01*
X103936904Y-145505952D01*
X102082142Y-151502380D02*
X101748809Y-151026190D01*
X101510714Y-151502380D02*
X101510714Y-150502380D01*
X101891666Y-150502380D01*
X101986904Y-150550000D01*
X102034523Y-150597619D01*
X102082142Y-150692857D01*
X102082142Y-150835714D01*
X102034523Y-150930952D01*
X101986904Y-150978571D01*
X101891666Y-151026190D01*
X101510714Y-151026190D01*
X102463095Y-150597619D02*
X102510714Y-150550000D01*
X102605952Y-150502380D01*
X102844047Y-150502380D01*
X102939285Y-150550000D01*
X102986904Y-150597619D01*
X103034523Y-150692857D01*
X103034523Y-150788095D01*
X102986904Y-150930952D01*
X102415476Y-151502380D01*
X103034523Y-151502380D01*
X103605952Y-150930952D02*
X103510714Y-150883333D01*
X103463095Y-150835714D01*
X103415476Y-150740476D01*
X103415476Y-150692857D01*
X103463095Y-150597619D01*
X103510714Y-150550000D01*
X103605952Y-150502380D01*
X103796428Y-150502380D01*
X103891666Y-150550000D01*
X103939285Y-150597619D01*
X103986904Y-150692857D01*
X103986904Y-150740476D01*
X103939285Y-150835714D01*
X103891666Y-150883333D01*
X103796428Y-150930952D01*
X103605952Y-150930952D01*
X103510714Y-150978571D01*
X103463095Y-151026190D01*
X103415476Y-151121428D01*
X103415476Y-151311904D01*
X103463095Y-151407142D01*
X103510714Y-151454761D01*
X103605952Y-151502380D01*
X103796428Y-151502380D01*
X103891666Y-151454761D01*
X103939285Y-151407142D01*
X103986904Y-151311904D01*
X103986904Y-151121428D01*
X103939285Y-151026190D01*
X103891666Y-150978571D01*
X103796428Y-150930952D01*
X113232380Y-147392857D02*
X112756190Y-147726190D01*
X113232380Y-147964285D02*
X112232380Y-147964285D01*
X112232380Y-147583333D01*
X112280000Y-147488095D01*
X112327619Y-147440476D01*
X112422857Y-147392857D01*
X112565714Y-147392857D01*
X112660952Y-147440476D01*
X112708571Y-147488095D01*
X112756190Y-147583333D01*
X112756190Y-147964285D01*
X112327619Y-147011904D02*
X112280000Y-146964285D01*
X112232380Y-146869047D01*
X112232380Y-146630952D01*
X112280000Y-146535714D01*
X112327619Y-146488095D01*
X112422857Y-146440476D01*
X112518095Y-146440476D01*
X112660952Y-146488095D01*
X113232380Y-147059523D01*
X113232380Y-146440476D01*
X112232380Y-146107142D02*
X112232380Y-145440476D01*
X113232380Y-145869047D01*
X113142380Y-150812857D02*
X112666190Y-151146190D01*
X113142380Y-151384285D02*
X112142380Y-151384285D01*
X112142380Y-151003333D01*
X112190000Y-150908095D01*
X112237619Y-150860476D01*
X112332857Y-150812857D01*
X112475714Y-150812857D01*
X112570952Y-150860476D01*
X112618571Y-150908095D01*
X112666190Y-151003333D01*
X112666190Y-151384285D01*
X112237619Y-150431904D02*
X112190000Y-150384285D01*
X112142380Y-150289047D01*
X112142380Y-150050952D01*
X112190000Y-149955714D01*
X112237619Y-149908095D01*
X112332857Y-149860476D01*
X112428095Y-149860476D01*
X112570952Y-149908095D01*
X113142380Y-150479523D01*
X113142380Y-149860476D01*
X112142380Y-149003333D02*
X112142380Y-149193809D01*
X112190000Y-149289047D01*
X112237619Y-149336666D01*
X112380476Y-149431904D01*
X112570952Y-149479523D01*
X112951904Y-149479523D01*
X113047142Y-149431904D01*
X113094761Y-149384285D01*
X113142380Y-149289047D01*
X113142380Y-149098571D01*
X113094761Y-149003333D01*
X113047142Y-148955714D01*
X112951904Y-148908095D01*
X112713809Y-148908095D01*
X112618571Y-148955714D01*
X112570952Y-149003333D01*
X112523333Y-149098571D01*
X112523333Y-149289047D01*
X112570952Y-149384285D01*
X112618571Y-149431904D01*
X112713809Y-149479523D01*
X153592380Y-185972857D02*
X153116190Y-186306190D01*
X153592380Y-186544285D02*
X152592380Y-186544285D01*
X152592380Y-186163333D01*
X152640000Y-186068095D01*
X152687619Y-186020476D01*
X152782857Y-185972857D01*
X152925714Y-185972857D01*
X153020952Y-186020476D01*
X153068571Y-186068095D01*
X153116190Y-186163333D01*
X153116190Y-186544285D01*
X152687619Y-185591904D02*
X152640000Y-185544285D01*
X152592380Y-185449047D01*
X152592380Y-185210952D01*
X152640000Y-185115714D01*
X152687619Y-185068095D01*
X152782857Y-185020476D01*
X152878095Y-185020476D01*
X153020952Y-185068095D01*
X153592380Y-185639523D01*
X153592380Y-185020476D01*
X152592380Y-184115714D02*
X152592380Y-184591904D01*
X153068571Y-184639523D01*
X153020952Y-184591904D01*
X152973333Y-184496666D01*
X152973333Y-184258571D01*
X153020952Y-184163333D01*
X153068571Y-184115714D01*
X153163809Y-184068095D01*
X153401904Y-184068095D01*
X153497142Y-184115714D01*
X153544761Y-184163333D01*
X153592380Y-184258571D01*
X153592380Y-184496666D01*
X153544761Y-184591904D01*
X153497142Y-184639523D01*
X149702380Y-172402857D02*
X149226190Y-172736190D01*
X149702380Y-172974285D02*
X148702380Y-172974285D01*
X148702380Y-172593333D01*
X148750000Y-172498095D01*
X148797619Y-172450476D01*
X148892857Y-172402857D01*
X149035714Y-172402857D01*
X149130952Y-172450476D01*
X149178571Y-172498095D01*
X149226190Y-172593333D01*
X149226190Y-172974285D01*
X148797619Y-172021904D02*
X148750000Y-171974285D01*
X148702380Y-171879047D01*
X148702380Y-171640952D01*
X148750000Y-171545714D01*
X148797619Y-171498095D01*
X148892857Y-171450476D01*
X148988095Y-171450476D01*
X149130952Y-171498095D01*
X149702380Y-172069523D01*
X149702380Y-171450476D01*
X149035714Y-170593333D02*
X149702380Y-170593333D01*
X148654761Y-170831428D02*
X149369047Y-171069523D01*
X149369047Y-170450476D01*
X155602380Y-172402857D02*
X155126190Y-172736190D01*
X155602380Y-172974285D02*
X154602380Y-172974285D01*
X154602380Y-172593333D01*
X154650000Y-172498095D01*
X154697619Y-172450476D01*
X154792857Y-172402857D01*
X154935714Y-172402857D01*
X155030952Y-172450476D01*
X155078571Y-172498095D01*
X155126190Y-172593333D01*
X155126190Y-172974285D01*
X154697619Y-172021904D02*
X154650000Y-171974285D01*
X154602380Y-171879047D01*
X154602380Y-171640952D01*
X154650000Y-171545714D01*
X154697619Y-171498095D01*
X154792857Y-171450476D01*
X154888095Y-171450476D01*
X155030952Y-171498095D01*
X155602380Y-172069523D01*
X155602380Y-171450476D01*
X154602380Y-171117142D02*
X154602380Y-170498095D01*
X154983333Y-170831428D01*
X154983333Y-170688571D01*
X155030952Y-170593333D01*
X155078571Y-170545714D01*
X155173809Y-170498095D01*
X155411904Y-170498095D01*
X155507142Y-170545714D01*
X155554761Y-170593333D01*
X155602380Y-170688571D01*
X155602380Y-170974285D01*
X155554761Y-171069523D01*
X155507142Y-171117142D01*
X139622380Y-185832857D02*
X139146190Y-186166190D01*
X139622380Y-186404285D02*
X138622380Y-186404285D01*
X138622380Y-186023333D01*
X138670000Y-185928095D01*
X138717619Y-185880476D01*
X138812857Y-185832857D01*
X138955714Y-185832857D01*
X139050952Y-185880476D01*
X139098571Y-185928095D01*
X139146190Y-186023333D01*
X139146190Y-186404285D01*
X138717619Y-185451904D02*
X138670000Y-185404285D01*
X138622380Y-185309047D01*
X138622380Y-185070952D01*
X138670000Y-184975714D01*
X138717619Y-184928095D01*
X138812857Y-184880476D01*
X138908095Y-184880476D01*
X139050952Y-184928095D01*
X139622380Y-185499523D01*
X139622380Y-184880476D01*
X138717619Y-184499523D02*
X138670000Y-184451904D01*
X138622380Y-184356666D01*
X138622380Y-184118571D01*
X138670000Y-184023333D01*
X138717619Y-183975714D01*
X138812857Y-183928095D01*
X138908095Y-183928095D01*
X139050952Y-183975714D01*
X139622380Y-184547142D01*
X139622380Y-183928095D01*
X135752380Y-172142857D02*
X135276190Y-172476190D01*
X135752380Y-172714285D02*
X134752380Y-172714285D01*
X134752380Y-172333333D01*
X134800000Y-172238095D01*
X134847619Y-172190476D01*
X134942857Y-172142857D01*
X135085714Y-172142857D01*
X135180952Y-172190476D01*
X135228571Y-172238095D01*
X135276190Y-172333333D01*
X135276190Y-172714285D01*
X134847619Y-171761904D02*
X134800000Y-171714285D01*
X134752380Y-171619047D01*
X134752380Y-171380952D01*
X134800000Y-171285714D01*
X134847619Y-171238095D01*
X134942857Y-171190476D01*
X135038095Y-171190476D01*
X135180952Y-171238095D01*
X135752380Y-171809523D01*
X135752380Y-171190476D01*
X135752380Y-170238095D02*
X135752380Y-170809523D01*
X135752380Y-170523809D02*
X134752380Y-170523809D01*
X134895238Y-170619047D01*
X134990476Y-170714285D01*
X135038095Y-170809523D01*
X141552380Y-172142857D02*
X141076190Y-172476190D01*
X141552380Y-172714285D02*
X140552380Y-172714285D01*
X140552380Y-172333333D01*
X140600000Y-172238095D01*
X140647619Y-172190476D01*
X140742857Y-172142857D01*
X140885714Y-172142857D01*
X140980952Y-172190476D01*
X141028571Y-172238095D01*
X141076190Y-172333333D01*
X141076190Y-172714285D01*
X140647619Y-171761904D02*
X140600000Y-171714285D01*
X140552380Y-171619047D01*
X140552380Y-171380952D01*
X140600000Y-171285714D01*
X140647619Y-171238095D01*
X140742857Y-171190476D01*
X140838095Y-171190476D01*
X140980952Y-171238095D01*
X141552380Y-171809523D01*
X141552380Y-171190476D01*
X140552380Y-170571428D02*
X140552380Y-170476190D01*
X140600000Y-170380952D01*
X140647619Y-170333333D01*
X140742857Y-170285714D01*
X140933333Y-170238095D01*
X141171428Y-170238095D01*
X141361904Y-170285714D01*
X141457142Y-170333333D01*
X141504761Y-170380952D01*
X141552380Y-170476190D01*
X141552380Y-170571428D01*
X141504761Y-170666666D01*
X141457142Y-170714285D01*
X141361904Y-170761904D01*
X141171428Y-170809523D01*
X140933333Y-170809523D01*
X140742857Y-170761904D01*
X140647619Y-170714285D01*
X140600000Y-170666666D01*
X140552380Y-170571428D01*
X156593642Y-108460880D02*
X156260309Y-107984690D01*
X156022214Y-108460880D02*
X156022214Y-107460880D01*
X156403166Y-107460880D01*
X156498404Y-107508500D01*
X156546023Y-107556119D01*
X156593642Y-107651357D01*
X156593642Y-107794214D01*
X156546023Y-107889452D01*
X156498404Y-107937071D01*
X156403166Y-107984690D01*
X156022214Y-107984690D01*
X157546023Y-108460880D02*
X156974595Y-108460880D01*
X157260309Y-108460880D02*
X157260309Y-107460880D01*
X157165071Y-107603738D01*
X157069833Y-107698976D01*
X156974595Y-107746595D01*
X158022214Y-108460880D02*
X158212690Y-108460880D01*
X158307928Y-108413261D01*
X158355547Y-108365642D01*
X158450785Y-108222785D01*
X158498404Y-108032309D01*
X158498404Y-107651357D01*
X158450785Y-107556119D01*
X158403166Y-107508500D01*
X158307928Y-107460880D01*
X158117452Y-107460880D01*
X158022214Y-107508500D01*
X157974595Y-107556119D01*
X157926976Y-107651357D01*
X157926976Y-107889452D01*
X157974595Y-107984690D01*
X158022214Y-108032309D01*
X158117452Y-108079928D01*
X158307928Y-108079928D01*
X158403166Y-108032309D01*
X158450785Y-107984690D01*
X158498404Y-107889452D01*
X158879761Y-101747619D02*
X158784523Y-101700000D01*
X158689285Y-101604761D01*
X158546428Y-101461904D01*
X158451190Y-101414285D01*
X158355952Y-101414285D01*
X158403571Y-101652380D02*
X158308333Y-101604761D01*
X158213095Y-101509523D01*
X158165476Y-101319047D01*
X158165476Y-100985714D01*
X158213095Y-100795238D01*
X158308333Y-100700000D01*
X158403571Y-100652380D01*
X158594047Y-100652380D01*
X158689285Y-100700000D01*
X158784523Y-100795238D01*
X158832142Y-100985714D01*
X158832142Y-101319047D01*
X158784523Y-101509523D01*
X158689285Y-101604761D01*
X158594047Y-101652380D01*
X158403571Y-101652380D01*
X159689285Y-100985714D02*
X159689285Y-101652380D01*
X159451190Y-100604761D02*
X159213095Y-101319047D01*
X159832142Y-101319047D01*
X107954761Y-144217619D02*
X107859523Y-144170000D01*
X107764285Y-144074761D01*
X107621428Y-143931904D01*
X107526190Y-143884285D01*
X107430952Y-143884285D01*
X107478571Y-144122380D02*
X107383333Y-144074761D01*
X107288095Y-143979523D01*
X107240476Y-143789047D01*
X107240476Y-143455714D01*
X107288095Y-143265238D01*
X107383333Y-143170000D01*
X107478571Y-143122380D01*
X107669047Y-143122380D01*
X107764285Y-143170000D01*
X107859523Y-143265238D01*
X107907142Y-143455714D01*
X107907142Y-143789047D01*
X107859523Y-143979523D01*
X107764285Y-144074761D01*
X107669047Y-144122380D01*
X107478571Y-144122380D01*
X108240476Y-143122380D02*
X108859523Y-143122380D01*
X108526190Y-143503333D01*
X108669047Y-143503333D01*
X108764285Y-143550952D01*
X108811904Y-143598571D01*
X108859523Y-143693809D01*
X108859523Y-143931904D01*
X108811904Y-144027142D01*
X108764285Y-144074761D01*
X108669047Y-144122380D01*
X108383333Y-144122380D01*
X108288095Y-144074761D01*
X108240476Y-144027142D01*
X107914761Y-152727619D02*
X107819523Y-152680000D01*
X107724285Y-152584761D01*
X107581428Y-152441904D01*
X107486190Y-152394285D01*
X107390952Y-152394285D01*
X107438571Y-152632380D02*
X107343333Y-152584761D01*
X107248095Y-152489523D01*
X107200476Y-152299047D01*
X107200476Y-151965714D01*
X107248095Y-151775238D01*
X107343333Y-151680000D01*
X107438571Y-151632380D01*
X107629047Y-151632380D01*
X107724285Y-151680000D01*
X107819523Y-151775238D01*
X107867142Y-151965714D01*
X107867142Y-152299047D01*
X107819523Y-152489523D01*
X107724285Y-152584761D01*
X107629047Y-152632380D01*
X107438571Y-152632380D01*
X108248095Y-151727619D02*
X108295714Y-151680000D01*
X108390952Y-151632380D01*
X108629047Y-151632380D01*
X108724285Y-151680000D01*
X108771904Y-151727619D01*
X108819523Y-151822857D01*
X108819523Y-151918095D01*
X108771904Y-152060952D01*
X108200476Y-152632380D01*
X108819523Y-152632380D01*
X148072380Y-145809523D02*
X148786666Y-145809523D01*
X148929523Y-145857142D01*
X149024761Y-145952380D01*
X149072380Y-146095238D01*
X149072380Y-146190476D01*
X148167619Y-145380952D02*
X148120000Y-145333333D01*
X148072380Y-145238095D01*
X148072380Y-145000000D01*
X148120000Y-144904761D01*
X148167619Y-144857142D01*
X148262857Y-144809523D01*
X148358095Y-144809523D01*
X148500952Y-144857142D01*
X149072380Y-145428571D01*
X149072380Y-144809523D01*
X149072380Y-143857142D02*
X149072380Y-144428571D01*
X149072380Y-144142857D02*
X148072380Y-144142857D01*
X148215238Y-144238095D01*
X148310476Y-144333333D01*
X148358095Y-144428571D01*
X139332380Y-146476190D02*
X138332380Y-146476190D01*
X139237142Y-145428571D02*
X139284761Y-145476190D01*
X139332380Y-145619047D01*
X139332380Y-145714285D01*
X139284761Y-145857142D01*
X139189523Y-145952380D01*
X139094285Y-146000000D01*
X138903809Y-146047619D01*
X138760952Y-146047619D01*
X138570476Y-146000000D01*
X138475238Y-145952380D01*
X138380000Y-145857142D01*
X138332380Y-145714285D01*
X138332380Y-145619047D01*
X138380000Y-145476190D01*
X138427619Y-145428571D01*
X139284761Y-145047619D02*
X139332380Y-144904761D01*
X139332380Y-144666666D01*
X139284761Y-144571428D01*
X139237142Y-144523809D01*
X139141904Y-144476190D01*
X139046666Y-144476190D01*
X138951428Y-144523809D01*
X138903809Y-144571428D01*
X138856190Y-144666666D01*
X138808571Y-144857142D01*
X138760952Y-144952380D01*
X138713333Y-145000000D01*
X138618095Y-145047619D01*
X138522857Y-145047619D01*
X138427619Y-145000000D01*
X138380000Y-144952380D01*
X138332380Y-144857142D01*
X138332380Y-144619047D01*
X138380000Y-144476190D01*
X139332380Y-144047619D02*
X138332380Y-144047619D01*
X138332380Y-143666666D01*
X138380000Y-143571428D01*
X138427619Y-143523809D01*
X138522857Y-143476190D01*
X138665714Y-143476190D01*
X138760952Y-143523809D01*
X138808571Y-143571428D01*
X138856190Y-143666666D01*
X138856190Y-144047619D01*
X103566666Y-183502380D02*
X103566666Y-184216666D01*
X103519047Y-184359523D01*
X103423809Y-184454761D01*
X103280952Y-184502380D01*
X103185714Y-184502380D01*
X104471428Y-183835714D02*
X104471428Y-184502380D01*
X104233333Y-183454761D02*
X103995238Y-184169047D01*
X104614285Y-184169047D01*
X153902380Y-103789285D02*
X152902380Y-103789285D01*
X152902380Y-103551190D01*
X152950000Y-103408333D01*
X153045238Y-103313095D01*
X153140476Y-103265476D01*
X153330952Y-103217857D01*
X153473809Y-103217857D01*
X153664285Y-103265476D01*
X153759523Y-103313095D01*
X153854761Y-103408333D01*
X153902380Y-103551190D01*
X153902380Y-103789285D01*
X153902380Y-102265476D02*
X153902380Y-102836904D01*
X153902380Y-102551190D02*
X152902380Y-102551190D01*
X153045238Y-102646428D01*
X153140476Y-102741666D01*
X153188095Y-102836904D01*
X153330952Y-101694047D02*
X153283333Y-101789285D01*
X153235714Y-101836904D01*
X153140476Y-101884523D01*
X153092857Y-101884523D01*
X152997619Y-101836904D01*
X152950000Y-101789285D01*
X152902380Y-101694047D01*
X152902380Y-101503571D01*
X152950000Y-101408333D01*
X152997619Y-101360714D01*
X153092857Y-101313095D01*
X153140476Y-101313095D01*
X153235714Y-101360714D01*
X153283333Y-101408333D01*
X153330952Y-101503571D01*
X153330952Y-101694047D01*
X153378571Y-101789285D01*
X153426190Y-101836904D01*
X153521428Y-101884523D01*
X153711904Y-101884523D01*
X153807142Y-101836904D01*
X153854761Y-101789285D01*
X153902380Y-101694047D01*
X153902380Y-101503571D01*
X153854761Y-101408333D01*
X153807142Y-101360714D01*
X153711904Y-101313095D01*
X153521428Y-101313095D01*
X153426190Y-101360714D01*
X153378571Y-101408333D01*
X153330952Y-101503571D01*
X109569642Y-166427142D02*
X109522023Y-166474761D01*
X109379166Y-166522380D01*
X109283928Y-166522380D01*
X109141071Y-166474761D01*
X109045833Y-166379523D01*
X108998214Y-166284285D01*
X108950595Y-166093809D01*
X108950595Y-165950952D01*
X108998214Y-165760476D01*
X109045833Y-165665238D01*
X109141071Y-165570000D01*
X109283928Y-165522380D01*
X109379166Y-165522380D01*
X109522023Y-165570000D01*
X109569642Y-165617619D01*
X109902976Y-165522380D02*
X110522023Y-165522380D01*
X110188690Y-165903333D01*
X110331547Y-165903333D01*
X110426785Y-165950952D01*
X110474404Y-165998571D01*
X110522023Y-166093809D01*
X110522023Y-166331904D01*
X110474404Y-166427142D01*
X110426785Y-166474761D01*
X110331547Y-166522380D01*
X110045833Y-166522380D01*
X109950595Y-166474761D01*
X109902976Y-166427142D01*
X110855357Y-165522380D02*
X111474404Y-165522380D01*
X111141071Y-165903333D01*
X111283928Y-165903333D01*
X111379166Y-165950952D01*
X111426785Y-165998571D01*
X111474404Y-166093809D01*
X111474404Y-166331904D01*
X111426785Y-166427142D01*
X111379166Y-166474761D01*
X111283928Y-166522380D01*
X110998214Y-166522380D01*
X110902976Y-166474761D01*
X110855357Y-166427142D01*
X110557142Y-195312857D02*
X110604761Y-195360476D01*
X110652380Y-195503333D01*
X110652380Y-195598571D01*
X110604761Y-195741428D01*
X110509523Y-195836666D01*
X110414285Y-195884285D01*
X110223809Y-195931904D01*
X110080952Y-195931904D01*
X109890476Y-195884285D01*
X109795238Y-195836666D01*
X109700000Y-195741428D01*
X109652380Y-195598571D01*
X109652380Y-195503333D01*
X109700000Y-195360476D01*
X109747619Y-195312857D01*
X109652380Y-194979523D02*
X109652380Y-194360476D01*
X110033333Y-194693809D01*
X110033333Y-194550952D01*
X110080952Y-194455714D01*
X110128571Y-194408095D01*
X110223809Y-194360476D01*
X110461904Y-194360476D01*
X110557142Y-194408095D01*
X110604761Y-194455714D01*
X110652380Y-194550952D01*
X110652380Y-194836666D01*
X110604761Y-194931904D01*
X110557142Y-194979523D01*
X109747619Y-193979523D02*
X109700000Y-193931904D01*
X109652380Y-193836666D01*
X109652380Y-193598571D01*
X109700000Y-193503333D01*
X109747619Y-193455714D01*
X109842857Y-193408095D01*
X109938095Y-193408095D01*
X110080952Y-193455714D01*
X110652380Y-194027142D01*
X110652380Y-193408095D01*
X108747142Y-195302857D02*
X108794761Y-195350476D01*
X108842380Y-195493333D01*
X108842380Y-195588571D01*
X108794761Y-195731428D01*
X108699523Y-195826666D01*
X108604285Y-195874285D01*
X108413809Y-195921904D01*
X108270952Y-195921904D01*
X108080476Y-195874285D01*
X107985238Y-195826666D01*
X107890000Y-195731428D01*
X107842380Y-195588571D01*
X107842380Y-195493333D01*
X107890000Y-195350476D01*
X107937619Y-195302857D01*
X108842380Y-194350476D02*
X108842380Y-194921904D01*
X108842380Y-194636190D02*
X107842380Y-194636190D01*
X107985238Y-194731428D01*
X108080476Y-194826666D01*
X108128095Y-194921904D01*
X107842380Y-193445714D02*
X107842380Y-193921904D01*
X108318571Y-193969523D01*
X108270952Y-193921904D01*
X108223333Y-193826666D01*
X108223333Y-193588571D01*
X108270952Y-193493333D01*
X108318571Y-193445714D01*
X108413809Y-193398095D01*
X108651904Y-193398095D01*
X108747142Y-193445714D01*
X108794761Y-193493333D01*
X108842380Y-193588571D01*
X108842380Y-193826666D01*
X108794761Y-193921904D01*
X108747142Y-193969523D01*
X120247619Y-180238095D02*
X119438095Y-180238095D01*
X119342857Y-180285714D01*
X119295238Y-180333333D01*
X119247619Y-180428571D01*
X119247619Y-180619047D01*
X119295238Y-180714285D01*
X119342857Y-180761904D01*
X119438095Y-180809523D01*
X120247619Y-180809523D01*
X120247619Y-181190476D02*
X120247619Y-181809523D01*
X119866666Y-181476190D01*
X119866666Y-181619047D01*
X119819047Y-181714285D01*
X119771428Y-181761904D01*
X119676190Y-181809523D01*
X119438095Y-181809523D01*
X119342857Y-181761904D01*
X119295238Y-181714285D01*
X119247619Y-181619047D01*
X119247619Y-181333333D01*
X119295238Y-181238095D01*
X119342857Y-181190476D01*
X113819642Y-116287142D02*
X113772023Y-116334761D01*
X113629166Y-116382380D01*
X113533928Y-116382380D01*
X113391071Y-116334761D01*
X113295833Y-116239523D01*
X113248214Y-116144285D01*
X113200595Y-115953809D01*
X113200595Y-115810952D01*
X113248214Y-115620476D01*
X113295833Y-115525238D01*
X113391071Y-115430000D01*
X113533928Y-115382380D01*
X113629166Y-115382380D01*
X113772023Y-115430000D01*
X113819642Y-115477619D01*
X114200595Y-115477619D02*
X114248214Y-115430000D01*
X114343452Y-115382380D01*
X114581547Y-115382380D01*
X114676785Y-115430000D01*
X114724404Y-115477619D01*
X114772023Y-115572857D01*
X114772023Y-115668095D01*
X114724404Y-115810952D01*
X114152976Y-116382380D01*
X114772023Y-116382380D01*
X115248214Y-116382380D02*
X115438690Y-116382380D01*
X115533928Y-116334761D01*
X115581547Y-116287142D01*
X115676785Y-116144285D01*
X115724404Y-115953809D01*
X115724404Y-115572857D01*
X115676785Y-115477619D01*
X115629166Y-115430000D01*
X115533928Y-115382380D01*
X115343452Y-115382380D01*
X115248214Y-115430000D01*
X115200595Y-115477619D01*
X115152976Y-115572857D01*
X115152976Y-115810952D01*
X115200595Y-115906190D01*
X115248214Y-115953809D01*
X115343452Y-116001428D01*
X115533928Y-116001428D01*
X115629166Y-115953809D01*
X115676785Y-115906190D01*
X115724404Y-115810952D01*
X139604761Y-161583333D02*
X139652380Y-161440476D01*
X139652380Y-161202380D01*
X139604761Y-161107142D01*
X139557142Y-161059523D01*
X139461904Y-161011904D01*
X139366666Y-161011904D01*
X139271428Y-161059523D01*
X139223809Y-161107142D01*
X139176190Y-161202380D01*
X139128571Y-161392857D01*
X139080952Y-161488095D01*
X139033333Y-161535714D01*
X138938095Y-161583333D01*
X138842857Y-161583333D01*
X138747619Y-161535714D01*
X138700000Y-161488095D01*
X138652380Y-161392857D01*
X138652380Y-161154761D01*
X138700000Y-161011904D01*
X138652380Y-160678571D02*
X139652380Y-160440476D01*
X138938095Y-160250000D01*
X139652380Y-160059523D01*
X138652380Y-159821428D01*
X138652380Y-159535714D02*
X138652380Y-158916666D01*
X139033333Y-159250000D01*
X139033333Y-159107142D01*
X139080952Y-159011904D01*
X139128571Y-158964285D01*
X139223809Y-158916666D01*
X139461904Y-158916666D01*
X139557142Y-158964285D01*
X139604761Y-159011904D01*
X139652380Y-159107142D01*
X139652380Y-159392857D01*
X139604761Y-159488095D01*
X139557142Y-159535714D01*
X148976190Y-132226190D02*
X149452380Y-132226190D01*
X148452380Y-132559523D02*
X148976190Y-132226190D01*
X148452380Y-131892857D01*
X149452380Y-131035714D02*
X149452380Y-131607142D01*
X149452380Y-131321428D02*
X148452380Y-131321428D01*
X148595238Y-131416666D01*
X148690476Y-131511904D01*
X148738095Y-131607142D01*
X177132142Y-125182142D02*
X177084523Y-125229761D01*
X176941666Y-125277380D01*
X176846428Y-125277380D01*
X176703571Y-125229761D01*
X176608333Y-125134523D01*
X176560714Y-125039285D01*
X176513095Y-124848809D01*
X176513095Y-124705952D01*
X176560714Y-124515476D01*
X176608333Y-124420238D01*
X176703571Y-124325000D01*
X176846428Y-124277380D01*
X176941666Y-124277380D01*
X177084523Y-124325000D01*
X177132142Y-124372619D01*
X178084523Y-125277380D02*
X177513095Y-125277380D01*
X177798809Y-125277380D02*
X177798809Y-124277380D01*
X177703571Y-124420238D01*
X177608333Y-124515476D01*
X177513095Y-124563095D01*
X179036904Y-125277380D02*
X178465476Y-125277380D01*
X178751190Y-125277380D02*
X178751190Y-124277380D01*
X178655952Y-124420238D01*
X178560714Y-124515476D01*
X178465476Y-124563095D01*
X190433333Y-127457142D02*
X190385714Y-127504761D01*
X190242857Y-127552380D01*
X190147619Y-127552380D01*
X190004761Y-127504761D01*
X189909523Y-127409523D01*
X189861904Y-127314285D01*
X189814285Y-127123809D01*
X189814285Y-126980952D01*
X189861904Y-126790476D01*
X189909523Y-126695238D01*
X190004761Y-126600000D01*
X190147619Y-126552380D01*
X190242857Y-126552380D01*
X190385714Y-126600000D01*
X190433333Y-126647619D01*
X191004761Y-126980952D02*
X190909523Y-126933333D01*
X190861904Y-126885714D01*
X190814285Y-126790476D01*
X190814285Y-126742857D01*
X190861904Y-126647619D01*
X190909523Y-126600000D01*
X191004761Y-126552380D01*
X191195238Y-126552380D01*
X191290476Y-126600000D01*
X191338095Y-126647619D01*
X191385714Y-126742857D01*
X191385714Y-126790476D01*
X191338095Y-126885714D01*
X191290476Y-126933333D01*
X191195238Y-126980952D01*
X191004761Y-126980952D01*
X190909523Y-127028571D01*
X190861904Y-127076190D01*
X190814285Y-127171428D01*
X190814285Y-127361904D01*
X190861904Y-127457142D01*
X190909523Y-127504761D01*
X191004761Y-127552380D01*
X191195238Y-127552380D01*
X191290476Y-127504761D01*
X191338095Y-127457142D01*
X191385714Y-127361904D01*
X191385714Y-127171428D01*
X191338095Y-127076190D01*
X191290476Y-127028571D01*
X191195238Y-126980952D01*
X172069642Y-191022380D02*
X171736309Y-190546190D01*
X171498214Y-191022380D02*
X171498214Y-190022380D01*
X171879166Y-190022380D01*
X171974404Y-190070000D01*
X172022023Y-190117619D01*
X172069642Y-190212857D01*
X172069642Y-190355714D01*
X172022023Y-190450952D01*
X171974404Y-190498571D01*
X171879166Y-190546190D01*
X171498214Y-190546190D01*
X173022023Y-191022380D02*
X172450595Y-191022380D01*
X172736309Y-191022380D02*
X172736309Y-190022380D01*
X172641071Y-190165238D01*
X172545833Y-190260476D01*
X172450595Y-190308095D01*
X173879166Y-190022380D02*
X173688690Y-190022380D01*
X173593452Y-190070000D01*
X173545833Y-190117619D01*
X173450595Y-190260476D01*
X173402976Y-190450952D01*
X173402976Y-190831904D01*
X173450595Y-190927142D01*
X173498214Y-190974761D01*
X173593452Y-191022380D01*
X173783928Y-191022380D01*
X173879166Y-190974761D01*
X173926785Y-190927142D01*
X173974404Y-190831904D01*
X173974404Y-190593809D01*
X173926785Y-190498571D01*
X173879166Y-190450952D01*
X173783928Y-190403333D01*
X173593452Y-190403333D01*
X173498214Y-190450952D01*
X173450595Y-190498571D01*
X173402976Y-190593809D01*
X172107142Y-179022380D02*
X171773809Y-178546190D01*
X171535714Y-179022380D02*
X171535714Y-178022380D01*
X171916666Y-178022380D01*
X172011904Y-178070000D01*
X172059523Y-178117619D01*
X172107142Y-178212857D01*
X172107142Y-178355714D01*
X172059523Y-178450952D01*
X172011904Y-178498571D01*
X171916666Y-178546190D01*
X171535714Y-178546190D01*
X173059523Y-179022380D02*
X172488095Y-179022380D01*
X172773809Y-179022380D02*
X172773809Y-178022380D01*
X172678571Y-178165238D01*
X172583333Y-178260476D01*
X172488095Y-178308095D01*
X173964285Y-178022380D02*
X173488095Y-178022380D01*
X173440476Y-178498571D01*
X173488095Y-178450952D01*
X173583333Y-178403333D01*
X173821428Y-178403333D01*
X173916666Y-178450952D01*
X173964285Y-178498571D01*
X174011904Y-178593809D01*
X174011904Y-178831904D01*
X173964285Y-178927142D01*
X173916666Y-178974761D01*
X173821428Y-179022380D01*
X173583333Y-179022380D01*
X173488095Y-178974761D01*
X173440476Y-178927142D01*
X166277142Y-181402380D02*
X165943809Y-180926190D01*
X165705714Y-181402380D02*
X165705714Y-180402380D01*
X166086666Y-180402380D01*
X166181904Y-180450000D01*
X166229523Y-180497619D01*
X166277142Y-180592857D01*
X166277142Y-180735714D01*
X166229523Y-180830952D01*
X166181904Y-180878571D01*
X166086666Y-180926190D01*
X165705714Y-180926190D01*
X167229523Y-181402380D02*
X166658095Y-181402380D01*
X166943809Y-181402380D02*
X166943809Y-180402380D01*
X166848571Y-180545238D01*
X166753333Y-180640476D01*
X166658095Y-180688095D01*
X168086666Y-180735714D02*
X168086666Y-181402380D01*
X167848571Y-180354761D02*
X167610476Y-181069047D01*
X168229523Y-181069047D01*
X172059142Y-167272380D02*
X171725809Y-166796190D01*
X171487714Y-167272380D02*
X171487714Y-166272380D01*
X171868666Y-166272380D01*
X171963904Y-166320000D01*
X172011523Y-166367619D01*
X172059142Y-166462857D01*
X172059142Y-166605714D01*
X172011523Y-166700952D01*
X171963904Y-166748571D01*
X171868666Y-166796190D01*
X171487714Y-166796190D01*
X173011523Y-167272380D02*
X172440095Y-167272380D01*
X172725809Y-167272380D02*
X172725809Y-166272380D01*
X172630571Y-166415238D01*
X172535333Y-166510476D01*
X172440095Y-166558095D01*
X173344857Y-166272380D02*
X173963904Y-166272380D01*
X173630571Y-166653333D01*
X173773428Y-166653333D01*
X173868666Y-166700952D01*
X173916285Y-166748571D01*
X173963904Y-166843809D01*
X173963904Y-167081904D01*
X173916285Y-167177142D01*
X173868666Y-167224761D01*
X173773428Y-167272380D01*
X173487714Y-167272380D01*
X173392476Y-167224761D01*
X173344857Y-167177142D01*
X172107142Y-155022380D02*
X171773809Y-154546190D01*
X171535714Y-155022380D02*
X171535714Y-154022380D01*
X171916666Y-154022380D01*
X172011904Y-154070000D01*
X172059523Y-154117619D01*
X172107142Y-154212857D01*
X172107142Y-154355714D01*
X172059523Y-154450952D01*
X172011904Y-154498571D01*
X171916666Y-154546190D01*
X171535714Y-154546190D01*
X173059523Y-155022380D02*
X172488095Y-155022380D01*
X172773809Y-155022380D02*
X172773809Y-154022380D01*
X172678571Y-154165238D01*
X172583333Y-154260476D01*
X172488095Y-154308095D01*
X173440476Y-154117619D02*
X173488095Y-154070000D01*
X173583333Y-154022380D01*
X173821428Y-154022380D01*
X173916666Y-154070000D01*
X173964285Y-154117619D01*
X174011904Y-154212857D01*
X174011904Y-154308095D01*
X173964285Y-154450952D01*
X173392857Y-155022380D01*
X174011904Y-155022380D01*
X170482142Y-161027380D02*
X170148809Y-160551190D01*
X169910714Y-161027380D02*
X169910714Y-160027380D01*
X170291666Y-160027380D01*
X170386904Y-160075000D01*
X170434523Y-160122619D01*
X170482142Y-160217857D01*
X170482142Y-160360714D01*
X170434523Y-160455952D01*
X170386904Y-160503571D01*
X170291666Y-160551190D01*
X169910714Y-160551190D01*
X171434523Y-161027380D02*
X170863095Y-161027380D01*
X171148809Y-161027380D02*
X171148809Y-160027380D01*
X171053571Y-160170238D01*
X170958333Y-160265476D01*
X170863095Y-160313095D01*
X172386904Y-161027380D02*
X171815476Y-161027380D01*
X172101190Y-161027380D02*
X172101190Y-160027380D01*
X172005952Y-160170238D01*
X171910714Y-160265476D01*
X171815476Y-160313095D01*
X165872380Y-192618095D02*
X164872380Y-192618095D01*
X164872380Y-192380000D01*
X164920000Y-192237142D01*
X165015238Y-192141904D01*
X165110476Y-192094285D01*
X165300952Y-192046666D01*
X165443809Y-192046666D01*
X165634285Y-192094285D01*
X165729523Y-192141904D01*
X165824761Y-192237142D01*
X165872380Y-192380000D01*
X165872380Y-192618095D01*
X164872380Y-191713333D02*
X164872380Y-191046666D01*
X165872380Y-191475238D01*
X169447619Y-191211904D02*
X170447619Y-191211904D01*
X170447619Y-191450000D01*
X170400000Y-191592857D01*
X170304761Y-191688095D01*
X170209523Y-191735714D01*
X170019047Y-191783333D01*
X169876190Y-191783333D01*
X169685714Y-191735714D01*
X169590476Y-191688095D01*
X169495238Y-191592857D01*
X169447619Y-191450000D01*
X169447619Y-191211904D01*
X170447619Y-192640476D02*
X170447619Y-192450000D01*
X170400000Y-192354761D01*
X170352380Y-192307142D01*
X170209523Y-192211904D01*
X170019047Y-192164285D01*
X169638095Y-192164285D01*
X169542857Y-192211904D01*
X169495238Y-192259523D01*
X169447619Y-192354761D01*
X169447619Y-192545238D01*
X169495238Y-192640476D01*
X169542857Y-192688095D01*
X169638095Y-192735714D01*
X169876190Y-192735714D01*
X169971428Y-192688095D01*
X170019047Y-192640476D01*
X170066666Y-192545238D01*
X170066666Y-192354761D01*
X170019047Y-192259523D01*
X169971428Y-192211904D01*
X169876190Y-192164285D01*
X165493380Y-164838095D02*
X164493380Y-164838095D01*
X164493380Y-164600000D01*
X164541000Y-164457142D01*
X164636238Y-164361904D01*
X164731476Y-164314285D01*
X164921952Y-164266666D01*
X165064809Y-164266666D01*
X165255285Y-164314285D01*
X165350523Y-164361904D01*
X165445761Y-164457142D01*
X165493380Y-164600000D01*
X165493380Y-164838095D01*
X164493380Y-163361904D02*
X164493380Y-163838095D01*
X164969571Y-163885714D01*
X164921952Y-163838095D01*
X164874333Y-163742857D01*
X164874333Y-163504761D01*
X164921952Y-163409523D01*
X164969571Y-163361904D01*
X165064809Y-163314285D01*
X165302904Y-163314285D01*
X165398142Y-163361904D01*
X165445761Y-163409523D01*
X165493380Y-163504761D01*
X165493380Y-163742857D01*
X165445761Y-163838095D01*
X165398142Y-163885714D01*
X170747619Y-163261904D02*
X171747619Y-163261904D01*
X171747619Y-163500000D01*
X171700000Y-163642857D01*
X171604761Y-163738095D01*
X171509523Y-163785714D01*
X171319047Y-163833333D01*
X171176190Y-163833333D01*
X170985714Y-163785714D01*
X170890476Y-163738095D01*
X170795238Y-163642857D01*
X170747619Y-163500000D01*
X170747619Y-163261904D01*
X171414285Y-164690476D02*
X170747619Y-164690476D01*
X171795238Y-164452380D02*
X171080952Y-164214285D01*
X171080952Y-164833333D01*
X172107142Y-195537142D02*
X172059523Y-195584761D01*
X171916666Y-195632380D01*
X171821428Y-195632380D01*
X171678571Y-195584761D01*
X171583333Y-195489523D01*
X171535714Y-195394285D01*
X171488095Y-195203809D01*
X171488095Y-195060952D01*
X171535714Y-194870476D01*
X171583333Y-194775238D01*
X171678571Y-194680000D01*
X171821428Y-194632380D01*
X171916666Y-194632380D01*
X172059523Y-194680000D01*
X172107142Y-194727619D01*
X172488095Y-194727619D02*
X172535714Y-194680000D01*
X172630952Y-194632380D01*
X172869047Y-194632380D01*
X172964285Y-194680000D01*
X173011904Y-194727619D01*
X173059523Y-194822857D01*
X173059523Y-194918095D01*
X173011904Y-195060952D01*
X172440476Y-195632380D01*
X173059523Y-195632380D01*
X173630952Y-195060952D02*
X173535714Y-195013333D01*
X173488095Y-194965714D01*
X173440476Y-194870476D01*
X173440476Y-194822857D01*
X173488095Y-194727619D01*
X173535714Y-194680000D01*
X173630952Y-194632380D01*
X173821428Y-194632380D01*
X173916666Y-194680000D01*
X173964285Y-194727619D01*
X174011904Y-194822857D01*
X174011904Y-194870476D01*
X173964285Y-194965714D01*
X173916666Y-195013333D01*
X173821428Y-195060952D01*
X173630952Y-195060952D01*
X173535714Y-195108571D01*
X173488095Y-195156190D01*
X173440476Y-195251428D01*
X173440476Y-195441904D01*
X173488095Y-195537142D01*
X173535714Y-195584761D01*
X173630952Y-195632380D01*
X173821428Y-195632380D01*
X173916666Y-195584761D01*
X173964285Y-195537142D01*
X174011904Y-195441904D01*
X174011904Y-195251428D01*
X173964285Y-195156190D01*
X173916666Y-195108571D01*
X173821428Y-195060952D01*
X172107142Y-183537142D02*
X172059523Y-183584761D01*
X171916666Y-183632380D01*
X171821428Y-183632380D01*
X171678571Y-183584761D01*
X171583333Y-183489523D01*
X171535714Y-183394285D01*
X171488095Y-183203809D01*
X171488095Y-183060952D01*
X171535714Y-182870476D01*
X171583333Y-182775238D01*
X171678571Y-182680000D01*
X171821428Y-182632380D01*
X171916666Y-182632380D01*
X172059523Y-182680000D01*
X172107142Y-182727619D01*
X172488095Y-182727619D02*
X172535714Y-182680000D01*
X172630952Y-182632380D01*
X172869047Y-182632380D01*
X172964285Y-182680000D01*
X173011904Y-182727619D01*
X173059523Y-182822857D01*
X173059523Y-182918095D01*
X173011904Y-183060952D01*
X172440476Y-183632380D01*
X173059523Y-183632380D01*
X173392857Y-182632380D02*
X174059523Y-182632380D01*
X173630952Y-183632380D01*
X169757142Y-184907142D02*
X169709523Y-184954761D01*
X169566666Y-185002380D01*
X169471428Y-185002380D01*
X169328571Y-184954761D01*
X169233333Y-184859523D01*
X169185714Y-184764285D01*
X169138095Y-184573809D01*
X169138095Y-184430952D01*
X169185714Y-184240476D01*
X169233333Y-184145238D01*
X169328571Y-184050000D01*
X169471428Y-184002380D01*
X169566666Y-184002380D01*
X169709523Y-184050000D01*
X169757142Y-184097619D01*
X170138095Y-184097619D02*
X170185714Y-184050000D01*
X170280952Y-184002380D01*
X170519047Y-184002380D01*
X170614285Y-184050000D01*
X170661904Y-184097619D01*
X170709523Y-184192857D01*
X170709523Y-184288095D01*
X170661904Y-184430952D01*
X170090476Y-185002380D01*
X170709523Y-185002380D01*
X171566666Y-184002380D02*
X171376190Y-184002380D01*
X171280952Y-184050000D01*
X171233333Y-184097619D01*
X171138095Y-184240476D01*
X171090476Y-184430952D01*
X171090476Y-184811904D01*
X171138095Y-184907142D01*
X171185714Y-184954761D01*
X171280952Y-185002380D01*
X171471428Y-185002380D01*
X171566666Y-184954761D01*
X171614285Y-184907142D01*
X171661904Y-184811904D01*
X171661904Y-184573809D01*
X171614285Y-184478571D01*
X171566666Y-184430952D01*
X171471428Y-184383333D01*
X171280952Y-184383333D01*
X171185714Y-184430952D01*
X171138095Y-184478571D01*
X171090476Y-184573809D01*
X166907142Y-193862142D02*
X166859523Y-193909761D01*
X166716666Y-193957380D01*
X166621428Y-193957380D01*
X166478571Y-193909761D01*
X166383333Y-193814523D01*
X166335714Y-193719285D01*
X166288095Y-193528809D01*
X166288095Y-193385952D01*
X166335714Y-193195476D01*
X166383333Y-193100238D01*
X166478571Y-193005000D01*
X166621428Y-192957380D01*
X166716666Y-192957380D01*
X166859523Y-193005000D01*
X166907142Y-193052619D01*
X167288095Y-193052619D02*
X167335714Y-193005000D01*
X167430952Y-192957380D01*
X167669047Y-192957380D01*
X167764285Y-193005000D01*
X167811904Y-193052619D01*
X167859523Y-193147857D01*
X167859523Y-193243095D01*
X167811904Y-193385952D01*
X167240476Y-193957380D01*
X167859523Y-193957380D01*
X168716666Y-193290714D02*
X168716666Y-193957380D01*
X168478571Y-192909761D02*
X168240476Y-193624047D01*
X168859523Y-193624047D01*
X187791642Y-172307142D02*
X187744023Y-172354761D01*
X187601166Y-172402380D01*
X187505928Y-172402380D01*
X187363071Y-172354761D01*
X187267833Y-172259523D01*
X187220214Y-172164285D01*
X187172595Y-171973809D01*
X187172595Y-171830952D01*
X187220214Y-171640476D01*
X187267833Y-171545238D01*
X187363071Y-171450000D01*
X187505928Y-171402380D01*
X187601166Y-171402380D01*
X187744023Y-171450000D01*
X187791642Y-171497619D01*
X188172595Y-171497619D02*
X188220214Y-171450000D01*
X188315452Y-171402380D01*
X188553547Y-171402380D01*
X188648785Y-171450000D01*
X188696404Y-171497619D01*
X188744023Y-171592857D01*
X188744023Y-171688095D01*
X188696404Y-171830952D01*
X188124976Y-172402380D01*
X188744023Y-172402380D01*
X189077357Y-171402380D02*
X189696404Y-171402380D01*
X189363071Y-171783333D01*
X189505928Y-171783333D01*
X189601166Y-171830952D01*
X189648785Y-171878571D01*
X189696404Y-171973809D01*
X189696404Y-172211904D01*
X189648785Y-172307142D01*
X189601166Y-172354761D01*
X189505928Y-172402380D01*
X189220214Y-172402380D01*
X189124976Y-172354761D01*
X189077357Y-172307142D01*
X172069642Y-171787142D02*
X172022023Y-171834761D01*
X171879166Y-171882380D01*
X171783928Y-171882380D01*
X171641071Y-171834761D01*
X171545833Y-171739523D01*
X171498214Y-171644285D01*
X171450595Y-171453809D01*
X171450595Y-171310952D01*
X171498214Y-171120476D01*
X171545833Y-171025238D01*
X171641071Y-170930000D01*
X171783928Y-170882380D01*
X171879166Y-170882380D01*
X172022023Y-170930000D01*
X172069642Y-170977619D01*
X172450595Y-170977619D02*
X172498214Y-170930000D01*
X172593452Y-170882380D01*
X172831547Y-170882380D01*
X172926785Y-170930000D01*
X172974404Y-170977619D01*
X173022023Y-171072857D01*
X173022023Y-171168095D01*
X172974404Y-171310952D01*
X172402976Y-171882380D01*
X173022023Y-171882380D01*
X173402976Y-170977619D02*
X173450595Y-170930000D01*
X173545833Y-170882380D01*
X173783928Y-170882380D01*
X173879166Y-170930000D01*
X173926785Y-170977619D01*
X173974404Y-171072857D01*
X173974404Y-171168095D01*
X173926785Y-171310952D01*
X173355357Y-171882380D01*
X173974404Y-171882380D01*
X172107142Y-159537142D02*
X172059523Y-159584761D01*
X171916666Y-159632380D01*
X171821428Y-159632380D01*
X171678571Y-159584761D01*
X171583333Y-159489523D01*
X171535714Y-159394285D01*
X171488095Y-159203809D01*
X171488095Y-159060952D01*
X171535714Y-158870476D01*
X171583333Y-158775238D01*
X171678571Y-158680000D01*
X171821428Y-158632380D01*
X171916666Y-158632380D01*
X172059523Y-158680000D01*
X172107142Y-158727619D01*
X172488095Y-158727619D02*
X172535714Y-158680000D01*
X172630952Y-158632380D01*
X172869047Y-158632380D01*
X172964285Y-158680000D01*
X173011904Y-158727619D01*
X173059523Y-158822857D01*
X173059523Y-158918095D01*
X173011904Y-159060952D01*
X172440476Y-159632380D01*
X173059523Y-159632380D01*
X174011904Y-159632380D02*
X173440476Y-159632380D01*
X173726190Y-159632380D02*
X173726190Y-158632380D01*
X173630952Y-158775238D01*
X173535714Y-158870476D01*
X173440476Y-158918095D01*
X167569642Y-156977142D02*
X167522023Y-157024761D01*
X167379166Y-157072380D01*
X167283928Y-157072380D01*
X167141071Y-157024761D01*
X167045833Y-156929523D01*
X166998214Y-156834285D01*
X166950595Y-156643809D01*
X166950595Y-156500952D01*
X166998214Y-156310476D01*
X167045833Y-156215238D01*
X167141071Y-156120000D01*
X167283928Y-156072380D01*
X167379166Y-156072380D01*
X167522023Y-156120000D01*
X167569642Y-156167619D01*
X167950595Y-156167619D02*
X167998214Y-156120000D01*
X168093452Y-156072380D01*
X168331547Y-156072380D01*
X168426785Y-156120000D01*
X168474404Y-156167619D01*
X168522023Y-156262857D01*
X168522023Y-156358095D01*
X168474404Y-156500952D01*
X167902976Y-157072380D01*
X168522023Y-157072380D01*
X169141071Y-156072380D02*
X169236309Y-156072380D01*
X169331547Y-156120000D01*
X169379166Y-156167619D01*
X169426785Y-156262857D01*
X169474404Y-156453333D01*
X169474404Y-156691428D01*
X169426785Y-156881904D01*
X169379166Y-156977142D01*
X169331547Y-157024761D01*
X169236309Y-157072380D01*
X169141071Y-157072380D01*
X169045833Y-157024761D01*
X168998214Y-156977142D01*
X168950595Y-156881904D01*
X168902976Y-156691428D01*
X168902976Y-156453333D01*
X168950595Y-156262857D01*
X168998214Y-156167619D01*
X169045833Y-156120000D01*
X169141071Y-156072380D01*
X167144642Y-169837142D02*
X167097023Y-169884761D01*
X166954166Y-169932380D01*
X166858928Y-169932380D01*
X166716071Y-169884761D01*
X166620833Y-169789523D01*
X166573214Y-169694285D01*
X166525595Y-169503809D01*
X166525595Y-169360952D01*
X166573214Y-169170476D01*
X166620833Y-169075238D01*
X166716071Y-168980000D01*
X166858928Y-168932380D01*
X166954166Y-168932380D01*
X167097023Y-168980000D01*
X167144642Y-169027619D01*
X168097023Y-169932380D02*
X167525595Y-169932380D01*
X167811309Y-169932380D02*
X167811309Y-168932380D01*
X167716071Y-169075238D01*
X167620833Y-169170476D01*
X167525595Y-169218095D01*
X168668452Y-169360952D02*
X168573214Y-169313333D01*
X168525595Y-169265714D01*
X168477976Y-169170476D01*
X168477976Y-169122857D01*
X168525595Y-169027619D01*
X168573214Y-168980000D01*
X168668452Y-168932380D01*
X168858928Y-168932380D01*
X168954166Y-168980000D01*
X169001785Y-169027619D01*
X169049404Y-169122857D01*
X169049404Y-169170476D01*
X169001785Y-169265714D01*
X168954166Y-169313333D01*
X168858928Y-169360952D01*
X168668452Y-169360952D01*
X168573214Y-169408571D01*
X168525595Y-169456190D01*
X168477976Y-169551428D01*
X168477976Y-169741904D01*
X168525595Y-169837142D01*
X168573214Y-169884761D01*
X168668452Y-169932380D01*
X168858928Y-169932380D01*
X168954166Y-169884761D01*
X169001785Y-169837142D01*
X169049404Y-169741904D01*
X169049404Y-169551428D01*
X169001785Y-169456190D01*
X168954166Y-169408571D01*
X168858928Y-169360952D01*
X188071142Y-196691142D02*
X188023523Y-196738761D01*
X187880666Y-196786380D01*
X187785428Y-196786380D01*
X187642571Y-196738761D01*
X187547333Y-196643523D01*
X187499714Y-196548285D01*
X187452095Y-196357809D01*
X187452095Y-196214952D01*
X187499714Y-196024476D01*
X187547333Y-195929238D01*
X187642571Y-195834000D01*
X187785428Y-195786380D01*
X187880666Y-195786380D01*
X188023523Y-195834000D01*
X188071142Y-195881619D01*
X189023523Y-196786380D02*
X188452095Y-196786380D01*
X188737809Y-196786380D02*
X188737809Y-195786380D01*
X188642571Y-195929238D01*
X188547333Y-196024476D01*
X188452095Y-196072095D01*
X189356857Y-195786380D02*
X190023523Y-195786380D01*
X189594952Y-196786380D01*
X189727500Y-152202380D02*
X189156071Y-152202380D01*
X189441785Y-152202380D02*
X189441785Y-151202380D01*
X189346547Y-151345238D01*
X189251309Y-151440476D01*
X189156071Y-151488095D01*
X190108452Y-151297619D02*
X190156071Y-151250000D01*
X190251309Y-151202380D01*
X190489404Y-151202380D01*
X190584642Y-151250000D01*
X190632261Y-151297619D01*
X190679880Y-151392857D01*
X190679880Y-151488095D01*
X190632261Y-151630952D01*
X190060833Y-152202380D01*
X190679880Y-152202380D01*
X190965595Y-151202380D02*
X191298928Y-152202380D01*
X191632261Y-151202380D01*
X108807261Y-101977380D02*
X108331071Y-101977380D01*
X108283452Y-102453571D01*
X108331071Y-102405952D01*
X108426309Y-102358333D01*
X108664404Y-102358333D01*
X108759642Y-102405952D01*
X108807261Y-102453571D01*
X108854880Y-102548809D01*
X108854880Y-102786904D01*
X108807261Y-102882142D01*
X108759642Y-102929761D01*
X108664404Y-102977380D01*
X108426309Y-102977380D01*
X108331071Y-102929761D01*
X108283452Y-102882142D01*
X109140595Y-101977380D02*
X109473928Y-102977380D01*
X109807261Y-101977380D01*
X147352380Y-132179166D02*
X146876190Y-132512500D01*
X147352380Y-132750595D02*
X146352380Y-132750595D01*
X146352380Y-132369642D01*
X146400000Y-132274404D01*
X146447619Y-132226785D01*
X146542857Y-132179166D01*
X146685714Y-132179166D01*
X146780952Y-132226785D01*
X146828571Y-132274404D01*
X146876190Y-132369642D01*
X146876190Y-132750595D01*
X147352380Y-131702976D02*
X147352380Y-131512500D01*
X147304761Y-131417261D01*
X147257142Y-131369642D01*
X147114285Y-131274404D01*
X146923809Y-131226785D01*
X146542857Y-131226785D01*
X146447619Y-131274404D01*
X146400000Y-131322023D01*
X146352380Y-131417261D01*
X146352380Y-131607738D01*
X146400000Y-131702976D01*
X146447619Y-131750595D01*
X146542857Y-131798214D01*
X146780952Y-131798214D01*
X146876190Y-131750595D01*
X146923809Y-131702976D01*
X146971428Y-131607738D01*
X146971428Y-131417261D01*
X146923809Y-131322023D01*
X146876190Y-131274404D01*
X146780952Y-131226785D01*
X172202380Y-143916666D02*
X172202380Y-144392857D01*
X171202380Y-144392857D01*
X171297619Y-143630952D02*
X171250000Y-143583333D01*
X171202380Y-143488095D01*
X171202380Y-143250000D01*
X171250000Y-143154761D01*
X171297619Y-143107142D01*
X171392857Y-143059523D01*
X171488095Y-143059523D01*
X171630952Y-143107142D01*
X172202380Y-143678571D01*
X172202380Y-143059523D01*
X182322619Y-107458333D02*
X182322619Y-106982142D01*
X183322619Y-106982142D01*
X182322619Y-108315476D02*
X182322619Y-107744047D01*
X182322619Y-108029761D02*
X183322619Y-108029761D01*
X183179761Y-107934523D01*
X183084523Y-107839285D01*
X183036904Y-107744047D01*
X174498430Y-120165857D02*
X174546049Y-120213476D01*
X174593668Y-120356333D01*
X174593668Y-120451571D01*
X174546049Y-120594428D01*
X174450811Y-120689666D01*
X174355573Y-120737285D01*
X174165097Y-120784904D01*
X174022240Y-120784904D01*
X173831764Y-120737285D01*
X173736526Y-120689666D01*
X173641288Y-120594428D01*
X173593668Y-120451571D01*
X173593668Y-120356333D01*
X173641288Y-120213476D01*
X173688907Y-120165857D01*
X174593668Y-119213476D02*
X174593668Y-119784904D01*
X174593668Y-119499190D02*
X173593668Y-119499190D01*
X173736526Y-119594428D01*
X173831764Y-119689666D01*
X173879383Y-119784904D01*
X173688907Y-118832523D02*
X173641288Y-118784904D01*
X173593668Y-118689666D01*
X173593668Y-118451571D01*
X173641288Y-118356333D01*
X173688907Y-118308714D01*
X173784145Y-118261095D01*
X173879383Y-118261095D01*
X174022240Y-118308714D01*
X174593668Y-118880142D01*
X174593668Y-118261095D01*
X177569642Y-120142857D02*
X177617261Y-120190476D01*
X177664880Y-120333333D01*
X177664880Y-120428571D01*
X177617261Y-120571428D01*
X177522023Y-120666666D01*
X177426785Y-120714285D01*
X177236309Y-120761904D01*
X177093452Y-120761904D01*
X176902976Y-120714285D01*
X176807738Y-120666666D01*
X176712500Y-120571428D01*
X176664880Y-120428571D01*
X176664880Y-120333333D01*
X176712500Y-120190476D01*
X176760119Y-120142857D01*
X177664880Y-119190476D02*
X177664880Y-119761904D01*
X177664880Y-119476190D02*
X176664880Y-119476190D01*
X176807738Y-119571428D01*
X176902976Y-119666666D01*
X176950595Y-119761904D01*
X176664880Y-118571428D02*
X176664880Y-118476190D01*
X176712500Y-118380952D01*
X176760119Y-118333333D01*
X176855357Y-118285714D01*
X177045833Y-118238095D01*
X177283928Y-118238095D01*
X177474404Y-118285714D01*
X177569642Y-118333333D01*
X177617261Y-118380952D01*
X177664880Y-118476190D01*
X177664880Y-118571428D01*
X177617261Y-118666666D01*
X177569642Y-118714285D01*
X177474404Y-118761904D01*
X177283928Y-118809523D01*
X177045833Y-118809523D01*
X176855357Y-118761904D01*
X176760119Y-118714285D01*
X176712500Y-118666666D01*
X176664880Y-118571428D01*
X180707142Y-119291666D02*
X180754761Y-119339285D01*
X180802380Y-119482142D01*
X180802380Y-119577380D01*
X180754761Y-119720238D01*
X180659523Y-119815476D01*
X180564285Y-119863095D01*
X180373809Y-119910714D01*
X180230952Y-119910714D01*
X180040476Y-119863095D01*
X179945238Y-119815476D01*
X179850000Y-119720238D01*
X179802380Y-119577380D01*
X179802380Y-119482142D01*
X179850000Y-119339285D01*
X179897619Y-119291666D01*
X180802380Y-118815476D02*
X180802380Y-118625000D01*
X180754761Y-118529761D01*
X180707142Y-118482142D01*
X180564285Y-118386904D01*
X180373809Y-118339285D01*
X179992857Y-118339285D01*
X179897619Y-118386904D01*
X179850000Y-118434523D01*
X179802380Y-118529761D01*
X179802380Y-118720238D01*
X179850000Y-118815476D01*
X179897619Y-118863095D01*
X179992857Y-118910714D01*
X180230952Y-118910714D01*
X180326190Y-118863095D01*
X180373809Y-118815476D01*
X180421428Y-118720238D01*
X180421428Y-118529761D01*
X180373809Y-118434523D01*
X180326190Y-118386904D01*
X180230952Y-118339285D01*
X193187142Y-107354166D02*
X193234761Y-107401785D01*
X193282380Y-107544642D01*
X193282380Y-107639880D01*
X193234761Y-107782738D01*
X193139523Y-107877976D01*
X193044285Y-107925595D01*
X192853809Y-107973214D01*
X192710952Y-107973214D01*
X192520476Y-107925595D01*
X192425238Y-107877976D01*
X192330000Y-107782738D01*
X192282380Y-107639880D01*
X192282380Y-107544642D01*
X192330000Y-107401785D01*
X192377619Y-107354166D01*
X192282380Y-106449404D02*
X192282380Y-106925595D01*
X192758571Y-106973214D01*
X192710952Y-106925595D01*
X192663333Y-106830357D01*
X192663333Y-106592261D01*
X192710952Y-106497023D01*
X192758571Y-106449404D01*
X192853809Y-106401785D01*
X193091904Y-106401785D01*
X193187142Y-106449404D01*
X193234761Y-106497023D01*
X193282380Y-106592261D01*
X193282380Y-106830357D01*
X193234761Y-106925595D01*
X193187142Y-106973214D01*
X189264142Y-141709857D02*
X189311761Y-141757476D01*
X189359380Y-141900333D01*
X189359380Y-141995571D01*
X189311761Y-142138428D01*
X189216523Y-142233666D01*
X189121285Y-142281285D01*
X188930809Y-142328904D01*
X188787952Y-142328904D01*
X188597476Y-142281285D01*
X188502238Y-142233666D01*
X188407000Y-142138428D01*
X188359380Y-141995571D01*
X188359380Y-141900333D01*
X188407000Y-141757476D01*
X188454619Y-141709857D01*
X189359380Y-140757476D02*
X189359380Y-141328904D01*
X189359380Y-141043190D02*
X188359380Y-141043190D01*
X188502238Y-141138428D01*
X188597476Y-141233666D01*
X188645095Y-141328904D01*
X188359380Y-140424142D02*
X188359380Y-139805095D01*
X188740333Y-140138428D01*
X188740333Y-139995571D01*
X188787952Y-139900333D01*
X188835571Y-139852714D01*
X188930809Y-139805095D01*
X189168904Y-139805095D01*
X189264142Y-139852714D01*
X189311761Y-139900333D01*
X189359380Y-139995571D01*
X189359380Y-140281285D01*
X189311761Y-140376523D01*
X189264142Y-140424142D01*
X151583333Y-108002380D02*
X151250000Y-107526190D01*
X151011904Y-108002380D02*
X151011904Y-107002380D01*
X151392857Y-107002380D01*
X151488095Y-107050000D01*
X151535714Y-107097619D01*
X151583333Y-107192857D01*
X151583333Y-107335714D01*
X151535714Y-107430952D01*
X151488095Y-107478571D01*
X151392857Y-107526190D01*
X151011904Y-107526190D01*
X152154761Y-107430952D02*
X152059523Y-107383333D01*
X152011904Y-107335714D01*
X151964285Y-107240476D01*
X151964285Y-107192857D01*
X152011904Y-107097619D01*
X152059523Y-107050000D01*
X152154761Y-107002380D01*
X152345238Y-107002380D01*
X152440476Y-107050000D01*
X152488095Y-107097619D01*
X152535714Y-107192857D01*
X152535714Y-107240476D01*
X152488095Y-107335714D01*
X152440476Y-107383333D01*
X152345238Y-107430952D01*
X152154761Y-107430952D01*
X152059523Y-107478571D01*
X152011904Y-107526190D01*
X151964285Y-107621428D01*
X151964285Y-107811904D01*
X152011904Y-107907142D01*
X152059523Y-107954761D01*
X152154761Y-108002380D01*
X152345238Y-108002380D01*
X152440476Y-107954761D01*
X152488095Y-107907142D01*
X152535714Y-107811904D01*
X152535714Y-107621428D01*
X152488095Y-107526190D01*
X152440476Y-107478571D01*
X152345238Y-107430952D01*
X186477380Y-129661904D02*
X187286904Y-129661904D01*
X187382142Y-129614285D01*
X187429761Y-129566666D01*
X187477380Y-129471428D01*
X187477380Y-129280952D01*
X187429761Y-129185714D01*
X187382142Y-129138095D01*
X187286904Y-129090476D01*
X186477380Y-129090476D01*
X186572619Y-128661904D02*
X186525000Y-128614285D01*
X186477380Y-128519047D01*
X186477380Y-128280952D01*
X186525000Y-128185714D01*
X186572619Y-128138095D01*
X186667857Y-128090476D01*
X186763095Y-128090476D01*
X186905952Y-128138095D01*
X187477380Y-128709523D01*
X187477380Y-128090476D01*
X187738095Y-106052380D02*
X187738095Y-106861904D01*
X187785714Y-106957142D01*
X187833333Y-107004761D01*
X187928571Y-107052380D01*
X188119047Y-107052380D01*
X188214285Y-107004761D01*
X188261904Y-106957142D01*
X188309523Y-106861904D01*
X188309523Y-106052380D01*
X189309523Y-107052380D02*
X188738095Y-107052380D01*
X189023809Y-107052380D02*
X189023809Y-106052380D01*
X188928571Y-106195238D01*
X188833333Y-106290476D01*
X188738095Y-106338095D01*
X152132380Y-153680357D02*
X151656190Y-154013690D01*
X152132380Y-154251785D02*
X151132380Y-154251785D01*
X151132380Y-153870833D01*
X151180000Y-153775595D01*
X151227619Y-153727976D01*
X151322857Y-153680357D01*
X151465714Y-153680357D01*
X151560952Y-153727976D01*
X151608571Y-153775595D01*
X151656190Y-153870833D01*
X151656190Y-154251785D01*
X152132380Y-152727976D02*
X152132380Y-153299404D01*
X152132380Y-153013690D02*
X151132380Y-153013690D01*
X151275238Y-153108928D01*
X151370476Y-153204166D01*
X151418095Y-153299404D01*
X151132380Y-152108928D02*
X151132380Y-152013690D01*
X151180000Y-151918452D01*
X151227619Y-151870833D01*
X151322857Y-151823214D01*
X151513333Y-151775595D01*
X151751428Y-151775595D01*
X151941904Y-151823214D01*
X152037142Y-151870833D01*
X152084761Y-151918452D01*
X152132380Y-152013690D01*
X152132380Y-152108928D01*
X152084761Y-152204166D01*
X152037142Y-152251785D01*
X151941904Y-152299404D01*
X151751428Y-152347023D01*
X151513333Y-152347023D01*
X151322857Y-152299404D01*
X151227619Y-152251785D01*
X151180000Y-152204166D01*
X151132380Y-152108928D01*
X178083333Y-123227380D02*
X177750000Y-122751190D01*
X177511904Y-123227380D02*
X177511904Y-122227380D01*
X177892857Y-122227380D01*
X177988095Y-122275000D01*
X178035714Y-122322619D01*
X178083333Y-122417857D01*
X178083333Y-122560714D01*
X178035714Y-122655952D01*
X177988095Y-122703571D01*
X177892857Y-122751190D01*
X177511904Y-122751190D01*
X178416666Y-122227380D02*
X179083333Y-122227380D01*
X178654761Y-123227380D01*
X178020545Y-127348380D02*
X177687212Y-126872190D01*
X177449116Y-127348380D02*
X177449116Y-126348380D01*
X177830069Y-126348380D01*
X177925307Y-126396000D01*
X177972926Y-126443619D01*
X178020545Y-126538857D01*
X178020545Y-126681714D01*
X177972926Y-126776952D01*
X177925307Y-126824571D01*
X177830069Y-126872190D01*
X177449116Y-126872190D01*
X178877688Y-126348380D02*
X178687212Y-126348380D01*
X178591973Y-126396000D01*
X178544354Y-126443619D01*
X178449116Y-126586476D01*
X178401497Y-126776952D01*
X178401497Y-127157904D01*
X178449116Y-127253142D01*
X178496735Y-127300761D01*
X178591973Y-127348380D01*
X178782450Y-127348380D01*
X178877688Y-127300761D01*
X178925307Y-127253142D01*
X178972926Y-127157904D01*
X178972926Y-126919809D01*
X178925307Y-126824571D01*
X178877688Y-126776952D01*
X178782450Y-126729333D01*
X178591973Y-126729333D01*
X178496735Y-126776952D01*
X178449116Y-126824571D01*
X178401497Y-126919809D01*
X188058333Y-134802380D02*
X187725000Y-134326190D01*
X187486904Y-134802380D02*
X187486904Y-133802380D01*
X187867857Y-133802380D01*
X187963095Y-133850000D01*
X188010714Y-133897619D01*
X188058333Y-133992857D01*
X188058333Y-134135714D01*
X188010714Y-134230952D01*
X187963095Y-134278571D01*
X187867857Y-134326190D01*
X187486904Y-134326190D01*
X188963095Y-133802380D02*
X188486904Y-133802380D01*
X188439285Y-134278571D01*
X188486904Y-134230952D01*
X188582142Y-134183333D01*
X188820238Y-134183333D01*
X188915476Y-134230952D01*
X188963095Y-134278571D01*
X189010714Y-134373809D01*
X189010714Y-134611904D01*
X188963095Y-134707142D01*
X188915476Y-134754761D01*
X188820238Y-134802380D01*
X188582142Y-134802380D01*
X188486904Y-134754761D01*
X188439285Y-134707142D01*
X185486592Y-117454666D02*
X185010402Y-117788000D01*
X185486592Y-118026095D02*
X184486592Y-118026095D01*
X184486592Y-117645142D01*
X184534212Y-117549904D01*
X184581831Y-117502285D01*
X184677069Y-117454666D01*
X184819926Y-117454666D01*
X184915164Y-117502285D01*
X184962783Y-117549904D01*
X185010402Y-117645142D01*
X185010402Y-118026095D01*
X184819926Y-116597523D02*
X185486592Y-116597523D01*
X184438973Y-116835619D02*
X185153259Y-117073714D01*
X185153259Y-116454666D01*
X183518592Y-117454666D02*
X183042402Y-117788000D01*
X183518592Y-118026095D02*
X182518592Y-118026095D01*
X182518592Y-117645142D01*
X182566212Y-117549904D01*
X182613831Y-117502285D01*
X182709069Y-117454666D01*
X182851926Y-117454666D01*
X182947164Y-117502285D01*
X182994783Y-117549904D01*
X183042402Y-117645142D01*
X183042402Y-118026095D01*
X182518592Y-117121333D02*
X182518592Y-116502285D01*
X182899545Y-116835619D01*
X182899545Y-116692761D01*
X182947164Y-116597523D01*
X182994783Y-116549904D01*
X183090021Y-116502285D01*
X183328116Y-116502285D01*
X183423354Y-116549904D01*
X183470973Y-116597523D01*
X183518592Y-116692761D01*
X183518592Y-116978476D01*
X183470973Y-117073714D01*
X183423354Y-117121333D01*
X190458333Y-125877380D02*
X190125000Y-125401190D01*
X189886904Y-125877380D02*
X189886904Y-124877380D01*
X190267857Y-124877380D01*
X190363095Y-124925000D01*
X190410714Y-124972619D01*
X190458333Y-125067857D01*
X190458333Y-125210714D01*
X190410714Y-125305952D01*
X190363095Y-125353571D01*
X190267857Y-125401190D01*
X189886904Y-125401190D01*
X190839285Y-124972619D02*
X190886904Y-124925000D01*
X190982142Y-124877380D01*
X191220238Y-124877380D01*
X191315476Y-124925000D01*
X191363095Y-124972619D01*
X191410714Y-125067857D01*
X191410714Y-125163095D01*
X191363095Y-125305952D01*
X190791666Y-125877380D01*
X191410714Y-125877380D01*
X178904761Y-135297619D02*
X178809523Y-135250000D01*
X178714285Y-135154761D01*
X178571428Y-135011904D01*
X178476190Y-134964285D01*
X178380952Y-134964285D01*
X178428571Y-135202380D02*
X178333333Y-135154761D01*
X178238095Y-135059523D01*
X178190476Y-134869047D01*
X178190476Y-134535714D01*
X178238095Y-134345238D01*
X178333333Y-134250000D01*
X178428571Y-134202380D01*
X178619047Y-134202380D01*
X178714285Y-134250000D01*
X178809523Y-134345238D01*
X178857142Y-134535714D01*
X178857142Y-134869047D01*
X178809523Y-135059523D01*
X178714285Y-135154761D01*
X178619047Y-135202380D01*
X178428571Y-135202380D01*
X179809523Y-135202380D02*
X179238095Y-135202380D01*
X179523809Y-135202380D02*
X179523809Y-134202380D01*
X179428571Y-134345238D01*
X179333333Y-134440476D01*
X179238095Y-134488095D01*
X176004166Y-196928571D02*
X175670833Y-196928571D01*
X175670833Y-197452380D02*
X175670833Y-196452380D01*
X176147023Y-196452380D01*
X176956547Y-196785714D02*
X176956547Y-197452380D01*
X176718452Y-196404761D02*
X176480357Y-197119047D01*
X177099404Y-197119047D01*
X175766666Y-176928571D02*
X175433333Y-176928571D01*
X175433333Y-177452380D02*
X175433333Y-176452380D01*
X175909523Y-176452380D01*
X176195238Y-176452380D02*
X176814285Y-176452380D01*
X176480952Y-176833333D01*
X176623809Y-176833333D01*
X176719047Y-176880952D01*
X176766666Y-176928571D01*
X176814285Y-177023809D01*
X176814285Y-177261904D01*
X176766666Y-177357142D01*
X176719047Y-177404761D01*
X176623809Y-177452380D01*
X176338095Y-177452380D01*
X176242857Y-177404761D01*
X176195238Y-177357142D01*
X175766666Y-172928571D02*
X175433333Y-172928571D01*
X175433333Y-173452380D02*
X175433333Y-172452380D01*
X175909523Y-172452380D01*
X176242857Y-172547619D02*
X176290476Y-172500000D01*
X176385714Y-172452380D01*
X176623809Y-172452380D01*
X176719047Y-172500000D01*
X176766666Y-172547619D01*
X176814285Y-172642857D01*
X176814285Y-172738095D01*
X176766666Y-172880952D01*
X176195238Y-173452380D01*
X176814285Y-173452380D01*
X175766666Y-152928571D02*
X175433333Y-152928571D01*
X175433333Y-153452380D02*
X175433333Y-152452380D01*
X175909523Y-152452380D01*
X176814285Y-153452380D02*
X176242857Y-153452380D01*
X176528571Y-153452380D02*
X176528571Y-152452380D01*
X176433333Y-152595238D01*
X176338095Y-152690476D01*
X176242857Y-152738095D01*
X188883333Y-132557142D02*
X188835714Y-132604761D01*
X188692857Y-132652380D01*
X188597619Y-132652380D01*
X188454761Y-132604761D01*
X188359523Y-132509523D01*
X188311904Y-132414285D01*
X188264285Y-132223809D01*
X188264285Y-132080952D01*
X188311904Y-131890476D01*
X188359523Y-131795238D01*
X188454761Y-131700000D01*
X188597619Y-131652380D01*
X188692857Y-131652380D01*
X188835714Y-131700000D01*
X188883333Y-131747619D01*
X189740476Y-131652380D02*
X189550000Y-131652380D01*
X189454761Y-131700000D01*
X189407142Y-131747619D01*
X189311904Y-131890476D01*
X189264285Y-132080952D01*
X189264285Y-132461904D01*
X189311904Y-132557142D01*
X189359523Y-132604761D01*
X189454761Y-132652380D01*
X189645238Y-132652380D01*
X189740476Y-132604761D01*
X189788095Y-132557142D01*
X189835714Y-132461904D01*
X189835714Y-132223809D01*
X189788095Y-132128571D01*
X189740476Y-132080952D01*
X189645238Y-132033333D01*
X189454761Y-132033333D01*
X189359523Y-132080952D01*
X189311904Y-132128571D01*
X189264285Y-132223809D01*
X188333333Y-103727142D02*
X188285714Y-103774761D01*
X188142857Y-103822380D01*
X188047619Y-103822380D01*
X187904761Y-103774761D01*
X187809523Y-103679523D01*
X187761904Y-103584285D01*
X187714285Y-103393809D01*
X187714285Y-103250952D01*
X187761904Y-103060476D01*
X187809523Y-102965238D01*
X187904761Y-102870000D01*
X188047619Y-102822380D01*
X188142857Y-102822380D01*
X188285714Y-102870000D01*
X188333333Y-102917619D01*
X188666666Y-102822380D02*
X189333333Y-102822380D01*
X188904761Y-103822380D01*
X190357142Y-118716666D02*
X190404761Y-118764285D01*
X190452380Y-118907142D01*
X190452380Y-119002380D01*
X190404761Y-119145238D01*
X190309523Y-119240476D01*
X190214285Y-119288095D01*
X190023809Y-119335714D01*
X189880952Y-119335714D01*
X189690476Y-119288095D01*
X189595238Y-119240476D01*
X189500000Y-119145238D01*
X189452380Y-119002380D01*
X189452380Y-118907142D01*
X189500000Y-118764285D01*
X189547619Y-118716666D01*
X189452380Y-118383333D02*
X189452380Y-117764285D01*
X189833333Y-118097619D01*
X189833333Y-117954761D01*
X189880952Y-117859523D01*
X189928571Y-117811904D01*
X190023809Y-117764285D01*
X190261904Y-117764285D01*
X190357142Y-117811904D01*
X190404761Y-117859523D01*
X190452380Y-117954761D01*
X190452380Y-118240476D01*
X190404761Y-118335714D01*
X190357142Y-118383333D01*
X186182142Y-112091666D02*
X186229761Y-112139285D01*
X186277380Y-112282142D01*
X186277380Y-112377380D01*
X186229761Y-112520238D01*
X186134523Y-112615476D01*
X186039285Y-112663095D01*
X185848809Y-112710714D01*
X185705952Y-112710714D01*
X185515476Y-112663095D01*
X185420238Y-112615476D01*
X185325000Y-112520238D01*
X185277380Y-112377380D01*
X185277380Y-112282142D01*
X185325000Y-112139285D01*
X185372619Y-112091666D01*
X185610714Y-111234523D02*
X186277380Y-111234523D01*
X185229761Y-111472619D02*
X185944047Y-111710714D01*
X185944047Y-111091666D01*
X187807142Y-118691666D02*
X187854761Y-118739285D01*
X187902380Y-118882142D01*
X187902380Y-118977380D01*
X187854761Y-119120238D01*
X187759523Y-119215476D01*
X187664285Y-119263095D01*
X187473809Y-119310714D01*
X187330952Y-119310714D01*
X187140476Y-119263095D01*
X187045238Y-119215476D01*
X186950000Y-119120238D01*
X186902380Y-118977380D01*
X186902380Y-118882142D01*
X186950000Y-118739285D01*
X186997619Y-118691666D01*
X187902380Y-117739285D02*
X187902380Y-118310714D01*
X187902380Y-118025000D02*
X186902380Y-118025000D01*
X187045238Y-118120238D01*
X187140476Y-118215476D01*
X187188095Y-118310714D01*
X191482142Y-112066666D02*
X191529761Y-112114285D01*
X191577380Y-112257142D01*
X191577380Y-112352380D01*
X191529761Y-112495238D01*
X191434523Y-112590476D01*
X191339285Y-112638095D01*
X191148809Y-112685714D01*
X191005952Y-112685714D01*
X190815476Y-112638095D01*
X190720238Y-112590476D01*
X190625000Y-112495238D01*
X190577380Y-112352380D01*
X190577380Y-112257142D01*
X190625000Y-112114285D01*
X190672619Y-112066666D01*
X190672619Y-111685714D02*
X190625000Y-111638095D01*
X190577380Y-111542857D01*
X190577380Y-111304761D01*
X190625000Y-111209523D01*
X190672619Y-111161904D01*
X190767857Y-111114285D01*
X190863095Y-111114285D01*
X191005952Y-111161904D01*
X191577380Y-111733333D01*
X191577380Y-111114285D01*
D10*
X149038000Y-188610000D02*
X149038000Y-184710000D01*
X151038000Y-188610000D02*
X151038000Y-184710000D01*
X149038000Y-188610000D02*
X151038000Y-188610000D01*
X135068000Y-188864000D02*
X135068000Y-184964000D01*
X137068000Y-188864000D02*
X137068000Y-184964000D01*
X135068000Y-188864000D02*
X137068000Y-188864000D01*
X102093000Y-118523000D02*
X106178000Y-118523000D01*
X102093000Y-116353000D02*
X102093000Y-118523000D01*
X106178000Y-116353000D02*
X102093000Y-116353000D01*
X102093000Y-120936000D02*
X106178000Y-120936000D01*
X102093000Y-118766000D02*
X102093000Y-120936000D01*
X106178000Y-118766000D02*
X102093000Y-118766000D01*
X102109000Y-123349000D02*
X106194000Y-123349000D01*
X102109000Y-121179000D02*
X102109000Y-123349000D01*
X106194000Y-121179000D02*
X102109000Y-121179000D01*
X102093000Y-125762000D02*
X106178000Y-125762000D01*
X102093000Y-123592000D02*
X102093000Y-125762000D01*
X106178000Y-123592000D02*
X102093000Y-123592000D01*
X102121000Y-128175000D02*
X106206000Y-128175000D01*
X102121000Y-126005000D02*
X102121000Y-128175000D01*
X106206000Y-126005000D02*
X102121000Y-126005000D01*
X102093000Y-130588000D02*
X106178000Y-130588000D01*
X102093000Y-128418000D02*
X102093000Y-130588000D01*
X106178000Y-128418000D02*
X102093000Y-128418000D01*
X114735000Y-195160000D02*
X114735000Y-191075000D01*
X112565000Y-195160000D02*
X114735000Y-195160000D01*
X112565000Y-191075000D02*
X112565000Y-195160000D01*
X118185000Y-195160000D02*
X118185000Y-191075000D01*
X116015000Y-195160000D02*
X118185000Y-195160000D01*
X116015000Y-191075000D02*
X116015000Y-195160000D01*
X146765000Y-106585000D02*
X150850000Y-106585000D01*
X146765000Y-104415000D02*
X146765000Y-106585000D01*
X150850000Y-104415000D02*
X146765000Y-104415000D01*
X137408750Y-108031250D02*
X141493750Y-108031250D01*
X137408750Y-105861250D02*
X137408750Y-108031250D01*
X141493750Y-105861250D02*
X137408750Y-105861250D01*
X162566250Y-184729250D02*
X161778750Y-184729250D01*
X162172500Y-184335500D02*
X162172500Y-185123000D01*
X157979437Y-185363000D02*
X156915000Y-186427437D01*
X162670563Y-185363000D02*
X163735000Y-186427437D01*
X162670563Y-185363000D02*
X161385000Y-185363000D01*
X157979437Y-185363000D02*
X159265000Y-185363000D01*
X156915000Y-186427437D02*
X156915000Y-192183000D01*
X163735000Y-186427437D02*
X163735000Y-192183000D01*
X163735000Y-192183000D02*
X161385000Y-192183000D01*
X156915000Y-192183000D02*
X159265000Y-192183000D01*
X163455250Y-153106250D02*
X162667750Y-153106250D01*
X163061500Y-152712500D02*
X163061500Y-153500000D01*
X158868437Y-153740000D02*
X157804000Y-154804437D01*
X163559563Y-153740000D02*
X164624000Y-154804437D01*
X163559563Y-153740000D02*
X162274000Y-153740000D01*
X158868437Y-153740000D02*
X160154000Y-153740000D01*
X157804000Y-154804437D02*
X157804000Y-160560000D01*
X164624000Y-154804437D02*
X164624000Y-160560000D01*
X164624000Y-160560000D02*
X162274000Y-160560000D01*
X157804000Y-160560000D02*
X160154000Y-160560000D01*
X199560000Y-131225250D02*
X199560000Y-110905250D01*
X191940000Y-131225250D02*
X191940000Y-110905250D01*
X198290000Y-110905250D02*
X198290000Y-131225250D01*
X199560000Y-110905250D02*
X191940000Y-110905250D01*
X191940000Y-131225250D02*
X199560000Y-131225250D01*
X156070000Y-140870000D02*
X156070000Y-142230000D01*
X152010000Y-135670000D02*
X151440000Y-135670000D01*
X154550000Y-135670000D02*
X153530000Y-135670000D01*
X156640000Y-135670000D02*
X156070000Y-135670000D01*
X151440000Y-135670000D02*
X151440000Y-140870000D01*
X152010000Y-140870000D02*
X151440000Y-140870000D01*
X154550000Y-140870000D02*
X153530000Y-140870000D01*
X156640000Y-140870000D02*
X156070000Y-140870000D01*
X156640000Y-135670000D02*
X156640000Y-140870000D01*
X164575000Y-120155000D02*
X165905000Y-120155000D01*
X165905000Y-120155000D02*
X165905000Y-121485000D01*
X165905000Y-122755000D02*
X165905000Y-125355000D01*
X163245000Y-125355000D02*
X165905000Y-125355000D01*
X163245000Y-122755000D02*
X163245000Y-125355000D01*
X163245000Y-122755000D02*
X165905000Y-122755000D01*
X114490000Y-152025000D02*
X115820000Y-152025000D01*
X115820000Y-152025000D02*
X115820000Y-153355000D01*
X113160000Y-154625000D02*
X115820000Y-154625000D01*
X113160000Y-154625000D02*
X113160000Y-167385000D01*
X113160000Y-167385000D02*
X115820000Y-167385000D01*
X115820000Y-154625000D02*
X115820000Y-167385000D01*
X130940000Y-154565000D02*
X133600000Y-154565000D01*
X130940000Y-154565000D02*
X130940000Y-164845000D01*
X130940000Y-164845000D02*
X133600000Y-164845000D01*
X133600000Y-154565000D02*
X133600000Y-164845000D01*
X117219500Y-125342000D02*
X120819500Y-125342000D01*
X117219500Y-125342000D02*
X115019500Y-125342000D01*
X117219500Y-122122000D02*
X119419500Y-122122000D01*
X117219500Y-122122000D02*
X115019500Y-122122000D01*
X114408750Y-110246250D02*
X113388750Y-110246250D01*
X114408750Y-105046250D02*
X113388750Y-105046250D01*
X116948750Y-110246250D02*
X115928750Y-110246250D01*
X116948750Y-105046250D02*
X115928750Y-105046250D01*
X111868750Y-110246250D02*
X111298750Y-110246250D01*
X111868750Y-105046250D02*
X111298750Y-105046250D01*
X119038750Y-110246250D02*
X118468750Y-110246250D01*
X119038750Y-105046250D02*
X118468750Y-105046250D01*
X118468750Y-103606250D02*
X118468750Y-105046250D01*
X111298750Y-105046250D02*
X111298750Y-110246250D01*
X119038750Y-105046250D02*
X119038750Y-110246250D01*
X130590000Y-133947500D02*
X130590000Y-135237500D01*
X129890000Y-133947500D02*
X130590000Y-133947500D01*
X129890000Y-133247500D02*
X129890000Y-133947500D01*
X129890000Y-119727500D02*
X130590000Y-119727500D01*
X129890000Y-120427500D02*
X129890000Y-119727500D01*
X144110000Y-133947500D02*
X143410000Y-133947500D01*
X144110000Y-133247500D02*
X144110000Y-133947500D01*
X144110000Y-119727500D02*
X143410000Y-119727500D01*
X144110000Y-120427500D02*
X144110000Y-119727500D01*
X174950000Y-192600000D02*
X174950000Y-189000000D01*
X191050000Y-185000000D02*
X191050000Y-181400000D01*
X189300000Y-181400000D02*
X189300000Y-179400000D01*
X191050000Y-181400000D02*
X189300000Y-181400000D01*
X191050000Y-192600000D02*
X191050000Y-189000000D01*
X174950000Y-181400000D02*
X176700000Y-181400000D01*
X174950000Y-185000000D02*
X174950000Y-181400000D01*
X174950000Y-192600000D02*
X176700000Y-192600000D01*
X191050000Y-192600000D02*
X189300000Y-192600000D01*
X174950000Y-168577070D02*
X174950000Y-164977070D01*
X191050000Y-160977070D02*
X191050000Y-157377070D01*
X189300000Y-157377070D02*
X189300000Y-155377070D01*
X191050000Y-157377070D02*
X189300000Y-157377070D01*
X191050000Y-168577070D02*
X191050000Y-164977070D01*
X174950000Y-157377070D02*
X176700000Y-157377070D01*
X174950000Y-160977070D02*
X174950000Y-157377070D01*
X174950000Y-168577070D02*
X176700000Y-168577070D01*
X191050000Y-168577070D02*
X189300000Y-168577070D01*
X185510000Y-123625279D02*
X185510000Y-123299721D01*
X184490000Y-123625279D02*
X184490000Y-123299721D01*
X143708750Y-109546250D02*
X143138750Y-109546250D01*
X143708750Y-104346250D02*
X143138750Y-104346250D01*
X145798750Y-109546250D02*
X145228750Y-109546250D01*
X145798750Y-104346250D02*
X145228750Y-104346250D01*
X145228750Y-102906250D02*
X145228750Y-104346250D01*
X143138750Y-104346250D02*
X143138750Y-109546250D01*
X145798750Y-104346250D02*
X145798750Y-109546250D01*
X127375279Y-134890000D02*
X127049721Y-134890000D01*
X127375279Y-135910000D02*
X127049721Y-135910000D01*
X162600000Y-144390000D02*
X161500000Y-144390000D01*
X162600000Y-146200000D02*
X162600000Y-144390000D01*
X164100000Y-146200000D02*
X162600000Y-146200000D01*
X162600000Y-137610000D02*
X157475000Y-137610000D01*
X162600000Y-135800000D02*
X162600000Y-137610000D01*
X164100000Y-135800000D02*
X162600000Y-135800000D01*
X135915000Y-115599721D02*
X135915000Y-115925279D01*
X136935000Y-115599721D02*
X136935000Y-115925279D01*
X141800000Y-189800000D02*
X141800000Y-183200000D01*
X148400000Y-189800000D02*
X141800000Y-189800000D01*
X148400000Y-183200000D02*
X148400000Y-189800000D01*
X141800000Y-183200000D02*
X148400000Y-183200000D01*
X127800000Y-189800000D02*
X127800000Y-183200000D01*
X134400000Y-189800000D02*
X127800000Y-189800000D01*
X134400000Y-183200000D02*
X134400000Y-189800000D01*
X127800000Y-183200000D02*
X134400000Y-183200000D01*
X105830000Y-166890000D02*
X107040000Y-166890000D01*
X103170000Y-181110000D02*
X103170000Y-181780000D01*
X103170000Y-176030000D02*
X103170000Y-179590000D01*
X103170000Y-170950000D02*
X103170000Y-174510000D01*
X103170000Y-166220000D02*
X103170000Y-169430000D01*
X103170000Y-181780000D02*
X105830000Y-181780000D01*
X105830000Y-178570000D02*
X105830000Y-181780000D01*
X105830000Y-173490000D02*
X105830000Y-177050000D01*
X105830000Y-168410000D02*
X105830000Y-171970000D01*
X105830000Y-166220000D02*
X105830000Y-166890000D01*
X103170000Y-166220000D02*
X105830000Y-166220000D01*
X117203500Y-120574000D02*
X120803500Y-120574000D01*
X117203500Y-120574000D02*
X115003500Y-120574000D01*
X117203500Y-117354000D02*
X119403500Y-117354000D01*
X117203500Y-117354000D02*
X115003500Y-117354000D01*
X117219500Y-129914000D02*
X120819500Y-129914000D01*
X117219500Y-129914000D02*
X115019500Y-129914000D01*
X117219500Y-126694000D02*
X119419500Y-126694000D01*
X117219500Y-126694000D02*
X115019500Y-126694000D01*
D14*
X148175000Y-174325000D02*
X148175000Y-179575000D01*
X143025000Y-175425000D02*
X143025000Y-179575000D01*
X134175000Y-174325000D02*
X134175000Y-179575000D01*
X129025000Y-175425000D02*
X129025000Y-179575000D01*
D10*
X112200000Y-142000000D02*
G75*
G03*
X112200000Y-142000000I-700000J0D01*
G01*
X105700000Y-152250000D02*
G75*
G03*
X105700000Y-152250000I-700000J0D01*
G01*
X108931779Y-118833000D02*
X108606221Y-118833000D01*
X108931779Y-119853000D02*
X108606221Y-119853000D01*
X108931779Y-120484000D02*
X108606221Y-120484000D01*
X108931779Y-121504000D02*
X108606221Y-121504000D01*
X108931779Y-122135000D02*
X108606221Y-122135000D01*
X108931779Y-123155000D02*
X108606221Y-123155000D01*
X108931779Y-123786000D02*
X108606221Y-123786000D01*
X108931779Y-124806000D02*
X108606221Y-124806000D01*
X122737000Y-125022221D02*
X122737000Y-125347779D01*
X123757000Y-125022221D02*
X123757000Y-125347779D01*
X122737000Y-121974221D02*
X122737000Y-122299779D01*
X123757000Y-121974221D02*
X123757000Y-122299779D01*
X162486000Y-103947279D02*
X162486000Y-103621721D01*
X161466000Y-103947279D02*
X161466000Y-103621721D01*
X156898000Y-103972779D02*
X156898000Y-103647221D01*
X155878000Y-103972779D02*
X155878000Y-103647221D01*
X108931779Y-125437000D02*
X108606221Y-125437000D01*
X108931779Y-126457000D02*
X108606221Y-126457000D01*
X108931779Y-127088000D02*
X108606221Y-127088000D01*
X108931779Y-128108000D02*
X108606221Y-128108000D01*
X111190000Y-191862779D02*
X111190000Y-191537221D01*
X112210000Y-191862779D02*
X112210000Y-191537221D01*
X118590000Y-191537221D02*
X118590000Y-191862779D01*
X119610000Y-191537221D02*
X119610000Y-191862779D01*
X112625279Y-177510000D02*
X112299721Y-177510000D01*
X112625279Y-176490000D02*
X112299721Y-176490000D01*
X112625279Y-174740000D02*
X112299721Y-174740000D01*
X112625279Y-175760000D02*
X112299721Y-175760000D01*
X102549721Y-147510000D02*
X102875279Y-147510000D01*
X102549721Y-146490000D02*
X102875279Y-146490000D01*
X102587221Y-149061000D02*
X102912779Y-149061000D01*
X102587221Y-150081000D02*
X102912779Y-150081000D01*
X111760000Y-146912779D02*
X111760000Y-146587221D01*
X110740000Y-146912779D02*
X110740000Y-146587221D01*
X111760000Y-150662779D02*
X111760000Y-150337221D01*
X110740000Y-150662779D02*
X110740000Y-150337221D01*
X152190000Y-188497936D02*
X152190000Y-189702064D01*
X154010000Y-188497936D02*
X154010000Y-189702064D01*
X149760000Y-174875279D02*
X149760000Y-174549721D01*
X148740000Y-174875279D02*
X148740000Y-174549721D01*
X154640000Y-174549721D02*
X154640000Y-174875279D01*
X155660000Y-174549721D02*
X155660000Y-174875279D01*
X138190000Y-188497936D02*
X138190000Y-189702064D01*
X140010000Y-188497936D02*
X140010000Y-189702064D01*
X135810000Y-174875279D02*
X135810000Y-174549721D01*
X134790000Y-174875279D02*
X134790000Y-174549721D01*
X140590000Y-174549721D02*
X140590000Y-174875279D01*
X141610000Y-174549721D02*
X141610000Y-174875279D01*
X157399279Y-106068500D02*
X157073721Y-106068500D01*
X157399279Y-107088500D02*
X157073721Y-107088500D01*
X160823000Y-102812000D02*
X160823000Y-104272000D01*
X157663000Y-102812000D02*
X157663000Y-104972000D01*
X157663000Y-102812000D02*
X158593000Y-102812000D01*
X160823000Y-102812000D02*
X159893000Y-102812000D01*
X108760000Y-147580000D02*
X107300000Y-147580000D01*
X108760000Y-144420000D02*
X106600000Y-144420000D01*
X108760000Y-144420000D02*
X108760000Y-145350000D01*
X108760000Y-147580000D02*
X108760000Y-146650000D01*
X108760000Y-151330000D02*
X107300000Y-151330000D01*
X108760000Y-148170000D02*
X106600000Y-148170000D01*
X108760000Y-148170000D02*
X108760000Y-149100000D01*
X108760000Y-151330000D02*
X108760000Y-150400000D01*
X142990000Y-147600000D02*
X141970000Y-147600000D01*
X142990000Y-142400000D02*
X141970000Y-142400000D01*
X145530000Y-147600000D02*
X144510000Y-147600000D01*
X145530000Y-142400000D02*
X144510000Y-142400000D01*
X140450000Y-147600000D02*
X139880000Y-147600000D01*
X140450000Y-142400000D02*
X139880000Y-142400000D01*
X147620000Y-147600000D02*
X147050000Y-147600000D01*
X147620000Y-142400000D02*
X147050000Y-142400000D01*
X147050000Y-140960000D02*
X147050000Y-142400000D01*
X139880000Y-142400000D02*
X139880000Y-147600000D01*
X147620000Y-142400000D02*
X147620000Y-147600000D01*
X199560000Y-195700000D02*
X199560000Y-175380000D01*
X191940000Y-195700000D02*
X191940000Y-175380000D01*
X198290000Y-175380000D02*
X198290000Y-195700000D01*
X199560000Y-175380000D02*
X191940000Y-175380000D01*
X191940000Y-195700000D02*
X199560000Y-195700000D01*
X199560000Y-174740000D02*
X199560000Y-154420000D01*
X191940000Y-174740000D02*
X191940000Y-154420000D01*
X198290000Y-154420000D02*
X198290000Y-174740000D01*
X199560000Y-154420000D02*
X191940000Y-154420000D01*
X191940000Y-174740000D02*
X199560000Y-174740000D01*
X105865000Y-187660000D02*
X106315000Y-187260000D01*
X106315000Y-187260000D02*
X106315000Y-188060000D01*
X106315000Y-188060000D02*
X105865000Y-187660000D01*
X100265000Y-192810000D02*
X103065000Y-192810000D01*
X103065000Y-192810000D02*
X103065000Y-193110000D01*
X103065000Y-193110000D02*
X104615000Y-193110000D01*
X100265000Y-185110000D02*
X103065000Y-185110000D01*
X103065000Y-184810000D02*
X103065000Y-185110000D01*
X103065000Y-184810000D02*
X104615000Y-184810000D01*
X132060000Y-199810000D02*
X152380000Y-199810000D01*
X132060000Y-192190000D02*
X152380000Y-192190000D01*
X152380000Y-198540000D02*
X132060000Y-198540000D01*
X152380000Y-199810000D02*
X152380000Y-192190000D01*
X132060000Y-192190000D02*
X132060000Y-199810000D01*
X154944000Y-102200000D02*
X154144000Y-102200000D01*
X154944000Y-103500000D02*
X154944000Y-102200000D01*
X154144000Y-103500000D02*
X154144000Y-102200000D01*
X110049721Y-168010000D02*
X110375279Y-168010000D01*
X110049721Y-166990000D02*
X110375279Y-166990000D01*
X109590000Y-191862779D02*
X109590000Y-191537221D01*
X110610000Y-191862779D02*
X110610000Y-191537221D01*
X108770000Y-191825279D02*
X108770000Y-191499721D01*
X107750000Y-191825279D02*
X107750000Y-191499721D01*
D14*
X119325000Y-182125000D02*
X118750000Y-182125000D01*
X119325000Y-187875000D02*
X118675000Y-187875000D01*
X108675000Y-187875000D02*
X109325000Y-187875000D01*
X108675000Y-182125000D02*
X109325000Y-182125000D01*
X119325000Y-182125000D02*
X119325000Y-187875000D01*
X108675000Y-182125000D02*
X108675000Y-187875000D01*
X118750000Y-182125000D02*
X118750000Y-180525000D01*
D10*
X114625279Y-113990000D02*
X114299721Y-113990000D01*
X114625279Y-115010000D02*
X114299721Y-115010000D01*
X140200000Y-165350000D02*
X140200000Y-164350000D01*
X141200000Y-165350000D02*
X140200000Y-165350000D01*
X142200000Y-163350000D02*
X144800000Y-163350000D01*
X142200000Y-157150000D02*
X144800000Y-157150000D01*
X146750000Y-157250000D02*
X146750000Y-163250000D01*
X140250000Y-157350000D02*
X140250000Y-163150000D01*
X128668750Y-116546250D02*
X128668750Y-115546250D01*
X129668750Y-116546250D02*
X128668750Y-116546250D01*
X130668750Y-114546250D02*
X133268750Y-114546250D01*
X130668750Y-108346250D02*
X133268750Y-108346250D01*
X135218750Y-108446250D02*
X135218750Y-114446250D01*
X128718750Y-108546250D02*
X128718750Y-114346250D01*
X120218750Y-108546250D02*
X120218750Y-114346250D01*
X126718750Y-108446250D02*
X126718750Y-114446250D01*
X122168750Y-108346250D02*
X124768750Y-108346250D01*
X122168750Y-114546250D02*
X124768750Y-114546250D01*
X121168750Y-116546250D02*
X120168750Y-116546250D01*
X120168750Y-116546250D02*
X120168750Y-115546250D01*
X148182800Y-127050000D02*
X147782800Y-127050000D01*
X148182800Y-127250000D02*
X147782800Y-127250000D01*
X148182800Y-130850000D02*
X147782800Y-130850000D01*
X150182800Y-127050000D02*
X148182800Y-127050000D01*
X147782800Y-128250000D02*
X147382800Y-128250000D01*
X147782800Y-128250000D02*
X147782800Y-127250000D01*
X148182800Y-127250000D02*
X150182800Y-127250000D01*
X150182800Y-127250000D02*
X150182800Y-128250000D01*
X150182800Y-130050000D02*
X150182800Y-130850000D01*
X150182800Y-130850000D02*
X148182800Y-130850000D01*
X147782800Y-130850000D02*
X147782800Y-130050000D01*
X180962779Y-124190000D02*
X180637221Y-124190000D01*
X180962779Y-125210000D02*
X180637221Y-125210000D01*
X188375279Y-126490000D02*
X188049721Y-126490000D01*
X188375279Y-127510000D02*
X188049721Y-127510000D01*
X172549721Y-192510000D02*
X172875279Y-192510000D01*
X172549721Y-191490000D02*
X172875279Y-191490000D01*
X172587221Y-180510000D02*
X172912779Y-180510000D01*
X172587221Y-179490000D02*
X172912779Y-179490000D01*
X167299721Y-185010000D02*
X167625279Y-185010000D01*
X167299721Y-183990000D02*
X167625279Y-183990000D01*
X172539221Y-168760000D02*
X172864779Y-168760000D01*
X172539221Y-167740000D02*
X172864779Y-167740000D01*
X172587221Y-156510000D02*
X172912779Y-156510000D01*
X172587221Y-155490000D02*
X172912779Y-155490000D01*
X168375279Y-159540000D02*
X168049721Y-159540000D01*
X168375279Y-160560000D02*
X168049721Y-160560000D01*
X166962500Y-189400000D02*
X166962500Y-187600000D01*
D11*
X166262500Y-191200000D02*
G75*
G03*
X166262500Y-191200000I-100000J0D01*
G01*
D10*
X165362500Y-189400000D02*
X165362500Y-187600000D01*
X167912500Y-187600000D02*
X167912500Y-189400000D01*
D11*
X168812500Y-185800000D02*
G75*
G03*
X168812500Y-185800000I-100000J0D01*
G01*
D10*
X169512500Y-187600000D02*
X169512500Y-189400000D01*
X167541000Y-165000000D02*
X167541000Y-163200000D01*
D11*
X166841000Y-166800000D02*
G75*
G03*
X166841000Y-166800000I-100000J0D01*
G01*
D10*
X165941000Y-165000000D02*
X165941000Y-163200000D01*
X168700000Y-163100000D02*
X168700000Y-164900000D01*
D11*
X169600000Y-161300000D02*
G75*
G03*
X169600000Y-161300000I-100000J0D01*
G01*
D10*
X170300000Y-163100000D02*
X170300000Y-164900000D01*
X172912779Y-193240000D02*
X172587221Y-193240000D01*
X172912779Y-194260000D02*
X172587221Y-194260000D01*
X172912779Y-181240000D02*
X172587221Y-181240000D01*
X172912779Y-182260000D02*
X172587221Y-182260000D01*
X167612779Y-181990000D02*
X167287221Y-181990000D01*
X167612779Y-183010000D02*
X167287221Y-183010000D01*
X167712779Y-191565000D02*
X167387221Y-191565000D01*
X167712779Y-192585000D02*
X167387221Y-192585000D01*
X188271721Y-173890000D02*
X188597279Y-173890000D01*
X188271721Y-172870000D02*
X188597279Y-172870000D01*
X172875279Y-169490000D02*
X172549721Y-169490000D01*
X172875279Y-170510000D02*
X172549721Y-170510000D01*
X172912779Y-157240000D02*
X172587221Y-157240000D01*
X172912779Y-158260000D02*
X172587221Y-158260000D01*
X168049721Y-158560000D02*
X168375279Y-158560000D01*
X168049721Y-157540000D02*
X168375279Y-157540000D01*
X167950279Y-167540000D02*
X167624721Y-167540000D01*
X167950279Y-168560000D02*
X167624721Y-168560000D01*
X188551221Y-198274000D02*
X188876779Y-198274000D01*
X188551221Y-197254000D02*
X188876779Y-197254000D01*
X191225000Y-150175000D02*
G75*
G03*
X191225000Y-150175000I-700000J0D01*
G01*
X111700000Y-102525000D02*
G75*
G03*
X111700000Y-102525000I-700000J0D01*
G01*
X146390000Y-128887221D02*
X146390000Y-129212779D01*
X147410000Y-128887221D02*
X147410000Y-129212779D01*
X187750000Y-140750000D02*
X187750000Y-137750000D01*
X175750000Y-140750000D02*
X175750000Y-137750000D01*
X187750000Y-149750000D02*
X187750000Y-146750000D01*
X175750000Y-149750000D02*
X175750000Y-146750000D01*
X175750000Y-137750000D02*
X187750000Y-137750000D01*
X175750000Y-149750000D02*
X187750000Y-149750000D01*
X169050000Y-110600000D02*
X169050000Y-113600000D01*
X181050000Y-110600000D02*
X181050000Y-113600000D01*
X169050000Y-101600000D02*
X169050000Y-104600000D01*
X181050000Y-101600000D02*
X181050000Y-104600000D01*
X181050000Y-113600000D02*
X169050000Y-113600000D01*
X181050000Y-101600000D02*
X169050000Y-101600000D01*
X174660000Y-116721078D02*
X174660000Y-116203922D01*
X173240000Y-116721078D02*
X173240000Y-116203922D01*
X177731212Y-116698078D02*
X177731212Y-116180922D01*
X176311212Y-116698078D02*
X176311212Y-116180922D01*
X180968712Y-116698078D02*
X180968712Y-116180922D01*
X179548712Y-116698078D02*
X179548712Y-116180922D01*
X190890000Y-107024721D02*
X190890000Y-107350279D01*
X191910000Y-107024721D02*
X191910000Y-107350279D01*
X191397000Y-146067000D02*
X192397000Y-146067000D01*
X191897000Y-146567000D02*
X191897000Y-145567000D01*
X197302563Y-145327000D02*
X198367000Y-144262563D01*
X190911437Y-145327000D02*
X189847000Y-144262563D01*
X190911437Y-145327000D02*
X192897000Y-145327000D01*
X197302563Y-145327000D02*
X195317000Y-145327000D01*
X198367000Y-144262563D02*
X198367000Y-136807000D01*
X189847000Y-144262563D02*
X189847000Y-136807000D01*
X189847000Y-136807000D02*
X192897000Y-136807000D01*
X198367000Y-136807000D02*
X195317000Y-136807000D01*
X149024721Y-108010000D02*
X149350279Y-108010000D01*
X149024721Y-106990000D02*
X149350279Y-106990000D01*
X186229000Y-128355500D02*
X186229000Y-125480500D01*
X186229000Y-128355500D02*
X186229000Y-129855500D01*
X183009000Y-128355500D02*
X183009000Y-126855500D01*
X183009000Y-128355500D02*
X183009000Y-129855500D01*
X189400000Y-107890000D02*
X186950000Y-107890000D01*
X187600000Y-111110000D02*
X189400000Y-111110000D01*
X149740000Y-152874721D02*
X149740000Y-153200279D01*
X150760000Y-152874721D02*
X150760000Y-153200279D01*
X180976779Y-122135000D02*
X180651221Y-122135000D01*
X180976779Y-123155000D02*
X180651221Y-123155000D01*
X180588721Y-127369000D02*
X180914279Y-127369000D01*
X180588721Y-126349000D02*
X180914279Y-126349000D01*
X184397936Y-135160000D02*
X185602064Y-135160000D01*
X184397936Y-133340000D02*
X185602064Y-133340000D01*
X184490000Y-114624721D02*
X184490000Y-114950279D01*
X185510000Y-114624721D02*
X185510000Y-114950279D01*
X183510000Y-114950279D02*
X183510000Y-114624721D01*
X182490000Y-114950279D02*
X182490000Y-114624721D01*
X188037221Y-125841250D02*
X188362779Y-125841250D01*
X188037221Y-124821250D02*
X188362779Y-124821250D01*
X181945000Y-128680000D02*
X176055000Y-128680000D01*
X182400000Y-133820000D02*
X176055000Y-133820000D01*
X179567469Y-198710000D02*
X182107531Y-198710000D01*
X179567469Y-195290000D02*
X182107531Y-195290000D01*
X179329969Y-178710000D02*
X181870031Y-178710000D01*
X179329969Y-175290000D02*
X181870031Y-175290000D01*
X179329969Y-174710000D02*
X181870031Y-174710000D01*
X179329969Y-171290000D02*
X181870031Y-171290000D01*
X179329969Y-154710000D02*
X181870031Y-154710000D01*
X179329969Y-151290000D02*
X181870031Y-151290000D01*
X189321078Y-129790000D02*
X188803922Y-129790000D01*
X189321078Y-131210000D02*
X188803922Y-131210000D01*
X188337221Y-105310000D02*
X188662779Y-105310000D01*
X188337221Y-104290000D02*
X188662779Y-104290000D01*
X190910000Y-122352064D02*
X190910000Y-121147936D01*
X189090000Y-122352064D02*
X189090000Y-121147936D01*
X188110000Y-115363314D02*
X188110000Y-114159186D01*
X186290000Y-115363314D02*
X186290000Y-114159186D01*
X188370000Y-122352064D02*
X188370000Y-121147936D01*
X186550000Y-122352064D02*
X186550000Y-121147936D01*
X190650000Y-115357314D02*
X190650000Y-114153186D01*
X188830000Y-115357314D02*
X188830000Y-114153186D01*
M02*
