G04 #@! TF.GenerationSoftware,KiCad,Pcbnew,5.99.0-unknown-1463dd1~101~ubuntu20.04.1*
G04 #@! TF.CreationDate,2020-07-08T00:09:35-04:00*
G04 #@! TF.ProjectId,goldhat,676f6c64-6861-4742-9e6b-696361645f70,rev?*
G04 #@! TF.SameCoordinates,Original*
G04 #@! TF.FileFunction,Paste,Bot*
G04 #@! TF.FilePolarity,Positive*
%FSLAX46Y46*%
G04 Gerber Fmt 4.6, Leading zero omitted, Abs format (unit mm)*
G04 Created by KiCad (PCBNEW 5.99.0-unknown-1463dd1~101~ubuntu20.04.1) date 2020-07-08 00:09:35*
%MOMM*%
%LPD*%
G01*
G04 APERTURE LIST*
%ADD10R,2.510000X1.000000*%
%ADD11R,1.000000X3.150000*%
%ADD12R,3.000000X1.000000*%
G04 APERTURE END LIST*
D10*
X172455000Y-158420000D03*
X172455000Y-163500000D03*
X172455000Y-168580000D03*
X172455000Y-173660000D03*
X169145000Y-155880000D03*
X169145000Y-160960000D03*
X169145000Y-166040000D03*
X169145000Y-171120000D03*
X172455000Y-112700000D03*
X172455000Y-117780000D03*
X172455000Y-122860000D03*
X172455000Y-127940000D03*
X169145000Y-110160000D03*
X169145000Y-115240000D03*
X169145000Y-120320000D03*
X169145000Y-125400000D03*
D11*
X165720000Y-108875000D03*
X165720000Y-103825000D03*
X163180000Y-108875000D03*
X163180000Y-103825000D03*
X160640000Y-108875000D03*
X160640000Y-103825000D03*
X158100000Y-108875000D03*
X158100000Y-103825000D03*
X155560000Y-108875000D03*
X155560000Y-103825000D03*
X153020000Y-108875000D03*
X153020000Y-103825000D03*
X150480000Y-108875000D03*
X150480000Y-103825000D03*
X147940000Y-108875000D03*
X147940000Y-103825000D03*
X145400000Y-108875000D03*
X145400000Y-103825000D03*
X142860000Y-108875000D03*
X142860000Y-103825000D03*
X140320000Y-108875000D03*
X140320000Y-103825000D03*
X137780000Y-108875000D03*
X137780000Y-103825000D03*
X135240000Y-108875000D03*
X135240000Y-103825000D03*
X132700000Y-108875000D03*
X132700000Y-103825000D03*
X130160000Y-108875000D03*
X130160000Y-103825000D03*
X127620000Y-108875000D03*
X127620000Y-103825000D03*
X125080000Y-108875000D03*
X125080000Y-103825000D03*
X122540000Y-108875000D03*
X122540000Y-103825000D03*
D12*
X102480000Y-108870000D03*
X107520000Y-108870000D03*
X102480000Y-111410000D03*
X107520000Y-111410000D03*
X102480000Y-113950000D03*
X107520000Y-113950000D03*
X102480000Y-116490000D03*
X107520000Y-116490000D03*
X102480000Y-119030000D03*
X107520000Y-119030000D03*
X102480000Y-121570000D03*
X107520000Y-121570000D03*
X102480000Y-124110000D03*
X107520000Y-124110000D03*
X102480000Y-126650000D03*
X107520000Y-126650000D03*
X102480000Y-129190000D03*
X107520000Y-129190000D03*
X102480000Y-131730000D03*
X107520000Y-131730000D03*
X102480000Y-134270000D03*
X107520000Y-134270000D03*
X102480000Y-136810000D03*
X107520000Y-136810000D03*
X102480000Y-139350000D03*
X107520000Y-139350000D03*
X102480000Y-141890000D03*
X107520000Y-141890000D03*
X102480000Y-144430000D03*
X107520000Y-144430000D03*
X102480000Y-146970000D03*
X107520000Y-146970000D03*
X102480000Y-149510000D03*
X107520000Y-149510000D03*
X102480000Y-152050000D03*
X107520000Y-152050000D03*
X102480000Y-154590000D03*
X107520000Y-154590000D03*
X102480000Y-157130000D03*
X107520000Y-157130000D03*
D10*
X124195000Y-117780000D03*
X124195000Y-122860000D03*
X124195000Y-127940000D03*
X124195000Y-133020000D03*
X120885000Y-115240000D03*
X120885000Y-120320000D03*
X120885000Y-125400000D03*
X120885000Y-130480000D03*
X120885000Y-175184000D03*
X120885000Y-170104000D03*
X120885000Y-165024000D03*
X120885000Y-159944000D03*
X124195000Y-177724000D03*
X124195000Y-172644000D03*
X124195000Y-167564000D03*
X124195000Y-162484000D03*
X120885000Y-153340000D03*
X120885000Y-148260000D03*
X120885000Y-143180000D03*
X120885000Y-138100000D03*
X124195000Y-155880000D03*
X124195000Y-150800000D03*
X124195000Y-145720000D03*
X124195000Y-140640000D03*
X172455000Y-135560000D03*
X172455000Y-140640000D03*
X172455000Y-145720000D03*
X172455000Y-150800000D03*
X169145000Y-133020000D03*
X169145000Y-138100000D03*
X169145000Y-143180000D03*
X169145000Y-148260000D03*
M02*
