%TF.GenerationSoftware,KiCad,Pcbnew,5.99.0-unknown-ad88874~101~ubuntu20.04.1*%
%TF.CreationDate,2020-05-19T21:15:42-04:00*%
%TF.ProjectId,detector,64657465-6374-46f7-922e-6b696361645f,rev?*%
%TF.SameCoordinates,Original*%
%TF.FileFunction,Legend,Top*%
%TF.FilePolarity,Positive*%
%FSLAX46Y46*%
G04 Gerber Fmt 4.6, Leading zero omitted, Abs format (unit mm)*
G04 Created by KiCad (PCBNEW 5.99.0-unknown-ad88874~101~ubuntu20.04.1) date 2020-05-19 21:15:42*
%MOMM*%
%LPD*%
G01*
G04 APERTURE LIST*
%ADD10C,0.150000*%
%ADD11C,0.120000*%
G04 APERTURE END LIST*
D10*
%TO.C,C6*%
X100357142Y-87666666D02*
X100404761Y-87714285D01*
X100452380Y-87857142D01*
X100452380Y-87952380D01*
X100404761Y-88095238D01*
X100309523Y-88190476D01*
X100214285Y-88238095D01*
X100023809Y-88285714D01*
X99880952Y-88285714D01*
X99690476Y-88238095D01*
X99595238Y-88190476D01*
X99500000Y-88095238D01*
X99452380Y-87952380D01*
X99452380Y-87857142D01*
X99500000Y-87714285D01*
X99547619Y-87666666D01*
X99452380Y-86809523D02*
X99452380Y-87000000D01*
X99500000Y-87095238D01*
X99547619Y-87142857D01*
X99690476Y-87238095D01*
X99880952Y-87285714D01*
X100261904Y-87285714D01*
X100357142Y-87238095D01*
X100404761Y-87190476D01*
X100452380Y-87095238D01*
X100452380Y-86904761D01*
X100404761Y-86809523D01*
X100357142Y-86761904D01*
X100261904Y-86714285D01*
X100023809Y-86714285D01*
X99928571Y-86761904D01*
X99880952Y-86809523D01*
X99833333Y-86904761D01*
X99833333Y-87095238D01*
X99880952Y-87190476D01*
X99928571Y-87238095D01*
X100023809Y-87285714D01*
%TO.C,C5*%
X112750000Y-88116666D02*
X112783333Y-88150000D01*
X112816666Y-88250000D01*
X112816666Y-88316666D01*
X112783333Y-88416666D01*
X112716666Y-88483333D01*
X112650000Y-88516666D01*
X112516666Y-88550000D01*
X112416666Y-88550000D01*
X112283333Y-88516666D01*
X112216666Y-88483333D01*
X112150000Y-88416666D01*
X112116666Y-88316666D01*
X112116666Y-88250000D01*
X112150000Y-88150000D01*
X112183333Y-88116666D01*
X112116666Y-87483333D02*
X112116666Y-87816666D01*
X112450000Y-87850000D01*
X112416666Y-87816666D01*
X112383333Y-87750000D01*
X112383333Y-87583333D01*
X112416666Y-87516666D01*
X112450000Y-87483333D01*
X112516666Y-87450000D01*
X112683333Y-87450000D01*
X112750000Y-87483333D01*
X112783333Y-87516666D01*
X112816666Y-87583333D01*
X112816666Y-87750000D01*
X112783333Y-87816666D01*
X112750000Y-87850000D01*
%TO.C,C4*%
X125357142Y-75166666D02*
X125404761Y-75214285D01*
X125452380Y-75357142D01*
X125452380Y-75452380D01*
X125404761Y-75595238D01*
X125309523Y-75690476D01*
X125214285Y-75738095D01*
X125023809Y-75785714D01*
X124880952Y-75785714D01*
X124690476Y-75738095D01*
X124595238Y-75690476D01*
X124500000Y-75595238D01*
X124452380Y-75452380D01*
X124452380Y-75357142D01*
X124500000Y-75214285D01*
X124547619Y-75166666D01*
X124785714Y-74309523D02*
X125452380Y-74309523D01*
X124404761Y-74547619D02*
X125119047Y-74785714D01*
X125119047Y-74166666D01*
%TO.C,C3*%
X112750000Y-80366666D02*
X112783333Y-80400000D01*
X112816666Y-80500000D01*
X112816666Y-80566666D01*
X112783333Y-80666666D01*
X112716666Y-80733333D01*
X112650000Y-80766666D01*
X112516666Y-80800000D01*
X112416666Y-80800000D01*
X112283333Y-80766666D01*
X112216666Y-80733333D01*
X112150000Y-80666666D01*
X112116666Y-80566666D01*
X112116666Y-80500000D01*
X112150000Y-80400000D01*
X112183333Y-80366666D01*
X112116666Y-80133333D02*
X112116666Y-79700000D01*
X112383333Y-79933333D01*
X112383333Y-79833333D01*
X112416666Y-79766666D01*
X112450000Y-79733333D01*
X112516666Y-79700000D01*
X112683333Y-79700000D01*
X112750000Y-79733333D01*
X112783333Y-79766666D01*
X112816666Y-79833333D01*
X112816666Y-80033333D01*
X112783333Y-80100000D01*
X112750000Y-80133333D01*
%TO.C,C2*%
X112857142Y-74916666D02*
X112904761Y-74964285D01*
X112952380Y-75107142D01*
X112952380Y-75202380D01*
X112904761Y-75345238D01*
X112809523Y-75440476D01*
X112714285Y-75488095D01*
X112523809Y-75535714D01*
X112380952Y-75535714D01*
X112190476Y-75488095D01*
X112095238Y-75440476D01*
X112000000Y-75345238D01*
X111952380Y-75202380D01*
X111952380Y-75107142D01*
X112000000Y-74964285D01*
X112047619Y-74916666D01*
X112047619Y-74535714D02*
X112000000Y-74488095D01*
X111952380Y-74392857D01*
X111952380Y-74154761D01*
X112000000Y-74059523D01*
X112047619Y-74011904D01*
X112142857Y-73964285D01*
X112238095Y-73964285D01*
X112380952Y-74011904D01*
X112952380Y-74583333D01*
X112952380Y-73964285D01*
%TO.C,C1*%
X125357142Y-85166666D02*
X125404761Y-85214285D01*
X125452380Y-85357142D01*
X125452380Y-85452380D01*
X125404761Y-85595238D01*
X125309523Y-85690476D01*
X125214285Y-85738095D01*
X125023809Y-85785714D01*
X124880952Y-85785714D01*
X124690476Y-85738095D01*
X124595238Y-85690476D01*
X124500000Y-85595238D01*
X124452380Y-85452380D01*
X124452380Y-85357142D01*
X124500000Y-85214285D01*
X124547619Y-85166666D01*
X125452380Y-84214285D02*
X125452380Y-84785714D01*
X125452380Y-84500000D02*
X124452380Y-84500000D01*
X124595238Y-84595238D01*
X124690476Y-84690476D01*
X124738095Y-84785714D01*
%TO.C,J1*%
X136866666Y-92252380D02*
X136866666Y-92966666D01*
X136819047Y-93109523D01*
X136723809Y-93204761D01*
X136580952Y-93252380D01*
X136485714Y-93252380D01*
X137866666Y-93252380D02*
X137295238Y-93252380D01*
X137580952Y-93252380D02*
X137580952Y-92252380D01*
X137485714Y-92395238D01*
X137390476Y-92490476D01*
X137295238Y-92538095D01*
%TO.C,C18*%
X133982142Y-81340845D02*
X133934523Y-81388464D01*
X133791666Y-81436083D01*
X133696428Y-81436083D01*
X133553571Y-81388464D01*
X133458333Y-81293226D01*
X133410714Y-81197988D01*
X133363095Y-81007512D01*
X133363095Y-80864655D01*
X133410714Y-80674179D01*
X133458333Y-80578941D01*
X133553571Y-80483703D01*
X133696428Y-80436083D01*
X133791666Y-80436083D01*
X133934523Y-80483703D01*
X133982142Y-80531322D01*
X134934523Y-81436083D02*
X134363095Y-81436083D01*
X134648809Y-81436083D02*
X134648809Y-80436083D01*
X134553571Y-80578941D01*
X134458333Y-80674179D01*
X134363095Y-80721798D01*
X135505952Y-80864655D02*
X135410714Y-80817036D01*
X135363095Y-80769417D01*
X135315476Y-80674179D01*
X135315476Y-80626560D01*
X135363095Y-80531322D01*
X135410714Y-80483703D01*
X135505952Y-80436083D01*
X135696428Y-80436083D01*
X135791666Y-80483703D01*
X135839285Y-80531322D01*
X135886904Y-80626560D01*
X135886904Y-80674179D01*
X135839285Y-80769417D01*
X135791666Y-80817036D01*
X135696428Y-80864655D01*
X135505952Y-80864655D01*
X135410714Y-80912274D01*
X135363095Y-80959893D01*
X135315476Y-81055131D01*
X135315476Y-81245607D01*
X135363095Y-81340845D01*
X135410714Y-81388464D01*
X135505952Y-81436083D01*
X135696428Y-81436083D01*
X135791666Y-81388464D01*
X135839285Y-81340845D01*
X135886904Y-81245607D01*
X135886904Y-81055131D01*
X135839285Y-80959893D01*
X135791666Y-80912274D01*
X135696428Y-80864655D01*
%TO.C,J2*%
X137666666Y-76836083D02*
X137666666Y-77550369D01*
X137619047Y-77693226D01*
X137523809Y-77788464D01*
X137380952Y-77836083D01*
X137285714Y-77836083D01*
X138095238Y-76931322D02*
X138142857Y-76883703D01*
X138238095Y-76836083D01*
X138476190Y-76836083D01*
X138571428Y-76883703D01*
X138619047Y-76931322D01*
X138666666Y-77026560D01*
X138666666Y-77121798D01*
X138619047Y-77264655D01*
X138047619Y-77836083D01*
X138666666Y-77836083D01*
%TO.C,U11*%
X111802380Y-79238095D02*
X112611904Y-79238095D01*
X112707142Y-79190476D01*
X112754761Y-79142857D01*
X112802380Y-79047619D01*
X112802380Y-78857142D01*
X112754761Y-78761904D01*
X112707142Y-78714285D01*
X112611904Y-78666666D01*
X111802380Y-78666666D01*
X112802380Y-77666666D02*
X112802380Y-78238095D01*
X112802380Y-77952380D02*
X111802380Y-77952380D01*
X111945238Y-78047619D01*
X112040476Y-78142857D01*
X112088095Y-78238095D01*
X112802380Y-76714285D02*
X112802380Y-77285714D01*
X112802380Y-77000000D02*
X111802380Y-77000000D01*
X111945238Y-77095238D01*
X112040476Y-77190476D01*
X112088095Y-77285714D01*
%TO.C,U10*%
X124302380Y-80738095D02*
X125111904Y-80738095D01*
X125207142Y-80690476D01*
X125254761Y-80642857D01*
X125302380Y-80547619D01*
X125302380Y-80357142D01*
X125254761Y-80261904D01*
X125207142Y-80214285D01*
X125111904Y-80166666D01*
X124302380Y-80166666D01*
X125302380Y-79166666D02*
X125302380Y-79738095D01*
X125302380Y-79452380D02*
X124302380Y-79452380D01*
X124445238Y-79547619D01*
X124540476Y-79642857D01*
X124588095Y-79738095D01*
X124302380Y-78547619D02*
X124302380Y-78452380D01*
X124350000Y-78357142D01*
X124397619Y-78309523D01*
X124492857Y-78261904D01*
X124683333Y-78214285D01*
X124921428Y-78214285D01*
X125111904Y-78261904D01*
X125207142Y-78309523D01*
X125254761Y-78357142D01*
X125302380Y-78452380D01*
X125302380Y-78547619D01*
X125254761Y-78642857D01*
X125207142Y-78690476D01*
X125111904Y-78738095D01*
X124921428Y-78785714D01*
X124683333Y-78785714D01*
X124492857Y-78738095D01*
X124397619Y-78690476D01*
X124350000Y-78642857D01*
X124302380Y-78547619D01*
%TO.C,U9*%
X127438095Y-72836083D02*
X127438095Y-73645607D01*
X127485714Y-73740845D01*
X127533333Y-73788464D01*
X127628571Y-73836083D01*
X127819047Y-73836083D01*
X127914285Y-73788464D01*
X127961904Y-73740845D01*
X128009523Y-73645607D01*
X128009523Y-72836083D01*
X128533333Y-73836083D02*
X128723809Y-73836083D01*
X128819047Y-73788464D01*
X128866666Y-73740845D01*
X128961904Y-73597988D01*
X129009523Y-73407512D01*
X129009523Y-73026560D01*
X128961904Y-72931322D01*
X128914285Y-72883703D01*
X128819047Y-72836083D01*
X128628571Y-72836083D01*
X128533333Y-72883703D01*
X128485714Y-72931322D01*
X128438095Y-73026560D01*
X128438095Y-73264655D01*
X128485714Y-73359893D01*
X128533333Y-73407512D01*
X128628571Y-73455131D01*
X128819047Y-73455131D01*
X128914285Y-73407512D01*
X128961904Y-73359893D01*
X129009523Y-73264655D01*
%TO.C,U8*%
X111952380Y-91011904D02*
X112761904Y-91011904D01*
X112857142Y-90964285D01*
X112904761Y-90916666D01*
X112952380Y-90821428D01*
X112952380Y-90630952D01*
X112904761Y-90535714D01*
X112857142Y-90488095D01*
X112761904Y-90440476D01*
X111952380Y-90440476D01*
X112380952Y-89821428D02*
X112333333Y-89916666D01*
X112285714Y-89964285D01*
X112190476Y-90011904D01*
X112142857Y-90011904D01*
X112047619Y-89964285D01*
X112000000Y-89916666D01*
X111952380Y-89821428D01*
X111952380Y-89630952D01*
X112000000Y-89535714D01*
X112047619Y-89488095D01*
X112142857Y-89440476D01*
X112190476Y-89440476D01*
X112285714Y-89488095D01*
X112333333Y-89535714D01*
X112380952Y-89630952D01*
X112380952Y-89821428D01*
X112428571Y-89916666D01*
X112476190Y-89964285D01*
X112571428Y-90011904D01*
X112761904Y-90011904D01*
X112857142Y-89964285D01*
X112904761Y-89916666D01*
X112952380Y-89821428D01*
X112952380Y-89630952D01*
X112904761Y-89535714D01*
X112857142Y-89488095D01*
X112761904Y-89440476D01*
X112571428Y-89440476D01*
X112476190Y-89488095D01*
X112428571Y-89535714D01*
X112380952Y-89630952D01*
%TO.C,U7*%
X111802380Y-70761904D02*
X112611904Y-70761904D01*
X112707142Y-70714285D01*
X112754761Y-70666666D01*
X112802380Y-70571428D01*
X112802380Y-70380952D01*
X112754761Y-70285714D01*
X112707142Y-70238095D01*
X112611904Y-70190476D01*
X111802380Y-70190476D01*
X111802380Y-69809523D02*
X111802380Y-69142857D01*
X112802380Y-69571428D01*
%TO.C,U6*%
X124452380Y-89761904D02*
X125261904Y-89761904D01*
X125357142Y-89714285D01*
X125404761Y-89666666D01*
X125452380Y-89571428D01*
X125452380Y-89380952D01*
X125404761Y-89285714D01*
X125357142Y-89238095D01*
X125261904Y-89190476D01*
X124452380Y-89190476D01*
X124452380Y-88285714D02*
X124452380Y-88476190D01*
X124500000Y-88571428D01*
X124547619Y-88619047D01*
X124690476Y-88714285D01*
X124880952Y-88761904D01*
X125261904Y-88761904D01*
X125357142Y-88714285D01*
X125404761Y-88666666D01*
X125452380Y-88571428D01*
X125452380Y-88380952D01*
X125404761Y-88285714D01*
X125357142Y-88238095D01*
X125261904Y-88190476D01*
X125023809Y-88190476D01*
X124928571Y-88238095D01*
X124880952Y-88285714D01*
X124833333Y-88380952D01*
X124833333Y-88571428D01*
X124880952Y-88666666D01*
X124928571Y-88714285D01*
X125023809Y-88761904D01*
%TO.C,U5*%
X124302380Y-70761904D02*
X125111904Y-70761904D01*
X125207142Y-70714285D01*
X125254761Y-70666666D01*
X125302380Y-70571428D01*
X125302380Y-70380952D01*
X125254761Y-70285714D01*
X125207142Y-70238095D01*
X125111904Y-70190476D01*
X124302380Y-70190476D01*
X124302380Y-69238095D02*
X124302380Y-69714285D01*
X124778571Y-69761904D01*
X124730952Y-69714285D01*
X124683333Y-69619047D01*
X124683333Y-69380952D01*
X124730952Y-69285714D01*
X124778571Y-69238095D01*
X124873809Y-69190476D01*
X125111904Y-69190476D01*
X125207142Y-69238095D01*
X125254761Y-69285714D01*
X125302380Y-69380952D01*
X125302380Y-69619047D01*
X125254761Y-69714285D01*
X125207142Y-69761904D01*
%TO.C,U4*%
X133577380Y-86345607D02*
X134386904Y-86345607D01*
X134482142Y-86297988D01*
X134529761Y-86250369D01*
X134577380Y-86155131D01*
X134577380Y-85964655D01*
X134529761Y-85869417D01*
X134482142Y-85821798D01*
X134386904Y-85774179D01*
X133577380Y-85774179D01*
X133910714Y-84869417D02*
X134577380Y-84869417D01*
X133529761Y-85107512D02*
X134244047Y-85345607D01*
X134244047Y-84726560D01*
%TO.C,TP5*%
X126888095Y-76236083D02*
X127459523Y-76236083D01*
X127173809Y-77236083D02*
X127173809Y-76236083D01*
X127792857Y-77236083D02*
X127792857Y-76236083D01*
X128173809Y-76236083D01*
X128269047Y-76283703D01*
X128316666Y-76331322D01*
X128364285Y-76426560D01*
X128364285Y-76569417D01*
X128316666Y-76664655D01*
X128269047Y-76712274D01*
X128173809Y-76759893D01*
X127792857Y-76759893D01*
X129269047Y-76236083D02*
X128792857Y-76236083D01*
X128745238Y-76712274D01*
X128792857Y-76664655D01*
X128888095Y-76617036D01*
X129126190Y-76617036D01*
X129221428Y-76664655D01*
X129269047Y-76712274D01*
X129316666Y-76807512D01*
X129316666Y-77045607D01*
X129269047Y-77140845D01*
X129221428Y-77188464D01*
X129126190Y-77236083D01*
X128888095Y-77236083D01*
X128792857Y-77188464D01*
X128745238Y-77140845D01*
%TO.C,TP4*%
X126738095Y-66836083D02*
X127309523Y-66836083D01*
X127023809Y-67836083D02*
X127023809Y-66836083D01*
X127642857Y-67836083D02*
X127642857Y-66836083D01*
X128023809Y-66836083D01*
X128119047Y-66883703D01*
X128166666Y-66931322D01*
X128214285Y-67026560D01*
X128214285Y-67169417D01*
X128166666Y-67264655D01*
X128119047Y-67312274D01*
X128023809Y-67359893D01*
X127642857Y-67359893D01*
X129071428Y-67169417D02*
X129071428Y-67836083D01*
X128833333Y-66788464D02*
X128595238Y-67502750D01*
X129214285Y-67502750D01*
%TO.C,R10*%
X133957142Y-78236083D02*
X133623809Y-77759893D01*
X133385714Y-78236083D02*
X133385714Y-77236083D01*
X133766666Y-77236083D01*
X133861904Y-77283703D01*
X133909523Y-77331322D01*
X133957142Y-77426560D01*
X133957142Y-77569417D01*
X133909523Y-77664655D01*
X133861904Y-77712274D01*
X133766666Y-77759893D01*
X133385714Y-77759893D01*
X134909523Y-78236083D02*
X134338095Y-78236083D01*
X134623809Y-78236083D02*
X134623809Y-77236083D01*
X134528571Y-77378941D01*
X134433333Y-77474179D01*
X134338095Y-77521798D01*
X135528571Y-77236083D02*
X135623809Y-77236083D01*
X135719047Y-77283703D01*
X135766666Y-77331322D01*
X135814285Y-77426560D01*
X135861904Y-77617036D01*
X135861904Y-77855131D01*
X135814285Y-78045607D01*
X135766666Y-78140845D01*
X135719047Y-78188464D01*
X135623809Y-78236083D01*
X135528571Y-78236083D01*
X135433333Y-78188464D01*
X135385714Y-78140845D01*
X135338095Y-78045607D01*
X135290476Y-77855131D01*
X135290476Y-77617036D01*
X135338095Y-77426560D01*
X135385714Y-77331322D01*
X135433333Y-77283703D01*
X135528571Y-77236083D01*
%TO.C,C19*%
X133982142Y-79740845D02*
X133934523Y-79788464D01*
X133791666Y-79836083D01*
X133696428Y-79836083D01*
X133553571Y-79788464D01*
X133458333Y-79693226D01*
X133410714Y-79597988D01*
X133363095Y-79407512D01*
X133363095Y-79264655D01*
X133410714Y-79074179D01*
X133458333Y-78978941D01*
X133553571Y-78883703D01*
X133696428Y-78836083D01*
X133791666Y-78836083D01*
X133934523Y-78883703D01*
X133982142Y-78931322D01*
X134934523Y-79836083D02*
X134363095Y-79836083D01*
X134648809Y-79836083D02*
X134648809Y-78836083D01*
X134553571Y-78978941D01*
X134458333Y-79074179D01*
X134363095Y-79121798D01*
X135410714Y-79836083D02*
X135601190Y-79836083D01*
X135696428Y-79788464D01*
X135744047Y-79740845D01*
X135839285Y-79597988D01*
X135886904Y-79407512D01*
X135886904Y-79026560D01*
X135839285Y-78931322D01*
X135791666Y-78883703D01*
X135696428Y-78836083D01*
X135505952Y-78836083D01*
X135410714Y-78883703D01*
X135363095Y-78931322D01*
X135315476Y-79026560D01*
X135315476Y-79264655D01*
X135363095Y-79359893D01*
X135410714Y-79407512D01*
X135505952Y-79455131D01*
X135696428Y-79455131D01*
X135791666Y-79407512D01*
X135839285Y-79359893D01*
X135886904Y-79264655D01*
D11*
%TO.C,C6*%
X100510000Y-85162779D02*
X100510000Y-84837221D01*
X99490000Y-85162779D02*
X99490000Y-84837221D01*
%TO.C,C5*%
X113010000Y-85762779D02*
X113010000Y-85437221D01*
X111990000Y-85762779D02*
X111990000Y-85437221D01*
%TO.C,C4*%
X125510000Y-72950279D02*
X125510000Y-72624721D01*
X124490000Y-72950279D02*
X124490000Y-72624721D01*
%TO.C,C3*%
X111990000Y-82449721D02*
X111990000Y-82775279D01*
X113010000Y-82449721D02*
X113010000Y-82775279D01*
%TO.C,C2*%
X113010000Y-72412779D02*
X113010000Y-72087221D01*
X111990000Y-72412779D02*
X111990000Y-72087221D01*
%TO.C,C1*%
X125510000Y-82750279D02*
X125510000Y-82424721D01*
X124490000Y-82750279D02*
X124490000Y-82424721D01*
%TO.C,J1*%
X138080000Y-96940000D02*
X117640000Y-96940000D01*
X117640000Y-96940000D02*
X117640000Y-99600000D01*
X117640000Y-99600000D02*
X138080000Y-99600000D01*
X138080000Y-99600000D02*
X138080000Y-96940000D01*
X137130000Y-96610000D02*
X137130000Y-96940000D01*
X136370000Y-96610000D02*
X136370000Y-96940000D01*
X135480000Y-96940000D02*
X135480000Y-99600000D01*
X134590000Y-96542929D02*
X134590000Y-96940000D01*
X133830000Y-96542929D02*
X133830000Y-96940000D01*
X132940000Y-96940000D02*
X132940000Y-99600000D01*
X132050000Y-96542929D02*
X132050000Y-96940000D01*
X131290000Y-96542929D02*
X131290000Y-96940000D01*
X130400000Y-96940000D02*
X130400000Y-99600000D01*
X129510000Y-96542929D02*
X129510000Y-96940000D01*
X128750000Y-96542929D02*
X128750000Y-96940000D01*
X127860000Y-96940000D02*
X127860000Y-99600000D01*
X126970000Y-96542929D02*
X126970000Y-96940000D01*
X126210000Y-96542929D02*
X126210000Y-96940000D01*
X125320000Y-96940000D02*
X125320000Y-99600000D01*
X124430000Y-96542929D02*
X124430000Y-96940000D01*
X123670000Y-96542929D02*
X123670000Y-96940000D01*
X122780000Y-96940000D02*
X122780000Y-99600000D01*
X121890000Y-96542929D02*
X121890000Y-96940000D01*
X121130000Y-96542929D02*
X121130000Y-96940000D01*
X120240000Y-96940000D02*
X120240000Y-99600000D01*
X119350000Y-96542929D02*
X119350000Y-96940000D01*
X118590000Y-96542929D02*
X118590000Y-96940000D01*
X136750000Y-94230000D02*
X138020000Y-94230000D01*
X138020000Y-94230000D02*
X138020000Y-95500000D01*
%TO.C,C18*%
X131449721Y-81493703D02*
X131775279Y-81493703D01*
X131449721Y-80473703D02*
X131775279Y-80473703D01*
%TO.C,J2*%
X131590000Y-66163703D02*
X131590000Y-76323703D01*
X139210000Y-66163703D02*
X131590000Y-66163703D01*
X139210000Y-76323703D02*
X139210000Y-66163703D01*
X131590000Y-76323703D02*
X139210000Y-76323703D01*
X132860000Y-76323703D02*
X132860000Y-66163703D01*
%TO.C,U11*%
X111255000Y-77115000D02*
X111255000Y-75450000D01*
X111510000Y-77115000D02*
X111255000Y-77115000D01*
X111510000Y-79500000D02*
X111510000Y-77115000D01*
X111510000Y-81885000D02*
X111255000Y-81885000D01*
X111510000Y-79500000D02*
X111510000Y-81885000D01*
X100990000Y-77115000D02*
X101245000Y-77115000D01*
X100990000Y-79500000D02*
X100990000Y-77115000D01*
X100990000Y-81885000D02*
X101245000Y-81885000D01*
X100990000Y-79500000D02*
X100990000Y-81885000D01*
%TO.C,U10*%
X123755000Y-77115000D02*
X123755000Y-75450000D01*
X124010000Y-77115000D02*
X123755000Y-77115000D01*
X124010000Y-79500000D02*
X124010000Y-77115000D01*
X124010000Y-81885000D02*
X123755000Y-81885000D01*
X124010000Y-79500000D02*
X124010000Y-81885000D01*
X113490000Y-77115000D02*
X113745000Y-77115000D01*
X113490000Y-79500000D02*
X113490000Y-77115000D01*
X113490000Y-81885000D02*
X113745000Y-81885000D01*
X113490000Y-79500000D02*
X113490000Y-81885000D01*
%TO.C,U9*%
X129850000Y-71633703D02*
X129850000Y-69333703D01*
X126650000Y-70033703D02*
X126650000Y-71633703D01*
%TO.C,U8*%
X101245000Y-91385000D02*
X101245000Y-93050000D01*
X100990000Y-91385000D02*
X101245000Y-91385000D01*
X100990000Y-89000000D02*
X100990000Y-91385000D01*
X100990000Y-86615000D02*
X101245000Y-86615000D01*
X100990000Y-89000000D02*
X100990000Y-86615000D01*
X111510000Y-91385000D02*
X111255000Y-91385000D01*
X111510000Y-89000000D02*
X111510000Y-91385000D01*
X111510000Y-86615000D02*
X111255000Y-86615000D01*
X111510000Y-89000000D02*
X111510000Y-86615000D01*
%TO.C,U7*%
X111255000Y-67615000D02*
X111255000Y-65950000D01*
X111510000Y-67615000D02*
X111255000Y-67615000D01*
X111510000Y-70000000D02*
X111510000Y-67615000D01*
X111510000Y-72385000D02*
X111255000Y-72385000D01*
X111510000Y-70000000D02*
X111510000Y-72385000D01*
X100990000Y-67615000D02*
X101245000Y-67615000D01*
X100990000Y-70000000D02*
X100990000Y-67615000D01*
X100990000Y-72385000D02*
X101245000Y-72385000D01*
X100990000Y-70000000D02*
X100990000Y-72385000D01*
%TO.C,U6*%
X113745000Y-91385000D02*
X113745000Y-93050000D01*
X113490000Y-91385000D02*
X113745000Y-91385000D01*
X113490000Y-89000000D02*
X113490000Y-91385000D01*
X113490000Y-86615000D02*
X113745000Y-86615000D01*
X113490000Y-89000000D02*
X113490000Y-86615000D01*
X124010000Y-91385000D02*
X123755000Y-91385000D01*
X124010000Y-89000000D02*
X124010000Y-91385000D01*
X124010000Y-86615000D02*
X123755000Y-86615000D01*
X124010000Y-89000000D02*
X124010000Y-86615000D01*
%TO.C,U5*%
X123755000Y-67615000D02*
X123755000Y-65950000D01*
X124010000Y-67615000D02*
X123755000Y-67615000D01*
X124010000Y-70000000D02*
X124010000Y-67615000D01*
X124010000Y-72385000D02*
X123755000Y-72385000D01*
X124010000Y-70000000D02*
X124010000Y-72385000D01*
X113490000Y-67615000D02*
X113745000Y-67615000D01*
X113490000Y-70000000D02*
X113490000Y-67615000D01*
X113490000Y-72385000D02*
X113745000Y-72385000D01*
X113490000Y-70000000D02*
X113490000Y-72385000D01*
%TO.C,U4*%
X133245000Y-85583703D02*
X133245000Y-82583703D01*
X130005000Y-86583703D02*
X130005000Y-84583703D01*
%TO.C,TP5*%
X128700000Y-75083703D02*
G75*
G03*
X128700000Y-75083703I-700000J0D01*
G01*
%TO.C,TP4*%
X130900000Y-67383703D02*
G75*
G03*
X130900000Y-67383703I-700000J0D01*
G01*
%TO.C,R10*%
X131424721Y-78293703D02*
X131750279Y-78293703D01*
X131424721Y-77273703D02*
X131750279Y-77273703D01*
%TO.C,C19*%
X131775279Y-78873703D02*
X131449721Y-78873703D01*
X131775279Y-79893703D02*
X131449721Y-79893703D01*
%TD*%
M02*
