%TF.GenerationSoftware,KiCad,Pcbnew,5.99.0-unknown-ad88874~101~ubuntu20.04.1*%
%TF.CreationDate,2020-05-19T21:15:42-04:00*%
%TF.ProjectId,detector,64657465-6374-46f7-922e-6b696361645f,rev?*%
%TF.SameCoordinates,Original*%
%TF.FileFunction,Legend,Bot*%
%TF.FilePolarity,Positive*%
%FSLAX46Y46*%
G04 Gerber Fmt 4.6, Leading zero omitted, Abs format (unit mm)*
G04 Created by KiCad (PCBNEW 5.99.0-unknown-ad88874~101~ubuntu20.04.1) date 2020-05-19 21:15:42*
%MOMM*%
%LPD*%
G01*
G04 APERTURE LIST*
%ADD10C,0.300000*%
G04 APERTURE END LIST*
D10*
X117980714Y-67354060D02*
X117766428Y-67425488D01*
X117695000Y-67496917D01*
X117623571Y-67639774D01*
X117623571Y-67854060D01*
X117695000Y-67996917D01*
X117766428Y-68068345D01*
X117909285Y-68139774D01*
X118480714Y-68139774D01*
X118480714Y-66639774D01*
X117980714Y-66639774D01*
X117837857Y-66711203D01*
X117766428Y-66782631D01*
X117695000Y-66925488D01*
X117695000Y-67068345D01*
X117766428Y-67211203D01*
X117837857Y-67282631D01*
X117980714Y-67354060D01*
X118480714Y-67354060D01*
X116695000Y-66639774D02*
X116409285Y-66639774D01*
X116266428Y-66711203D01*
X116123571Y-66854060D01*
X116052142Y-67139774D01*
X116052142Y-67639774D01*
X116123571Y-67925488D01*
X116266428Y-68068345D01*
X116409285Y-68139774D01*
X116695000Y-68139774D01*
X116837857Y-68068345D01*
X116980714Y-67925488D01*
X117052142Y-67639774D01*
X117052142Y-67139774D01*
X116980714Y-66854060D01*
X116837857Y-66711203D01*
X116695000Y-66639774D01*
X115623571Y-66639774D02*
X114766428Y-66639774D01*
X115195000Y-68139774D02*
X115195000Y-66639774D01*
X114480714Y-66639774D02*
X113623571Y-66639774D01*
X114052142Y-68139774D02*
X114052142Y-66639774D01*
X112837857Y-66639774D02*
X112552142Y-66639774D01*
X112409285Y-66711203D01*
X112266428Y-66854060D01*
X112195000Y-67139774D01*
X112195000Y-67639774D01*
X112266428Y-67925488D01*
X112409285Y-68068345D01*
X112552142Y-68139774D01*
X112837857Y-68139774D01*
X112980714Y-68068345D01*
X113123571Y-67925488D01*
X113195000Y-67639774D01*
X113195000Y-67139774D01*
X113123571Y-66854060D01*
X112980714Y-66711203D01*
X112837857Y-66639774D01*
X111552142Y-68139774D02*
X111552142Y-66639774D01*
X111052142Y-67711203D01*
X110552142Y-66639774D01*
X110552142Y-68139774D01*
X108195000Y-67354060D02*
X108695000Y-67354060D01*
X108695000Y-68139774D02*
X108695000Y-66639774D01*
X107980714Y-66639774D01*
X107409285Y-67354060D02*
X106909285Y-67354060D01*
X106695000Y-68139774D02*
X107409285Y-68139774D01*
X107409285Y-66639774D01*
X106695000Y-66639774D01*
X106052142Y-67354060D02*
X105552142Y-67354060D01*
X105337857Y-68139774D02*
X106052142Y-68139774D01*
X106052142Y-66639774D01*
X105337857Y-66639774D01*
X104695000Y-68139774D02*
X104695000Y-66639774D01*
X104337857Y-66639774D01*
X104123571Y-66711203D01*
X103980714Y-66854060D01*
X103909285Y-66996917D01*
X103837857Y-67282631D01*
X103837857Y-67496917D01*
X103909285Y-67782631D01*
X103980714Y-67925488D01*
X104123571Y-68068345D01*
X104337857Y-68139774D01*
X104695000Y-68139774D01*
X103195000Y-67354060D02*
X102695000Y-67354060D01*
X102480714Y-68139774D02*
X103195000Y-68139774D01*
X103195000Y-66639774D01*
X102480714Y-66639774D01*
X100980714Y-68139774D02*
X101480714Y-67425488D01*
X101837857Y-68139774D02*
X101837857Y-66639774D01*
X101266428Y-66639774D01*
X101123571Y-66711203D01*
X101052142Y-66782631D01*
X100980714Y-66925488D01*
X100980714Y-67139774D01*
X101052142Y-67282631D01*
X101123571Y-67354060D01*
X101266428Y-67425488D01*
X101837857Y-67425488D01*
X119266428Y-70554774D02*
X119266428Y-69054774D01*
X118766428Y-70126203D01*
X118266428Y-69054774D01*
X118266428Y-70554774D01*
X117552142Y-69769060D02*
X117052142Y-69769060D01*
X116837857Y-70554774D02*
X117552142Y-70554774D01*
X117552142Y-69054774D01*
X116837857Y-69054774D01*
X116409285Y-69054774D02*
X115552142Y-69054774D01*
X115980714Y-70554774D02*
X115980714Y-69054774D01*
X115123571Y-70126203D02*
X114409285Y-70126203D01*
X115266428Y-70554774D02*
X114766428Y-69054774D01*
X114266428Y-70554774D01*
X113052142Y-70554774D02*
X113766428Y-70554774D01*
X113766428Y-69054774D01*
X111409285Y-70554774D02*
X111409285Y-69054774D01*
X111052142Y-69054774D01*
X110837857Y-69126203D01*
X110695000Y-69269060D01*
X110623571Y-69411917D01*
X110552142Y-69697631D01*
X110552142Y-69911917D01*
X110623571Y-70197631D01*
X110695000Y-70340488D01*
X110837857Y-70483345D01*
X111052142Y-70554774D01*
X111409285Y-70554774D01*
X109909285Y-69769060D02*
X109409285Y-69769060D01*
X109195000Y-70554774D02*
X109909285Y-70554774D01*
X109909285Y-69054774D01*
X109195000Y-69054774D01*
X108766428Y-69054774D02*
X107909285Y-69054774D01*
X108337857Y-70554774D02*
X108337857Y-69054774D01*
X107409285Y-69769060D02*
X106909285Y-69769060D01*
X106695000Y-70554774D02*
X107409285Y-70554774D01*
X107409285Y-69054774D01*
X106695000Y-69054774D01*
X105195000Y-70411917D02*
X105266428Y-70483345D01*
X105480714Y-70554774D01*
X105623571Y-70554774D01*
X105837857Y-70483345D01*
X105980714Y-70340488D01*
X106052142Y-70197631D01*
X106123571Y-69911917D01*
X106123571Y-69697631D01*
X106052142Y-69411917D01*
X105980714Y-69269060D01*
X105837857Y-69126203D01*
X105623571Y-69054774D01*
X105480714Y-69054774D01*
X105266428Y-69126203D01*
X105195000Y-69197631D01*
X104766428Y-69054774D02*
X103909285Y-69054774D01*
X104337857Y-70554774D02*
X104337857Y-69054774D01*
X103123571Y-69054774D02*
X102837857Y-69054774D01*
X102695000Y-69126203D01*
X102552142Y-69269060D01*
X102480714Y-69554774D01*
X102480714Y-70054774D01*
X102552142Y-70340488D01*
X102695000Y-70483345D01*
X102837857Y-70554774D01*
X103123571Y-70554774D01*
X103266428Y-70483345D01*
X103409285Y-70340488D01*
X103480714Y-70054774D01*
X103480714Y-69554774D01*
X103409285Y-69269060D01*
X103266428Y-69126203D01*
X103123571Y-69054774D01*
X100980714Y-70554774D02*
X101480714Y-69840488D01*
X101837857Y-70554774D02*
X101837857Y-69054774D01*
X101266428Y-69054774D01*
X101123571Y-69126203D01*
X101052142Y-69197631D01*
X100980714Y-69340488D01*
X100980714Y-69554774D01*
X101052142Y-69697631D01*
X101123571Y-69769060D01*
X101266428Y-69840488D01*
X101837857Y-69840488D01*
X124123571Y-71469774D02*
X123837857Y-71469774D01*
X123695000Y-71541203D01*
X123552142Y-71684060D01*
X123480714Y-71969774D01*
X123480714Y-72469774D01*
X123552142Y-72755488D01*
X123695000Y-72898345D01*
X123837857Y-72969774D01*
X124123571Y-72969774D01*
X124266428Y-72898345D01*
X124409285Y-72755488D01*
X124480714Y-72469774D01*
X124480714Y-71969774D01*
X124409285Y-71684060D01*
X124266428Y-71541203D01*
X124123571Y-71469774D01*
X122909285Y-72898345D02*
X122695000Y-72969774D01*
X122337857Y-72969774D01*
X122195000Y-72898345D01*
X122123571Y-72826917D01*
X122052142Y-72684060D01*
X122052142Y-72541203D01*
X122123571Y-72398345D01*
X122195000Y-72326917D01*
X122337857Y-72255488D01*
X122623571Y-72184060D01*
X122766428Y-72112631D01*
X122837857Y-72041203D01*
X122909285Y-71898345D01*
X122909285Y-71755488D01*
X122837857Y-71612631D01*
X122766428Y-71541203D01*
X122623571Y-71469774D01*
X122266428Y-71469774D01*
X122052142Y-71541203D01*
X120552142Y-72826917D02*
X120623571Y-72898345D01*
X120837857Y-72969774D01*
X120980714Y-72969774D01*
X121195000Y-72898345D01*
X121337857Y-72755488D01*
X121409285Y-72612631D01*
X121480714Y-72326917D01*
X121480714Y-72112631D01*
X121409285Y-71826917D01*
X121337857Y-71684060D01*
X121195000Y-71541203D01*
X120980714Y-71469774D01*
X120837857Y-71469774D01*
X120623571Y-71541203D01*
X120552142Y-71612631D01*
X119909285Y-72969774D02*
X119909285Y-71469774D01*
X118480714Y-72969774D02*
X119195000Y-72969774D01*
X119195000Y-71469774D01*
X117266428Y-72969774D02*
X117980714Y-72969774D01*
X117980714Y-71469774D01*
X116837857Y-72541203D02*
X116123571Y-72541203D01*
X116980714Y-72969774D02*
X116480714Y-71469774D01*
X115980714Y-72969774D01*
X115695000Y-71469774D02*
X114837857Y-71469774D01*
X115266428Y-72969774D02*
X115266428Y-71469774D01*
X114052142Y-71469774D02*
X113766428Y-71469774D01*
X113623571Y-71541203D01*
X113480714Y-71684060D01*
X113409285Y-71969774D01*
X113409285Y-72469774D01*
X113480714Y-72755488D01*
X113623571Y-72898345D01*
X113766428Y-72969774D01*
X114052142Y-72969774D01*
X114195000Y-72898345D01*
X114337857Y-72755488D01*
X114409285Y-72469774D01*
X114409285Y-71969774D01*
X114337857Y-71684060D01*
X114195000Y-71541203D01*
X114052142Y-71469774D01*
X111909285Y-72969774D02*
X112409285Y-72255488D01*
X112766428Y-72969774D02*
X112766428Y-71469774D01*
X112195000Y-71469774D01*
X112052142Y-71541203D01*
X111980714Y-71612631D01*
X111909285Y-71755488D01*
X111909285Y-71969774D01*
X111980714Y-72112631D01*
X112052142Y-72184060D01*
X112195000Y-72255488D01*
X112766428Y-72255488D01*
X110195000Y-72541203D02*
X109480714Y-72541203D01*
X110337857Y-72969774D02*
X109837857Y-71469774D01*
X109337857Y-72969774D01*
X108837857Y-72969774D02*
X108837857Y-71469774D01*
X107980714Y-72969774D01*
X107980714Y-71469774D01*
X107266428Y-72969774D02*
X107266428Y-71469774D01*
X106909285Y-71469774D01*
X106695000Y-71541203D01*
X106552142Y-71684060D01*
X106480714Y-71826917D01*
X106409285Y-72112631D01*
X106409285Y-72326917D01*
X106480714Y-72612631D01*
X106552142Y-72755488D01*
X106695000Y-72898345D01*
X106909285Y-72969774D01*
X107266428Y-72969774D01*
X104695000Y-72541203D02*
X103980714Y-72541203D01*
X104837857Y-72969774D02*
X104337857Y-71469774D01*
X103837857Y-72969774D01*
X103337857Y-72969774D02*
X103337857Y-71469774D01*
X102980714Y-71469774D01*
X102766428Y-71541203D01*
X102623571Y-71684060D01*
X102552142Y-71826917D01*
X102480714Y-72112631D01*
X102480714Y-72326917D01*
X102552142Y-72612631D01*
X102623571Y-72755488D01*
X102766428Y-72898345D01*
X102980714Y-72969774D01*
X103337857Y-72969774D01*
X100980714Y-72826917D02*
X101052142Y-72898345D01*
X101266428Y-72969774D01*
X101409285Y-72969774D01*
X101623571Y-72898345D01*
X101766428Y-72755488D01*
X101837857Y-72612631D01*
X101909285Y-72326917D01*
X101909285Y-72112631D01*
X101837857Y-71826917D01*
X101766428Y-71684060D01*
X101623571Y-71541203D01*
X101409285Y-71469774D01*
X101266428Y-71469774D01*
X101052142Y-71541203D01*
X100980714Y-71612631D01*
X126052142Y-75384774D02*
X126552142Y-74670488D01*
X126909285Y-75384774D02*
X126909285Y-73884774D01*
X126337857Y-73884774D01*
X126195000Y-73956203D01*
X126123571Y-74027631D01*
X126052142Y-74170488D01*
X126052142Y-74384774D01*
X126123571Y-74527631D01*
X126195000Y-74599060D01*
X126337857Y-74670488D01*
X126909285Y-74670488D01*
X125409285Y-74599060D02*
X124909285Y-74599060D01*
X124695000Y-75384774D02*
X125409285Y-75384774D01*
X125409285Y-73884774D01*
X124695000Y-73884774D01*
X124266428Y-73884774D02*
X123766428Y-75384774D01*
X123266428Y-73884774D01*
X121695000Y-74956203D02*
X120980714Y-74956203D01*
X121837857Y-75384774D02*
X121337857Y-73884774D01*
X120837857Y-75384774D01*
X119195000Y-74813345D02*
X118052142Y-74813345D01*
X116195000Y-75384774D02*
X116195000Y-73884774D01*
X115695000Y-74956203D01*
X115195000Y-73884774D01*
X115195000Y-75384774D01*
X114552142Y-74956203D02*
X113837857Y-74956203D01*
X114695000Y-75384774D02*
X114195000Y-73884774D01*
X113695000Y-75384774D01*
X112909285Y-74670488D02*
X112909285Y-75384774D01*
X113409285Y-73884774D02*
X112909285Y-74670488D01*
X112409285Y-73884774D01*
X109980714Y-75384774D02*
X110837857Y-75384774D01*
X110409285Y-75384774D02*
X110409285Y-73884774D01*
X110552142Y-74099060D01*
X110695000Y-74241917D01*
X110837857Y-74313345D01*
X109266428Y-75384774D02*
X108980714Y-75384774D01*
X108837857Y-75313345D01*
X108766428Y-75241917D01*
X108623571Y-75027631D01*
X108552142Y-74741917D01*
X108552142Y-74170488D01*
X108623571Y-74027631D01*
X108695000Y-73956203D01*
X108837857Y-73884774D01*
X109123571Y-73884774D01*
X109266428Y-73956203D01*
X109337857Y-74027631D01*
X109409285Y-74170488D01*
X109409285Y-74527631D01*
X109337857Y-74670488D01*
X109266428Y-74741917D01*
X109123571Y-74813345D01*
X108837857Y-74813345D01*
X108695000Y-74741917D01*
X108623571Y-74670488D01*
X108552142Y-74527631D01*
X107837857Y-75313345D02*
X107837857Y-75384774D01*
X107909285Y-75527631D01*
X107980714Y-75599060D01*
X106123571Y-74027631D02*
X106052142Y-73956203D01*
X105909285Y-73884774D01*
X105552142Y-73884774D01*
X105409285Y-73956203D01*
X105337857Y-74027631D01*
X105266428Y-74170488D01*
X105266428Y-74313345D01*
X105337857Y-74527631D01*
X106195000Y-75384774D01*
X105266428Y-75384774D01*
X104337857Y-73884774D02*
X104195000Y-73884774D01*
X104052142Y-73956203D01*
X103980714Y-74027631D01*
X103909285Y-74170488D01*
X103837857Y-74456203D01*
X103837857Y-74813345D01*
X103909285Y-75099060D01*
X103980714Y-75241917D01*
X104052142Y-75313345D01*
X104195000Y-75384774D01*
X104337857Y-75384774D01*
X104480714Y-75313345D01*
X104552142Y-75241917D01*
X104623571Y-75099060D01*
X104695000Y-74813345D01*
X104695000Y-74456203D01*
X104623571Y-74170488D01*
X104552142Y-74027631D01*
X104480714Y-73956203D01*
X104337857Y-73884774D01*
X103266428Y-74027631D02*
X103195000Y-73956203D01*
X103052142Y-73884774D01*
X102695000Y-73884774D01*
X102552142Y-73956203D01*
X102480714Y-74027631D01*
X102409285Y-74170488D01*
X102409285Y-74313345D01*
X102480714Y-74527631D01*
X103337857Y-75384774D01*
X102409285Y-75384774D01*
X101480714Y-73884774D02*
X101337857Y-73884774D01*
X101195000Y-73956203D01*
X101123571Y-74027631D01*
X101052142Y-74170488D01*
X100980714Y-74456203D01*
X100980714Y-74813345D01*
X101052142Y-75099060D01*
X101123571Y-75241917D01*
X101195000Y-75313345D01*
X101337857Y-75384774D01*
X101480714Y-75384774D01*
X101623571Y-75313345D01*
X101695000Y-75241917D01*
X101766428Y-75099060D01*
X101837857Y-74813345D01*
X101837857Y-74456203D01*
X101766428Y-74170488D01*
X101695000Y-74027631D01*
X101623571Y-73956203D01*
X101480714Y-73884774D01*
X136214285Y-98878571D02*
X137071428Y-98878571D01*
X136642857Y-98878571D02*
X136642857Y-97378571D01*
X136785714Y-97592857D01*
X136928571Y-97735714D01*
X137071428Y-97807142D01*
X135285714Y-97378571D02*
X135142857Y-97378571D01*
X135000000Y-97450000D01*
X134928571Y-97521428D01*
X134857142Y-97664285D01*
X134785714Y-97950000D01*
X134785714Y-98307142D01*
X134857142Y-98592857D01*
X134928571Y-98735714D01*
X135000000Y-98807142D01*
X135142857Y-98878571D01*
X135285714Y-98878571D01*
X135428571Y-98807142D01*
X135500000Y-98735714D01*
X135571428Y-98592857D01*
X135642857Y-98307142D01*
X135642857Y-97950000D01*
X135571428Y-97664285D01*
X135500000Y-97521428D01*
X135428571Y-97450000D01*
X135285714Y-97378571D01*
X133857142Y-97378571D02*
X133714285Y-97378571D01*
X133571428Y-97450000D01*
X133500000Y-97521428D01*
X133428571Y-97664285D01*
X133357142Y-97950000D01*
X133357142Y-98307142D01*
X133428571Y-98592857D01*
X133500000Y-98735714D01*
X133571428Y-98807142D01*
X133714285Y-98878571D01*
X133857142Y-98878571D01*
X134000000Y-98807142D01*
X134071428Y-98735714D01*
X134142857Y-98592857D01*
X134214285Y-98307142D01*
X134214285Y-97950000D01*
X134142857Y-97664285D01*
X134071428Y-97521428D01*
X134000000Y-97450000D01*
X133857142Y-97378571D01*
X131571428Y-98878571D02*
X131571428Y-97378571D01*
X130714285Y-98878571D01*
X130714285Y-97378571D01*
X130071428Y-98450000D02*
X129357142Y-98450000D01*
X130214285Y-98878571D02*
X129714285Y-97378571D01*
X129214285Y-98878571D01*
X128714285Y-98878571D02*
X128714285Y-97378571D01*
X127857142Y-98878571D01*
X127857142Y-97378571D01*
X127142857Y-98878571D02*
X127142857Y-97378571D01*
X126785714Y-97378571D01*
X126571428Y-97450000D01*
X126428571Y-97592857D01*
X126357142Y-97735714D01*
X126285714Y-98021428D01*
X126285714Y-98235714D01*
X126357142Y-98521428D01*
X126428571Y-98664285D01*
X126571428Y-98807142D01*
X126785714Y-98878571D01*
X127142857Y-98878571D01*
X123714285Y-97450000D02*
X123857142Y-97378571D01*
X124071428Y-97378571D01*
X124285714Y-97450000D01*
X124428571Y-97592857D01*
X124500000Y-97735714D01*
X124571428Y-98021428D01*
X124571428Y-98235714D01*
X124500000Y-98521428D01*
X124428571Y-98664285D01*
X124285714Y-98807142D01*
X124071428Y-98878571D01*
X123928571Y-98878571D01*
X123714285Y-98807142D01*
X123642857Y-98735714D01*
X123642857Y-98235714D01*
X123928571Y-98235714D01*
X123071428Y-98450000D02*
X122357142Y-98450000D01*
X123214285Y-98878571D02*
X122714285Y-97378571D01*
X122214285Y-98878571D01*
X121928571Y-97378571D02*
X121071428Y-97378571D01*
X121500000Y-98878571D02*
X121500000Y-97378571D01*
X120571428Y-98092857D02*
X120071428Y-98092857D01*
X119857142Y-98878571D02*
X120571428Y-98878571D01*
X120571428Y-97378571D01*
X119857142Y-97378571D01*
X119285714Y-98807142D02*
X119071428Y-98878571D01*
X118714285Y-98878571D01*
X118571428Y-98807142D01*
X118500000Y-98735714D01*
X118428571Y-98592857D01*
X118428571Y-98450000D01*
X118500000Y-98307142D01*
X118571428Y-98235714D01*
X118714285Y-98164285D01*
X119000000Y-98092857D01*
X119142857Y-98021428D01*
X119214285Y-97950000D01*
X119285714Y-97807142D01*
X119285714Y-97664285D01*
X119214285Y-97521428D01*
X119142857Y-97450000D01*
X119000000Y-97378571D01*
X118642857Y-97378571D01*
X118428571Y-97450000D01*
M02*
