M48
; DRILL file {KiCad 5.99.0-unknown-ad88874~101~ubuntu20.04.1} date Tue May 19 21:15:44 2020
; FORMAT={-:-/ absolute / inch / decimal}
; #@! TF.CreationDate,2020-05-19T21:15:44-04:00
; #@! TF.GenerationSoftware,Kicad,Pcbnew,5.99.0-unknown-ad88874~101~ubuntu20.04.1
; #@! TF.FileFunction,Plated,1,2,PTH
FMAT,2
INCH
T1C0.0157
T2C0.0394
T3C0.0598
%
G90
G05
T1
X3.9862Y-2.7461
X3.9862Y-3.3169
X4.0079Y-3.748
X4.0157Y-2.9429
X4.0551Y-3.0512
X4.0581Y-2.6841
X4.0581Y-2.812
X4.1543Y-3.0797
X4.2283Y-3.1811
X4.2766Y-3.4793
X4.2815Y-3.1201
X4.311Y-3.0807
X4.3504Y-2.7461
X4.3602Y-2.9429
X4.3602Y-3.0807
X4.3602Y-3.189
X4.3602Y-3.3169
X4.3898Y-2.628
X4.4016Y-3.4882
X4.4288Y-2.9321
X4.439Y-3.0807
X4.4877Y-3.1895
X4.4909Y-3.328
X4.4961Y-3.7402
X4.498Y-2.9429
X4.5002Y-3.4963
X4.5472Y-3.0512
X4.5472Y-3.1201
X4.5472Y-3.5728
X4.5502Y-2.69
X4.5512Y-3.4488
X4.6457Y-3.1988
X4.6535Y-3.5433
X4.7248Y-3.0941
X4.7343Y-3.7106
X4.8002Y-3.1959
X4.8031Y-3.435
X4.8031Y-3.563
X4.813Y-3.1398
X4.8327Y-3.061
X4.8425Y-2.9429
X4.8425Y-3.3169
X4.8425Y-3.3169
X4.874Y-3.126
X4.8783Y-3.2034
X4.8819Y-2.628
X4.9114Y-3.4055
X4.9115Y-2.7165
X4.9311Y-3.1594
X4.937Y-3.063
X4.9508Y-2.7657
X4.9705Y-2.6181
X5.0945Y-3.2835
X5.1181Y-2.8379
X5.2225Y-3.3706
T2
X4.6839Y-3.7598
X4.7839Y-3.7598
X4.8839Y-3.7598
X4.9839Y-3.7598
X5.0839Y-3.7598
X5.1839Y-3.7598
X5.2839Y-3.7598
X5.3839Y-3.7598
T3
X5.3307Y-2.7049
X5.3307Y-2.9049
T0
M30
