M48
; DRILL file {KiCad 5.99.0-unknown-1463dd1~101~ubuntu20.04.1} date Wed Jul  8 00:13:36 2020
; FORMAT={-:-/ absolute / inch / decimal}
; #@! TF.CreationDate,2020-07-08T00:13:36-04:00
; #@! TF.GenerationSoftware,Kicad,Pcbnew,5.99.0-unknown-1463dd1~101~ubuntu20.04.1
; #@! TF.FileFunction,Plated,1,2,PTH
FMAT,2
INCH
T1C0.0276
T2C0.0394
%
G90
G05
T1
X3.4764Y-3.7008
X3.4764Y-3.7598
X3.4764Y-3.8189
X3.4764Y-3.878
X3.4764Y-3.937
X3.4764Y-3.9961
X3.4764Y-4.0551
X3.4764Y-4.1142
X3.4764Y-4.1732
X3.5551Y-3.7402
X3.5551Y-3.7992
X3.5551Y-3.8583
X3.5551Y-3.9173
X3.5551Y-3.9764
X3.5551Y-4.0354
X3.5551Y-4.0945
X3.5551Y-4.1535
X3.6339Y-3.7205
X3.6339Y-3.7795
X3.6339Y-3.8386
X3.6339Y-3.8976
X3.6339Y-3.9567
X3.6339Y-4.0157
X3.6339Y-4.0748
X3.6339Y-4.1339
X3.7008Y-3.4764
X3.7008Y-4.3976
X3.7205Y-3.5551
X3.7205Y-4.2402
X3.7402Y-3.6339
X3.7402Y-4.3189
X3.7598Y-3.4764
X3.7598Y-4.3976
X3.7795Y-3.5551
X3.7795Y-4.2402
X3.7992Y-3.6339
X3.7992Y-4.3189
X3.8189Y-3.4764
X3.8189Y-4.3976
X3.8386Y-3.5551
X3.8386Y-4.2402
X3.8583Y-3.6339
X3.8583Y-4.3189
X3.878Y-3.4764
X3.878Y-4.3976
X3.8976Y-3.5551
X3.8976Y-4.2402
X3.9173Y-3.6339
X3.9173Y-4.3189
X3.937Y-3.4764
X3.937Y-4.3976
X3.9567Y-3.5551
X3.9567Y-4.2402
X3.9764Y-3.6339
X3.9764Y-4.3189
X3.9961Y-3.4764
X3.9961Y-4.3976
X4.0157Y-3.5551
X4.0157Y-4.2402
X4.0354Y-3.6339
X4.0354Y-4.3189
X4.0551Y-3.4764
X4.0551Y-4.3976
X4.0748Y-3.5551
X4.0748Y-4.2402
X4.0945Y-3.6339
X4.0945Y-4.3189
X4.1142Y-3.4764
X4.1142Y-4.3976
X4.1339Y-3.5551
X4.1339Y-4.2402
X4.1535Y-3.6339
X4.1535Y-4.3189
X4.1732Y-3.4764
X4.1732Y-4.3976
X4.2402Y-3.7402
X4.2402Y-3.7992
X4.2402Y-3.8583
X4.2402Y-3.9173
X4.2402Y-3.9764
X4.2402Y-4.0354
X4.2402Y-4.0945
X4.2402Y-4.1535
X4.3189Y-3.7205
X4.3189Y-3.7795
X4.3189Y-3.8386
X4.3189Y-3.8976
X4.3189Y-3.9567
X4.3189Y-4.0157
X4.3189Y-4.0748
X4.3189Y-4.1339
X4.3976Y-3.7008
X4.3976Y-3.7598
X4.3976Y-3.8189
X4.3976Y-3.878
X4.3976Y-3.937
X4.3976Y-3.9961
X4.3976Y-4.0551
X4.3976Y-4.1142
X4.3976Y-4.1732
T2
X3.037Y-3.337
X3.037Y-3.437
X3.037Y-3.537
X3.037Y-3.637
X3.037Y-3.737
X3.037Y-3.837
X3.037Y-3.937
X3.037Y-4.037
X3.037Y-4.137
X3.037Y-4.237
X3.037Y-4.337
X3.037Y-4.437
X3.037Y-4.537
X3.137Y-3.337
X3.137Y-3.437
X3.137Y-3.537
X3.137Y-3.637
X3.137Y-3.737
X3.137Y-3.837
X3.137Y-3.937
X3.137Y-4.037
X3.137Y-4.137
X3.137Y-4.237
X3.137Y-4.337
X3.137Y-4.437
X3.137Y-4.537
X3.337Y-4.737
X3.337Y-4.837
X3.437Y-4.737
X3.437Y-4.837
X3.537Y-4.737
X3.537Y-4.837
X3.637Y-4.737
X3.637Y-4.837
X3.737Y-4.737
X3.737Y-4.837
X3.837Y-4.737
X3.837Y-4.837
X3.937Y-4.737
X3.937Y-4.837
X4.037Y-4.737
X4.037Y-4.837
X4.137Y-4.737
X4.137Y-4.837
X4.237Y-4.737
X4.237Y-4.837
X4.337Y-4.737
X4.337Y-4.837
X4.437Y-4.737
X4.437Y-4.837
X4.537Y-4.737
X4.537Y-4.837
X3.337Y-3.037
X3.337Y-3.137
X3.437Y-3.037
X3.437Y-3.137
X3.537Y-3.037
X3.537Y-3.137
X3.637Y-3.037
X3.637Y-3.137
X3.737Y-3.037
X3.737Y-3.137
X3.837Y-3.037
X3.837Y-3.137
X3.937Y-3.037
X3.937Y-3.137
X4.037Y-3.037
X4.037Y-3.137
X4.137Y-3.037
X4.137Y-3.137
X4.237Y-3.037
X4.237Y-3.137
X4.337Y-3.037
X4.337Y-3.137
X4.437Y-3.037
X4.437Y-3.137
X4.537Y-3.037
X4.537Y-3.137
X4.737Y-3.337
X4.737Y-3.437
X4.737Y-3.537
X4.737Y-3.637
X4.737Y-3.737
X4.737Y-3.837
X4.737Y-3.937
X4.737Y-4.037
X4.737Y-4.137
X4.737Y-4.237
X4.737Y-4.337
X4.737Y-4.437
X4.737Y-4.537
X4.837Y-3.337
X4.837Y-3.437
X4.837Y-3.537
X4.837Y-3.637
X4.837Y-3.737
X4.837Y-3.837
X4.837Y-3.937
X4.837Y-4.037
X4.837Y-4.137
X4.837Y-4.237
X4.837Y-4.337
X4.837Y-4.437
X4.837Y-4.537
T0
M30
