G04 #@! TF.GenerationSoftware,KiCad,Pcbnew,5.99.0-unknown-ad88874~101~ubuntu20.04.1*
G04 #@! TF.CreationDate,2020-05-19T21:28:09-04:00*
G04 #@! TF.ProjectId,L298,4c323938-2e6b-4696-9361-645f70636258,rev?*
G04 #@! TF.SameCoordinates,Original*
G04 #@! TF.FileFunction,Legend,Bot*
G04 #@! TF.FilePolarity,Positive*
%FSLAX46Y46*%
G04 Gerber Fmt 4.6, Leading zero omitted, Abs format (unit mm)*
G04 Created by KiCad (PCBNEW 5.99.0-unknown-ad88874~101~ubuntu20.04.1) date 2020-05-19 21:28:09*
%MOMM*%
%LPD*%
G01*
G04 APERTURE LIST*
%ADD10C,0.200000*%
G04 APERTURE END LIST*
D10*
X102010666Y-124857142D02*
X102010666Y-124476190D01*
X101782095Y-124933333D02*
X102582095Y-124666666D01*
X101782095Y-124400000D01*
X101782095Y-124133333D02*
X102582095Y-124133333D01*
X102582095Y-123828571D01*
X102544000Y-123752380D01*
X102505904Y-123714285D01*
X102429714Y-123676190D01*
X102315428Y-123676190D01*
X102239238Y-123714285D01*
X102201142Y-123752380D01*
X102163047Y-123828571D01*
X102163047Y-124133333D01*
X101782095Y-123333333D02*
X102582095Y-123333333D01*
X102582095Y-123028571D01*
X102544000Y-122952380D01*
X102505904Y-122914285D01*
X102429714Y-122876190D01*
X102315428Y-122876190D01*
X102239238Y-122914285D01*
X102201142Y-122952380D01*
X102163047Y-123028571D01*
X102163047Y-123333333D01*
X101782095Y-122076190D02*
X102163047Y-122342857D01*
X101782095Y-122533333D02*
X102582095Y-122533333D01*
X102582095Y-122228571D01*
X102544000Y-122152380D01*
X102505904Y-122114285D01*
X102429714Y-122076190D01*
X102315428Y-122076190D01*
X102239238Y-122114285D01*
X102201142Y-122152380D01*
X102163047Y-122228571D01*
X102163047Y-122533333D01*
X102582095Y-121580952D02*
X102582095Y-121428571D01*
X102544000Y-121352380D01*
X102467809Y-121276190D01*
X102315428Y-121238095D01*
X102048761Y-121238095D01*
X101896380Y-121276190D01*
X101820190Y-121352380D01*
X101782095Y-121428571D01*
X101782095Y-121580952D01*
X101820190Y-121657142D01*
X101896380Y-121733333D01*
X102048761Y-121771428D01*
X102315428Y-121771428D01*
X102467809Y-121733333D01*
X102544000Y-121657142D01*
X102582095Y-121580952D01*
X101782095Y-120895238D02*
X102582095Y-120895238D01*
X102582095Y-120590476D01*
X102544000Y-120514285D01*
X102505904Y-120476190D01*
X102429714Y-120438095D01*
X102315428Y-120438095D01*
X102239238Y-120476190D01*
X102201142Y-120514285D01*
X102163047Y-120590476D01*
X102163047Y-120895238D01*
X101782095Y-119638095D02*
X102163047Y-119904761D01*
X101782095Y-120095238D02*
X102582095Y-120095238D01*
X102582095Y-119790476D01*
X102544000Y-119714285D01*
X102505904Y-119676190D01*
X102429714Y-119638095D01*
X102315428Y-119638095D01*
X102239238Y-119676190D01*
X102201142Y-119714285D01*
X102163047Y-119790476D01*
X102163047Y-120095238D01*
X101782095Y-119295238D02*
X102582095Y-119295238D01*
X102010666Y-118952380D02*
X102010666Y-118571428D01*
X101782095Y-119028571D02*
X102582095Y-118761904D01*
X101782095Y-118495238D01*
X102582095Y-118342857D02*
X102582095Y-117885714D01*
X101782095Y-118114285D02*
X102582095Y-118114285D01*
X102201142Y-117619047D02*
X102201142Y-117352380D01*
X101782095Y-117238095D02*
X101782095Y-117619047D01*
X102582095Y-117619047D01*
X102582095Y-117238095D01*
X102086857Y-116285714D02*
X102086857Y-115676190D01*
X102582095Y-114800000D02*
X102582095Y-114342857D01*
X101782095Y-114571428D02*
X102582095Y-114571428D01*
X102010666Y-114114285D02*
X102010666Y-113733333D01*
X101782095Y-114190476D02*
X102582095Y-113923809D01*
X101782095Y-113657142D01*
X102201142Y-113123809D02*
X102163047Y-113009523D01*
X102124952Y-112971428D01*
X102048761Y-112933333D01*
X101934476Y-112933333D01*
X101858285Y-112971428D01*
X101820190Y-113009523D01*
X101782095Y-113085714D01*
X101782095Y-113390476D01*
X102582095Y-113390476D01*
X102582095Y-113123809D01*
X102544000Y-113047619D01*
X102505904Y-113009523D01*
X102429714Y-112971428D01*
X102353523Y-112971428D01*
X102277333Y-113009523D01*
X102239238Y-113047619D01*
X102201142Y-113123809D01*
X102201142Y-113390476D01*
X101782095Y-112209523D02*
X101782095Y-112590476D01*
X102582095Y-112590476D01*
X102201142Y-111942857D02*
X102201142Y-111676190D01*
X101782095Y-111561904D02*
X101782095Y-111942857D01*
X102582095Y-111942857D01*
X102582095Y-111561904D01*
X102086857Y-110609523D02*
X102086857Y-110000000D01*
X102582095Y-108857142D02*
X102582095Y-108704761D01*
X102544000Y-108628571D01*
X102467809Y-108552380D01*
X102315428Y-108514285D01*
X102048761Y-108514285D01*
X101896380Y-108552380D01*
X101820190Y-108628571D01*
X101782095Y-108704761D01*
X101782095Y-108857142D01*
X101820190Y-108933333D01*
X101896380Y-109009523D01*
X102048761Y-109047619D01*
X102315428Y-109047619D01*
X102467809Y-109009523D01*
X102544000Y-108933333D01*
X102582095Y-108857142D01*
X102201142Y-107904761D02*
X102201142Y-108171428D01*
X101782095Y-108171428D02*
X102582095Y-108171428D01*
X102582095Y-107790476D01*
X102201142Y-107219047D02*
X102201142Y-107485714D01*
X101782095Y-107485714D02*
X102582095Y-107485714D01*
X102582095Y-107104761D01*
X100532190Y-124666666D02*
X100494095Y-124552380D01*
X100494095Y-124361904D01*
X100532190Y-124285714D01*
X100570285Y-124247619D01*
X100646476Y-124209523D01*
X100722666Y-124209523D01*
X100798857Y-124247619D01*
X100836952Y-124285714D01*
X100875047Y-124361904D01*
X100913142Y-124514285D01*
X100951238Y-124590476D01*
X100989333Y-124628571D01*
X101065523Y-124666666D01*
X101141714Y-124666666D01*
X101217904Y-124628571D01*
X101256000Y-124590476D01*
X101294095Y-124514285D01*
X101294095Y-124323809D01*
X101256000Y-124209523D01*
X100570285Y-123409523D02*
X100532190Y-123447619D01*
X100494095Y-123561904D01*
X100494095Y-123638095D01*
X100532190Y-123752380D01*
X100608380Y-123828571D01*
X100684571Y-123866666D01*
X100836952Y-123904761D01*
X100951238Y-123904761D01*
X101103619Y-123866666D01*
X101179809Y-123828571D01*
X101256000Y-123752380D01*
X101294095Y-123638095D01*
X101294095Y-123561904D01*
X101256000Y-123447619D01*
X101217904Y-123409523D01*
X100494095Y-122609523D02*
X100875047Y-122876190D01*
X100494095Y-123066666D02*
X101294095Y-123066666D01*
X101294095Y-122761904D01*
X101256000Y-122685714D01*
X101217904Y-122647619D01*
X101141714Y-122609523D01*
X101027428Y-122609523D01*
X100951238Y-122647619D01*
X100913142Y-122685714D01*
X100875047Y-122761904D01*
X100875047Y-123066666D01*
X100913142Y-122266666D02*
X100913142Y-122000000D01*
X100494095Y-121885714D02*
X100494095Y-122266666D01*
X101294095Y-122266666D01*
X101294095Y-121885714D01*
X100913142Y-121542857D02*
X100913142Y-121276190D01*
X100494095Y-121161904D02*
X100494095Y-121542857D01*
X101294095Y-121542857D01*
X101294095Y-121161904D01*
X100494095Y-120819047D02*
X101294095Y-120819047D01*
X100494095Y-120361904D01*
X101294095Y-120361904D01*
X100798857Y-119371428D02*
X100798857Y-118761904D01*
X100913142Y-117504761D02*
X100913142Y-117771428D01*
X100494095Y-117771428D02*
X101294095Y-117771428D01*
X101294095Y-117390476D01*
X100722666Y-117123809D02*
X100722666Y-116742857D01*
X100494095Y-117200000D02*
X101294095Y-116933333D01*
X100494095Y-116666666D01*
X100532190Y-116438095D02*
X100494095Y-116323809D01*
X100494095Y-116133333D01*
X100532190Y-116057142D01*
X100570285Y-116019047D01*
X100646476Y-115980952D01*
X100722666Y-115980952D01*
X100798857Y-116019047D01*
X100836952Y-116057142D01*
X100875047Y-116133333D01*
X100913142Y-116285714D01*
X100951238Y-116361904D01*
X100989333Y-116400000D01*
X101065523Y-116438095D01*
X101141714Y-116438095D01*
X101217904Y-116400000D01*
X101256000Y-116361904D01*
X101294095Y-116285714D01*
X101294095Y-116095238D01*
X101256000Y-115980952D01*
X101294095Y-115752380D02*
X101294095Y-115295238D01*
X100494095Y-115523809D02*
X101294095Y-115523809D01*
X100798857Y-114419047D02*
X100798857Y-113809523D01*
X100494095Y-112438095D02*
X100494095Y-112819047D01*
X101294095Y-112819047D01*
X100494095Y-112171428D02*
X101294095Y-112171428D01*
X101294095Y-111904761D02*
X101294095Y-111447619D01*
X100494095Y-111676190D02*
X101294095Y-111676190D01*
X100913142Y-111180952D02*
X100913142Y-110914285D01*
X100494095Y-110800000D02*
X100494095Y-111180952D01*
X101294095Y-111180952D01*
X101294095Y-110800000D01*
X100494095Y-110000000D02*
X100875047Y-110266666D01*
X100494095Y-110457142D02*
X101294095Y-110457142D01*
X101294095Y-110152380D01*
X101256000Y-110076190D01*
X101217904Y-110038095D01*
X101141714Y-110000000D01*
X101027428Y-110000000D01*
X100951238Y-110038095D01*
X100913142Y-110076190D01*
X100875047Y-110152380D01*
X100875047Y-110457142D01*
X100722666Y-109695238D02*
X100722666Y-109314285D01*
X100494095Y-109771428D02*
X101294095Y-109504761D01*
X100494095Y-109238095D01*
X100494095Y-108590476D02*
X100494095Y-108971428D01*
X101294095Y-108971428D01*
X100494095Y-107942857D02*
X100494095Y-108323809D01*
X101294095Y-108323809D01*
X100875047Y-107523809D02*
X100494095Y-107523809D01*
X101294095Y-107790476D02*
X100875047Y-107523809D01*
X101294095Y-107257142D01*
X111763285Y-131855714D02*
X111720428Y-131727142D01*
X111677571Y-131684285D01*
X111591857Y-131641428D01*
X111463285Y-131641428D01*
X111377571Y-131684285D01*
X111334714Y-131727142D01*
X111291857Y-131812857D01*
X111291857Y-132155714D01*
X112191857Y-132155714D01*
X112191857Y-131855714D01*
X112149000Y-131770000D01*
X112106142Y-131727142D01*
X112020428Y-131684285D01*
X111934714Y-131684285D01*
X111849000Y-131727142D01*
X111806142Y-131770000D01*
X111763285Y-131855714D01*
X111763285Y-132155714D01*
X112191857Y-131084285D02*
X112191857Y-130912857D01*
X112149000Y-130827142D01*
X112063285Y-130741428D01*
X111891857Y-130698571D01*
X111591857Y-130698571D01*
X111420428Y-130741428D01*
X111334714Y-130827142D01*
X111291857Y-130912857D01*
X111291857Y-131084285D01*
X111334714Y-131170000D01*
X111420428Y-131255714D01*
X111591857Y-131298571D01*
X111891857Y-131298571D01*
X112063285Y-131255714D01*
X112149000Y-131170000D01*
X112191857Y-131084285D01*
X112191857Y-130441428D02*
X112191857Y-129927142D01*
X111291857Y-130184285D02*
X112191857Y-130184285D01*
X112191857Y-129755714D02*
X112191857Y-129241428D01*
X111291857Y-129498571D02*
X112191857Y-129498571D01*
X112191857Y-128770000D02*
X112191857Y-128598571D01*
X112149000Y-128512857D01*
X112063285Y-128427142D01*
X111891857Y-128384285D01*
X111591857Y-128384285D01*
X111420428Y-128427142D01*
X111334714Y-128512857D01*
X111291857Y-128598571D01*
X111291857Y-128770000D01*
X111334714Y-128855714D01*
X111420428Y-128941428D01*
X111591857Y-128984285D01*
X111891857Y-128984285D01*
X112063285Y-128941428D01*
X112149000Y-128855714D01*
X112191857Y-128770000D01*
X111291857Y-127998571D02*
X112191857Y-127998571D01*
X111549000Y-127698571D01*
X112191857Y-127398571D01*
X111291857Y-127398571D01*
X111763285Y-125984285D02*
X111763285Y-126284285D01*
X111291857Y-126284285D02*
X112191857Y-126284285D01*
X112191857Y-125855714D01*
X111763285Y-125512857D02*
X111763285Y-125212857D01*
X111291857Y-125084285D02*
X111291857Y-125512857D01*
X112191857Y-125512857D01*
X112191857Y-125084285D01*
X111763285Y-124698571D02*
X111763285Y-124398571D01*
X111291857Y-124270000D02*
X111291857Y-124698571D01*
X112191857Y-124698571D01*
X112191857Y-124270000D01*
X111291857Y-123884285D02*
X112191857Y-123884285D01*
X112191857Y-123670000D01*
X112149000Y-123541428D01*
X112063285Y-123455714D01*
X111977571Y-123412857D01*
X111806142Y-123370000D01*
X111677571Y-123370000D01*
X111506142Y-123412857D01*
X111420428Y-123455714D01*
X111334714Y-123541428D01*
X111291857Y-123670000D01*
X111291857Y-123884285D01*
X111763285Y-122984285D02*
X111763285Y-122684285D01*
X111291857Y-122555714D02*
X111291857Y-122984285D01*
X112191857Y-122984285D01*
X112191857Y-122555714D01*
X111291857Y-121655714D02*
X111720428Y-121955714D01*
X111291857Y-122170000D02*
X112191857Y-122170000D01*
X112191857Y-121827142D01*
X112149000Y-121741428D01*
X112106142Y-121698571D01*
X112020428Y-121655714D01*
X111891857Y-121655714D01*
X111806142Y-121698571D01*
X111763285Y-121741428D01*
X111720428Y-121827142D01*
X111720428Y-122170000D01*
X109842857Y-131727142D02*
X109842857Y-132155714D01*
X110742857Y-132155714D01*
X110657142Y-131470000D02*
X110700000Y-131427142D01*
X110742857Y-131341428D01*
X110742857Y-131127142D01*
X110700000Y-131041428D01*
X110657142Y-130998571D01*
X110571428Y-130955714D01*
X110485714Y-130955714D01*
X110357142Y-130998571D01*
X109842857Y-131512857D01*
X109842857Y-130955714D01*
X109842857Y-130527142D02*
X109842857Y-130355714D01*
X109885714Y-130270000D01*
X109928571Y-130227142D01*
X110057142Y-130141428D01*
X110228571Y-130098571D01*
X110571428Y-130098571D01*
X110657142Y-130141428D01*
X110700000Y-130184285D01*
X110742857Y-130270000D01*
X110742857Y-130441428D01*
X110700000Y-130527142D01*
X110657142Y-130570000D01*
X110571428Y-130612857D01*
X110357142Y-130612857D01*
X110271428Y-130570000D01*
X110228571Y-130527142D01*
X110185714Y-130441428D01*
X110185714Y-130270000D01*
X110228571Y-130184285D01*
X110271428Y-130141428D01*
X110357142Y-130098571D01*
X110357142Y-129584285D02*
X110400000Y-129670000D01*
X110442857Y-129712857D01*
X110528571Y-129755714D01*
X110571428Y-129755714D01*
X110657142Y-129712857D01*
X110700000Y-129670000D01*
X110742857Y-129584285D01*
X110742857Y-129412857D01*
X110700000Y-129327142D01*
X110657142Y-129284285D01*
X110571428Y-129241428D01*
X110528571Y-129241428D01*
X110442857Y-129284285D01*
X110400000Y-129327142D01*
X110357142Y-129412857D01*
X110357142Y-129584285D01*
X110314285Y-129670000D01*
X110271428Y-129712857D01*
X110185714Y-129755714D01*
X110014285Y-129755714D01*
X109928571Y-129712857D01*
X109885714Y-129670000D01*
X109842857Y-129584285D01*
X109842857Y-129412857D01*
X109885714Y-129327142D01*
X109928571Y-129284285D01*
X110014285Y-129241428D01*
X110185714Y-129241428D01*
X110271428Y-129284285D01*
X110314285Y-129327142D01*
X110357142Y-129412857D01*
X110314285Y-127870000D02*
X110271428Y-127741428D01*
X110228571Y-127698571D01*
X110142857Y-127655714D01*
X110014285Y-127655714D01*
X109928571Y-127698571D01*
X109885714Y-127741428D01*
X109842857Y-127827142D01*
X109842857Y-128170000D01*
X110742857Y-128170000D01*
X110742857Y-127870000D01*
X110700000Y-127784285D01*
X110657142Y-127741428D01*
X110571428Y-127698571D01*
X110485714Y-127698571D01*
X110400000Y-127741428D01*
X110357142Y-127784285D01*
X110314285Y-127870000D01*
X110314285Y-128170000D01*
X109842857Y-126755714D02*
X110271428Y-127055714D01*
X109842857Y-127270000D02*
X110742857Y-127270000D01*
X110742857Y-126927142D01*
X110700000Y-126841428D01*
X110657142Y-126798571D01*
X110571428Y-126755714D01*
X110442857Y-126755714D01*
X110357142Y-126798571D01*
X110314285Y-126841428D01*
X110271428Y-126927142D01*
X110271428Y-127270000D01*
X110314285Y-126370000D02*
X110314285Y-126070000D01*
X109842857Y-125941428D02*
X109842857Y-126370000D01*
X110742857Y-126370000D01*
X110742857Y-125941428D01*
X110100000Y-125598571D02*
X110100000Y-125170000D01*
X109842857Y-125684285D02*
X110742857Y-125384285D01*
X109842857Y-125084285D01*
X109842857Y-124784285D02*
X110742857Y-124784285D01*
X109842857Y-124270000D02*
X110357142Y-124655714D01*
X110742857Y-124270000D02*
X110228571Y-124784285D01*
X110742857Y-123712857D02*
X110742857Y-123541428D01*
X110700000Y-123455714D01*
X110614285Y-123370000D01*
X110442857Y-123327142D01*
X110142857Y-123327142D01*
X109971428Y-123370000D01*
X109885714Y-123455714D01*
X109842857Y-123541428D01*
X109842857Y-123712857D01*
X109885714Y-123798571D01*
X109971428Y-123884285D01*
X110142857Y-123927142D01*
X110442857Y-123927142D01*
X110614285Y-123884285D01*
X110700000Y-123798571D01*
X110742857Y-123712857D01*
X110742857Y-122941428D02*
X110014285Y-122941428D01*
X109928571Y-122898571D01*
X109885714Y-122855714D01*
X109842857Y-122770000D01*
X109842857Y-122598571D01*
X109885714Y-122512857D01*
X109928571Y-122470000D01*
X110014285Y-122427142D01*
X110742857Y-122427142D01*
X110742857Y-122127142D02*
X110742857Y-121612857D01*
X109842857Y-121870000D02*
X110742857Y-121870000D01*
X108393857Y-131641428D02*
X108822428Y-131941428D01*
X108393857Y-132155714D02*
X109293857Y-132155714D01*
X109293857Y-131812857D01*
X109251000Y-131727142D01*
X109208142Y-131684285D01*
X109122428Y-131641428D01*
X108993857Y-131641428D01*
X108908142Y-131684285D01*
X108865285Y-131727142D01*
X108822428Y-131812857D01*
X108822428Y-132155714D01*
X108865285Y-131255714D02*
X108865285Y-130955714D01*
X108393857Y-130827142D02*
X108393857Y-131255714D01*
X109293857Y-131255714D01*
X109293857Y-130827142D01*
X109293857Y-130570000D02*
X108393857Y-130270000D01*
X109293857Y-129970000D01*
X108651000Y-129027142D02*
X108651000Y-128598571D01*
X108393857Y-129112857D02*
X109293857Y-128812857D01*
X108393857Y-128512857D01*
X108736714Y-127527142D02*
X108736714Y-126841428D01*
X108393857Y-125727142D02*
X109293857Y-125727142D01*
X108651000Y-125427142D01*
X109293857Y-125127142D01*
X108393857Y-125127142D01*
X108651000Y-124741428D02*
X108651000Y-124312857D01*
X108393857Y-124827142D02*
X109293857Y-124527142D01*
X108393857Y-124227142D01*
X108822428Y-123755714D02*
X108393857Y-123755714D01*
X109293857Y-124055714D02*
X108822428Y-123755714D01*
X109293857Y-123455714D01*
X108393857Y-121998571D02*
X108393857Y-122512857D01*
X108393857Y-122255714D02*
X109293857Y-122255714D01*
X109165285Y-122341428D01*
X109079571Y-122427142D01*
X109036714Y-122512857D01*
X108393857Y-121570000D02*
X108393857Y-121398571D01*
X108436714Y-121312857D01*
X108479571Y-121270000D01*
X108608142Y-121184285D01*
X108779571Y-121141428D01*
X109122428Y-121141428D01*
X109208142Y-121184285D01*
X109251000Y-121227142D01*
X109293857Y-121312857D01*
X109293857Y-121484285D01*
X109251000Y-121570000D01*
X109208142Y-121612857D01*
X109122428Y-121655714D01*
X108908142Y-121655714D01*
X108822428Y-121612857D01*
X108779571Y-121570000D01*
X108736714Y-121484285D01*
X108736714Y-121312857D01*
X108779571Y-121227142D01*
X108822428Y-121184285D01*
X108908142Y-121141428D01*
X108436714Y-120712857D02*
X108393857Y-120712857D01*
X108308142Y-120755714D01*
X108265285Y-120798571D01*
X109208142Y-119684285D02*
X109251000Y-119641428D01*
X109293857Y-119555714D01*
X109293857Y-119341428D01*
X109251000Y-119255714D01*
X109208142Y-119212857D01*
X109122428Y-119170000D01*
X109036714Y-119170000D01*
X108908142Y-119212857D01*
X108393857Y-119727142D01*
X108393857Y-119170000D01*
X109293857Y-118612857D02*
X109293857Y-118527142D01*
X109251000Y-118441428D01*
X109208142Y-118398571D01*
X109122428Y-118355714D01*
X108951000Y-118312857D01*
X108736714Y-118312857D01*
X108565285Y-118355714D01*
X108479571Y-118398571D01*
X108436714Y-118441428D01*
X108393857Y-118527142D01*
X108393857Y-118612857D01*
X108436714Y-118698571D01*
X108479571Y-118741428D01*
X108565285Y-118784285D01*
X108736714Y-118827142D01*
X108951000Y-118827142D01*
X109122428Y-118784285D01*
X109208142Y-118741428D01*
X109251000Y-118698571D01*
X109293857Y-118612857D01*
X109208142Y-117970000D02*
X109251000Y-117927142D01*
X109293857Y-117841428D01*
X109293857Y-117627142D01*
X109251000Y-117541428D01*
X109208142Y-117498571D01*
X109122428Y-117455714D01*
X109036714Y-117455714D01*
X108908142Y-117498571D01*
X108393857Y-118012857D01*
X108393857Y-117455714D01*
X109293857Y-116898571D02*
X109293857Y-116812857D01*
X109251000Y-116727142D01*
X109208142Y-116684285D01*
X109122428Y-116641428D01*
X108951000Y-116598571D01*
X108736714Y-116598571D01*
X108565285Y-116641428D01*
X108479571Y-116684285D01*
X108436714Y-116727142D01*
X108393857Y-116812857D01*
X108393857Y-116898571D01*
X108436714Y-116984285D01*
X108479571Y-117027142D01*
X108565285Y-117070000D01*
X108736714Y-117112857D01*
X108951000Y-117112857D01*
X109122428Y-117070000D01*
X109208142Y-117027142D01*
X109251000Y-116984285D01*
X109293857Y-116898571D01*
M02*
