G04 #@! TF.GenerationSoftware,KiCad,Pcbnew,5.99.0-unknown-ad88874~101~ubuntu20.04.1*
G04 #@! TF.CreationDate,2020-05-19T21:28:09-04:00*
G04 #@! TF.ProjectId,L298,4c323938-2e6b-4696-9361-645f70636258,rev?*
G04 #@! TF.SameCoordinates,Original*
G04 #@! TF.FileFunction,Paste,Top*
G04 #@! TF.FilePolarity,Positive*
%FSLAX46Y46*%
G04 Gerber Fmt 4.6, Leading zero omitted, Abs format (unit mm)*
G04 Created by KiCad (PCBNEW 5.99.0-unknown-ad88874~101~ubuntu20.04.1) date 2020-05-19 21:28:09*
%MOMM*%
%LPD*%
G01*
G04 APERTURE LIST*
G04 APERTURE END LIST*
G36*
X109825000Y-130159999D02*
G01*
X109825001Y-129060000D01*
X110400001Y-129060000D01*
X110400001Y-129560000D01*
X110900000Y-129560001D01*
X110900000Y-129060000D01*
X111475000Y-129060001D01*
X111475000Y-130160000D01*
X109825000Y-130159999D01*
G37*
G36*
X111475000Y-125660001D02*
G01*
X111475000Y-126760000D01*
X110899999Y-126760000D01*
X110899999Y-126260000D01*
X110400000Y-126260000D01*
X110400000Y-126760000D01*
X109825000Y-126760000D01*
X109825000Y-125660000D01*
X111475000Y-125660001D01*
G37*
G36*
X112325000Y-130159999D02*
G01*
X112325001Y-129060000D01*
X112900001Y-129060000D01*
X112900001Y-129560000D01*
X113400000Y-129560001D01*
X113400000Y-129060000D01*
X113975000Y-129060001D01*
X113975000Y-130160000D01*
X112325000Y-130159999D01*
G37*
G36*
X113975000Y-125660001D02*
G01*
X113975000Y-126760000D01*
X113399999Y-126760000D01*
X113399999Y-126260000D01*
X112900000Y-126260000D01*
X112900000Y-126760000D01*
X112325000Y-126760000D01*
X112325000Y-125660000D01*
X113975000Y-125660001D01*
G37*
G36*
X114825000Y-130159999D02*
G01*
X114825001Y-129060000D01*
X115400001Y-129060000D01*
X115400001Y-129560000D01*
X115900000Y-129560001D01*
X115900000Y-129060000D01*
X116475000Y-129060001D01*
X116475000Y-130160000D01*
X114825000Y-130159999D01*
G37*
G36*
X116475000Y-125660001D02*
G01*
X116475000Y-126760000D01*
X115899999Y-126760000D01*
X115899999Y-126260000D01*
X115400000Y-126260000D01*
X115400000Y-126760000D01*
X114825000Y-126760000D01*
X114825000Y-125660000D01*
X116475000Y-125660001D01*
G37*
G36*
X117325000Y-130159999D02*
G01*
X117325001Y-129060000D01*
X117900001Y-129060000D01*
X117900001Y-129560000D01*
X118400000Y-129560001D01*
X118400000Y-129060000D01*
X118975000Y-129060001D01*
X118975000Y-130160000D01*
X117325000Y-130159999D01*
G37*
G36*
X118975000Y-125660001D02*
G01*
X118975000Y-126760000D01*
X118399999Y-126760000D01*
X118399999Y-126260000D01*
X117900000Y-126260000D01*
X117900000Y-126760000D01*
X117325000Y-126760000D01*
X117325000Y-125660000D01*
X118975000Y-125660001D01*
G37*
G36*
G01*
X110615500Y-104815000D02*
X110140500Y-104815000D01*
G75*
G02*
X109903000Y-104577500I0J237500D01*
G01*
X109903000Y-104002500D01*
G75*
G02*
X110140500Y-103765000I237500J0D01*
G01*
X110615500Y-103765000D01*
G75*
G02*
X110853000Y-104002500I0J-237500D01*
G01*
X110853000Y-104577500D01*
G75*
G02*
X110615500Y-104815000I-237500J0D01*
G01*
G37*
G36*
G01*
X110615500Y-103065000D02*
X110140500Y-103065000D01*
G75*
G02*
X109903000Y-102827500I0J237500D01*
G01*
X109903000Y-102252500D01*
G75*
G02*
X110140500Y-102015000I237500J0D01*
G01*
X110615500Y-102015000D01*
G75*
G02*
X110853000Y-102252500I0J-237500D01*
G01*
X110853000Y-102827500D01*
G75*
G02*
X110615500Y-103065000I-237500J0D01*
G01*
G37*
G36*
G01*
X110887500Y-110135000D02*
X110412500Y-110135000D01*
G75*
G02*
X110175000Y-109897500I0J237500D01*
G01*
X110175000Y-109322500D01*
G75*
G02*
X110412500Y-109085000I237500J0D01*
G01*
X110887500Y-109085000D01*
G75*
G02*
X111125000Y-109322500I0J-237500D01*
G01*
X111125000Y-109897500D01*
G75*
G02*
X110887500Y-110135000I-237500J0D01*
G01*
G37*
G36*
G01*
X110887500Y-111885000D02*
X110412500Y-111885000D01*
G75*
G02*
X110175000Y-111647500I0J237500D01*
G01*
X110175000Y-111072500D01*
G75*
G02*
X110412500Y-110835000I237500J0D01*
G01*
X110887500Y-110835000D01*
G75*
G02*
X111125000Y-111072500I0J-237500D01*
G01*
X111125000Y-111647500D01*
G75*
G02*
X110887500Y-111885000I-237500J0D01*
G01*
G37*
M02*
