M48
; DRILL file {KiCad 5.99.0-unknown-ad88874~101~ubuntu20.04.1} date Tue May 19 21:28:13 2020
; FORMAT={-:-/ absolute / inch / decimal}
; #@! TF.CreationDate,2020-05-19T21:28:13-04:00
; #@! TF.GenerationSoftware,Kicad,Pcbnew,5.99.0-unknown-ad88874~101~ubuntu20.04.1
; #@! TF.FileFunction,Plated,1,2,PTH
FMAT,2
INCH
T1C0.0157
T2C0.0394
%
G90
G05
T1
X4.3656Y-4.727
X4.3856Y-4.687
X4.5556Y-5.027
X4.6556Y-5.027
T2
X4.4637Y-4.097
X4.4637Y-4.197
X4.4637Y-4.297
X4.4637Y-4.397
X4.4637Y-4.497
X4.4637Y-4.597
X4.4637Y-4.697
X4.4637Y-4.797
X4.5637Y-4.147
X4.5637Y-4.247
X4.5637Y-4.347
X4.5637Y-4.447
X4.5637Y-4.547
X4.5637Y-4.647
X4.5637Y-4.747
X4.1006Y-4.037
X4.1006Y-4.137
X4.1006Y-4.237
X4.1006Y-4.337
X4.1006Y-4.437
X4.1006Y-4.537
X4.1006Y-4.637
X4.1006Y-4.737
X4.1006Y-4.837
X4.1006Y-4.937
X4.1006Y-5.037
X4.1006Y-5.137
X4.2006Y-4.037
X4.2006Y-4.137
X4.2006Y-4.237
X4.2006Y-4.337
X4.2006Y-4.437
X4.2006Y-4.537
X4.2006Y-4.637
X4.2006Y-4.737
X4.2006Y-4.837
X4.2006Y-4.937
X4.2006Y-5.037
X4.2006Y-5.137
T0
M30
