G04 #@! TF.GenerationSoftware,KiCad,Pcbnew,5.99.0-unknown-ad88874~101~ubuntu20.04.1*
G04 #@! TF.CreationDate,2020-05-19T21:28:09-04:00*
G04 #@! TF.ProjectId,L298,4c323938-2e6b-4696-9361-645f70636258,rev?*
G04 #@! TF.SameCoordinates,Original*
G04 #@! TF.FileFunction,Copper,L2,Bot*
G04 #@! TF.FilePolarity,Positive*
%FSLAX46Y46*%
G04 Gerber Fmt 4.6, Leading zero omitted, Abs format (unit mm)*
G04 Created by KiCad (PCBNEW 5.99.0-unknown-ad88874~101~ubuntu20.04.1) date 2020-05-19 21:28:09*
%MOMM*%
%LPD*%
G01*
G04 APERTURE LIST*
G04 #@! TA.AperFunction,ComponentPad*
%ADD10O,1.800000X1.800000*%
G04 #@! TD*
G04 #@! TA.AperFunction,ComponentPad*
%ADD11R,1.800000X1.800000*%
G04 #@! TD*
G04 #@! TA.AperFunction,ComponentPad*
%ADD12R,1.700000X1.700000*%
G04 #@! TD*
G04 #@! TA.AperFunction,ComponentPad*
%ADD13O,1.700000X1.700000*%
G04 #@! TD*
G04 #@! TA.AperFunction,ViaPad*
%ADD14C,0.800000*%
G04 #@! TD*
G04 #@! TA.AperFunction,Conductor*
%ADD15C,0.250000*%
G04 #@! TD*
G04 #@! TA.AperFunction,Conductor*
%ADD16C,0.254000*%
G04 #@! TD*
G04 APERTURE END LIST*
D10*
X113378938Y-121844000D03*
X115918938Y-120574000D03*
X113378938Y-119304000D03*
X115918938Y-118034000D03*
X113378938Y-116764000D03*
X115918938Y-115494000D03*
X113378938Y-114224000D03*
X115918938Y-112954000D03*
X113378938Y-111684000D03*
X115918938Y-110414000D03*
X113378938Y-109144000D03*
X115918938Y-107874000D03*
X113378938Y-106604000D03*
X115918938Y-105334000D03*
D11*
X113378938Y-104064000D03*
D12*
X106695000Y-130480000D03*
D13*
X104155000Y-130480000D03*
X106695000Y-127940000D03*
X104155000Y-127940000D03*
X106695000Y-125400000D03*
X104155000Y-125400000D03*
X106695000Y-122860000D03*
X104155000Y-122860000D03*
X106695000Y-120320000D03*
X104155000Y-120320000D03*
X106695000Y-117780000D03*
X104155000Y-117780000D03*
X106695000Y-115240000D03*
X104155000Y-115240000D03*
X106695000Y-112700000D03*
X104155000Y-112700000D03*
X106695000Y-110160000D03*
X104155000Y-110160000D03*
X106695000Y-107620000D03*
X104155000Y-107620000D03*
X106695000Y-105080000D03*
X104155000Y-105080000D03*
X106695000Y-102540000D03*
X104155000Y-102540000D03*
D14*
X110886000Y-120066000D03*
X111394000Y-119050000D03*
X115712000Y-127686000D03*
X118252000Y-127686000D03*
D15*
X115420935Y-119348999D02*
X113378938Y-117307002D01*
X116416941Y-119348999D02*
X115420935Y-119348999D01*
X117143939Y-118622001D02*
X116416941Y-119348999D01*
X113378938Y-117307002D02*
X113378938Y-116764000D01*
X117143939Y-117872061D02*
X117143939Y-118622001D01*
X113966939Y-115538999D02*
X115918938Y-117490998D01*
X115918938Y-117490998D02*
X115918938Y-118034000D01*
X112880935Y-115538999D02*
X113966939Y-115538999D01*
X112153937Y-114812001D02*
X112880935Y-115538999D01*
X112153937Y-110369001D02*
X112153937Y-114812001D01*
X113378938Y-109144000D02*
X112153937Y-110369001D01*
X117143939Y-117110061D02*
X117143939Y-117364061D01*
X115918938Y-110414000D02*
X114693937Y-111639001D01*
X117143939Y-117872061D02*
X117143939Y-117364061D01*
X114693937Y-111639001D02*
X114693937Y-113631999D01*
X115330937Y-114268999D02*
X116506939Y-114268999D01*
X114693937Y-113631999D02*
X115330937Y-114268999D01*
X117143939Y-114905999D02*
X117143939Y-117110061D01*
X116506939Y-114268999D02*
X117143939Y-114905999D01*
G36*
X118697813Y-100376536D02*
G01*
X118709976Y-100378840D01*
X118903637Y-100396123D01*
X119052414Y-100436825D01*
X119191643Y-100503232D01*
X119316896Y-100593236D01*
X119424243Y-100704010D01*
X119510277Y-100832043D01*
X119572273Y-100973273D01*
X119608983Y-101126188D01*
X119620579Y-101284071D01*
X119622691Y-101296269D01*
X119624000Y-101301005D01*
X119624000Y-103430000D01*
X114642184Y-103430000D01*
X114628754Y-103431444D01*
X114400106Y-103481183D01*
X114379272Y-103489813D01*
X114240567Y-103578953D01*
X114226946Y-103590756D01*
X114120455Y-103713652D01*
X114110711Y-103728815D01*
X114043159Y-103876735D01*
X114038081Y-103894028D01*
X114015580Y-104050522D01*
X114014938Y-104059500D01*
X114014938Y-104700000D01*
X109308184Y-104700000D01*
X109294754Y-104701444D01*
X109066106Y-104751183D01*
X109045272Y-104759813D01*
X108906567Y-104848953D01*
X108892946Y-104860756D01*
X108786455Y-104983652D01*
X108776711Y-104998815D01*
X108709159Y-105146735D01*
X108704081Y-105164028D01*
X108681580Y-105320522D01*
X108680938Y-105329500D01*
X108680938Y-120580754D01*
X108682382Y-120594184D01*
X108732121Y-120822832D01*
X108740751Y-120843666D01*
X108829891Y-120982371D01*
X108841694Y-120995992D01*
X108964590Y-121102483D01*
X108979753Y-121112227D01*
X109127673Y-121179779D01*
X109144966Y-121184857D01*
X109301460Y-121207358D01*
X109310438Y-121208000D01*
X114014938Y-121208000D01*
X114014938Y-121850754D01*
X114016382Y-121864184D01*
X114066121Y-122092832D01*
X114074751Y-122113666D01*
X114163891Y-122252371D01*
X114175694Y-122265992D01*
X114298590Y-122372483D01*
X114313752Y-122382227D01*
X114316000Y-122383254D01*
X114316000Y-128866000D01*
X107505376Y-128866000D01*
X107655332Y-128710174D01*
X107662790Y-128700780D01*
X107783643Y-128514684D01*
X107789190Y-128504050D01*
X107872672Y-128298458D01*
X107876108Y-128286966D01*
X107919224Y-128069218D01*
X107920427Y-128057118D01*
X107921023Y-127829300D01*
X107919884Y-127817194D01*
X107877910Y-127599222D01*
X107874533Y-127587713D01*
X107792129Y-127381687D01*
X107786637Y-127371024D01*
X107666760Y-127184298D01*
X107659351Y-127174866D01*
X107506329Y-127014176D01*
X107497270Y-127006315D01*
X107316622Y-126877461D01*
X107306240Y-126871455D01*
X107104487Y-126779085D01*
X107093156Y-126775150D01*
X106877575Y-126722596D01*
X106865705Y-126720875D01*
X106644075Y-126710036D01*
X106632094Y-126710591D01*
X106412414Y-126741856D01*
X106400754Y-126744666D01*
X106190948Y-126816908D01*
X106180029Y-126821872D01*
X105987671Y-126932483D01*
X105977888Y-126939423D01*
X105809915Y-127084413D01*
X105801621Y-127093077D01*
X105664095Y-127267214D01*
X105657589Y-127277290D01*
X105555473Y-127474292D01*
X105550990Y-127485417D01*
X105487968Y-127698173D01*
X105485670Y-127709945D01*
X105464017Y-127930780D01*
X105463986Y-127942774D01*
X105484482Y-128163720D01*
X105486719Y-128175504D01*
X105548626Y-128388587D01*
X105553051Y-128399735D01*
X105654133Y-128597268D01*
X105660587Y-128607379D01*
X105797199Y-128782233D01*
X105805448Y-128790941D01*
X105891490Y-128866000D01*
X105243246Y-128866000D01*
X105229816Y-128867444D01*
X105001168Y-128917183D01*
X104980334Y-128925813D01*
X104841629Y-129014953D01*
X104828008Y-129026756D01*
X104721517Y-129149652D01*
X104711773Y-129164815D01*
X104644221Y-129312735D01*
X104639143Y-129330028D01*
X104636008Y-129351830D01*
X104564487Y-129319085D01*
X104553156Y-129315150D01*
X104337575Y-129262596D01*
X104325705Y-129260875D01*
X104104075Y-129250036D01*
X104092094Y-129250591D01*
X103872414Y-129281856D01*
X103860754Y-129284666D01*
X103650948Y-129356908D01*
X103640029Y-129361872D01*
X103447671Y-129472483D01*
X103437888Y-129479423D01*
X103269915Y-129624413D01*
X103261621Y-129633077D01*
X103124095Y-129807214D01*
X103117589Y-129817290D01*
X103015473Y-130014292D01*
X103010990Y-130025417D01*
X102947968Y-130238173D01*
X102945670Y-130249945D01*
X102924017Y-130470780D01*
X102923986Y-130482774D01*
X102944482Y-130703720D01*
X102946719Y-130715504D01*
X103008626Y-130928587D01*
X103013051Y-130939735D01*
X103114133Y-131137268D01*
X103120587Y-131147379D01*
X103257199Y-131322233D01*
X103265448Y-131330941D01*
X103432659Y-131476808D01*
X103442405Y-131483799D01*
X103634183Y-131595416D01*
X103645075Y-131600438D01*
X103854498Y-131673777D01*
X103866144Y-131676648D01*
X104085658Y-131709063D01*
X104097637Y-131709681D01*
X104319320Y-131700001D01*
X104331199Y-131698343D01*
X104547051Y-131646919D01*
X104558402Y-131643044D01*
X104616000Y-131617038D01*
X104616000Y-132624000D01*
X101054015Y-132624000D01*
X101052188Y-132623464D01*
X101040025Y-132621160D01*
X100846361Y-132603877D01*
X100697585Y-132563176D01*
X100558357Y-132496768D01*
X100433104Y-132406764D01*
X100325756Y-132295988D01*
X100239727Y-132167965D01*
X100177727Y-132026727D01*
X100141017Y-131873812D01*
X100129421Y-131715929D01*
X100127309Y-131703731D01*
X100126000Y-131698995D01*
X100126000Y-127942774D01*
X102923986Y-127942774D01*
X102944482Y-128163720D01*
X102946719Y-128175504D01*
X103008626Y-128388587D01*
X103013051Y-128399735D01*
X103114133Y-128597268D01*
X103120587Y-128607379D01*
X103257199Y-128782233D01*
X103265448Y-128790941D01*
X103432659Y-128936808D01*
X103442405Y-128943799D01*
X103634183Y-129055416D01*
X103645075Y-129060438D01*
X103854498Y-129133777D01*
X103866144Y-129136648D01*
X104085658Y-129169063D01*
X104097637Y-129169681D01*
X104319320Y-129160001D01*
X104331199Y-129158343D01*
X104547051Y-129106919D01*
X104558402Y-129103044D01*
X104760638Y-129011731D01*
X104771051Y-129005779D01*
X104952370Y-128877872D01*
X104961470Y-128870059D01*
X105115332Y-128710174D01*
X105122790Y-128700780D01*
X105243643Y-128514684D01*
X105249190Y-128504050D01*
X105332672Y-128298458D01*
X105336108Y-128286966D01*
X105379224Y-128069218D01*
X105380427Y-128057118D01*
X105381023Y-127829300D01*
X105379884Y-127817194D01*
X105337910Y-127599222D01*
X105334533Y-127587713D01*
X105252129Y-127381687D01*
X105246637Y-127371024D01*
X105126760Y-127184298D01*
X105119351Y-127174866D01*
X104966329Y-127014176D01*
X104957270Y-127006315D01*
X104776622Y-126877461D01*
X104766240Y-126871455D01*
X104564487Y-126779085D01*
X104553156Y-126775150D01*
X104337575Y-126722596D01*
X104325705Y-126720875D01*
X104104075Y-126710036D01*
X104092094Y-126710591D01*
X103872414Y-126741856D01*
X103860754Y-126744666D01*
X103650948Y-126816908D01*
X103640029Y-126821872D01*
X103447671Y-126932483D01*
X103437888Y-126939423D01*
X103269915Y-127084413D01*
X103261621Y-127093077D01*
X103124095Y-127267214D01*
X103117589Y-127277290D01*
X103015473Y-127474292D01*
X103010990Y-127485417D01*
X102947968Y-127698173D01*
X102945670Y-127709945D01*
X102924017Y-127930780D01*
X102923986Y-127942774D01*
X100126000Y-127942774D01*
X100126000Y-122862774D01*
X102923986Y-122862774D01*
X102944482Y-123083720D01*
X102946719Y-123095504D01*
X103008626Y-123308587D01*
X103013051Y-123319735D01*
X103114133Y-123517268D01*
X103120587Y-123527379D01*
X103257199Y-123702233D01*
X103265448Y-123710941D01*
X103432659Y-123856808D01*
X103442405Y-123863799D01*
X103634183Y-123975416D01*
X103645075Y-123980438D01*
X103854498Y-124053777D01*
X103866144Y-124056648D01*
X104085658Y-124089063D01*
X104097637Y-124089681D01*
X104319320Y-124080001D01*
X104331199Y-124078343D01*
X104547051Y-124026919D01*
X104558402Y-124023044D01*
X104760638Y-123931731D01*
X104771051Y-123925779D01*
X104952370Y-123797872D01*
X104961470Y-123790059D01*
X105115332Y-123630174D01*
X105122790Y-123620780D01*
X105243643Y-123434684D01*
X105249190Y-123424050D01*
X105332672Y-123218458D01*
X105336108Y-123206966D01*
X105379224Y-122989218D01*
X105380427Y-122977118D01*
X105380726Y-122862774D01*
X105463986Y-122862774D01*
X105484482Y-123083720D01*
X105486719Y-123095504D01*
X105548626Y-123308587D01*
X105553051Y-123319735D01*
X105654133Y-123517268D01*
X105660587Y-123527379D01*
X105797199Y-123702233D01*
X105805448Y-123710941D01*
X105972659Y-123856808D01*
X105982405Y-123863799D01*
X106174183Y-123975416D01*
X106185075Y-123980438D01*
X106394498Y-124053777D01*
X106406144Y-124056648D01*
X106625658Y-124089063D01*
X106637637Y-124089681D01*
X106859320Y-124080001D01*
X106871199Y-124078343D01*
X107087051Y-124026919D01*
X107098402Y-124023044D01*
X107300638Y-123931731D01*
X107311051Y-123925779D01*
X107492370Y-123797872D01*
X107501470Y-123790059D01*
X107655332Y-123630174D01*
X107662790Y-123620780D01*
X107783643Y-123434684D01*
X107789190Y-123424050D01*
X107872672Y-123218458D01*
X107876108Y-123206966D01*
X107919224Y-122989218D01*
X107920427Y-122977118D01*
X107921023Y-122749300D01*
X107919884Y-122737194D01*
X107877910Y-122519222D01*
X107874533Y-122507713D01*
X107792129Y-122301687D01*
X107786637Y-122291024D01*
X107666760Y-122104298D01*
X107659351Y-122094866D01*
X107506329Y-121934176D01*
X107497270Y-121926315D01*
X107316622Y-121797461D01*
X107306240Y-121791455D01*
X107104487Y-121699085D01*
X107093156Y-121695150D01*
X106877575Y-121642596D01*
X106865705Y-121640875D01*
X106644075Y-121630036D01*
X106632094Y-121630591D01*
X106412414Y-121661856D01*
X106400754Y-121664666D01*
X106190948Y-121736908D01*
X106180029Y-121741872D01*
X105987671Y-121852483D01*
X105977888Y-121859423D01*
X105809915Y-122004413D01*
X105801621Y-122013077D01*
X105664095Y-122187214D01*
X105657589Y-122197290D01*
X105555473Y-122394292D01*
X105550990Y-122405417D01*
X105487968Y-122618173D01*
X105485670Y-122629945D01*
X105464017Y-122850780D01*
X105463986Y-122862774D01*
X105380726Y-122862774D01*
X105381023Y-122749300D01*
X105379884Y-122737194D01*
X105337910Y-122519222D01*
X105334533Y-122507713D01*
X105252129Y-122301687D01*
X105246637Y-122291024D01*
X105126760Y-122104298D01*
X105119351Y-122094866D01*
X104966329Y-121934176D01*
X104957270Y-121926315D01*
X104776622Y-121797461D01*
X104766240Y-121791455D01*
X104564487Y-121699085D01*
X104553156Y-121695150D01*
X104337575Y-121642596D01*
X104325705Y-121640875D01*
X104104075Y-121630036D01*
X104092094Y-121630591D01*
X103872414Y-121661856D01*
X103860754Y-121664666D01*
X103650948Y-121736908D01*
X103640029Y-121741872D01*
X103447671Y-121852483D01*
X103437888Y-121859423D01*
X103269915Y-122004413D01*
X103261621Y-122013077D01*
X103124095Y-122187214D01*
X103117589Y-122197290D01*
X103015473Y-122394292D01*
X103010990Y-122405417D01*
X102947968Y-122618173D01*
X102945670Y-122629945D01*
X102924017Y-122850780D01*
X102923986Y-122862774D01*
X100126000Y-122862774D01*
X100126000Y-120322774D01*
X105463986Y-120322774D01*
X105484482Y-120543720D01*
X105486719Y-120555504D01*
X105548626Y-120768587D01*
X105553051Y-120779735D01*
X105654133Y-120977268D01*
X105660587Y-120987379D01*
X105797199Y-121162233D01*
X105805448Y-121170941D01*
X105972659Y-121316808D01*
X105982405Y-121323799D01*
X106174183Y-121435416D01*
X106185075Y-121440438D01*
X106394498Y-121513777D01*
X106406144Y-121516648D01*
X106625658Y-121549063D01*
X106637637Y-121549681D01*
X106859320Y-121540001D01*
X106871199Y-121538343D01*
X107087051Y-121486919D01*
X107098402Y-121483044D01*
X107300638Y-121391731D01*
X107311051Y-121385779D01*
X107492370Y-121257872D01*
X107501470Y-121250059D01*
X107655332Y-121090174D01*
X107662790Y-121080780D01*
X107783643Y-120894684D01*
X107789190Y-120884050D01*
X107872672Y-120678458D01*
X107876108Y-120666966D01*
X107919224Y-120449218D01*
X107920427Y-120437118D01*
X107921023Y-120209300D01*
X107919884Y-120197194D01*
X107877910Y-119979222D01*
X107874533Y-119967713D01*
X107792129Y-119761687D01*
X107786637Y-119751024D01*
X107666760Y-119564298D01*
X107659351Y-119554866D01*
X107506329Y-119394176D01*
X107497270Y-119386315D01*
X107316622Y-119257461D01*
X107306240Y-119251455D01*
X107104487Y-119159085D01*
X107093156Y-119155150D01*
X106877575Y-119102596D01*
X106865705Y-119100875D01*
X106644075Y-119090036D01*
X106632094Y-119090591D01*
X106412414Y-119121856D01*
X106400754Y-119124666D01*
X106190948Y-119196908D01*
X106180029Y-119201872D01*
X105987671Y-119312483D01*
X105977888Y-119319423D01*
X105809915Y-119464413D01*
X105801621Y-119473077D01*
X105664095Y-119647214D01*
X105657589Y-119657290D01*
X105555473Y-119854292D01*
X105550990Y-119865417D01*
X105487968Y-120078173D01*
X105485670Y-120089945D01*
X105464017Y-120310780D01*
X105463986Y-120322774D01*
X100126000Y-120322774D01*
X100126000Y-117782774D01*
X105463986Y-117782774D01*
X105484482Y-118003720D01*
X105486719Y-118015504D01*
X105548626Y-118228587D01*
X105553051Y-118239735D01*
X105654133Y-118437268D01*
X105660587Y-118447379D01*
X105797199Y-118622233D01*
X105805448Y-118630941D01*
X105972659Y-118776808D01*
X105982405Y-118783799D01*
X106174183Y-118895416D01*
X106185075Y-118900438D01*
X106394498Y-118973777D01*
X106406144Y-118976648D01*
X106625658Y-119009063D01*
X106637637Y-119009681D01*
X106859320Y-119000001D01*
X106871199Y-118998343D01*
X107087051Y-118946919D01*
X107098402Y-118943044D01*
X107300638Y-118851731D01*
X107311051Y-118845779D01*
X107492370Y-118717872D01*
X107501470Y-118710059D01*
X107655332Y-118550174D01*
X107662790Y-118540780D01*
X107783643Y-118354684D01*
X107789190Y-118344050D01*
X107872672Y-118138458D01*
X107876108Y-118126966D01*
X107919224Y-117909218D01*
X107920427Y-117897118D01*
X107921023Y-117669300D01*
X107919884Y-117657194D01*
X107877910Y-117439222D01*
X107874533Y-117427713D01*
X107792129Y-117221687D01*
X107786637Y-117211024D01*
X107666760Y-117024298D01*
X107659351Y-117014866D01*
X107506329Y-116854176D01*
X107497270Y-116846315D01*
X107316622Y-116717461D01*
X107306240Y-116711455D01*
X107104487Y-116619085D01*
X107093156Y-116615150D01*
X106877575Y-116562596D01*
X106865705Y-116560875D01*
X106644075Y-116550036D01*
X106632094Y-116550591D01*
X106412414Y-116581856D01*
X106400754Y-116584666D01*
X106190948Y-116656908D01*
X106180029Y-116661872D01*
X105987671Y-116772483D01*
X105977888Y-116779423D01*
X105809915Y-116924413D01*
X105801621Y-116933077D01*
X105664095Y-117107214D01*
X105657589Y-117117290D01*
X105555473Y-117314292D01*
X105550990Y-117325417D01*
X105487968Y-117538173D01*
X105485670Y-117549945D01*
X105464017Y-117770780D01*
X105463986Y-117782774D01*
X100126000Y-117782774D01*
X100126000Y-115242774D01*
X105463986Y-115242774D01*
X105484482Y-115463720D01*
X105486719Y-115475504D01*
X105548626Y-115688587D01*
X105553051Y-115699735D01*
X105654133Y-115897268D01*
X105660587Y-115907379D01*
X105797199Y-116082233D01*
X105805448Y-116090941D01*
X105972659Y-116236808D01*
X105982405Y-116243799D01*
X106174183Y-116355416D01*
X106185075Y-116360438D01*
X106394498Y-116433777D01*
X106406144Y-116436648D01*
X106625658Y-116469063D01*
X106637637Y-116469681D01*
X106859320Y-116460001D01*
X106871199Y-116458343D01*
X107087051Y-116406919D01*
X107098402Y-116403044D01*
X107300638Y-116311731D01*
X107311051Y-116305779D01*
X107492370Y-116177872D01*
X107501470Y-116170059D01*
X107655332Y-116010174D01*
X107662790Y-116000780D01*
X107783643Y-115814684D01*
X107789190Y-115804050D01*
X107872672Y-115598458D01*
X107876108Y-115586966D01*
X107919224Y-115369218D01*
X107920427Y-115357118D01*
X107921023Y-115129300D01*
X107919884Y-115117194D01*
X107877910Y-114899222D01*
X107874533Y-114887713D01*
X107792129Y-114681687D01*
X107786637Y-114671024D01*
X107666760Y-114484298D01*
X107659351Y-114474866D01*
X107506329Y-114314176D01*
X107497270Y-114306315D01*
X107316622Y-114177461D01*
X107306240Y-114171455D01*
X107104487Y-114079085D01*
X107093156Y-114075150D01*
X106877575Y-114022596D01*
X106865705Y-114020875D01*
X106644075Y-114010036D01*
X106632094Y-114010591D01*
X106412414Y-114041856D01*
X106400754Y-114044666D01*
X106190948Y-114116908D01*
X106180029Y-114121872D01*
X105987671Y-114232483D01*
X105977888Y-114239423D01*
X105809915Y-114384413D01*
X105801621Y-114393077D01*
X105664095Y-114567214D01*
X105657589Y-114577290D01*
X105555473Y-114774292D01*
X105550990Y-114785417D01*
X105487968Y-114998173D01*
X105485670Y-115009945D01*
X105464017Y-115230780D01*
X105463986Y-115242774D01*
X100126000Y-115242774D01*
X100126000Y-112702774D01*
X105463986Y-112702774D01*
X105484482Y-112923720D01*
X105486719Y-112935504D01*
X105548626Y-113148587D01*
X105553051Y-113159735D01*
X105654133Y-113357268D01*
X105660587Y-113367379D01*
X105797199Y-113542233D01*
X105805448Y-113550941D01*
X105972659Y-113696808D01*
X105982405Y-113703799D01*
X106174183Y-113815416D01*
X106185075Y-113820438D01*
X106394498Y-113893777D01*
X106406144Y-113896648D01*
X106625658Y-113929063D01*
X106637637Y-113929681D01*
X106859320Y-113920001D01*
X106871199Y-113918343D01*
X107087051Y-113866919D01*
X107098402Y-113863044D01*
X107300638Y-113771731D01*
X107311051Y-113765779D01*
X107492370Y-113637872D01*
X107501470Y-113630059D01*
X107655332Y-113470174D01*
X107662790Y-113460780D01*
X107783643Y-113274684D01*
X107789190Y-113264050D01*
X107872672Y-113058458D01*
X107876108Y-113046966D01*
X107919224Y-112829218D01*
X107920427Y-112817118D01*
X107921023Y-112589300D01*
X107919884Y-112577194D01*
X107877910Y-112359222D01*
X107874533Y-112347713D01*
X107792129Y-112141687D01*
X107786637Y-112131024D01*
X107666760Y-111944298D01*
X107659351Y-111934866D01*
X107506329Y-111774176D01*
X107497270Y-111766315D01*
X107316622Y-111637461D01*
X107306240Y-111631455D01*
X107104487Y-111539085D01*
X107093156Y-111535150D01*
X106877575Y-111482596D01*
X106865705Y-111480875D01*
X106644075Y-111470036D01*
X106632094Y-111470591D01*
X106412414Y-111501856D01*
X106400754Y-111504666D01*
X106190948Y-111576908D01*
X106180029Y-111581872D01*
X105987671Y-111692483D01*
X105977888Y-111699423D01*
X105809915Y-111844413D01*
X105801621Y-111853077D01*
X105664095Y-112027214D01*
X105657589Y-112037290D01*
X105555473Y-112234292D01*
X105550990Y-112245417D01*
X105487968Y-112458173D01*
X105485670Y-112469945D01*
X105464017Y-112690780D01*
X105463986Y-112702774D01*
X100126000Y-112702774D01*
X100126000Y-110162774D01*
X105463986Y-110162774D01*
X105484482Y-110383720D01*
X105486719Y-110395504D01*
X105548626Y-110608587D01*
X105553051Y-110619735D01*
X105654133Y-110817268D01*
X105660587Y-110827379D01*
X105797199Y-111002233D01*
X105805448Y-111010941D01*
X105972659Y-111156808D01*
X105982405Y-111163799D01*
X106174183Y-111275416D01*
X106185075Y-111280438D01*
X106394498Y-111353777D01*
X106406144Y-111356648D01*
X106625658Y-111389063D01*
X106637637Y-111389681D01*
X106859320Y-111380001D01*
X106871199Y-111378343D01*
X107087051Y-111326919D01*
X107098402Y-111323044D01*
X107300638Y-111231731D01*
X107311051Y-111225779D01*
X107492370Y-111097872D01*
X107501470Y-111090059D01*
X107655332Y-110930174D01*
X107662790Y-110920780D01*
X107783643Y-110734684D01*
X107789190Y-110724050D01*
X107872672Y-110518458D01*
X107876108Y-110506966D01*
X107919224Y-110289218D01*
X107920427Y-110277118D01*
X107921023Y-110049300D01*
X107919884Y-110037194D01*
X107877910Y-109819222D01*
X107874533Y-109807713D01*
X107792129Y-109601687D01*
X107786637Y-109591024D01*
X107666760Y-109404298D01*
X107659351Y-109394866D01*
X107506329Y-109234176D01*
X107497270Y-109226315D01*
X107316622Y-109097461D01*
X107306240Y-109091455D01*
X107104487Y-108999085D01*
X107093156Y-108995150D01*
X106877575Y-108942596D01*
X106865705Y-108940875D01*
X106644075Y-108930036D01*
X106632094Y-108930591D01*
X106412414Y-108961856D01*
X106400754Y-108964666D01*
X106190948Y-109036908D01*
X106180029Y-109041872D01*
X105987671Y-109152483D01*
X105977888Y-109159423D01*
X105809915Y-109304413D01*
X105801621Y-109313077D01*
X105664095Y-109487214D01*
X105657589Y-109497290D01*
X105555473Y-109694292D01*
X105550990Y-109705417D01*
X105487968Y-109918173D01*
X105485670Y-109929945D01*
X105464017Y-110150780D01*
X105463986Y-110162774D01*
X100126000Y-110162774D01*
X100126000Y-105082774D01*
X102923986Y-105082774D01*
X102944482Y-105303720D01*
X102946719Y-105315504D01*
X103008626Y-105528587D01*
X103013051Y-105539735D01*
X103114133Y-105737268D01*
X103120587Y-105747379D01*
X103257199Y-105922233D01*
X103265448Y-105930941D01*
X103432659Y-106076808D01*
X103442405Y-106083799D01*
X103634183Y-106195416D01*
X103645075Y-106200438D01*
X103854498Y-106273777D01*
X103866144Y-106276648D01*
X104085658Y-106309063D01*
X104097637Y-106309681D01*
X104319320Y-106300001D01*
X104331199Y-106298343D01*
X104547051Y-106246919D01*
X104558402Y-106243044D01*
X104760638Y-106151731D01*
X104771051Y-106145779D01*
X104952370Y-106017872D01*
X104961470Y-106010059D01*
X105115332Y-105850174D01*
X105122790Y-105840780D01*
X105243643Y-105654684D01*
X105249190Y-105644050D01*
X105332672Y-105438458D01*
X105336108Y-105426966D01*
X105379224Y-105209218D01*
X105380427Y-105197118D01*
X105380726Y-105082774D01*
X105463986Y-105082774D01*
X105484482Y-105303720D01*
X105486719Y-105315504D01*
X105548626Y-105528587D01*
X105553051Y-105539735D01*
X105654133Y-105737268D01*
X105660587Y-105747379D01*
X105797199Y-105922233D01*
X105805448Y-105930941D01*
X105972659Y-106076808D01*
X105982405Y-106083799D01*
X106174183Y-106195416D01*
X106185075Y-106200438D01*
X106394498Y-106273777D01*
X106406144Y-106276648D01*
X106625658Y-106309063D01*
X106637637Y-106309681D01*
X106859320Y-106300001D01*
X106871199Y-106298343D01*
X107087051Y-106246919D01*
X107098402Y-106243044D01*
X107300638Y-106151731D01*
X107311051Y-106145779D01*
X107492370Y-106017872D01*
X107501470Y-106010059D01*
X107655332Y-105850174D01*
X107662790Y-105840780D01*
X107783643Y-105654684D01*
X107789190Y-105644050D01*
X107872672Y-105438458D01*
X107876108Y-105426966D01*
X107919224Y-105209218D01*
X107920427Y-105197118D01*
X107921023Y-104969300D01*
X107919884Y-104957194D01*
X107877910Y-104739222D01*
X107874533Y-104727713D01*
X107792129Y-104521687D01*
X107786637Y-104511024D01*
X107666760Y-104324298D01*
X107659351Y-104314866D01*
X107506329Y-104154176D01*
X107497270Y-104146315D01*
X107316622Y-104017461D01*
X107306240Y-104011455D01*
X107104487Y-103919085D01*
X107093156Y-103915150D01*
X106877575Y-103862596D01*
X106865705Y-103860875D01*
X106644075Y-103850036D01*
X106632094Y-103850591D01*
X106412414Y-103881856D01*
X106400754Y-103884666D01*
X106190948Y-103956908D01*
X106180029Y-103961872D01*
X105987671Y-104072483D01*
X105977888Y-104079423D01*
X105809915Y-104224413D01*
X105801621Y-104233077D01*
X105664095Y-104407214D01*
X105657589Y-104417290D01*
X105555473Y-104614292D01*
X105550990Y-104625417D01*
X105487968Y-104838173D01*
X105485670Y-104849945D01*
X105464017Y-105070780D01*
X105463986Y-105082774D01*
X105380726Y-105082774D01*
X105381023Y-104969300D01*
X105379884Y-104957194D01*
X105337910Y-104739222D01*
X105334533Y-104727713D01*
X105252129Y-104521687D01*
X105246637Y-104511024D01*
X105126760Y-104324298D01*
X105119351Y-104314866D01*
X104966329Y-104154176D01*
X104957270Y-104146315D01*
X104776622Y-104017461D01*
X104766240Y-104011455D01*
X104564487Y-103919085D01*
X104553156Y-103915150D01*
X104337575Y-103862596D01*
X104325705Y-103860875D01*
X104104075Y-103850036D01*
X104092094Y-103850591D01*
X103872414Y-103881856D01*
X103860754Y-103884666D01*
X103650948Y-103956908D01*
X103640029Y-103961872D01*
X103447671Y-104072483D01*
X103437888Y-104079423D01*
X103269915Y-104224413D01*
X103261621Y-104233077D01*
X103124095Y-104407214D01*
X103117589Y-104417290D01*
X103015473Y-104614292D01*
X103010990Y-104625417D01*
X102947968Y-104838173D01*
X102945670Y-104849945D01*
X102924017Y-105070780D01*
X102923986Y-105082774D01*
X100126000Y-105082774D01*
X100126000Y-102542774D01*
X102923986Y-102542774D01*
X102944482Y-102763720D01*
X102946719Y-102775504D01*
X103008626Y-102988587D01*
X103013051Y-102999735D01*
X103114133Y-103197268D01*
X103120587Y-103207379D01*
X103257199Y-103382233D01*
X103265448Y-103390941D01*
X103432659Y-103536808D01*
X103442405Y-103543799D01*
X103634183Y-103655416D01*
X103645075Y-103660438D01*
X103854498Y-103733777D01*
X103866144Y-103736648D01*
X104085658Y-103769063D01*
X104097637Y-103769681D01*
X104319320Y-103760001D01*
X104331199Y-103758343D01*
X104547051Y-103706919D01*
X104558402Y-103703044D01*
X104760638Y-103611731D01*
X104771051Y-103605779D01*
X104952370Y-103477872D01*
X104961470Y-103470059D01*
X105115332Y-103310174D01*
X105122790Y-103300780D01*
X105243643Y-103114684D01*
X105249190Y-103104050D01*
X105332672Y-102898458D01*
X105336108Y-102886966D01*
X105379224Y-102669218D01*
X105380427Y-102657118D01*
X105380726Y-102542774D01*
X105463986Y-102542774D01*
X105484482Y-102763720D01*
X105486719Y-102775504D01*
X105548626Y-102988587D01*
X105553051Y-102999735D01*
X105654133Y-103197268D01*
X105660587Y-103207379D01*
X105797199Y-103382233D01*
X105805448Y-103390941D01*
X105972659Y-103536808D01*
X105982405Y-103543799D01*
X106174183Y-103655416D01*
X106185075Y-103660438D01*
X106394498Y-103733777D01*
X106406144Y-103736648D01*
X106625658Y-103769063D01*
X106637637Y-103769681D01*
X106859320Y-103760001D01*
X106871199Y-103758343D01*
X107087051Y-103706919D01*
X107098402Y-103703044D01*
X107300638Y-103611731D01*
X107311051Y-103605779D01*
X107492370Y-103477872D01*
X107501470Y-103470059D01*
X107655332Y-103310174D01*
X107662790Y-103300780D01*
X107783643Y-103114684D01*
X107789190Y-103104050D01*
X107872672Y-102898458D01*
X107876108Y-102886966D01*
X107919224Y-102669218D01*
X107920427Y-102657118D01*
X107921023Y-102429300D01*
X107919884Y-102417194D01*
X107877910Y-102199222D01*
X107874533Y-102187713D01*
X107792129Y-101981687D01*
X107786637Y-101971024D01*
X107666760Y-101784298D01*
X107659351Y-101774866D01*
X107506329Y-101614176D01*
X107497270Y-101606315D01*
X107316622Y-101477461D01*
X107306240Y-101471455D01*
X107104487Y-101379085D01*
X107093156Y-101375150D01*
X106877575Y-101322596D01*
X106865705Y-101320875D01*
X106644075Y-101310036D01*
X106632094Y-101310591D01*
X106412414Y-101341856D01*
X106400754Y-101344666D01*
X106190948Y-101416908D01*
X106180029Y-101421872D01*
X105987671Y-101532483D01*
X105977888Y-101539423D01*
X105809915Y-101684413D01*
X105801621Y-101693077D01*
X105664095Y-101867214D01*
X105657589Y-101877290D01*
X105555473Y-102074292D01*
X105550990Y-102085417D01*
X105487968Y-102298173D01*
X105485670Y-102309945D01*
X105464017Y-102530780D01*
X105463986Y-102542774D01*
X105380726Y-102542774D01*
X105381023Y-102429300D01*
X105379884Y-102417194D01*
X105337910Y-102199222D01*
X105334533Y-102187713D01*
X105252129Y-101981687D01*
X105246637Y-101971024D01*
X105126760Y-101784298D01*
X105119351Y-101774866D01*
X104966329Y-101614176D01*
X104957270Y-101606315D01*
X104776622Y-101477461D01*
X104766240Y-101471455D01*
X104564487Y-101379085D01*
X104553156Y-101375150D01*
X104337575Y-101322596D01*
X104325705Y-101320875D01*
X104104075Y-101310036D01*
X104092094Y-101310591D01*
X103872414Y-101341856D01*
X103860754Y-101344666D01*
X103650948Y-101416908D01*
X103640029Y-101421872D01*
X103447671Y-101532483D01*
X103437888Y-101539423D01*
X103269915Y-101684413D01*
X103261621Y-101693077D01*
X103124095Y-101867214D01*
X103117589Y-101877290D01*
X103015473Y-102074292D01*
X103010990Y-102085417D01*
X102947968Y-102298173D01*
X102945670Y-102309945D01*
X102924017Y-102530780D01*
X102923986Y-102542774D01*
X100126000Y-102542774D01*
X100126000Y-101304014D01*
X100126536Y-101302187D01*
X100128840Y-101290024D01*
X100146123Y-101096363D01*
X100186825Y-100947586D01*
X100253232Y-100808357D01*
X100343236Y-100683104D01*
X100454010Y-100575757D01*
X100582043Y-100489723D01*
X100723273Y-100427727D01*
X100876188Y-100391017D01*
X101034071Y-100379421D01*
X101046269Y-100377309D01*
X101051005Y-100376000D01*
X118695986Y-100376000D01*
X118697813Y-100376536D01*
G37*
D16*
X118697813Y-100376536D02*
X118709976Y-100378840D01*
X118903637Y-100396123D01*
X119052414Y-100436825D01*
X119191643Y-100503232D01*
X119316896Y-100593236D01*
X119424243Y-100704010D01*
X119510277Y-100832043D01*
X119572273Y-100973273D01*
X119608983Y-101126188D01*
X119620579Y-101284071D01*
X119622691Y-101296269D01*
X119624000Y-101301005D01*
X119624000Y-103430000D01*
X114642184Y-103430000D01*
X114628754Y-103431444D01*
X114400106Y-103481183D01*
X114379272Y-103489813D01*
X114240567Y-103578953D01*
X114226946Y-103590756D01*
X114120455Y-103713652D01*
X114110711Y-103728815D01*
X114043159Y-103876735D01*
X114038081Y-103894028D01*
X114015580Y-104050522D01*
X114014938Y-104059500D01*
X114014938Y-104700000D01*
X109308184Y-104700000D01*
X109294754Y-104701444D01*
X109066106Y-104751183D01*
X109045272Y-104759813D01*
X108906567Y-104848953D01*
X108892946Y-104860756D01*
X108786455Y-104983652D01*
X108776711Y-104998815D01*
X108709159Y-105146735D01*
X108704081Y-105164028D01*
X108681580Y-105320522D01*
X108680938Y-105329500D01*
X108680938Y-120580754D01*
X108682382Y-120594184D01*
X108732121Y-120822832D01*
X108740751Y-120843666D01*
X108829891Y-120982371D01*
X108841694Y-120995992D01*
X108964590Y-121102483D01*
X108979753Y-121112227D01*
X109127673Y-121179779D01*
X109144966Y-121184857D01*
X109301460Y-121207358D01*
X109310438Y-121208000D01*
X114014938Y-121208000D01*
X114014938Y-121850754D01*
X114016382Y-121864184D01*
X114066121Y-122092832D01*
X114074751Y-122113666D01*
X114163891Y-122252371D01*
X114175694Y-122265992D01*
X114298590Y-122372483D01*
X114313752Y-122382227D01*
X114316000Y-122383254D01*
X114316000Y-128866000D01*
X107505376Y-128866000D01*
X107655332Y-128710174D01*
X107662790Y-128700780D01*
X107783643Y-128514684D01*
X107789190Y-128504050D01*
X107872672Y-128298458D01*
X107876108Y-128286966D01*
X107919224Y-128069218D01*
X107920427Y-128057118D01*
X107921023Y-127829300D01*
X107919884Y-127817194D01*
X107877910Y-127599222D01*
X107874533Y-127587713D01*
X107792129Y-127381687D01*
X107786637Y-127371024D01*
X107666760Y-127184298D01*
X107659351Y-127174866D01*
X107506329Y-127014176D01*
X107497270Y-127006315D01*
X107316622Y-126877461D01*
X107306240Y-126871455D01*
X107104487Y-126779085D01*
X107093156Y-126775150D01*
X106877575Y-126722596D01*
X106865705Y-126720875D01*
X106644075Y-126710036D01*
X106632094Y-126710591D01*
X106412414Y-126741856D01*
X106400754Y-126744666D01*
X106190948Y-126816908D01*
X106180029Y-126821872D01*
X105987671Y-126932483D01*
X105977888Y-126939423D01*
X105809915Y-127084413D01*
X105801621Y-127093077D01*
X105664095Y-127267214D01*
X105657589Y-127277290D01*
X105555473Y-127474292D01*
X105550990Y-127485417D01*
X105487968Y-127698173D01*
X105485670Y-127709945D01*
X105464017Y-127930780D01*
X105463986Y-127942774D01*
X105484482Y-128163720D01*
X105486719Y-128175504D01*
X105548626Y-128388587D01*
X105553051Y-128399735D01*
X105654133Y-128597268D01*
X105660587Y-128607379D01*
X105797199Y-128782233D01*
X105805448Y-128790941D01*
X105891490Y-128866000D01*
X105243246Y-128866000D01*
X105229816Y-128867444D01*
X105001168Y-128917183D01*
X104980334Y-128925813D01*
X104841629Y-129014953D01*
X104828008Y-129026756D01*
X104721517Y-129149652D01*
X104711773Y-129164815D01*
X104644221Y-129312735D01*
X104639143Y-129330028D01*
X104636008Y-129351830D01*
X104564487Y-129319085D01*
X104553156Y-129315150D01*
X104337575Y-129262596D01*
X104325705Y-129260875D01*
X104104075Y-129250036D01*
X104092094Y-129250591D01*
X103872414Y-129281856D01*
X103860754Y-129284666D01*
X103650948Y-129356908D01*
X103640029Y-129361872D01*
X103447671Y-129472483D01*
X103437888Y-129479423D01*
X103269915Y-129624413D01*
X103261621Y-129633077D01*
X103124095Y-129807214D01*
X103117589Y-129817290D01*
X103015473Y-130014292D01*
X103010990Y-130025417D01*
X102947968Y-130238173D01*
X102945670Y-130249945D01*
X102924017Y-130470780D01*
X102923986Y-130482774D01*
X102944482Y-130703720D01*
X102946719Y-130715504D01*
X103008626Y-130928587D01*
X103013051Y-130939735D01*
X103114133Y-131137268D01*
X103120587Y-131147379D01*
X103257199Y-131322233D01*
X103265448Y-131330941D01*
X103432659Y-131476808D01*
X103442405Y-131483799D01*
X103634183Y-131595416D01*
X103645075Y-131600438D01*
X103854498Y-131673777D01*
X103866144Y-131676648D01*
X104085658Y-131709063D01*
X104097637Y-131709681D01*
X104319320Y-131700001D01*
X104331199Y-131698343D01*
X104547051Y-131646919D01*
X104558402Y-131643044D01*
X104616000Y-131617038D01*
X104616000Y-132624000D01*
X101054015Y-132624000D01*
X101052188Y-132623464D01*
X101040025Y-132621160D01*
X100846361Y-132603877D01*
X100697585Y-132563176D01*
X100558357Y-132496768D01*
X100433104Y-132406764D01*
X100325756Y-132295988D01*
X100239727Y-132167965D01*
X100177727Y-132026727D01*
X100141017Y-131873812D01*
X100129421Y-131715929D01*
X100127309Y-131703731D01*
X100126000Y-131698995D01*
X100126000Y-127942774D01*
X102923986Y-127942774D01*
X102944482Y-128163720D01*
X102946719Y-128175504D01*
X103008626Y-128388587D01*
X103013051Y-128399735D01*
X103114133Y-128597268D01*
X103120587Y-128607379D01*
X103257199Y-128782233D01*
X103265448Y-128790941D01*
X103432659Y-128936808D01*
X103442405Y-128943799D01*
X103634183Y-129055416D01*
X103645075Y-129060438D01*
X103854498Y-129133777D01*
X103866144Y-129136648D01*
X104085658Y-129169063D01*
X104097637Y-129169681D01*
X104319320Y-129160001D01*
X104331199Y-129158343D01*
X104547051Y-129106919D01*
X104558402Y-129103044D01*
X104760638Y-129011731D01*
X104771051Y-129005779D01*
X104952370Y-128877872D01*
X104961470Y-128870059D01*
X105115332Y-128710174D01*
X105122790Y-128700780D01*
X105243643Y-128514684D01*
X105249190Y-128504050D01*
X105332672Y-128298458D01*
X105336108Y-128286966D01*
X105379224Y-128069218D01*
X105380427Y-128057118D01*
X105381023Y-127829300D01*
X105379884Y-127817194D01*
X105337910Y-127599222D01*
X105334533Y-127587713D01*
X105252129Y-127381687D01*
X105246637Y-127371024D01*
X105126760Y-127184298D01*
X105119351Y-127174866D01*
X104966329Y-127014176D01*
X104957270Y-127006315D01*
X104776622Y-126877461D01*
X104766240Y-126871455D01*
X104564487Y-126779085D01*
X104553156Y-126775150D01*
X104337575Y-126722596D01*
X104325705Y-126720875D01*
X104104075Y-126710036D01*
X104092094Y-126710591D01*
X103872414Y-126741856D01*
X103860754Y-126744666D01*
X103650948Y-126816908D01*
X103640029Y-126821872D01*
X103447671Y-126932483D01*
X103437888Y-126939423D01*
X103269915Y-127084413D01*
X103261621Y-127093077D01*
X103124095Y-127267214D01*
X103117589Y-127277290D01*
X103015473Y-127474292D01*
X103010990Y-127485417D01*
X102947968Y-127698173D01*
X102945670Y-127709945D01*
X102924017Y-127930780D01*
X102923986Y-127942774D01*
X100126000Y-127942774D01*
X100126000Y-122862774D01*
X102923986Y-122862774D01*
X102944482Y-123083720D01*
X102946719Y-123095504D01*
X103008626Y-123308587D01*
X103013051Y-123319735D01*
X103114133Y-123517268D01*
X103120587Y-123527379D01*
X103257199Y-123702233D01*
X103265448Y-123710941D01*
X103432659Y-123856808D01*
X103442405Y-123863799D01*
X103634183Y-123975416D01*
X103645075Y-123980438D01*
X103854498Y-124053777D01*
X103866144Y-124056648D01*
X104085658Y-124089063D01*
X104097637Y-124089681D01*
X104319320Y-124080001D01*
X104331199Y-124078343D01*
X104547051Y-124026919D01*
X104558402Y-124023044D01*
X104760638Y-123931731D01*
X104771051Y-123925779D01*
X104952370Y-123797872D01*
X104961470Y-123790059D01*
X105115332Y-123630174D01*
X105122790Y-123620780D01*
X105243643Y-123434684D01*
X105249190Y-123424050D01*
X105332672Y-123218458D01*
X105336108Y-123206966D01*
X105379224Y-122989218D01*
X105380427Y-122977118D01*
X105380726Y-122862774D01*
X105463986Y-122862774D01*
X105484482Y-123083720D01*
X105486719Y-123095504D01*
X105548626Y-123308587D01*
X105553051Y-123319735D01*
X105654133Y-123517268D01*
X105660587Y-123527379D01*
X105797199Y-123702233D01*
X105805448Y-123710941D01*
X105972659Y-123856808D01*
X105982405Y-123863799D01*
X106174183Y-123975416D01*
X106185075Y-123980438D01*
X106394498Y-124053777D01*
X106406144Y-124056648D01*
X106625658Y-124089063D01*
X106637637Y-124089681D01*
X106859320Y-124080001D01*
X106871199Y-124078343D01*
X107087051Y-124026919D01*
X107098402Y-124023044D01*
X107300638Y-123931731D01*
X107311051Y-123925779D01*
X107492370Y-123797872D01*
X107501470Y-123790059D01*
X107655332Y-123630174D01*
X107662790Y-123620780D01*
X107783643Y-123434684D01*
X107789190Y-123424050D01*
X107872672Y-123218458D01*
X107876108Y-123206966D01*
X107919224Y-122989218D01*
X107920427Y-122977118D01*
X107921023Y-122749300D01*
X107919884Y-122737194D01*
X107877910Y-122519222D01*
X107874533Y-122507713D01*
X107792129Y-122301687D01*
X107786637Y-122291024D01*
X107666760Y-122104298D01*
X107659351Y-122094866D01*
X107506329Y-121934176D01*
X107497270Y-121926315D01*
X107316622Y-121797461D01*
X107306240Y-121791455D01*
X107104487Y-121699085D01*
X107093156Y-121695150D01*
X106877575Y-121642596D01*
X106865705Y-121640875D01*
X106644075Y-121630036D01*
X106632094Y-121630591D01*
X106412414Y-121661856D01*
X106400754Y-121664666D01*
X106190948Y-121736908D01*
X106180029Y-121741872D01*
X105987671Y-121852483D01*
X105977888Y-121859423D01*
X105809915Y-122004413D01*
X105801621Y-122013077D01*
X105664095Y-122187214D01*
X105657589Y-122197290D01*
X105555473Y-122394292D01*
X105550990Y-122405417D01*
X105487968Y-122618173D01*
X105485670Y-122629945D01*
X105464017Y-122850780D01*
X105463986Y-122862774D01*
X105380726Y-122862774D01*
X105381023Y-122749300D01*
X105379884Y-122737194D01*
X105337910Y-122519222D01*
X105334533Y-122507713D01*
X105252129Y-122301687D01*
X105246637Y-122291024D01*
X105126760Y-122104298D01*
X105119351Y-122094866D01*
X104966329Y-121934176D01*
X104957270Y-121926315D01*
X104776622Y-121797461D01*
X104766240Y-121791455D01*
X104564487Y-121699085D01*
X104553156Y-121695150D01*
X104337575Y-121642596D01*
X104325705Y-121640875D01*
X104104075Y-121630036D01*
X104092094Y-121630591D01*
X103872414Y-121661856D01*
X103860754Y-121664666D01*
X103650948Y-121736908D01*
X103640029Y-121741872D01*
X103447671Y-121852483D01*
X103437888Y-121859423D01*
X103269915Y-122004413D01*
X103261621Y-122013077D01*
X103124095Y-122187214D01*
X103117589Y-122197290D01*
X103015473Y-122394292D01*
X103010990Y-122405417D01*
X102947968Y-122618173D01*
X102945670Y-122629945D01*
X102924017Y-122850780D01*
X102923986Y-122862774D01*
X100126000Y-122862774D01*
X100126000Y-120322774D01*
X105463986Y-120322774D01*
X105484482Y-120543720D01*
X105486719Y-120555504D01*
X105548626Y-120768587D01*
X105553051Y-120779735D01*
X105654133Y-120977268D01*
X105660587Y-120987379D01*
X105797199Y-121162233D01*
X105805448Y-121170941D01*
X105972659Y-121316808D01*
X105982405Y-121323799D01*
X106174183Y-121435416D01*
X106185075Y-121440438D01*
X106394498Y-121513777D01*
X106406144Y-121516648D01*
X106625658Y-121549063D01*
X106637637Y-121549681D01*
X106859320Y-121540001D01*
X106871199Y-121538343D01*
X107087051Y-121486919D01*
X107098402Y-121483044D01*
X107300638Y-121391731D01*
X107311051Y-121385779D01*
X107492370Y-121257872D01*
X107501470Y-121250059D01*
X107655332Y-121090174D01*
X107662790Y-121080780D01*
X107783643Y-120894684D01*
X107789190Y-120884050D01*
X107872672Y-120678458D01*
X107876108Y-120666966D01*
X107919224Y-120449218D01*
X107920427Y-120437118D01*
X107921023Y-120209300D01*
X107919884Y-120197194D01*
X107877910Y-119979222D01*
X107874533Y-119967713D01*
X107792129Y-119761687D01*
X107786637Y-119751024D01*
X107666760Y-119564298D01*
X107659351Y-119554866D01*
X107506329Y-119394176D01*
X107497270Y-119386315D01*
X107316622Y-119257461D01*
X107306240Y-119251455D01*
X107104487Y-119159085D01*
X107093156Y-119155150D01*
X106877575Y-119102596D01*
X106865705Y-119100875D01*
X106644075Y-119090036D01*
X106632094Y-119090591D01*
X106412414Y-119121856D01*
X106400754Y-119124666D01*
X106190948Y-119196908D01*
X106180029Y-119201872D01*
X105987671Y-119312483D01*
X105977888Y-119319423D01*
X105809915Y-119464413D01*
X105801621Y-119473077D01*
X105664095Y-119647214D01*
X105657589Y-119657290D01*
X105555473Y-119854292D01*
X105550990Y-119865417D01*
X105487968Y-120078173D01*
X105485670Y-120089945D01*
X105464017Y-120310780D01*
X105463986Y-120322774D01*
X100126000Y-120322774D01*
X100126000Y-117782774D01*
X105463986Y-117782774D01*
X105484482Y-118003720D01*
X105486719Y-118015504D01*
X105548626Y-118228587D01*
X105553051Y-118239735D01*
X105654133Y-118437268D01*
X105660587Y-118447379D01*
X105797199Y-118622233D01*
X105805448Y-118630941D01*
X105972659Y-118776808D01*
X105982405Y-118783799D01*
X106174183Y-118895416D01*
X106185075Y-118900438D01*
X106394498Y-118973777D01*
X106406144Y-118976648D01*
X106625658Y-119009063D01*
X106637637Y-119009681D01*
X106859320Y-119000001D01*
X106871199Y-118998343D01*
X107087051Y-118946919D01*
X107098402Y-118943044D01*
X107300638Y-118851731D01*
X107311051Y-118845779D01*
X107492370Y-118717872D01*
X107501470Y-118710059D01*
X107655332Y-118550174D01*
X107662790Y-118540780D01*
X107783643Y-118354684D01*
X107789190Y-118344050D01*
X107872672Y-118138458D01*
X107876108Y-118126966D01*
X107919224Y-117909218D01*
X107920427Y-117897118D01*
X107921023Y-117669300D01*
X107919884Y-117657194D01*
X107877910Y-117439222D01*
X107874533Y-117427713D01*
X107792129Y-117221687D01*
X107786637Y-117211024D01*
X107666760Y-117024298D01*
X107659351Y-117014866D01*
X107506329Y-116854176D01*
X107497270Y-116846315D01*
X107316622Y-116717461D01*
X107306240Y-116711455D01*
X107104487Y-116619085D01*
X107093156Y-116615150D01*
X106877575Y-116562596D01*
X106865705Y-116560875D01*
X106644075Y-116550036D01*
X106632094Y-116550591D01*
X106412414Y-116581856D01*
X106400754Y-116584666D01*
X106190948Y-116656908D01*
X106180029Y-116661872D01*
X105987671Y-116772483D01*
X105977888Y-116779423D01*
X105809915Y-116924413D01*
X105801621Y-116933077D01*
X105664095Y-117107214D01*
X105657589Y-117117290D01*
X105555473Y-117314292D01*
X105550990Y-117325417D01*
X105487968Y-117538173D01*
X105485670Y-117549945D01*
X105464017Y-117770780D01*
X105463986Y-117782774D01*
X100126000Y-117782774D01*
X100126000Y-115242774D01*
X105463986Y-115242774D01*
X105484482Y-115463720D01*
X105486719Y-115475504D01*
X105548626Y-115688587D01*
X105553051Y-115699735D01*
X105654133Y-115897268D01*
X105660587Y-115907379D01*
X105797199Y-116082233D01*
X105805448Y-116090941D01*
X105972659Y-116236808D01*
X105982405Y-116243799D01*
X106174183Y-116355416D01*
X106185075Y-116360438D01*
X106394498Y-116433777D01*
X106406144Y-116436648D01*
X106625658Y-116469063D01*
X106637637Y-116469681D01*
X106859320Y-116460001D01*
X106871199Y-116458343D01*
X107087051Y-116406919D01*
X107098402Y-116403044D01*
X107300638Y-116311731D01*
X107311051Y-116305779D01*
X107492370Y-116177872D01*
X107501470Y-116170059D01*
X107655332Y-116010174D01*
X107662790Y-116000780D01*
X107783643Y-115814684D01*
X107789190Y-115804050D01*
X107872672Y-115598458D01*
X107876108Y-115586966D01*
X107919224Y-115369218D01*
X107920427Y-115357118D01*
X107921023Y-115129300D01*
X107919884Y-115117194D01*
X107877910Y-114899222D01*
X107874533Y-114887713D01*
X107792129Y-114681687D01*
X107786637Y-114671024D01*
X107666760Y-114484298D01*
X107659351Y-114474866D01*
X107506329Y-114314176D01*
X107497270Y-114306315D01*
X107316622Y-114177461D01*
X107306240Y-114171455D01*
X107104487Y-114079085D01*
X107093156Y-114075150D01*
X106877575Y-114022596D01*
X106865705Y-114020875D01*
X106644075Y-114010036D01*
X106632094Y-114010591D01*
X106412414Y-114041856D01*
X106400754Y-114044666D01*
X106190948Y-114116908D01*
X106180029Y-114121872D01*
X105987671Y-114232483D01*
X105977888Y-114239423D01*
X105809915Y-114384413D01*
X105801621Y-114393077D01*
X105664095Y-114567214D01*
X105657589Y-114577290D01*
X105555473Y-114774292D01*
X105550990Y-114785417D01*
X105487968Y-114998173D01*
X105485670Y-115009945D01*
X105464017Y-115230780D01*
X105463986Y-115242774D01*
X100126000Y-115242774D01*
X100126000Y-112702774D01*
X105463986Y-112702774D01*
X105484482Y-112923720D01*
X105486719Y-112935504D01*
X105548626Y-113148587D01*
X105553051Y-113159735D01*
X105654133Y-113357268D01*
X105660587Y-113367379D01*
X105797199Y-113542233D01*
X105805448Y-113550941D01*
X105972659Y-113696808D01*
X105982405Y-113703799D01*
X106174183Y-113815416D01*
X106185075Y-113820438D01*
X106394498Y-113893777D01*
X106406144Y-113896648D01*
X106625658Y-113929063D01*
X106637637Y-113929681D01*
X106859320Y-113920001D01*
X106871199Y-113918343D01*
X107087051Y-113866919D01*
X107098402Y-113863044D01*
X107300638Y-113771731D01*
X107311051Y-113765779D01*
X107492370Y-113637872D01*
X107501470Y-113630059D01*
X107655332Y-113470174D01*
X107662790Y-113460780D01*
X107783643Y-113274684D01*
X107789190Y-113264050D01*
X107872672Y-113058458D01*
X107876108Y-113046966D01*
X107919224Y-112829218D01*
X107920427Y-112817118D01*
X107921023Y-112589300D01*
X107919884Y-112577194D01*
X107877910Y-112359222D01*
X107874533Y-112347713D01*
X107792129Y-112141687D01*
X107786637Y-112131024D01*
X107666760Y-111944298D01*
X107659351Y-111934866D01*
X107506329Y-111774176D01*
X107497270Y-111766315D01*
X107316622Y-111637461D01*
X107306240Y-111631455D01*
X107104487Y-111539085D01*
X107093156Y-111535150D01*
X106877575Y-111482596D01*
X106865705Y-111480875D01*
X106644075Y-111470036D01*
X106632094Y-111470591D01*
X106412414Y-111501856D01*
X106400754Y-111504666D01*
X106190948Y-111576908D01*
X106180029Y-111581872D01*
X105987671Y-111692483D01*
X105977888Y-111699423D01*
X105809915Y-111844413D01*
X105801621Y-111853077D01*
X105664095Y-112027214D01*
X105657589Y-112037290D01*
X105555473Y-112234292D01*
X105550990Y-112245417D01*
X105487968Y-112458173D01*
X105485670Y-112469945D01*
X105464017Y-112690780D01*
X105463986Y-112702774D01*
X100126000Y-112702774D01*
X100126000Y-110162774D01*
X105463986Y-110162774D01*
X105484482Y-110383720D01*
X105486719Y-110395504D01*
X105548626Y-110608587D01*
X105553051Y-110619735D01*
X105654133Y-110817268D01*
X105660587Y-110827379D01*
X105797199Y-111002233D01*
X105805448Y-111010941D01*
X105972659Y-111156808D01*
X105982405Y-111163799D01*
X106174183Y-111275416D01*
X106185075Y-111280438D01*
X106394498Y-111353777D01*
X106406144Y-111356648D01*
X106625658Y-111389063D01*
X106637637Y-111389681D01*
X106859320Y-111380001D01*
X106871199Y-111378343D01*
X107087051Y-111326919D01*
X107098402Y-111323044D01*
X107300638Y-111231731D01*
X107311051Y-111225779D01*
X107492370Y-111097872D01*
X107501470Y-111090059D01*
X107655332Y-110930174D01*
X107662790Y-110920780D01*
X107783643Y-110734684D01*
X107789190Y-110724050D01*
X107872672Y-110518458D01*
X107876108Y-110506966D01*
X107919224Y-110289218D01*
X107920427Y-110277118D01*
X107921023Y-110049300D01*
X107919884Y-110037194D01*
X107877910Y-109819222D01*
X107874533Y-109807713D01*
X107792129Y-109601687D01*
X107786637Y-109591024D01*
X107666760Y-109404298D01*
X107659351Y-109394866D01*
X107506329Y-109234176D01*
X107497270Y-109226315D01*
X107316622Y-109097461D01*
X107306240Y-109091455D01*
X107104487Y-108999085D01*
X107093156Y-108995150D01*
X106877575Y-108942596D01*
X106865705Y-108940875D01*
X106644075Y-108930036D01*
X106632094Y-108930591D01*
X106412414Y-108961856D01*
X106400754Y-108964666D01*
X106190948Y-109036908D01*
X106180029Y-109041872D01*
X105987671Y-109152483D01*
X105977888Y-109159423D01*
X105809915Y-109304413D01*
X105801621Y-109313077D01*
X105664095Y-109487214D01*
X105657589Y-109497290D01*
X105555473Y-109694292D01*
X105550990Y-109705417D01*
X105487968Y-109918173D01*
X105485670Y-109929945D01*
X105464017Y-110150780D01*
X105463986Y-110162774D01*
X100126000Y-110162774D01*
X100126000Y-105082774D01*
X102923986Y-105082774D01*
X102944482Y-105303720D01*
X102946719Y-105315504D01*
X103008626Y-105528587D01*
X103013051Y-105539735D01*
X103114133Y-105737268D01*
X103120587Y-105747379D01*
X103257199Y-105922233D01*
X103265448Y-105930941D01*
X103432659Y-106076808D01*
X103442405Y-106083799D01*
X103634183Y-106195416D01*
X103645075Y-106200438D01*
X103854498Y-106273777D01*
X103866144Y-106276648D01*
X104085658Y-106309063D01*
X104097637Y-106309681D01*
X104319320Y-106300001D01*
X104331199Y-106298343D01*
X104547051Y-106246919D01*
X104558402Y-106243044D01*
X104760638Y-106151731D01*
X104771051Y-106145779D01*
X104952370Y-106017872D01*
X104961470Y-106010059D01*
X105115332Y-105850174D01*
X105122790Y-105840780D01*
X105243643Y-105654684D01*
X105249190Y-105644050D01*
X105332672Y-105438458D01*
X105336108Y-105426966D01*
X105379224Y-105209218D01*
X105380427Y-105197118D01*
X105380726Y-105082774D01*
X105463986Y-105082774D01*
X105484482Y-105303720D01*
X105486719Y-105315504D01*
X105548626Y-105528587D01*
X105553051Y-105539735D01*
X105654133Y-105737268D01*
X105660587Y-105747379D01*
X105797199Y-105922233D01*
X105805448Y-105930941D01*
X105972659Y-106076808D01*
X105982405Y-106083799D01*
X106174183Y-106195416D01*
X106185075Y-106200438D01*
X106394498Y-106273777D01*
X106406144Y-106276648D01*
X106625658Y-106309063D01*
X106637637Y-106309681D01*
X106859320Y-106300001D01*
X106871199Y-106298343D01*
X107087051Y-106246919D01*
X107098402Y-106243044D01*
X107300638Y-106151731D01*
X107311051Y-106145779D01*
X107492370Y-106017872D01*
X107501470Y-106010059D01*
X107655332Y-105850174D01*
X107662790Y-105840780D01*
X107783643Y-105654684D01*
X107789190Y-105644050D01*
X107872672Y-105438458D01*
X107876108Y-105426966D01*
X107919224Y-105209218D01*
X107920427Y-105197118D01*
X107921023Y-104969300D01*
X107919884Y-104957194D01*
X107877910Y-104739222D01*
X107874533Y-104727713D01*
X107792129Y-104521687D01*
X107786637Y-104511024D01*
X107666760Y-104324298D01*
X107659351Y-104314866D01*
X107506329Y-104154176D01*
X107497270Y-104146315D01*
X107316622Y-104017461D01*
X107306240Y-104011455D01*
X107104487Y-103919085D01*
X107093156Y-103915150D01*
X106877575Y-103862596D01*
X106865705Y-103860875D01*
X106644075Y-103850036D01*
X106632094Y-103850591D01*
X106412414Y-103881856D01*
X106400754Y-103884666D01*
X106190948Y-103956908D01*
X106180029Y-103961872D01*
X105987671Y-104072483D01*
X105977888Y-104079423D01*
X105809915Y-104224413D01*
X105801621Y-104233077D01*
X105664095Y-104407214D01*
X105657589Y-104417290D01*
X105555473Y-104614292D01*
X105550990Y-104625417D01*
X105487968Y-104838173D01*
X105485670Y-104849945D01*
X105464017Y-105070780D01*
X105463986Y-105082774D01*
X105380726Y-105082774D01*
X105381023Y-104969300D01*
X105379884Y-104957194D01*
X105337910Y-104739222D01*
X105334533Y-104727713D01*
X105252129Y-104521687D01*
X105246637Y-104511024D01*
X105126760Y-104324298D01*
X105119351Y-104314866D01*
X104966329Y-104154176D01*
X104957270Y-104146315D01*
X104776622Y-104017461D01*
X104766240Y-104011455D01*
X104564487Y-103919085D01*
X104553156Y-103915150D01*
X104337575Y-103862596D01*
X104325705Y-103860875D01*
X104104075Y-103850036D01*
X104092094Y-103850591D01*
X103872414Y-103881856D01*
X103860754Y-103884666D01*
X103650948Y-103956908D01*
X103640029Y-103961872D01*
X103447671Y-104072483D01*
X103437888Y-104079423D01*
X103269915Y-104224413D01*
X103261621Y-104233077D01*
X103124095Y-104407214D01*
X103117589Y-104417290D01*
X103015473Y-104614292D01*
X103010990Y-104625417D01*
X102947968Y-104838173D01*
X102945670Y-104849945D01*
X102924017Y-105070780D01*
X102923986Y-105082774D01*
X100126000Y-105082774D01*
X100126000Y-102542774D01*
X102923986Y-102542774D01*
X102944482Y-102763720D01*
X102946719Y-102775504D01*
X103008626Y-102988587D01*
X103013051Y-102999735D01*
X103114133Y-103197268D01*
X103120587Y-103207379D01*
X103257199Y-103382233D01*
X103265448Y-103390941D01*
X103432659Y-103536808D01*
X103442405Y-103543799D01*
X103634183Y-103655416D01*
X103645075Y-103660438D01*
X103854498Y-103733777D01*
X103866144Y-103736648D01*
X104085658Y-103769063D01*
X104097637Y-103769681D01*
X104319320Y-103760001D01*
X104331199Y-103758343D01*
X104547051Y-103706919D01*
X104558402Y-103703044D01*
X104760638Y-103611731D01*
X104771051Y-103605779D01*
X104952370Y-103477872D01*
X104961470Y-103470059D01*
X105115332Y-103310174D01*
X105122790Y-103300780D01*
X105243643Y-103114684D01*
X105249190Y-103104050D01*
X105332672Y-102898458D01*
X105336108Y-102886966D01*
X105379224Y-102669218D01*
X105380427Y-102657118D01*
X105380726Y-102542774D01*
X105463986Y-102542774D01*
X105484482Y-102763720D01*
X105486719Y-102775504D01*
X105548626Y-102988587D01*
X105553051Y-102999735D01*
X105654133Y-103197268D01*
X105660587Y-103207379D01*
X105797199Y-103382233D01*
X105805448Y-103390941D01*
X105972659Y-103536808D01*
X105982405Y-103543799D01*
X106174183Y-103655416D01*
X106185075Y-103660438D01*
X106394498Y-103733777D01*
X106406144Y-103736648D01*
X106625658Y-103769063D01*
X106637637Y-103769681D01*
X106859320Y-103760001D01*
X106871199Y-103758343D01*
X107087051Y-103706919D01*
X107098402Y-103703044D01*
X107300638Y-103611731D01*
X107311051Y-103605779D01*
X107492370Y-103477872D01*
X107501470Y-103470059D01*
X107655332Y-103310174D01*
X107662790Y-103300780D01*
X107783643Y-103114684D01*
X107789190Y-103104050D01*
X107872672Y-102898458D01*
X107876108Y-102886966D01*
X107919224Y-102669218D01*
X107920427Y-102657118D01*
X107921023Y-102429300D01*
X107919884Y-102417194D01*
X107877910Y-102199222D01*
X107874533Y-102187713D01*
X107792129Y-101981687D01*
X107786637Y-101971024D01*
X107666760Y-101784298D01*
X107659351Y-101774866D01*
X107506329Y-101614176D01*
X107497270Y-101606315D01*
X107316622Y-101477461D01*
X107306240Y-101471455D01*
X107104487Y-101379085D01*
X107093156Y-101375150D01*
X106877575Y-101322596D01*
X106865705Y-101320875D01*
X106644075Y-101310036D01*
X106632094Y-101310591D01*
X106412414Y-101341856D01*
X106400754Y-101344666D01*
X106190948Y-101416908D01*
X106180029Y-101421872D01*
X105987671Y-101532483D01*
X105977888Y-101539423D01*
X105809915Y-101684413D01*
X105801621Y-101693077D01*
X105664095Y-101867214D01*
X105657589Y-101877290D01*
X105555473Y-102074292D01*
X105550990Y-102085417D01*
X105487968Y-102298173D01*
X105485670Y-102309945D01*
X105464017Y-102530780D01*
X105463986Y-102542774D01*
X105380726Y-102542774D01*
X105381023Y-102429300D01*
X105379884Y-102417194D01*
X105337910Y-102199222D01*
X105334533Y-102187713D01*
X105252129Y-101981687D01*
X105246637Y-101971024D01*
X105126760Y-101784298D01*
X105119351Y-101774866D01*
X104966329Y-101614176D01*
X104957270Y-101606315D01*
X104776622Y-101477461D01*
X104766240Y-101471455D01*
X104564487Y-101379085D01*
X104553156Y-101375150D01*
X104337575Y-101322596D01*
X104325705Y-101320875D01*
X104104075Y-101310036D01*
X104092094Y-101310591D01*
X103872414Y-101341856D01*
X103860754Y-101344666D01*
X103650948Y-101416908D01*
X103640029Y-101421872D01*
X103447671Y-101532483D01*
X103437888Y-101539423D01*
X103269915Y-101684413D01*
X103261621Y-101693077D01*
X103124095Y-101867214D01*
X103117589Y-101877290D01*
X103015473Y-102074292D01*
X103010990Y-102085417D01*
X102947968Y-102298173D01*
X102945670Y-102309945D01*
X102924017Y-102530780D01*
X102923986Y-102542774D01*
X100126000Y-102542774D01*
X100126000Y-101304014D01*
X100126536Y-101302187D01*
X100128840Y-101290024D01*
X100146123Y-101096363D01*
X100186825Y-100947586D01*
X100253232Y-100808357D01*
X100343236Y-100683104D01*
X100454010Y-100575757D01*
X100582043Y-100489723D01*
X100723273Y-100427727D01*
X100876188Y-100391017D01*
X101034071Y-100379421D01*
X101046269Y-100377309D01*
X101051005Y-100376000D01*
X118695986Y-100376000D01*
X118697813Y-100376536D01*
G36*
X116554938Y-113765694D02*
G01*
X116519349Y-113758615D01*
X116494529Y-113758615D01*
X116457407Y-113765999D01*
X115539287Y-113765999D01*
X115196937Y-113423650D01*
X115196937Y-111847349D01*
X115443133Y-111601153D01*
X115630607Y-111662066D01*
X115641875Y-111664616D01*
X115862877Y-111693712D01*
X115874422Y-111694166D01*
X116097024Y-111682499D01*
X116108458Y-111680841D01*
X116325208Y-111628804D01*
X116336149Y-111625090D01*
X116539785Y-111534425D01*
X116549865Y-111528780D01*
X116554938Y-111525293D01*
X116554938Y-113765694D01*
G37*
X116554938Y-113765694D02*
X116519349Y-113758615D01*
X116494529Y-113758615D01*
X116457407Y-113765999D01*
X115539287Y-113765999D01*
X115196937Y-113423650D01*
X115196937Y-111847349D01*
X115443133Y-111601153D01*
X115630607Y-111662066D01*
X115641875Y-111664616D01*
X115862877Y-111693712D01*
X115874422Y-111694166D01*
X116097024Y-111682499D01*
X116108458Y-111680841D01*
X116325208Y-111628804D01*
X116336149Y-111625090D01*
X116539785Y-111534425D01*
X116549865Y-111528780D01*
X116554938Y-111525293D01*
X116554938Y-113765694D01*
G36*
X119366001Y-119126000D02*
G01*
X119366001Y-131672261D01*
X119365991Y-131672301D01*
X119364415Y-131681523D01*
X119363324Y-131692989D01*
X119348624Y-131857708D01*
X119320088Y-131962012D01*
X119273534Y-132059617D01*
X119210431Y-132147434D01*
X119132775Y-132222687D01*
X119043016Y-132283003D01*
X118944005Y-132326466D01*
X118833940Y-132352890D01*
X118698712Y-132362821D01*
X118689840Y-132364111D01*
X118681213Y-132366000D01*
X105376000Y-132366000D01*
X105376000Y-131332068D01*
X105376961Y-131330698D01*
X105498256Y-131122294D01*
X105502825Y-131112650D01*
X105587272Y-130886787D01*
X105590151Y-130876511D01*
X105635392Y-130639351D01*
X105636507Y-130628128D01*
X105639077Y-130360341D01*
X105638178Y-130349099D01*
X105597499Y-130111114D01*
X105594817Y-130100784D01*
X105514723Y-129873343D01*
X105510339Y-129863612D01*
X105393067Y-129652916D01*
X105387107Y-129644064D01*
X105376000Y-129630249D01*
X105376000Y-129626000D01*
X115002191Y-129626000D01*
X115076000Y-129552191D01*
X115076000Y-121718000D01*
X114912848Y-121718000D01*
X114912117Y-121708856D01*
X114870008Y-121462508D01*
X114867327Y-121452178D01*
X114784414Y-121216732D01*
X114780031Y-121207001D01*
X114774938Y-121197851D01*
X114774938Y-119950578D01*
X114821571Y-119825851D01*
X114960956Y-119965236D01*
X114977001Y-119976893D01*
X115022079Y-119999861D01*
X115063017Y-120029605D01*
X115076000Y-120036220D01*
X115080689Y-120038609D01*
X115128814Y-120054246D01*
X115173897Y-120077217D01*
X115192758Y-120083346D01*
X115242743Y-120091263D01*
X115290857Y-120106896D01*
X115310445Y-120109998D01*
X116527430Y-120109998D01*
X116547019Y-120106896D01*
X116595134Y-120091262D01*
X116645117Y-120083346D01*
X116663980Y-120077217D01*
X116709067Y-120054244D01*
X116757185Y-120038610D01*
X116774857Y-120029605D01*
X116815788Y-119999866D01*
X116860875Y-119976893D01*
X116876921Y-119965235D01*
X117026166Y-119815989D01*
X117760175Y-119081981D01*
X117771833Y-119065935D01*
X117794805Y-119020851D01*
X117824545Y-118979917D01*
X117833549Y-118962247D01*
X117849184Y-118914128D01*
X117872157Y-118869040D01*
X117878285Y-118850178D01*
X117886202Y-118800196D01*
X117901836Y-118752081D01*
X117904938Y-118732492D01*
X117904938Y-114795509D01*
X117901836Y-114775921D01*
X117886203Y-114727807D01*
X117878286Y-114677822D01*
X117872157Y-114658961D01*
X117849186Y-114613878D01*
X117833549Y-114565753D01*
X117824545Y-114548081D01*
X117794801Y-114507143D01*
X117771833Y-114462065D01*
X117760176Y-114446020D01*
X117692731Y-114378576D01*
X117314938Y-114000784D01*
X117314938Y-113600578D01*
X117399531Y-113374323D01*
X117402409Y-113364046D01*
X117449240Y-113118553D01*
X117450355Y-113107330D01*
X117453016Y-112830098D01*
X117452117Y-112818856D01*
X117410008Y-112572508D01*
X117407327Y-112562178D01*
X117324414Y-112326732D01*
X117320031Y-112317001D01*
X117314938Y-112307851D01*
X117314938Y-111060578D01*
X117399531Y-110834323D01*
X117402409Y-110824046D01*
X117449240Y-110578553D01*
X117450355Y-110567330D01*
X117453016Y-110290098D01*
X117452117Y-110278856D01*
X117410008Y-110032508D01*
X117407327Y-110022178D01*
X117324414Y-109786732D01*
X117320031Y-109777001D01*
X117314938Y-109767851D01*
X117314938Y-108520578D01*
X117399531Y-108294323D01*
X117402409Y-108284046D01*
X117449240Y-108038553D01*
X117450355Y-108027330D01*
X117453016Y-107750098D01*
X117452117Y-107738856D01*
X117410008Y-107492508D01*
X117407327Y-107482178D01*
X117324414Y-107246732D01*
X117320031Y-107237001D01*
X117314938Y-107227851D01*
X117314938Y-106551809D01*
X117241129Y-106478000D01*
X116558442Y-106478000D01*
X116380438Y-106405721D01*
X116370246Y-106402556D01*
X116126451Y-106348954D01*
X116115872Y-106347552D01*
X115866530Y-106335794D01*
X115855866Y-106336194D01*
X115608108Y-106366614D01*
X115597663Y-106368806D01*
X115358573Y-106440537D01*
X115348648Y-106444457D01*
X115281075Y-106478000D01*
X114912848Y-106478000D01*
X114912117Y-106468856D01*
X114870008Y-106222508D01*
X114867327Y-106212178D01*
X114784414Y-105976732D01*
X114780031Y-105967001D01*
X114774938Y-105957851D01*
X114774938Y-105371412D01*
X114777700Y-105368120D01*
X114878297Y-105193880D01*
X114885838Y-105173163D01*
X114919816Y-104980462D01*
X114920775Y-104969501D01*
X114920775Y-104190000D01*
X119366000Y-104190000D01*
X119366001Y-119126000D01*
G37*
X119366001Y-119126000D02*
X119366001Y-131672261D01*
X119365991Y-131672301D01*
X119364415Y-131681523D01*
X119363324Y-131692989D01*
X119348624Y-131857708D01*
X119320088Y-131962012D01*
X119273534Y-132059617D01*
X119210431Y-132147434D01*
X119132775Y-132222687D01*
X119043016Y-132283003D01*
X118944005Y-132326466D01*
X118833940Y-132352890D01*
X118698712Y-132362821D01*
X118689840Y-132364111D01*
X118681213Y-132366000D01*
X105376000Y-132366000D01*
X105376000Y-131332068D01*
X105376961Y-131330698D01*
X105498256Y-131122294D01*
X105502825Y-131112650D01*
X105587272Y-130886787D01*
X105590151Y-130876511D01*
X105635392Y-130639351D01*
X105636507Y-130628128D01*
X105639077Y-130360341D01*
X105638178Y-130349099D01*
X105597499Y-130111114D01*
X105594817Y-130100784D01*
X105514723Y-129873343D01*
X105510339Y-129863612D01*
X105393067Y-129652916D01*
X105387107Y-129644064D01*
X105376000Y-129630249D01*
X105376000Y-129626000D01*
X115002191Y-129626000D01*
X115076000Y-129552191D01*
X115076000Y-121718000D01*
X114912848Y-121718000D01*
X114912117Y-121708856D01*
X114870008Y-121462508D01*
X114867327Y-121452178D01*
X114784414Y-121216732D01*
X114780031Y-121207001D01*
X114774938Y-121197851D01*
X114774938Y-119950578D01*
X114821571Y-119825851D01*
X114960956Y-119965236D01*
X114977001Y-119976893D01*
X115022079Y-119999861D01*
X115063017Y-120029605D01*
X115076000Y-120036220D01*
X115080689Y-120038609D01*
X115128814Y-120054246D01*
X115173897Y-120077217D01*
X115192758Y-120083346D01*
X115242743Y-120091263D01*
X115290857Y-120106896D01*
X115310445Y-120109998D01*
X116527430Y-120109998D01*
X116547019Y-120106896D01*
X116595134Y-120091262D01*
X116645117Y-120083346D01*
X116663980Y-120077217D01*
X116709067Y-120054244D01*
X116757185Y-120038610D01*
X116774857Y-120029605D01*
X116815788Y-119999866D01*
X116860875Y-119976893D01*
X116876921Y-119965235D01*
X117026166Y-119815989D01*
X117760175Y-119081981D01*
X117771833Y-119065935D01*
X117794805Y-119020851D01*
X117824545Y-118979917D01*
X117833549Y-118962247D01*
X117849184Y-118914128D01*
X117872157Y-118869040D01*
X117878285Y-118850178D01*
X117886202Y-118800196D01*
X117901836Y-118752081D01*
X117904938Y-118732492D01*
X117904938Y-114795509D01*
X117901836Y-114775921D01*
X117886203Y-114727807D01*
X117878286Y-114677822D01*
X117872157Y-114658961D01*
X117849186Y-114613878D01*
X117833549Y-114565753D01*
X117824545Y-114548081D01*
X117794801Y-114507143D01*
X117771833Y-114462065D01*
X117760176Y-114446020D01*
X117692731Y-114378576D01*
X117314938Y-114000784D01*
X117314938Y-113600578D01*
X117399531Y-113374323D01*
X117402409Y-113364046D01*
X117449240Y-113118553D01*
X117450355Y-113107330D01*
X117453016Y-112830098D01*
X117452117Y-112818856D01*
X117410008Y-112572508D01*
X117407327Y-112562178D01*
X117324414Y-112326732D01*
X117320031Y-112317001D01*
X117314938Y-112307851D01*
X117314938Y-111060578D01*
X117399531Y-110834323D01*
X117402409Y-110824046D01*
X117449240Y-110578553D01*
X117450355Y-110567330D01*
X117453016Y-110290098D01*
X117452117Y-110278856D01*
X117410008Y-110032508D01*
X117407327Y-110022178D01*
X117324414Y-109786732D01*
X117320031Y-109777001D01*
X117314938Y-109767851D01*
X117314938Y-108520578D01*
X117399531Y-108294323D01*
X117402409Y-108284046D01*
X117449240Y-108038553D01*
X117450355Y-108027330D01*
X117453016Y-107750098D01*
X117452117Y-107738856D01*
X117410008Y-107492508D01*
X117407327Y-107482178D01*
X117324414Y-107246732D01*
X117320031Y-107237001D01*
X117314938Y-107227851D01*
X117314938Y-106551809D01*
X117241129Y-106478000D01*
X116558442Y-106478000D01*
X116380438Y-106405721D01*
X116370246Y-106402556D01*
X116126451Y-106348954D01*
X116115872Y-106347552D01*
X115866530Y-106335794D01*
X115855866Y-106336194D01*
X115608108Y-106366614D01*
X115597663Y-106368806D01*
X115358573Y-106440537D01*
X115348648Y-106444457D01*
X115281075Y-106478000D01*
X114912848Y-106478000D01*
X114912117Y-106468856D01*
X114870008Y-106222508D01*
X114867327Y-106212178D01*
X114784414Y-105976732D01*
X114780031Y-105967001D01*
X114774938Y-105957851D01*
X114774938Y-105371412D01*
X114777700Y-105368120D01*
X114878297Y-105193880D01*
X114885838Y-105173163D01*
X114919816Y-104980462D01*
X114920775Y-104969501D01*
X114920775Y-104190000D01*
X119366000Y-104190000D01*
X119366001Y-119126000D01*
G36*
X112074818Y-105462762D02*
G01*
X112249058Y-105563359D01*
X112269775Y-105570900D01*
X112462476Y-105604878D01*
X112473437Y-105605837D01*
X114014938Y-105605837D01*
X114014938Y-106610754D01*
X114016382Y-106624184D01*
X114066121Y-106852832D01*
X114074751Y-106873666D01*
X114163891Y-107012371D01*
X114175694Y-107025992D01*
X114298590Y-107132483D01*
X114313753Y-107142227D01*
X114461673Y-107209779D01*
X114478966Y-107214857D01*
X114522938Y-107221179D01*
X114522938Y-107237996D01*
X114474028Y-107343847D01*
X114470386Y-107353879D01*
X114405360Y-107594878D01*
X114403461Y-107605380D01*
X114389980Y-107748000D01*
X114018442Y-107748000D01*
X113840438Y-107675721D01*
X113830246Y-107672556D01*
X113586451Y-107618954D01*
X113575872Y-107617552D01*
X113326530Y-107605794D01*
X113315866Y-107606194D01*
X113068108Y-107636614D01*
X113057663Y-107638806D01*
X112818573Y-107710537D01*
X112808648Y-107714457D01*
X112741075Y-107748000D01*
X112056747Y-107748000D01*
X111982938Y-107821809D01*
X111982938Y-108507996D01*
X111934028Y-108613847D01*
X111930386Y-108623879D01*
X111865360Y-108864878D01*
X111863461Y-108875380D01*
X111839970Y-109123891D01*
X111839868Y-109134562D01*
X111858584Y-109383477D01*
X111860281Y-109394014D01*
X111898684Y-109548040D01*
X111694134Y-109752590D01*
X111694127Y-109752595D01*
X111537700Y-109909023D01*
X111526043Y-109925068D01*
X111503075Y-109970146D01*
X111473331Y-110011084D01*
X111464327Y-110028756D01*
X111448690Y-110076881D01*
X111425719Y-110121964D01*
X111419590Y-110140825D01*
X111411673Y-110190810D01*
X111396040Y-110238924D01*
X111392938Y-110258512D01*
X111392938Y-110313811D01*
X111392937Y-110313823D01*
X111392938Y-114711428D01*
X111392938Y-114922490D01*
X111396040Y-114942079D01*
X111411676Y-114990200D01*
X111419591Y-115040178D01*
X111425720Y-115059041D01*
X111448690Y-115104119D01*
X111464326Y-115152244D01*
X111473330Y-115169916D01*
X111503075Y-115210857D01*
X111526045Y-115255936D01*
X111537702Y-115271981D01*
X111580493Y-115314771D01*
X111982938Y-115717217D01*
X111982938Y-116127996D01*
X111934028Y-116233847D01*
X111930386Y-116243879D01*
X111865360Y-116484878D01*
X111863461Y-116495380D01*
X111839970Y-116743891D01*
X111839868Y-116754562D01*
X111858584Y-117003477D01*
X111860281Y-117014013D01*
X111920669Y-117256218D01*
X111924117Y-117266317D01*
X111982938Y-117400315D01*
X111982938Y-118086191D01*
X112056747Y-118160000D01*
X112738410Y-118160000D01*
X112781309Y-118182332D01*
X112791158Y-118186442D01*
X113028827Y-118262749D01*
X113039228Y-118265140D01*
X113286355Y-118300312D01*
X113296616Y-118300895D01*
X114064884Y-119069164D01*
X114043159Y-119116735D01*
X114038081Y-119134028D01*
X114015580Y-119290522D01*
X114014938Y-119299500D01*
X114014938Y-120446577D01*
X113840438Y-120375721D01*
X113830246Y-120372556D01*
X113586451Y-120318954D01*
X113575872Y-120317552D01*
X113326530Y-120305794D01*
X113315866Y-120306194D01*
X113068108Y-120336614D01*
X113057663Y-120338806D01*
X112818573Y-120410537D01*
X112808648Y-120414457D01*
X112741075Y-120448000D01*
X109440938Y-120448000D01*
X109440938Y-105460000D01*
X112071526Y-105460000D01*
X112074818Y-105462762D01*
G37*
X112074818Y-105462762D02*
X112249058Y-105563359D01*
X112269775Y-105570900D01*
X112462476Y-105604878D01*
X112473437Y-105605837D01*
X114014938Y-105605837D01*
X114014938Y-106610754D01*
X114016382Y-106624184D01*
X114066121Y-106852832D01*
X114074751Y-106873666D01*
X114163891Y-107012371D01*
X114175694Y-107025992D01*
X114298590Y-107132483D01*
X114313753Y-107142227D01*
X114461673Y-107209779D01*
X114478966Y-107214857D01*
X114522938Y-107221179D01*
X114522938Y-107237996D01*
X114474028Y-107343847D01*
X114470386Y-107353879D01*
X114405360Y-107594878D01*
X114403461Y-107605380D01*
X114389980Y-107748000D01*
X114018442Y-107748000D01*
X113840438Y-107675721D01*
X113830246Y-107672556D01*
X113586451Y-107618954D01*
X113575872Y-107617552D01*
X113326530Y-107605794D01*
X113315866Y-107606194D01*
X113068108Y-107636614D01*
X113057663Y-107638806D01*
X112818573Y-107710537D01*
X112808648Y-107714457D01*
X112741075Y-107748000D01*
X112056747Y-107748000D01*
X111982938Y-107821809D01*
X111982938Y-108507996D01*
X111934028Y-108613847D01*
X111930386Y-108623879D01*
X111865360Y-108864878D01*
X111863461Y-108875380D01*
X111839970Y-109123891D01*
X111839868Y-109134562D01*
X111858584Y-109383477D01*
X111860281Y-109394014D01*
X111898684Y-109548040D01*
X111694134Y-109752590D01*
X111694127Y-109752595D01*
X111537700Y-109909023D01*
X111526043Y-109925068D01*
X111503075Y-109970146D01*
X111473331Y-110011084D01*
X111464327Y-110028756D01*
X111448690Y-110076881D01*
X111425719Y-110121964D01*
X111419590Y-110140825D01*
X111411673Y-110190810D01*
X111396040Y-110238924D01*
X111392938Y-110258512D01*
X111392938Y-110313811D01*
X111392937Y-110313823D01*
X111392938Y-114711428D01*
X111392938Y-114922490D01*
X111396040Y-114942079D01*
X111411676Y-114990200D01*
X111419591Y-115040178D01*
X111425720Y-115059041D01*
X111448690Y-115104119D01*
X111464326Y-115152244D01*
X111473330Y-115169916D01*
X111503075Y-115210857D01*
X111526045Y-115255936D01*
X111537702Y-115271981D01*
X111580493Y-115314771D01*
X111982938Y-115717217D01*
X111982938Y-116127996D01*
X111934028Y-116233847D01*
X111930386Y-116243879D01*
X111865360Y-116484878D01*
X111863461Y-116495380D01*
X111839970Y-116743891D01*
X111839868Y-116754562D01*
X111858584Y-117003477D01*
X111860281Y-117014013D01*
X111920669Y-117256218D01*
X111924117Y-117266317D01*
X111982938Y-117400315D01*
X111982938Y-118086191D01*
X112056747Y-118160000D01*
X112738410Y-118160000D01*
X112781309Y-118182332D01*
X112791158Y-118186442D01*
X113028827Y-118262749D01*
X113039228Y-118265140D01*
X113286355Y-118300312D01*
X113296616Y-118300895D01*
X114064884Y-119069164D01*
X114043159Y-119116735D01*
X114038081Y-119134028D01*
X114015580Y-119290522D01*
X114014938Y-119299500D01*
X114014938Y-120446577D01*
X113840438Y-120375721D01*
X113830246Y-120372556D01*
X113586451Y-120318954D01*
X113575872Y-120317552D01*
X113326530Y-120305794D01*
X113315866Y-120306194D01*
X113068108Y-120336614D01*
X113057663Y-120338806D01*
X112818573Y-120410537D01*
X112808648Y-120414457D01*
X112741075Y-120448000D01*
X109440938Y-120448000D01*
X109440938Y-105460000D01*
X112071526Y-105460000D01*
X112074818Y-105462762D01*
M02*
