G04 #@! TF.GenerationSoftware,KiCad,Pcbnew,5.99.0-unknown-ad88874~101~ubuntu20.04.1*
G04 #@! TF.CreationDate,2020-05-19T21:28:09-04:00*
G04 #@! TF.ProjectId,L298,4c323938-2e6b-4696-9361-645f70636258,rev?*
G04 #@! TF.SameCoordinates,Original*
G04 #@! TF.FileFunction,Copper,L1,Top*
G04 #@! TF.FilePolarity,Positive*
%FSLAX46Y46*%
G04 Gerber Fmt 4.6, Leading zero omitted, Abs format (unit mm)*
G04 Created by KiCad (PCBNEW 5.99.0-unknown-ad88874~101~ubuntu20.04.1) date 2020-05-19 21:28:09*
%MOMM*%
%LPD*%
G01*
G04 APERTURE LIST*
G04 #@! TA.AperFunction,ComponentPad*
%ADD10O,1.800000X1.800000*%
G04 #@! TD*
G04 #@! TA.AperFunction,ComponentPad*
%ADD11R,1.800000X1.800000*%
G04 #@! TD*
G04 #@! TA.AperFunction,ComponentPad*
%ADD12R,1.700000X1.700000*%
G04 #@! TD*
G04 #@! TA.AperFunction,ComponentPad*
%ADD13O,1.700000X1.700000*%
G04 #@! TD*
G04 #@! TA.AperFunction,ViaPad*
%ADD14C,0.800000*%
G04 #@! TD*
G04 #@! TA.AperFunction,Conductor*
%ADD15C,0.250000*%
G04 #@! TD*
G04 #@! TA.AperFunction,Conductor*
%ADD16C,0.254000*%
G04 #@! TD*
G04 APERTURE END LIST*
D10*
X113378938Y-121844000D03*
X115918938Y-120574000D03*
X113378938Y-119304000D03*
X115918938Y-118034000D03*
X113378938Y-116764000D03*
X115918938Y-115494000D03*
X113378938Y-114224000D03*
X115918938Y-112954000D03*
X113378938Y-111684000D03*
X115918938Y-110414000D03*
X113378938Y-109144000D03*
X115918938Y-107874000D03*
X113378938Y-106604000D03*
X115918938Y-105334000D03*
D11*
X113378938Y-104064000D03*
D12*
X106695000Y-130480000D03*
D13*
X104155000Y-130480000D03*
X106695000Y-127940000D03*
X104155000Y-127940000D03*
X106695000Y-125400000D03*
X104155000Y-125400000D03*
X106695000Y-122860000D03*
X104155000Y-122860000D03*
X106695000Y-120320000D03*
X104155000Y-120320000D03*
X106695000Y-117780000D03*
X104155000Y-117780000D03*
X106695000Y-115240000D03*
X104155000Y-115240000D03*
X106695000Y-112700000D03*
X104155000Y-112700000D03*
X106695000Y-110160000D03*
X104155000Y-110160000D03*
X106695000Y-107620000D03*
X104155000Y-107620000D03*
X106695000Y-105080000D03*
X104155000Y-105080000D03*
X106695000Y-102540000D03*
X104155000Y-102540000D03*
G04 #@! TA.AperFunction,SMDPad,CuDef*
G36*
X109825000Y-130159999D02*
G01*
X109825001Y-129060000D01*
X110400001Y-129060000D01*
X110400001Y-129560000D01*
X110900000Y-129560001D01*
X110900000Y-129060000D01*
X111475000Y-129060001D01*
X111475000Y-130160000D01*
X109825000Y-130159999D01*
G37*
G04 #@! TD.AperFunction*
G04 #@! TA.AperFunction,SMDPad,CuDef*
G36*
X111475000Y-125660001D02*
G01*
X111475000Y-126760000D01*
X110899999Y-126760000D01*
X110899999Y-126260000D01*
X110400000Y-126260000D01*
X110400000Y-126760000D01*
X109825000Y-126760000D01*
X109825000Y-125660000D01*
X111475000Y-125660001D01*
G37*
G04 #@! TD.AperFunction*
G04 #@! TA.AperFunction,SMDPad,CuDef*
G36*
X112325000Y-130159999D02*
G01*
X112325001Y-129060000D01*
X112900001Y-129060000D01*
X112900001Y-129560000D01*
X113400000Y-129560001D01*
X113400000Y-129060000D01*
X113975000Y-129060001D01*
X113975000Y-130160000D01*
X112325000Y-130159999D01*
G37*
G04 #@! TD.AperFunction*
G04 #@! TA.AperFunction,SMDPad,CuDef*
G36*
X113975000Y-125660001D02*
G01*
X113975000Y-126760000D01*
X113399999Y-126760000D01*
X113399999Y-126260000D01*
X112900000Y-126260000D01*
X112900000Y-126760000D01*
X112325000Y-126760000D01*
X112325000Y-125660000D01*
X113975000Y-125660001D01*
G37*
G04 #@! TD.AperFunction*
G04 #@! TA.AperFunction,SMDPad,CuDef*
G36*
X114825000Y-130159999D02*
G01*
X114825001Y-129060000D01*
X115400001Y-129060000D01*
X115400001Y-129560000D01*
X115900000Y-129560001D01*
X115900000Y-129060000D01*
X116475000Y-129060001D01*
X116475000Y-130160000D01*
X114825000Y-130159999D01*
G37*
G04 #@! TD.AperFunction*
G04 #@! TA.AperFunction,SMDPad,CuDef*
G36*
X116475000Y-125660001D02*
G01*
X116475000Y-126760000D01*
X115899999Y-126760000D01*
X115899999Y-126260000D01*
X115400000Y-126260000D01*
X115400000Y-126760000D01*
X114825000Y-126760000D01*
X114825000Y-125660000D01*
X116475000Y-125660001D01*
G37*
G04 #@! TD.AperFunction*
G04 #@! TA.AperFunction,SMDPad,CuDef*
G36*
X117325000Y-130159999D02*
G01*
X117325001Y-129060000D01*
X117900001Y-129060000D01*
X117900001Y-129560000D01*
X118400000Y-129560001D01*
X118400000Y-129060000D01*
X118975000Y-129060001D01*
X118975000Y-130160000D01*
X117325000Y-130159999D01*
G37*
G04 #@! TD.AperFunction*
G04 #@! TA.AperFunction,SMDPad,CuDef*
G36*
X118975000Y-125660001D02*
G01*
X118975000Y-126760000D01*
X118399999Y-126760000D01*
X118399999Y-126260000D01*
X117900000Y-126260000D01*
X117900000Y-126760000D01*
X117325000Y-126760000D01*
X117325000Y-125660000D01*
X118975000Y-125660001D01*
G37*
G04 #@! TD.AperFunction*
G04 #@! TA.AperFunction,SMDPad,CuDef*
G36*
G01*
X110615500Y-104815000D02*
X110140500Y-104815000D01*
G75*
G02*
X109903000Y-104577500I0J237500D01*
G01*
X109903000Y-104002500D01*
G75*
G02*
X110140500Y-103765000I237500J0D01*
G01*
X110615500Y-103765000D01*
G75*
G02*
X110853000Y-104002500I0J-237500D01*
G01*
X110853000Y-104577500D01*
G75*
G02*
X110615500Y-104815000I-237500J0D01*
G01*
G37*
G04 #@! TD.AperFunction*
G04 #@! TA.AperFunction,SMDPad,CuDef*
G36*
G01*
X110615500Y-103065000D02*
X110140500Y-103065000D01*
G75*
G02*
X109903000Y-102827500I0J237500D01*
G01*
X109903000Y-102252500D01*
G75*
G02*
X110140500Y-102015000I237500J0D01*
G01*
X110615500Y-102015000D01*
G75*
G02*
X110853000Y-102252500I0J-237500D01*
G01*
X110853000Y-102827500D01*
G75*
G02*
X110615500Y-103065000I-237500J0D01*
G01*
G37*
G04 #@! TD.AperFunction*
G04 #@! TA.AperFunction,SMDPad,CuDef*
G36*
G01*
X110887500Y-110135000D02*
X110412500Y-110135000D01*
G75*
G02*
X110175000Y-109897500I0J237500D01*
G01*
X110175000Y-109322500D01*
G75*
G02*
X110412500Y-109085000I237500J0D01*
G01*
X110887500Y-109085000D01*
G75*
G02*
X111125000Y-109322500I0J-237500D01*
G01*
X111125000Y-109897500D01*
G75*
G02*
X110887500Y-110135000I-237500J0D01*
G01*
G37*
G04 #@! TD.AperFunction*
G04 #@! TA.AperFunction,SMDPad,CuDef*
G36*
G01*
X110887500Y-111885000D02*
X110412500Y-111885000D01*
G75*
G02*
X110175000Y-111647500I0J237500D01*
G01*
X110175000Y-111072500D01*
G75*
G02*
X110412500Y-110835000I237500J0D01*
G01*
X110887500Y-110835000D01*
G75*
G02*
X111125000Y-111072500I0J-237500D01*
G01*
X111125000Y-111647500D01*
G75*
G02*
X110887500Y-111885000I-237500J0D01*
G01*
G37*
G04 #@! TD.AperFunction*
D14*
X110886000Y-120066000D03*
X111394000Y-119050000D03*
X115712000Y-127686000D03*
X118252000Y-127686000D03*
D15*
X115918938Y-118034000D02*
X112410000Y-118034000D01*
X107838000Y-122860000D02*
X106695000Y-122860000D01*
X109870000Y-120828000D02*
X107838000Y-122860000D01*
X111394000Y-118034000D02*
X109870000Y-119558000D01*
X115918938Y-118034000D02*
X111394000Y-118034000D01*
X109870000Y-119558000D02*
X109870000Y-120828000D01*
X108009936Y-120320000D02*
X106695000Y-120320000D01*
X115918938Y-115494000D02*
X112835936Y-115494000D01*
X112153937Y-116175999D02*
X111733968Y-116595968D01*
X111733968Y-116595968D02*
X108009936Y-120320000D01*
X112835936Y-115494000D02*
X111733968Y-116595968D01*
X114603939Y-114179001D02*
X115918938Y-115494000D01*
X114603939Y-112909001D02*
X114603939Y-114179001D01*
X113378938Y-111684000D02*
X114603939Y-112909001D01*
X105330001Y-120795999D02*
X105298000Y-120828000D01*
X105330001Y-119945997D02*
X105330001Y-120795999D01*
X106320997Y-118955001D02*
X105330001Y-119945997D01*
X107870001Y-116604999D02*
X107870001Y-115379935D01*
X112835936Y-110414000D02*
X115918938Y-110414000D01*
X106695000Y-117780000D02*
X107870001Y-116604999D01*
X105330001Y-121684999D02*
X104155000Y-122860000D01*
X105330001Y-120795999D02*
X105330001Y-121684999D01*
X117626990Y-125192990D02*
X118252000Y-125818000D01*
X113797010Y-125192990D02*
X117626990Y-125192990D01*
X113172000Y-125818000D02*
X113797010Y-125192990D01*
X117626990Y-125192990D02*
X117626990Y-124501010D01*
X117626990Y-124501010D02*
X119485001Y-122642999D01*
X119485001Y-122642999D02*
X119485001Y-108599001D01*
X119485001Y-108599001D02*
X119268000Y-108382000D01*
X105330001Y-126575001D02*
X104155000Y-125400000D01*
X105330001Y-128480001D02*
X105330001Y-126575001D01*
X106154999Y-129304999D02*
X105330001Y-128480001D01*
X110218999Y-129304999D02*
X106154999Y-129304999D01*
X110632000Y-129718000D02*
X110218999Y-129304999D01*
X110786000Y-114224000D02*
X113378938Y-114224000D01*
X107304999Y-118955001D02*
X108900000Y-117360000D01*
X108900000Y-116110000D02*
X110786000Y-114224000D01*
X107304999Y-118955001D02*
X106320997Y-118955001D01*
X108900000Y-117360000D02*
X108900000Y-116110000D01*
X107870001Y-112822213D02*
X107870001Y-115379935D01*
X110232204Y-110460010D02*
X107870001Y-112822213D01*
X112789926Y-110460010D02*
X110232204Y-110460010D01*
X112835936Y-110414000D02*
X112789926Y-110460010D01*
X110650000Y-114088000D02*
X110786000Y-114224000D01*
X110650000Y-111360000D02*
X110650000Y-114088000D01*
G36*
X114574000Y-106156430D02*
G01*
X114530321Y-106042642D01*
X114525211Y-106032280D01*
X114408741Y-105842219D01*
X114401829Y-105832961D01*
X114252674Y-105667309D01*
X114244190Y-105659466D01*
X114067344Y-105523768D01*
X114057573Y-105517603D01*
X113858960Y-105416405D01*
X113848229Y-105412123D01*
X113634500Y-105348814D01*
X113623169Y-105346560D01*
X113401482Y-105323259D01*
X113389929Y-105323108D01*
X113167707Y-105340598D01*
X113156321Y-105342554D01*
X112941007Y-105400246D01*
X112930168Y-105404245D01*
X112728973Y-105500210D01*
X112719044Y-105506118D01*
X112538707Y-105637140D01*
X112530021Y-105644758D01*
X112376581Y-105806450D01*
X112369429Y-105815523D01*
X112248024Y-106002470D01*
X112242645Y-106012695D01*
X112157342Y-106218635D01*
X112153916Y-106229668D01*
X112107569Y-106447706D01*
X112106211Y-106459180D01*
X112100377Y-106682013D01*
X112101133Y-106693541D01*
X112136003Y-106913705D01*
X112138847Y-106924903D01*
X112213255Y-107135026D01*
X112218092Y-107145518D01*
X112329546Y-107338563D01*
X112336214Y-107347998D01*
X112480983Y-107517499D01*
X112489258Y-107525561D01*
X112662490Y-107665842D01*
X112672096Y-107672261D01*
X112867993Y-107778623D01*
X112878608Y-107783184D01*
X113090607Y-107852066D01*
X113101875Y-107854616D01*
X113250018Y-107874120D01*
X113167707Y-107880598D01*
X113156321Y-107882554D01*
X112941007Y-107940246D01*
X112930168Y-107944245D01*
X112728973Y-108040210D01*
X112719044Y-108046118D01*
X112538707Y-108177140D01*
X112530021Y-108184758D01*
X112376581Y-108346450D01*
X112369429Y-108355523D01*
X112248024Y-108542470D01*
X112242645Y-108552695D01*
X112157342Y-108758635D01*
X112153916Y-108769668D01*
X112107569Y-108987706D01*
X112106211Y-108999180D01*
X112100377Y-109222013D01*
X112101133Y-109233541D01*
X112136003Y-109453705D01*
X112138847Y-109464903D01*
X112213255Y-109675026D01*
X112218092Y-109685518D01*
X112329546Y-109878563D01*
X112336214Y-109887998D01*
X112395156Y-109957010D01*
X110281741Y-109957010D01*
X110244614Y-109949625D01*
X110219794Y-109949625D01*
X110170496Y-109959431D01*
X110048353Y-109983727D01*
X110025422Y-109993225D01*
X109880082Y-110090339D01*
X109862532Y-110107889D01*
X109841500Y-110139366D01*
X107805571Y-112175295D01*
X107792129Y-112141687D01*
X107786637Y-112131024D01*
X107666760Y-111944298D01*
X107659351Y-111934866D01*
X107506329Y-111774176D01*
X107497270Y-111766315D01*
X107316622Y-111637461D01*
X107306240Y-111631455D01*
X107104487Y-111539085D01*
X107093156Y-111535150D01*
X106877575Y-111482596D01*
X106865705Y-111480875D01*
X106644075Y-111470036D01*
X106632094Y-111470591D01*
X106412414Y-111501856D01*
X106400754Y-111504666D01*
X106190948Y-111576908D01*
X106180029Y-111581872D01*
X105987671Y-111692483D01*
X105977888Y-111699423D01*
X105809915Y-111844413D01*
X105801621Y-111853077D01*
X105664095Y-112027214D01*
X105657589Y-112037290D01*
X105555473Y-112234292D01*
X105550990Y-112245417D01*
X105487968Y-112458173D01*
X105485670Y-112469945D01*
X105464017Y-112690780D01*
X105463986Y-112702774D01*
X105484482Y-112923720D01*
X105486719Y-112935504D01*
X105548626Y-113148587D01*
X105553051Y-113159735D01*
X105654133Y-113357268D01*
X105660587Y-113367379D01*
X105797199Y-113542233D01*
X105805448Y-113550941D01*
X105972659Y-113696808D01*
X105982405Y-113703799D01*
X106174183Y-113815416D01*
X106185075Y-113820438D01*
X106394498Y-113893777D01*
X106406144Y-113896648D01*
X106625658Y-113929063D01*
X106637637Y-113929681D01*
X106859320Y-113920001D01*
X106871199Y-113918343D01*
X107087051Y-113866919D01*
X107098402Y-113863044D01*
X107300638Y-113771731D01*
X107311051Y-113765779D01*
X107367001Y-113726310D01*
X107367002Y-114213396D01*
X107316622Y-114177461D01*
X107306240Y-114171455D01*
X107104487Y-114079085D01*
X107093156Y-114075150D01*
X106877575Y-114022596D01*
X106865705Y-114020875D01*
X106644075Y-114010036D01*
X106632094Y-114010591D01*
X106412414Y-114041856D01*
X106400754Y-114044666D01*
X106190948Y-114116908D01*
X106180029Y-114121872D01*
X105987671Y-114232483D01*
X105977888Y-114239423D01*
X105809915Y-114384413D01*
X105801621Y-114393077D01*
X105664095Y-114567214D01*
X105657589Y-114577290D01*
X105555473Y-114774292D01*
X105550990Y-114785417D01*
X105487968Y-114998173D01*
X105485670Y-115009945D01*
X105464017Y-115230780D01*
X105463986Y-115242774D01*
X105484482Y-115463720D01*
X105486719Y-115475504D01*
X105548626Y-115688587D01*
X105553051Y-115699735D01*
X105654133Y-115897268D01*
X105660587Y-115907379D01*
X105797199Y-116082233D01*
X105805448Y-116090941D01*
X105972659Y-116236808D01*
X105982405Y-116243799D01*
X106174183Y-116355416D01*
X106185075Y-116360438D01*
X106394498Y-116433777D01*
X106406144Y-116436648D01*
X106625658Y-116469063D01*
X106637637Y-116469681D01*
X106859320Y-116460001D01*
X106871199Y-116458343D01*
X107087051Y-116406919D01*
X107098402Y-116403044D01*
X107300638Y-116311731D01*
X107311051Y-116305779D01*
X107367001Y-116266310D01*
X107367001Y-116396650D01*
X107131979Y-116631672D01*
X107104487Y-116619085D01*
X107093156Y-116615150D01*
X106877575Y-116562596D01*
X106865705Y-116560875D01*
X106644075Y-116550036D01*
X106632094Y-116550591D01*
X106412414Y-116581856D01*
X106400754Y-116584666D01*
X106190948Y-116656908D01*
X106180029Y-116661872D01*
X105987671Y-116772483D01*
X105977888Y-116779423D01*
X105809915Y-116924413D01*
X105801621Y-116933077D01*
X105664095Y-117107214D01*
X105657589Y-117117290D01*
X105555473Y-117314292D01*
X105550990Y-117325417D01*
X105487968Y-117538173D01*
X105485670Y-117549945D01*
X105464017Y-117770780D01*
X105463986Y-117782774D01*
X105484482Y-118003720D01*
X105486719Y-118015504D01*
X105548626Y-118228587D01*
X105553051Y-118239735D01*
X105654133Y-118437268D01*
X105660587Y-118447379D01*
X105797199Y-118622233D01*
X105805448Y-118630941D01*
X105873949Y-118690699D01*
X105009354Y-119555295D01*
X104977879Y-119576326D01*
X104960329Y-119593876D01*
X104863216Y-119739217D01*
X104853718Y-119762147D01*
X104828214Y-119890361D01*
X104828213Y-119890373D01*
X104819617Y-119933587D01*
X104819617Y-119958406D01*
X104827001Y-119995529D01*
X104827002Y-120631391D01*
X104821717Y-120644150D01*
X104787616Y-120815590D01*
X104787616Y-120840410D01*
X104821717Y-121011849D01*
X104827001Y-121024606D01*
X104827002Y-121476649D01*
X104591979Y-121711672D01*
X104564487Y-121699085D01*
X104553156Y-121695150D01*
X104337575Y-121642596D01*
X104325705Y-121640875D01*
X104104075Y-121630036D01*
X104092094Y-121630591D01*
X103872414Y-121661856D01*
X103860754Y-121664666D01*
X103650948Y-121736908D01*
X103640029Y-121741872D01*
X103447671Y-121852483D01*
X103437888Y-121859423D01*
X103269915Y-122004413D01*
X103261621Y-122013077D01*
X103124095Y-122187214D01*
X103117589Y-122197290D01*
X103015473Y-122394292D01*
X103010990Y-122405417D01*
X102947968Y-122618173D01*
X102945670Y-122629945D01*
X102924017Y-122850780D01*
X102923986Y-122862774D01*
X102944482Y-123083720D01*
X102946719Y-123095504D01*
X103008626Y-123308587D01*
X103013051Y-123319735D01*
X103114133Y-123517268D01*
X103120587Y-123527379D01*
X103257199Y-123702233D01*
X103265448Y-123710941D01*
X103432659Y-123856808D01*
X103442405Y-123863799D01*
X103634183Y-123975416D01*
X103645075Y-123980438D01*
X103854498Y-124053777D01*
X103866144Y-124056648D01*
X104085658Y-124089063D01*
X104097637Y-124089681D01*
X104319320Y-124080001D01*
X104331199Y-124078343D01*
X104547051Y-124026919D01*
X104558402Y-124023044D01*
X104760638Y-123931731D01*
X104771051Y-123925779D01*
X104952370Y-123797872D01*
X104961470Y-123790059D01*
X105115332Y-123630174D01*
X105122790Y-123620780D01*
X105243643Y-123434684D01*
X105249190Y-123424050D01*
X105332672Y-123218458D01*
X105336108Y-123206966D01*
X105379224Y-122989218D01*
X105380427Y-122977118D01*
X105381023Y-122749300D01*
X105379884Y-122737194D01*
X105337910Y-122519222D01*
X105334533Y-122507713D01*
X105301421Y-122424928D01*
X105650648Y-122075701D01*
X105682122Y-122054671D01*
X105699672Y-122037121D01*
X105742167Y-121973524D01*
X105796786Y-121891780D01*
X105806284Y-121868849D01*
X105817923Y-121810336D01*
X105830580Y-121746703D01*
X105840385Y-121697410D01*
X105840385Y-121672591D01*
X105833001Y-121635468D01*
X105833001Y-121194977D01*
X105972659Y-121316808D01*
X105982405Y-121323799D01*
X106174183Y-121435416D01*
X106185075Y-121440438D01*
X106394498Y-121513777D01*
X106406144Y-121516648D01*
X106625658Y-121549063D01*
X106637637Y-121549681D01*
X106859320Y-121540001D01*
X106871199Y-121538343D01*
X107087051Y-121486919D01*
X107098402Y-121483044D01*
X107300638Y-121391731D01*
X107311051Y-121385779D01*
X107492370Y-121257872D01*
X107501470Y-121250059D01*
X107655332Y-121090174D01*
X107662790Y-121080780D01*
X107783643Y-120894684D01*
X107789191Y-120884049D01*
X107813980Y-120823000D01*
X107960404Y-120823000D01*
X107966000Y-120824113D01*
X107966000Y-122020652D01*
X107751054Y-122235598D01*
X107666760Y-122104298D01*
X107659351Y-122094866D01*
X107506329Y-121934176D01*
X107497270Y-121926315D01*
X107316622Y-121797461D01*
X107306240Y-121791455D01*
X107104487Y-121699085D01*
X107093156Y-121695150D01*
X106877575Y-121642596D01*
X106865705Y-121640875D01*
X106644075Y-121630036D01*
X106632094Y-121630591D01*
X106412414Y-121661856D01*
X106400754Y-121664666D01*
X106190948Y-121736908D01*
X106180029Y-121741872D01*
X105987671Y-121852483D01*
X105977888Y-121859423D01*
X105809915Y-122004413D01*
X105801621Y-122013077D01*
X105664095Y-122187214D01*
X105657589Y-122197290D01*
X105555473Y-122394292D01*
X105550990Y-122405417D01*
X105487968Y-122618173D01*
X105485670Y-122629945D01*
X105464017Y-122850780D01*
X105463986Y-122862774D01*
X105484482Y-123083720D01*
X105486719Y-123095504D01*
X105548626Y-123308587D01*
X105553051Y-123319735D01*
X105654133Y-123517268D01*
X105660587Y-123527379D01*
X105797199Y-123702233D01*
X105805448Y-123710941D01*
X105972659Y-123856808D01*
X105982405Y-123863799D01*
X106174183Y-123975416D01*
X106185075Y-123980438D01*
X106394498Y-124053777D01*
X106406144Y-124056648D01*
X106625658Y-124089063D01*
X106637637Y-124089681D01*
X106859320Y-124080001D01*
X106871199Y-124078343D01*
X107087051Y-124026919D01*
X107098402Y-124023044D01*
X107300638Y-123931731D01*
X107311051Y-123925779D01*
X107492370Y-123797872D01*
X107501470Y-123790059D01*
X107655332Y-123630174D01*
X107662790Y-123620780D01*
X107783643Y-123434684D01*
X107789191Y-123424049D01*
X107812073Y-123367695D01*
X107825590Y-123370384D01*
X107850410Y-123370384D01*
X107893623Y-123361788D01*
X107893637Y-123361787D01*
X107966000Y-123347393D01*
X107966000Y-126036000D01*
X105291246Y-126036000D01*
X105277816Y-126037444D01*
X105049168Y-126087183D01*
X105028334Y-126095813D01*
X104889629Y-126184953D01*
X104876008Y-126196756D01*
X104769517Y-126319652D01*
X104759773Y-126334815D01*
X104692221Y-126482735D01*
X104687143Y-126500028D01*
X104664642Y-126656522D01*
X104664000Y-126665500D01*
X104664000Y-126824646D01*
X104564487Y-126779085D01*
X104553156Y-126775150D01*
X104337575Y-126722596D01*
X104325705Y-126720875D01*
X104104075Y-126710036D01*
X104092094Y-126710591D01*
X103872414Y-126741856D01*
X103860754Y-126744666D01*
X103650948Y-126816908D01*
X103640029Y-126821872D01*
X103447671Y-126932483D01*
X103437888Y-126939423D01*
X103269915Y-127084413D01*
X103261621Y-127093077D01*
X103124095Y-127267214D01*
X103117589Y-127277290D01*
X103015473Y-127474292D01*
X103010990Y-127485417D01*
X102947968Y-127698173D01*
X102945670Y-127709945D01*
X102924017Y-127930780D01*
X102923986Y-127942774D01*
X102944482Y-128163720D01*
X102946719Y-128175504D01*
X103008626Y-128388587D01*
X103013051Y-128399735D01*
X103114133Y-128597268D01*
X103120587Y-128607379D01*
X103257199Y-128782233D01*
X103265448Y-128790941D01*
X103432659Y-128936808D01*
X103442405Y-128943799D01*
X103634183Y-129055416D01*
X103645075Y-129060438D01*
X103854498Y-129133777D01*
X103866144Y-129136648D01*
X104085658Y-129169063D01*
X104097637Y-129169681D01*
X104319320Y-129160001D01*
X104331199Y-129158343D01*
X104547051Y-129106919D01*
X104558402Y-129103044D01*
X104664000Y-129055365D01*
X104664000Y-129216754D01*
X104665444Y-129230184D01*
X104698089Y-129380253D01*
X104564487Y-129319085D01*
X104553156Y-129315150D01*
X104337575Y-129262596D01*
X104325705Y-129260875D01*
X104104075Y-129250036D01*
X104092094Y-129250591D01*
X103872414Y-129281856D01*
X103860754Y-129284666D01*
X103650948Y-129356908D01*
X103640029Y-129361872D01*
X103447671Y-129472483D01*
X103437888Y-129479423D01*
X103269915Y-129624413D01*
X103261621Y-129633077D01*
X103124095Y-129807214D01*
X103117589Y-129817290D01*
X103015473Y-130014292D01*
X103010990Y-130025417D01*
X102947968Y-130238173D01*
X102945670Y-130249945D01*
X102924017Y-130470780D01*
X102923986Y-130482774D01*
X102944482Y-130703720D01*
X102946719Y-130715504D01*
X103008626Y-130928587D01*
X103013051Y-130939735D01*
X103114133Y-131137268D01*
X103120587Y-131147379D01*
X103257199Y-131322233D01*
X103265448Y-131330941D01*
X103432659Y-131476808D01*
X103442405Y-131483799D01*
X103634183Y-131595416D01*
X103645075Y-131600438D01*
X103854498Y-131673777D01*
X103866144Y-131676648D01*
X104085658Y-131709063D01*
X104097637Y-131709681D01*
X104319320Y-131700001D01*
X104331199Y-131698343D01*
X104547051Y-131646919D01*
X104558402Y-131643044D01*
X104760638Y-131551731D01*
X104771051Y-131545779D01*
X104952370Y-131417872D01*
X104961470Y-131410059D01*
X105115332Y-131250174D01*
X105122790Y-131240780D01*
X105243643Y-131054684D01*
X105249190Y-131044050D01*
X105332672Y-130838458D01*
X105336108Y-130826966D01*
X105379224Y-130609218D01*
X105380427Y-130597118D01*
X105381023Y-130369300D01*
X105379884Y-130357194D01*
X105337910Y-130139222D01*
X105334533Y-130127713D01*
X105252129Y-129921687D01*
X105246637Y-129911024D01*
X105194925Y-129830476D01*
X105284522Y-129843358D01*
X105293500Y-129844000D01*
X105464102Y-129844000D01*
X105464102Y-131336190D01*
X105465315Y-131348510D01*
X105488347Y-131464298D01*
X105497845Y-131487228D01*
X105566889Y-131590560D01*
X105584440Y-131608111D01*
X105687772Y-131677155D01*
X105710702Y-131686653D01*
X105826490Y-131709685D01*
X105838810Y-131710898D01*
X107551190Y-131710898D01*
X107563510Y-131709685D01*
X107679298Y-131686653D01*
X107702228Y-131677155D01*
X107805560Y-131608111D01*
X107823111Y-131590560D01*
X107892155Y-131487228D01*
X107901653Y-131464298D01*
X107924685Y-131348510D01*
X107925898Y-131336190D01*
X107925898Y-129844000D01*
X109368754Y-129844000D01*
X109382184Y-129842556D01*
X109610832Y-129792817D01*
X109631666Y-129784187D01*
X109770371Y-129695047D01*
X109783992Y-129683244D01*
X109890483Y-129560348D01*
X109900227Y-129545185D01*
X109967779Y-129397265D01*
X109972857Y-129379972D01*
X109995358Y-129223478D01*
X109996000Y-129214500D01*
X109996000Y-129082000D01*
X111268000Y-129082000D01*
X111268000Y-130232754D01*
X111269444Y-130246184D01*
X111319183Y-130474832D01*
X111327813Y-130495666D01*
X111416953Y-130634371D01*
X111428756Y-130647992D01*
X111551652Y-130754483D01*
X111566815Y-130764227D01*
X111714735Y-130831779D01*
X111732028Y-130836857D01*
X111888522Y-130859358D01*
X111897500Y-130860000D01*
X114194754Y-130860000D01*
X114208184Y-130858556D01*
X114436832Y-130808817D01*
X114457666Y-130800187D01*
X114596371Y-130711047D01*
X114609992Y-130699244D01*
X114716483Y-130576348D01*
X114726227Y-130561185D01*
X114793779Y-130413265D01*
X114798857Y-130395972D01*
X114821358Y-130239478D01*
X114822000Y-130230500D01*
X114822000Y-128828000D01*
X116348000Y-128828000D01*
X116348000Y-130232754D01*
X116349444Y-130246184D01*
X116399183Y-130474832D01*
X116407813Y-130495666D01*
X116496953Y-130634371D01*
X116508756Y-130647992D01*
X116631652Y-130754483D01*
X116646815Y-130764227D01*
X116794735Y-130831779D01*
X116812028Y-130836857D01*
X116968522Y-130859358D01*
X116977500Y-130860000D01*
X119274754Y-130860000D01*
X119288184Y-130858556D01*
X119516832Y-130808817D01*
X119537666Y-130800187D01*
X119624000Y-130744704D01*
X119624000Y-131695985D01*
X119623464Y-131697812D01*
X119621160Y-131709975D01*
X119603877Y-131903639D01*
X119563176Y-132052415D01*
X119496768Y-132191643D01*
X119406764Y-132316896D01*
X119295988Y-132424244D01*
X119167965Y-132510273D01*
X119026727Y-132572273D01*
X118873812Y-132608983D01*
X118715929Y-132620579D01*
X118703731Y-132622691D01*
X118698995Y-132624000D01*
X101054015Y-132624000D01*
X101052188Y-132623464D01*
X101040025Y-132621160D01*
X100846361Y-132603877D01*
X100697585Y-132563176D01*
X100558357Y-132496768D01*
X100433104Y-132406764D01*
X100325756Y-132295988D01*
X100239727Y-132167965D01*
X100177727Y-132026727D01*
X100141017Y-131873812D01*
X100129421Y-131715929D01*
X100127309Y-131703731D01*
X100126000Y-131698995D01*
X100126000Y-110162774D01*
X105463986Y-110162774D01*
X105484482Y-110383720D01*
X105486719Y-110395504D01*
X105548626Y-110608587D01*
X105553051Y-110619735D01*
X105654133Y-110817268D01*
X105660587Y-110827379D01*
X105797199Y-111002233D01*
X105805448Y-111010941D01*
X105972659Y-111156808D01*
X105982405Y-111163799D01*
X106174183Y-111275416D01*
X106185075Y-111280438D01*
X106394498Y-111353777D01*
X106406144Y-111356648D01*
X106625658Y-111389063D01*
X106637637Y-111389681D01*
X106859320Y-111380001D01*
X106871199Y-111378343D01*
X107087051Y-111326919D01*
X107098402Y-111323044D01*
X107300638Y-111231731D01*
X107311051Y-111225779D01*
X107492370Y-111097872D01*
X107501470Y-111090059D01*
X107655332Y-110930174D01*
X107662790Y-110920780D01*
X107783643Y-110734684D01*
X107789190Y-110724050D01*
X107872672Y-110518458D01*
X107876108Y-110506966D01*
X107919224Y-110289218D01*
X107920427Y-110277118D01*
X107921023Y-110049300D01*
X107919884Y-110037194D01*
X107877910Y-109819222D01*
X107874533Y-109807713D01*
X107792129Y-109601687D01*
X107786637Y-109591024D01*
X107666760Y-109404298D01*
X107659351Y-109394866D01*
X107506329Y-109234176D01*
X107497270Y-109226315D01*
X107316622Y-109097461D01*
X107306240Y-109091455D01*
X107104487Y-108999085D01*
X107093156Y-108995150D01*
X106877575Y-108942596D01*
X106865705Y-108940875D01*
X106644075Y-108930036D01*
X106632094Y-108930591D01*
X106412414Y-108961856D01*
X106400754Y-108964666D01*
X106190948Y-109036908D01*
X106180029Y-109041872D01*
X105987671Y-109152483D01*
X105977888Y-109159423D01*
X105809915Y-109304413D01*
X105801621Y-109313077D01*
X105664095Y-109487214D01*
X105657589Y-109497290D01*
X105555473Y-109694292D01*
X105550990Y-109705417D01*
X105487968Y-109918173D01*
X105485670Y-109929945D01*
X105464017Y-110150780D01*
X105463986Y-110162774D01*
X100126000Y-110162774D01*
X100126000Y-106472000D01*
X108352190Y-106472000D01*
X108364510Y-106470787D01*
X108478424Y-106448128D01*
X108501354Y-106438630D01*
X108603097Y-106370648D01*
X108620648Y-106353097D01*
X108688630Y-106251354D01*
X108698128Y-106228424D01*
X108720787Y-106114510D01*
X108722000Y-106102190D01*
X108722000Y-103932000D01*
X114574000Y-103932000D01*
X114574000Y-106156430D01*
G37*
D16*
X114574000Y-106156430D02*
X114530321Y-106042642D01*
X114525211Y-106032280D01*
X114408741Y-105842219D01*
X114401829Y-105832961D01*
X114252674Y-105667309D01*
X114244190Y-105659466D01*
X114067344Y-105523768D01*
X114057573Y-105517603D01*
X113858960Y-105416405D01*
X113848229Y-105412123D01*
X113634500Y-105348814D01*
X113623169Y-105346560D01*
X113401482Y-105323259D01*
X113389929Y-105323108D01*
X113167707Y-105340598D01*
X113156321Y-105342554D01*
X112941007Y-105400246D01*
X112930168Y-105404245D01*
X112728973Y-105500210D01*
X112719044Y-105506118D01*
X112538707Y-105637140D01*
X112530021Y-105644758D01*
X112376581Y-105806450D01*
X112369429Y-105815523D01*
X112248024Y-106002470D01*
X112242645Y-106012695D01*
X112157342Y-106218635D01*
X112153916Y-106229668D01*
X112107569Y-106447706D01*
X112106211Y-106459180D01*
X112100377Y-106682013D01*
X112101133Y-106693541D01*
X112136003Y-106913705D01*
X112138847Y-106924903D01*
X112213255Y-107135026D01*
X112218092Y-107145518D01*
X112329546Y-107338563D01*
X112336214Y-107347998D01*
X112480983Y-107517499D01*
X112489258Y-107525561D01*
X112662490Y-107665842D01*
X112672096Y-107672261D01*
X112867993Y-107778623D01*
X112878608Y-107783184D01*
X113090607Y-107852066D01*
X113101875Y-107854616D01*
X113250018Y-107874120D01*
X113167707Y-107880598D01*
X113156321Y-107882554D01*
X112941007Y-107940246D01*
X112930168Y-107944245D01*
X112728973Y-108040210D01*
X112719044Y-108046118D01*
X112538707Y-108177140D01*
X112530021Y-108184758D01*
X112376581Y-108346450D01*
X112369429Y-108355523D01*
X112248024Y-108542470D01*
X112242645Y-108552695D01*
X112157342Y-108758635D01*
X112153916Y-108769668D01*
X112107569Y-108987706D01*
X112106211Y-108999180D01*
X112100377Y-109222013D01*
X112101133Y-109233541D01*
X112136003Y-109453705D01*
X112138847Y-109464903D01*
X112213255Y-109675026D01*
X112218092Y-109685518D01*
X112329546Y-109878563D01*
X112336214Y-109887998D01*
X112395156Y-109957010D01*
X110281741Y-109957010D01*
X110244614Y-109949625D01*
X110219794Y-109949625D01*
X110170496Y-109959431D01*
X110048353Y-109983727D01*
X110025422Y-109993225D01*
X109880082Y-110090339D01*
X109862532Y-110107889D01*
X109841500Y-110139366D01*
X107805571Y-112175295D01*
X107792129Y-112141687D01*
X107786637Y-112131024D01*
X107666760Y-111944298D01*
X107659351Y-111934866D01*
X107506329Y-111774176D01*
X107497270Y-111766315D01*
X107316622Y-111637461D01*
X107306240Y-111631455D01*
X107104487Y-111539085D01*
X107093156Y-111535150D01*
X106877575Y-111482596D01*
X106865705Y-111480875D01*
X106644075Y-111470036D01*
X106632094Y-111470591D01*
X106412414Y-111501856D01*
X106400754Y-111504666D01*
X106190948Y-111576908D01*
X106180029Y-111581872D01*
X105987671Y-111692483D01*
X105977888Y-111699423D01*
X105809915Y-111844413D01*
X105801621Y-111853077D01*
X105664095Y-112027214D01*
X105657589Y-112037290D01*
X105555473Y-112234292D01*
X105550990Y-112245417D01*
X105487968Y-112458173D01*
X105485670Y-112469945D01*
X105464017Y-112690780D01*
X105463986Y-112702774D01*
X105484482Y-112923720D01*
X105486719Y-112935504D01*
X105548626Y-113148587D01*
X105553051Y-113159735D01*
X105654133Y-113357268D01*
X105660587Y-113367379D01*
X105797199Y-113542233D01*
X105805448Y-113550941D01*
X105972659Y-113696808D01*
X105982405Y-113703799D01*
X106174183Y-113815416D01*
X106185075Y-113820438D01*
X106394498Y-113893777D01*
X106406144Y-113896648D01*
X106625658Y-113929063D01*
X106637637Y-113929681D01*
X106859320Y-113920001D01*
X106871199Y-113918343D01*
X107087051Y-113866919D01*
X107098402Y-113863044D01*
X107300638Y-113771731D01*
X107311051Y-113765779D01*
X107367001Y-113726310D01*
X107367002Y-114213396D01*
X107316622Y-114177461D01*
X107306240Y-114171455D01*
X107104487Y-114079085D01*
X107093156Y-114075150D01*
X106877575Y-114022596D01*
X106865705Y-114020875D01*
X106644075Y-114010036D01*
X106632094Y-114010591D01*
X106412414Y-114041856D01*
X106400754Y-114044666D01*
X106190948Y-114116908D01*
X106180029Y-114121872D01*
X105987671Y-114232483D01*
X105977888Y-114239423D01*
X105809915Y-114384413D01*
X105801621Y-114393077D01*
X105664095Y-114567214D01*
X105657589Y-114577290D01*
X105555473Y-114774292D01*
X105550990Y-114785417D01*
X105487968Y-114998173D01*
X105485670Y-115009945D01*
X105464017Y-115230780D01*
X105463986Y-115242774D01*
X105484482Y-115463720D01*
X105486719Y-115475504D01*
X105548626Y-115688587D01*
X105553051Y-115699735D01*
X105654133Y-115897268D01*
X105660587Y-115907379D01*
X105797199Y-116082233D01*
X105805448Y-116090941D01*
X105972659Y-116236808D01*
X105982405Y-116243799D01*
X106174183Y-116355416D01*
X106185075Y-116360438D01*
X106394498Y-116433777D01*
X106406144Y-116436648D01*
X106625658Y-116469063D01*
X106637637Y-116469681D01*
X106859320Y-116460001D01*
X106871199Y-116458343D01*
X107087051Y-116406919D01*
X107098402Y-116403044D01*
X107300638Y-116311731D01*
X107311051Y-116305779D01*
X107367001Y-116266310D01*
X107367001Y-116396650D01*
X107131979Y-116631672D01*
X107104487Y-116619085D01*
X107093156Y-116615150D01*
X106877575Y-116562596D01*
X106865705Y-116560875D01*
X106644075Y-116550036D01*
X106632094Y-116550591D01*
X106412414Y-116581856D01*
X106400754Y-116584666D01*
X106190948Y-116656908D01*
X106180029Y-116661872D01*
X105987671Y-116772483D01*
X105977888Y-116779423D01*
X105809915Y-116924413D01*
X105801621Y-116933077D01*
X105664095Y-117107214D01*
X105657589Y-117117290D01*
X105555473Y-117314292D01*
X105550990Y-117325417D01*
X105487968Y-117538173D01*
X105485670Y-117549945D01*
X105464017Y-117770780D01*
X105463986Y-117782774D01*
X105484482Y-118003720D01*
X105486719Y-118015504D01*
X105548626Y-118228587D01*
X105553051Y-118239735D01*
X105654133Y-118437268D01*
X105660587Y-118447379D01*
X105797199Y-118622233D01*
X105805448Y-118630941D01*
X105873949Y-118690699D01*
X105009354Y-119555295D01*
X104977879Y-119576326D01*
X104960329Y-119593876D01*
X104863216Y-119739217D01*
X104853718Y-119762147D01*
X104828214Y-119890361D01*
X104828213Y-119890373D01*
X104819617Y-119933587D01*
X104819617Y-119958406D01*
X104827001Y-119995529D01*
X104827002Y-120631391D01*
X104821717Y-120644150D01*
X104787616Y-120815590D01*
X104787616Y-120840410D01*
X104821717Y-121011849D01*
X104827001Y-121024606D01*
X104827002Y-121476649D01*
X104591979Y-121711672D01*
X104564487Y-121699085D01*
X104553156Y-121695150D01*
X104337575Y-121642596D01*
X104325705Y-121640875D01*
X104104075Y-121630036D01*
X104092094Y-121630591D01*
X103872414Y-121661856D01*
X103860754Y-121664666D01*
X103650948Y-121736908D01*
X103640029Y-121741872D01*
X103447671Y-121852483D01*
X103437888Y-121859423D01*
X103269915Y-122004413D01*
X103261621Y-122013077D01*
X103124095Y-122187214D01*
X103117589Y-122197290D01*
X103015473Y-122394292D01*
X103010990Y-122405417D01*
X102947968Y-122618173D01*
X102945670Y-122629945D01*
X102924017Y-122850780D01*
X102923986Y-122862774D01*
X102944482Y-123083720D01*
X102946719Y-123095504D01*
X103008626Y-123308587D01*
X103013051Y-123319735D01*
X103114133Y-123517268D01*
X103120587Y-123527379D01*
X103257199Y-123702233D01*
X103265448Y-123710941D01*
X103432659Y-123856808D01*
X103442405Y-123863799D01*
X103634183Y-123975416D01*
X103645075Y-123980438D01*
X103854498Y-124053777D01*
X103866144Y-124056648D01*
X104085658Y-124089063D01*
X104097637Y-124089681D01*
X104319320Y-124080001D01*
X104331199Y-124078343D01*
X104547051Y-124026919D01*
X104558402Y-124023044D01*
X104760638Y-123931731D01*
X104771051Y-123925779D01*
X104952370Y-123797872D01*
X104961470Y-123790059D01*
X105115332Y-123630174D01*
X105122790Y-123620780D01*
X105243643Y-123434684D01*
X105249190Y-123424050D01*
X105332672Y-123218458D01*
X105336108Y-123206966D01*
X105379224Y-122989218D01*
X105380427Y-122977118D01*
X105381023Y-122749300D01*
X105379884Y-122737194D01*
X105337910Y-122519222D01*
X105334533Y-122507713D01*
X105301421Y-122424928D01*
X105650648Y-122075701D01*
X105682122Y-122054671D01*
X105699672Y-122037121D01*
X105742167Y-121973524D01*
X105796786Y-121891780D01*
X105806284Y-121868849D01*
X105817923Y-121810336D01*
X105830580Y-121746703D01*
X105840385Y-121697410D01*
X105840385Y-121672591D01*
X105833001Y-121635468D01*
X105833001Y-121194977D01*
X105972659Y-121316808D01*
X105982405Y-121323799D01*
X106174183Y-121435416D01*
X106185075Y-121440438D01*
X106394498Y-121513777D01*
X106406144Y-121516648D01*
X106625658Y-121549063D01*
X106637637Y-121549681D01*
X106859320Y-121540001D01*
X106871199Y-121538343D01*
X107087051Y-121486919D01*
X107098402Y-121483044D01*
X107300638Y-121391731D01*
X107311051Y-121385779D01*
X107492370Y-121257872D01*
X107501470Y-121250059D01*
X107655332Y-121090174D01*
X107662790Y-121080780D01*
X107783643Y-120894684D01*
X107789191Y-120884049D01*
X107813980Y-120823000D01*
X107960404Y-120823000D01*
X107966000Y-120824113D01*
X107966000Y-122020652D01*
X107751054Y-122235598D01*
X107666760Y-122104298D01*
X107659351Y-122094866D01*
X107506329Y-121934176D01*
X107497270Y-121926315D01*
X107316622Y-121797461D01*
X107306240Y-121791455D01*
X107104487Y-121699085D01*
X107093156Y-121695150D01*
X106877575Y-121642596D01*
X106865705Y-121640875D01*
X106644075Y-121630036D01*
X106632094Y-121630591D01*
X106412414Y-121661856D01*
X106400754Y-121664666D01*
X106190948Y-121736908D01*
X106180029Y-121741872D01*
X105987671Y-121852483D01*
X105977888Y-121859423D01*
X105809915Y-122004413D01*
X105801621Y-122013077D01*
X105664095Y-122187214D01*
X105657589Y-122197290D01*
X105555473Y-122394292D01*
X105550990Y-122405417D01*
X105487968Y-122618173D01*
X105485670Y-122629945D01*
X105464017Y-122850780D01*
X105463986Y-122862774D01*
X105484482Y-123083720D01*
X105486719Y-123095504D01*
X105548626Y-123308587D01*
X105553051Y-123319735D01*
X105654133Y-123517268D01*
X105660587Y-123527379D01*
X105797199Y-123702233D01*
X105805448Y-123710941D01*
X105972659Y-123856808D01*
X105982405Y-123863799D01*
X106174183Y-123975416D01*
X106185075Y-123980438D01*
X106394498Y-124053777D01*
X106406144Y-124056648D01*
X106625658Y-124089063D01*
X106637637Y-124089681D01*
X106859320Y-124080001D01*
X106871199Y-124078343D01*
X107087051Y-124026919D01*
X107098402Y-124023044D01*
X107300638Y-123931731D01*
X107311051Y-123925779D01*
X107492370Y-123797872D01*
X107501470Y-123790059D01*
X107655332Y-123630174D01*
X107662790Y-123620780D01*
X107783643Y-123434684D01*
X107789191Y-123424049D01*
X107812073Y-123367695D01*
X107825590Y-123370384D01*
X107850410Y-123370384D01*
X107893623Y-123361788D01*
X107893637Y-123361787D01*
X107966000Y-123347393D01*
X107966000Y-126036000D01*
X105291246Y-126036000D01*
X105277816Y-126037444D01*
X105049168Y-126087183D01*
X105028334Y-126095813D01*
X104889629Y-126184953D01*
X104876008Y-126196756D01*
X104769517Y-126319652D01*
X104759773Y-126334815D01*
X104692221Y-126482735D01*
X104687143Y-126500028D01*
X104664642Y-126656522D01*
X104664000Y-126665500D01*
X104664000Y-126824646D01*
X104564487Y-126779085D01*
X104553156Y-126775150D01*
X104337575Y-126722596D01*
X104325705Y-126720875D01*
X104104075Y-126710036D01*
X104092094Y-126710591D01*
X103872414Y-126741856D01*
X103860754Y-126744666D01*
X103650948Y-126816908D01*
X103640029Y-126821872D01*
X103447671Y-126932483D01*
X103437888Y-126939423D01*
X103269915Y-127084413D01*
X103261621Y-127093077D01*
X103124095Y-127267214D01*
X103117589Y-127277290D01*
X103015473Y-127474292D01*
X103010990Y-127485417D01*
X102947968Y-127698173D01*
X102945670Y-127709945D01*
X102924017Y-127930780D01*
X102923986Y-127942774D01*
X102944482Y-128163720D01*
X102946719Y-128175504D01*
X103008626Y-128388587D01*
X103013051Y-128399735D01*
X103114133Y-128597268D01*
X103120587Y-128607379D01*
X103257199Y-128782233D01*
X103265448Y-128790941D01*
X103432659Y-128936808D01*
X103442405Y-128943799D01*
X103634183Y-129055416D01*
X103645075Y-129060438D01*
X103854498Y-129133777D01*
X103866144Y-129136648D01*
X104085658Y-129169063D01*
X104097637Y-129169681D01*
X104319320Y-129160001D01*
X104331199Y-129158343D01*
X104547051Y-129106919D01*
X104558402Y-129103044D01*
X104664000Y-129055365D01*
X104664000Y-129216754D01*
X104665444Y-129230184D01*
X104698089Y-129380253D01*
X104564487Y-129319085D01*
X104553156Y-129315150D01*
X104337575Y-129262596D01*
X104325705Y-129260875D01*
X104104075Y-129250036D01*
X104092094Y-129250591D01*
X103872414Y-129281856D01*
X103860754Y-129284666D01*
X103650948Y-129356908D01*
X103640029Y-129361872D01*
X103447671Y-129472483D01*
X103437888Y-129479423D01*
X103269915Y-129624413D01*
X103261621Y-129633077D01*
X103124095Y-129807214D01*
X103117589Y-129817290D01*
X103015473Y-130014292D01*
X103010990Y-130025417D01*
X102947968Y-130238173D01*
X102945670Y-130249945D01*
X102924017Y-130470780D01*
X102923986Y-130482774D01*
X102944482Y-130703720D01*
X102946719Y-130715504D01*
X103008626Y-130928587D01*
X103013051Y-130939735D01*
X103114133Y-131137268D01*
X103120587Y-131147379D01*
X103257199Y-131322233D01*
X103265448Y-131330941D01*
X103432659Y-131476808D01*
X103442405Y-131483799D01*
X103634183Y-131595416D01*
X103645075Y-131600438D01*
X103854498Y-131673777D01*
X103866144Y-131676648D01*
X104085658Y-131709063D01*
X104097637Y-131709681D01*
X104319320Y-131700001D01*
X104331199Y-131698343D01*
X104547051Y-131646919D01*
X104558402Y-131643044D01*
X104760638Y-131551731D01*
X104771051Y-131545779D01*
X104952370Y-131417872D01*
X104961470Y-131410059D01*
X105115332Y-131250174D01*
X105122790Y-131240780D01*
X105243643Y-131054684D01*
X105249190Y-131044050D01*
X105332672Y-130838458D01*
X105336108Y-130826966D01*
X105379224Y-130609218D01*
X105380427Y-130597118D01*
X105381023Y-130369300D01*
X105379884Y-130357194D01*
X105337910Y-130139222D01*
X105334533Y-130127713D01*
X105252129Y-129921687D01*
X105246637Y-129911024D01*
X105194925Y-129830476D01*
X105284522Y-129843358D01*
X105293500Y-129844000D01*
X105464102Y-129844000D01*
X105464102Y-131336190D01*
X105465315Y-131348510D01*
X105488347Y-131464298D01*
X105497845Y-131487228D01*
X105566889Y-131590560D01*
X105584440Y-131608111D01*
X105687772Y-131677155D01*
X105710702Y-131686653D01*
X105826490Y-131709685D01*
X105838810Y-131710898D01*
X107551190Y-131710898D01*
X107563510Y-131709685D01*
X107679298Y-131686653D01*
X107702228Y-131677155D01*
X107805560Y-131608111D01*
X107823111Y-131590560D01*
X107892155Y-131487228D01*
X107901653Y-131464298D01*
X107924685Y-131348510D01*
X107925898Y-131336190D01*
X107925898Y-129844000D01*
X109368754Y-129844000D01*
X109382184Y-129842556D01*
X109610832Y-129792817D01*
X109631666Y-129784187D01*
X109770371Y-129695047D01*
X109783992Y-129683244D01*
X109890483Y-129560348D01*
X109900227Y-129545185D01*
X109967779Y-129397265D01*
X109972857Y-129379972D01*
X109995358Y-129223478D01*
X109996000Y-129214500D01*
X109996000Y-129082000D01*
X111268000Y-129082000D01*
X111268000Y-130232754D01*
X111269444Y-130246184D01*
X111319183Y-130474832D01*
X111327813Y-130495666D01*
X111416953Y-130634371D01*
X111428756Y-130647992D01*
X111551652Y-130754483D01*
X111566815Y-130764227D01*
X111714735Y-130831779D01*
X111732028Y-130836857D01*
X111888522Y-130859358D01*
X111897500Y-130860000D01*
X114194754Y-130860000D01*
X114208184Y-130858556D01*
X114436832Y-130808817D01*
X114457666Y-130800187D01*
X114596371Y-130711047D01*
X114609992Y-130699244D01*
X114716483Y-130576348D01*
X114726227Y-130561185D01*
X114793779Y-130413265D01*
X114798857Y-130395972D01*
X114821358Y-130239478D01*
X114822000Y-130230500D01*
X114822000Y-128828000D01*
X116348000Y-128828000D01*
X116348000Y-130232754D01*
X116349444Y-130246184D01*
X116399183Y-130474832D01*
X116407813Y-130495666D01*
X116496953Y-130634371D01*
X116508756Y-130647992D01*
X116631652Y-130754483D01*
X116646815Y-130764227D01*
X116794735Y-130831779D01*
X116812028Y-130836857D01*
X116968522Y-130859358D01*
X116977500Y-130860000D01*
X119274754Y-130860000D01*
X119288184Y-130858556D01*
X119516832Y-130808817D01*
X119537666Y-130800187D01*
X119624000Y-130744704D01*
X119624000Y-131695985D01*
X119623464Y-131697812D01*
X119621160Y-131709975D01*
X119603877Y-131903639D01*
X119563176Y-132052415D01*
X119496768Y-132191643D01*
X119406764Y-132316896D01*
X119295988Y-132424244D01*
X119167965Y-132510273D01*
X119026727Y-132572273D01*
X118873812Y-132608983D01*
X118715929Y-132620579D01*
X118703731Y-132622691D01*
X118698995Y-132624000D01*
X101054015Y-132624000D01*
X101052188Y-132623464D01*
X101040025Y-132621160D01*
X100846361Y-132603877D01*
X100697585Y-132563176D01*
X100558357Y-132496768D01*
X100433104Y-132406764D01*
X100325756Y-132295988D01*
X100239727Y-132167965D01*
X100177727Y-132026727D01*
X100141017Y-131873812D01*
X100129421Y-131715929D01*
X100127309Y-131703731D01*
X100126000Y-131698995D01*
X100126000Y-110162774D01*
X105463986Y-110162774D01*
X105484482Y-110383720D01*
X105486719Y-110395504D01*
X105548626Y-110608587D01*
X105553051Y-110619735D01*
X105654133Y-110817268D01*
X105660587Y-110827379D01*
X105797199Y-111002233D01*
X105805448Y-111010941D01*
X105972659Y-111156808D01*
X105982405Y-111163799D01*
X106174183Y-111275416D01*
X106185075Y-111280438D01*
X106394498Y-111353777D01*
X106406144Y-111356648D01*
X106625658Y-111389063D01*
X106637637Y-111389681D01*
X106859320Y-111380001D01*
X106871199Y-111378343D01*
X107087051Y-111326919D01*
X107098402Y-111323044D01*
X107300638Y-111231731D01*
X107311051Y-111225779D01*
X107492370Y-111097872D01*
X107501470Y-111090059D01*
X107655332Y-110930174D01*
X107662790Y-110920780D01*
X107783643Y-110734684D01*
X107789190Y-110724050D01*
X107872672Y-110518458D01*
X107876108Y-110506966D01*
X107919224Y-110289218D01*
X107920427Y-110277118D01*
X107921023Y-110049300D01*
X107919884Y-110037194D01*
X107877910Y-109819222D01*
X107874533Y-109807713D01*
X107792129Y-109601687D01*
X107786637Y-109591024D01*
X107666760Y-109404298D01*
X107659351Y-109394866D01*
X107506329Y-109234176D01*
X107497270Y-109226315D01*
X107316622Y-109097461D01*
X107306240Y-109091455D01*
X107104487Y-108999085D01*
X107093156Y-108995150D01*
X106877575Y-108942596D01*
X106865705Y-108940875D01*
X106644075Y-108930036D01*
X106632094Y-108930591D01*
X106412414Y-108961856D01*
X106400754Y-108964666D01*
X106190948Y-109036908D01*
X106180029Y-109041872D01*
X105987671Y-109152483D01*
X105977888Y-109159423D01*
X105809915Y-109304413D01*
X105801621Y-109313077D01*
X105664095Y-109487214D01*
X105657589Y-109497290D01*
X105555473Y-109694292D01*
X105550990Y-109705417D01*
X105487968Y-109918173D01*
X105485670Y-109929945D01*
X105464017Y-110150780D01*
X105463986Y-110162774D01*
X100126000Y-110162774D01*
X100126000Y-106472000D01*
X108352190Y-106472000D01*
X108364510Y-106470787D01*
X108478424Y-106448128D01*
X108501354Y-106438630D01*
X108603097Y-106370648D01*
X108620648Y-106353097D01*
X108688630Y-106251354D01*
X108698128Y-106228424D01*
X108720787Y-106114510D01*
X108722000Y-106102190D01*
X108722000Y-103932000D01*
X114574000Y-103932000D01*
X114574000Y-106156430D01*
G36*
X118982001Y-122434650D02*
G01*
X117306344Y-124110308D01*
X117274870Y-124131338D01*
X117257319Y-124148889D01*
X117232833Y-124185534D01*
X117232833Y-124185535D01*
X117160205Y-124294230D01*
X117150707Y-124317160D01*
X117116606Y-124488600D01*
X117116606Y-124512000D01*
X114435246Y-124512000D01*
X114421816Y-124513444D01*
X114193168Y-124563183D01*
X114172334Y-124571813D01*
X114033629Y-124660953D01*
X114020008Y-124672756D01*
X114005075Y-124689990D01*
X113846542Y-124689990D01*
X113809420Y-124682606D01*
X113784601Y-124682606D01*
X113741385Y-124691202D01*
X113741373Y-124691203D01*
X113613159Y-124716707D01*
X113590229Y-124726205D01*
X113444889Y-124823318D01*
X113427339Y-124840869D01*
X113406306Y-124872346D01*
X112999550Y-125279102D01*
X112790000Y-125279102D01*
X112790000Y-125139246D01*
X112788556Y-125125816D01*
X112738817Y-124897168D01*
X112730187Y-124876334D01*
X112641047Y-124737629D01*
X112629244Y-124724008D01*
X112536000Y-124643212D01*
X112536000Y-121208000D01*
X114448754Y-121208000D01*
X114462184Y-121206556D01*
X114690832Y-121156817D01*
X114711666Y-121148187D01*
X114759285Y-121117584D01*
X114869546Y-121308563D01*
X114876214Y-121317998D01*
X115020983Y-121487499D01*
X115029258Y-121495561D01*
X115202490Y-121635842D01*
X115212096Y-121642261D01*
X115407993Y-121748623D01*
X115418608Y-121753184D01*
X115630607Y-121822066D01*
X115641875Y-121824616D01*
X115862877Y-121853712D01*
X115874422Y-121854166D01*
X116097024Y-121842499D01*
X116108458Y-121840841D01*
X116325208Y-121788804D01*
X116336149Y-121785090D01*
X116539785Y-121694425D01*
X116549865Y-121688780D01*
X116733571Y-121562523D01*
X116742454Y-121555135D01*
X116900073Y-121397516D01*
X116907461Y-121388633D01*
X117033718Y-121204927D01*
X117039363Y-121194847D01*
X117130028Y-120991211D01*
X117133742Y-120980270D01*
X117185972Y-120762716D01*
X117187696Y-120749622D01*
X117195149Y-120465019D01*
X117194113Y-120451853D01*
X117153340Y-120231865D01*
X117150204Y-120220745D01*
X117070321Y-120012642D01*
X117065211Y-120002280D01*
X116948741Y-119812219D01*
X116941829Y-119802961D01*
X116792674Y-119637309D01*
X116784190Y-119629466D01*
X116607344Y-119493768D01*
X116597573Y-119487603D01*
X116398960Y-119386405D01*
X116388229Y-119382123D01*
X116174500Y-119318814D01*
X116163169Y-119316560D01*
X116051895Y-119304864D01*
X116097024Y-119302499D01*
X116108458Y-119300841D01*
X116325208Y-119248804D01*
X116336149Y-119245090D01*
X116539785Y-119154425D01*
X116549865Y-119148780D01*
X116733571Y-119022523D01*
X116742454Y-119015135D01*
X116900073Y-118857516D01*
X116907461Y-118848633D01*
X117033718Y-118664927D01*
X117039363Y-118654847D01*
X117130028Y-118451211D01*
X117133742Y-118440270D01*
X117185972Y-118222716D01*
X117187696Y-118209622D01*
X117195149Y-117925019D01*
X117194113Y-117911853D01*
X117153340Y-117691865D01*
X117150204Y-117680745D01*
X117070321Y-117472642D01*
X117065211Y-117462280D01*
X116948741Y-117272219D01*
X116941829Y-117262961D01*
X116792674Y-117097309D01*
X116784190Y-117089466D01*
X116607344Y-116953768D01*
X116597573Y-116947603D01*
X116398960Y-116846405D01*
X116388229Y-116842123D01*
X116174500Y-116778814D01*
X116163169Y-116776560D01*
X116051895Y-116764864D01*
X116097024Y-116762499D01*
X116108458Y-116760841D01*
X116325208Y-116708804D01*
X116336149Y-116705090D01*
X116539785Y-116614425D01*
X116549865Y-116608780D01*
X116733571Y-116482523D01*
X116742454Y-116475135D01*
X116900073Y-116317516D01*
X116907461Y-116308633D01*
X117033718Y-116124927D01*
X117039363Y-116114847D01*
X117130028Y-115911211D01*
X117133742Y-115900270D01*
X117185972Y-115682716D01*
X117187696Y-115669622D01*
X117195149Y-115385019D01*
X117194113Y-115371853D01*
X117153340Y-115151865D01*
X117150204Y-115140745D01*
X117070321Y-114932642D01*
X117065211Y-114922280D01*
X116948741Y-114732219D01*
X116941829Y-114722961D01*
X116792674Y-114557309D01*
X116784190Y-114549466D01*
X116607344Y-114413768D01*
X116597573Y-114407603D01*
X116398960Y-114306405D01*
X116388229Y-114302123D01*
X116174500Y-114238814D01*
X116163169Y-114236560D01*
X115941482Y-114213259D01*
X115929929Y-114213108D01*
X115707707Y-114230598D01*
X115696321Y-114232554D01*
X115481007Y-114290246D01*
X115470168Y-114294245D01*
X115443331Y-114307045D01*
X115106939Y-113970653D01*
X115106939Y-112958533D01*
X115114323Y-112921410D01*
X115114323Y-112896591D01*
X115105727Y-112853374D01*
X115105726Y-112853364D01*
X115080222Y-112725150D01*
X115070724Y-112702220D01*
X115020534Y-112627105D01*
X115001534Y-112598670D01*
X114973610Y-112556879D01*
X114956060Y-112539329D01*
X114924589Y-112518301D01*
X114564603Y-112158316D01*
X114590028Y-112101211D01*
X114593742Y-112090270D01*
X114645972Y-111872716D01*
X114647696Y-111859622D01*
X114655149Y-111575019D01*
X114654113Y-111561853D01*
X114613340Y-111341865D01*
X114610204Y-111330745D01*
X114530321Y-111122642D01*
X114525211Y-111112280D01*
X114408741Y-110922219D01*
X114404845Y-110917000D01*
X114743331Y-110917000D01*
X114753255Y-110945026D01*
X114758092Y-110955518D01*
X114869546Y-111148563D01*
X114876214Y-111157998D01*
X115020983Y-111327499D01*
X115029258Y-111335561D01*
X115202490Y-111475842D01*
X115212096Y-111482261D01*
X115407993Y-111588623D01*
X115418608Y-111593184D01*
X115630607Y-111662066D01*
X115641875Y-111664616D01*
X115862877Y-111693712D01*
X115874422Y-111694166D01*
X116097024Y-111682499D01*
X116108458Y-111680841D01*
X116325208Y-111628804D01*
X116336149Y-111625090D01*
X116539785Y-111534425D01*
X116549865Y-111528780D01*
X116733571Y-111402523D01*
X116742454Y-111395135D01*
X116900073Y-111237516D01*
X116907461Y-111228633D01*
X117033718Y-111044927D01*
X117039363Y-111034847D01*
X117130028Y-110831211D01*
X117133742Y-110820270D01*
X117185972Y-110602716D01*
X117187696Y-110589622D01*
X117195149Y-110305019D01*
X117194113Y-110291853D01*
X117153340Y-110071865D01*
X117150204Y-110060745D01*
X117070321Y-109852642D01*
X117065211Y-109842280D01*
X116948741Y-109652219D01*
X116941829Y-109642961D01*
X116831113Y-109520000D01*
X118982002Y-109520000D01*
X118982001Y-122434650D01*
G37*
X118982001Y-122434650D02*
X117306344Y-124110308D01*
X117274870Y-124131338D01*
X117257319Y-124148889D01*
X117232833Y-124185534D01*
X117232833Y-124185535D01*
X117160205Y-124294230D01*
X117150707Y-124317160D01*
X117116606Y-124488600D01*
X117116606Y-124512000D01*
X114435246Y-124512000D01*
X114421816Y-124513444D01*
X114193168Y-124563183D01*
X114172334Y-124571813D01*
X114033629Y-124660953D01*
X114020008Y-124672756D01*
X114005075Y-124689990D01*
X113846542Y-124689990D01*
X113809420Y-124682606D01*
X113784601Y-124682606D01*
X113741385Y-124691202D01*
X113741373Y-124691203D01*
X113613159Y-124716707D01*
X113590229Y-124726205D01*
X113444889Y-124823318D01*
X113427339Y-124840869D01*
X113406306Y-124872346D01*
X112999550Y-125279102D01*
X112790000Y-125279102D01*
X112790000Y-125139246D01*
X112788556Y-125125816D01*
X112738817Y-124897168D01*
X112730187Y-124876334D01*
X112641047Y-124737629D01*
X112629244Y-124724008D01*
X112536000Y-124643212D01*
X112536000Y-121208000D01*
X114448754Y-121208000D01*
X114462184Y-121206556D01*
X114690832Y-121156817D01*
X114711666Y-121148187D01*
X114759285Y-121117584D01*
X114869546Y-121308563D01*
X114876214Y-121317998D01*
X115020983Y-121487499D01*
X115029258Y-121495561D01*
X115202490Y-121635842D01*
X115212096Y-121642261D01*
X115407993Y-121748623D01*
X115418608Y-121753184D01*
X115630607Y-121822066D01*
X115641875Y-121824616D01*
X115862877Y-121853712D01*
X115874422Y-121854166D01*
X116097024Y-121842499D01*
X116108458Y-121840841D01*
X116325208Y-121788804D01*
X116336149Y-121785090D01*
X116539785Y-121694425D01*
X116549865Y-121688780D01*
X116733571Y-121562523D01*
X116742454Y-121555135D01*
X116900073Y-121397516D01*
X116907461Y-121388633D01*
X117033718Y-121204927D01*
X117039363Y-121194847D01*
X117130028Y-120991211D01*
X117133742Y-120980270D01*
X117185972Y-120762716D01*
X117187696Y-120749622D01*
X117195149Y-120465019D01*
X117194113Y-120451853D01*
X117153340Y-120231865D01*
X117150204Y-120220745D01*
X117070321Y-120012642D01*
X117065211Y-120002280D01*
X116948741Y-119812219D01*
X116941829Y-119802961D01*
X116792674Y-119637309D01*
X116784190Y-119629466D01*
X116607344Y-119493768D01*
X116597573Y-119487603D01*
X116398960Y-119386405D01*
X116388229Y-119382123D01*
X116174500Y-119318814D01*
X116163169Y-119316560D01*
X116051895Y-119304864D01*
X116097024Y-119302499D01*
X116108458Y-119300841D01*
X116325208Y-119248804D01*
X116336149Y-119245090D01*
X116539785Y-119154425D01*
X116549865Y-119148780D01*
X116733571Y-119022523D01*
X116742454Y-119015135D01*
X116900073Y-118857516D01*
X116907461Y-118848633D01*
X117033718Y-118664927D01*
X117039363Y-118654847D01*
X117130028Y-118451211D01*
X117133742Y-118440270D01*
X117185972Y-118222716D01*
X117187696Y-118209622D01*
X117195149Y-117925019D01*
X117194113Y-117911853D01*
X117153340Y-117691865D01*
X117150204Y-117680745D01*
X117070321Y-117472642D01*
X117065211Y-117462280D01*
X116948741Y-117272219D01*
X116941829Y-117262961D01*
X116792674Y-117097309D01*
X116784190Y-117089466D01*
X116607344Y-116953768D01*
X116597573Y-116947603D01*
X116398960Y-116846405D01*
X116388229Y-116842123D01*
X116174500Y-116778814D01*
X116163169Y-116776560D01*
X116051895Y-116764864D01*
X116097024Y-116762499D01*
X116108458Y-116760841D01*
X116325208Y-116708804D01*
X116336149Y-116705090D01*
X116539785Y-116614425D01*
X116549865Y-116608780D01*
X116733571Y-116482523D01*
X116742454Y-116475135D01*
X116900073Y-116317516D01*
X116907461Y-116308633D01*
X117033718Y-116124927D01*
X117039363Y-116114847D01*
X117130028Y-115911211D01*
X117133742Y-115900270D01*
X117185972Y-115682716D01*
X117187696Y-115669622D01*
X117195149Y-115385019D01*
X117194113Y-115371853D01*
X117153340Y-115151865D01*
X117150204Y-115140745D01*
X117070321Y-114932642D01*
X117065211Y-114922280D01*
X116948741Y-114732219D01*
X116941829Y-114722961D01*
X116792674Y-114557309D01*
X116784190Y-114549466D01*
X116607344Y-114413768D01*
X116597573Y-114407603D01*
X116398960Y-114306405D01*
X116388229Y-114302123D01*
X116174500Y-114238814D01*
X116163169Y-114236560D01*
X115941482Y-114213259D01*
X115929929Y-114213108D01*
X115707707Y-114230598D01*
X115696321Y-114232554D01*
X115481007Y-114290246D01*
X115470168Y-114294245D01*
X115443331Y-114307045D01*
X115106939Y-113970653D01*
X115106939Y-112958533D01*
X115114323Y-112921410D01*
X115114323Y-112896591D01*
X115105727Y-112853374D01*
X115105726Y-112853364D01*
X115080222Y-112725150D01*
X115070724Y-112702220D01*
X115020534Y-112627105D01*
X115001534Y-112598670D01*
X114973610Y-112556879D01*
X114956060Y-112539329D01*
X114924589Y-112518301D01*
X114564603Y-112158316D01*
X114590028Y-112101211D01*
X114593742Y-112090270D01*
X114645972Y-111872716D01*
X114647696Y-111859622D01*
X114655149Y-111575019D01*
X114654113Y-111561853D01*
X114613340Y-111341865D01*
X114610204Y-111330745D01*
X114530321Y-111122642D01*
X114525211Y-111112280D01*
X114408741Y-110922219D01*
X114404845Y-110917000D01*
X114743331Y-110917000D01*
X114753255Y-110945026D01*
X114758092Y-110955518D01*
X114869546Y-111148563D01*
X114876214Y-111157998D01*
X115020983Y-111327499D01*
X115029258Y-111335561D01*
X115202490Y-111475842D01*
X115212096Y-111482261D01*
X115407993Y-111588623D01*
X115418608Y-111593184D01*
X115630607Y-111662066D01*
X115641875Y-111664616D01*
X115862877Y-111693712D01*
X115874422Y-111694166D01*
X116097024Y-111682499D01*
X116108458Y-111680841D01*
X116325208Y-111628804D01*
X116336149Y-111625090D01*
X116539785Y-111534425D01*
X116549865Y-111528780D01*
X116733571Y-111402523D01*
X116742454Y-111395135D01*
X116900073Y-111237516D01*
X116907461Y-111228633D01*
X117033718Y-111044927D01*
X117039363Y-111034847D01*
X117130028Y-110831211D01*
X117133742Y-110820270D01*
X117185972Y-110602716D01*
X117187696Y-110589622D01*
X117195149Y-110305019D01*
X117194113Y-110291853D01*
X117153340Y-110071865D01*
X117150204Y-110060745D01*
X117070321Y-109852642D01*
X117065211Y-109842280D01*
X116948741Y-109652219D01*
X116941829Y-109642961D01*
X116831113Y-109520000D01*
X118982002Y-109520000D01*
X118982001Y-122434650D01*
G36*
X114316000Y-120448000D02*
G01*
X114018442Y-120448000D01*
X113840438Y-120375721D01*
X113830246Y-120372556D01*
X113586451Y-120318954D01*
X113575872Y-120317552D01*
X113326530Y-120305794D01*
X113315866Y-120306194D01*
X113068108Y-120336614D01*
X113057663Y-120338806D01*
X112818573Y-120410537D01*
X112808648Y-120414457D01*
X112741075Y-120448000D01*
X111849809Y-120448000D01*
X111776000Y-120521809D01*
X111776000Y-125272000D01*
X111822301Y-125272000D01*
X111792122Y-125306828D01*
X111782378Y-125321990D01*
X111714208Y-125471263D01*
X111709130Y-125488557D01*
X111686418Y-125646523D01*
X111685776Y-125655500D01*
X111685776Y-126766753D01*
X111687220Y-126780183D01*
X111737431Y-127011001D01*
X111746061Y-127031835D01*
X111836005Y-127171792D01*
X111847808Y-127185413D01*
X111971828Y-127292878D01*
X111986990Y-127302622D01*
X112136263Y-127370792D01*
X112153557Y-127375870D01*
X112311523Y-127398582D01*
X112320500Y-127399224D01*
X112906754Y-127399224D01*
X112920184Y-127397780D01*
X113151002Y-127347569D01*
X113155935Y-127345526D01*
X113211262Y-127370792D01*
X113228556Y-127375870D01*
X113386522Y-127398582D01*
X113395499Y-127399224D01*
X113808000Y-127399224D01*
X113808000Y-128500191D01*
X113881809Y-128574000D01*
X114062000Y-128574000D01*
X114062000Y-130100000D01*
X112114224Y-130100000D01*
X112114224Y-129053247D01*
X112112780Y-129039817D01*
X112062569Y-128808999D01*
X112053939Y-128788165D01*
X112028000Y-128747803D01*
X112028000Y-128395809D01*
X111954191Y-128322000D01*
X109488000Y-128322000D01*
X109488000Y-128068000D01*
X109309809Y-128068000D01*
X109236000Y-128141809D01*
X109236000Y-128543999D01*
X106470216Y-128543999D01*
X106091001Y-128164786D01*
X106091001Y-126796000D01*
X106188429Y-126796000D01*
X106356134Y-126849844D01*
X106366535Y-126852236D01*
X106605262Y-126886212D01*
X106615917Y-126886817D01*
X106856956Y-126880084D01*
X106867561Y-126878885D01*
X107104019Y-126831636D01*
X107114270Y-126828667D01*
X107199371Y-126796000D01*
X108652191Y-126796000D01*
X108726000Y-126722191D01*
X108726000Y-123048214D01*
X110486237Y-121287979D01*
X110497894Y-121271934D01*
X110520862Y-121226856D01*
X110550606Y-121185918D01*
X110559610Y-121168246D01*
X110575247Y-121120121D01*
X110598218Y-121075038D01*
X110604347Y-121056177D01*
X110612264Y-121006192D01*
X110627897Y-120958078D01*
X110630999Y-120938490D01*
X110631000Y-119873215D01*
X111709217Y-118795000D01*
X114316000Y-118795000D01*
X114316000Y-120448000D01*
G37*
X114316000Y-120448000D02*
X114018442Y-120448000D01*
X113840438Y-120375721D01*
X113830246Y-120372556D01*
X113586451Y-120318954D01*
X113575872Y-120317552D01*
X113326530Y-120305794D01*
X113315866Y-120306194D01*
X113068108Y-120336614D01*
X113057663Y-120338806D01*
X112818573Y-120410537D01*
X112808648Y-120414457D01*
X112741075Y-120448000D01*
X111849809Y-120448000D01*
X111776000Y-120521809D01*
X111776000Y-125272000D01*
X111822301Y-125272000D01*
X111792122Y-125306828D01*
X111782378Y-125321990D01*
X111714208Y-125471263D01*
X111709130Y-125488557D01*
X111686418Y-125646523D01*
X111685776Y-125655500D01*
X111685776Y-126766753D01*
X111687220Y-126780183D01*
X111737431Y-127011001D01*
X111746061Y-127031835D01*
X111836005Y-127171792D01*
X111847808Y-127185413D01*
X111971828Y-127292878D01*
X111986990Y-127302622D01*
X112136263Y-127370792D01*
X112153557Y-127375870D01*
X112311523Y-127398582D01*
X112320500Y-127399224D01*
X112906754Y-127399224D01*
X112920184Y-127397780D01*
X113151002Y-127347569D01*
X113155935Y-127345526D01*
X113211262Y-127370792D01*
X113228556Y-127375870D01*
X113386522Y-127398582D01*
X113395499Y-127399224D01*
X113808000Y-127399224D01*
X113808000Y-128500191D01*
X113881809Y-128574000D01*
X114062000Y-128574000D01*
X114062000Y-130100000D01*
X112114224Y-130100000D01*
X112114224Y-129053247D01*
X112112780Y-129039817D01*
X112062569Y-128808999D01*
X112053939Y-128788165D01*
X112028000Y-128747803D01*
X112028000Y-128395809D01*
X111954191Y-128322000D01*
X109488000Y-128322000D01*
X109488000Y-128068000D01*
X109309809Y-128068000D01*
X109236000Y-128141809D01*
X109236000Y-128543999D01*
X106470216Y-128543999D01*
X106091001Y-128164786D01*
X106091001Y-126796000D01*
X106188429Y-126796000D01*
X106356134Y-126849844D01*
X106366535Y-126852236D01*
X106605262Y-126886212D01*
X106615917Y-126886817D01*
X106856956Y-126880084D01*
X106867561Y-126878885D01*
X107104019Y-126831636D01*
X107114270Y-126828667D01*
X107199371Y-126796000D01*
X108652191Y-126796000D01*
X108726000Y-126722191D01*
X108726000Y-123048214D01*
X110486237Y-121287979D01*
X110497894Y-121271934D01*
X110520862Y-121226856D01*
X110550606Y-121185918D01*
X110559610Y-121168246D01*
X110575247Y-121120121D01*
X110598218Y-121075038D01*
X110604347Y-121056177D01*
X110612264Y-121006192D01*
X110627897Y-120958078D01*
X110630999Y-120938490D01*
X110631000Y-119873215D01*
X111709217Y-118795000D01*
X114316000Y-118795000D01*
X114316000Y-120448000D01*
G36*
X116685776Y-126766753D02*
G01*
X116687220Y-126780183D01*
X116737431Y-127011001D01*
X116746061Y-127031835D01*
X116836005Y-127171792D01*
X116847808Y-127185413D01*
X116971828Y-127292878D01*
X116986990Y-127302622D01*
X117136263Y-127370792D01*
X117153557Y-127375870D01*
X117311523Y-127398582D01*
X117320500Y-127399224D01*
X117906754Y-127399224D01*
X117920184Y-127397780D01*
X118151002Y-127347569D01*
X118155935Y-127345526D01*
X118211262Y-127370792D01*
X118228556Y-127375870D01*
X118386522Y-127398582D01*
X118395499Y-127399224D01*
X118981753Y-127399224D01*
X118995183Y-127397780D01*
X119142000Y-127365842D01*
X119142000Y-130100000D01*
X117114224Y-130100000D01*
X117114224Y-129053247D01*
X117112780Y-129039817D01*
X117108000Y-129017845D01*
X117108000Y-128141809D01*
X117034191Y-128068000D01*
X114822000Y-128068000D01*
X114822000Y-126871809D01*
X114748191Y-126798000D01*
X114610056Y-126798000D01*
X114613582Y-126773477D01*
X114614224Y-126764500D01*
X114614224Y-125953990D01*
X116685776Y-125953990D01*
X116685776Y-126766753D01*
G37*
X116685776Y-126766753D02*
X116687220Y-126780183D01*
X116737431Y-127011001D01*
X116746061Y-127031835D01*
X116836005Y-127171792D01*
X116847808Y-127185413D01*
X116971828Y-127292878D01*
X116986990Y-127302622D01*
X117136263Y-127370792D01*
X117153557Y-127375870D01*
X117311523Y-127398582D01*
X117320500Y-127399224D01*
X117906754Y-127399224D01*
X117920184Y-127397780D01*
X118151002Y-127347569D01*
X118155935Y-127345526D01*
X118211262Y-127370792D01*
X118228556Y-127375870D01*
X118386522Y-127398582D01*
X118395499Y-127399224D01*
X118981753Y-127399224D01*
X118995183Y-127397780D01*
X119142000Y-127365842D01*
X119142000Y-130100000D01*
X117114224Y-130100000D01*
X117114224Y-129053247D01*
X117112780Y-129039817D01*
X117108000Y-129017845D01*
X117108000Y-128141809D01*
X117034191Y-128068000D01*
X114822000Y-128068000D01*
X114822000Y-126871809D01*
X114748191Y-126798000D01*
X114610056Y-126798000D01*
X114613582Y-126773477D01*
X114614224Y-126764500D01*
X114614224Y-125953990D01*
X116685776Y-125953990D01*
X116685776Y-126766753D01*
G36*
X118697813Y-100376536D02*
G01*
X118709976Y-100378840D01*
X118903637Y-100396123D01*
X119052414Y-100436825D01*
X119191643Y-100503232D01*
X119316896Y-100593236D01*
X119424243Y-100704010D01*
X119510277Y-100832043D01*
X119572273Y-100973273D01*
X119608983Y-101126188D01*
X119620579Y-101284071D01*
X119622691Y-101296269D01*
X119624000Y-101301005D01*
X119624000Y-109018000D01*
X115076000Y-109018000D01*
X115076000Y-106293412D01*
X115202490Y-106395842D01*
X115212096Y-106402261D01*
X115407993Y-106508623D01*
X115418608Y-106513184D01*
X115630607Y-106582066D01*
X115641875Y-106584616D01*
X115862877Y-106613712D01*
X115874422Y-106614166D01*
X116097024Y-106602499D01*
X116108458Y-106600841D01*
X116325208Y-106548804D01*
X116336149Y-106545090D01*
X116539785Y-106454425D01*
X116549865Y-106448780D01*
X116733571Y-106322523D01*
X116742454Y-106315135D01*
X116900073Y-106157516D01*
X116907461Y-106148633D01*
X117033718Y-105964927D01*
X117039363Y-105954847D01*
X117130028Y-105751211D01*
X117133742Y-105740270D01*
X117185972Y-105522716D01*
X117187696Y-105509622D01*
X117195149Y-105225019D01*
X117194113Y-105211853D01*
X117153340Y-104991865D01*
X117150204Y-104980745D01*
X117070321Y-104772642D01*
X117065211Y-104762280D01*
X116948741Y-104572219D01*
X116941829Y-104562961D01*
X116792674Y-104397309D01*
X116784190Y-104389466D01*
X116607344Y-104253768D01*
X116597573Y-104247603D01*
X116398960Y-104146405D01*
X116388229Y-104142123D01*
X116174500Y-104078814D01*
X116163169Y-104076560D01*
X115941482Y-104053259D01*
X115929929Y-104053108D01*
X115707707Y-104070598D01*
X115696321Y-104072554D01*
X115481007Y-104130246D01*
X115470168Y-104134245D01*
X115268973Y-104230210D01*
X115259044Y-104236118D01*
X115078707Y-104367140D01*
X115076000Y-104369514D01*
X115076000Y-103503809D01*
X115002191Y-103430000D01*
X114659836Y-103430000D01*
X114659836Y-103157810D01*
X114658623Y-103145490D01*
X114635591Y-103029702D01*
X114626093Y-103006772D01*
X114557049Y-102903440D01*
X114539498Y-102885889D01*
X114436166Y-102816845D01*
X114413236Y-102807347D01*
X114297448Y-102784315D01*
X114285128Y-102783102D01*
X112472748Y-102783102D01*
X112460428Y-102784315D01*
X112344640Y-102807347D01*
X112321710Y-102816845D01*
X112218378Y-102885889D01*
X112200827Y-102903440D01*
X112131783Y-103006772D01*
X112122285Y-103029702D01*
X112099253Y-103145490D01*
X112098040Y-103157810D01*
X112098040Y-103430000D01*
X110840893Y-103430000D01*
X110834597Y-103426365D01*
X110813879Y-103418824D01*
X110628299Y-103386102D01*
X110617338Y-103385143D01*
X110135905Y-103385143D01*
X110119529Y-103387299D01*
X109960165Y-103430000D01*
X108293809Y-103430000D01*
X108220000Y-103503809D01*
X108220000Y-105970000D01*
X100126000Y-105970000D01*
X100126000Y-101304014D01*
X100126536Y-101302187D01*
X100128840Y-101290024D01*
X100146123Y-101096363D01*
X100186825Y-100947586D01*
X100253232Y-100808357D01*
X100343236Y-100683104D01*
X100454010Y-100575757D01*
X100582043Y-100489723D01*
X100723273Y-100427727D01*
X100876188Y-100391017D01*
X101034071Y-100379421D01*
X101046269Y-100377309D01*
X101051005Y-100376000D01*
X118695986Y-100376000D01*
X118697813Y-100376536D01*
G37*
X118697813Y-100376536D02*
X118709976Y-100378840D01*
X118903637Y-100396123D01*
X119052414Y-100436825D01*
X119191643Y-100503232D01*
X119316896Y-100593236D01*
X119424243Y-100704010D01*
X119510277Y-100832043D01*
X119572273Y-100973273D01*
X119608983Y-101126188D01*
X119620579Y-101284071D01*
X119622691Y-101296269D01*
X119624000Y-101301005D01*
X119624000Y-109018000D01*
X115076000Y-109018000D01*
X115076000Y-106293412D01*
X115202490Y-106395842D01*
X115212096Y-106402261D01*
X115407993Y-106508623D01*
X115418608Y-106513184D01*
X115630607Y-106582066D01*
X115641875Y-106584616D01*
X115862877Y-106613712D01*
X115874422Y-106614166D01*
X116097024Y-106602499D01*
X116108458Y-106600841D01*
X116325208Y-106548804D01*
X116336149Y-106545090D01*
X116539785Y-106454425D01*
X116549865Y-106448780D01*
X116733571Y-106322523D01*
X116742454Y-106315135D01*
X116900073Y-106157516D01*
X116907461Y-106148633D01*
X117033718Y-105964927D01*
X117039363Y-105954847D01*
X117130028Y-105751211D01*
X117133742Y-105740270D01*
X117185972Y-105522716D01*
X117187696Y-105509622D01*
X117195149Y-105225019D01*
X117194113Y-105211853D01*
X117153340Y-104991865D01*
X117150204Y-104980745D01*
X117070321Y-104772642D01*
X117065211Y-104762280D01*
X116948741Y-104572219D01*
X116941829Y-104562961D01*
X116792674Y-104397309D01*
X116784190Y-104389466D01*
X116607344Y-104253768D01*
X116597573Y-104247603D01*
X116398960Y-104146405D01*
X116388229Y-104142123D01*
X116174500Y-104078814D01*
X116163169Y-104076560D01*
X115941482Y-104053259D01*
X115929929Y-104053108D01*
X115707707Y-104070598D01*
X115696321Y-104072554D01*
X115481007Y-104130246D01*
X115470168Y-104134245D01*
X115268973Y-104230210D01*
X115259044Y-104236118D01*
X115078707Y-104367140D01*
X115076000Y-104369514D01*
X115076000Y-103503809D01*
X115002191Y-103430000D01*
X114659836Y-103430000D01*
X114659836Y-103157810D01*
X114658623Y-103145490D01*
X114635591Y-103029702D01*
X114626093Y-103006772D01*
X114557049Y-102903440D01*
X114539498Y-102885889D01*
X114436166Y-102816845D01*
X114413236Y-102807347D01*
X114297448Y-102784315D01*
X114285128Y-102783102D01*
X112472748Y-102783102D01*
X112460428Y-102784315D01*
X112344640Y-102807347D01*
X112321710Y-102816845D01*
X112218378Y-102885889D01*
X112200827Y-102903440D01*
X112131783Y-103006772D01*
X112122285Y-103029702D01*
X112099253Y-103145490D01*
X112098040Y-103157810D01*
X112098040Y-103430000D01*
X110840893Y-103430000D01*
X110834597Y-103426365D01*
X110813879Y-103418824D01*
X110628299Y-103386102D01*
X110617338Y-103385143D01*
X110135905Y-103385143D01*
X110119529Y-103387299D01*
X109960165Y-103430000D01*
X108293809Y-103430000D01*
X108220000Y-103503809D01*
X108220000Y-105970000D01*
X100126000Y-105970000D01*
X100126000Y-101304014D01*
X100126536Y-101302187D01*
X100128840Y-101290024D01*
X100146123Y-101096363D01*
X100186825Y-100947586D01*
X100253232Y-100808357D01*
X100343236Y-100683104D01*
X100454010Y-100575757D01*
X100582043Y-100489723D01*
X100723273Y-100427727D01*
X100876188Y-100391017D01*
X101034071Y-100379421D01*
X101046269Y-100377309D01*
X101051005Y-100376000D01*
X118695986Y-100376000D01*
X118697813Y-100376536D01*
M02*
