G04 #@! TF.GenerationSoftware,KiCad,Pcbnew,5.99.0-unknown-ad88874~101~ubuntu20.04.1*
G04 #@! TF.CreationDate,2020-05-19T21:28:09-04:00*
G04 #@! TF.ProjectId,L298,4c323938-2e6b-4696-9361-645f70636258,rev?*
G04 #@! TF.SameCoordinates,Original*
G04 #@! TF.FileFunction,Legend,Top*
G04 #@! TF.FilePolarity,Positive*
%FSLAX46Y46*%
G04 Gerber Fmt 4.6, Leading zero omitted, Abs format (unit mm)*
G04 Created by KiCad (PCBNEW 5.99.0-unknown-ad88874~101~ubuntu20.04.1) date 2020-05-19 21:28:09*
%MOMM*%
%LPD*%
G01*
G04 APERTURE LIST*
%ADD10C,0.150000*%
%ADD11C,0.120000*%
%ADD12C,0.200000*%
G04 APERTURE END LIST*
D10*
X114047619Y-100988095D02*
X113238095Y-100988095D01*
X113142857Y-101035714D01*
X113095238Y-101083333D01*
X113047619Y-101178571D01*
X113047619Y-101369047D01*
X113095238Y-101464285D01*
X113142857Y-101511904D01*
X113238095Y-101559523D01*
X114047619Y-101559523D01*
X113047619Y-102559523D02*
X113047619Y-101988095D01*
X113047619Y-102273809D02*
X114047619Y-102273809D01*
X113904761Y-102178571D01*
X113809523Y-102083333D01*
X113761904Y-101988095D01*
X109547619Y-131166666D02*
X108833333Y-131166666D01*
X108690476Y-131119047D01*
X108595238Y-131023809D01*
X108547619Y-130880952D01*
X108547619Y-130785714D01*
X108547619Y-132166666D02*
X108547619Y-131595238D01*
X108547619Y-131880952D02*
X109547619Y-131880952D01*
X109404761Y-131785714D01*
X109309523Y-131690476D01*
X109261904Y-131595238D01*
X110197619Y-130621904D02*
X111197619Y-130621904D01*
X111197619Y-130860000D01*
X111150000Y-131002857D01*
X111054761Y-131098095D01*
X110959523Y-131145714D01*
X110769047Y-131193333D01*
X110626190Y-131193333D01*
X110435714Y-131145714D01*
X110340476Y-131098095D01*
X110245238Y-131002857D01*
X110197619Y-130860000D01*
X110197619Y-130621904D01*
X110864285Y-132050476D02*
X110197619Y-132050476D01*
X111245238Y-131812380D02*
X110530952Y-131574285D01*
X110530952Y-132193333D01*
X112697619Y-130621904D02*
X113697619Y-130621904D01*
X113697619Y-130860000D01*
X113650000Y-131002857D01*
X113554761Y-131098095D01*
X113459523Y-131145714D01*
X113269047Y-131193333D01*
X113126190Y-131193333D01*
X112935714Y-131145714D01*
X112840476Y-131098095D01*
X112745238Y-131002857D01*
X112697619Y-130860000D01*
X112697619Y-130621904D01*
X113697619Y-131526666D02*
X113697619Y-132145714D01*
X113316666Y-131812380D01*
X113316666Y-131955238D01*
X113269047Y-132050476D01*
X113221428Y-132098095D01*
X113126190Y-132145714D01*
X112888095Y-132145714D01*
X112792857Y-132098095D01*
X112745238Y-132050476D01*
X112697619Y-131955238D01*
X112697619Y-131669523D01*
X112745238Y-131574285D01*
X112792857Y-131526666D01*
X115197619Y-130621904D02*
X116197619Y-130621904D01*
X116197619Y-130860000D01*
X116150000Y-131002857D01*
X116054761Y-131098095D01*
X115959523Y-131145714D01*
X115769047Y-131193333D01*
X115626190Y-131193333D01*
X115435714Y-131145714D01*
X115340476Y-131098095D01*
X115245238Y-131002857D01*
X115197619Y-130860000D01*
X115197619Y-130621904D01*
X116102380Y-131574285D02*
X116150000Y-131621904D01*
X116197619Y-131717142D01*
X116197619Y-131955238D01*
X116150000Y-132050476D01*
X116102380Y-132098095D01*
X116007142Y-132145714D01*
X115911904Y-132145714D01*
X115769047Y-132098095D01*
X115197619Y-131526666D01*
X115197619Y-132145714D01*
X117697619Y-130621904D02*
X118697619Y-130621904D01*
X118697619Y-130860000D01*
X118650000Y-131002857D01*
X118554761Y-131098095D01*
X118459523Y-131145714D01*
X118269047Y-131193333D01*
X118126190Y-131193333D01*
X117935714Y-131145714D01*
X117840476Y-131098095D01*
X117745238Y-131002857D01*
X117697619Y-130860000D01*
X117697619Y-130621904D01*
X117697619Y-132145714D02*
X117697619Y-131574285D01*
X117697619Y-131860000D02*
X118697619Y-131860000D01*
X118554761Y-131764761D01*
X118459523Y-131669523D01*
X118411904Y-131574285D01*
X108590857Y-103248333D02*
X108543238Y-103200714D01*
X108495619Y-103057857D01*
X108495619Y-102962619D01*
X108543238Y-102819761D01*
X108638476Y-102724523D01*
X108733714Y-102676904D01*
X108924190Y-102629285D01*
X109067047Y-102629285D01*
X109257523Y-102676904D01*
X109352761Y-102724523D01*
X109448000Y-102819761D01*
X109495619Y-102962619D01*
X109495619Y-103057857D01*
X109448000Y-103200714D01*
X109400380Y-103248333D01*
X109400380Y-103629285D02*
X109448000Y-103676904D01*
X109495619Y-103772142D01*
X109495619Y-104010238D01*
X109448000Y-104105476D01*
X109400380Y-104153095D01*
X109305142Y-104200714D01*
X109209904Y-104200714D01*
X109067047Y-104153095D01*
X108495619Y-103581666D01*
X108495619Y-104200714D01*
X108862857Y-110333333D02*
X108815238Y-110285714D01*
X108767619Y-110142857D01*
X108767619Y-110047619D01*
X108815238Y-109904761D01*
X108910476Y-109809523D01*
X109005714Y-109761904D01*
X109196190Y-109714285D01*
X109339047Y-109714285D01*
X109529523Y-109761904D01*
X109624761Y-109809523D01*
X109720000Y-109904761D01*
X109767619Y-110047619D01*
X109767619Y-110142857D01*
X109720000Y-110285714D01*
X109672380Y-110333333D01*
X108767619Y-111285714D02*
X108767619Y-110714285D01*
X108767619Y-111000000D02*
X109767619Y-111000000D01*
X109624761Y-110904761D01*
X109529523Y-110809523D01*
X109481904Y-110714285D01*
D11*
X119098938Y-102734000D02*
X119098938Y-123174000D01*
X119098938Y-104064000D02*
X114428938Y-104064000D01*
X119098938Y-105334000D02*
X116984938Y-105334000D01*
X119098938Y-106604000D02*
X114443938Y-106604000D01*
X119098938Y-107874000D02*
X116984938Y-107874000D01*
X119098938Y-109144000D02*
X114443938Y-109144000D01*
X119098938Y-110414000D02*
X116984938Y-110414000D01*
X119098938Y-111684000D02*
X114443938Y-111684000D01*
X119098938Y-112954000D02*
X116984938Y-112954000D01*
X119098938Y-114224000D02*
X114443938Y-114224000D01*
X119098938Y-115494000D02*
X116984938Y-115494000D01*
X119098938Y-116764000D02*
X114443938Y-116764000D01*
X119098938Y-118034000D02*
X116984938Y-118034000D01*
X119098938Y-119304000D02*
X114443938Y-119304000D01*
X119098938Y-120574000D02*
X116984938Y-120574000D01*
X119098938Y-121844000D02*
X114443938Y-121844000D01*
X102715000Y-131810000D02*
X102715000Y-101210000D01*
X102715000Y-101210000D02*
X100055000Y-101210000D01*
X100055000Y-101210000D02*
X100055000Y-131810000D01*
X100055000Y-131810000D02*
X102715000Y-131810000D01*
X103112071Y-130860000D02*
X102715000Y-130860000D01*
X103112071Y-130100000D02*
X102715000Y-130100000D01*
X105585000Y-130860000D02*
X105197929Y-130860000D01*
X105585000Y-130100000D02*
X105197929Y-130100000D01*
X102715000Y-129210000D02*
X100055000Y-129210000D01*
X103112071Y-128320000D02*
X102715000Y-128320000D01*
X103112071Y-127560000D02*
X102715000Y-127560000D01*
X105652071Y-128320000D02*
X105197929Y-128320000D01*
X105652071Y-127560000D02*
X105197929Y-127560000D01*
X102715000Y-126670000D02*
X100055000Y-126670000D01*
X103112071Y-125780000D02*
X102715000Y-125780000D01*
X103112071Y-125020000D02*
X102715000Y-125020000D01*
X105652071Y-125780000D02*
X105197929Y-125780000D01*
X105652071Y-125020000D02*
X105197929Y-125020000D01*
X102715000Y-124130000D02*
X100055000Y-124130000D01*
X103112071Y-123240000D02*
X102715000Y-123240000D01*
X103112071Y-122480000D02*
X102715000Y-122480000D01*
X105652071Y-123240000D02*
X105197929Y-123240000D01*
X105652071Y-122480000D02*
X105197929Y-122480000D01*
X102715000Y-121590000D02*
X100055000Y-121590000D01*
X103112071Y-120700000D02*
X102715000Y-120700000D01*
X103112071Y-119940000D02*
X102715000Y-119940000D01*
X105652071Y-120700000D02*
X105197929Y-120700000D01*
X105652071Y-119940000D02*
X105197929Y-119940000D01*
X102715000Y-119050000D02*
X100055000Y-119050000D01*
X103112071Y-118160000D02*
X102715000Y-118160000D01*
X103112071Y-117400000D02*
X102715000Y-117400000D01*
X105652071Y-118160000D02*
X105197929Y-118160000D01*
X105652071Y-117400000D02*
X105197929Y-117400000D01*
X102715000Y-116510000D02*
X100055000Y-116510000D01*
X103112071Y-115620000D02*
X102715000Y-115620000D01*
X103112071Y-114860000D02*
X102715000Y-114860000D01*
X105652071Y-115620000D02*
X105197929Y-115620000D01*
X105652071Y-114860000D02*
X105197929Y-114860000D01*
X102715000Y-113970000D02*
X100055000Y-113970000D01*
X103112071Y-113080000D02*
X102715000Y-113080000D01*
X103112071Y-112320000D02*
X102715000Y-112320000D01*
X105652071Y-113080000D02*
X105197929Y-113080000D01*
X105652071Y-112320000D02*
X105197929Y-112320000D01*
X102715000Y-111430000D02*
X100055000Y-111430000D01*
X103112071Y-110540000D02*
X102715000Y-110540000D01*
X103112071Y-109780000D02*
X102715000Y-109780000D01*
X105652071Y-110540000D02*
X105197929Y-110540000D01*
X105652071Y-109780000D02*
X105197929Y-109780000D01*
X102715000Y-108890000D02*
X100055000Y-108890000D01*
X103112071Y-108000000D02*
X102715000Y-108000000D01*
X103112071Y-107240000D02*
X102715000Y-107240000D01*
X105652071Y-108000000D02*
X105197929Y-108000000D01*
X105652071Y-107240000D02*
X105197929Y-107240000D01*
X102715000Y-106350000D02*
X100055000Y-106350000D01*
X103112071Y-105460000D02*
X102715000Y-105460000D01*
X103112071Y-104700000D02*
X102715000Y-104700000D01*
X105652071Y-105460000D02*
X105197929Y-105460000D01*
X105652071Y-104700000D02*
X105197929Y-104700000D01*
X102715000Y-103810000D02*
X100055000Y-103810000D01*
X103112071Y-102920000D02*
X102715000Y-102920000D01*
X103112071Y-102160000D02*
X102715000Y-102160000D01*
X105652071Y-102920000D02*
X105197929Y-102920000D01*
X105652071Y-102160000D02*
X105197929Y-102160000D01*
X107965000Y-130480000D02*
X107965000Y-131750000D01*
X107965000Y-131750000D02*
X106695000Y-131750000D01*
X109850000Y-127010000D02*
X109850000Y-128810000D01*
D12*
X110750000Y-125210000D02*
G75*
G03*
X110750000Y-125210000I-100000J0D01*
G01*
D11*
X111450000Y-127010000D02*
X111450000Y-128810000D01*
X112350000Y-127010000D02*
X112350000Y-128810000D01*
D12*
X113250000Y-125210000D02*
G75*
G03*
X113250000Y-125210000I-100000J0D01*
G01*
D11*
X113950000Y-127010000D02*
X113950000Y-128810000D01*
X114850000Y-127010000D02*
X114850000Y-128810000D01*
D12*
X115750000Y-125210000D02*
G75*
G03*
X115750000Y-125210000I-100000J0D01*
G01*
D11*
X116450000Y-127010000D02*
X116450000Y-128810000D01*
X117350000Y-127010000D02*
X117350000Y-128810000D01*
D12*
X118250000Y-125210000D02*
G75*
G03*
X118250000Y-125210000I-100000J0D01*
G01*
D11*
X118950000Y-127010000D02*
X118950000Y-128810000D01*
X110888000Y-103586267D02*
X110888000Y-103243733D01*
X109868000Y-103586267D02*
X109868000Y-103243733D01*
X110140000Y-110656267D02*
X110140000Y-110313733D01*
X111160000Y-110656267D02*
X111160000Y-110313733D01*
M02*
