%TF.GenerationSoftware,KiCad,Pcbnew,5.99.0-unknown-1463dd1~101~ubuntu20.04.1*%
%TF.CreationDate,2020-07-08T00:12:38-04:00*%
%TF.ProjectId,Metal Detector,4d657461-6c20-4446-9574-6563746f722e,rev?*%
%TF.SameCoordinates,Original*%
%TF.FileFunction,Copper,L1,Top*%
%TF.FilePolarity,Positive*%
%FSLAX46Y46*%
G04 Gerber Fmt 4.6, Leading zero omitted, Abs format (unit mm)*
G04 Created by KiCad (PCBNEW 5.99.0-unknown-1463dd1~101~ubuntu20.04.1) date 2020-07-08 00:12:38*
%MOMM*%
%LPD*%
G01*
G04 APERTURE LIST*
%TA.AperFunction,ComponentPad*%
%ADD10O,1.700000X1.700000*%
%TD*%
%TA.AperFunction,ComponentPad*%
%ADD11R,1.700000X1.700000*%
%TD*%
%TA.AperFunction,SMDPad,CuDef*%
%ADD12R,3.300000X1.700000*%
%TD*%
%TA.AperFunction,SMDPad,CuDef*%
%ADD13R,0.550000X1.600000*%
%TD*%
%TA.AperFunction,SMDPad,CuDef*%
%ADD14R,1.600000X0.550000*%
%TD*%
%TA.AperFunction,ViaPad*%
%ADD15C,0.800000*%
%TD*%
%TA.AperFunction,Conductor*%
%ADD16C,0.500000*%
%TD*%
%TA.AperFunction,Conductor*%
%ADD17C,0.250000*%
%TD*%
%TA.AperFunction,Conductor*%
%ADD18C,0.254000*%
%TD*%
G04 APERTURE END LIST*
D10*
%TO.P,J1,8,Pin_8*%
%TO.N,TX*%
X186944000Y-103632000D03*
%TO.P,J1,7,Pin_7*%
%TO.N,RX*%
X186944000Y-101092000D03*
%TO.P,J1,6,Pin_6*%
%TO.N,GND*%
X184404000Y-103632000D03*
%TO.P,J1,5,Pin_5*%
%TO.N,reset*%
X184404000Y-101092000D03*
%TO.P,J1,4,Pin_4*%
%TO.N,MOSI*%
X181864000Y-103632000D03*
%TO.P,J1,3,Pin_3*%
%TO.N,SCK*%
X181864000Y-101092000D03*
%TO.P,J1,2,Pin_2*%
%TO.N,+5V*%
X179324000Y-103632000D03*
D11*
%TO.P,J1,1,Pin_1*%
%TO.N,MISO*%
X179324000Y-101092000D03*
%TD*%
D10*
%TO.P,coil2,2,2*%
%TO.N,GND*%
X228600000Y-110490000D03*
D11*
%TO.P,coil2,1,1*%
%TO.N,Net-(D3-Pad2)*%
X228600000Y-107950000D03*
%TD*%
%TO.P,R5,2*%
%TO.N,reset*%
%TA.AperFunction,SMDPad,CuDef*%
G36*
G01*
X181198000Y-97011500D02*
X181198000Y-96536500D01*
G75*
G02*
X181435500Y-96299000I237500J0D01*
G01*
X182010500Y-96299000D01*
G75*
G02*
X182248000Y-96536500I0J-237500D01*
G01*
X182248000Y-97011500D01*
G75*
G02*
X182010500Y-97249000I-237500J0D01*
G01*
X181435500Y-97249000D01*
G75*
G02*
X181198000Y-97011500I0J237500D01*
G01*
G37*
%TD.AperFunction*%
%TO.P,R5,1*%
%TO.N,+5V*%
%TA.AperFunction,SMDPad,CuDef*%
G36*
G01*
X179448000Y-97011500D02*
X179448000Y-96536500D01*
G75*
G02*
X179685500Y-96299000I237500J0D01*
G01*
X180260500Y-96299000D01*
G75*
G02*
X180498000Y-96536500I0J-237500D01*
G01*
X180498000Y-97011500D01*
G75*
G02*
X180260500Y-97249000I-237500J0D01*
G01*
X179685500Y-97249000D01*
G75*
G02*
X179448000Y-97011500I0J237500D01*
G01*
G37*
%TD.AperFunction*%
%TD*%
D12*
%TO.P,D4,2,A*%
%TO.N,Net-(D4-Pad2)*%
X211052500Y-95250000D03*
%TO.P,D4,1,K*%
%TO.N,A1*%
X216552500Y-95250000D03*
%TD*%
%TO.P,D3,2,A*%
%TO.N,Net-(D3-Pad2)*%
X211052500Y-105410000D03*
%TO.P,D3,1,K*%
%TO.N,A5*%
X216552500Y-105410000D03*
%TD*%
%TO.P,D2,2,A*%
%TO.N,Net-(D2-Pad2)*%
X211052500Y-100330000D03*
%TO.P,D2,1,K*%
%TO.N,A3*%
X216552500Y-100330000D03*
%TD*%
D13*
%TO.P,U1,32,PD2*%
%TO.N,Net-(U1-Pad32)*%
X194050000Y-97350000D03*
%TO.P,U1,31,PD1*%
%TO.N,TX*%
X194850000Y-97350000D03*
%TO.P,U1,30,PD0*%
%TO.N,RX*%
X195650000Y-97350000D03*
%TO.P,U1,29,~RESET~/PC6*%
%TO.N,reset*%
X196450000Y-97350000D03*
%TO.P,U1,28,PC5*%
%TO.N,A5*%
X197250000Y-97350000D03*
%TO.P,U1,27,PC4*%
%TO.N,A4*%
X198050000Y-97350000D03*
%TO.P,U1,26,PC3*%
%TO.N,A3*%
X198850000Y-97350000D03*
%TO.P,U1,25,PC2*%
%TO.N,A2*%
X199650000Y-97350000D03*
D14*
%TO.P,U1,24,PC1*%
%TO.N,A1*%
X201100000Y-98800000D03*
%TO.P,U1,23,PC0*%
%TO.N,A0*%
X201100000Y-99600000D03*
%TO.P,U1,22,ADC7*%
%TO.N,Net-(U1-Pad22)*%
X201100000Y-100400000D03*
%TO.P,U1,21,GND*%
%TO.N,GND*%
X201100000Y-101200000D03*
%TO.P,U1,20,AREF*%
%TO.N,Net-(U1-Pad20)*%
X201100000Y-102000000D03*
%TO.P,U1,19,ADC6*%
%TO.N,Net-(U1-Pad19)*%
X201100000Y-102800000D03*
%TO.P,U1,18,AVCC*%
%TO.N,+5V*%
X201100000Y-103600000D03*
%TO.P,U1,17,PB5*%
%TO.N,SCK*%
X201100000Y-104400000D03*
D13*
%TO.P,U1,16,PB4*%
%TO.N,MISO*%
X199650000Y-105850000D03*
%TO.P,U1,15,PB3*%
%TO.N,MOSI*%
X198850000Y-105850000D03*
%TO.P,U1,14,PB2*%
%TO.N,Net-(U1-Pad14)*%
X198050000Y-105850000D03*
%TO.P,U1,13,PB1*%
%TO.N,Net-(U1-Pad13)*%
X197250000Y-105850000D03*
%TO.P,U1,12,PB0*%
%TO.N,Net-(U1-Pad12)*%
X196450000Y-105850000D03*
%TO.P,U1,11,PD7*%
%TO.N,Net-(R1-Pad1)*%
X195650000Y-105850000D03*
%TO.P,U1,10,PD6*%
%TO.N,Net-(U1-Pad10)*%
X194850000Y-105850000D03*
%TO.P,U1,9,PD5*%
%TO.N,Net-(U1-Pad9)*%
X194050000Y-105850000D03*
D14*
%TO.P,U1,8,XTAL2/PB7*%
%TO.N,Net-(U1-Pad8)*%
X192600000Y-104400000D03*
%TO.P,U1,7,XTAL1/PB6*%
%TO.N,Net-(U1-Pad7)*%
X192600000Y-103600000D03*
%TO.P,U1,6,VCC*%
%TO.N,+5V*%
X192600000Y-102800000D03*
%TO.P,U1,5,GND*%
%TO.N,GND*%
X192600000Y-102000000D03*
%TO.P,U1,4,VCC*%
%TO.N,+5V*%
X192600000Y-101200000D03*
%TO.P,U1,3,GND*%
%TO.N,GND*%
X192600000Y-100400000D03*
%TO.P,U1,2,PD4*%
%TO.N,Net-(U1-Pad2)*%
X192600000Y-99600000D03*
%TO.P,U1,1,PD3*%
%TO.N,Net-(U1-Pad1)*%
X192600000Y-98800000D03*
%TD*%
%TO.P,R4,2*%
%TO.N,Net-(D4-Pad2)*%
%TA.AperFunction,SMDPad,CuDef*%
G36*
G01*
X206532500Y-95487500D02*
X206532500Y-95012500D01*
G75*
G02*
X206770000Y-94775000I237500J0D01*
G01*
X207345000Y-94775000D01*
G75*
G02*
X207582500Y-95012500I0J-237500D01*
G01*
X207582500Y-95487500D01*
G75*
G02*
X207345000Y-95725000I-237500J0D01*
G01*
X206770000Y-95725000D01*
G75*
G02*
X206532500Y-95487500I0J237500D01*
G01*
G37*
%TD.AperFunction*%
%TO.P,R4,1*%
%TO.N,A0*%
%TA.AperFunction,SMDPad,CuDef*%
G36*
G01*
X204782500Y-95487500D02*
X204782500Y-95012500D01*
G75*
G02*
X205020000Y-94775000I237500J0D01*
G01*
X205595000Y-94775000D01*
G75*
G02*
X205832500Y-95012500I0J-237500D01*
G01*
X205832500Y-95487500D01*
G75*
G02*
X205595000Y-95725000I-237500J0D01*
G01*
X205020000Y-95725000D01*
G75*
G02*
X204782500Y-95487500I0J237500D01*
G01*
G37*
%TD.AperFunction*%
%TD*%
%TO.P,R3,2*%
%TO.N,Net-(D3-Pad2)*%
%TA.AperFunction,SMDPad,CuDef*%
G36*
G01*
X206532500Y-105647500D02*
X206532500Y-105172500D01*
G75*
G02*
X206770000Y-104935000I237500J0D01*
G01*
X207345000Y-104935000D01*
G75*
G02*
X207582500Y-105172500I0J-237500D01*
G01*
X207582500Y-105647500D01*
G75*
G02*
X207345000Y-105885000I-237500J0D01*
G01*
X206770000Y-105885000D01*
G75*
G02*
X206532500Y-105647500I0J237500D01*
G01*
G37*
%TD.AperFunction*%
%TO.P,R3,1*%
%TO.N,A4*%
%TA.AperFunction,SMDPad,CuDef*%
G36*
G01*
X204782500Y-105647500D02*
X204782500Y-105172500D01*
G75*
G02*
X205020000Y-104935000I237500J0D01*
G01*
X205595000Y-104935000D01*
G75*
G02*
X205832500Y-105172500I0J-237500D01*
G01*
X205832500Y-105647500D01*
G75*
G02*
X205595000Y-105885000I-237500J0D01*
G01*
X205020000Y-105885000D01*
G75*
G02*
X204782500Y-105647500I0J237500D01*
G01*
G37*
%TD.AperFunction*%
%TD*%
%TO.P,R2,2*%
%TO.N,Net-(D2-Pad2)*%
%TA.AperFunction,SMDPad,CuDef*%
G36*
G01*
X206532500Y-100567500D02*
X206532500Y-100092500D01*
G75*
G02*
X206770000Y-99855000I237500J0D01*
G01*
X207345000Y-99855000D01*
G75*
G02*
X207582500Y-100092500I0J-237500D01*
G01*
X207582500Y-100567500D01*
G75*
G02*
X207345000Y-100805000I-237500J0D01*
G01*
X206770000Y-100805000D01*
G75*
G02*
X206532500Y-100567500I0J237500D01*
G01*
G37*
%TD.AperFunction*%
%TO.P,R2,1*%
%TO.N,A2*%
%TA.AperFunction,SMDPad,CuDef*%
G36*
G01*
X204782500Y-100567500D02*
X204782500Y-100092500D01*
G75*
G02*
X205020000Y-99855000I237500J0D01*
G01*
X205595000Y-99855000D01*
G75*
G02*
X205832500Y-100092500I0J-237500D01*
G01*
X205832500Y-100567500D01*
G75*
G02*
X205595000Y-100805000I-237500J0D01*
G01*
X205020000Y-100805000D01*
G75*
G02*
X204782500Y-100567500I0J237500D01*
G01*
G37*
%TD.AperFunction*%
%TD*%
%TO.P,R1,2*%
%TO.N,Net-(D1-Pad2)*%
%TA.AperFunction,SMDPad,CuDef*%
G36*
G01*
X206499000Y-110981500D02*
X206499000Y-110506500D01*
G75*
G02*
X206736500Y-110269000I237500J0D01*
G01*
X207311500Y-110269000D01*
G75*
G02*
X207549000Y-110506500I0J-237500D01*
G01*
X207549000Y-110981500D01*
G75*
G02*
X207311500Y-111219000I-237500J0D01*
G01*
X206736500Y-111219000D01*
G75*
G02*
X206499000Y-110981500I0J237500D01*
G01*
G37*
%TD.AperFunction*%
%TO.P,R1,1*%
%TO.N,Net-(R1-Pad1)*%
%TA.AperFunction,SMDPad,CuDef*%
G36*
G01*
X204749000Y-110981500D02*
X204749000Y-110506500D01*
G75*
G02*
X204986500Y-110269000I237500J0D01*
G01*
X205561500Y-110269000D01*
G75*
G02*
X205799000Y-110506500I0J-237500D01*
G01*
X205799000Y-110981500D01*
G75*
G02*
X205561500Y-111219000I-237500J0D01*
G01*
X204986500Y-111219000D01*
G75*
G02*
X204749000Y-110981500I0J237500D01*
G01*
G37*
%TD.AperFunction*%
%TD*%
%TO.P,D1,2,A*%
%TO.N,Net-(D1-Pad2)*%
%TA.AperFunction,SMDPad,CuDef*%
G36*
G01*
X210604000Y-110423000D02*
X210604000Y-111573000D01*
G75*
G02*
X210354000Y-111823000I-250000J0D01*
G01*
X209254000Y-111823000D01*
G75*
G02*
X209004000Y-111573000I0J250000D01*
G01*
X209004000Y-110423000D01*
G75*
G02*
X209254000Y-110173000I250000J0D01*
G01*
X210354000Y-110173000D01*
G75*
G02*
X210604000Y-110423000I0J-250000D01*
G01*
G37*
%TD.AperFunction*%
%TO.P,D1,1,K*%
%TO.N,GND*%
%TA.AperFunction,SMDPad,CuDef*%
G36*
G01*
X213454000Y-110423000D02*
X213454000Y-111573000D01*
G75*
G02*
X213204000Y-111823000I-250000J0D01*
G01*
X212104000Y-111823000D01*
G75*
G02*
X211854000Y-111573000I0J250000D01*
G01*
X211854000Y-110423000D01*
G75*
G02*
X212104000Y-110173000I250000J0D01*
G01*
X213204000Y-110173000D01*
G75*
G02*
X213454000Y-110423000I0J-250000D01*
G01*
G37*
%TD.AperFunction*%
%TD*%
D10*
%TO.P,coil3,2,2*%
%TO.N,GND*%
X228600000Y-95250000D03*
D11*
%TO.P,coil3,1,1*%
%TO.N,Net-(D4-Pad2)*%
X228600000Y-92710000D03*
%TD*%
D10*
%TO.P,coil1,2,2*%
%TO.N,GND*%
X228600000Y-102870000D03*
D11*
%TO.P,coil1,1,1*%
%TO.N,Net-(D2-Pad2)*%
X228600000Y-100330000D03*
%TD*%
%TO.P,C4,2*%
%TO.N,GND*%
%TA.AperFunction,SMDPad,CuDef*%
G36*
G01*
X221872500Y-95700000D02*
X221872500Y-94800000D01*
G75*
G02*
X222122500Y-94550000I250000J0D01*
G01*
X222772500Y-94550000D01*
G75*
G02*
X223022500Y-94800000I0J-250000D01*
G01*
X223022500Y-95700000D01*
G75*
G02*
X222772500Y-95950000I-250000J0D01*
G01*
X222122500Y-95950000D01*
G75*
G02*
X221872500Y-95700000I0J250000D01*
G01*
G37*
%TD.AperFunction*%
%TO.P,C4,1*%
%TO.N,A1*%
%TA.AperFunction,SMDPad,CuDef*%
G36*
G01*
X219822500Y-95700000D02*
X219822500Y-94800000D01*
G75*
G02*
X220072500Y-94550000I250000J0D01*
G01*
X220722500Y-94550000D01*
G75*
G02*
X220972500Y-94800000I0J-250000D01*
G01*
X220972500Y-95700000D01*
G75*
G02*
X220722500Y-95950000I-250000J0D01*
G01*
X220072500Y-95950000D01*
G75*
G02*
X219822500Y-95700000I0J250000D01*
G01*
G37*
%TD.AperFunction*%
%TD*%
%TO.P,C3,2*%
%TO.N,GND*%
%TA.AperFunction,SMDPad,CuDef*%
G36*
G01*
X221872500Y-105860000D02*
X221872500Y-104960000D01*
G75*
G02*
X222122500Y-104710000I250000J0D01*
G01*
X222772500Y-104710000D01*
G75*
G02*
X223022500Y-104960000I0J-250000D01*
G01*
X223022500Y-105860000D01*
G75*
G02*
X222772500Y-106110000I-250000J0D01*
G01*
X222122500Y-106110000D01*
G75*
G02*
X221872500Y-105860000I0J250000D01*
G01*
G37*
%TD.AperFunction*%
%TO.P,C3,1*%
%TO.N,A5*%
%TA.AperFunction,SMDPad,CuDef*%
G36*
G01*
X219822500Y-105860000D02*
X219822500Y-104960000D01*
G75*
G02*
X220072500Y-104710000I250000J0D01*
G01*
X220722500Y-104710000D01*
G75*
G02*
X220972500Y-104960000I0J-250000D01*
G01*
X220972500Y-105860000D01*
G75*
G02*
X220722500Y-106110000I-250000J0D01*
G01*
X220072500Y-106110000D01*
G75*
G02*
X219822500Y-105860000I0J250000D01*
G01*
G37*
%TD.AperFunction*%
%TD*%
%TO.P,C2,2*%
%TO.N,GND*%
%TA.AperFunction,SMDPad,CuDef*%
G36*
G01*
X221872500Y-100780000D02*
X221872500Y-99880000D01*
G75*
G02*
X222122500Y-99630000I250000J0D01*
G01*
X222772500Y-99630000D01*
G75*
G02*
X223022500Y-99880000I0J-250000D01*
G01*
X223022500Y-100780000D01*
G75*
G02*
X222772500Y-101030000I-250000J0D01*
G01*
X222122500Y-101030000D01*
G75*
G02*
X221872500Y-100780000I0J250000D01*
G01*
G37*
%TD.AperFunction*%
%TO.P,C2,1*%
%TO.N,A3*%
%TA.AperFunction,SMDPad,CuDef*%
G36*
G01*
X219822500Y-100780000D02*
X219822500Y-99880000D01*
G75*
G02*
X220072500Y-99630000I250000J0D01*
G01*
X220722500Y-99630000D01*
G75*
G02*
X220972500Y-99880000I0J-250000D01*
G01*
X220972500Y-100780000D01*
G75*
G02*
X220722500Y-101030000I-250000J0D01*
G01*
X220072500Y-101030000D01*
G75*
G02*
X219822500Y-100780000I0J250000D01*
G01*
G37*
%TD.AperFunction*%
%TD*%
%TO.P,C1,2*%
%TO.N,GND*%
%TA.AperFunction,SMDPad,CuDef*%
G36*
G01*
X181298000Y-94684000D02*
X181298000Y-93784000D01*
G75*
G02*
X181548000Y-93534000I250000J0D01*
G01*
X182198000Y-93534000D01*
G75*
G02*
X182448000Y-93784000I0J-250000D01*
G01*
X182448000Y-94684000D01*
G75*
G02*
X182198000Y-94934000I-250000J0D01*
G01*
X181548000Y-94934000D01*
G75*
G02*
X181298000Y-94684000I0J250000D01*
G01*
G37*
%TD.AperFunction*%
%TO.P,C1,1*%
%TO.N,+5V*%
%TA.AperFunction,SMDPad,CuDef*%
G36*
G01*
X179248000Y-94684000D02*
X179248000Y-93784000D01*
G75*
G02*
X179498000Y-93534000I250000J0D01*
G01*
X180148000Y-93534000D01*
G75*
G02*
X180398000Y-93784000I0J-250000D01*
G01*
X180398000Y-94684000D01*
G75*
G02*
X180148000Y-94934000I-250000J0D01*
G01*
X179498000Y-94934000D01*
G75*
G02*
X179248000Y-94684000I0J250000D01*
G01*
G37*
%TD.AperFunction*%
%TD*%
D15*
%TO.N,A1*%
X213614000Y-93726000D03*
X208534000Y-93726000D03*
%TO.N,A5*%
X197358000Y-94742000D03*
X216662000Y-103886000D03*
%TO.N,A4*%
X205232000Y-104140000D03*
X201777727Y-96608000D03*
%TO.N,A3*%
X198882000Y-95758000D03*
X216408000Y-98915500D03*
%TO.N,A2*%
X200914000Y-97282000D03*
X203962000Y-98298000D03*
%TO.N,Net-(R1-Pad1)*%
X195580000Y-110490000D03*
X195633989Y-106967698D03*
%TO.N,+5V*%
X177800000Y-96774000D03*
%TO.N,SCK*%
X199138054Y-104450000D03*
%TO.N,+5V*%
X197104000Y-101854000D03*
%TD*%
D16*
%TO.N,A1*%
X216552500Y-95250000D02*
X215138000Y-95250000D01*
X215138000Y-95250000D02*
X213614000Y-93726000D01*
X208534000Y-93726000D02*
X205101727Y-93726000D01*
X205101727Y-93726000D02*
X202627728Y-96199999D01*
X202627728Y-96199999D02*
X202627728Y-97272272D01*
X202627728Y-97272272D02*
X201100000Y-98800000D01*
%TO.N,A0*%
X205307500Y-95250000D02*
X205307500Y-95725000D01*
X202350001Y-99435001D02*
X202185002Y-99600000D01*
X205307500Y-95725000D02*
X202350001Y-98682499D01*
X202185002Y-99600000D02*
X201100000Y-99600000D01*
X202350001Y-98682499D02*
X202350001Y-99435001D01*
%TO.N,A5*%
X216552500Y-105410000D02*
X216552500Y-103995500D01*
X216552500Y-103995500D02*
X216662000Y-103886000D01*
X197358000Y-94742000D02*
X197250000Y-94850000D01*
X197250000Y-94850000D02*
X197250000Y-97350000D01*
%TO.N,A4*%
X205307500Y-104215500D02*
X205232000Y-104140000D01*
X205307500Y-105410000D02*
X205307500Y-104215500D01*
X200077726Y-94907999D02*
X198473999Y-94907999D01*
X201777727Y-96608000D02*
X200077726Y-94907999D01*
X198473999Y-94907999D02*
X198031999Y-95349999D01*
X198031999Y-95349999D02*
X198031999Y-97331999D01*
X198031999Y-97331999D02*
X198050000Y-97350000D01*
%TO.N,A3*%
X216552500Y-99060000D02*
X216408000Y-98915500D01*
X216552500Y-100330000D02*
X216552500Y-99060000D01*
X198882000Y-95758000D02*
X198882000Y-97318000D01*
X198882000Y-97318000D02*
X198850000Y-97350000D01*
%TO.N,A2*%
X205307500Y-99643500D02*
X203962000Y-98298000D01*
X205307500Y-100330000D02*
X205307500Y-99643500D01*
X200914000Y-97282000D02*
X199718000Y-97282000D01*
X199718000Y-97282000D02*
X199650000Y-97350000D01*
%TO.N,Net-(D4-Pad2)*%
X211052500Y-95250000D02*
X211052500Y-93239500D01*
X211052500Y-93239500D02*
X211582000Y-92710000D01*
X211582000Y-92710000D02*
X228600000Y-92710000D01*
%TO.N,Net-(D2-Pad2)*%
X211052500Y-100330000D02*
X211052500Y-98065500D01*
X211052500Y-98065500D02*
X226335500Y-98065500D01*
X226335500Y-98065500D02*
X228600000Y-100330000D01*
%TO.N,Net-(D3-Pad2)*%
X211052500Y-102891500D02*
X211328000Y-102616000D01*
X225298000Y-104648000D02*
X228600000Y-107950000D01*
X223266000Y-102616000D02*
X225298000Y-104648000D01*
X211052500Y-105410000D02*
X211052500Y-102891500D01*
X211328000Y-102616000D02*
X223266000Y-102616000D01*
%TO.N,Net-(D1-Pad2)*%
X207024000Y-110744000D02*
X209550000Y-110744000D01*
X209550000Y-110744000D02*
X209804000Y-110998000D01*
%TO.N,Net-(R1-Pad1)*%
X195834000Y-110744000D02*
X195580000Y-110490000D01*
X205274000Y-110744000D02*
X195834000Y-110744000D01*
X195633989Y-106967698D02*
X195633989Y-105866011D01*
X195633989Y-105866011D02*
X195650000Y-105850000D01*
%TO.N,+5V*%
X177800000Y-96774000D02*
X177800000Y-96257000D01*
X177800000Y-96257000D02*
X179823000Y-94234000D01*
X177800000Y-96774000D02*
X179973000Y-96774000D01*
%TO.N,MISO*%
X178023999Y-102392001D02*
X178023999Y-104256001D01*
X179324000Y-101092000D02*
X178023999Y-102392001D01*
X182418008Y-108650010D02*
X199451990Y-108650010D01*
X178023999Y-104256001D02*
X182418008Y-108650010D01*
X199451990Y-108650010D02*
X199650000Y-108452000D01*
X199650000Y-108452000D02*
X199650000Y-105850000D01*
%TO.N,SCK*%
X199138054Y-104450000D02*
X201050000Y-104450000D01*
X201050000Y-104450000D02*
X201100000Y-104400000D01*
%TO.N,reset*%
X181723000Y-96774000D02*
X183388000Y-96774000D01*
X183388000Y-96774000D02*
X184404000Y-97790000D01*
%TO.N,MOSI*%
X181864000Y-103632000D02*
X186182000Y-107950000D01*
X198850000Y-107150000D02*
X198850000Y-105850000D01*
X186182000Y-107950000D02*
X198050000Y-107950000D01*
X198050000Y-107950000D02*
X198850000Y-107150000D01*
%TO.N,TX*%
X186944000Y-103632000D02*
X189230000Y-101346000D01*
X189396001Y-96099999D02*
X194651999Y-96099999D01*
X189230000Y-96266000D02*
X189396001Y-96099999D01*
X189230000Y-101346000D02*
X189230000Y-96266000D01*
X194651999Y-96099999D02*
X194850000Y-96298000D01*
X194850000Y-96298000D02*
X194850000Y-97350000D01*
%TO.N,RX*%
X186944000Y-96520000D02*
X188302001Y-95161999D01*
X188302001Y-95161999D02*
X195237999Y-95161999D01*
X186944000Y-101092000D02*
X186944000Y-96520000D01*
X195237999Y-95161999D02*
X195668001Y-95592001D01*
X195668001Y-95592001D02*
X195668001Y-97331999D01*
X195668001Y-97331999D02*
X195650000Y-97350000D01*
%TO.N,+5V*%
X197104000Y-101854000D02*
X196158000Y-102800000D01*
X196158000Y-102800000D02*
X192600000Y-102800000D01*
X197104000Y-101854000D02*
X196450000Y-101200000D01*
X196450000Y-101200000D02*
X192600000Y-101200000D01*
X197104000Y-101854000D02*
X198850000Y-103600000D01*
X198850000Y-103600000D02*
X201100000Y-103600000D01*
%TO.N,reset*%
X184404000Y-101092000D02*
X184404000Y-97790000D01*
X184404000Y-97790000D02*
X187794001Y-94399999D01*
X187794001Y-94399999D02*
X196253999Y-94399999D01*
X196253999Y-94399999D02*
X196450000Y-94596000D01*
X196450000Y-94596000D02*
X196450000Y-97350000D01*
%TO.N,TX*%
X194818000Y-97318000D02*
X194850000Y-97350000D01*
%TO.N,A5*%
X216552500Y-105410000D02*
X220397500Y-105410000D01*
%TO.N,Net-(D3-Pad2)*%
X207057500Y-105410000D02*
X211052500Y-105410000D01*
%TO.N,A1*%
X216552500Y-95250000D02*
X220397500Y-95250000D01*
%TO.N,Net-(D4-Pad2)*%
X207057500Y-95250000D02*
X211052500Y-95250000D01*
%TO.N,Net-(D2-Pad2)*%
X207057500Y-100330000D02*
X211052500Y-100330000D01*
%TO.N,A3*%
X216552500Y-100330000D02*
X220397500Y-100330000D01*
D17*
%TO.N,A2*%
X205787500Y-100330000D02*
X206182500Y-100330000D01*
%TO.N,A5*%
X216552500Y-105410000D02*
X217857500Y-105410000D01*
%TO.N,A3*%
X216552500Y-100330000D02*
X217857500Y-100330000D01*
%TD*%
%TO.N,GND*%
D18*
X229013144Y-81637711D02*
X229423154Y-81691689D01*
X229826885Y-81781194D01*
X230221285Y-81905547D01*
X230603354Y-82063806D01*
X230970158Y-82254752D01*
X231318940Y-82476951D01*
X231647024Y-82728698D01*
X231951912Y-83008077D01*
X232231306Y-83312981D01*
X232483049Y-83641061D01*
X232705248Y-83989843D01*
X232896194Y-84356646D01*
X233054454Y-84738719D01*
X233178806Y-85133115D01*
X233268311Y-85536846D01*
X233322289Y-85946854D01*
X233341282Y-86381868D01*
X233343477Y-86395841D01*
X233346000Y-86405032D01*
X233346001Y-116794665D01*
X233343519Y-116803644D01*
X233341294Y-116817766D01*
X233340974Y-116825198D01*
X233322289Y-117253146D01*
X233268311Y-117663154D01*
X233178806Y-118066885D01*
X233054454Y-118461281D01*
X232896194Y-118843354D01*
X232705248Y-119210157D01*
X232483049Y-119558939D01*
X232231306Y-119887019D01*
X231951912Y-120191923D01*
X231647024Y-120471302D01*
X231318940Y-120723049D01*
X230970158Y-120945248D01*
X230603354Y-121136194D01*
X230221285Y-121294453D01*
X229826885Y-121418806D01*
X229423154Y-121508311D01*
X229013144Y-121562289D01*
X228600000Y-121580328D01*
X228186854Y-121562289D01*
X227776846Y-121508311D01*
X227373115Y-121418806D01*
X226978719Y-121294454D01*
X226596646Y-121136194D01*
X226229843Y-120945248D01*
X225881061Y-120723049D01*
X225552981Y-120471306D01*
X225248077Y-120191912D01*
X224968698Y-119887024D01*
X224716951Y-119558940D01*
X224494752Y-119210158D01*
X224303806Y-118843354D01*
X224145547Y-118461285D01*
X224021194Y-118066885D01*
X223931689Y-117663154D01*
X223877711Y-117253144D01*
X223863531Y-116928364D01*
X226662940Y-116928364D01*
X226663388Y-116937703D01*
X226697278Y-117213708D01*
X226699102Y-117222879D01*
X226773415Y-117490843D01*
X226776575Y-117499644D01*
X226889679Y-117753681D01*
X226894105Y-117761918D01*
X227043517Y-117996447D01*
X227049111Y-118003939D01*
X227231547Y-118213807D01*
X227238187Y-118220390D01*
X227449640Y-118400987D01*
X227457180Y-118406517D01*
X227693004Y-118553876D01*
X227701279Y-118558229D01*
X227956293Y-118669113D01*
X227965121Y-118672196D01*
X228233724Y-118744167D01*
X228242910Y-118745911D01*
X228519200Y-118777390D01*
X228528544Y-118777757D01*
X228806453Y-118768053D01*
X228815748Y-118767035D01*
X229089170Y-118716359D01*
X229098212Y-118713978D01*
X229361140Y-118623445D01*
X229369731Y-118619754D01*
X229616389Y-118491351D01*
X229624341Y-118486431D01*
X229849310Y-118322981D01*
X229856447Y-118316939D01*
X230054786Y-118122032D01*
X230060951Y-118115002D01*
X230228304Y-117892919D01*
X230233362Y-117885055D01*
X230366049Y-117640675D01*
X230369889Y-117632150D01*
X230464998Y-117370841D01*
X230467536Y-117361842D01*
X230523140Y-117088536D01*
X230524386Y-117077605D01*
X230534184Y-116703435D01*
X230533512Y-116692453D01*
X230492288Y-116416612D01*
X230490224Y-116407492D01*
X230408922Y-116141565D01*
X230405533Y-116132850D01*
X230285817Y-115881861D01*
X230281177Y-115873743D01*
X230125678Y-115643206D01*
X230119890Y-115635863D01*
X229932022Y-115430842D01*
X229925212Y-115424435D01*
X229709104Y-115249434D01*
X229701421Y-115244105D01*
X229461821Y-115102970D01*
X229453435Y-115098834D01*
X229195606Y-114994664D01*
X229186700Y-114991814D01*
X228916305Y-114926897D01*
X228907076Y-114925394D01*
X228630056Y-114901158D01*
X228620706Y-114901036D01*
X228343147Y-114918012D01*
X228333882Y-114919273D01*
X228061881Y-114977088D01*
X228052904Y-114979705D01*
X227792436Y-115077091D01*
X227783944Y-115081005D01*
X227540732Y-115215819D01*
X227532912Y-115220946D01*
X227312298Y-115390231D01*
X227305322Y-115396457D01*
X227112153Y-115596489D01*
X227106173Y-115603678D01*
X226944693Y-115830066D01*
X226939842Y-115838059D01*
X226813597Y-116085829D01*
X226809981Y-116094452D01*
X226721745Y-116358160D01*
X226719443Y-116367223D01*
X226671155Y-116641077D01*
X226670219Y-116650380D01*
X226662940Y-116928364D01*
X223863531Y-116928364D01*
X223858718Y-116818132D01*
X223856523Y-116804160D01*
X223854045Y-116795132D01*
X223854059Y-116778655D01*
X223847772Y-116750982D01*
X223834122Y-116722556D01*
X223825774Y-116692144D01*
X223812363Y-116667133D01*
X223801543Y-116654709D01*
X223794411Y-116639856D01*
X223776745Y-116617646D01*
X223752113Y-116597947D01*
X223731407Y-116574169D01*
X223708478Y-116557449D01*
X223693338Y-116550945D01*
X223680447Y-116540635D01*
X223654843Y-116528272D01*
X223624264Y-116521268D01*
X223595214Y-116508787D01*
X223567302Y-116503665D01*
X223512721Y-116506000D01*
X185427563Y-116506000D01*
X185373284Y-116503583D01*
X185345365Y-116508656D01*
X185316366Y-116521055D01*
X185285624Y-116528067D01*
X185260053Y-116540373D01*
X185247167Y-116550641D01*
X185232014Y-116557120D01*
X185209056Y-116573801D01*
X185188303Y-116597549D01*
X185163644Y-116617198D01*
X185145939Y-116639376D01*
X185138780Y-116654219D01*
X185127938Y-116666626D01*
X185114485Y-116691610D01*
X185106083Y-116722007D01*
X185092383Y-116750411D01*
X185086049Y-116778071D01*
X185086034Y-116794545D01*
X185083519Y-116803646D01*
X185081294Y-116817767D01*
X185080974Y-116825198D01*
X185062289Y-117253146D01*
X185008311Y-117663154D01*
X184918806Y-118066885D01*
X184794454Y-118461281D01*
X184636194Y-118843354D01*
X184445248Y-119210157D01*
X184223049Y-119558939D01*
X183971306Y-119887019D01*
X183691912Y-120191923D01*
X183387024Y-120471302D01*
X183058940Y-120723049D01*
X182710158Y-120945248D01*
X182343354Y-121136194D01*
X181961285Y-121294453D01*
X181566885Y-121418806D01*
X181163154Y-121508311D01*
X180753144Y-121562289D01*
X180340000Y-121580328D01*
X179926854Y-121562289D01*
X179516846Y-121508311D01*
X179113115Y-121418806D01*
X178718719Y-121294454D01*
X178336646Y-121136194D01*
X177969843Y-120945248D01*
X177621061Y-120723049D01*
X177292981Y-120471306D01*
X176988077Y-120191912D01*
X176708698Y-119887024D01*
X176456951Y-119558940D01*
X176234752Y-119210158D01*
X176043806Y-118843354D01*
X175885547Y-118461285D01*
X175761194Y-118066885D01*
X175671689Y-117663154D01*
X175617711Y-117253144D01*
X175603531Y-116928364D01*
X178402940Y-116928364D01*
X178403388Y-116937703D01*
X178437278Y-117213708D01*
X178439102Y-117222879D01*
X178513415Y-117490843D01*
X178516575Y-117499644D01*
X178629679Y-117753681D01*
X178634105Y-117761918D01*
X178783517Y-117996447D01*
X178789111Y-118003939D01*
X178971547Y-118213807D01*
X178978187Y-118220390D01*
X179189640Y-118400987D01*
X179197180Y-118406517D01*
X179433004Y-118553876D01*
X179441279Y-118558229D01*
X179696293Y-118669113D01*
X179705121Y-118672196D01*
X179973724Y-118744167D01*
X179982910Y-118745911D01*
X180259200Y-118777390D01*
X180268544Y-118777757D01*
X180546453Y-118768053D01*
X180555748Y-118767035D01*
X180829170Y-118716359D01*
X180838212Y-118713978D01*
X181101140Y-118623445D01*
X181109731Y-118619754D01*
X181356389Y-118491351D01*
X181364341Y-118486431D01*
X181589310Y-118322981D01*
X181596447Y-118316939D01*
X181794786Y-118122032D01*
X181800951Y-118115002D01*
X181968304Y-117892919D01*
X181973362Y-117885055D01*
X182106049Y-117640675D01*
X182109889Y-117632150D01*
X182204998Y-117370841D01*
X182207536Y-117361842D01*
X182263140Y-117088536D01*
X182264386Y-117077605D01*
X182274184Y-116703435D01*
X182273512Y-116692453D01*
X182232288Y-116416612D01*
X182230224Y-116407492D01*
X182148922Y-116141565D01*
X182145533Y-116132850D01*
X182025817Y-115881861D01*
X182021177Y-115873743D01*
X181865678Y-115643206D01*
X181859890Y-115635863D01*
X181672022Y-115430842D01*
X181665212Y-115424435D01*
X181449104Y-115249434D01*
X181441421Y-115244105D01*
X181201821Y-115102970D01*
X181193435Y-115098834D01*
X180935606Y-114994664D01*
X180926700Y-114991814D01*
X180656305Y-114926897D01*
X180647076Y-114925394D01*
X180370056Y-114901158D01*
X180360706Y-114901036D01*
X180083147Y-114918012D01*
X180073882Y-114919273D01*
X179801881Y-114977088D01*
X179792904Y-114979705D01*
X179532436Y-115077091D01*
X179523944Y-115081005D01*
X179280732Y-115215819D01*
X179272912Y-115220946D01*
X179052298Y-115390231D01*
X179045322Y-115396457D01*
X178852153Y-115596489D01*
X178846173Y-115603678D01*
X178684693Y-115830066D01*
X178679842Y-115838059D01*
X178553597Y-116085829D01*
X178549981Y-116094452D01*
X178461745Y-116358160D01*
X178459443Y-116367223D01*
X178411155Y-116641077D01*
X178410219Y-116650380D01*
X178402940Y-116928364D01*
X175603531Y-116928364D01*
X175598718Y-116818132D01*
X175596523Y-116804159D01*
X175594000Y-116794968D01*
X175594000Y-110383470D01*
X194844001Y-110383470D01*
X194844001Y-110596530D01*
X194847104Y-110616119D01*
X194912943Y-110818753D01*
X194921947Y-110836424D01*
X195047182Y-111008795D01*
X195061205Y-111022818D01*
X195233576Y-111148053D01*
X195251247Y-111157057D01*
X195453881Y-111222896D01*
X195473470Y-111225999D01*
X195496847Y-111225999D01*
X195518846Y-111238700D01*
X195573355Y-111276868D01*
X195593338Y-111286186D01*
X195607809Y-111290063D01*
X195620790Y-111297558D01*
X195641509Y-111305099D01*
X195707059Y-111316657D01*
X195771326Y-111333878D01*
X195793290Y-111335799D01*
X195859579Y-111330000D01*
X204540747Y-111330000D01*
X204591770Y-111397566D01*
X204609027Y-111413298D01*
X204770489Y-111513272D01*
X204792264Y-111521707D01*
X204973188Y-111555528D01*
X204984789Y-111556603D01*
X205564671Y-111556603D01*
X205579143Y-111554924D01*
X205801046Y-111502733D01*
X205824844Y-111491561D01*
X205977566Y-111376230D01*
X205993298Y-111358973D01*
X206093272Y-111197511D01*
X206101707Y-111175736D01*
X206135528Y-110994812D01*
X206136603Y-110983211D01*
X206136603Y-110504789D01*
X206161397Y-110504789D01*
X206161397Y-110984671D01*
X206163076Y-110999143D01*
X206215267Y-111221046D01*
X206226439Y-111244844D01*
X206341770Y-111397566D01*
X206359027Y-111413298D01*
X206520489Y-111513272D01*
X206542264Y-111521707D01*
X206723188Y-111555528D01*
X206734789Y-111556603D01*
X207314671Y-111556603D01*
X207329143Y-111554924D01*
X207551046Y-111502733D01*
X207574844Y-111491561D01*
X207727566Y-111376230D01*
X207743298Y-111358973D01*
X207761237Y-111330000D01*
X208666397Y-111330000D01*
X208666397Y-111575955D01*
X208668076Y-111590427D01*
X208721600Y-111817998D01*
X208732772Y-111841796D01*
X208850919Y-111998248D01*
X208868176Y-112013980D01*
X209033612Y-112116414D01*
X209055387Y-112124849D01*
X209240904Y-112159528D01*
X209252505Y-112160603D01*
X210356955Y-112160603D01*
X210371427Y-112158924D01*
X210598998Y-112105400D01*
X210622796Y-112094228D01*
X210779248Y-111976081D01*
X210794980Y-111958824D01*
X210897414Y-111793388D01*
X210905849Y-111771613D01*
X210940528Y-111586096D01*
X210941603Y-111574495D01*
X210941603Y-111199808D01*
X211214776Y-111199808D01*
X211214776Y-111577183D01*
X211216220Y-111590613D01*
X211289255Y-111926353D01*
X211297885Y-111947187D01*
X211426696Y-112147620D01*
X211438499Y-112161241D01*
X211616849Y-112315783D01*
X211632011Y-112325527D01*
X211846677Y-112423561D01*
X211863970Y-112428639D01*
X212093094Y-112461582D01*
X212102071Y-112462224D01*
X212452191Y-112462224D01*
X212526000Y-112388415D01*
X212781999Y-112388415D01*
X212855808Y-112462224D01*
X213208183Y-112462224D01*
X213221613Y-112460780D01*
X213557353Y-112387745D01*
X213578187Y-112379115D01*
X213778620Y-112250304D01*
X213792241Y-112238501D01*
X213946783Y-112060151D01*
X213956527Y-112044989D01*
X214054561Y-111830323D01*
X214059639Y-111813030D01*
X214092582Y-111583906D01*
X214093224Y-111574929D01*
X214093224Y-111199809D01*
X214019415Y-111126000D01*
X212855809Y-111125999D01*
X212782000Y-111199808D01*
X212781999Y-112388415D01*
X212526000Y-112388415D01*
X212526001Y-111199809D01*
X212452192Y-111126000D01*
X211288585Y-111125999D01*
X211214776Y-111199808D01*
X210941603Y-111199808D01*
X210941603Y-110421071D01*
X211214776Y-110421071D01*
X211214776Y-110796191D01*
X211288585Y-110870000D01*
X212452191Y-110870001D01*
X212526000Y-110796192D01*
X212526000Y-110796191D01*
X212781999Y-110796191D01*
X212855808Y-110870000D01*
X214019415Y-110870001D01*
X214093224Y-110796192D01*
X214093224Y-110714853D01*
X227126602Y-110714853D01*
X227189221Y-110966005D01*
X227192669Y-110976104D01*
X227289591Y-111196900D01*
X227294692Y-111206275D01*
X227427430Y-111407584D01*
X227434038Y-111415965D01*
X227598798Y-111592032D01*
X227606722Y-111599180D01*
X227798792Y-111744968D01*
X227807808Y-111750679D01*
X228021696Y-111862021D01*
X228031545Y-111866131D01*
X228261134Y-111939845D01*
X228271535Y-111942236D01*
X228385162Y-111958407D01*
X228472000Y-111883052D01*
X228472000Y-110691809D01*
X228728000Y-110691809D01*
X228728000Y-111883748D01*
X228820218Y-111959362D01*
X229009019Y-111921636D01*
X229019270Y-111918667D01*
X229244387Y-111832253D01*
X229253991Y-111827600D01*
X229461330Y-111704491D01*
X229470012Y-111698286D01*
X229653645Y-111542004D01*
X229661158Y-111534424D01*
X229815833Y-111349435D01*
X229821962Y-111340698D01*
X229943256Y-111132294D01*
X229947825Y-111122650D01*
X230032272Y-110896787D01*
X230035151Y-110886511D01*
X230068943Y-110709369D01*
X229993356Y-110618000D01*
X228801809Y-110618000D01*
X228728000Y-110691809D01*
X228472000Y-110691809D01*
X228398191Y-110618000D01*
X227202272Y-110618000D01*
X227126602Y-110714853D01*
X214093224Y-110714853D01*
X214093224Y-110418817D01*
X214091780Y-110405387D01*
X214018745Y-110069647D01*
X214010115Y-110048813D01*
X213881304Y-109848380D01*
X213869501Y-109834759D01*
X213691151Y-109680217D01*
X213675989Y-109670473D01*
X213461323Y-109572439D01*
X213444030Y-109567361D01*
X213214906Y-109534418D01*
X213205929Y-109533776D01*
X212855809Y-109533776D01*
X212782000Y-109607585D01*
X212781999Y-110796191D01*
X212526000Y-110796191D01*
X212526001Y-109607585D01*
X212452192Y-109533776D01*
X212099817Y-109533776D01*
X212086387Y-109535220D01*
X211750647Y-109608255D01*
X211729813Y-109616885D01*
X211529380Y-109745696D01*
X211515759Y-109757499D01*
X211361217Y-109935849D01*
X211351473Y-109951011D01*
X211253439Y-110165677D01*
X211248361Y-110182970D01*
X211215418Y-110412094D01*
X211214776Y-110421071D01*
X210941603Y-110421071D01*
X210941603Y-110420045D01*
X210939924Y-110405573D01*
X210886400Y-110178002D01*
X210875228Y-110154204D01*
X210757081Y-109997752D01*
X210739824Y-109982020D01*
X210574388Y-109879586D01*
X210552613Y-109871151D01*
X210367096Y-109836472D01*
X210355495Y-109835397D01*
X209251045Y-109835397D01*
X209236573Y-109837076D01*
X209009002Y-109890600D01*
X208985204Y-109901772D01*
X208828752Y-110019919D01*
X208813020Y-110037176D01*
X208738209Y-110158000D01*
X207757253Y-110158000D01*
X207706230Y-110090434D01*
X207688973Y-110074702D01*
X207527511Y-109974728D01*
X207505736Y-109966293D01*
X207324812Y-109932472D01*
X207313211Y-109931397D01*
X206733329Y-109931397D01*
X206718857Y-109933076D01*
X206496954Y-109985267D01*
X206473156Y-109996439D01*
X206320434Y-110111770D01*
X206304702Y-110129027D01*
X206204728Y-110290489D01*
X206196293Y-110312264D01*
X206162472Y-110493188D01*
X206161397Y-110504789D01*
X206136603Y-110504789D01*
X206136603Y-110503329D01*
X206134924Y-110488857D01*
X206082733Y-110266954D01*
X206071561Y-110243156D01*
X205956230Y-110090434D01*
X205938973Y-110074702D01*
X205777511Y-109974728D01*
X205755736Y-109966293D01*
X205574812Y-109932472D01*
X205563211Y-109931397D01*
X204983329Y-109931397D01*
X204968857Y-109933076D01*
X204746954Y-109985267D01*
X204723156Y-109996439D01*
X204570434Y-110111770D01*
X204554702Y-110129027D01*
X204536763Y-110158000D01*
X196245403Y-110158000D01*
X196238053Y-110143576D01*
X196112818Y-109971205D01*
X196098795Y-109957182D01*
X195926424Y-109831947D01*
X195908753Y-109822943D01*
X195706119Y-109757104D01*
X195686530Y-109754001D01*
X195473470Y-109754001D01*
X195453881Y-109757104D01*
X195251247Y-109822943D01*
X195233576Y-109831947D01*
X195061205Y-109957182D01*
X195047182Y-109971205D01*
X194921947Y-110143576D01*
X194912943Y-110161247D01*
X194847104Y-110363881D01*
X194844001Y-110383470D01*
X175594000Y-110383470D01*
X175594000Y-102351292D01*
X177432200Y-102351292D01*
X177437999Y-102417584D01*
X177438000Y-104230407D01*
X177432200Y-104296710D01*
X177434121Y-104318673D01*
X177451345Y-104382955D01*
X177462901Y-104448493D01*
X177470442Y-104469210D01*
X177477935Y-104482189D01*
X177481814Y-104496664D01*
X177491131Y-104516644D01*
X177529301Y-104571158D01*
X177562577Y-104628792D01*
X177576748Y-104645681D01*
X177627735Y-104688464D01*
X181985545Y-109046275D01*
X182028328Y-109097262D01*
X182045218Y-109111434D01*
X182102851Y-109144708D01*
X182157363Y-109182878D01*
X182177346Y-109192196D01*
X182191817Y-109196073D01*
X182204798Y-109203568D01*
X182225517Y-109211109D01*
X182291067Y-109222667D01*
X182355334Y-109239888D01*
X182377298Y-109241809D01*
X182443590Y-109236010D01*
X199426408Y-109236010D01*
X199492699Y-109241809D01*
X199514662Y-109239888D01*
X199578933Y-109222667D01*
X199644482Y-109211109D01*
X199665200Y-109203568D01*
X199678182Y-109196073D01*
X199692652Y-109192195D01*
X199712634Y-109182878D01*
X199767141Y-109144711D01*
X199824781Y-109111434D01*
X199841670Y-109097262D01*
X199884458Y-109046269D01*
X200046261Y-108884466D01*
X200097252Y-108841680D01*
X200111424Y-108824791D01*
X200144699Y-108767154D01*
X200182867Y-108712647D01*
X200192185Y-108692665D01*
X200196064Y-108678189D01*
X200203558Y-108665208D01*
X200211099Y-108644491D01*
X200222655Y-108578949D01*
X200239878Y-108514673D01*
X200241799Y-108492710D01*
X200236000Y-108426421D01*
X200236000Y-106782613D01*
X200242090Y-106767910D01*
X200261862Y-106668510D01*
X200263075Y-106656190D01*
X200263075Y-105170789D01*
X204444897Y-105170789D01*
X204444897Y-105650671D01*
X204446576Y-105665143D01*
X204498767Y-105887046D01*
X204509939Y-105910844D01*
X204625270Y-106063566D01*
X204642527Y-106079298D01*
X204803989Y-106179272D01*
X204825764Y-106187707D01*
X205006688Y-106221528D01*
X205018289Y-106222603D01*
X205598171Y-106222603D01*
X205612643Y-106220924D01*
X205834546Y-106168733D01*
X205858344Y-106157561D01*
X206011066Y-106042230D01*
X206026798Y-106024973D01*
X206126772Y-105863511D01*
X206135207Y-105841736D01*
X206169028Y-105660812D01*
X206170103Y-105649211D01*
X206170103Y-105170789D01*
X206194897Y-105170789D01*
X206194897Y-105650671D01*
X206196576Y-105665143D01*
X206248767Y-105887046D01*
X206259939Y-105910844D01*
X206375270Y-106063566D01*
X206392527Y-106079298D01*
X206553989Y-106179272D01*
X206575764Y-106187707D01*
X206756688Y-106221528D01*
X206768289Y-106222603D01*
X207348171Y-106222603D01*
X207362643Y-106220924D01*
X207584546Y-106168733D01*
X207608344Y-106157561D01*
X207761066Y-106042230D01*
X207776798Y-106024973D01*
X207794737Y-105996000D01*
X209064425Y-105996000D01*
X209064425Y-106266190D01*
X209065638Y-106278510D01*
X209085410Y-106377910D01*
X209094908Y-106400841D01*
X209154669Y-106490280D01*
X209172220Y-106507831D01*
X209261659Y-106567592D01*
X209284590Y-106577090D01*
X209383990Y-106596862D01*
X209396310Y-106598075D01*
X212708690Y-106598075D01*
X212721010Y-106596862D01*
X212820410Y-106577090D01*
X212843341Y-106567592D01*
X212932780Y-106507831D01*
X212950331Y-106490280D01*
X213010092Y-106400841D01*
X213019590Y-106377910D01*
X213039362Y-106278510D01*
X213040575Y-106266190D01*
X213040575Y-104553810D01*
X213039362Y-104541490D01*
X213019590Y-104442090D01*
X213010092Y-104419159D01*
X212950331Y-104329720D01*
X212932780Y-104312169D01*
X212843341Y-104252408D01*
X212820410Y-104242910D01*
X212721010Y-104223138D01*
X212708690Y-104221925D01*
X211638500Y-104221925D01*
X211638500Y-103202000D01*
X216385393Y-103202000D01*
X216333247Y-103218943D01*
X216315576Y-103227947D01*
X216143205Y-103353182D01*
X216129182Y-103367205D01*
X216003947Y-103539576D01*
X215994943Y-103557247D01*
X215929104Y-103759881D01*
X215926001Y-103779470D01*
X215926001Y-103992530D01*
X215929104Y-104012119D01*
X215966501Y-104127216D01*
X215966501Y-104221925D01*
X214896310Y-104221925D01*
X214883990Y-104223138D01*
X214784590Y-104242910D01*
X214761659Y-104252408D01*
X214672220Y-104312169D01*
X214654669Y-104329720D01*
X214594908Y-104419159D01*
X214585410Y-104442090D01*
X214565638Y-104541490D01*
X214564425Y-104553810D01*
X214564425Y-106266190D01*
X214565638Y-106278510D01*
X214585410Y-106377910D01*
X214594908Y-106400841D01*
X214654669Y-106490280D01*
X214672220Y-106507831D01*
X214761659Y-106567592D01*
X214784590Y-106577090D01*
X214883990Y-106596862D01*
X214896310Y-106598075D01*
X218208690Y-106598075D01*
X218221010Y-106596862D01*
X218320410Y-106577090D01*
X218343341Y-106567592D01*
X218432780Y-106507831D01*
X218450331Y-106490280D01*
X218510092Y-106400841D01*
X218519590Y-106377910D01*
X218539362Y-106278510D01*
X218540575Y-106266190D01*
X218540575Y-105996000D01*
X219514464Y-105996000D01*
X219540100Y-106104998D01*
X219551272Y-106128796D01*
X219669419Y-106285248D01*
X219686676Y-106300980D01*
X219852112Y-106403414D01*
X219873887Y-106411849D01*
X220059404Y-106446528D01*
X220071005Y-106447603D01*
X220725455Y-106447603D01*
X220739927Y-106445924D01*
X220967498Y-106392400D01*
X220991296Y-106381228D01*
X221147748Y-106263081D01*
X221163480Y-106245824D01*
X221265914Y-106080388D01*
X221274186Y-106059035D01*
X221307755Y-106213353D01*
X221316385Y-106234187D01*
X221445196Y-106434620D01*
X221456999Y-106448241D01*
X221635349Y-106602783D01*
X221650511Y-106612527D01*
X221865177Y-106710561D01*
X221882470Y-106715639D01*
X222111594Y-106748582D01*
X222120571Y-106749224D01*
X222245691Y-106749224D01*
X222319500Y-106675415D01*
X222319500Y-105611809D01*
X222575500Y-105611809D01*
X222575500Y-106675415D01*
X222649309Y-106749224D01*
X222776683Y-106749224D01*
X222790113Y-106747780D01*
X223125853Y-106674745D01*
X223146687Y-106666115D01*
X223347120Y-106537304D01*
X223360741Y-106525501D01*
X223515283Y-106347151D01*
X223525027Y-106331989D01*
X223623061Y-106117323D01*
X223628139Y-106100030D01*
X223661082Y-105870906D01*
X223661724Y-105861929D01*
X223661724Y-105611809D01*
X223587915Y-105538000D01*
X222649309Y-105538000D01*
X222575500Y-105611809D01*
X222319500Y-105611809D01*
X222319500Y-104144585D01*
X222575500Y-104144585D01*
X222575500Y-105208191D01*
X222649309Y-105282000D01*
X223587915Y-105282000D01*
X223661724Y-105208191D01*
X223661724Y-104955817D01*
X223660280Y-104942387D01*
X223587245Y-104606647D01*
X223578615Y-104585813D01*
X223449804Y-104385380D01*
X223438001Y-104371759D01*
X223259651Y-104217217D01*
X223244489Y-104207473D01*
X223029823Y-104109439D01*
X223012530Y-104104361D01*
X222783406Y-104071418D01*
X222774429Y-104070776D01*
X222649309Y-104070776D01*
X222575500Y-104144585D01*
X222319500Y-104144585D01*
X222245691Y-104070776D01*
X222118317Y-104070776D01*
X222104887Y-104072220D01*
X221769147Y-104145255D01*
X221748313Y-104153885D01*
X221547880Y-104282696D01*
X221534259Y-104294499D01*
X221379717Y-104472849D01*
X221369973Y-104488011D01*
X221271939Y-104702677D01*
X221266861Y-104719970D01*
X221262766Y-104748448D01*
X221254900Y-104715002D01*
X221243728Y-104691204D01*
X221125581Y-104534752D01*
X221108324Y-104519020D01*
X220942888Y-104416586D01*
X220921113Y-104408151D01*
X220735596Y-104373472D01*
X220723995Y-104372397D01*
X220069545Y-104372397D01*
X220055073Y-104374076D01*
X219827502Y-104427600D01*
X219803704Y-104438772D01*
X219647252Y-104556919D01*
X219631520Y-104574176D01*
X219529086Y-104739613D01*
X219520651Y-104761387D01*
X219508947Y-104824000D01*
X218540575Y-104824000D01*
X218540575Y-104553810D01*
X218539362Y-104541490D01*
X218519590Y-104442090D01*
X218510092Y-104419159D01*
X218450331Y-104329720D01*
X218432780Y-104312169D01*
X218343341Y-104252408D01*
X218320410Y-104242910D01*
X218221010Y-104223138D01*
X218208690Y-104221925D01*
X217325403Y-104221925D01*
X217329057Y-104214753D01*
X217394896Y-104012119D01*
X217397999Y-103992530D01*
X217397999Y-103779470D01*
X217394896Y-103759881D01*
X217329057Y-103557247D01*
X217320053Y-103539576D01*
X217194818Y-103367205D01*
X217180795Y-103353182D01*
X217008424Y-103227947D01*
X216990753Y-103218943D01*
X216938607Y-103202000D01*
X223023273Y-103202000D01*
X224916492Y-105095221D01*
X224916503Y-105095230D01*
X227411925Y-107590653D01*
X227411925Y-108806190D01*
X227413138Y-108818510D01*
X227432910Y-108917910D01*
X227442408Y-108940841D01*
X227502169Y-109030280D01*
X227519720Y-109047831D01*
X227609159Y-109107592D01*
X227632090Y-109117090D01*
X227731490Y-109136862D01*
X227743810Y-109138075D01*
X227985803Y-109138075D01*
X227832155Y-109214346D01*
X227823032Y-109219882D01*
X227628199Y-109361957D01*
X227620138Y-109368952D01*
X227452029Y-109541822D01*
X227445263Y-109550074D01*
X227308683Y-109748798D01*
X227303403Y-109758073D01*
X227202260Y-109976968D01*
X227198619Y-109987000D01*
X227124085Y-110263233D01*
X227199734Y-110362000D01*
X229992863Y-110362000D01*
X230068373Y-110272487D01*
X230042499Y-110121114D01*
X230039817Y-110110784D01*
X229959723Y-109883343D01*
X229955339Y-109873612D01*
X229838067Y-109662916D01*
X229832107Y-109654064D01*
X229681013Y-109466140D01*
X229673647Y-109458417D01*
X229493049Y-109298638D01*
X229484486Y-109292267D01*
X229279549Y-109165202D01*
X229270036Y-109160365D01*
X229215142Y-109138075D01*
X229456190Y-109138075D01*
X229468510Y-109136862D01*
X229567910Y-109117090D01*
X229590841Y-109107592D01*
X229680280Y-109047831D01*
X229697831Y-109030280D01*
X229757592Y-108940841D01*
X229767090Y-108917910D01*
X229786862Y-108818510D01*
X229788075Y-108806190D01*
X229788075Y-107093810D01*
X229786862Y-107081490D01*
X229767090Y-106982090D01*
X229757592Y-106959159D01*
X229697831Y-106869720D01*
X229680280Y-106852169D01*
X229590841Y-106792408D01*
X229567910Y-106782910D01*
X229468510Y-106763138D01*
X229456190Y-106761925D01*
X228240653Y-106761925D01*
X225745230Y-104266503D01*
X225745221Y-104266492D01*
X224573581Y-103094853D01*
X227126602Y-103094853D01*
X227189221Y-103346005D01*
X227192669Y-103356104D01*
X227289591Y-103576900D01*
X227294692Y-103586275D01*
X227427430Y-103787584D01*
X227434038Y-103795965D01*
X227598798Y-103972032D01*
X227606722Y-103979180D01*
X227798792Y-104124968D01*
X227807808Y-104130679D01*
X228021696Y-104242021D01*
X228031545Y-104246131D01*
X228261134Y-104319845D01*
X228271535Y-104322236D01*
X228385162Y-104338407D01*
X228472000Y-104263052D01*
X228472000Y-103071809D01*
X228728000Y-103071809D01*
X228728000Y-104263748D01*
X228820218Y-104339362D01*
X229009019Y-104301636D01*
X229019270Y-104298667D01*
X229244387Y-104212253D01*
X229253991Y-104207600D01*
X229461330Y-104084491D01*
X229470012Y-104078286D01*
X229653645Y-103922004D01*
X229661158Y-103914424D01*
X229815833Y-103729435D01*
X229821962Y-103720698D01*
X229943256Y-103512294D01*
X229947825Y-103502650D01*
X230032272Y-103276787D01*
X230035151Y-103266511D01*
X230068943Y-103089369D01*
X229993356Y-102998000D01*
X228801809Y-102998000D01*
X228728000Y-103071809D01*
X228472000Y-103071809D01*
X228398191Y-102998000D01*
X227202272Y-102998000D01*
X227126602Y-103094853D01*
X224573581Y-103094853D01*
X223698468Y-102219741D01*
X223655680Y-102168748D01*
X223638791Y-102154576D01*
X223581151Y-102121299D01*
X223526644Y-102083132D01*
X223506662Y-102073815D01*
X223492192Y-102069937D01*
X223479210Y-102062442D01*
X223458492Y-102054901D01*
X223392943Y-102043343D01*
X223328672Y-102026122D01*
X223306709Y-102024201D01*
X223240418Y-102030000D01*
X211353582Y-102030000D01*
X211287290Y-102024201D01*
X211265326Y-102026122D01*
X211201059Y-102043343D01*
X211135509Y-102054901D01*
X211114790Y-102062442D01*
X211101809Y-102069937D01*
X211087338Y-102073814D01*
X211067356Y-102083132D01*
X211012842Y-102121302D01*
X210955209Y-102154576D01*
X210938320Y-102168748D01*
X210895542Y-102219729D01*
X210656228Y-102459044D01*
X210605250Y-102501820D01*
X210591078Y-102518709D01*
X210557802Y-102576343D01*
X210519632Y-102630857D01*
X210510315Y-102650837D01*
X210506436Y-102665312D01*
X210498943Y-102678291D01*
X210491402Y-102699008D01*
X210479846Y-102764546D01*
X210462622Y-102828828D01*
X210460701Y-102850791D01*
X210466501Y-102917094D01*
X210466500Y-104221925D01*
X209396310Y-104221925D01*
X209383990Y-104223138D01*
X209284590Y-104242910D01*
X209261659Y-104252408D01*
X209172220Y-104312169D01*
X209154669Y-104329720D01*
X209094908Y-104419159D01*
X209085410Y-104442090D01*
X209065638Y-104541490D01*
X209064425Y-104553810D01*
X209064425Y-104824000D01*
X207790753Y-104824000D01*
X207739730Y-104756434D01*
X207722473Y-104740702D01*
X207561011Y-104640728D01*
X207539236Y-104632293D01*
X207358312Y-104598472D01*
X207346711Y-104597397D01*
X206766829Y-104597397D01*
X206752357Y-104599076D01*
X206530454Y-104651267D01*
X206506656Y-104662439D01*
X206353934Y-104777770D01*
X206338202Y-104795027D01*
X206238228Y-104956489D01*
X206229793Y-104978264D01*
X206195972Y-105159188D01*
X206194897Y-105170789D01*
X206170103Y-105170789D01*
X206170103Y-105169329D01*
X206168424Y-105154857D01*
X206116233Y-104932954D01*
X206105061Y-104909156D01*
X205989730Y-104756434D01*
X205972473Y-104740702D01*
X205893500Y-104691804D01*
X205893500Y-104479659D01*
X205899057Y-104468753D01*
X205964896Y-104266119D01*
X205967999Y-104246530D01*
X205967999Y-104033470D01*
X205964896Y-104013881D01*
X205899057Y-103811247D01*
X205890053Y-103793576D01*
X205764818Y-103621205D01*
X205750795Y-103607182D01*
X205578424Y-103481947D01*
X205560753Y-103472943D01*
X205358119Y-103407104D01*
X205338530Y-103404001D01*
X205125470Y-103404001D01*
X205105881Y-103407104D01*
X204903247Y-103472943D01*
X204885576Y-103481947D01*
X204713205Y-103607182D01*
X204699182Y-103621205D01*
X204573947Y-103793576D01*
X204564943Y-103811247D01*
X204499104Y-104013881D01*
X204496001Y-104033470D01*
X204496001Y-104246530D01*
X204499104Y-104266119D01*
X204564943Y-104468753D01*
X204573947Y-104486424D01*
X204699182Y-104658795D01*
X204713206Y-104672819D01*
X204721501Y-104678846D01*
X204721501Y-104688987D01*
X204603934Y-104777770D01*
X204588202Y-104795027D01*
X204488228Y-104956489D01*
X204479793Y-104978264D01*
X204445972Y-105159188D01*
X204444897Y-105170789D01*
X200263075Y-105170789D01*
X200263075Y-105043810D01*
X200262306Y-105036000D01*
X201024418Y-105036000D01*
X201090709Y-105041799D01*
X201112672Y-105039878D01*
X201176943Y-105022657D01*
X201231285Y-105013075D01*
X201906190Y-105013075D01*
X201918510Y-105011862D01*
X202017910Y-104992090D01*
X202040841Y-104982592D01*
X202130280Y-104922831D01*
X202147831Y-104905280D01*
X202207592Y-104815841D01*
X202217090Y-104792910D01*
X202236862Y-104693510D01*
X202238075Y-104681190D01*
X202238075Y-104118810D01*
X202236862Y-104106490D01*
X202217090Y-104007090D01*
X202214153Y-104000000D01*
X202217090Y-103992910D01*
X202236862Y-103893510D01*
X202238075Y-103881190D01*
X202238075Y-103318810D01*
X202236862Y-103306490D01*
X202217090Y-103207090D01*
X202214153Y-103200000D01*
X202217090Y-103192910D01*
X202236862Y-103093510D01*
X202238075Y-103081190D01*
X202238075Y-102518810D01*
X202236862Y-102506490D01*
X202217090Y-102407090D01*
X202214153Y-102400000D01*
X202217090Y-102392910D01*
X202236862Y-102293510D01*
X202238075Y-102281190D01*
X202238075Y-102018950D01*
X202384590Y-101896010D01*
X202398761Y-101879121D01*
X202499359Y-101704880D01*
X202506900Y-101684163D01*
X202540878Y-101491462D01*
X202541837Y-101480501D01*
X202541837Y-101401809D01*
X202468028Y-101328000D01*
X199731972Y-101328000D01*
X199658163Y-101401809D01*
X199658163Y-101483258D01*
X199660319Y-101499634D01*
X199735137Y-101778859D01*
X199747880Y-101803339D01*
X199878990Y-101959590D01*
X199895879Y-101973761D01*
X199961925Y-102011893D01*
X199961925Y-102281190D01*
X199963138Y-102293510D01*
X199982910Y-102392910D01*
X199985847Y-102400000D01*
X199982910Y-102407090D01*
X199963138Y-102506490D01*
X199961925Y-102518810D01*
X199961925Y-103014000D01*
X199092730Y-103014000D01*
X197839999Y-101761271D01*
X197839999Y-101747470D01*
X197836896Y-101727881D01*
X197771057Y-101525247D01*
X197762053Y-101507576D01*
X197636818Y-101335205D01*
X197622795Y-101321182D01*
X197450424Y-101195947D01*
X197432753Y-101186943D01*
X197230119Y-101121104D01*
X197210530Y-101118001D01*
X197196730Y-101118001D01*
X196882461Y-100803733D01*
X196839680Y-100752748D01*
X196822791Y-100738577D01*
X196765152Y-100705299D01*
X196710644Y-100667132D01*
X196690662Y-100657815D01*
X196676192Y-100653937D01*
X196663210Y-100646442D01*
X196642492Y-100638901D01*
X196576943Y-100627343D01*
X196512672Y-100610122D01*
X196490709Y-100608201D01*
X196424418Y-100614000D01*
X194041837Y-100614000D01*
X194041837Y-100601809D01*
X193968028Y-100528000D01*
X192801809Y-100528000D01*
X192742884Y-100586925D01*
X192457116Y-100586925D01*
X192398191Y-100528000D01*
X191231972Y-100528000D01*
X191158163Y-100601809D01*
X191158163Y-100683258D01*
X191160319Y-100699634D01*
X191235137Y-100978859D01*
X191247880Y-101003339D01*
X191378990Y-101159590D01*
X191395879Y-101173761D01*
X191440150Y-101199321D01*
X191315410Y-101303990D01*
X191301239Y-101320879D01*
X191200641Y-101495120D01*
X191193100Y-101515837D01*
X191159122Y-101708538D01*
X191158163Y-101719499D01*
X191158163Y-101798191D01*
X191231972Y-101872000D01*
X192398191Y-101872000D01*
X192457116Y-101813075D01*
X192742884Y-101813075D01*
X192801809Y-101872000D01*
X193968028Y-101872000D01*
X194041837Y-101798191D01*
X194041837Y-101786000D01*
X196207272Y-101786000D01*
X196275271Y-101854000D01*
X195915272Y-102214000D01*
X194041837Y-102214000D01*
X194041837Y-102201809D01*
X193968028Y-102128000D01*
X191231972Y-102128000D01*
X191158163Y-102201809D01*
X191158163Y-102283258D01*
X191160319Y-102299634D01*
X191235137Y-102578859D01*
X191247880Y-102603339D01*
X191378990Y-102759590D01*
X191395879Y-102773761D01*
X191461925Y-102811893D01*
X191461925Y-103081190D01*
X191463138Y-103093510D01*
X191482910Y-103192910D01*
X191485847Y-103200000D01*
X191482910Y-103207090D01*
X191463138Y-103306490D01*
X191461925Y-103318810D01*
X191461925Y-103881190D01*
X191463138Y-103893510D01*
X191482910Y-103992910D01*
X191485847Y-104000000D01*
X191482910Y-104007090D01*
X191463138Y-104106490D01*
X191461925Y-104118810D01*
X191461925Y-104681190D01*
X191463138Y-104693510D01*
X191482910Y-104792910D01*
X191492408Y-104815841D01*
X191552169Y-104905280D01*
X191569720Y-104922831D01*
X191659159Y-104982592D01*
X191682090Y-104992090D01*
X191781490Y-105011862D01*
X191793810Y-105013075D01*
X193406190Y-105013075D01*
X193418510Y-105011862D01*
X193443012Y-105006988D01*
X193438138Y-105031490D01*
X193436925Y-105043810D01*
X193436925Y-106656190D01*
X193438138Y-106668510D01*
X193457910Y-106767910D01*
X193467408Y-106790841D01*
X193527169Y-106880280D01*
X193544720Y-106897831D01*
X193634159Y-106957592D01*
X193657090Y-106967090D01*
X193756490Y-106986862D01*
X193768810Y-106988075D01*
X194331190Y-106988075D01*
X194343510Y-106986862D01*
X194442910Y-106967090D01*
X194450000Y-106964153D01*
X194457090Y-106967090D01*
X194556490Y-106986862D01*
X194568810Y-106988075D01*
X194897990Y-106988075D01*
X194897990Y-107074228D01*
X194901093Y-107093817D01*
X194966932Y-107296451D01*
X194975936Y-107314122D01*
X195012175Y-107364000D01*
X186424728Y-107364000D01*
X184156484Y-105095756D01*
X184189162Y-105100407D01*
X184276000Y-105025052D01*
X184276001Y-103504000D01*
X184532000Y-103504001D01*
X184531999Y-105025748D01*
X184624217Y-105101362D01*
X184813019Y-105063636D01*
X184823270Y-105060667D01*
X185048387Y-104974253D01*
X185057991Y-104969600D01*
X185265330Y-104846491D01*
X185274012Y-104840286D01*
X185457645Y-104684004D01*
X185465158Y-104676424D01*
X185619833Y-104491435D01*
X185625962Y-104482698D01*
X185747256Y-104274294D01*
X185751825Y-104264650D01*
X185833996Y-104044874D01*
X185883562Y-104170063D01*
X185889195Y-104181024D01*
X186008268Y-104365789D01*
X186015923Y-104375448D01*
X186168615Y-104533566D01*
X186178001Y-104541554D01*
X186358498Y-104667002D01*
X186369256Y-104673015D01*
X186570681Y-104761015D01*
X186582403Y-104764823D01*
X186797084Y-104812024D01*
X186809322Y-104813483D01*
X187029083Y-104818087D01*
X187041372Y-104817142D01*
X187257843Y-104778972D01*
X187269713Y-104775657D01*
X187474646Y-104696169D01*
X187485647Y-104690612D01*
X187671238Y-104572832D01*
X187680950Y-104565245D01*
X187840131Y-104413660D01*
X187848184Y-104404330D01*
X187974890Y-104224714D01*
X187980977Y-104213997D01*
X188070381Y-104013191D01*
X188074272Y-104001496D01*
X188123068Y-103786720D01*
X188124632Y-103773606D01*
X188128125Y-103523415D01*
X188126928Y-103510262D01*
X188088507Y-103316220D01*
X189626267Y-101778461D01*
X189677252Y-101735680D01*
X189691424Y-101718791D01*
X189724698Y-101661156D01*
X189762868Y-101606645D01*
X189772186Y-101586662D01*
X189776063Y-101572191D01*
X189783558Y-101559210D01*
X189791099Y-101538491D01*
X189802657Y-101472941D01*
X189819878Y-101408674D01*
X189821799Y-101386710D01*
X189816000Y-101320421D01*
X189816000Y-96685999D01*
X193436925Y-96685999D01*
X193436925Y-98156190D01*
X193438138Y-98168510D01*
X193443012Y-98193012D01*
X193418510Y-98188138D01*
X193406190Y-98186925D01*
X191793810Y-98186925D01*
X191781490Y-98188138D01*
X191682090Y-98207910D01*
X191659159Y-98217408D01*
X191569720Y-98277169D01*
X191552169Y-98294720D01*
X191492408Y-98384159D01*
X191482910Y-98407090D01*
X191463138Y-98506490D01*
X191461925Y-98518810D01*
X191461925Y-99081190D01*
X191463138Y-99093510D01*
X191482910Y-99192910D01*
X191485847Y-99200000D01*
X191482910Y-99207090D01*
X191463138Y-99306490D01*
X191461925Y-99318810D01*
X191461925Y-99581050D01*
X191315410Y-99703990D01*
X191301239Y-99720879D01*
X191200641Y-99895120D01*
X191193100Y-99915837D01*
X191159122Y-100108538D01*
X191158163Y-100119499D01*
X191158163Y-100198191D01*
X191231972Y-100272000D01*
X193968028Y-100272000D01*
X194041837Y-100198191D01*
X194041837Y-100116742D01*
X194039681Y-100100366D01*
X193964863Y-99821142D01*
X193952120Y-99796662D01*
X193821010Y-99640410D01*
X193804121Y-99626239D01*
X193738075Y-99588107D01*
X193738075Y-99318810D01*
X193736862Y-99306490D01*
X193717090Y-99207090D01*
X193714153Y-99200000D01*
X193717090Y-99192910D01*
X193736862Y-99093510D01*
X193738075Y-99081190D01*
X193738075Y-98518810D01*
X193736862Y-98506490D01*
X193731988Y-98481988D01*
X193756490Y-98486862D01*
X193768810Y-98488075D01*
X194331190Y-98488075D01*
X194343510Y-98486862D01*
X194442910Y-98467090D01*
X194450000Y-98464153D01*
X194457090Y-98467090D01*
X194556490Y-98486862D01*
X194568810Y-98488075D01*
X195131190Y-98488075D01*
X195143510Y-98486862D01*
X195242910Y-98467090D01*
X195250000Y-98464153D01*
X195257090Y-98467090D01*
X195356490Y-98486862D01*
X195368810Y-98488075D01*
X195931190Y-98488075D01*
X195943510Y-98486862D01*
X196042910Y-98467090D01*
X196050000Y-98464153D01*
X196057090Y-98467090D01*
X196156490Y-98486862D01*
X196168810Y-98488075D01*
X196731190Y-98488075D01*
X196743510Y-98486862D01*
X196842910Y-98467090D01*
X196850000Y-98464153D01*
X196857090Y-98467090D01*
X196956490Y-98486862D01*
X196968810Y-98488075D01*
X197531190Y-98488075D01*
X197543510Y-98486862D01*
X197642910Y-98467090D01*
X197650000Y-98464153D01*
X197657090Y-98467090D01*
X197756490Y-98486862D01*
X197768810Y-98488075D01*
X198331190Y-98488075D01*
X198343510Y-98486862D01*
X198442910Y-98467090D01*
X198450000Y-98464153D01*
X198457090Y-98467090D01*
X198556490Y-98486862D01*
X198568810Y-98488075D01*
X199131190Y-98488075D01*
X199143510Y-98486862D01*
X199242910Y-98467090D01*
X199250000Y-98464153D01*
X199257090Y-98467090D01*
X199356490Y-98486862D01*
X199368810Y-98488075D01*
X199931190Y-98488075D01*
X199943510Y-98486862D01*
X199968012Y-98481988D01*
X199963138Y-98506490D01*
X199961925Y-98518810D01*
X199961925Y-99081190D01*
X199963138Y-99093510D01*
X199982910Y-99192910D01*
X199985847Y-99200000D01*
X199982910Y-99207090D01*
X199963138Y-99306490D01*
X199961925Y-99318810D01*
X199961925Y-99881190D01*
X199963138Y-99893510D01*
X199982910Y-99992910D01*
X199985847Y-100000000D01*
X199982910Y-100007090D01*
X199963138Y-100106490D01*
X199961925Y-100118810D01*
X199961925Y-100381050D01*
X199815410Y-100503990D01*
X199801239Y-100520879D01*
X199700641Y-100695120D01*
X199693100Y-100715837D01*
X199659122Y-100908538D01*
X199658163Y-100919499D01*
X199658163Y-100998191D01*
X199731972Y-101072000D01*
X202468028Y-101072000D01*
X202541837Y-100998191D01*
X202541837Y-100916742D01*
X202539681Y-100900366D01*
X202464863Y-100621142D01*
X202452120Y-100596662D01*
X202321010Y-100440410D01*
X202304121Y-100426239D01*
X202238075Y-100388107D01*
X202238075Y-100190718D01*
X202247674Y-100189878D01*
X202311945Y-100172657D01*
X202377494Y-100161099D01*
X202398212Y-100153558D01*
X202411194Y-100146063D01*
X202425664Y-100142185D01*
X202445646Y-100132868D01*
X202500154Y-100094701D01*
X202557793Y-100061423D01*
X202574682Y-100047252D01*
X202617463Y-99996267D01*
X202746272Y-99867459D01*
X202797253Y-99824681D01*
X202811424Y-99807792D01*
X202844699Y-99750158D01*
X202882869Y-99695644D01*
X202892187Y-99675663D01*
X202896065Y-99661192D01*
X202903559Y-99648211D01*
X202911099Y-99627493D01*
X202922658Y-99561944D01*
X202939879Y-99497674D01*
X202941800Y-99475711D01*
X202936001Y-99409419D01*
X202936001Y-98925226D01*
X203280114Y-98581113D01*
X203294943Y-98626753D01*
X203303947Y-98644424D01*
X203429182Y-98816795D01*
X203443205Y-98830818D01*
X203615576Y-98956053D01*
X203633247Y-98965057D01*
X203835881Y-99030896D01*
X203855470Y-99033999D01*
X203869271Y-99033999D01*
X204573707Y-99738436D01*
X204488228Y-99876489D01*
X204479793Y-99898264D01*
X204445972Y-100079188D01*
X204444897Y-100090789D01*
X204444897Y-100570671D01*
X204446576Y-100585143D01*
X204498767Y-100807046D01*
X204509939Y-100830844D01*
X204625270Y-100983566D01*
X204642527Y-100999298D01*
X204803989Y-101099272D01*
X204825764Y-101107707D01*
X205006688Y-101141528D01*
X205018289Y-101142603D01*
X205598171Y-101142603D01*
X205612643Y-101140924D01*
X205834546Y-101088733D01*
X205858344Y-101077561D01*
X206011066Y-100962230D01*
X206026798Y-100944973D01*
X206122135Y-100791000D01*
X206221684Y-100791000D01*
X206234004Y-100789787D01*
X206244229Y-100787753D01*
X206248767Y-100807046D01*
X206259939Y-100830844D01*
X206375270Y-100983566D01*
X206392527Y-100999298D01*
X206553989Y-101099272D01*
X206575764Y-101107707D01*
X206756688Y-101141528D01*
X206768289Y-101142603D01*
X207348171Y-101142603D01*
X207362643Y-101140924D01*
X207584546Y-101088733D01*
X207608344Y-101077561D01*
X207761066Y-100962230D01*
X207776798Y-100944973D01*
X207794737Y-100916000D01*
X209064425Y-100916000D01*
X209064425Y-101186190D01*
X209065638Y-101198510D01*
X209085410Y-101297910D01*
X209094908Y-101320841D01*
X209154669Y-101410280D01*
X209172220Y-101427831D01*
X209261659Y-101487592D01*
X209284590Y-101497090D01*
X209383990Y-101516862D01*
X209396310Y-101518075D01*
X212708690Y-101518075D01*
X212721010Y-101516862D01*
X212820410Y-101497090D01*
X212843341Y-101487592D01*
X212932780Y-101427831D01*
X212950331Y-101410280D01*
X213010092Y-101320841D01*
X213019590Y-101297910D01*
X213039362Y-101198510D01*
X213040575Y-101186190D01*
X213040575Y-99473810D01*
X213039362Y-99461490D01*
X213019590Y-99362090D01*
X213010092Y-99339159D01*
X212950331Y-99249720D01*
X212932780Y-99232169D01*
X212843341Y-99172408D01*
X212820410Y-99162910D01*
X212721010Y-99143138D01*
X212708690Y-99141925D01*
X211638500Y-99141925D01*
X211638500Y-98651500D01*
X215719904Y-98651500D01*
X215675104Y-98789381D01*
X215672001Y-98808970D01*
X215672001Y-99022030D01*
X215675104Y-99041619D01*
X215707695Y-99141925D01*
X214896310Y-99141925D01*
X214883990Y-99143138D01*
X214784590Y-99162910D01*
X214761659Y-99172408D01*
X214672220Y-99232169D01*
X214654669Y-99249720D01*
X214594908Y-99339159D01*
X214585410Y-99362090D01*
X214565638Y-99461490D01*
X214564425Y-99473810D01*
X214564425Y-101186190D01*
X214565638Y-101198510D01*
X214585410Y-101297910D01*
X214594908Y-101320841D01*
X214654669Y-101410280D01*
X214672220Y-101427831D01*
X214761659Y-101487592D01*
X214784590Y-101497090D01*
X214883990Y-101516862D01*
X214896310Y-101518075D01*
X218208690Y-101518075D01*
X218221010Y-101516862D01*
X218320410Y-101497090D01*
X218343341Y-101487592D01*
X218432780Y-101427831D01*
X218450331Y-101410280D01*
X218510092Y-101320841D01*
X218519590Y-101297910D01*
X218539362Y-101198510D01*
X218540575Y-101186190D01*
X218540575Y-100916000D01*
X219514464Y-100916000D01*
X219540100Y-101024998D01*
X219551272Y-101048796D01*
X219669419Y-101205248D01*
X219686676Y-101220980D01*
X219852112Y-101323414D01*
X219873887Y-101331849D01*
X220059404Y-101366528D01*
X220071005Y-101367603D01*
X220725455Y-101367603D01*
X220739927Y-101365924D01*
X220967498Y-101312400D01*
X220991296Y-101301228D01*
X221147748Y-101183081D01*
X221163480Y-101165824D01*
X221265914Y-101000388D01*
X221274186Y-100979035D01*
X221307755Y-101133353D01*
X221316385Y-101154187D01*
X221445196Y-101354620D01*
X221456999Y-101368241D01*
X221635349Y-101522783D01*
X221650511Y-101532527D01*
X221865177Y-101630561D01*
X221882470Y-101635639D01*
X222111594Y-101668582D01*
X222120571Y-101669224D01*
X222245691Y-101669224D01*
X222319500Y-101595415D01*
X222319500Y-100531809D01*
X222575500Y-100531809D01*
X222575500Y-101595415D01*
X222649309Y-101669224D01*
X222776683Y-101669224D01*
X222790113Y-101667780D01*
X223125853Y-101594745D01*
X223146687Y-101586115D01*
X223347120Y-101457304D01*
X223360741Y-101445501D01*
X223515283Y-101267151D01*
X223525027Y-101251989D01*
X223623061Y-101037323D01*
X223628139Y-101020030D01*
X223661082Y-100790906D01*
X223661724Y-100781929D01*
X223661724Y-100531809D01*
X223587915Y-100458000D01*
X222649309Y-100458000D01*
X222575500Y-100531809D01*
X222319500Y-100531809D01*
X222319500Y-99064585D01*
X222575500Y-99064585D01*
X222575500Y-100128191D01*
X222649309Y-100202000D01*
X223587915Y-100202000D01*
X223661724Y-100128191D01*
X223661724Y-99875817D01*
X223660280Y-99862387D01*
X223587245Y-99526647D01*
X223578615Y-99505813D01*
X223449804Y-99305380D01*
X223438001Y-99291759D01*
X223259651Y-99137217D01*
X223244489Y-99127473D01*
X223029823Y-99029439D01*
X223012530Y-99024361D01*
X222783406Y-98991418D01*
X222774429Y-98990776D01*
X222649309Y-98990776D01*
X222575500Y-99064585D01*
X222319500Y-99064585D01*
X222245691Y-98990776D01*
X222118317Y-98990776D01*
X222104887Y-98992220D01*
X221769147Y-99065255D01*
X221748313Y-99073885D01*
X221547880Y-99202696D01*
X221534259Y-99214499D01*
X221379717Y-99392849D01*
X221369973Y-99408011D01*
X221271939Y-99622677D01*
X221266861Y-99639970D01*
X221262766Y-99668448D01*
X221254900Y-99635002D01*
X221243728Y-99611204D01*
X221125581Y-99454752D01*
X221108324Y-99439020D01*
X220942888Y-99336586D01*
X220921113Y-99328151D01*
X220735596Y-99293472D01*
X220723995Y-99292397D01*
X220069545Y-99292397D01*
X220055073Y-99294076D01*
X219827502Y-99347600D01*
X219803704Y-99358772D01*
X219647252Y-99476919D01*
X219631520Y-99494176D01*
X219529086Y-99659613D01*
X219520651Y-99681387D01*
X219508947Y-99744000D01*
X218540575Y-99744000D01*
X218540575Y-99473810D01*
X218539362Y-99461490D01*
X218519590Y-99362090D01*
X218510092Y-99339159D01*
X218450331Y-99249720D01*
X218432780Y-99232169D01*
X218343341Y-99172408D01*
X218320410Y-99162910D01*
X218221010Y-99143138D01*
X218208690Y-99141925D01*
X217138500Y-99141925D01*
X217138500Y-99085582D01*
X217144299Y-99019289D01*
X217143999Y-99015860D01*
X217143999Y-98808970D01*
X217140896Y-98789381D01*
X217096096Y-98651500D01*
X226092773Y-98651500D01*
X227411925Y-99970653D01*
X227411925Y-101186190D01*
X227413138Y-101198510D01*
X227432910Y-101297910D01*
X227442408Y-101320841D01*
X227502169Y-101410280D01*
X227519720Y-101427831D01*
X227609159Y-101487592D01*
X227632090Y-101497090D01*
X227731490Y-101516862D01*
X227743810Y-101518075D01*
X227985803Y-101518075D01*
X227832155Y-101594346D01*
X227823032Y-101599882D01*
X227628199Y-101741957D01*
X227620138Y-101748952D01*
X227452029Y-101921822D01*
X227445263Y-101930074D01*
X227308683Y-102128798D01*
X227303403Y-102138073D01*
X227202260Y-102356968D01*
X227198619Y-102367000D01*
X227124085Y-102643233D01*
X227199734Y-102742000D01*
X229992863Y-102742000D01*
X230068373Y-102652487D01*
X230042499Y-102501114D01*
X230039817Y-102490784D01*
X229959723Y-102263343D01*
X229955339Y-102253612D01*
X229838067Y-102042916D01*
X229832107Y-102034064D01*
X229681013Y-101846140D01*
X229673647Y-101838417D01*
X229493049Y-101678638D01*
X229484486Y-101672267D01*
X229279549Y-101545202D01*
X229270036Y-101540365D01*
X229215142Y-101518075D01*
X229456190Y-101518075D01*
X229468510Y-101516862D01*
X229567910Y-101497090D01*
X229590841Y-101487592D01*
X229680280Y-101427831D01*
X229697831Y-101410280D01*
X229757592Y-101320841D01*
X229767090Y-101297910D01*
X229786862Y-101198510D01*
X229788075Y-101186190D01*
X229788075Y-99473810D01*
X229786862Y-99461490D01*
X229767090Y-99362090D01*
X229757592Y-99339159D01*
X229697831Y-99249720D01*
X229680280Y-99232169D01*
X229590841Y-99172408D01*
X229567910Y-99162910D01*
X229468510Y-99143138D01*
X229456190Y-99141925D01*
X228240653Y-99141925D01*
X226767968Y-97669241D01*
X226725180Y-97618248D01*
X226708291Y-97604076D01*
X226650651Y-97570799D01*
X226596144Y-97532632D01*
X226576162Y-97523315D01*
X226561692Y-97519437D01*
X226548710Y-97511942D01*
X226527992Y-97504401D01*
X226462443Y-97492843D01*
X226398172Y-97475622D01*
X226376209Y-97473701D01*
X226309918Y-97479500D01*
X210960368Y-97479500D01*
X210938656Y-97483328D01*
X210900256Y-97497304D01*
X210860008Y-97504402D01*
X210839291Y-97511942D01*
X210803898Y-97532376D01*
X210765499Y-97546352D01*
X210746407Y-97557375D01*
X210715104Y-97583641D01*
X210679709Y-97604077D01*
X210662820Y-97618248D01*
X210636550Y-97649556D01*
X210605249Y-97675821D01*
X210591078Y-97692709D01*
X210570646Y-97728097D01*
X210544375Y-97759406D01*
X210533352Y-97778499D01*
X210519374Y-97816904D01*
X210498943Y-97852290D01*
X210491402Y-97873009D01*
X210484308Y-97913247D01*
X210470329Y-97951653D01*
X210466500Y-97973366D01*
X210466500Y-98156767D01*
X210466501Y-98156773D01*
X210466500Y-99141925D01*
X209396310Y-99141925D01*
X209383990Y-99143138D01*
X209284590Y-99162910D01*
X209261659Y-99172408D01*
X209172220Y-99232169D01*
X209154669Y-99249720D01*
X209094908Y-99339159D01*
X209085410Y-99362090D01*
X209065638Y-99461490D01*
X209064425Y-99473810D01*
X209064425Y-99744000D01*
X207790753Y-99744000D01*
X207739730Y-99676434D01*
X207722473Y-99660702D01*
X207561011Y-99560728D01*
X207539236Y-99552293D01*
X207358312Y-99518472D01*
X207346711Y-99517397D01*
X206766829Y-99517397D01*
X206752357Y-99519076D01*
X206530454Y-99571267D01*
X206506656Y-99582439D01*
X206353934Y-99697770D01*
X206338202Y-99715027D01*
X206241225Y-99871649D01*
X206234004Y-99870213D01*
X206221684Y-99869000D01*
X206120007Y-99869000D01*
X206116233Y-99852955D01*
X206105061Y-99829156D01*
X205989730Y-99676434D01*
X205972473Y-99660702D01*
X205898253Y-99614747D01*
X205899299Y-99602790D01*
X205897378Y-99580826D01*
X205880157Y-99516559D01*
X205868599Y-99451009D01*
X205861058Y-99430290D01*
X205853563Y-99417309D01*
X205849686Y-99402838D01*
X205840368Y-99382855D01*
X205802198Y-99328343D01*
X205768924Y-99270710D01*
X205754752Y-99253820D01*
X205703765Y-99211037D01*
X204697999Y-98205272D01*
X204697999Y-98191470D01*
X204694896Y-98171881D01*
X204629057Y-97969247D01*
X204620053Y-97951576D01*
X204494818Y-97779205D01*
X204480795Y-97765182D01*
X204308424Y-97639947D01*
X204290753Y-97630943D01*
X204245113Y-97616114D01*
X205703765Y-96157463D01*
X205754752Y-96114680D01*
X205768924Y-96097790D01*
X205802198Y-96040157D01*
X205822162Y-96011646D01*
X205834546Y-96008733D01*
X205858344Y-95997561D01*
X206011066Y-95882230D01*
X206026798Y-95864973D01*
X206126772Y-95703511D01*
X206135207Y-95681736D01*
X206169028Y-95500812D01*
X206170103Y-95489211D01*
X206170103Y-95010789D01*
X206194897Y-95010789D01*
X206194897Y-95490671D01*
X206196576Y-95505143D01*
X206248767Y-95727046D01*
X206259939Y-95750844D01*
X206375270Y-95903566D01*
X206392527Y-95919298D01*
X206553989Y-96019272D01*
X206575764Y-96027707D01*
X206756688Y-96061528D01*
X206768289Y-96062603D01*
X207348171Y-96062603D01*
X207362643Y-96060924D01*
X207584546Y-96008733D01*
X207608344Y-95997561D01*
X207761066Y-95882230D01*
X207776798Y-95864973D01*
X207794737Y-95836000D01*
X209064425Y-95836000D01*
X209064425Y-96106190D01*
X209065638Y-96118510D01*
X209085410Y-96217910D01*
X209094908Y-96240841D01*
X209154669Y-96330280D01*
X209172220Y-96347831D01*
X209261659Y-96407592D01*
X209284590Y-96417090D01*
X209383990Y-96436862D01*
X209396310Y-96438075D01*
X212708690Y-96438075D01*
X212721010Y-96436862D01*
X212820410Y-96417090D01*
X212843341Y-96407592D01*
X212932780Y-96347831D01*
X212950331Y-96330280D01*
X213010092Y-96240841D01*
X213019590Y-96217910D01*
X213039362Y-96118510D01*
X213040575Y-96106190D01*
X213040575Y-94393810D01*
X213039362Y-94381490D01*
X213019590Y-94282090D01*
X213010092Y-94259159D01*
X212950331Y-94169720D01*
X212932780Y-94152169D01*
X212843341Y-94092408D01*
X212820410Y-94082910D01*
X212721010Y-94063138D01*
X212708690Y-94061925D01*
X211638500Y-94061925D01*
X211638500Y-93482228D01*
X211824729Y-93296000D01*
X213016669Y-93296000D01*
X212955947Y-93379576D01*
X212946943Y-93397247D01*
X212881104Y-93599881D01*
X212878001Y-93619470D01*
X212878001Y-93832530D01*
X212881104Y-93852119D01*
X212946943Y-94054753D01*
X212955947Y-94072424D01*
X213081182Y-94244795D01*
X213095205Y-94258818D01*
X213267576Y-94384053D01*
X213285247Y-94393057D01*
X213487881Y-94458896D01*
X213507470Y-94461999D01*
X213521272Y-94461999D01*
X214564425Y-95505153D01*
X214564425Y-96106190D01*
X214565638Y-96118510D01*
X214585410Y-96217910D01*
X214594908Y-96240841D01*
X214654669Y-96330280D01*
X214672220Y-96347831D01*
X214761659Y-96407592D01*
X214784590Y-96417090D01*
X214883990Y-96436862D01*
X214896310Y-96438075D01*
X218208690Y-96438075D01*
X218221010Y-96436862D01*
X218320410Y-96417090D01*
X218343341Y-96407592D01*
X218432780Y-96347831D01*
X218450331Y-96330280D01*
X218510092Y-96240841D01*
X218519590Y-96217910D01*
X218539362Y-96118510D01*
X218540575Y-96106190D01*
X218540575Y-95836000D01*
X219514464Y-95836000D01*
X219540100Y-95944998D01*
X219551272Y-95968796D01*
X219669419Y-96125248D01*
X219686676Y-96140980D01*
X219852112Y-96243414D01*
X219873887Y-96251849D01*
X220059404Y-96286528D01*
X220071005Y-96287603D01*
X220725455Y-96287603D01*
X220739927Y-96285924D01*
X220967498Y-96232400D01*
X220991296Y-96221228D01*
X221147748Y-96103081D01*
X221163480Y-96085824D01*
X221265914Y-95920388D01*
X221274186Y-95899035D01*
X221307755Y-96053353D01*
X221316385Y-96074187D01*
X221445196Y-96274620D01*
X221456999Y-96288241D01*
X221635349Y-96442783D01*
X221650511Y-96452527D01*
X221865177Y-96550561D01*
X221882470Y-96555639D01*
X222111594Y-96588582D01*
X222120571Y-96589224D01*
X222245691Y-96589224D01*
X222319500Y-96515415D01*
X222319500Y-95451809D01*
X222575500Y-95451809D01*
X222575500Y-96515415D01*
X222649309Y-96589224D01*
X222776683Y-96589224D01*
X222790113Y-96587780D01*
X223125853Y-96514745D01*
X223146687Y-96506115D01*
X223347120Y-96377304D01*
X223360741Y-96365501D01*
X223515283Y-96187151D01*
X223525027Y-96171989D01*
X223623061Y-95957323D01*
X223628139Y-95940030D01*
X223661082Y-95710906D01*
X223661724Y-95701929D01*
X223661724Y-95474853D01*
X227126602Y-95474853D01*
X227189221Y-95726005D01*
X227192669Y-95736104D01*
X227289591Y-95956900D01*
X227294692Y-95966275D01*
X227427430Y-96167584D01*
X227434038Y-96175965D01*
X227598798Y-96352032D01*
X227606722Y-96359180D01*
X227798792Y-96504968D01*
X227807808Y-96510679D01*
X228021696Y-96622021D01*
X228031545Y-96626131D01*
X228261134Y-96699845D01*
X228271535Y-96702236D01*
X228385162Y-96718407D01*
X228472000Y-96643052D01*
X228472000Y-95451809D01*
X228728000Y-95451809D01*
X228728000Y-96643748D01*
X228820218Y-96719362D01*
X229009019Y-96681636D01*
X229019270Y-96678667D01*
X229244387Y-96592253D01*
X229253991Y-96587600D01*
X229461330Y-96464491D01*
X229470012Y-96458286D01*
X229653645Y-96302004D01*
X229661158Y-96294424D01*
X229815833Y-96109435D01*
X229821962Y-96100698D01*
X229943256Y-95892294D01*
X229947825Y-95882650D01*
X230032272Y-95656787D01*
X230035151Y-95646511D01*
X230068943Y-95469369D01*
X229993356Y-95378000D01*
X228801809Y-95378000D01*
X228728000Y-95451809D01*
X228472000Y-95451809D01*
X228398191Y-95378000D01*
X227202272Y-95378000D01*
X227126602Y-95474853D01*
X223661724Y-95474853D01*
X223661724Y-95451809D01*
X223587915Y-95378000D01*
X222649309Y-95378000D01*
X222575500Y-95451809D01*
X222319500Y-95451809D01*
X222319500Y-93984585D01*
X222575500Y-93984585D01*
X222575500Y-95048191D01*
X222649309Y-95122000D01*
X223587915Y-95122000D01*
X223661724Y-95048191D01*
X223661724Y-94795817D01*
X223660280Y-94782387D01*
X223587245Y-94446647D01*
X223578615Y-94425813D01*
X223449804Y-94225380D01*
X223438001Y-94211759D01*
X223259651Y-94057217D01*
X223244489Y-94047473D01*
X223029823Y-93949439D01*
X223012530Y-93944361D01*
X222783406Y-93911418D01*
X222774429Y-93910776D01*
X222649309Y-93910776D01*
X222575500Y-93984585D01*
X222319500Y-93984585D01*
X222245691Y-93910776D01*
X222118317Y-93910776D01*
X222104887Y-93912220D01*
X221769147Y-93985255D01*
X221748313Y-93993885D01*
X221547880Y-94122696D01*
X221534259Y-94134499D01*
X221379717Y-94312849D01*
X221369973Y-94328011D01*
X221271939Y-94542677D01*
X221266861Y-94559970D01*
X221262766Y-94588448D01*
X221254900Y-94555002D01*
X221243728Y-94531204D01*
X221125581Y-94374752D01*
X221108324Y-94359020D01*
X220942888Y-94256586D01*
X220921113Y-94248151D01*
X220735596Y-94213472D01*
X220723995Y-94212397D01*
X220069545Y-94212397D01*
X220055073Y-94214076D01*
X219827502Y-94267600D01*
X219803704Y-94278772D01*
X219647252Y-94396919D01*
X219631520Y-94414176D01*
X219529086Y-94579613D01*
X219520651Y-94601387D01*
X219508947Y-94664000D01*
X218540575Y-94664000D01*
X218540575Y-94393810D01*
X218539362Y-94381490D01*
X218519590Y-94282090D01*
X218510092Y-94259159D01*
X218450331Y-94169720D01*
X218432780Y-94152169D01*
X218343341Y-94092408D01*
X218320410Y-94082910D01*
X218221010Y-94063138D01*
X218208690Y-94061925D01*
X214896310Y-94061925D01*
X214883990Y-94063138D01*
X214797142Y-94080413D01*
X214349999Y-93633271D01*
X214349999Y-93619470D01*
X214346896Y-93599881D01*
X214281057Y-93397247D01*
X214272053Y-93379576D01*
X214211331Y-93296000D01*
X227411925Y-93296000D01*
X227411925Y-93566190D01*
X227413138Y-93578510D01*
X227432910Y-93677910D01*
X227442408Y-93700841D01*
X227502169Y-93790280D01*
X227519720Y-93807831D01*
X227609159Y-93867592D01*
X227632090Y-93877090D01*
X227731490Y-93896862D01*
X227743810Y-93898075D01*
X227985803Y-93898075D01*
X227832155Y-93974346D01*
X227823032Y-93979882D01*
X227628199Y-94121957D01*
X227620138Y-94128952D01*
X227452029Y-94301822D01*
X227445263Y-94310074D01*
X227308683Y-94508798D01*
X227303403Y-94518073D01*
X227202260Y-94736968D01*
X227198619Y-94747000D01*
X227124085Y-95023233D01*
X227199734Y-95122000D01*
X229992863Y-95122000D01*
X230068373Y-95032487D01*
X230042499Y-94881114D01*
X230039817Y-94870784D01*
X229959723Y-94643343D01*
X229955339Y-94633612D01*
X229838067Y-94422916D01*
X229832107Y-94414064D01*
X229681013Y-94226140D01*
X229673647Y-94218417D01*
X229493049Y-94058638D01*
X229484486Y-94052267D01*
X229279549Y-93925202D01*
X229270036Y-93920365D01*
X229215142Y-93898075D01*
X229456190Y-93898075D01*
X229468510Y-93896862D01*
X229567910Y-93877090D01*
X229590841Y-93867592D01*
X229680280Y-93807831D01*
X229697831Y-93790280D01*
X229757592Y-93700841D01*
X229767090Y-93677910D01*
X229786862Y-93578510D01*
X229788075Y-93566190D01*
X229788075Y-91853810D01*
X229786862Y-91841490D01*
X229767090Y-91742090D01*
X229757592Y-91719159D01*
X229697831Y-91629720D01*
X229680280Y-91612169D01*
X229590841Y-91552408D01*
X229567910Y-91542910D01*
X229468510Y-91523138D01*
X229456190Y-91521925D01*
X227743810Y-91521925D01*
X227731490Y-91523138D01*
X227632090Y-91542910D01*
X227609159Y-91552408D01*
X227519720Y-91612169D01*
X227502169Y-91629720D01*
X227442408Y-91719159D01*
X227432910Y-91742090D01*
X227413138Y-91841490D01*
X227411925Y-91853810D01*
X227411925Y-92124000D01*
X211607582Y-92124000D01*
X211541290Y-92118201D01*
X211519326Y-92120122D01*
X211455059Y-92137343D01*
X211389509Y-92148901D01*
X211368790Y-92156442D01*
X211355809Y-92163937D01*
X211341338Y-92167814D01*
X211321355Y-92177132D01*
X211266843Y-92215302D01*
X211209210Y-92248576D01*
X211192320Y-92262748D01*
X211149537Y-92313735D01*
X210656233Y-92807039D01*
X210605249Y-92849821D01*
X210591078Y-92866709D01*
X210557802Y-92924343D01*
X210519632Y-92978857D01*
X210510315Y-92998837D01*
X210506436Y-93013312D01*
X210498943Y-93026291D01*
X210491402Y-93047008D01*
X210479846Y-93112546D01*
X210462622Y-93176828D01*
X210460701Y-93198791D01*
X210466501Y-93265094D01*
X210466501Y-94061925D01*
X209396310Y-94061925D01*
X209383990Y-94063138D01*
X209284590Y-94082910D01*
X209261659Y-94092408D01*
X209172220Y-94152169D01*
X209154669Y-94169720D01*
X209094908Y-94259159D01*
X209085410Y-94282090D01*
X209065638Y-94381490D01*
X209064425Y-94393810D01*
X209064425Y-94664000D01*
X207790753Y-94664000D01*
X207739730Y-94596434D01*
X207722473Y-94580702D01*
X207561011Y-94480728D01*
X207539236Y-94472293D01*
X207358312Y-94438472D01*
X207346711Y-94437397D01*
X206766829Y-94437397D01*
X206752357Y-94439076D01*
X206530454Y-94491267D01*
X206506656Y-94502439D01*
X206353934Y-94617770D01*
X206338202Y-94635027D01*
X206238228Y-94796489D01*
X206229793Y-94818264D01*
X206195972Y-94999188D01*
X206194897Y-95010789D01*
X206170103Y-95010789D01*
X206170103Y-95009329D01*
X206168424Y-94994857D01*
X206116233Y-94772954D01*
X206105061Y-94749156D01*
X205989730Y-94596434D01*
X205972473Y-94580702D01*
X205811011Y-94480728D01*
X205789236Y-94472293D01*
X205608312Y-94438472D01*
X205596711Y-94437397D01*
X205219059Y-94437397D01*
X205344456Y-94312000D01*
X208088403Y-94312000D01*
X208187576Y-94384053D01*
X208205247Y-94393057D01*
X208407881Y-94458896D01*
X208427470Y-94461999D01*
X208640530Y-94461999D01*
X208660119Y-94458896D01*
X208862753Y-94393057D01*
X208880424Y-94384053D01*
X209052795Y-94258818D01*
X209066818Y-94244795D01*
X209192053Y-94072424D01*
X209201057Y-94054753D01*
X209266896Y-93852119D01*
X209269999Y-93832530D01*
X209269999Y-93619470D01*
X209266896Y-93599881D01*
X209201057Y-93397247D01*
X209192053Y-93379576D01*
X209066818Y-93207205D01*
X209052795Y-93193182D01*
X208880424Y-93067947D01*
X208862753Y-93058943D01*
X208660119Y-92993104D01*
X208640530Y-92990001D01*
X208427470Y-92990001D01*
X208407881Y-92993104D01*
X208205247Y-93058943D01*
X208187576Y-93067947D01*
X208088403Y-93140000D01*
X205127309Y-93140000D01*
X205061017Y-93134201D01*
X205039053Y-93136122D01*
X204974786Y-93153343D01*
X204909236Y-93164901D01*
X204888517Y-93172442D01*
X204875536Y-93179937D01*
X204861065Y-93183814D01*
X204841082Y-93193132D01*
X204786570Y-93231302D01*
X204728937Y-93264576D01*
X204712047Y-93278748D01*
X204669264Y-93329735D01*
X202231469Y-95767531D01*
X202180476Y-95810319D01*
X202166304Y-95827209D01*
X202133026Y-95884850D01*
X202096108Y-95937573D01*
X201903846Y-95875104D01*
X201884257Y-95872001D01*
X201870456Y-95872001D01*
X200510194Y-94511740D01*
X200467406Y-94460747D01*
X200450517Y-94446575D01*
X200392877Y-94413298D01*
X200338370Y-94375131D01*
X200318388Y-94365814D01*
X200303918Y-94361936D01*
X200290936Y-94354441D01*
X200270218Y-94346900D01*
X200204669Y-94335342D01*
X200140398Y-94318121D01*
X200118435Y-94316200D01*
X200052144Y-94321999D01*
X198499578Y-94321999D01*
X198433289Y-94316200D01*
X198411325Y-94318121D01*
X198347058Y-94335342D01*
X198281508Y-94346900D01*
X198260789Y-94354441D01*
X198247808Y-94361936D01*
X198233337Y-94365813D01*
X198213354Y-94375131D01*
X198158842Y-94413301D01*
X198101209Y-94446575D01*
X198084319Y-94460747D01*
X198052725Y-94498400D01*
X198025057Y-94413247D01*
X198016053Y-94395576D01*
X197890818Y-94223205D01*
X197876795Y-94209182D01*
X197704424Y-94083947D01*
X197686753Y-94074943D01*
X197484119Y-94009104D01*
X197464530Y-94006001D01*
X197251470Y-94006001D01*
X197231881Y-94009104D01*
X197029247Y-94074943D01*
X197011576Y-94083947D01*
X196872143Y-94185251D01*
X196846262Y-94163535D01*
X196686467Y-94003740D01*
X196643679Y-93952747D01*
X196626790Y-93938575D01*
X196569150Y-93905298D01*
X196514643Y-93867131D01*
X196494661Y-93857814D01*
X196480191Y-93853936D01*
X196467209Y-93846441D01*
X196446491Y-93838900D01*
X196380942Y-93827342D01*
X196316671Y-93810121D01*
X196294708Y-93808200D01*
X196228417Y-93813999D01*
X187819580Y-93813999D01*
X187753291Y-93808200D01*
X187731327Y-93810121D01*
X187667060Y-93827342D01*
X187601510Y-93838900D01*
X187580791Y-93846441D01*
X187567810Y-93853936D01*
X187553339Y-93857813D01*
X187533356Y-93867131D01*
X187478844Y-93905301D01*
X187421211Y-93938575D01*
X187404321Y-93952747D01*
X187361538Y-94003734D01*
X184404000Y-96961273D01*
X183820468Y-96377741D01*
X183777680Y-96326748D01*
X183760791Y-96312576D01*
X183703151Y-96279299D01*
X183648644Y-96241132D01*
X183628662Y-96231815D01*
X183614192Y-96227937D01*
X183601210Y-96220442D01*
X183580492Y-96212901D01*
X183514943Y-96201343D01*
X183450672Y-96184122D01*
X183428709Y-96182201D01*
X183362418Y-96188000D01*
X182456253Y-96188000D01*
X182405230Y-96120434D01*
X182387973Y-96104702D01*
X182226511Y-96004728D01*
X182204736Y-95996293D01*
X182023812Y-95962472D01*
X182012211Y-95961397D01*
X181432329Y-95961397D01*
X181417857Y-95963076D01*
X181195954Y-96015267D01*
X181172156Y-96026439D01*
X181019434Y-96141770D01*
X181003702Y-96159027D01*
X180903728Y-96320489D01*
X180895293Y-96342264D01*
X180861472Y-96523188D01*
X180860397Y-96534789D01*
X180860397Y-97014671D01*
X180862076Y-97029143D01*
X180914267Y-97251046D01*
X180925439Y-97274844D01*
X181040770Y-97427566D01*
X181058027Y-97443298D01*
X181219489Y-97543272D01*
X181241264Y-97551707D01*
X181422188Y-97585528D01*
X181433789Y-97586603D01*
X182013671Y-97586603D01*
X182028143Y-97584924D01*
X182250046Y-97532733D01*
X182273844Y-97521561D01*
X182426566Y-97406230D01*
X182442298Y-97388973D01*
X182460237Y-97360000D01*
X183145272Y-97360000D01*
X183818001Y-98032730D01*
X183818000Y-100060439D01*
X183663696Y-100161413D01*
X183654091Y-100169136D01*
X183497044Y-100322928D01*
X183489121Y-100332370D01*
X183364936Y-100513738D01*
X183358999Y-100524538D01*
X183272406Y-100726572D01*
X183268680Y-100738320D01*
X183222978Y-100953326D01*
X183221604Y-100965574D01*
X183218536Y-101185363D01*
X183219568Y-101197644D01*
X183259246Y-101413841D01*
X183262644Y-101425689D01*
X183343562Y-101630063D01*
X183349195Y-101641024D01*
X183468268Y-101825789D01*
X183475923Y-101835448D01*
X183628615Y-101993566D01*
X183638001Y-102001554D01*
X183818498Y-102127002D01*
X183829256Y-102133015D01*
X183994867Y-102205368D01*
X183862068Y-102245210D01*
X183852142Y-102249130D01*
X183636155Y-102356346D01*
X183627032Y-102361882D01*
X183432199Y-102503957D01*
X183424138Y-102510952D01*
X183256029Y-102683822D01*
X183249263Y-102692074D01*
X183112683Y-102890798D01*
X183107403Y-102900073D01*
X183006260Y-103118968D01*
X183002618Y-103129000D01*
X182976798Y-103224694D01*
X182916822Y-103079183D01*
X182911036Y-103068301D01*
X182789396Y-102885218D01*
X182781606Y-102875667D01*
X182626722Y-102719697D01*
X182617225Y-102711840D01*
X182434994Y-102588924D01*
X182424153Y-102583062D01*
X182221519Y-102497882D01*
X182209745Y-102494238D01*
X181994425Y-102450039D01*
X181982168Y-102448751D01*
X181762365Y-102447216D01*
X181750090Y-102448333D01*
X181534174Y-102489522D01*
X181522350Y-102493001D01*
X181318547Y-102575343D01*
X181307624Y-102581053D01*
X181123696Y-102701413D01*
X181114091Y-102709136D01*
X180957044Y-102862928D01*
X180949121Y-102872370D01*
X180824936Y-103053738D01*
X180818999Y-103064538D01*
X180732406Y-103266572D01*
X180728680Y-103278320D01*
X180682978Y-103493326D01*
X180681604Y-103505574D01*
X180678536Y-103725363D01*
X180679568Y-103737644D01*
X180719246Y-103953841D01*
X180722644Y-103965689D01*
X180803562Y-104170063D01*
X180809195Y-104181024D01*
X180928268Y-104365789D01*
X180935923Y-104375448D01*
X181088615Y-104533566D01*
X181098001Y-104541554D01*
X181278498Y-104667002D01*
X181289256Y-104673015D01*
X181490681Y-104761015D01*
X181502403Y-104764823D01*
X181717084Y-104812024D01*
X181729322Y-104813483D01*
X181949083Y-104818087D01*
X181961372Y-104817142D01*
X182177843Y-104778972D01*
X182181284Y-104778011D01*
X185467282Y-108064010D01*
X182660736Y-108064010D01*
X179414403Y-104817678D01*
X179421372Y-104817142D01*
X179637843Y-104778972D01*
X179649713Y-104775657D01*
X179854646Y-104696169D01*
X179865647Y-104690612D01*
X180051238Y-104572832D01*
X180060950Y-104565245D01*
X180220131Y-104413660D01*
X180228184Y-104404330D01*
X180354890Y-104224714D01*
X180360977Y-104213997D01*
X180450381Y-104013191D01*
X180454272Y-104001496D01*
X180503068Y-103786720D01*
X180504632Y-103773606D01*
X180508125Y-103523415D01*
X180506928Y-103510262D01*
X180464148Y-103294207D01*
X180460586Y-103282407D01*
X180376822Y-103079183D01*
X180371036Y-103068301D01*
X180249396Y-102885218D01*
X180241606Y-102875667D01*
X180086722Y-102719697D01*
X180077225Y-102711840D01*
X179894994Y-102588924D01*
X179884153Y-102583062D01*
X179681519Y-102497882D01*
X179669745Y-102494238D01*
X179454425Y-102450039D01*
X179442168Y-102448751D01*
X179222365Y-102447216D01*
X179210090Y-102448333D01*
X178994174Y-102489522D01*
X178982350Y-102493001D01*
X178778547Y-102575343D01*
X178767624Y-102581053D01*
X178609999Y-102684201D01*
X178609999Y-102634728D01*
X178964652Y-102280075D01*
X180180190Y-102280075D01*
X180192510Y-102278862D01*
X180291910Y-102259090D01*
X180314841Y-102249592D01*
X180404280Y-102189831D01*
X180421831Y-102172280D01*
X180481592Y-102082841D01*
X180491090Y-102059910D01*
X180510862Y-101960510D01*
X180512075Y-101948190D01*
X180512075Y-101185363D01*
X180678536Y-101185363D01*
X180679568Y-101197644D01*
X180719246Y-101413841D01*
X180722644Y-101425689D01*
X180803562Y-101630063D01*
X180809195Y-101641024D01*
X180928268Y-101825789D01*
X180935923Y-101835448D01*
X181088615Y-101993566D01*
X181098001Y-102001554D01*
X181278498Y-102127002D01*
X181289256Y-102133015D01*
X181490681Y-102221015D01*
X181502403Y-102224823D01*
X181717084Y-102272024D01*
X181729322Y-102273483D01*
X181949083Y-102278087D01*
X181961372Y-102277142D01*
X182177843Y-102238972D01*
X182189713Y-102235657D01*
X182394646Y-102156169D01*
X182405647Y-102150612D01*
X182591238Y-102032832D01*
X182600950Y-102025245D01*
X182760131Y-101873660D01*
X182768184Y-101864330D01*
X182894890Y-101684714D01*
X182900977Y-101673997D01*
X182990381Y-101473191D01*
X182994272Y-101461496D01*
X183043068Y-101246720D01*
X183044632Y-101233606D01*
X183048125Y-100983415D01*
X183046928Y-100970262D01*
X183004148Y-100754207D01*
X183000586Y-100742407D01*
X182916822Y-100539183D01*
X182911036Y-100528301D01*
X182789396Y-100345218D01*
X182781606Y-100335667D01*
X182626722Y-100179697D01*
X182617225Y-100171840D01*
X182434994Y-100048924D01*
X182424153Y-100043062D01*
X182221519Y-99957882D01*
X182209745Y-99954238D01*
X181994425Y-99910039D01*
X181982168Y-99908751D01*
X181762365Y-99907216D01*
X181750090Y-99908333D01*
X181534174Y-99949522D01*
X181522350Y-99953001D01*
X181318547Y-100035343D01*
X181307624Y-100041053D01*
X181123696Y-100161413D01*
X181114091Y-100169136D01*
X180957044Y-100322928D01*
X180949121Y-100332370D01*
X180824936Y-100513738D01*
X180818999Y-100524538D01*
X180732406Y-100726572D01*
X180728680Y-100738320D01*
X180682978Y-100953326D01*
X180681604Y-100965574D01*
X180678536Y-101185363D01*
X180512075Y-101185363D01*
X180512075Y-100235810D01*
X180510862Y-100223490D01*
X180491090Y-100124090D01*
X180481592Y-100101159D01*
X180421831Y-100011720D01*
X180404280Y-99994169D01*
X180314841Y-99934408D01*
X180291910Y-99924910D01*
X180192510Y-99905138D01*
X180180190Y-99903925D01*
X178467810Y-99903925D01*
X178455490Y-99905138D01*
X178356090Y-99924910D01*
X178333159Y-99934408D01*
X178243720Y-99994169D01*
X178226169Y-100011720D01*
X178166408Y-100101159D01*
X178156910Y-100124090D01*
X178137138Y-100223490D01*
X178135925Y-100235810D01*
X178135925Y-101451348D01*
X177627740Y-101959533D01*
X177576747Y-102002321D01*
X177562575Y-102019211D01*
X177529297Y-102076852D01*
X177491131Y-102131357D01*
X177481813Y-102151340D01*
X177477936Y-102165811D01*
X177470441Y-102178792D01*
X177462900Y-102199511D01*
X177451342Y-102265061D01*
X177434121Y-102329328D01*
X177432200Y-102351292D01*
X175594000Y-102351292D01*
X175594000Y-96667470D01*
X177064001Y-96667470D01*
X177064001Y-96880530D01*
X177067104Y-96900119D01*
X177132943Y-97102753D01*
X177141947Y-97120424D01*
X177267182Y-97292795D01*
X177281205Y-97306818D01*
X177453576Y-97432053D01*
X177471247Y-97441057D01*
X177673881Y-97506896D01*
X177693470Y-97509999D01*
X177906530Y-97509999D01*
X177926119Y-97506896D01*
X178128753Y-97441057D01*
X178146424Y-97432053D01*
X178245597Y-97360000D01*
X179239747Y-97360000D01*
X179290770Y-97427566D01*
X179308027Y-97443298D01*
X179469489Y-97543272D01*
X179491264Y-97551707D01*
X179672188Y-97585528D01*
X179683789Y-97586603D01*
X180263671Y-97586603D01*
X180278143Y-97584924D01*
X180500046Y-97532733D01*
X180523844Y-97521561D01*
X180676566Y-97406230D01*
X180692298Y-97388973D01*
X180792272Y-97227511D01*
X180800707Y-97205736D01*
X180834528Y-97024812D01*
X180835603Y-97013211D01*
X180835603Y-96533329D01*
X180833924Y-96518857D01*
X180781733Y-96296954D01*
X180770561Y-96273156D01*
X180655230Y-96120434D01*
X180637973Y-96104702D01*
X180476511Y-96004728D01*
X180454736Y-95996293D01*
X180273812Y-95962472D01*
X180262211Y-95961397D01*
X179682329Y-95961397D01*
X179667857Y-95963076D01*
X179445954Y-96015267D01*
X179422156Y-96026439D01*
X179269434Y-96141770D01*
X179253702Y-96159027D01*
X179235763Y-96188000D01*
X178697727Y-96188000D01*
X179614125Y-95271603D01*
X180150955Y-95271603D01*
X180165427Y-95269924D01*
X180392998Y-95216400D01*
X180416796Y-95205228D01*
X180573248Y-95087081D01*
X180588980Y-95069824D01*
X180691414Y-94904388D01*
X180699686Y-94883035D01*
X180733255Y-95037353D01*
X180741885Y-95058187D01*
X180870696Y-95258620D01*
X180882499Y-95272241D01*
X181060849Y-95426783D01*
X181076011Y-95436527D01*
X181290677Y-95534561D01*
X181307970Y-95539639D01*
X181537094Y-95572582D01*
X181546071Y-95573224D01*
X181671191Y-95573224D01*
X181745000Y-95499415D01*
X181745000Y-94435809D01*
X182001000Y-94435809D01*
X182001000Y-95499415D01*
X182074809Y-95573224D01*
X182202183Y-95573224D01*
X182215613Y-95571780D01*
X182551353Y-95498745D01*
X182572187Y-95490115D01*
X182772620Y-95361304D01*
X182786241Y-95349501D01*
X182940783Y-95171151D01*
X182950527Y-95155989D01*
X183048561Y-94941323D01*
X183053639Y-94924030D01*
X183086582Y-94694906D01*
X183087224Y-94685929D01*
X183087224Y-94435809D01*
X183013415Y-94362000D01*
X182074809Y-94362000D01*
X182001000Y-94435809D01*
X181745000Y-94435809D01*
X181745000Y-92968585D01*
X182001000Y-92968585D01*
X182001000Y-94032191D01*
X182074809Y-94106000D01*
X183013415Y-94106000D01*
X183087224Y-94032191D01*
X183087224Y-93779817D01*
X183085780Y-93766387D01*
X183012745Y-93430647D01*
X183004115Y-93409813D01*
X182875304Y-93209380D01*
X182863501Y-93195759D01*
X182685151Y-93041217D01*
X182669989Y-93031473D01*
X182455323Y-92933439D01*
X182438030Y-92928361D01*
X182208906Y-92895418D01*
X182199929Y-92894776D01*
X182074809Y-92894776D01*
X182001000Y-92968585D01*
X181745000Y-92968585D01*
X181671191Y-92894776D01*
X181543817Y-92894776D01*
X181530387Y-92896220D01*
X181194647Y-92969255D01*
X181173813Y-92977885D01*
X180973380Y-93106696D01*
X180959759Y-93118499D01*
X180805217Y-93296849D01*
X180795473Y-93312011D01*
X180697439Y-93526677D01*
X180692361Y-93543970D01*
X180688266Y-93572448D01*
X180680400Y-93539002D01*
X180669228Y-93515204D01*
X180551081Y-93358752D01*
X180533824Y-93343020D01*
X180368388Y-93240586D01*
X180346613Y-93232151D01*
X180161096Y-93197472D01*
X180149495Y-93196397D01*
X179495045Y-93196397D01*
X179480573Y-93198076D01*
X179253002Y-93251600D01*
X179229204Y-93262772D01*
X179072752Y-93380919D01*
X179057020Y-93398176D01*
X178954586Y-93563612D01*
X178946151Y-93585387D01*
X178911472Y-93770904D01*
X178910397Y-93782505D01*
X178910397Y-94317875D01*
X177403736Y-95824537D01*
X177352749Y-95867320D01*
X177338578Y-95884209D01*
X177305302Y-95941843D01*
X177267132Y-95996357D01*
X177257815Y-96016337D01*
X177253936Y-96030812D01*
X177246443Y-96043791D01*
X177238902Y-96064508D01*
X177227346Y-96130046D01*
X177210122Y-96194328D01*
X177208201Y-96216291D01*
X177214001Y-96282594D01*
X177214001Y-96328402D01*
X177141947Y-96427576D01*
X177132943Y-96445247D01*
X177067104Y-96647881D01*
X177064001Y-96667470D01*
X175594000Y-96667470D01*
X175594000Y-86448364D01*
X178402940Y-86448364D01*
X178403388Y-86457703D01*
X178437278Y-86733708D01*
X178439102Y-86742879D01*
X178513415Y-87010843D01*
X178516575Y-87019644D01*
X178629679Y-87273681D01*
X178634105Y-87281918D01*
X178783517Y-87516447D01*
X178789111Y-87523939D01*
X178971547Y-87733807D01*
X178978187Y-87740390D01*
X179189640Y-87920987D01*
X179197180Y-87926517D01*
X179433004Y-88073876D01*
X179441279Y-88078229D01*
X179696293Y-88189113D01*
X179705121Y-88192196D01*
X179973724Y-88264167D01*
X179982910Y-88265911D01*
X180259200Y-88297390D01*
X180268544Y-88297757D01*
X180546453Y-88288053D01*
X180555748Y-88287035D01*
X180829170Y-88236359D01*
X180838212Y-88233978D01*
X181101140Y-88143445D01*
X181109731Y-88139754D01*
X181356389Y-88011351D01*
X181364341Y-88006431D01*
X181589310Y-87842981D01*
X181596447Y-87836939D01*
X181794786Y-87642032D01*
X181800951Y-87635002D01*
X181968304Y-87412919D01*
X181973362Y-87405055D01*
X182106049Y-87160675D01*
X182109889Y-87152150D01*
X182204998Y-86890841D01*
X182207536Y-86881842D01*
X182263140Y-86608536D01*
X182264386Y-86597605D01*
X182274184Y-86223435D01*
X182273512Y-86212453D01*
X182232288Y-85936612D01*
X182230224Y-85927492D01*
X182148922Y-85661565D01*
X182145533Y-85652850D01*
X182025817Y-85401861D01*
X182021177Y-85393743D01*
X181865678Y-85163206D01*
X181859890Y-85155863D01*
X181672022Y-84950842D01*
X181665212Y-84944435D01*
X181449104Y-84769434D01*
X181441421Y-84764105D01*
X181201821Y-84622970D01*
X181193435Y-84618834D01*
X180935606Y-84514664D01*
X180926700Y-84511814D01*
X180656305Y-84446897D01*
X180647076Y-84445394D01*
X180370056Y-84421158D01*
X180360706Y-84421036D01*
X180083147Y-84438012D01*
X180073882Y-84439273D01*
X179801881Y-84497088D01*
X179792904Y-84499705D01*
X179532436Y-84597091D01*
X179523944Y-84601005D01*
X179280732Y-84735819D01*
X179272912Y-84740946D01*
X179052298Y-84910231D01*
X179045322Y-84916457D01*
X178852153Y-85116489D01*
X178846173Y-85123678D01*
X178684693Y-85350066D01*
X178679842Y-85358059D01*
X178553597Y-85605829D01*
X178549981Y-85614452D01*
X178461745Y-85878160D01*
X178459443Y-85887223D01*
X178411155Y-86161077D01*
X178410219Y-86170380D01*
X178402940Y-86448364D01*
X175594000Y-86448364D01*
X175594000Y-86405332D01*
X175596481Y-86396355D01*
X175598706Y-86382234D01*
X175599026Y-86374802D01*
X175617711Y-85946856D01*
X175671689Y-85536846D01*
X175761194Y-85133115D01*
X175885547Y-84738715D01*
X176043806Y-84356646D01*
X176234752Y-83989842D01*
X176456951Y-83641060D01*
X176708698Y-83312976D01*
X176988077Y-83008088D01*
X177292981Y-82728694D01*
X177621061Y-82476951D01*
X177969843Y-82254752D01*
X178336646Y-82063806D01*
X178718719Y-81905546D01*
X179113115Y-81781194D01*
X179516846Y-81691689D01*
X179926854Y-81637711D01*
X180340000Y-81619672D01*
X180753144Y-81637711D01*
X181163154Y-81691689D01*
X181566885Y-81781194D01*
X181961285Y-81905547D01*
X182343354Y-82063806D01*
X182710158Y-82254752D01*
X183058940Y-82476951D01*
X183387024Y-82728698D01*
X183691912Y-83008077D01*
X183971306Y-83312981D01*
X184223049Y-83641061D01*
X184445248Y-83989843D01*
X184636194Y-84356646D01*
X184794454Y-84738719D01*
X184918806Y-85133115D01*
X185008311Y-85536846D01*
X185062289Y-85946854D01*
X185081282Y-86381867D01*
X185083477Y-86395840D01*
X185085955Y-86404868D01*
X185085941Y-86421345D01*
X185092228Y-86449018D01*
X185105878Y-86477444D01*
X185114226Y-86507856D01*
X185127637Y-86532867D01*
X185138457Y-86545291D01*
X185145589Y-86560144D01*
X185163255Y-86582354D01*
X185187887Y-86602053D01*
X185208593Y-86625831D01*
X185231522Y-86642551D01*
X185246662Y-86649055D01*
X185259553Y-86659365D01*
X185285157Y-86671728D01*
X185315736Y-86678732D01*
X185344786Y-86691213D01*
X185372698Y-86696335D01*
X185427279Y-86694000D01*
X223512445Y-86694000D01*
X223566715Y-86696418D01*
X223594637Y-86691343D01*
X223623631Y-86678946D01*
X223654376Y-86671933D01*
X223679948Y-86659626D01*
X223692836Y-86649356D01*
X223707985Y-86642879D01*
X223730943Y-86626199D01*
X223751691Y-86602457D01*
X223776357Y-86582801D01*
X223794061Y-86560623D01*
X223801219Y-86545782D01*
X223812062Y-86533374D01*
X223825515Y-86508390D01*
X223833917Y-86477993D01*
X223847617Y-86449589D01*
X223847897Y-86448364D01*
X226662940Y-86448364D01*
X226663388Y-86457703D01*
X226697278Y-86733708D01*
X226699102Y-86742879D01*
X226773415Y-87010843D01*
X226776575Y-87019644D01*
X226889679Y-87273681D01*
X226894105Y-87281918D01*
X227043517Y-87516447D01*
X227049111Y-87523939D01*
X227231547Y-87733807D01*
X227238187Y-87740390D01*
X227449640Y-87920987D01*
X227457180Y-87926517D01*
X227693004Y-88073876D01*
X227701279Y-88078229D01*
X227956293Y-88189113D01*
X227965121Y-88192196D01*
X228233724Y-88264167D01*
X228242910Y-88265911D01*
X228519200Y-88297390D01*
X228528544Y-88297757D01*
X228806453Y-88288053D01*
X228815748Y-88287035D01*
X229089170Y-88236359D01*
X229098212Y-88233978D01*
X229361140Y-88143445D01*
X229369731Y-88139754D01*
X229616389Y-88011351D01*
X229624341Y-88006431D01*
X229849310Y-87842981D01*
X229856447Y-87836939D01*
X230054786Y-87642032D01*
X230060951Y-87635002D01*
X230228304Y-87412919D01*
X230233362Y-87405055D01*
X230366049Y-87160675D01*
X230369889Y-87152150D01*
X230464998Y-86890841D01*
X230467536Y-86881842D01*
X230523140Y-86608536D01*
X230524386Y-86597605D01*
X230534184Y-86223435D01*
X230533512Y-86212453D01*
X230492288Y-85936612D01*
X230490224Y-85927492D01*
X230408922Y-85661565D01*
X230405533Y-85652850D01*
X230285817Y-85401861D01*
X230281177Y-85393743D01*
X230125678Y-85163206D01*
X230119890Y-85155863D01*
X229932022Y-84950842D01*
X229925212Y-84944435D01*
X229709104Y-84769434D01*
X229701421Y-84764105D01*
X229461821Y-84622970D01*
X229453435Y-84618834D01*
X229195606Y-84514664D01*
X229186700Y-84511814D01*
X228916305Y-84446897D01*
X228907076Y-84445394D01*
X228630056Y-84421158D01*
X228620706Y-84421036D01*
X228343147Y-84438012D01*
X228333882Y-84439273D01*
X228061881Y-84497088D01*
X228052904Y-84499705D01*
X227792436Y-84597091D01*
X227783944Y-84601005D01*
X227540732Y-84735819D01*
X227532912Y-84740946D01*
X227312298Y-84910231D01*
X227305322Y-84916457D01*
X227112153Y-85116489D01*
X227106173Y-85123678D01*
X226944693Y-85350066D01*
X226939842Y-85358059D01*
X226813597Y-85605829D01*
X226809981Y-85614452D01*
X226721745Y-85878160D01*
X226719443Y-85887223D01*
X226671155Y-86161077D01*
X226670219Y-86170380D01*
X226662940Y-86448364D01*
X223847897Y-86448364D01*
X223853951Y-86421929D01*
X223853966Y-86405455D01*
X223856481Y-86396354D01*
X223858706Y-86382233D01*
X223859026Y-86374802D01*
X223877711Y-85946856D01*
X223931689Y-85536846D01*
X224021194Y-85133115D01*
X224145547Y-84738715D01*
X224303806Y-84356646D01*
X224494752Y-83989842D01*
X224716951Y-83641060D01*
X224968698Y-83312976D01*
X225248077Y-83008088D01*
X225552981Y-82728694D01*
X225881061Y-82476951D01*
X226229843Y-82254752D01*
X226596646Y-82063806D01*
X226978719Y-81905546D01*
X227373115Y-81781194D01*
X227776846Y-81691689D01*
X228186854Y-81637711D01*
X228600000Y-81619672D01*
X229013144Y-81637711D01*
%TA.AperFunction,Conductor*%
G36*
X229013144Y-81637711D02*
G01*
X229423154Y-81691689D01*
X229826885Y-81781194D01*
X230221285Y-81905547D01*
X230603354Y-82063806D01*
X230970158Y-82254752D01*
X231318940Y-82476951D01*
X231647024Y-82728698D01*
X231951912Y-83008077D01*
X232231306Y-83312981D01*
X232483049Y-83641061D01*
X232705248Y-83989843D01*
X232896194Y-84356646D01*
X233054454Y-84738719D01*
X233178806Y-85133115D01*
X233268311Y-85536846D01*
X233322289Y-85946854D01*
X233341282Y-86381868D01*
X233343477Y-86395841D01*
X233346000Y-86405032D01*
X233346001Y-116794665D01*
X233343519Y-116803644D01*
X233341294Y-116817766D01*
X233340974Y-116825198D01*
X233322289Y-117253146D01*
X233268311Y-117663154D01*
X233178806Y-118066885D01*
X233054454Y-118461281D01*
X232896194Y-118843354D01*
X232705248Y-119210157D01*
X232483049Y-119558939D01*
X232231306Y-119887019D01*
X231951912Y-120191923D01*
X231647024Y-120471302D01*
X231318940Y-120723049D01*
X230970158Y-120945248D01*
X230603354Y-121136194D01*
X230221285Y-121294453D01*
X229826885Y-121418806D01*
X229423154Y-121508311D01*
X229013144Y-121562289D01*
X228600000Y-121580328D01*
X228186854Y-121562289D01*
X227776846Y-121508311D01*
X227373115Y-121418806D01*
X226978719Y-121294454D01*
X226596646Y-121136194D01*
X226229843Y-120945248D01*
X225881061Y-120723049D01*
X225552981Y-120471306D01*
X225248077Y-120191912D01*
X224968698Y-119887024D01*
X224716951Y-119558940D01*
X224494752Y-119210158D01*
X224303806Y-118843354D01*
X224145547Y-118461285D01*
X224021194Y-118066885D01*
X223931689Y-117663154D01*
X223877711Y-117253144D01*
X223863531Y-116928364D01*
X226662940Y-116928364D01*
X226663388Y-116937703D01*
X226697278Y-117213708D01*
X226699102Y-117222879D01*
X226773415Y-117490843D01*
X226776575Y-117499644D01*
X226889679Y-117753681D01*
X226894105Y-117761918D01*
X227043517Y-117996447D01*
X227049111Y-118003939D01*
X227231547Y-118213807D01*
X227238187Y-118220390D01*
X227449640Y-118400987D01*
X227457180Y-118406517D01*
X227693004Y-118553876D01*
X227701279Y-118558229D01*
X227956293Y-118669113D01*
X227965121Y-118672196D01*
X228233724Y-118744167D01*
X228242910Y-118745911D01*
X228519200Y-118777390D01*
X228528544Y-118777757D01*
X228806453Y-118768053D01*
X228815748Y-118767035D01*
X229089170Y-118716359D01*
X229098212Y-118713978D01*
X229361140Y-118623445D01*
X229369731Y-118619754D01*
X229616389Y-118491351D01*
X229624341Y-118486431D01*
X229849310Y-118322981D01*
X229856447Y-118316939D01*
X230054786Y-118122032D01*
X230060951Y-118115002D01*
X230228304Y-117892919D01*
X230233362Y-117885055D01*
X230366049Y-117640675D01*
X230369889Y-117632150D01*
X230464998Y-117370841D01*
X230467536Y-117361842D01*
X230523140Y-117088536D01*
X230524386Y-117077605D01*
X230534184Y-116703435D01*
X230533512Y-116692453D01*
X230492288Y-116416612D01*
X230490224Y-116407492D01*
X230408922Y-116141565D01*
X230405533Y-116132850D01*
X230285817Y-115881861D01*
X230281177Y-115873743D01*
X230125678Y-115643206D01*
X230119890Y-115635863D01*
X229932022Y-115430842D01*
X229925212Y-115424435D01*
X229709104Y-115249434D01*
X229701421Y-115244105D01*
X229461821Y-115102970D01*
X229453435Y-115098834D01*
X229195606Y-114994664D01*
X229186700Y-114991814D01*
X228916305Y-114926897D01*
X228907076Y-114925394D01*
X228630056Y-114901158D01*
X228620706Y-114901036D01*
X228343147Y-114918012D01*
X228333882Y-114919273D01*
X228061881Y-114977088D01*
X228052904Y-114979705D01*
X227792436Y-115077091D01*
X227783944Y-115081005D01*
X227540732Y-115215819D01*
X227532912Y-115220946D01*
X227312298Y-115390231D01*
X227305322Y-115396457D01*
X227112153Y-115596489D01*
X227106173Y-115603678D01*
X226944693Y-115830066D01*
X226939842Y-115838059D01*
X226813597Y-116085829D01*
X226809981Y-116094452D01*
X226721745Y-116358160D01*
X226719443Y-116367223D01*
X226671155Y-116641077D01*
X226670219Y-116650380D01*
X226662940Y-116928364D01*
X223863531Y-116928364D01*
X223858718Y-116818132D01*
X223856523Y-116804160D01*
X223854045Y-116795132D01*
X223854059Y-116778655D01*
X223847772Y-116750982D01*
X223834122Y-116722556D01*
X223825774Y-116692144D01*
X223812363Y-116667133D01*
X223801543Y-116654709D01*
X223794411Y-116639856D01*
X223776745Y-116617646D01*
X223752113Y-116597947D01*
X223731407Y-116574169D01*
X223708478Y-116557449D01*
X223693338Y-116550945D01*
X223680447Y-116540635D01*
X223654843Y-116528272D01*
X223624264Y-116521268D01*
X223595214Y-116508787D01*
X223567302Y-116503665D01*
X223512721Y-116506000D01*
X185427563Y-116506000D01*
X185373284Y-116503583D01*
X185345365Y-116508656D01*
X185316366Y-116521055D01*
X185285624Y-116528067D01*
X185260053Y-116540373D01*
X185247167Y-116550641D01*
X185232014Y-116557120D01*
X185209056Y-116573801D01*
X185188303Y-116597549D01*
X185163644Y-116617198D01*
X185145939Y-116639376D01*
X185138780Y-116654219D01*
X185127938Y-116666626D01*
X185114485Y-116691610D01*
X185106083Y-116722007D01*
X185092383Y-116750411D01*
X185086049Y-116778071D01*
X185086034Y-116794545D01*
X185083519Y-116803646D01*
X185081294Y-116817767D01*
X185080974Y-116825198D01*
X185062289Y-117253146D01*
X185008311Y-117663154D01*
X184918806Y-118066885D01*
X184794454Y-118461281D01*
X184636194Y-118843354D01*
X184445248Y-119210157D01*
X184223049Y-119558939D01*
X183971306Y-119887019D01*
X183691912Y-120191923D01*
X183387024Y-120471302D01*
X183058940Y-120723049D01*
X182710158Y-120945248D01*
X182343354Y-121136194D01*
X181961285Y-121294453D01*
X181566885Y-121418806D01*
X181163154Y-121508311D01*
X180753144Y-121562289D01*
X180340000Y-121580328D01*
X179926854Y-121562289D01*
X179516846Y-121508311D01*
X179113115Y-121418806D01*
X178718719Y-121294454D01*
X178336646Y-121136194D01*
X177969843Y-120945248D01*
X177621061Y-120723049D01*
X177292981Y-120471306D01*
X176988077Y-120191912D01*
X176708698Y-119887024D01*
X176456951Y-119558940D01*
X176234752Y-119210158D01*
X176043806Y-118843354D01*
X175885547Y-118461285D01*
X175761194Y-118066885D01*
X175671689Y-117663154D01*
X175617711Y-117253144D01*
X175603531Y-116928364D01*
X178402940Y-116928364D01*
X178403388Y-116937703D01*
X178437278Y-117213708D01*
X178439102Y-117222879D01*
X178513415Y-117490843D01*
X178516575Y-117499644D01*
X178629679Y-117753681D01*
X178634105Y-117761918D01*
X178783517Y-117996447D01*
X178789111Y-118003939D01*
X178971547Y-118213807D01*
X178978187Y-118220390D01*
X179189640Y-118400987D01*
X179197180Y-118406517D01*
X179433004Y-118553876D01*
X179441279Y-118558229D01*
X179696293Y-118669113D01*
X179705121Y-118672196D01*
X179973724Y-118744167D01*
X179982910Y-118745911D01*
X180259200Y-118777390D01*
X180268544Y-118777757D01*
X180546453Y-118768053D01*
X180555748Y-118767035D01*
X180829170Y-118716359D01*
X180838212Y-118713978D01*
X181101140Y-118623445D01*
X181109731Y-118619754D01*
X181356389Y-118491351D01*
X181364341Y-118486431D01*
X181589310Y-118322981D01*
X181596447Y-118316939D01*
X181794786Y-118122032D01*
X181800951Y-118115002D01*
X181968304Y-117892919D01*
X181973362Y-117885055D01*
X182106049Y-117640675D01*
X182109889Y-117632150D01*
X182204998Y-117370841D01*
X182207536Y-117361842D01*
X182263140Y-117088536D01*
X182264386Y-117077605D01*
X182274184Y-116703435D01*
X182273512Y-116692453D01*
X182232288Y-116416612D01*
X182230224Y-116407492D01*
X182148922Y-116141565D01*
X182145533Y-116132850D01*
X182025817Y-115881861D01*
X182021177Y-115873743D01*
X181865678Y-115643206D01*
X181859890Y-115635863D01*
X181672022Y-115430842D01*
X181665212Y-115424435D01*
X181449104Y-115249434D01*
X181441421Y-115244105D01*
X181201821Y-115102970D01*
X181193435Y-115098834D01*
X180935606Y-114994664D01*
X180926700Y-114991814D01*
X180656305Y-114926897D01*
X180647076Y-114925394D01*
X180370056Y-114901158D01*
X180360706Y-114901036D01*
X180083147Y-114918012D01*
X180073882Y-114919273D01*
X179801881Y-114977088D01*
X179792904Y-114979705D01*
X179532436Y-115077091D01*
X179523944Y-115081005D01*
X179280732Y-115215819D01*
X179272912Y-115220946D01*
X179052298Y-115390231D01*
X179045322Y-115396457D01*
X178852153Y-115596489D01*
X178846173Y-115603678D01*
X178684693Y-115830066D01*
X178679842Y-115838059D01*
X178553597Y-116085829D01*
X178549981Y-116094452D01*
X178461745Y-116358160D01*
X178459443Y-116367223D01*
X178411155Y-116641077D01*
X178410219Y-116650380D01*
X178402940Y-116928364D01*
X175603531Y-116928364D01*
X175598718Y-116818132D01*
X175596523Y-116804159D01*
X175594000Y-116794968D01*
X175594000Y-110383470D01*
X194844001Y-110383470D01*
X194844001Y-110596530D01*
X194847104Y-110616119D01*
X194912943Y-110818753D01*
X194921947Y-110836424D01*
X195047182Y-111008795D01*
X195061205Y-111022818D01*
X195233576Y-111148053D01*
X195251247Y-111157057D01*
X195453881Y-111222896D01*
X195473470Y-111225999D01*
X195496847Y-111225999D01*
X195518846Y-111238700D01*
X195573355Y-111276868D01*
X195593338Y-111286186D01*
X195607809Y-111290063D01*
X195620790Y-111297558D01*
X195641509Y-111305099D01*
X195707059Y-111316657D01*
X195771326Y-111333878D01*
X195793290Y-111335799D01*
X195859579Y-111330000D01*
X204540747Y-111330000D01*
X204591770Y-111397566D01*
X204609027Y-111413298D01*
X204770489Y-111513272D01*
X204792264Y-111521707D01*
X204973188Y-111555528D01*
X204984789Y-111556603D01*
X205564671Y-111556603D01*
X205579143Y-111554924D01*
X205801046Y-111502733D01*
X205824844Y-111491561D01*
X205977566Y-111376230D01*
X205993298Y-111358973D01*
X206093272Y-111197511D01*
X206101707Y-111175736D01*
X206135528Y-110994812D01*
X206136603Y-110983211D01*
X206136603Y-110504789D01*
X206161397Y-110504789D01*
X206161397Y-110984671D01*
X206163076Y-110999143D01*
X206215267Y-111221046D01*
X206226439Y-111244844D01*
X206341770Y-111397566D01*
X206359027Y-111413298D01*
X206520489Y-111513272D01*
X206542264Y-111521707D01*
X206723188Y-111555528D01*
X206734789Y-111556603D01*
X207314671Y-111556603D01*
X207329143Y-111554924D01*
X207551046Y-111502733D01*
X207574844Y-111491561D01*
X207727566Y-111376230D01*
X207743298Y-111358973D01*
X207761237Y-111330000D01*
X208666397Y-111330000D01*
X208666397Y-111575955D01*
X208668076Y-111590427D01*
X208721600Y-111817998D01*
X208732772Y-111841796D01*
X208850919Y-111998248D01*
X208868176Y-112013980D01*
X209033612Y-112116414D01*
X209055387Y-112124849D01*
X209240904Y-112159528D01*
X209252505Y-112160603D01*
X210356955Y-112160603D01*
X210371427Y-112158924D01*
X210598998Y-112105400D01*
X210622796Y-112094228D01*
X210779248Y-111976081D01*
X210794980Y-111958824D01*
X210897414Y-111793388D01*
X210905849Y-111771613D01*
X210940528Y-111586096D01*
X210941603Y-111574495D01*
X210941603Y-111199808D01*
X211214776Y-111199808D01*
X211214776Y-111577183D01*
X211216220Y-111590613D01*
X211289255Y-111926353D01*
X211297885Y-111947187D01*
X211426696Y-112147620D01*
X211438499Y-112161241D01*
X211616849Y-112315783D01*
X211632011Y-112325527D01*
X211846677Y-112423561D01*
X211863970Y-112428639D01*
X212093094Y-112461582D01*
X212102071Y-112462224D01*
X212452191Y-112462224D01*
X212526000Y-112388415D01*
X212781999Y-112388415D01*
X212855808Y-112462224D01*
X213208183Y-112462224D01*
X213221613Y-112460780D01*
X213557353Y-112387745D01*
X213578187Y-112379115D01*
X213778620Y-112250304D01*
X213792241Y-112238501D01*
X213946783Y-112060151D01*
X213956527Y-112044989D01*
X214054561Y-111830323D01*
X214059639Y-111813030D01*
X214092582Y-111583906D01*
X214093224Y-111574929D01*
X214093224Y-111199809D01*
X214019415Y-111126000D01*
X212855809Y-111125999D01*
X212782000Y-111199808D01*
X212781999Y-112388415D01*
X212526000Y-112388415D01*
X212526001Y-111199809D01*
X212452192Y-111126000D01*
X211288585Y-111125999D01*
X211214776Y-111199808D01*
X210941603Y-111199808D01*
X210941603Y-110421071D01*
X211214776Y-110421071D01*
X211214776Y-110796191D01*
X211288585Y-110870000D01*
X212452191Y-110870001D01*
X212526000Y-110796192D01*
X212526000Y-110796191D01*
X212781999Y-110796191D01*
X212855808Y-110870000D01*
X214019415Y-110870001D01*
X214093224Y-110796192D01*
X214093224Y-110714853D01*
X227126602Y-110714853D01*
X227189221Y-110966005D01*
X227192669Y-110976104D01*
X227289591Y-111196900D01*
X227294692Y-111206275D01*
X227427430Y-111407584D01*
X227434038Y-111415965D01*
X227598798Y-111592032D01*
X227606722Y-111599180D01*
X227798792Y-111744968D01*
X227807808Y-111750679D01*
X228021696Y-111862021D01*
X228031545Y-111866131D01*
X228261134Y-111939845D01*
X228271535Y-111942236D01*
X228385162Y-111958407D01*
X228472000Y-111883052D01*
X228472000Y-110691809D01*
X228728000Y-110691809D01*
X228728000Y-111883748D01*
X228820218Y-111959362D01*
X229009019Y-111921636D01*
X229019270Y-111918667D01*
X229244387Y-111832253D01*
X229253991Y-111827600D01*
X229461330Y-111704491D01*
X229470012Y-111698286D01*
X229653645Y-111542004D01*
X229661158Y-111534424D01*
X229815833Y-111349435D01*
X229821962Y-111340698D01*
X229943256Y-111132294D01*
X229947825Y-111122650D01*
X230032272Y-110896787D01*
X230035151Y-110886511D01*
X230068943Y-110709369D01*
X229993356Y-110618000D01*
X228801809Y-110618000D01*
X228728000Y-110691809D01*
X228472000Y-110691809D01*
X228398191Y-110618000D01*
X227202272Y-110618000D01*
X227126602Y-110714853D01*
X214093224Y-110714853D01*
X214093224Y-110418817D01*
X214091780Y-110405387D01*
X214018745Y-110069647D01*
X214010115Y-110048813D01*
X213881304Y-109848380D01*
X213869501Y-109834759D01*
X213691151Y-109680217D01*
X213675989Y-109670473D01*
X213461323Y-109572439D01*
X213444030Y-109567361D01*
X213214906Y-109534418D01*
X213205929Y-109533776D01*
X212855809Y-109533776D01*
X212782000Y-109607585D01*
X212781999Y-110796191D01*
X212526000Y-110796191D01*
X212526001Y-109607585D01*
X212452192Y-109533776D01*
X212099817Y-109533776D01*
X212086387Y-109535220D01*
X211750647Y-109608255D01*
X211729813Y-109616885D01*
X211529380Y-109745696D01*
X211515759Y-109757499D01*
X211361217Y-109935849D01*
X211351473Y-109951011D01*
X211253439Y-110165677D01*
X211248361Y-110182970D01*
X211215418Y-110412094D01*
X211214776Y-110421071D01*
X210941603Y-110421071D01*
X210941603Y-110420045D01*
X210939924Y-110405573D01*
X210886400Y-110178002D01*
X210875228Y-110154204D01*
X210757081Y-109997752D01*
X210739824Y-109982020D01*
X210574388Y-109879586D01*
X210552613Y-109871151D01*
X210367096Y-109836472D01*
X210355495Y-109835397D01*
X209251045Y-109835397D01*
X209236573Y-109837076D01*
X209009002Y-109890600D01*
X208985204Y-109901772D01*
X208828752Y-110019919D01*
X208813020Y-110037176D01*
X208738209Y-110158000D01*
X207757253Y-110158000D01*
X207706230Y-110090434D01*
X207688973Y-110074702D01*
X207527511Y-109974728D01*
X207505736Y-109966293D01*
X207324812Y-109932472D01*
X207313211Y-109931397D01*
X206733329Y-109931397D01*
X206718857Y-109933076D01*
X206496954Y-109985267D01*
X206473156Y-109996439D01*
X206320434Y-110111770D01*
X206304702Y-110129027D01*
X206204728Y-110290489D01*
X206196293Y-110312264D01*
X206162472Y-110493188D01*
X206161397Y-110504789D01*
X206136603Y-110504789D01*
X206136603Y-110503329D01*
X206134924Y-110488857D01*
X206082733Y-110266954D01*
X206071561Y-110243156D01*
X205956230Y-110090434D01*
X205938973Y-110074702D01*
X205777511Y-109974728D01*
X205755736Y-109966293D01*
X205574812Y-109932472D01*
X205563211Y-109931397D01*
X204983329Y-109931397D01*
X204968857Y-109933076D01*
X204746954Y-109985267D01*
X204723156Y-109996439D01*
X204570434Y-110111770D01*
X204554702Y-110129027D01*
X204536763Y-110158000D01*
X196245403Y-110158000D01*
X196238053Y-110143576D01*
X196112818Y-109971205D01*
X196098795Y-109957182D01*
X195926424Y-109831947D01*
X195908753Y-109822943D01*
X195706119Y-109757104D01*
X195686530Y-109754001D01*
X195473470Y-109754001D01*
X195453881Y-109757104D01*
X195251247Y-109822943D01*
X195233576Y-109831947D01*
X195061205Y-109957182D01*
X195047182Y-109971205D01*
X194921947Y-110143576D01*
X194912943Y-110161247D01*
X194847104Y-110363881D01*
X194844001Y-110383470D01*
X175594000Y-110383470D01*
X175594000Y-102351292D01*
X177432200Y-102351292D01*
X177437999Y-102417584D01*
X177438000Y-104230407D01*
X177432200Y-104296710D01*
X177434121Y-104318673D01*
X177451345Y-104382955D01*
X177462901Y-104448493D01*
X177470442Y-104469210D01*
X177477935Y-104482189D01*
X177481814Y-104496664D01*
X177491131Y-104516644D01*
X177529301Y-104571158D01*
X177562577Y-104628792D01*
X177576748Y-104645681D01*
X177627735Y-104688464D01*
X181985545Y-109046275D01*
X182028328Y-109097262D01*
X182045218Y-109111434D01*
X182102851Y-109144708D01*
X182157363Y-109182878D01*
X182177346Y-109192196D01*
X182191817Y-109196073D01*
X182204798Y-109203568D01*
X182225517Y-109211109D01*
X182291067Y-109222667D01*
X182355334Y-109239888D01*
X182377298Y-109241809D01*
X182443590Y-109236010D01*
X199426408Y-109236010D01*
X199492699Y-109241809D01*
X199514662Y-109239888D01*
X199578933Y-109222667D01*
X199644482Y-109211109D01*
X199665200Y-109203568D01*
X199678182Y-109196073D01*
X199692652Y-109192195D01*
X199712634Y-109182878D01*
X199767141Y-109144711D01*
X199824781Y-109111434D01*
X199841670Y-109097262D01*
X199884458Y-109046269D01*
X200046261Y-108884466D01*
X200097252Y-108841680D01*
X200111424Y-108824791D01*
X200144699Y-108767154D01*
X200182867Y-108712647D01*
X200192185Y-108692665D01*
X200196064Y-108678189D01*
X200203558Y-108665208D01*
X200211099Y-108644491D01*
X200222655Y-108578949D01*
X200239878Y-108514673D01*
X200241799Y-108492710D01*
X200236000Y-108426421D01*
X200236000Y-106782613D01*
X200242090Y-106767910D01*
X200261862Y-106668510D01*
X200263075Y-106656190D01*
X200263075Y-105170789D01*
X204444897Y-105170789D01*
X204444897Y-105650671D01*
X204446576Y-105665143D01*
X204498767Y-105887046D01*
X204509939Y-105910844D01*
X204625270Y-106063566D01*
X204642527Y-106079298D01*
X204803989Y-106179272D01*
X204825764Y-106187707D01*
X205006688Y-106221528D01*
X205018289Y-106222603D01*
X205598171Y-106222603D01*
X205612643Y-106220924D01*
X205834546Y-106168733D01*
X205858344Y-106157561D01*
X206011066Y-106042230D01*
X206026798Y-106024973D01*
X206126772Y-105863511D01*
X206135207Y-105841736D01*
X206169028Y-105660812D01*
X206170103Y-105649211D01*
X206170103Y-105170789D01*
X206194897Y-105170789D01*
X206194897Y-105650671D01*
X206196576Y-105665143D01*
X206248767Y-105887046D01*
X206259939Y-105910844D01*
X206375270Y-106063566D01*
X206392527Y-106079298D01*
X206553989Y-106179272D01*
X206575764Y-106187707D01*
X206756688Y-106221528D01*
X206768289Y-106222603D01*
X207348171Y-106222603D01*
X207362643Y-106220924D01*
X207584546Y-106168733D01*
X207608344Y-106157561D01*
X207761066Y-106042230D01*
X207776798Y-106024973D01*
X207794737Y-105996000D01*
X209064425Y-105996000D01*
X209064425Y-106266190D01*
X209065638Y-106278510D01*
X209085410Y-106377910D01*
X209094908Y-106400841D01*
X209154669Y-106490280D01*
X209172220Y-106507831D01*
X209261659Y-106567592D01*
X209284590Y-106577090D01*
X209383990Y-106596862D01*
X209396310Y-106598075D01*
X212708690Y-106598075D01*
X212721010Y-106596862D01*
X212820410Y-106577090D01*
X212843341Y-106567592D01*
X212932780Y-106507831D01*
X212950331Y-106490280D01*
X213010092Y-106400841D01*
X213019590Y-106377910D01*
X213039362Y-106278510D01*
X213040575Y-106266190D01*
X213040575Y-104553810D01*
X213039362Y-104541490D01*
X213019590Y-104442090D01*
X213010092Y-104419159D01*
X212950331Y-104329720D01*
X212932780Y-104312169D01*
X212843341Y-104252408D01*
X212820410Y-104242910D01*
X212721010Y-104223138D01*
X212708690Y-104221925D01*
X211638500Y-104221925D01*
X211638500Y-103202000D01*
X216385393Y-103202000D01*
X216333247Y-103218943D01*
X216315576Y-103227947D01*
X216143205Y-103353182D01*
X216129182Y-103367205D01*
X216003947Y-103539576D01*
X215994943Y-103557247D01*
X215929104Y-103759881D01*
X215926001Y-103779470D01*
X215926001Y-103992530D01*
X215929104Y-104012119D01*
X215966501Y-104127216D01*
X215966501Y-104221925D01*
X214896310Y-104221925D01*
X214883990Y-104223138D01*
X214784590Y-104242910D01*
X214761659Y-104252408D01*
X214672220Y-104312169D01*
X214654669Y-104329720D01*
X214594908Y-104419159D01*
X214585410Y-104442090D01*
X214565638Y-104541490D01*
X214564425Y-104553810D01*
X214564425Y-106266190D01*
X214565638Y-106278510D01*
X214585410Y-106377910D01*
X214594908Y-106400841D01*
X214654669Y-106490280D01*
X214672220Y-106507831D01*
X214761659Y-106567592D01*
X214784590Y-106577090D01*
X214883990Y-106596862D01*
X214896310Y-106598075D01*
X218208690Y-106598075D01*
X218221010Y-106596862D01*
X218320410Y-106577090D01*
X218343341Y-106567592D01*
X218432780Y-106507831D01*
X218450331Y-106490280D01*
X218510092Y-106400841D01*
X218519590Y-106377910D01*
X218539362Y-106278510D01*
X218540575Y-106266190D01*
X218540575Y-105996000D01*
X219514464Y-105996000D01*
X219540100Y-106104998D01*
X219551272Y-106128796D01*
X219669419Y-106285248D01*
X219686676Y-106300980D01*
X219852112Y-106403414D01*
X219873887Y-106411849D01*
X220059404Y-106446528D01*
X220071005Y-106447603D01*
X220725455Y-106447603D01*
X220739927Y-106445924D01*
X220967498Y-106392400D01*
X220991296Y-106381228D01*
X221147748Y-106263081D01*
X221163480Y-106245824D01*
X221265914Y-106080388D01*
X221274186Y-106059035D01*
X221307755Y-106213353D01*
X221316385Y-106234187D01*
X221445196Y-106434620D01*
X221456999Y-106448241D01*
X221635349Y-106602783D01*
X221650511Y-106612527D01*
X221865177Y-106710561D01*
X221882470Y-106715639D01*
X222111594Y-106748582D01*
X222120571Y-106749224D01*
X222245691Y-106749224D01*
X222319500Y-106675415D01*
X222319500Y-105611809D01*
X222575500Y-105611809D01*
X222575500Y-106675415D01*
X222649309Y-106749224D01*
X222776683Y-106749224D01*
X222790113Y-106747780D01*
X223125853Y-106674745D01*
X223146687Y-106666115D01*
X223347120Y-106537304D01*
X223360741Y-106525501D01*
X223515283Y-106347151D01*
X223525027Y-106331989D01*
X223623061Y-106117323D01*
X223628139Y-106100030D01*
X223661082Y-105870906D01*
X223661724Y-105861929D01*
X223661724Y-105611809D01*
X223587915Y-105538000D01*
X222649309Y-105538000D01*
X222575500Y-105611809D01*
X222319500Y-105611809D01*
X222319500Y-104144585D01*
X222575500Y-104144585D01*
X222575500Y-105208191D01*
X222649309Y-105282000D01*
X223587915Y-105282000D01*
X223661724Y-105208191D01*
X223661724Y-104955817D01*
X223660280Y-104942387D01*
X223587245Y-104606647D01*
X223578615Y-104585813D01*
X223449804Y-104385380D01*
X223438001Y-104371759D01*
X223259651Y-104217217D01*
X223244489Y-104207473D01*
X223029823Y-104109439D01*
X223012530Y-104104361D01*
X222783406Y-104071418D01*
X222774429Y-104070776D01*
X222649309Y-104070776D01*
X222575500Y-104144585D01*
X222319500Y-104144585D01*
X222245691Y-104070776D01*
X222118317Y-104070776D01*
X222104887Y-104072220D01*
X221769147Y-104145255D01*
X221748313Y-104153885D01*
X221547880Y-104282696D01*
X221534259Y-104294499D01*
X221379717Y-104472849D01*
X221369973Y-104488011D01*
X221271939Y-104702677D01*
X221266861Y-104719970D01*
X221262766Y-104748448D01*
X221254900Y-104715002D01*
X221243728Y-104691204D01*
X221125581Y-104534752D01*
X221108324Y-104519020D01*
X220942888Y-104416586D01*
X220921113Y-104408151D01*
X220735596Y-104373472D01*
X220723995Y-104372397D01*
X220069545Y-104372397D01*
X220055073Y-104374076D01*
X219827502Y-104427600D01*
X219803704Y-104438772D01*
X219647252Y-104556919D01*
X219631520Y-104574176D01*
X219529086Y-104739613D01*
X219520651Y-104761387D01*
X219508947Y-104824000D01*
X218540575Y-104824000D01*
X218540575Y-104553810D01*
X218539362Y-104541490D01*
X218519590Y-104442090D01*
X218510092Y-104419159D01*
X218450331Y-104329720D01*
X218432780Y-104312169D01*
X218343341Y-104252408D01*
X218320410Y-104242910D01*
X218221010Y-104223138D01*
X218208690Y-104221925D01*
X217325403Y-104221925D01*
X217329057Y-104214753D01*
X217394896Y-104012119D01*
X217397999Y-103992530D01*
X217397999Y-103779470D01*
X217394896Y-103759881D01*
X217329057Y-103557247D01*
X217320053Y-103539576D01*
X217194818Y-103367205D01*
X217180795Y-103353182D01*
X217008424Y-103227947D01*
X216990753Y-103218943D01*
X216938607Y-103202000D01*
X223023273Y-103202000D01*
X224916492Y-105095221D01*
X224916503Y-105095230D01*
X227411925Y-107590653D01*
X227411925Y-108806190D01*
X227413138Y-108818510D01*
X227432910Y-108917910D01*
X227442408Y-108940841D01*
X227502169Y-109030280D01*
X227519720Y-109047831D01*
X227609159Y-109107592D01*
X227632090Y-109117090D01*
X227731490Y-109136862D01*
X227743810Y-109138075D01*
X227985803Y-109138075D01*
X227832155Y-109214346D01*
X227823032Y-109219882D01*
X227628199Y-109361957D01*
X227620138Y-109368952D01*
X227452029Y-109541822D01*
X227445263Y-109550074D01*
X227308683Y-109748798D01*
X227303403Y-109758073D01*
X227202260Y-109976968D01*
X227198619Y-109987000D01*
X227124085Y-110263233D01*
X227199734Y-110362000D01*
X229992863Y-110362000D01*
X230068373Y-110272487D01*
X230042499Y-110121114D01*
X230039817Y-110110784D01*
X229959723Y-109883343D01*
X229955339Y-109873612D01*
X229838067Y-109662916D01*
X229832107Y-109654064D01*
X229681013Y-109466140D01*
X229673647Y-109458417D01*
X229493049Y-109298638D01*
X229484486Y-109292267D01*
X229279549Y-109165202D01*
X229270036Y-109160365D01*
X229215142Y-109138075D01*
X229456190Y-109138075D01*
X229468510Y-109136862D01*
X229567910Y-109117090D01*
X229590841Y-109107592D01*
X229680280Y-109047831D01*
X229697831Y-109030280D01*
X229757592Y-108940841D01*
X229767090Y-108917910D01*
X229786862Y-108818510D01*
X229788075Y-108806190D01*
X229788075Y-107093810D01*
X229786862Y-107081490D01*
X229767090Y-106982090D01*
X229757592Y-106959159D01*
X229697831Y-106869720D01*
X229680280Y-106852169D01*
X229590841Y-106792408D01*
X229567910Y-106782910D01*
X229468510Y-106763138D01*
X229456190Y-106761925D01*
X228240653Y-106761925D01*
X225745230Y-104266503D01*
X225745221Y-104266492D01*
X224573581Y-103094853D01*
X227126602Y-103094853D01*
X227189221Y-103346005D01*
X227192669Y-103356104D01*
X227289591Y-103576900D01*
X227294692Y-103586275D01*
X227427430Y-103787584D01*
X227434038Y-103795965D01*
X227598798Y-103972032D01*
X227606722Y-103979180D01*
X227798792Y-104124968D01*
X227807808Y-104130679D01*
X228021696Y-104242021D01*
X228031545Y-104246131D01*
X228261134Y-104319845D01*
X228271535Y-104322236D01*
X228385162Y-104338407D01*
X228472000Y-104263052D01*
X228472000Y-103071809D01*
X228728000Y-103071809D01*
X228728000Y-104263748D01*
X228820218Y-104339362D01*
X229009019Y-104301636D01*
X229019270Y-104298667D01*
X229244387Y-104212253D01*
X229253991Y-104207600D01*
X229461330Y-104084491D01*
X229470012Y-104078286D01*
X229653645Y-103922004D01*
X229661158Y-103914424D01*
X229815833Y-103729435D01*
X229821962Y-103720698D01*
X229943256Y-103512294D01*
X229947825Y-103502650D01*
X230032272Y-103276787D01*
X230035151Y-103266511D01*
X230068943Y-103089369D01*
X229993356Y-102998000D01*
X228801809Y-102998000D01*
X228728000Y-103071809D01*
X228472000Y-103071809D01*
X228398191Y-102998000D01*
X227202272Y-102998000D01*
X227126602Y-103094853D01*
X224573581Y-103094853D01*
X223698468Y-102219741D01*
X223655680Y-102168748D01*
X223638791Y-102154576D01*
X223581151Y-102121299D01*
X223526644Y-102083132D01*
X223506662Y-102073815D01*
X223492192Y-102069937D01*
X223479210Y-102062442D01*
X223458492Y-102054901D01*
X223392943Y-102043343D01*
X223328672Y-102026122D01*
X223306709Y-102024201D01*
X223240418Y-102030000D01*
X211353582Y-102030000D01*
X211287290Y-102024201D01*
X211265326Y-102026122D01*
X211201059Y-102043343D01*
X211135509Y-102054901D01*
X211114790Y-102062442D01*
X211101809Y-102069937D01*
X211087338Y-102073814D01*
X211067356Y-102083132D01*
X211012842Y-102121302D01*
X210955209Y-102154576D01*
X210938320Y-102168748D01*
X210895542Y-102219729D01*
X210656228Y-102459044D01*
X210605250Y-102501820D01*
X210591078Y-102518709D01*
X210557802Y-102576343D01*
X210519632Y-102630857D01*
X210510315Y-102650837D01*
X210506436Y-102665312D01*
X210498943Y-102678291D01*
X210491402Y-102699008D01*
X210479846Y-102764546D01*
X210462622Y-102828828D01*
X210460701Y-102850791D01*
X210466501Y-102917094D01*
X210466500Y-104221925D01*
X209396310Y-104221925D01*
X209383990Y-104223138D01*
X209284590Y-104242910D01*
X209261659Y-104252408D01*
X209172220Y-104312169D01*
X209154669Y-104329720D01*
X209094908Y-104419159D01*
X209085410Y-104442090D01*
X209065638Y-104541490D01*
X209064425Y-104553810D01*
X209064425Y-104824000D01*
X207790753Y-104824000D01*
X207739730Y-104756434D01*
X207722473Y-104740702D01*
X207561011Y-104640728D01*
X207539236Y-104632293D01*
X207358312Y-104598472D01*
X207346711Y-104597397D01*
X206766829Y-104597397D01*
X206752357Y-104599076D01*
X206530454Y-104651267D01*
X206506656Y-104662439D01*
X206353934Y-104777770D01*
X206338202Y-104795027D01*
X206238228Y-104956489D01*
X206229793Y-104978264D01*
X206195972Y-105159188D01*
X206194897Y-105170789D01*
X206170103Y-105170789D01*
X206170103Y-105169329D01*
X206168424Y-105154857D01*
X206116233Y-104932954D01*
X206105061Y-104909156D01*
X205989730Y-104756434D01*
X205972473Y-104740702D01*
X205893500Y-104691804D01*
X205893500Y-104479659D01*
X205899057Y-104468753D01*
X205964896Y-104266119D01*
X205967999Y-104246530D01*
X205967999Y-104033470D01*
X205964896Y-104013881D01*
X205899057Y-103811247D01*
X205890053Y-103793576D01*
X205764818Y-103621205D01*
X205750795Y-103607182D01*
X205578424Y-103481947D01*
X205560753Y-103472943D01*
X205358119Y-103407104D01*
X205338530Y-103404001D01*
X205125470Y-103404001D01*
X205105881Y-103407104D01*
X204903247Y-103472943D01*
X204885576Y-103481947D01*
X204713205Y-103607182D01*
X204699182Y-103621205D01*
X204573947Y-103793576D01*
X204564943Y-103811247D01*
X204499104Y-104013881D01*
X204496001Y-104033470D01*
X204496001Y-104246530D01*
X204499104Y-104266119D01*
X204564943Y-104468753D01*
X204573947Y-104486424D01*
X204699182Y-104658795D01*
X204713206Y-104672819D01*
X204721501Y-104678846D01*
X204721501Y-104688987D01*
X204603934Y-104777770D01*
X204588202Y-104795027D01*
X204488228Y-104956489D01*
X204479793Y-104978264D01*
X204445972Y-105159188D01*
X204444897Y-105170789D01*
X200263075Y-105170789D01*
X200263075Y-105043810D01*
X200262306Y-105036000D01*
X201024418Y-105036000D01*
X201090709Y-105041799D01*
X201112672Y-105039878D01*
X201176943Y-105022657D01*
X201231285Y-105013075D01*
X201906190Y-105013075D01*
X201918510Y-105011862D01*
X202017910Y-104992090D01*
X202040841Y-104982592D01*
X202130280Y-104922831D01*
X202147831Y-104905280D01*
X202207592Y-104815841D01*
X202217090Y-104792910D01*
X202236862Y-104693510D01*
X202238075Y-104681190D01*
X202238075Y-104118810D01*
X202236862Y-104106490D01*
X202217090Y-104007090D01*
X202214153Y-104000000D01*
X202217090Y-103992910D01*
X202236862Y-103893510D01*
X202238075Y-103881190D01*
X202238075Y-103318810D01*
X202236862Y-103306490D01*
X202217090Y-103207090D01*
X202214153Y-103200000D01*
X202217090Y-103192910D01*
X202236862Y-103093510D01*
X202238075Y-103081190D01*
X202238075Y-102518810D01*
X202236862Y-102506490D01*
X202217090Y-102407090D01*
X202214153Y-102400000D01*
X202217090Y-102392910D01*
X202236862Y-102293510D01*
X202238075Y-102281190D01*
X202238075Y-102018950D01*
X202384590Y-101896010D01*
X202398761Y-101879121D01*
X202499359Y-101704880D01*
X202506900Y-101684163D01*
X202540878Y-101491462D01*
X202541837Y-101480501D01*
X202541837Y-101401809D01*
X202468028Y-101328000D01*
X199731972Y-101328000D01*
X199658163Y-101401809D01*
X199658163Y-101483258D01*
X199660319Y-101499634D01*
X199735137Y-101778859D01*
X199747880Y-101803339D01*
X199878990Y-101959590D01*
X199895879Y-101973761D01*
X199961925Y-102011893D01*
X199961925Y-102281190D01*
X199963138Y-102293510D01*
X199982910Y-102392910D01*
X199985847Y-102400000D01*
X199982910Y-102407090D01*
X199963138Y-102506490D01*
X199961925Y-102518810D01*
X199961925Y-103014000D01*
X199092730Y-103014000D01*
X197839999Y-101761271D01*
X197839999Y-101747470D01*
X197836896Y-101727881D01*
X197771057Y-101525247D01*
X197762053Y-101507576D01*
X197636818Y-101335205D01*
X197622795Y-101321182D01*
X197450424Y-101195947D01*
X197432753Y-101186943D01*
X197230119Y-101121104D01*
X197210530Y-101118001D01*
X197196730Y-101118001D01*
X196882461Y-100803733D01*
X196839680Y-100752748D01*
X196822791Y-100738577D01*
X196765152Y-100705299D01*
X196710644Y-100667132D01*
X196690662Y-100657815D01*
X196676192Y-100653937D01*
X196663210Y-100646442D01*
X196642492Y-100638901D01*
X196576943Y-100627343D01*
X196512672Y-100610122D01*
X196490709Y-100608201D01*
X196424418Y-100614000D01*
X194041837Y-100614000D01*
X194041837Y-100601809D01*
X193968028Y-100528000D01*
X192801809Y-100528000D01*
X192742884Y-100586925D01*
X192457116Y-100586925D01*
X192398191Y-100528000D01*
X191231972Y-100528000D01*
X191158163Y-100601809D01*
X191158163Y-100683258D01*
X191160319Y-100699634D01*
X191235137Y-100978859D01*
X191247880Y-101003339D01*
X191378990Y-101159590D01*
X191395879Y-101173761D01*
X191440150Y-101199321D01*
X191315410Y-101303990D01*
X191301239Y-101320879D01*
X191200641Y-101495120D01*
X191193100Y-101515837D01*
X191159122Y-101708538D01*
X191158163Y-101719499D01*
X191158163Y-101798191D01*
X191231972Y-101872000D01*
X192398191Y-101872000D01*
X192457116Y-101813075D01*
X192742884Y-101813075D01*
X192801809Y-101872000D01*
X193968028Y-101872000D01*
X194041837Y-101798191D01*
X194041837Y-101786000D01*
X196207272Y-101786000D01*
X196275271Y-101854000D01*
X195915272Y-102214000D01*
X194041837Y-102214000D01*
X194041837Y-102201809D01*
X193968028Y-102128000D01*
X191231972Y-102128000D01*
X191158163Y-102201809D01*
X191158163Y-102283258D01*
X191160319Y-102299634D01*
X191235137Y-102578859D01*
X191247880Y-102603339D01*
X191378990Y-102759590D01*
X191395879Y-102773761D01*
X191461925Y-102811893D01*
X191461925Y-103081190D01*
X191463138Y-103093510D01*
X191482910Y-103192910D01*
X191485847Y-103200000D01*
X191482910Y-103207090D01*
X191463138Y-103306490D01*
X191461925Y-103318810D01*
X191461925Y-103881190D01*
X191463138Y-103893510D01*
X191482910Y-103992910D01*
X191485847Y-104000000D01*
X191482910Y-104007090D01*
X191463138Y-104106490D01*
X191461925Y-104118810D01*
X191461925Y-104681190D01*
X191463138Y-104693510D01*
X191482910Y-104792910D01*
X191492408Y-104815841D01*
X191552169Y-104905280D01*
X191569720Y-104922831D01*
X191659159Y-104982592D01*
X191682090Y-104992090D01*
X191781490Y-105011862D01*
X191793810Y-105013075D01*
X193406190Y-105013075D01*
X193418510Y-105011862D01*
X193443012Y-105006988D01*
X193438138Y-105031490D01*
X193436925Y-105043810D01*
X193436925Y-106656190D01*
X193438138Y-106668510D01*
X193457910Y-106767910D01*
X193467408Y-106790841D01*
X193527169Y-106880280D01*
X193544720Y-106897831D01*
X193634159Y-106957592D01*
X193657090Y-106967090D01*
X193756490Y-106986862D01*
X193768810Y-106988075D01*
X194331190Y-106988075D01*
X194343510Y-106986862D01*
X194442910Y-106967090D01*
X194450000Y-106964153D01*
X194457090Y-106967090D01*
X194556490Y-106986862D01*
X194568810Y-106988075D01*
X194897990Y-106988075D01*
X194897990Y-107074228D01*
X194901093Y-107093817D01*
X194966932Y-107296451D01*
X194975936Y-107314122D01*
X195012175Y-107364000D01*
X186424728Y-107364000D01*
X184156484Y-105095756D01*
X184189162Y-105100407D01*
X184276000Y-105025052D01*
X184276001Y-103504000D01*
X184532000Y-103504001D01*
X184531999Y-105025748D01*
X184624217Y-105101362D01*
X184813019Y-105063636D01*
X184823270Y-105060667D01*
X185048387Y-104974253D01*
X185057991Y-104969600D01*
X185265330Y-104846491D01*
X185274012Y-104840286D01*
X185457645Y-104684004D01*
X185465158Y-104676424D01*
X185619833Y-104491435D01*
X185625962Y-104482698D01*
X185747256Y-104274294D01*
X185751825Y-104264650D01*
X185833996Y-104044874D01*
X185883562Y-104170063D01*
X185889195Y-104181024D01*
X186008268Y-104365789D01*
X186015923Y-104375448D01*
X186168615Y-104533566D01*
X186178001Y-104541554D01*
X186358498Y-104667002D01*
X186369256Y-104673015D01*
X186570681Y-104761015D01*
X186582403Y-104764823D01*
X186797084Y-104812024D01*
X186809322Y-104813483D01*
X187029083Y-104818087D01*
X187041372Y-104817142D01*
X187257843Y-104778972D01*
X187269713Y-104775657D01*
X187474646Y-104696169D01*
X187485647Y-104690612D01*
X187671238Y-104572832D01*
X187680950Y-104565245D01*
X187840131Y-104413660D01*
X187848184Y-104404330D01*
X187974890Y-104224714D01*
X187980977Y-104213997D01*
X188070381Y-104013191D01*
X188074272Y-104001496D01*
X188123068Y-103786720D01*
X188124632Y-103773606D01*
X188128125Y-103523415D01*
X188126928Y-103510262D01*
X188088507Y-103316220D01*
X189626267Y-101778461D01*
X189677252Y-101735680D01*
X189691424Y-101718791D01*
X189724698Y-101661156D01*
X189762868Y-101606645D01*
X189772186Y-101586662D01*
X189776063Y-101572191D01*
X189783558Y-101559210D01*
X189791099Y-101538491D01*
X189802657Y-101472941D01*
X189819878Y-101408674D01*
X189821799Y-101386710D01*
X189816000Y-101320421D01*
X189816000Y-96685999D01*
X193436925Y-96685999D01*
X193436925Y-98156190D01*
X193438138Y-98168510D01*
X193443012Y-98193012D01*
X193418510Y-98188138D01*
X193406190Y-98186925D01*
X191793810Y-98186925D01*
X191781490Y-98188138D01*
X191682090Y-98207910D01*
X191659159Y-98217408D01*
X191569720Y-98277169D01*
X191552169Y-98294720D01*
X191492408Y-98384159D01*
X191482910Y-98407090D01*
X191463138Y-98506490D01*
X191461925Y-98518810D01*
X191461925Y-99081190D01*
X191463138Y-99093510D01*
X191482910Y-99192910D01*
X191485847Y-99200000D01*
X191482910Y-99207090D01*
X191463138Y-99306490D01*
X191461925Y-99318810D01*
X191461925Y-99581050D01*
X191315410Y-99703990D01*
X191301239Y-99720879D01*
X191200641Y-99895120D01*
X191193100Y-99915837D01*
X191159122Y-100108538D01*
X191158163Y-100119499D01*
X191158163Y-100198191D01*
X191231972Y-100272000D01*
X193968028Y-100272000D01*
X194041837Y-100198191D01*
X194041837Y-100116742D01*
X194039681Y-100100366D01*
X193964863Y-99821142D01*
X193952120Y-99796662D01*
X193821010Y-99640410D01*
X193804121Y-99626239D01*
X193738075Y-99588107D01*
X193738075Y-99318810D01*
X193736862Y-99306490D01*
X193717090Y-99207090D01*
X193714153Y-99200000D01*
X193717090Y-99192910D01*
X193736862Y-99093510D01*
X193738075Y-99081190D01*
X193738075Y-98518810D01*
X193736862Y-98506490D01*
X193731988Y-98481988D01*
X193756490Y-98486862D01*
X193768810Y-98488075D01*
X194331190Y-98488075D01*
X194343510Y-98486862D01*
X194442910Y-98467090D01*
X194450000Y-98464153D01*
X194457090Y-98467090D01*
X194556490Y-98486862D01*
X194568810Y-98488075D01*
X195131190Y-98488075D01*
X195143510Y-98486862D01*
X195242910Y-98467090D01*
X195250000Y-98464153D01*
X195257090Y-98467090D01*
X195356490Y-98486862D01*
X195368810Y-98488075D01*
X195931190Y-98488075D01*
X195943510Y-98486862D01*
X196042910Y-98467090D01*
X196050000Y-98464153D01*
X196057090Y-98467090D01*
X196156490Y-98486862D01*
X196168810Y-98488075D01*
X196731190Y-98488075D01*
X196743510Y-98486862D01*
X196842910Y-98467090D01*
X196850000Y-98464153D01*
X196857090Y-98467090D01*
X196956490Y-98486862D01*
X196968810Y-98488075D01*
X197531190Y-98488075D01*
X197543510Y-98486862D01*
X197642910Y-98467090D01*
X197650000Y-98464153D01*
X197657090Y-98467090D01*
X197756490Y-98486862D01*
X197768810Y-98488075D01*
X198331190Y-98488075D01*
X198343510Y-98486862D01*
X198442910Y-98467090D01*
X198450000Y-98464153D01*
X198457090Y-98467090D01*
X198556490Y-98486862D01*
X198568810Y-98488075D01*
X199131190Y-98488075D01*
X199143510Y-98486862D01*
X199242910Y-98467090D01*
X199250000Y-98464153D01*
X199257090Y-98467090D01*
X199356490Y-98486862D01*
X199368810Y-98488075D01*
X199931190Y-98488075D01*
X199943510Y-98486862D01*
X199968012Y-98481988D01*
X199963138Y-98506490D01*
X199961925Y-98518810D01*
X199961925Y-99081190D01*
X199963138Y-99093510D01*
X199982910Y-99192910D01*
X199985847Y-99200000D01*
X199982910Y-99207090D01*
X199963138Y-99306490D01*
X199961925Y-99318810D01*
X199961925Y-99881190D01*
X199963138Y-99893510D01*
X199982910Y-99992910D01*
X199985847Y-100000000D01*
X199982910Y-100007090D01*
X199963138Y-100106490D01*
X199961925Y-100118810D01*
X199961925Y-100381050D01*
X199815410Y-100503990D01*
X199801239Y-100520879D01*
X199700641Y-100695120D01*
X199693100Y-100715837D01*
X199659122Y-100908538D01*
X199658163Y-100919499D01*
X199658163Y-100998191D01*
X199731972Y-101072000D01*
X202468028Y-101072000D01*
X202541837Y-100998191D01*
X202541837Y-100916742D01*
X202539681Y-100900366D01*
X202464863Y-100621142D01*
X202452120Y-100596662D01*
X202321010Y-100440410D01*
X202304121Y-100426239D01*
X202238075Y-100388107D01*
X202238075Y-100190718D01*
X202247674Y-100189878D01*
X202311945Y-100172657D01*
X202377494Y-100161099D01*
X202398212Y-100153558D01*
X202411194Y-100146063D01*
X202425664Y-100142185D01*
X202445646Y-100132868D01*
X202500154Y-100094701D01*
X202557793Y-100061423D01*
X202574682Y-100047252D01*
X202617463Y-99996267D01*
X202746272Y-99867459D01*
X202797253Y-99824681D01*
X202811424Y-99807792D01*
X202844699Y-99750158D01*
X202882869Y-99695644D01*
X202892187Y-99675663D01*
X202896065Y-99661192D01*
X202903559Y-99648211D01*
X202911099Y-99627493D01*
X202922658Y-99561944D01*
X202939879Y-99497674D01*
X202941800Y-99475711D01*
X202936001Y-99409419D01*
X202936001Y-98925226D01*
X203280114Y-98581113D01*
X203294943Y-98626753D01*
X203303947Y-98644424D01*
X203429182Y-98816795D01*
X203443205Y-98830818D01*
X203615576Y-98956053D01*
X203633247Y-98965057D01*
X203835881Y-99030896D01*
X203855470Y-99033999D01*
X203869271Y-99033999D01*
X204573707Y-99738436D01*
X204488228Y-99876489D01*
X204479793Y-99898264D01*
X204445972Y-100079188D01*
X204444897Y-100090789D01*
X204444897Y-100570671D01*
X204446576Y-100585143D01*
X204498767Y-100807046D01*
X204509939Y-100830844D01*
X204625270Y-100983566D01*
X204642527Y-100999298D01*
X204803989Y-101099272D01*
X204825764Y-101107707D01*
X205006688Y-101141528D01*
X205018289Y-101142603D01*
X205598171Y-101142603D01*
X205612643Y-101140924D01*
X205834546Y-101088733D01*
X205858344Y-101077561D01*
X206011066Y-100962230D01*
X206026798Y-100944973D01*
X206122135Y-100791000D01*
X206221684Y-100791000D01*
X206234004Y-100789787D01*
X206244229Y-100787753D01*
X206248767Y-100807046D01*
X206259939Y-100830844D01*
X206375270Y-100983566D01*
X206392527Y-100999298D01*
X206553989Y-101099272D01*
X206575764Y-101107707D01*
X206756688Y-101141528D01*
X206768289Y-101142603D01*
X207348171Y-101142603D01*
X207362643Y-101140924D01*
X207584546Y-101088733D01*
X207608344Y-101077561D01*
X207761066Y-100962230D01*
X207776798Y-100944973D01*
X207794737Y-100916000D01*
X209064425Y-100916000D01*
X209064425Y-101186190D01*
X209065638Y-101198510D01*
X209085410Y-101297910D01*
X209094908Y-101320841D01*
X209154669Y-101410280D01*
X209172220Y-101427831D01*
X209261659Y-101487592D01*
X209284590Y-101497090D01*
X209383990Y-101516862D01*
X209396310Y-101518075D01*
X212708690Y-101518075D01*
X212721010Y-101516862D01*
X212820410Y-101497090D01*
X212843341Y-101487592D01*
X212932780Y-101427831D01*
X212950331Y-101410280D01*
X213010092Y-101320841D01*
X213019590Y-101297910D01*
X213039362Y-101198510D01*
X213040575Y-101186190D01*
X213040575Y-99473810D01*
X213039362Y-99461490D01*
X213019590Y-99362090D01*
X213010092Y-99339159D01*
X212950331Y-99249720D01*
X212932780Y-99232169D01*
X212843341Y-99172408D01*
X212820410Y-99162910D01*
X212721010Y-99143138D01*
X212708690Y-99141925D01*
X211638500Y-99141925D01*
X211638500Y-98651500D01*
X215719904Y-98651500D01*
X215675104Y-98789381D01*
X215672001Y-98808970D01*
X215672001Y-99022030D01*
X215675104Y-99041619D01*
X215707695Y-99141925D01*
X214896310Y-99141925D01*
X214883990Y-99143138D01*
X214784590Y-99162910D01*
X214761659Y-99172408D01*
X214672220Y-99232169D01*
X214654669Y-99249720D01*
X214594908Y-99339159D01*
X214585410Y-99362090D01*
X214565638Y-99461490D01*
X214564425Y-99473810D01*
X214564425Y-101186190D01*
X214565638Y-101198510D01*
X214585410Y-101297910D01*
X214594908Y-101320841D01*
X214654669Y-101410280D01*
X214672220Y-101427831D01*
X214761659Y-101487592D01*
X214784590Y-101497090D01*
X214883990Y-101516862D01*
X214896310Y-101518075D01*
X218208690Y-101518075D01*
X218221010Y-101516862D01*
X218320410Y-101497090D01*
X218343341Y-101487592D01*
X218432780Y-101427831D01*
X218450331Y-101410280D01*
X218510092Y-101320841D01*
X218519590Y-101297910D01*
X218539362Y-101198510D01*
X218540575Y-101186190D01*
X218540575Y-100916000D01*
X219514464Y-100916000D01*
X219540100Y-101024998D01*
X219551272Y-101048796D01*
X219669419Y-101205248D01*
X219686676Y-101220980D01*
X219852112Y-101323414D01*
X219873887Y-101331849D01*
X220059404Y-101366528D01*
X220071005Y-101367603D01*
X220725455Y-101367603D01*
X220739927Y-101365924D01*
X220967498Y-101312400D01*
X220991296Y-101301228D01*
X221147748Y-101183081D01*
X221163480Y-101165824D01*
X221265914Y-101000388D01*
X221274186Y-100979035D01*
X221307755Y-101133353D01*
X221316385Y-101154187D01*
X221445196Y-101354620D01*
X221456999Y-101368241D01*
X221635349Y-101522783D01*
X221650511Y-101532527D01*
X221865177Y-101630561D01*
X221882470Y-101635639D01*
X222111594Y-101668582D01*
X222120571Y-101669224D01*
X222245691Y-101669224D01*
X222319500Y-101595415D01*
X222319500Y-100531809D01*
X222575500Y-100531809D01*
X222575500Y-101595415D01*
X222649309Y-101669224D01*
X222776683Y-101669224D01*
X222790113Y-101667780D01*
X223125853Y-101594745D01*
X223146687Y-101586115D01*
X223347120Y-101457304D01*
X223360741Y-101445501D01*
X223515283Y-101267151D01*
X223525027Y-101251989D01*
X223623061Y-101037323D01*
X223628139Y-101020030D01*
X223661082Y-100790906D01*
X223661724Y-100781929D01*
X223661724Y-100531809D01*
X223587915Y-100458000D01*
X222649309Y-100458000D01*
X222575500Y-100531809D01*
X222319500Y-100531809D01*
X222319500Y-99064585D01*
X222575500Y-99064585D01*
X222575500Y-100128191D01*
X222649309Y-100202000D01*
X223587915Y-100202000D01*
X223661724Y-100128191D01*
X223661724Y-99875817D01*
X223660280Y-99862387D01*
X223587245Y-99526647D01*
X223578615Y-99505813D01*
X223449804Y-99305380D01*
X223438001Y-99291759D01*
X223259651Y-99137217D01*
X223244489Y-99127473D01*
X223029823Y-99029439D01*
X223012530Y-99024361D01*
X222783406Y-98991418D01*
X222774429Y-98990776D01*
X222649309Y-98990776D01*
X222575500Y-99064585D01*
X222319500Y-99064585D01*
X222245691Y-98990776D01*
X222118317Y-98990776D01*
X222104887Y-98992220D01*
X221769147Y-99065255D01*
X221748313Y-99073885D01*
X221547880Y-99202696D01*
X221534259Y-99214499D01*
X221379717Y-99392849D01*
X221369973Y-99408011D01*
X221271939Y-99622677D01*
X221266861Y-99639970D01*
X221262766Y-99668448D01*
X221254900Y-99635002D01*
X221243728Y-99611204D01*
X221125581Y-99454752D01*
X221108324Y-99439020D01*
X220942888Y-99336586D01*
X220921113Y-99328151D01*
X220735596Y-99293472D01*
X220723995Y-99292397D01*
X220069545Y-99292397D01*
X220055073Y-99294076D01*
X219827502Y-99347600D01*
X219803704Y-99358772D01*
X219647252Y-99476919D01*
X219631520Y-99494176D01*
X219529086Y-99659613D01*
X219520651Y-99681387D01*
X219508947Y-99744000D01*
X218540575Y-99744000D01*
X218540575Y-99473810D01*
X218539362Y-99461490D01*
X218519590Y-99362090D01*
X218510092Y-99339159D01*
X218450331Y-99249720D01*
X218432780Y-99232169D01*
X218343341Y-99172408D01*
X218320410Y-99162910D01*
X218221010Y-99143138D01*
X218208690Y-99141925D01*
X217138500Y-99141925D01*
X217138500Y-99085582D01*
X217144299Y-99019289D01*
X217143999Y-99015860D01*
X217143999Y-98808970D01*
X217140896Y-98789381D01*
X217096096Y-98651500D01*
X226092773Y-98651500D01*
X227411925Y-99970653D01*
X227411925Y-101186190D01*
X227413138Y-101198510D01*
X227432910Y-101297910D01*
X227442408Y-101320841D01*
X227502169Y-101410280D01*
X227519720Y-101427831D01*
X227609159Y-101487592D01*
X227632090Y-101497090D01*
X227731490Y-101516862D01*
X227743810Y-101518075D01*
X227985803Y-101518075D01*
X227832155Y-101594346D01*
X227823032Y-101599882D01*
X227628199Y-101741957D01*
X227620138Y-101748952D01*
X227452029Y-101921822D01*
X227445263Y-101930074D01*
X227308683Y-102128798D01*
X227303403Y-102138073D01*
X227202260Y-102356968D01*
X227198619Y-102367000D01*
X227124085Y-102643233D01*
X227199734Y-102742000D01*
X229992863Y-102742000D01*
X230068373Y-102652487D01*
X230042499Y-102501114D01*
X230039817Y-102490784D01*
X229959723Y-102263343D01*
X229955339Y-102253612D01*
X229838067Y-102042916D01*
X229832107Y-102034064D01*
X229681013Y-101846140D01*
X229673647Y-101838417D01*
X229493049Y-101678638D01*
X229484486Y-101672267D01*
X229279549Y-101545202D01*
X229270036Y-101540365D01*
X229215142Y-101518075D01*
X229456190Y-101518075D01*
X229468510Y-101516862D01*
X229567910Y-101497090D01*
X229590841Y-101487592D01*
X229680280Y-101427831D01*
X229697831Y-101410280D01*
X229757592Y-101320841D01*
X229767090Y-101297910D01*
X229786862Y-101198510D01*
X229788075Y-101186190D01*
X229788075Y-99473810D01*
X229786862Y-99461490D01*
X229767090Y-99362090D01*
X229757592Y-99339159D01*
X229697831Y-99249720D01*
X229680280Y-99232169D01*
X229590841Y-99172408D01*
X229567910Y-99162910D01*
X229468510Y-99143138D01*
X229456190Y-99141925D01*
X228240653Y-99141925D01*
X226767968Y-97669241D01*
X226725180Y-97618248D01*
X226708291Y-97604076D01*
X226650651Y-97570799D01*
X226596144Y-97532632D01*
X226576162Y-97523315D01*
X226561692Y-97519437D01*
X226548710Y-97511942D01*
X226527992Y-97504401D01*
X226462443Y-97492843D01*
X226398172Y-97475622D01*
X226376209Y-97473701D01*
X226309918Y-97479500D01*
X210960368Y-97479500D01*
X210938656Y-97483328D01*
X210900256Y-97497304D01*
X210860008Y-97504402D01*
X210839291Y-97511942D01*
X210803898Y-97532376D01*
X210765499Y-97546352D01*
X210746407Y-97557375D01*
X210715104Y-97583641D01*
X210679709Y-97604077D01*
X210662820Y-97618248D01*
X210636550Y-97649556D01*
X210605249Y-97675821D01*
X210591078Y-97692709D01*
X210570646Y-97728097D01*
X210544375Y-97759406D01*
X210533352Y-97778499D01*
X210519374Y-97816904D01*
X210498943Y-97852290D01*
X210491402Y-97873009D01*
X210484308Y-97913247D01*
X210470329Y-97951653D01*
X210466500Y-97973366D01*
X210466500Y-98156767D01*
X210466501Y-98156773D01*
X210466500Y-99141925D01*
X209396310Y-99141925D01*
X209383990Y-99143138D01*
X209284590Y-99162910D01*
X209261659Y-99172408D01*
X209172220Y-99232169D01*
X209154669Y-99249720D01*
X209094908Y-99339159D01*
X209085410Y-99362090D01*
X209065638Y-99461490D01*
X209064425Y-99473810D01*
X209064425Y-99744000D01*
X207790753Y-99744000D01*
X207739730Y-99676434D01*
X207722473Y-99660702D01*
X207561011Y-99560728D01*
X207539236Y-99552293D01*
X207358312Y-99518472D01*
X207346711Y-99517397D01*
X206766829Y-99517397D01*
X206752357Y-99519076D01*
X206530454Y-99571267D01*
X206506656Y-99582439D01*
X206353934Y-99697770D01*
X206338202Y-99715027D01*
X206241225Y-99871649D01*
X206234004Y-99870213D01*
X206221684Y-99869000D01*
X206120007Y-99869000D01*
X206116233Y-99852955D01*
X206105061Y-99829156D01*
X205989730Y-99676434D01*
X205972473Y-99660702D01*
X205898253Y-99614747D01*
X205899299Y-99602790D01*
X205897378Y-99580826D01*
X205880157Y-99516559D01*
X205868599Y-99451009D01*
X205861058Y-99430290D01*
X205853563Y-99417309D01*
X205849686Y-99402838D01*
X205840368Y-99382855D01*
X205802198Y-99328343D01*
X205768924Y-99270710D01*
X205754752Y-99253820D01*
X205703765Y-99211037D01*
X204697999Y-98205272D01*
X204697999Y-98191470D01*
X204694896Y-98171881D01*
X204629057Y-97969247D01*
X204620053Y-97951576D01*
X204494818Y-97779205D01*
X204480795Y-97765182D01*
X204308424Y-97639947D01*
X204290753Y-97630943D01*
X204245113Y-97616114D01*
X205703765Y-96157463D01*
X205754752Y-96114680D01*
X205768924Y-96097790D01*
X205802198Y-96040157D01*
X205822162Y-96011646D01*
X205834546Y-96008733D01*
X205858344Y-95997561D01*
X206011066Y-95882230D01*
X206026798Y-95864973D01*
X206126772Y-95703511D01*
X206135207Y-95681736D01*
X206169028Y-95500812D01*
X206170103Y-95489211D01*
X206170103Y-95010789D01*
X206194897Y-95010789D01*
X206194897Y-95490671D01*
X206196576Y-95505143D01*
X206248767Y-95727046D01*
X206259939Y-95750844D01*
X206375270Y-95903566D01*
X206392527Y-95919298D01*
X206553989Y-96019272D01*
X206575764Y-96027707D01*
X206756688Y-96061528D01*
X206768289Y-96062603D01*
X207348171Y-96062603D01*
X207362643Y-96060924D01*
X207584546Y-96008733D01*
X207608344Y-95997561D01*
X207761066Y-95882230D01*
X207776798Y-95864973D01*
X207794737Y-95836000D01*
X209064425Y-95836000D01*
X209064425Y-96106190D01*
X209065638Y-96118510D01*
X209085410Y-96217910D01*
X209094908Y-96240841D01*
X209154669Y-96330280D01*
X209172220Y-96347831D01*
X209261659Y-96407592D01*
X209284590Y-96417090D01*
X209383990Y-96436862D01*
X209396310Y-96438075D01*
X212708690Y-96438075D01*
X212721010Y-96436862D01*
X212820410Y-96417090D01*
X212843341Y-96407592D01*
X212932780Y-96347831D01*
X212950331Y-96330280D01*
X213010092Y-96240841D01*
X213019590Y-96217910D01*
X213039362Y-96118510D01*
X213040575Y-96106190D01*
X213040575Y-94393810D01*
X213039362Y-94381490D01*
X213019590Y-94282090D01*
X213010092Y-94259159D01*
X212950331Y-94169720D01*
X212932780Y-94152169D01*
X212843341Y-94092408D01*
X212820410Y-94082910D01*
X212721010Y-94063138D01*
X212708690Y-94061925D01*
X211638500Y-94061925D01*
X211638500Y-93482228D01*
X211824729Y-93296000D01*
X213016669Y-93296000D01*
X212955947Y-93379576D01*
X212946943Y-93397247D01*
X212881104Y-93599881D01*
X212878001Y-93619470D01*
X212878001Y-93832530D01*
X212881104Y-93852119D01*
X212946943Y-94054753D01*
X212955947Y-94072424D01*
X213081182Y-94244795D01*
X213095205Y-94258818D01*
X213267576Y-94384053D01*
X213285247Y-94393057D01*
X213487881Y-94458896D01*
X213507470Y-94461999D01*
X213521272Y-94461999D01*
X214564425Y-95505153D01*
X214564425Y-96106190D01*
X214565638Y-96118510D01*
X214585410Y-96217910D01*
X214594908Y-96240841D01*
X214654669Y-96330280D01*
X214672220Y-96347831D01*
X214761659Y-96407592D01*
X214784590Y-96417090D01*
X214883990Y-96436862D01*
X214896310Y-96438075D01*
X218208690Y-96438075D01*
X218221010Y-96436862D01*
X218320410Y-96417090D01*
X218343341Y-96407592D01*
X218432780Y-96347831D01*
X218450331Y-96330280D01*
X218510092Y-96240841D01*
X218519590Y-96217910D01*
X218539362Y-96118510D01*
X218540575Y-96106190D01*
X218540575Y-95836000D01*
X219514464Y-95836000D01*
X219540100Y-95944998D01*
X219551272Y-95968796D01*
X219669419Y-96125248D01*
X219686676Y-96140980D01*
X219852112Y-96243414D01*
X219873887Y-96251849D01*
X220059404Y-96286528D01*
X220071005Y-96287603D01*
X220725455Y-96287603D01*
X220739927Y-96285924D01*
X220967498Y-96232400D01*
X220991296Y-96221228D01*
X221147748Y-96103081D01*
X221163480Y-96085824D01*
X221265914Y-95920388D01*
X221274186Y-95899035D01*
X221307755Y-96053353D01*
X221316385Y-96074187D01*
X221445196Y-96274620D01*
X221456999Y-96288241D01*
X221635349Y-96442783D01*
X221650511Y-96452527D01*
X221865177Y-96550561D01*
X221882470Y-96555639D01*
X222111594Y-96588582D01*
X222120571Y-96589224D01*
X222245691Y-96589224D01*
X222319500Y-96515415D01*
X222319500Y-95451809D01*
X222575500Y-95451809D01*
X222575500Y-96515415D01*
X222649309Y-96589224D01*
X222776683Y-96589224D01*
X222790113Y-96587780D01*
X223125853Y-96514745D01*
X223146687Y-96506115D01*
X223347120Y-96377304D01*
X223360741Y-96365501D01*
X223515283Y-96187151D01*
X223525027Y-96171989D01*
X223623061Y-95957323D01*
X223628139Y-95940030D01*
X223661082Y-95710906D01*
X223661724Y-95701929D01*
X223661724Y-95474853D01*
X227126602Y-95474853D01*
X227189221Y-95726005D01*
X227192669Y-95736104D01*
X227289591Y-95956900D01*
X227294692Y-95966275D01*
X227427430Y-96167584D01*
X227434038Y-96175965D01*
X227598798Y-96352032D01*
X227606722Y-96359180D01*
X227798792Y-96504968D01*
X227807808Y-96510679D01*
X228021696Y-96622021D01*
X228031545Y-96626131D01*
X228261134Y-96699845D01*
X228271535Y-96702236D01*
X228385162Y-96718407D01*
X228472000Y-96643052D01*
X228472000Y-95451809D01*
X228728000Y-95451809D01*
X228728000Y-96643748D01*
X228820218Y-96719362D01*
X229009019Y-96681636D01*
X229019270Y-96678667D01*
X229244387Y-96592253D01*
X229253991Y-96587600D01*
X229461330Y-96464491D01*
X229470012Y-96458286D01*
X229653645Y-96302004D01*
X229661158Y-96294424D01*
X229815833Y-96109435D01*
X229821962Y-96100698D01*
X229943256Y-95892294D01*
X229947825Y-95882650D01*
X230032272Y-95656787D01*
X230035151Y-95646511D01*
X230068943Y-95469369D01*
X229993356Y-95378000D01*
X228801809Y-95378000D01*
X228728000Y-95451809D01*
X228472000Y-95451809D01*
X228398191Y-95378000D01*
X227202272Y-95378000D01*
X227126602Y-95474853D01*
X223661724Y-95474853D01*
X223661724Y-95451809D01*
X223587915Y-95378000D01*
X222649309Y-95378000D01*
X222575500Y-95451809D01*
X222319500Y-95451809D01*
X222319500Y-93984585D01*
X222575500Y-93984585D01*
X222575500Y-95048191D01*
X222649309Y-95122000D01*
X223587915Y-95122000D01*
X223661724Y-95048191D01*
X223661724Y-94795817D01*
X223660280Y-94782387D01*
X223587245Y-94446647D01*
X223578615Y-94425813D01*
X223449804Y-94225380D01*
X223438001Y-94211759D01*
X223259651Y-94057217D01*
X223244489Y-94047473D01*
X223029823Y-93949439D01*
X223012530Y-93944361D01*
X222783406Y-93911418D01*
X222774429Y-93910776D01*
X222649309Y-93910776D01*
X222575500Y-93984585D01*
X222319500Y-93984585D01*
X222245691Y-93910776D01*
X222118317Y-93910776D01*
X222104887Y-93912220D01*
X221769147Y-93985255D01*
X221748313Y-93993885D01*
X221547880Y-94122696D01*
X221534259Y-94134499D01*
X221379717Y-94312849D01*
X221369973Y-94328011D01*
X221271939Y-94542677D01*
X221266861Y-94559970D01*
X221262766Y-94588448D01*
X221254900Y-94555002D01*
X221243728Y-94531204D01*
X221125581Y-94374752D01*
X221108324Y-94359020D01*
X220942888Y-94256586D01*
X220921113Y-94248151D01*
X220735596Y-94213472D01*
X220723995Y-94212397D01*
X220069545Y-94212397D01*
X220055073Y-94214076D01*
X219827502Y-94267600D01*
X219803704Y-94278772D01*
X219647252Y-94396919D01*
X219631520Y-94414176D01*
X219529086Y-94579613D01*
X219520651Y-94601387D01*
X219508947Y-94664000D01*
X218540575Y-94664000D01*
X218540575Y-94393810D01*
X218539362Y-94381490D01*
X218519590Y-94282090D01*
X218510092Y-94259159D01*
X218450331Y-94169720D01*
X218432780Y-94152169D01*
X218343341Y-94092408D01*
X218320410Y-94082910D01*
X218221010Y-94063138D01*
X218208690Y-94061925D01*
X214896310Y-94061925D01*
X214883990Y-94063138D01*
X214797142Y-94080413D01*
X214349999Y-93633271D01*
X214349999Y-93619470D01*
X214346896Y-93599881D01*
X214281057Y-93397247D01*
X214272053Y-93379576D01*
X214211331Y-93296000D01*
X227411925Y-93296000D01*
X227411925Y-93566190D01*
X227413138Y-93578510D01*
X227432910Y-93677910D01*
X227442408Y-93700841D01*
X227502169Y-93790280D01*
X227519720Y-93807831D01*
X227609159Y-93867592D01*
X227632090Y-93877090D01*
X227731490Y-93896862D01*
X227743810Y-93898075D01*
X227985803Y-93898075D01*
X227832155Y-93974346D01*
X227823032Y-93979882D01*
X227628199Y-94121957D01*
X227620138Y-94128952D01*
X227452029Y-94301822D01*
X227445263Y-94310074D01*
X227308683Y-94508798D01*
X227303403Y-94518073D01*
X227202260Y-94736968D01*
X227198619Y-94747000D01*
X227124085Y-95023233D01*
X227199734Y-95122000D01*
X229992863Y-95122000D01*
X230068373Y-95032487D01*
X230042499Y-94881114D01*
X230039817Y-94870784D01*
X229959723Y-94643343D01*
X229955339Y-94633612D01*
X229838067Y-94422916D01*
X229832107Y-94414064D01*
X229681013Y-94226140D01*
X229673647Y-94218417D01*
X229493049Y-94058638D01*
X229484486Y-94052267D01*
X229279549Y-93925202D01*
X229270036Y-93920365D01*
X229215142Y-93898075D01*
X229456190Y-93898075D01*
X229468510Y-93896862D01*
X229567910Y-93877090D01*
X229590841Y-93867592D01*
X229680280Y-93807831D01*
X229697831Y-93790280D01*
X229757592Y-93700841D01*
X229767090Y-93677910D01*
X229786862Y-93578510D01*
X229788075Y-93566190D01*
X229788075Y-91853810D01*
X229786862Y-91841490D01*
X229767090Y-91742090D01*
X229757592Y-91719159D01*
X229697831Y-91629720D01*
X229680280Y-91612169D01*
X229590841Y-91552408D01*
X229567910Y-91542910D01*
X229468510Y-91523138D01*
X229456190Y-91521925D01*
X227743810Y-91521925D01*
X227731490Y-91523138D01*
X227632090Y-91542910D01*
X227609159Y-91552408D01*
X227519720Y-91612169D01*
X227502169Y-91629720D01*
X227442408Y-91719159D01*
X227432910Y-91742090D01*
X227413138Y-91841490D01*
X227411925Y-91853810D01*
X227411925Y-92124000D01*
X211607582Y-92124000D01*
X211541290Y-92118201D01*
X211519326Y-92120122D01*
X211455059Y-92137343D01*
X211389509Y-92148901D01*
X211368790Y-92156442D01*
X211355809Y-92163937D01*
X211341338Y-92167814D01*
X211321355Y-92177132D01*
X211266843Y-92215302D01*
X211209210Y-92248576D01*
X211192320Y-92262748D01*
X211149537Y-92313735D01*
X210656233Y-92807039D01*
X210605249Y-92849821D01*
X210591078Y-92866709D01*
X210557802Y-92924343D01*
X210519632Y-92978857D01*
X210510315Y-92998837D01*
X210506436Y-93013312D01*
X210498943Y-93026291D01*
X210491402Y-93047008D01*
X210479846Y-93112546D01*
X210462622Y-93176828D01*
X210460701Y-93198791D01*
X210466501Y-93265094D01*
X210466501Y-94061925D01*
X209396310Y-94061925D01*
X209383990Y-94063138D01*
X209284590Y-94082910D01*
X209261659Y-94092408D01*
X209172220Y-94152169D01*
X209154669Y-94169720D01*
X209094908Y-94259159D01*
X209085410Y-94282090D01*
X209065638Y-94381490D01*
X209064425Y-94393810D01*
X209064425Y-94664000D01*
X207790753Y-94664000D01*
X207739730Y-94596434D01*
X207722473Y-94580702D01*
X207561011Y-94480728D01*
X207539236Y-94472293D01*
X207358312Y-94438472D01*
X207346711Y-94437397D01*
X206766829Y-94437397D01*
X206752357Y-94439076D01*
X206530454Y-94491267D01*
X206506656Y-94502439D01*
X206353934Y-94617770D01*
X206338202Y-94635027D01*
X206238228Y-94796489D01*
X206229793Y-94818264D01*
X206195972Y-94999188D01*
X206194897Y-95010789D01*
X206170103Y-95010789D01*
X206170103Y-95009329D01*
X206168424Y-94994857D01*
X206116233Y-94772954D01*
X206105061Y-94749156D01*
X205989730Y-94596434D01*
X205972473Y-94580702D01*
X205811011Y-94480728D01*
X205789236Y-94472293D01*
X205608312Y-94438472D01*
X205596711Y-94437397D01*
X205219059Y-94437397D01*
X205344456Y-94312000D01*
X208088403Y-94312000D01*
X208187576Y-94384053D01*
X208205247Y-94393057D01*
X208407881Y-94458896D01*
X208427470Y-94461999D01*
X208640530Y-94461999D01*
X208660119Y-94458896D01*
X208862753Y-94393057D01*
X208880424Y-94384053D01*
X209052795Y-94258818D01*
X209066818Y-94244795D01*
X209192053Y-94072424D01*
X209201057Y-94054753D01*
X209266896Y-93852119D01*
X209269999Y-93832530D01*
X209269999Y-93619470D01*
X209266896Y-93599881D01*
X209201057Y-93397247D01*
X209192053Y-93379576D01*
X209066818Y-93207205D01*
X209052795Y-93193182D01*
X208880424Y-93067947D01*
X208862753Y-93058943D01*
X208660119Y-92993104D01*
X208640530Y-92990001D01*
X208427470Y-92990001D01*
X208407881Y-92993104D01*
X208205247Y-93058943D01*
X208187576Y-93067947D01*
X208088403Y-93140000D01*
X205127309Y-93140000D01*
X205061017Y-93134201D01*
X205039053Y-93136122D01*
X204974786Y-93153343D01*
X204909236Y-93164901D01*
X204888517Y-93172442D01*
X204875536Y-93179937D01*
X204861065Y-93183814D01*
X204841082Y-93193132D01*
X204786570Y-93231302D01*
X204728937Y-93264576D01*
X204712047Y-93278748D01*
X204669264Y-93329735D01*
X202231469Y-95767531D01*
X202180476Y-95810319D01*
X202166304Y-95827209D01*
X202133026Y-95884850D01*
X202096108Y-95937573D01*
X201903846Y-95875104D01*
X201884257Y-95872001D01*
X201870456Y-95872001D01*
X200510194Y-94511740D01*
X200467406Y-94460747D01*
X200450517Y-94446575D01*
X200392877Y-94413298D01*
X200338370Y-94375131D01*
X200318388Y-94365814D01*
X200303918Y-94361936D01*
X200290936Y-94354441D01*
X200270218Y-94346900D01*
X200204669Y-94335342D01*
X200140398Y-94318121D01*
X200118435Y-94316200D01*
X200052144Y-94321999D01*
X198499578Y-94321999D01*
X198433289Y-94316200D01*
X198411325Y-94318121D01*
X198347058Y-94335342D01*
X198281508Y-94346900D01*
X198260789Y-94354441D01*
X198247808Y-94361936D01*
X198233337Y-94365813D01*
X198213354Y-94375131D01*
X198158842Y-94413301D01*
X198101209Y-94446575D01*
X198084319Y-94460747D01*
X198052725Y-94498400D01*
X198025057Y-94413247D01*
X198016053Y-94395576D01*
X197890818Y-94223205D01*
X197876795Y-94209182D01*
X197704424Y-94083947D01*
X197686753Y-94074943D01*
X197484119Y-94009104D01*
X197464530Y-94006001D01*
X197251470Y-94006001D01*
X197231881Y-94009104D01*
X197029247Y-94074943D01*
X197011576Y-94083947D01*
X196872143Y-94185251D01*
X196846262Y-94163535D01*
X196686467Y-94003740D01*
X196643679Y-93952747D01*
X196626790Y-93938575D01*
X196569150Y-93905298D01*
X196514643Y-93867131D01*
X196494661Y-93857814D01*
X196480191Y-93853936D01*
X196467209Y-93846441D01*
X196446491Y-93838900D01*
X196380942Y-93827342D01*
X196316671Y-93810121D01*
X196294708Y-93808200D01*
X196228417Y-93813999D01*
X187819580Y-93813999D01*
X187753291Y-93808200D01*
X187731327Y-93810121D01*
X187667060Y-93827342D01*
X187601510Y-93838900D01*
X187580791Y-93846441D01*
X187567810Y-93853936D01*
X187553339Y-93857813D01*
X187533356Y-93867131D01*
X187478844Y-93905301D01*
X187421211Y-93938575D01*
X187404321Y-93952747D01*
X187361538Y-94003734D01*
X184404000Y-96961273D01*
X183820468Y-96377741D01*
X183777680Y-96326748D01*
X183760791Y-96312576D01*
X183703151Y-96279299D01*
X183648644Y-96241132D01*
X183628662Y-96231815D01*
X183614192Y-96227937D01*
X183601210Y-96220442D01*
X183580492Y-96212901D01*
X183514943Y-96201343D01*
X183450672Y-96184122D01*
X183428709Y-96182201D01*
X183362418Y-96188000D01*
X182456253Y-96188000D01*
X182405230Y-96120434D01*
X182387973Y-96104702D01*
X182226511Y-96004728D01*
X182204736Y-95996293D01*
X182023812Y-95962472D01*
X182012211Y-95961397D01*
X181432329Y-95961397D01*
X181417857Y-95963076D01*
X181195954Y-96015267D01*
X181172156Y-96026439D01*
X181019434Y-96141770D01*
X181003702Y-96159027D01*
X180903728Y-96320489D01*
X180895293Y-96342264D01*
X180861472Y-96523188D01*
X180860397Y-96534789D01*
X180860397Y-97014671D01*
X180862076Y-97029143D01*
X180914267Y-97251046D01*
X180925439Y-97274844D01*
X181040770Y-97427566D01*
X181058027Y-97443298D01*
X181219489Y-97543272D01*
X181241264Y-97551707D01*
X181422188Y-97585528D01*
X181433789Y-97586603D01*
X182013671Y-97586603D01*
X182028143Y-97584924D01*
X182250046Y-97532733D01*
X182273844Y-97521561D01*
X182426566Y-97406230D01*
X182442298Y-97388973D01*
X182460237Y-97360000D01*
X183145272Y-97360000D01*
X183818001Y-98032730D01*
X183818000Y-100060439D01*
X183663696Y-100161413D01*
X183654091Y-100169136D01*
X183497044Y-100322928D01*
X183489121Y-100332370D01*
X183364936Y-100513738D01*
X183358999Y-100524538D01*
X183272406Y-100726572D01*
X183268680Y-100738320D01*
X183222978Y-100953326D01*
X183221604Y-100965574D01*
X183218536Y-101185363D01*
X183219568Y-101197644D01*
X183259246Y-101413841D01*
X183262644Y-101425689D01*
X183343562Y-101630063D01*
X183349195Y-101641024D01*
X183468268Y-101825789D01*
X183475923Y-101835448D01*
X183628615Y-101993566D01*
X183638001Y-102001554D01*
X183818498Y-102127002D01*
X183829256Y-102133015D01*
X183994867Y-102205368D01*
X183862068Y-102245210D01*
X183852142Y-102249130D01*
X183636155Y-102356346D01*
X183627032Y-102361882D01*
X183432199Y-102503957D01*
X183424138Y-102510952D01*
X183256029Y-102683822D01*
X183249263Y-102692074D01*
X183112683Y-102890798D01*
X183107403Y-102900073D01*
X183006260Y-103118968D01*
X183002618Y-103129000D01*
X182976798Y-103224694D01*
X182916822Y-103079183D01*
X182911036Y-103068301D01*
X182789396Y-102885218D01*
X182781606Y-102875667D01*
X182626722Y-102719697D01*
X182617225Y-102711840D01*
X182434994Y-102588924D01*
X182424153Y-102583062D01*
X182221519Y-102497882D01*
X182209745Y-102494238D01*
X181994425Y-102450039D01*
X181982168Y-102448751D01*
X181762365Y-102447216D01*
X181750090Y-102448333D01*
X181534174Y-102489522D01*
X181522350Y-102493001D01*
X181318547Y-102575343D01*
X181307624Y-102581053D01*
X181123696Y-102701413D01*
X181114091Y-102709136D01*
X180957044Y-102862928D01*
X180949121Y-102872370D01*
X180824936Y-103053738D01*
X180818999Y-103064538D01*
X180732406Y-103266572D01*
X180728680Y-103278320D01*
X180682978Y-103493326D01*
X180681604Y-103505574D01*
X180678536Y-103725363D01*
X180679568Y-103737644D01*
X180719246Y-103953841D01*
X180722644Y-103965689D01*
X180803562Y-104170063D01*
X180809195Y-104181024D01*
X180928268Y-104365789D01*
X180935923Y-104375448D01*
X181088615Y-104533566D01*
X181098001Y-104541554D01*
X181278498Y-104667002D01*
X181289256Y-104673015D01*
X181490681Y-104761015D01*
X181502403Y-104764823D01*
X181717084Y-104812024D01*
X181729322Y-104813483D01*
X181949083Y-104818087D01*
X181961372Y-104817142D01*
X182177843Y-104778972D01*
X182181284Y-104778011D01*
X185467282Y-108064010D01*
X182660736Y-108064010D01*
X179414403Y-104817678D01*
X179421372Y-104817142D01*
X179637843Y-104778972D01*
X179649713Y-104775657D01*
X179854646Y-104696169D01*
X179865647Y-104690612D01*
X180051238Y-104572832D01*
X180060950Y-104565245D01*
X180220131Y-104413660D01*
X180228184Y-104404330D01*
X180354890Y-104224714D01*
X180360977Y-104213997D01*
X180450381Y-104013191D01*
X180454272Y-104001496D01*
X180503068Y-103786720D01*
X180504632Y-103773606D01*
X180508125Y-103523415D01*
X180506928Y-103510262D01*
X180464148Y-103294207D01*
X180460586Y-103282407D01*
X180376822Y-103079183D01*
X180371036Y-103068301D01*
X180249396Y-102885218D01*
X180241606Y-102875667D01*
X180086722Y-102719697D01*
X180077225Y-102711840D01*
X179894994Y-102588924D01*
X179884153Y-102583062D01*
X179681519Y-102497882D01*
X179669745Y-102494238D01*
X179454425Y-102450039D01*
X179442168Y-102448751D01*
X179222365Y-102447216D01*
X179210090Y-102448333D01*
X178994174Y-102489522D01*
X178982350Y-102493001D01*
X178778547Y-102575343D01*
X178767624Y-102581053D01*
X178609999Y-102684201D01*
X178609999Y-102634728D01*
X178964652Y-102280075D01*
X180180190Y-102280075D01*
X180192510Y-102278862D01*
X180291910Y-102259090D01*
X180314841Y-102249592D01*
X180404280Y-102189831D01*
X180421831Y-102172280D01*
X180481592Y-102082841D01*
X180491090Y-102059910D01*
X180510862Y-101960510D01*
X180512075Y-101948190D01*
X180512075Y-101185363D01*
X180678536Y-101185363D01*
X180679568Y-101197644D01*
X180719246Y-101413841D01*
X180722644Y-101425689D01*
X180803562Y-101630063D01*
X180809195Y-101641024D01*
X180928268Y-101825789D01*
X180935923Y-101835448D01*
X181088615Y-101993566D01*
X181098001Y-102001554D01*
X181278498Y-102127002D01*
X181289256Y-102133015D01*
X181490681Y-102221015D01*
X181502403Y-102224823D01*
X181717084Y-102272024D01*
X181729322Y-102273483D01*
X181949083Y-102278087D01*
X181961372Y-102277142D01*
X182177843Y-102238972D01*
X182189713Y-102235657D01*
X182394646Y-102156169D01*
X182405647Y-102150612D01*
X182591238Y-102032832D01*
X182600950Y-102025245D01*
X182760131Y-101873660D01*
X182768184Y-101864330D01*
X182894890Y-101684714D01*
X182900977Y-101673997D01*
X182990381Y-101473191D01*
X182994272Y-101461496D01*
X183043068Y-101246720D01*
X183044632Y-101233606D01*
X183048125Y-100983415D01*
X183046928Y-100970262D01*
X183004148Y-100754207D01*
X183000586Y-100742407D01*
X182916822Y-100539183D01*
X182911036Y-100528301D01*
X182789396Y-100345218D01*
X182781606Y-100335667D01*
X182626722Y-100179697D01*
X182617225Y-100171840D01*
X182434994Y-100048924D01*
X182424153Y-100043062D01*
X182221519Y-99957882D01*
X182209745Y-99954238D01*
X181994425Y-99910039D01*
X181982168Y-99908751D01*
X181762365Y-99907216D01*
X181750090Y-99908333D01*
X181534174Y-99949522D01*
X181522350Y-99953001D01*
X181318547Y-100035343D01*
X181307624Y-100041053D01*
X181123696Y-100161413D01*
X181114091Y-100169136D01*
X180957044Y-100322928D01*
X180949121Y-100332370D01*
X180824936Y-100513738D01*
X180818999Y-100524538D01*
X180732406Y-100726572D01*
X180728680Y-100738320D01*
X180682978Y-100953326D01*
X180681604Y-100965574D01*
X180678536Y-101185363D01*
X180512075Y-101185363D01*
X180512075Y-100235810D01*
X180510862Y-100223490D01*
X180491090Y-100124090D01*
X180481592Y-100101159D01*
X180421831Y-100011720D01*
X180404280Y-99994169D01*
X180314841Y-99934408D01*
X180291910Y-99924910D01*
X180192510Y-99905138D01*
X180180190Y-99903925D01*
X178467810Y-99903925D01*
X178455490Y-99905138D01*
X178356090Y-99924910D01*
X178333159Y-99934408D01*
X178243720Y-99994169D01*
X178226169Y-100011720D01*
X178166408Y-100101159D01*
X178156910Y-100124090D01*
X178137138Y-100223490D01*
X178135925Y-100235810D01*
X178135925Y-101451348D01*
X177627740Y-101959533D01*
X177576747Y-102002321D01*
X177562575Y-102019211D01*
X177529297Y-102076852D01*
X177491131Y-102131357D01*
X177481813Y-102151340D01*
X177477936Y-102165811D01*
X177470441Y-102178792D01*
X177462900Y-102199511D01*
X177451342Y-102265061D01*
X177434121Y-102329328D01*
X177432200Y-102351292D01*
X175594000Y-102351292D01*
X175594000Y-96667470D01*
X177064001Y-96667470D01*
X177064001Y-96880530D01*
X177067104Y-96900119D01*
X177132943Y-97102753D01*
X177141947Y-97120424D01*
X177267182Y-97292795D01*
X177281205Y-97306818D01*
X177453576Y-97432053D01*
X177471247Y-97441057D01*
X177673881Y-97506896D01*
X177693470Y-97509999D01*
X177906530Y-97509999D01*
X177926119Y-97506896D01*
X178128753Y-97441057D01*
X178146424Y-97432053D01*
X178245597Y-97360000D01*
X179239747Y-97360000D01*
X179290770Y-97427566D01*
X179308027Y-97443298D01*
X179469489Y-97543272D01*
X179491264Y-97551707D01*
X179672188Y-97585528D01*
X179683789Y-97586603D01*
X180263671Y-97586603D01*
X180278143Y-97584924D01*
X180500046Y-97532733D01*
X180523844Y-97521561D01*
X180676566Y-97406230D01*
X180692298Y-97388973D01*
X180792272Y-97227511D01*
X180800707Y-97205736D01*
X180834528Y-97024812D01*
X180835603Y-97013211D01*
X180835603Y-96533329D01*
X180833924Y-96518857D01*
X180781733Y-96296954D01*
X180770561Y-96273156D01*
X180655230Y-96120434D01*
X180637973Y-96104702D01*
X180476511Y-96004728D01*
X180454736Y-95996293D01*
X180273812Y-95962472D01*
X180262211Y-95961397D01*
X179682329Y-95961397D01*
X179667857Y-95963076D01*
X179445954Y-96015267D01*
X179422156Y-96026439D01*
X179269434Y-96141770D01*
X179253702Y-96159027D01*
X179235763Y-96188000D01*
X178697727Y-96188000D01*
X179614125Y-95271603D01*
X180150955Y-95271603D01*
X180165427Y-95269924D01*
X180392998Y-95216400D01*
X180416796Y-95205228D01*
X180573248Y-95087081D01*
X180588980Y-95069824D01*
X180691414Y-94904388D01*
X180699686Y-94883035D01*
X180733255Y-95037353D01*
X180741885Y-95058187D01*
X180870696Y-95258620D01*
X180882499Y-95272241D01*
X181060849Y-95426783D01*
X181076011Y-95436527D01*
X181290677Y-95534561D01*
X181307970Y-95539639D01*
X181537094Y-95572582D01*
X181546071Y-95573224D01*
X181671191Y-95573224D01*
X181745000Y-95499415D01*
X181745000Y-94435809D01*
X182001000Y-94435809D01*
X182001000Y-95499415D01*
X182074809Y-95573224D01*
X182202183Y-95573224D01*
X182215613Y-95571780D01*
X182551353Y-95498745D01*
X182572187Y-95490115D01*
X182772620Y-95361304D01*
X182786241Y-95349501D01*
X182940783Y-95171151D01*
X182950527Y-95155989D01*
X183048561Y-94941323D01*
X183053639Y-94924030D01*
X183086582Y-94694906D01*
X183087224Y-94685929D01*
X183087224Y-94435809D01*
X183013415Y-94362000D01*
X182074809Y-94362000D01*
X182001000Y-94435809D01*
X181745000Y-94435809D01*
X181745000Y-92968585D01*
X182001000Y-92968585D01*
X182001000Y-94032191D01*
X182074809Y-94106000D01*
X183013415Y-94106000D01*
X183087224Y-94032191D01*
X183087224Y-93779817D01*
X183085780Y-93766387D01*
X183012745Y-93430647D01*
X183004115Y-93409813D01*
X182875304Y-93209380D01*
X182863501Y-93195759D01*
X182685151Y-93041217D01*
X182669989Y-93031473D01*
X182455323Y-92933439D01*
X182438030Y-92928361D01*
X182208906Y-92895418D01*
X182199929Y-92894776D01*
X182074809Y-92894776D01*
X182001000Y-92968585D01*
X181745000Y-92968585D01*
X181671191Y-92894776D01*
X181543817Y-92894776D01*
X181530387Y-92896220D01*
X181194647Y-92969255D01*
X181173813Y-92977885D01*
X180973380Y-93106696D01*
X180959759Y-93118499D01*
X180805217Y-93296849D01*
X180795473Y-93312011D01*
X180697439Y-93526677D01*
X180692361Y-93543970D01*
X180688266Y-93572448D01*
X180680400Y-93539002D01*
X180669228Y-93515204D01*
X180551081Y-93358752D01*
X180533824Y-93343020D01*
X180368388Y-93240586D01*
X180346613Y-93232151D01*
X180161096Y-93197472D01*
X180149495Y-93196397D01*
X179495045Y-93196397D01*
X179480573Y-93198076D01*
X179253002Y-93251600D01*
X179229204Y-93262772D01*
X179072752Y-93380919D01*
X179057020Y-93398176D01*
X178954586Y-93563612D01*
X178946151Y-93585387D01*
X178911472Y-93770904D01*
X178910397Y-93782505D01*
X178910397Y-94317875D01*
X177403736Y-95824537D01*
X177352749Y-95867320D01*
X177338578Y-95884209D01*
X177305302Y-95941843D01*
X177267132Y-95996357D01*
X177257815Y-96016337D01*
X177253936Y-96030812D01*
X177246443Y-96043791D01*
X177238902Y-96064508D01*
X177227346Y-96130046D01*
X177210122Y-96194328D01*
X177208201Y-96216291D01*
X177214001Y-96282594D01*
X177214001Y-96328402D01*
X177141947Y-96427576D01*
X177132943Y-96445247D01*
X177067104Y-96647881D01*
X177064001Y-96667470D01*
X175594000Y-96667470D01*
X175594000Y-86448364D01*
X178402940Y-86448364D01*
X178403388Y-86457703D01*
X178437278Y-86733708D01*
X178439102Y-86742879D01*
X178513415Y-87010843D01*
X178516575Y-87019644D01*
X178629679Y-87273681D01*
X178634105Y-87281918D01*
X178783517Y-87516447D01*
X178789111Y-87523939D01*
X178971547Y-87733807D01*
X178978187Y-87740390D01*
X179189640Y-87920987D01*
X179197180Y-87926517D01*
X179433004Y-88073876D01*
X179441279Y-88078229D01*
X179696293Y-88189113D01*
X179705121Y-88192196D01*
X179973724Y-88264167D01*
X179982910Y-88265911D01*
X180259200Y-88297390D01*
X180268544Y-88297757D01*
X180546453Y-88288053D01*
X180555748Y-88287035D01*
X180829170Y-88236359D01*
X180838212Y-88233978D01*
X181101140Y-88143445D01*
X181109731Y-88139754D01*
X181356389Y-88011351D01*
X181364341Y-88006431D01*
X181589310Y-87842981D01*
X181596447Y-87836939D01*
X181794786Y-87642032D01*
X181800951Y-87635002D01*
X181968304Y-87412919D01*
X181973362Y-87405055D01*
X182106049Y-87160675D01*
X182109889Y-87152150D01*
X182204998Y-86890841D01*
X182207536Y-86881842D01*
X182263140Y-86608536D01*
X182264386Y-86597605D01*
X182274184Y-86223435D01*
X182273512Y-86212453D01*
X182232288Y-85936612D01*
X182230224Y-85927492D01*
X182148922Y-85661565D01*
X182145533Y-85652850D01*
X182025817Y-85401861D01*
X182021177Y-85393743D01*
X181865678Y-85163206D01*
X181859890Y-85155863D01*
X181672022Y-84950842D01*
X181665212Y-84944435D01*
X181449104Y-84769434D01*
X181441421Y-84764105D01*
X181201821Y-84622970D01*
X181193435Y-84618834D01*
X180935606Y-84514664D01*
X180926700Y-84511814D01*
X180656305Y-84446897D01*
X180647076Y-84445394D01*
X180370056Y-84421158D01*
X180360706Y-84421036D01*
X180083147Y-84438012D01*
X180073882Y-84439273D01*
X179801881Y-84497088D01*
X179792904Y-84499705D01*
X179532436Y-84597091D01*
X179523944Y-84601005D01*
X179280732Y-84735819D01*
X179272912Y-84740946D01*
X179052298Y-84910231D01*
X179045322Y-84916457D01*
X178852153Y-85116489D01*
X178846173Y-85123678D01*
X178684693Y-85350066D01*
X178679842Y-85358059D01*
X178553597Y-85605829D01*
X178549981Y-85614452D01*
X178461745Y-85878160D01*
X178459443Y-85887223D01*
X178411155Y-86161077D01*
X178410219Y-86170380D01*
X178402940Y-86448364D01*
X175594000Y-86448364D01*
X175594000Y-86405332D01*
X175596481Y-86396355D01*
X175598706Y-86382234D01*
X175599026Y-86374802D01*
X175617711Y-85946856D01*
X175671689Y-85536846D01*
X175761194Y-85133115D01*
X175885547Y-84738715D01*
X176043806Y-84356646D01*
X176234752Y-83989842D01*
X176456951Y-83641060D01*
X176708698Y-83312976D01*
X176988077Y-83008088D01*
X177292981Y-82728694D01*
X177621061Y-82476951D01*
X177969843Y-82254752D01*
X178336646Y-82063806D01*
X178718719Y-81905546D01*
X179113115Y-81781194D01*
X179516846Y-81691689D01*
X179926854Y-81637711D01*
X180340000Y-81619672D01*
X180753144Y-81637711D01*
X181163154Y-81691689D01*
X181566885Y-81781194D01*
X181961285Y-81905547D01*
X182343354Y-82063806D01*
X182710158Y-82254752D01*
X183058940Y-82476951D01*
X183387024Y-82728698D01*
X183691912Y-83008077D01*
X183971306Y-83312981D01*
X184223049Y-83641061D01*
X184445248Y-83989843D01*
X184636194Y-84356646D01*
X184794454Y-84738719D01*
X184918806Y-85133115D01*
X185008311Y-85536846D01*
X185062289Y-85946854D01*
X185081282Y-86381867D01*
X185083477Y-86395840D01*
X185085955Y-86404868D01*
X185085941Y-86421345D01*
X185092228Y-86449018D01*
X185105878Y-86477444D01*
X185114226Y-86507856D01*
X185127637Y-86532867D01*
X185138457Y-86545291D01*
X185145589Y-86560144D01*
X185163255Y-86582354D01*
X185187887Y-86602053D01*
X185208593Y-86625831D01*
X185231522Y-86642551D01*
X185246662Y-86649055D01*
X185259553Y-86659365D01*
X185285157Y-86671728D01*
X185315736Y-86678732D01*
X185344786Y-86691213D01*
X185372698Y-86696335D01*
X185427279Y-86694000D01*
X223512445Y-86694000D01*
X223566715Y-86696418D01*
X223594637Y-86691343D01*
X223623631Y-86678946D01*
X223654376Y-86671933D01*
X223679948Y-86659626D01*
X223692836Y-86649356D01*
X223707985Y-86642879D01*
X223730943Y-86626199D01*
X223751691Y-86602457D01*
X223776357Y-86582801D01*
X223794061Y-86560623D01*
X223801219Y-86545782D01*
X223812062Y-86533374D01*
X223825515Y-86508390D01*
X223833917Y-86477993D01*
X223847617Y-86449589D01*
X223847897Y-86448364D01*
X226662940Y-86448364D01*
X226663388Y-86457703D01*
X226697278Y-86733708D01*
X226699102Y-86742879D01*
X226773415Y-87010843D01*
X226776575Y-87019644D01*
X226889679Y-87273681D01*
X226894105Y-87281918D01*
X227043517Y-87516447D01*
X227049111Y-87523939D01*
X227231547Y-87733807D01*
X227238187Y-87740390D01*
X227449640Y-87920987D01*
X227457180Y-87926517D01*
X227693004Y-88073876D01*
X227701279Y-88078229D01*
X227956293Y-88189113D01*
X227965121Y-88192196D01*
X228233724Y-88264167D01*
X228242910Y-88265911D01*
X228519200Y-88297390D01*
X228528544Y-88297757D01*
X228806453Y-88288053D01*
X228815748Y-88287035D01*
X229089170Y-88236359D01*
X229098212Y-88233978D01*
X229361140Y-88143445D01*
X229369731Y-88139754D01*
X229616389Y-88011351D01*
X229624341Y-88006431D01*
X229849310Y-87842981D01*
X229856447Y-87836939D01*
X230054786Y-87642032D01*
X230060951Y-87635002D01*
X230228304Y-87412919D01*
X230233362Y-87405055D01*
X230366049Y-87160675D01*
X230369889Y-87152150D01*
X230464998Y-86890841D01*
X230467536Y-86881842D01*
X230523140Y-86608536D01*
X230524386Y-86597605D01*
X230534184Y-86223435D01*
X230533512Y-86212453D01*
X230492288Y-85936612D01*
X230490224Y-85927492D01*
X230408922Y-85661565D01*
X230405533Y-85652850D01*
X230285817Y-85401861D01*
X230281177Y-85393743D01*
X230125678Y-85163206D01*
X230119890Y-85155863D01*
X229932022Y-84950842D01*
X229925212Y-84944435D01*
X229709104Y-84769434D01*
X229701421Y-84764105D01*
X229461821Y-84622970D01*
X229453435Y-84618834D01*
X229195606Y-84514664D01*
X229186700Y-84511814D01*
X228916305Y-84446897D01*
X228907076Y-84445394D01*
X228630056Y-84421158D01*
X228620706Y-84421036D01*
X228343147Y-84438012D01*
X228333882Y-84439273D01*
X228061881Y-84497088D01*
X228052904Y-84499705D01*
X227792436Y-84597091D01*
X227783944Y-84601005D01*
X227540732Y-84735819D01*
X227532912Y-84740946D01*
X227312298Y-84910231D01*
X227305322Y-84916457D01*
X227112153Y-85116489D01*
X227106173Y-85123678D01*
X226944693Y-85350066D01*
X226939842Y-85358059D01*
X226813597Y-85605829D01*
X226809981Y-85614452D01*
X226721745Y-85878160D01*
X226719443Y-85887223D01*
X226671155Y-86161077D01*
X226670219Y-86170380D01*
X226662940Y-86448364D01*
X223847897Y-86448364D01*
X223853951Y-86421929D01*
X223853966Y-86405455D01*
X223856481Y-86396354D01*
X223858706Y-86382233D01*
X223859026Y-86374802D01*
X223877711Y-85946856D01*
X223931689Y-85536846D01*
X224021194Y-85133115D01*
X224145547Y-84738715D01*
X224303806Y-84356646D01*
X224494752Y-83989842D01*
X224716951Y-83641060D01*
X224968698Y-83312976D01*
X225248077Y-83008088D01*
X225552981Y-82728694D01*
X225881061Y-82476951D01*
X226229843Y-82254752D01*
X226596646Y-82063806D01*
X226978719Y-81905546D01*
X227373115Y-81781194D01*
X227776846Y-81691689D01*
X228186854Y-81637711D01*
X228600000Y-81619672D01*
X229013144Y-81637711D01*
G37*
%TD.AperFunction*%
%TD*%
M02*
