%TF.GenerationSoftware,KiCad,Pcbnew,5.99.0-unknown-1463dd1~101~ubuntu20.04.1*%
%TF.CreationDate,2020-07-08T00:12:39-04:00*%
%TF.ProjectId,Metal Detector,4d657461-6c20-4446-9574-6563746f722e,rev?*%
%TF.SameCoordinates,Original*%
%TF.FileFunction,Copper,L2,Bot*%
%TF.FilePolarity,Positive*%
%FSLAX46Y46*%
G04 Gerber Fmt 4.6, Leading zero omitted, Abs format (unit mm)*
G04 Created by KiCad (PCBNEW 5.99.0-unknown-1463dd1~101~ubuntu20.04.1) date 2020-07-08 00:12:39*
%MOMM*%
%LPD*%
G01*
G04 APERTURE LIST*
%TA.AperFunction,ComponentPad*%
%ADD10O,1.700000X1.700000*%
%TD*%
%TA.AperFunction,ComponentPad*%
%ADD11R,1.700000X1.700000*%
%TD*%
%TA.AperFunction,ViaPad*%
%ADD12C,0.800000*%
%TD*%
%TA.AperFunction,Conductor*%
%ADD13C,0.500000*%
%TD*%
G04 APERTURE END LIST*
D10*
%TO.P,J1,8,Pin_8*%
%TO.N,TX*%
X186944000Y-103632000D03*
%TO.P,J1,7,Pin_7*%
%TO.N,RX*%
X186944000Y-101092000D03*
%TO.P,J1,6,Pin_6*%
%TO.N,GND*%
X184404000Y-103632000D03*
%TO.P,J1,5,Pin_5*%
%TO.N,reset*%
X184404000Y-101092000D03*
%TO.P,J1,4,Pin_4*%
%TO.N,MOSI*%
X181864000Y-103632000D03*
%TO.P,J1,3,Pin_3*%
%TO.N,SCK*%
X181864000Y-101092000D03*
%TO.P,J1,2,Pin_2*%
%TO.N,+5V*%
X179324000Y-103632000D03*
D11*
%TO.P,J1,1,Pin_1*%
%TO.N,MISO*%
X179324000Y-101092000D03*
%TD*%
D10*
%TO.P,coil2,2,2*%
%TO.N,GND*%
X228600000Y-110490000D03*
D11*
%TO.P,coil2,1,1*%
%TO.N,Net-(D3-Pad2)*%
X228600000Y-107950000D03*
%TD*%
D10*
%TO.P,coil3,2,2*%
%TO.N,GND*%
X228600000Y-95250000D03*
D11*
%TO.P,coil3,1,1*%
%TO.N,Net-(D4-Pad2)*%
X228600000Y-92710000D03*
%TD*%
D10*
%TO.P,coil1,2,2*%
%TO.N,GND*%
X228600000Y-102870000D03*
D11*
%TO.P,coil1,1,1*%
%TO.N,Net-(D2-Pad2)*%
X228600000Y-100330000D03*
%TD*%
D12*
%TO.N,A1*%
X213614000Y-93726000D03*
X208534000Y-93726000D03*
%TO.N,A5*%
X197358000Y-94742000D03*
X216662000Y-103886000D03*
%TO.N,A4*%
X205232000Y-104140000D03*
X201777727Y-96608000D03*
%TO.N,A3*%
X198882000Y-95758000D03*
X216408000Y-98915500D03*
%TO.N,A2*%
X200914000Y-97282000D03*
X203962000Y-98298000D03*
%TO.N,Net-(R1-Pad1)*%
X195580000Y-110490000D03*
X195633989Y-106967698D03*
%TO.N,+5V*%
X177800000Y-96774000D03*
%TO.N,SCK*%
X199138054Y-104450000D03*
%TO.N,+5V*%
X197104000Y-101854000D03*
%TD*%
D13*
%TO.N,A1*%
X213614000Y-93726000D02*
X208534000Y-93726000D01*
%TO.N,A5*%
X217258001Y-98507499D02*
X213492502Y-94742000D01*
X213492502Y-94742000D02*
X197358000Y-94742000D01*
X217258001Y-103289999D02*
X217258001Y-98507499D01*
X216662000Y-103886000D02*
X217258001Y-103289999D01*
%TO.N,A4*%
X205232000Y-98309998D02*
X203530002Y-96608000D01*
X205232000Y-104140000D02*
X205232000Y-98309998D01*
X203530002Y-96608000D02*
X201777727Y-96608000D01*
%TO.N,A3*%
X213250500Y-95758000D02*
X198882000Y-95758000D01*
X216408000Y-98915500D02*
X213250500Y-95758000D01*
%TO.N,A2*%
X203962000Y-98298000D02*
X202184000Y-98298000D01*
X201168000Y-97282000D02*
X200914000Y-97282000D01*
X202184000Y-98298000D02*
X201168000Y-97282000D01*
%TO.N,Net-(R1-Pad1)*%
X195580000Y-110490000D02*
X195580000Y-107021687D01*
X195580000Y-107021687D02*
X195633989Y-106967698D01*
%TO.N,+5V*%
X179324000Y-103632000D02*
X179324000Y-103602002D01*
X177800000Y-102078002D02*
X177800000Y-96774000D01*
X179324000Y-103602002D02*
X177800000Y-102078002D01*
%TO.N,SCK*%
X183164001Y-99791999D02*
X196300001Y-99791999D01*
X181864000Y-101092000D02*
X183164001Y-99791999D01*
X199138054Y-102630052D02*
X199138054Y-104450000D01*
X196300001Y-99791999D02*
X199138054Y-102630052D01*
%TO.N,+5V*%
X181864000Y-106172000D02*
X189738000Y-106172000D01*
X189738000Y-106172000D02*
X194056000Y-101854000D01*
X179324000Y-103632000D02*
X181864000Y-106172000D01*
X194056000Y-101854000D02*
X197104000Y-101854000D01*
%TD*%
M02*
