%TF.GenerationSoftware,KiCad,Pcbnew,5.99.0-unknown-ad88874~101~ubuntu20.04.1*%
%TF.CreationDate,2020-05-19T22:39:21-04:00*%
%TF.ProjectId,headlights,68656164-6c69-4676-9874-732e6b696361,rev?*%
%TF.SameCoordinates,Original*%
%TF.FileFunction,Soldermask,Top*%
%TF.FilePolarity,Negative*%
%FSLAX46Y46*%
G04 Gerber Fmt 4.6, Leading zero omitted, Abs format (unit mm)*
G04 Created by KiCad (PCBNEW 5.99.0-unknown-ad88874~101~ubuntu20.04.1) date 2020-05-19 22:39:21*
%MOMM*%
%LPD*%
G01*
G04 APERTURE LIST*
%ADD10O,1.800000X1.800000*%
%ADD11C,3.100000*%
G04 APERTURE END LIST*
D10*
%TO.C,J2*%
X113000000Y-76840000D03*
X113000000Y-79380000D03*
X113000000Y-81920000D03*
X113000000Y-84460000D03*
G36*
G01*
X113900000Y-86150000D02*
X113900000Y-87850000D01*
G75*
G02*
X113850000Y-87900000I-50000J0D01*
G01*
X112150000Y-87900000D01*
G75*
G02*
X112100000Y-87850000I0J50000D01*
G01*
X112100000Y-86150000D01*
G75*
G02*
X112150000Y-86100000I50000J0D01*
G01*
X113850000Y-86100000D01*
G75*
G02*
X113900000Y-86150000I0J-50000D01*
G01*
G37*
%TD*%
%TO.C,U2*%
G36*
G01*
X120001000Y-72856500D02*
X116499000Y-72856500D01*
G75*
G02*
X116449000Y-72806500I0J50000D01*
G01*
X116449000Y-70193500D01*
G75*
G02*
X116499000Y-70143500I50000J0D01*
G01*
X120001000Y-70143500D01*
G75*
G02*
X120051000Y-70193500I0J-50000D01*
G01*
X120051000Y-72806500D01*
G75*
G02*
X120001000Y-72856500I-50000J0D01*
G01*
G37*
G36*
G01*
X116746000Y-69805000D02*
X115944000Y-69805000D01*
G75*
G02*
X115894000Y-69755000I0J50000D01*
G01*
X115894000Y-68250000D01*
G75*
G02*
X115944000Y-68200000I50000J0D01*
G01*
X116746000Y-68200000D01*
G75*
G02*
X116796000Y-68250000I0J-50000D01*
G01*
X116796000Y-69755000D01*
G75*
G02*
X116746000Y-69805000I-50000J0D01*
G01*
G37*
G36*
G01*
X118016000Y-69805000D02*
X117214000Y-69805000D01*
G75*
G02*
X117164000Y-69755000I0J50000D01*
G01*
X117164000Y-68250000D01*
G75*
G02*
X117214000Y-68200000I50000J0D01*
G01*
X118016000Y-68200000D01*
G75*
G02*
X118066000Y-68250000I0J-50000D01*
G01*
X118066000Y-69755000D01*
G75*
G02*
X118016000Y-69805000I-50000J0D01*
G01*
G37*
G36*
G01*
X119286000Y-69805000D02*
X118484000Y-69805000D01*
G75*
G02*
X118434000Y-69755000I0J50000D01*
G01*
X118434000Y-68250000D01*
G75*
G02*
X118484000Y-68200000I50000J0D01*
G01*
X119286000Y-68200000D01*
G75*
G02*
X119336000Y-68250000I0J-50000D01*
G01*
X119336000Y-69755000D01*
G75*
G02*
X119286000Y-69805000I-50000J0D01*
G01*
G37*
G36*
G01*
X120556000Y-69805000D02*
X119754000Y-69805000D01*
G75*
G02*
X119704000Y-69755000I0J50000D01*
G01*
X119704000Y-68250000D01*
G75*
G02*
X119754000Y-68200000I50000J0D01*
G01*
X120556000Y-68200000D01*
G75*
G02*
X120606000Y-68250000I0J-50000D01*
G01*
X120606000Y-69755000D01*
G75*
G02*
X120556000Y-69805000I-50000J0D01*
G01*
G37*
G36*
G01*
X120556000Y-74800000D02*
X119754000Y-74800000D01*
G75*
G02*
X119704000Y-74750000I0J50000D01*
G01*
X119704000Y-73245000D01*
G75*
G02*
X119754000Y-73195000I50000J0D01*
G01*
X120556000Y-73195000D01*
G75*
G02*
X120606000Y-73245000I0J-50000D01*
G01*
X120606000Y-74750000D01*
G75*
G02*
X120556000Y-74800000I-50000J0D01*
G01*
G37*
G36*
G01*
X119286000Y-74800000D02*
X118484000Y-74800000D01*
G75*
G02*
X118434000Y-74750000I0J50000D01*
G01*
X118434000Y-73245000D01*
G75*
G02*
X118484000Y-73195000I50000J0D01*
G01*
X119286000Y-73195000D01*
G75*
G02*
X119336000Y-73245000I0J-50000D01*
G01*
X119336000Y-74750000D01*
G75*
G02*
X119286000Y-74800000I-50000J0D01*
G01*
G37*
G36*
G01*
X118016000Y-74800000D02*
X117214000Y-74800000D01*
G75*
G02*
X117164000Y-74750000I0J50000D01*
G01*
X117164000Y-73245000D01*
G75*
G02*
X117214000Y-73195000I50000J0D01*
G01*
X118016000Y-73195000D01*
G75*
G02*
X118066000Y-73245000I0J-50000D01*
G01*
X118066000Y-74750000D01*
G75*
G02*
X118016000Y-74800000I-50000J0D01*
G01*
G37*
G36*
G01*
X116746000Y-74800000D02*
X115944000Y-74800000D01*
G75*
G02*
X115894000Y-74750000I0J50000D01*
G01*
X115894000Y-73245000D01*
G75*
G02*
X115944000Y-73195000I50000J0D01*
G01*
X116746000Y-73195000D01*
G75*
G02*
X116796000Y-73245000I0J-50000D01*
G01*
X116796000Y-74750000D01*
G75*
G02*
X116746000Y-74800000I-50000J0D01*
G01*
G37*
%TD*%
D11*
%TO.C,J1*%
X110840000Y-55000000D03*
X115920000Y-55000000D03*
G36*
G01*
X122550000Y-53500000D02*
X122550000Y-56500000D01*
G75*
G02*
X122500000Y-56550000I-50000J0D01*
G01*
X119500000Y-56550000D01*
G75*
G02*
X119450000Y-56500000I0J50000D01*
G01*
X119450000Y-53500000D01*
G75*
G02*
X119500000Y-53450000I50000J0D01*
G01*
X122500000Y-53450000D01*
G75*
G02*
X122550000Y-53500000I0J-50000D01*
G01*
G37*
%TD*%
%TO.C,RV1*%
G36*
G01*
X112900000Y-71300000D02*
X112900000Y-69700000D01*
G75*
G02*
X112950000Y-69650000I50000J0D01*
G01*
X114450000Y-69650000D01*
G75*
G02*
X114500000Y-69700000I0J-50000D01*
G01*
X114500000Y-71300000D01*
G75*
G02*
X114450000Y-71350000I-50000J0D01*
G01*
X112950000Y-71350000D01*
G75*
G02*
X112900000Y-71300000I0J50000D01*
G01*
G37*
G36*
G01*
X109800000Y-72100000D02*
X109800000Y-70900000D01*
G75*
G02*
X109850000Y-70850000I50000J0D01*
G01*
X111050000Y-70850000D01*
G75*
G02*
X111100000Y-70900000I0J-50000D01*
G01*
X111100000Y-72100000D01*
G75*
G02*
X111050000Y-72150000I-50000J0D01*
G01*
X109850000Y-72150000D01*
G75*
G02*
X109800000Y-72100000I0J50000D01*
G01*
G37*
G36*
G01*
X109800000Y-70100000D02*
X109800000Y-68900000D01*
G75*
G02*
X109850000Y-68850000I50000J0D01*
G01*
X111050000Y-68850000D01*
G75*
G02*
X111100000Y-68900000I0J-50000D01*
G01*
X111100000Y-70100000D01*
G75*
G02*
X111050000Y-70150000I-50000J0D01*
G01*
X109850000Y-70150000D01*
G75*
G02*
X109800000Y-70100000I0J50000D01*
G01*
G37*
%TD*%
%TO.C,R3*%
G36*
G01*
X111500000Y-67781250D02*
X111500000Y-67218750D01*
G75*
G02*
X111743750Y-66975000I243750J0D01*
G01*
X112231250Y-66975000D01*
G75*
G02*
X112475000Y-67218750I0J-243750D01*
G01*
X112475000Y-67781250D01*
G75*
G02*
X112231250Y-68025000I-243750J0D01*
G01*
X111743750Y-68025000D01*
G75*
G02*
X111500000Y-67781250I0J243750D01*
G01*
G37*
G36*
G01*
X109925000Y-67781250D02*
X109925000Y-67218750D01*
G75*
G02*
X110168750Y-66975000I243750J0D01*
G01*
X110656250Y-66975000D01*
G75*
G02*
X110900000Y-67218750I0J-243750D01*
G01*
X110900000Y-67781250D01*
G75*
G02*
X110656250Y-68025000I-243750J0D01*
G01*
X110168750Y-68025000D01*
G75*
G02*
X109925000Y-67781250I0J243750D01*
G01*
G37*
%TD*%
%TO.C,R2*%
G36*
G01*
X110900000Y-73218750D02*
X110900000Y-73781250D01*
G75*
G02*
X110656250Y-74025000I-243750J0D01*
G01*
X110168750Y-74025000D01*
G75*
G02*
X109925000Y-73781250I0J243750D01*
G01*
X109925000Y-73218750D01*
G75*
G02*
X110168750Y-72975000I243750J0D01*
G01*
X110656250Y-72975000D01*
G75*
G02*
X110900000Y-73218750I0J-243750D01*
G01*
G37*
G36*
G01*
X112475000Y-73218750D02*
X112475000Y-73781250D01*
G75*
G02*
X112231250Y-74025000I-243750J0D01*
G01*
X111743750Y-74025000D01*
G75*
G02*
X111500000Y-73781250I0J243750D01*
G01*
X111500000Y-73218750D01*
G75*
G02*
X111743750Y-72975000I243750J0D01*
G01*
X112231250Y-72975000D01*
G75*
G02*
X112475000Y-73218750I0J-243750D01*
G01*
G37*
%TD*%
%TO.C,R1*%
G36*
G01*
X110655000Y-60675000D02*
X109345000Y-60675000D01*
G75*
G02*
X109075000Y-60405000I0J270000D01*
G01*
X109075000Y-59595000D01*
G75*
G02*
X109345000Y-59325000I270000J0D01*
G01*
X110655000Y-59325000D01*
G75*
G02*
X110925000Y-59595000I0J-270000D01*
G01*
X110925000Y-60405000D01*
G75*
G02*
X110655000Y-60675000I-270000J0D01*
G01*
G37*
G36*
G01*
X110655000Y-63475000D02*
X109345000Y-63475000D01*
G75*
G02*
X109075000Y-63205000I0J270000D01*
G01*
X109075000Y-62395000D01*
G75*
G02*
X109345000Y-62125000I270000J0D01*
G01*
X110655000Y-62125000D01*
G75*
G02*
X110925000Y-62395000I0J-270000D01*
G01*
X110925000Y-63205000D01*
G75*
G02*
X110655000Y-63475000I-270000J0D01*
G01*
G37*
%TD*%
%TO.C,L1*%
G36*
X122289092Y-59506326D02*
G01*
X122300000Y-59537500D01*
X122300000Y-61537500D01*
X122281174Y-61576592D01*
X122250000Y-61587500D01*
X121460000Y-61587500D01*
X121427532Y-61575524D01*
X120021558Y-60375000D01*
X118478442Y-60375000D01*
X117072468Y-61575524D01*
X117040000Y-61587500D01*
X116250000Y-61587500D01*
X116210908Y-61568674D01*
X116200000Y-61537500D01*
X116200000Y-59537500D01*
X116218826Y-59498408D01*
X116250000Y-59487500D01*
X122250000Y-59487500D01*
X122289092Y-59506326D01*
G37*
G36*
X116210908Y-65568673D02*
G01*
X116200000Y-65537499D01*
X116200000Y-63537500D01*
X116218826Y-63498408D01*
X116250000Y-63487500D01*
X117040000Y-63487500D01*
X117072468Y-63499476D01*
X118478443Y-64700000D01*
X120021558Y-64700001D01*
X121427532Y-63499477D01*
X121460000Y-63487501D01*
X122250000Y-63487501D01*
X122289092Y-63506327D01*
X122300000Y-63537501D01*
X122300000Y-65537500D01*
X122281174Y-65576592D01*
X122250000Y-65587500D01*
X116250000Y-65587499D01*
X116210908Y-65568673D01*
G37*
%TD*%
%TO.C,D1*%
G36*
G01*
X113100000Y-63450000D02*
X114900000Y-63450000D01*
G75*
G02*
X114950000Y-63500000I0J-50000D01*
G01*
X114950000Y-66000000D01*
G75*
G02*
X114900000Y-66050000I-50000J0D01*
G01*
X113100000Y-66050000D01*
G75*
G02*
X113050000Y-66000000I0J50000D01*
G01*
X113050000Y-63500000D01*
G75*
G02*
X113100000Y-63450000I50000J0D01*
G01*
G37*
G36*
G01*
X113100000Y-59450000D02*
X114900000Y-59450000D01*
G75*
G02*
X114950000Y-59500000I0J-50000D01*
G01*
X114950000Y-62000000D01*
G75*
G02*
X114900000Y-62050000I-50000J0D01*
G01*
X113100000Y-62050000D01*
G75*
G02*
X113050000Y-62000000I0J50000D01*
G01*
X113050000Y-59500000D01*
G75*
G02*
X113100000Y-59450000I50000J0D01*
G01*
G37*
%TD*%
M02*
