M48
; DRILL file {KiCad 5.99.0-unknown-ad88874~101~ubuntu20.04.1} date Tue May 19 22:39:22 2020
; FORMAT={-:-/ absolute / inch / decimal}
; #@! TF.CreationDate,2020-05-19T22:39:22-04:00
; #@! TF.GenerationSoftware,Kicad,Pcbnew,5.99.0-unknown-ad88874~101~ubuntu20.04.1
; #@! TF.FileFunction,Plated,1,2,PTH
FMAT,2
INCH
T1C0.0157
T2C0.0394
T3C0.0598
%
G90
G05
T1
X4.2992Y-2.5906
X4.3622Y-2.5906
X4.378Y-2.5276
X4.4094Y-2.4409
X4.4094Y-2.5
X4.4094Y-2.5591
X4.4488Y-2.3031
X4.4488Y-2.4705
X4.499Y-2.8829
X4.5276Y-2.3031
X4.5276Y-2.7756
X4.6063Y-2.7854
X4.6063Y-2.8445
X4.6949Y-2.628
X4.7047Y-2.7854
X4.7047Y-2.8445
X4.7145Y-2.9665
X4.7343Y-2.628
X4.7736Y-2.6673
X4.8327Y-2.628
T2
X4.4488Y-3.0252
X4.4488Y-3.1252
X4.4488Y-3.2252
X4.4488Y-3.3252
X4.4488Y-3.4252
T3
X4.3638Y-2.1654
X4.5638Y-2.1654
X4.7638Y-2.1654
T0
M30
