%TF.GenerationSoftware,KiCad,Pcbnew,5.99.0-unknown-ad88874~101~ubuntu20.04.1*%
%TF.CreationDate,2020-05-19T22:39:20-04:00*%
%TF.ProjectId,headlights,68656164-6c69-4676-9874-732e6b696361,rev?*%
%TF.SameCoordinates,Original*%
%TF.FileFunction,Paste,Top*%
%TF.FilePolarity,Positive*%
%FSLAX46Y46*%
G04 Gerber Fmt 4.6, Leading zero omitted, Abs format (unit mm)*
G04 Created by KiCad (PCBNEW 5.99.0-unknown-ad88874~101~ubuntu20.04.1) date 2020-05-19 22:39:20*
%MOMM*%
%LPD*%
G01*
G04 APERTURE LIST*
%ADD10R,2.101200X1.567800*%
%ADD11R,0.802000X1.505000*%
%ADD12R,1.500000X1.600000*%
%ADD13R,1.200000X1.200000*%
%ADD14R,1.800000X2.500000*%
G04 APERTURE END LIST*
D10*
%TO.C,U2*%
X118250000Y-71500000D03*
D11*
X116345000Y-69002500D03*
X117615000Y-69002500D03*
X118885000Y-69002500D03*
X120155000Y-69002500D03*
X120155000Y-73997500D03*
X118885000Y-73997500D03*
X117615000Y-73997500D03*
X116345000Y-73997500D03*
%TD*%
D12*
%TO.C,RV1*%
X113700000Y-70500000D03*
D13*
X110450000Y-71500000D03*
X110450000Y-69500000D03*
%TD*%
%TO.C,R3*%
G36*
G01*
X111550000Y-67756250D02*
X111550000Y-67243750D01*
G75*
G02*
X111768750Y-67025000I218750J0D01*
G01*
X112206250Y-67025000D01*
G75*
G02*
X112425000Y-67243750I0J-218750D01*
G01*
X112425000Y-67756250D01*
G75*
G02*
X112206250Y-67975000I-218750J0D01*
G01*
X111768750Y-67975000D01*
G75*
G02*
X111550000Y-67756250I0J218750D01*
G01*
G37*
G36*
G01*
X109975000Y-67756250D02*
X109975000Y-67243750D01*
G75*
G02*
X110193750Y-67025000I218750J0D01*
G01*
X110631250Y-67025000D01*
G75*
G02*
X110850000Y-67243750I0J-218750D01*
G01*
X110850000Y-67756250D01*
G75*
G02*
X110631250Y-67975000I-218750J0D01*
G01*
X110193750Y-67975000D01*
G75*
G02*
X109975000Y-67756250I0J218750D01*
G01*
G37*
%TD*%
%TO.C,R2*%
G36*
G01*
X110850000Y-73243750D02*
X110850000Y-73756250D01*
G75*
G02*
X110631250Y-73975000I-218750J0D01*
G01*
X110193750Y-73975000D01*
G75*
G02*
X109975000Y-73756250I0J218750D01*
G01*
X109975000Y-73243750D01*
G75*
G02*
X110193750Y-73025000I218750J0D01*
G01*
X110631250Y-73025000D01*
G75*
G02*
X110850000Y-73243750I0J-218750D01*
G01*
G37*
G36*
G01*
X112425000Y-73243750D02*
X112425000Y-73756250D01*
G75*
G02*
X112206250Y-73975000I-218750J0D01*
G01*
X111768750Y-73975000D01*
G75*
G02*
X111550000Y-73756250I0J218750D01*
G01*
X111550000Y-73243750D01*
G75*
G02*
X111768750Y-73025000I218750J0D01*
G01*
X112206250Y-73025000D01*
G75*
G02*
X112425000Y-73243750I0J-218750D01*
G01*
G37*
%TD*%
%TO.C,R1*%
G36*
G01*
X110625000Y-60625000D02*
X109375000Y-60625000D01*
G75*
G02*
X109125000Y-60375000I0J250000D01*
G01*
X109125000Y-59625000D01*
G75*
G02*
X109375000Y-59375000I250000J0D01*
G01*
X110625000Y-59375000D01*
G75*
G02*
X110875000Y-59625000I0J-250000D01*
G01*
X110875000Y-60375000D01*
G75*
G02*
X110625000Y-60625000I-250000J0D01*
G01*
G37*
G36*
G01*
X110625000Y-63425000D02*
X109375000Y-63425000D01*
G75*
G02*
X109125000Y-63175000I0J250000D01*
G01*
X109125000Y-62425000D01*
G75*
G02*
X109375000Y-62175000I250000J0D01*
G01*
X110625000Y-62175000D01*
G75*
G02*
X110875000Y-62425000I0J-250000D01*
G01*
X110875000Y-63175000D01*
G75*
G02*
X110625000Y-63425000I-250000J0D01*
G01*
G37*
%TD*%
%TO.C,L1*%
G36*
X122250000Y-61537500D02*
G01*
X121460000Y-61537500D01*
X120040000Y-60325000D01*
X118460000Y-60325000D01*
X117040000Y-61537500D01*
X116250000Y-61537500D01*
X116250000Y-59537500D01*
X122250000Y-59537500D01*
X122250000Y-61537500D01*
G37*
G36*
X116250000Y-63537500D02*
G01*
X117040000Y-63537500D01*
X118460001Y-64750000D01*
X120040000Y-64750001D01*
X121460000Y-63537501D01*
X122250000Y-63537501D01*
X122250000Y-65537500D01*
X116250000Y-65537499D01*
X116250000Y-63537500D01*
G37*
%TD*%
D14*
%TO.C,D1*%
X114000000Y-64750000D03*
X114000000Y-60750000D03*
%TD*%
M02*
