%TF.GenerationSoftware,KiCad,Pcbnew,5.99.0-unknown-ad88874~101~ubuntu20.04.1*%
%TF.CreationDate,2020-05-19T22:39:20-04:00*%
%TF.ProjectId,headlights,68656164-6c69-4676-9874-732e6b696361,rev?*%
%TF.SameCoordinates,Original*%
%TF.FileFunction,Copper,L1,Top*%
%TF.FilePolarity,Positive*%
%FSLAX46Y46*%
G04 Gerber Fmt 4.6, Leading zero omitted, Abs format (unit mm)*
G04 Created by KiCad (PCBNEW 5.99.0-unknown-ad88874~101~ubuntu20.04.1) date 2020-05-19 22:39:20*
%MOMM*%
%LPD*%
G01*
G04 APERTURE LIST*
%TA.AperFunction,ComponentPad*%
%ADD10O,1.700000X1.700000*%
%TD*%
%TA.AperFunction,ComponentPad*%
%ADD11R,1.700000X1.700000*%
%TD*%
%TA.AperFunction,SMDPad,CuDef*%
%ADD12R,3.502000X2.613000*%
%TD*%
%TA.AperFunction,SMDPad,CuDef*%
%ADD13R,0.802000X1.505000*%
%TD*%
%TA.AperFunction,ComponentPad*%
%ADD14C,3.000000*%
%TD*%
%TA.AperFunction,ComponentPad*%
%ADD15R,3.000000X3.000000*%
%TD*%
%TA.AperFunction,SMDPad,CuDef*%
%ADD16R,1.500000X1.600000*%
%TD*%
%TA.AperFunction,SMDPad,CuDef*%
%ADD17R,1.200000X1.200000*%
%TD*%
%TA.AperFunction,SMDPad,CuDef*%
%ADD18R,1.800000X2.500000*%
%TD*%
%TA.AperFunction,ViaPad*%
%ADD19C,0.800000*%
%TD*%
%TA.AperFunction,Conductor*%
%ADD20C,0.250000*%
%TD*%
%TA.AperFunction,Conductor*%
%ADD21C,0.254000*%
%TD*%
G04 APERTURE END LIST*
D10*
%TO.P,J2,5,Pin_5*%
%TO.N,/ON*%
X113000000Y-76840000D03*
%TO.P,J2,4,Pin_4*%
%TO.N,GND*%
X113000000Y-79380000D03*
%TO.P,J2,3,Pin_3*%
X113000000Y-81920000D03*
%TO.P,J2,2,Pin_2*%
%TO.N,+5V*%
X113000000Y-84460000D03*
D11*
%TO.P,J2,1,Pin_1*%
X113000000Y-87000000D03*
%TD*%
D12*
%TO.P,U2,9,THERM*%
%TO.N,Net-(U2-Pad9)*%
X118250000Y-71500000D03*
D13*
%TO.P,U2,7,SW*%
%TO.N,Net-(D1-Pad2)*%
X116345000Y-69002500D03*
X117615000Y-69002500D03*
%TO.P,U2,6,VIN*%
%TO.N,+5V*%
X118885000Y-69002500D03*
%TO.P,U2,5,CTRL*%
%TO.N,Net-(RV1-Pad2)*%
X120155000Y-69002500D03*
%TO.P,U2,4*%
%TO.N,N/C*%
X120155000Y-73997500D03*
%TO.P,U2,3,SET*%
%TO.N,Net-(J1-Pad3)*%
X118885000Y-73997500D03*
%TO.P,U2,1,GND*%
%TO.N,GND*%
X117615000Y-73997500D03*
X116345000Y-73997500D03*
%TD*%
D14*
%TO.P,J1,3,Pin_3*%
%TO.N,Net-(J1-Pad3)*%
X110840000Y-55000000D03*
%TO.P,J1,2,Pin_2*%
%TO.N,Net-(J1-Pad2)*%
X115920000Y-55000000D03*
D15*
%TO.P,J1,1,Pin_1*%
%TO.N,Net-(J1-Pad1)*%
X121000000Y-55000000D03*
%TD*%
D16*
%TO.P,RV1,2,2*%
%TO.N,Net-(RV1-Pad2)*%
X113700000Y-70500000D03*
D17*
%TO.P,RV1,3,3*%
%TO.N,Net-(R2-Pad2)*%
X110450000Y-71500000D03*
%TO.P,RV1,1,1*%
%TO.N,Net-(R3-Pad1)*%
X110450000Y-69500000D03*
%TD*%
%TO.P,R3,2*%
%TO.N,GND*%
%TA.AperFunction,SMDPad,CuDef*%
G36*
G01*
X111550000Y-67756250D02*
X111550000Y-67243750D01*
G75*
G02*
X111768750Y-67025000I218750J0D01*
G01*
X112206250Y-67025000D01*
G75*
G02*
X112425000Y-67243750I0J-218750D01*
G01*
X112425000Y-67756250D01*
G75*
G02*
X112206250Y-67975000I-218750J0D01*
G01*
X111768750Y-67975000D01*
G75*
G02*
X111550000Y-67756250I0J218750D01*
G01*
G37*
%TD.AperFunction*%
%TO.P,R3,1*%
%TO.N,Net-(R3-Pad1)*%
%TA.AperFunction,SMDPad,CuDef*%
G36*
G01*
X109975000Y-67756250D02*
X109975000Y-67243750D01*
G75*
G02*
X110193750Y-67025000I218750J0D01*
G01*
X110631250Y-67025000D01*
G75*
G02*
X110850000Y-67243750I0J-218750D01*
G01*
X110850000Y-67756250D01*
G75*
G02*
X110631250Y-67975000I-218750J0D01*
G01*
X110193750Y-67975000D01*
G75*
G02*
X109975000Y-67756250I0J218750D01*
G01*
G37*
%TD.AperFunction*%
%TD*%
%TO.P,R2,2*%
%TO.N,Net-(R2-Pad2)*%
%TA.AperFunction,SMDPad,CuDef*%
G36*
G01*
X110850000Y-73243750D02*
X110850000Y-73756250D01*
G75*
G02*
X110631250Y-73975000I-218750J0D01*
G01*
X110193750Y-73975000D01*
G75*
G02*
X109975000Y-73756250I0J218750D01*
G01*
X109975000Y-73243750D01*
G75*
G02*
X110193750Y-73025000I218750J0D01*
G01*
X110631250Y-73025000D01*
G75*
G02*
X110850000Y-73243750I0J-218750D01*
G01*
G37*
%TD.AperFunction*%
%TO.P,R2,1*%
%TO.N,/ON*%
%TA.AperFunction,SMDPad,CuDef*%
G36*
G01*
X112425000Y-73243750D02*
X112425000Y-73756250D01*
G75*
G02*
X112206250Y-73975000I-218750J0D01*
G01*
X111768750Y-73975000D01*
G75*
G02*
X111550000Y-73756250I0J218750D01*
G01*
X111550000Y-73243750D01*
G75*
G02*
X111768750Y-73025000I218750J0D01*
G01*
X112206250Y-73025000D01*
G75*
G02*
X112425000Y-73243750I0J-218750D01*
G01*
G37*
%TD.AperFunction*%
%TD*%
%TO.P,R1,2*%
%TO.N,Net-(J1-Pad3)*%
%TA.AperFunction,SMDPad,CuDef*%
G36*
G01*
X110625000Y-60625000D02*
X109375000Y-60625000D01*
G75*
G02*
X109125000Y-60375000I0J250000D01*
G01*
X109125000Y-59625000D01*
G75*
G02*
X109375000Y-59375000I250000J0D01*
G01*
X110625000Y-59375000D01*
G75*
G02*
X110875000Y-59625000I0J-250000D01*
G01*
X110875000Y-60375000D01*
G75*
G02*
X110625000Y-60625000I-250000J0D01*
G01*
G37*
%TD.AperFunction*%
%TO.P,R1,1*%
%TO.N,+5V*%
%TA.AperFunction,SMDPad,CuDef*%
G36*
G01*
X110625000Y-63425000D02*
X109375000Y-63425000D01*
G75*
G02*
X109125000Y-63175000I0J250000D01*
G01*
X109125000Y-62425000D01*
G75*
G02*
X109375000Y-62175000I250000J0D01*
G01*
X110625000Y-62175000D01*
G75*
G02*
X110875000Y-62425000I0J-250000D01*
G01*
X110875000Y-63175000D01*
G75*
G02*
X110625000Y-63425000I-250000J0D01*
G01*
G37*
%TD.AperFunction*%
%TD*%
%TA.AperFunction,SMDPad,CuDef*%
%TO.P,L1,2,2*%
%TO.N,Net-(J1-Pad1)*%
G36*
X122250000Y-61537500D02*
G01*
X121460000Y-61537500D01*
X120040000Y-60325000D01*
X118460000Y-60325000D01*
X117040000Y-61537500D01*
X116250000Y-61537500D01*
X116250000Y-59537500D01*
X122250000Y-59537500D01*
X122250000Y-61537500D01*
G37*
%TD.AperFunction*%
%TA.AperFunction,SMDPad,CuDef*%
%TO.P,L1,1,1*%
%TO.N,Net-(D1-Pad2)*%
G36*
X116250000Y-63537500D02*
G01*
X117040000Y-63537500D01*
X118460001Y-64750000D01*
X120040000Y-64750001D01*
X121460000Y-63537501D01*
X122250000Y-63537501D01*
X122250000Y-65537500D01*
X116250000Y-65537499D01*
X116250000Y-63537500D01*
G37*
%TD.AperFunction*%
%TD*%
D18*
%TO.P,D1,2,A*%
%TO.N,Net-(D1-Pad2)*%
X114000000Y-64750000D03*
%TO.P,D1,1,K*%
%TO.N,+5V*%
X114000000Y-60750000D03*
%TD*%
D19*
%TO.N,Net-(J1-Pad3)*%
X113000000Y-62750000D03*
X119749201Y-75349983D03*
%TO.N,Net-(U2-Pad9)*%
X119500000Y-72250000D03*
X119500000Y-70750000D03*
X117000000Y-70750000D03*
X117000000Y-72250000D03*
%TO.N,+5V*%
X122750000Y-66750000D03*
X120250000Y-66750000D03*
X119250000Y-66750000D03*
%TO.N,Net-(RV1-Pad2)*%
X121250000Y-67750000D03*
%TO.N,+5V*%
X110800000Y-65800000D03*
X109200000Y-65800000D03*
%TO.N,Net-(J1-Pad3)*%
X114274999Y-73225001D03*
%TO.N,+5V*%
X115000000Y-58500000D03*
X113000000Y-58500000D03*
X111200000Y-64200000D03*
X112000000Y-65000000D03*
X112000000Y-63500000D03*
X112000000Y-62000000D03*
%TO.N,Net-(RV1-Pad2)*%
X115000000Y-70500000D03*
%TD*%
D20*
%TO.N,/ON*%
X112500000Y-77250000D02*
X112500000Y-74012500D01*
X112500000Y-74012500D02*
X111987500Y-73500000D01*
%TO.N,Net-(J1-Pad3)*%
X113014998Y-62764998D02*
X113000000Y-62750000D01*
X113014998Y-63000000D02*
X113014998Y-62764998D01*
X118885000Y-74485782D02*
X119749201Y-75349983D01*
X118885000Y-73997500D02*
X118885000Y-74485782D01*
%TO.N,Net-(RV1-Pad2)*%
X120155000Y-69002500D02*
X120155000Y-68845000D01*
X120155000Y-68845000D02*
X121250000Y-67750000D01*
%TO.N,Net-(J1-Pad3)*%
X114274999Y-73225001D02*
X115750000Y-71750000D01*
X115618999Y-66631001D02*
X115487998Y-66500000D01*
X115487998Y-66500000D02*
X113014998Y-66500000D01*
X112774999Y-63239999D02*
X113014998Y-63000000D01*
X115618999Y-70015001D02*
X115618999Y-66631001D01*
X113014998Y-66500000D02*
X112774999Y-66260001D01*
X115750000Y-71750000D02*
X115750000Y-70146002D01*
X115750000Y-70146002D02*
X115618999Y-70015001D01*
X112774999Y-66260001D02*
X112774999Y-63239999D01*
%TO.N,Net-(R3-Pad1)*%
X110450000Y-69500000D02*
X110450000Y-67537500D01*
X110450000Y-67537500D02*
X110412500Y-67500000D01*
%TO.N,Net-(R2-Pad2)*%
X110450000Y-71500000D02*
X110450000Y-73462500D01*
X110450000Y-73462500D02*
X110412500Y-73500000D01*
%TO.N,Net-(RV1-Pad2)*%
X115000000Y-70500000D02*
X113700000Y-70500000D01*
X120155000Y-69002500D02*
X120155000Y-69405000D01*
%TD*%
%TO.N,GND*%
G36*
X109688424Y-66837957D02*
G01*
X109675598Y-66854435D01*
X109583130Y-67025302D01*
X109576350Y-67045052D01*
X109545233Y-67231526D01*
X109544372Y-67241914D01*
X109544372Y-67756783D01*
X109544856Y-67764583D01*
X109562588Y-67906831D01*
X109567436Y-67924437D01*
X109644951Y-68101157D01*
X109656373Y-68118638D01*
X109787957Y-68261576D01*
X109804435Y-68274401D01*
X109897001Y-68324495D01*
X109897000Y-68468123D01*
X109843810Y-68468123D01*
X109831489Y-68469337D01*
X109696193Y-68496249D01*
X109673263Y-68505747D01*
X109553392Y-68585841D01*
X109535841Y-68603392D01*
X109455747Y-68723263D01*
X109446249Y-68746193D01*
X109419337Y-68881489D01*
X109418123Y-68893810D01*
X109418123Y-70106190D01*
X109419337Y-70118511D01*
X109446249Y-70253807D01*
X109455747Y-70276737D01*
X109535841Y-70396608D01*
X109553392Y-70414159D01*
X109673263Y-70494253D01*
X109687137Y-70500000D01*
X109673263Y-70505747D01*
X109553392Y-70585841D01*
X109535841Y-70603392D01*
X109455747Y-70723263D01*
X109446249Y-70746193D01*
X109419337Y-70881489D01*
X109418123Y-70893810D01*
X109418123Y-72106190D01*
X109419337Y-72118511D01*
X109446249Y-72253807D01*
X109455747Y-72276737D01*
X109535841Y-72396608D01*
X109553392Y-72414159D01*
X109673263Y-72494253D01*
X109696193Y-72503751D01*
X109831489Y-72530663D01*
X109843810Y-72531877D01*
X109897000Y-72531877D01*
X109897001Y-72673827D01*
X109848843Y-72694951D01*
X109831362Y-72706373D01*
X109688424Y-72837957D01*
X109675598Y-72854435D01*
X109583130Y-73025302D01*
X109576350Y-73045052D01*
X109545233Y-73231526D01*
X109544372Y-73241914D01*
X109544372Y-73756783D01*
X109544856Y-73764583D01*
X109562588Y-73906831D01*
X109567436Y-73924437D01*
X109644951Y-74101157D01*
X109656373Y-74118638D01*
X109787957Y-74261576D01*
X109804435Y-74274402D01*
X109975302Y-74366870D01*
X109995052Y-74373650D01*
X110181526Y-74404767D01*
X110191914Y-74405628D01*
X110631783Y-74405628D01*
X110639583Y-74405144D01*
X110781831Y-74387412D01*
X110799437Y-74382564D01*
X110976157Y-74305049D01*
X110993638Y-74293627D01*
X111136576Y-74162043D01*
X111149402Y-74145565D01*
X111199127Y-74053681D01*
X111219951Y-74101157D01*
X111231373Y-74118638D01*
X111362957Y-74261576D01*
X111379435Y-74274402D01*
X111550302Y-74366870D01*
X111570052Y-74373650D01*
X111756526Y-74404767D01*
X111766914Y-74405628D01*
X111947001Y-74405628D01*
X111947000Y-76118492D01*
X111869086Y-76238471D01*
X111863707Y-76248695D01*
X111778404Y-76454635D01*
X111774978Y-76465668D01*
X111728631Y-76683706D01*
X111727273Y-76695180D01*
X111721439Y-76918013D01*
X111722195Y-76929541D01*
X111757065Y-77149705D01*
X111759909Y-77160903D01*
X111834317Y-77371026D01*
X111839154Y-77381518D01*
X111950608Y-77574563D01*
X111957276Y-77583998D01*
X112102045Y-77753499D01*
X112110320Y-77761561D01*
X112283552Y-77901842D01*
X112293158Y-77908261D01*
X112453175Y-77995142D01*
X112448142Y-77997130D01*
X112232155Y-78104346D01*
X112223032Y-78109882D01*
X112028199Y-78251957D01*
X112020138Y-78258952D01*
X111852029Y-78431822D01*
X111845263Y-78440074D01*
X111708683Y-78638798D01*
X111703403Y-78648073D01*
X111591724Y-78889770D01*
X111666056Y-79006000D01*
X112500001Y-79006000D01*
X114328871Y-79006001D01*
X114404192Y-78899622D01*
X114359723Y-78773343D01*
X114355339Y-78763612D01*
X114238067Y-78552916D01*
X114232107Y-78544064D01*
X114081013Y-78356140D01*
X114073647Y-78348417D01*
X113893049Y-78188638D01*
X113884486Y-78182267D01*
X113679549Y-78055202D01*
X113670036Y-78050365D01*
X113538658Y-77997018D01*
X113620847Y-77960425D01*
X113630927Y-77954780D01*
X113814633Y-77828523D01*
X113823516Y-77821135D01*
X113981135Y-77663516D01*
X113988523Y-77654633D01*
X114114780Y-77470927D01*
X114120425Y-77460847D01*
X114211090Y-77257211D01*
X114214804Y-77246270D01*
X114267034Y-77028716D01*
X114268758Y-77015622D01*
X114276211Y-76731019D01*
X114275175Y-76717853D01*
X114234402Y-76497865D01*
X114231266Y-76486745D01*
X114151383Y-76278642D01*
X114146273Y-76268280D01*
X114029803Y-76078219D01*
X114022891Y-76068961D01*
X113873736Y-75903309D01*
X113865252Y-75895466D01*
X113688406Y-75759768D01*
X113678635Y-75753603D01*
X113480022Y-75652405D01*
X113469291Y-75648123D01*
X113255562Y-75584814D01*
X113244231Y-75582560D01*
X113053000Y-75562460D01*
X113053000Y-74036621D01*
X113058417Y-73974710D01*
X113056496Y-73952747D01*
X113040409Y-73892708D01*
X113029610Y-73831469D01*
X113022070Y-73810752D01*
X113015312Y-73799046D01*
X113011815Y-73785996D01*
X113002498Y-73766016D01*
X112966840Y-73715091D01*
X112935754Y-73661249D01*
X112921582Y-73644360D01*
X112873962Y-73604403D01*
X112855628Y-73586069D01*
X112855628Y-73243217D01*
X112855144Y-73235417D01*
X112837412Y-73093169D01*
X112832564Y-73075563D01*
X112755049Y-72898843D01*
X112743627Y-72881362D01*
X112612043Y-72738424D01*
X112595565Y-72725598D01*
X112424698Y-72633130D01*
X112404948Y-72626350D01*
X112218474Y-72595233D01*
X112208086Y-72594372D01*
X111768217Y-72594372D01*
X111760417Y-72594856D01*
X111618169Y-72612588D01*
X111600563Y-72617436D01*
X111423843Y-72694951D01*
X111406362Y-72706373D01*
X111263424Y-72837957D01*
X111250598Y-72854435D01*
X111200873Y-72946319D01*
X111180049Y-72898843D01*
X111168627Y-72881362D01*
X111037043Y-72738424D01*
X111020564Y-72725598D01*
X111003000Y-72716093D01*
X111003000Y-72531877D01*
X111056190Y-72531877D01*
X111068511Y-72530663D01*
X111203807Y-72503751D01*
X111226737Y-72494253D01*
X111346608Y-72414159D01*
X111364159Y-72396608D01*
X111444253Y-72276737D01*
X111453751Y-72253807D01*
X111480663Y-72118511D01*
X111481877Y-72106190D01*
X111481877Y-70893810D01*
X111480663Y-70881489D01*
X111453751Y-70746193D01*
X111444253Y-70723263D01*
X111364159Y-70603392D01*
X111346608Y-70585841D01*
X111226737Y-70505747D01*
X111212863Y-70500000D01*
X111226737Y-70494253D01*
X111346608Y-70414159D01*
X111364159Y-70396608D01*
X111444253Y-70276737D01*
X111453751Y-70253807D01*
X111480663Y-70118511D01*
X111481877Y-70106190D01*
X111481877Y-68893810D01*
X111480663Y-68881489D01*
X111453751Y-68746193D01*
X111444253Y-68723263D01*
X111364159Y-68603392D01*
X111346608Y-68585841D01*
X111226737Y-68505747D01*
X111203807Y-68496249D01*
X111068511Y-68469337D01*
X111056190Y-68468123D01*
X111003000Y-68468123D01*
X111003000Y-68285009D01*
X111136576Y-68162043D01*
X111149402Y-68145565D01*
X111241870Y-67974698D01*
X111248650Y-67954948D01*
X111279767Y-67768474D01*
X111280628Y-67758086D01*
X111280628Y-67243217D01*
X111280144Y-67235417D01*
X111262412Y-67093169D01*
X111257564Y-67075563D01*
X111180049Y-66898843D01*
X111168627Y-66881362D01*
X111071634Y-66776000D01*
X112508939Y-66776000D01*
X112606897Y-66873958D01*
X112646858Y-66921583D01*
X112663747Y-66935754D01*
X112717584Y-66966837D01*
X112768514Y-67002499D01*
X112788497Y-67011817D01*
X112801548Y-67015314D01*
X112813250Y-67022070D01*
X112833968Y-67029611D01*
X112895200Y-67040407D01*
X112955245Y-67056496D01*
X112977207Y-67058417D01*
X113039137Y-67053000D01*
X115066000Y-67053000D01*
X115065999Y-69674594D01*
X114950356Y-69665493D01*
X114931565Y-69666824D01*
X114880037Y-69678342D01*
X114853751Y-69546193D01*
X114844253Y-69523263D01*
X114764159Y-69403392D01*
X114746608Y-69385841D01*
X114626737Y-69305747D01*
X114603807Y-69296249D01*
X114468511Y-69269337D01*
X114456190Y-69268123D01*
X112943810Y-69268123D01*
X112931489Y-69269337D01*
X112796193Y-69296249D01*
X112773263Y-69305747D01*
X112653392Y-69385841D01*
X112635841Y-69403392D01*
X112555747Y-69523263D01*
X112546249Y-69546193D01*
X112519337Y-69681489D01*
X112518123Y-69693810D01*
X112518123Y-71306190D01*
X112519337Y-71318511D01*
X112546249Y-71453807D01*
X112555747Y-71476737D01*
X112635841Y-71596608D01*
X112653392Y-71614159D01*
X112773263Y-71694253D01*
X112796193Y-71703751D01*
X112931489Y-71730663D01*
X112943810Y-71731877D01*
X114456190Y-71731877D01*
X114468511Y-71730663D01*
X114603807Y-71703751D01*
X114626737Y-71694253D01*
X114746608Y-71614159D01*
X114764159Y-71596608D01*
X114844253Y-71476737D01*
X114853751Y-71453807D01*
X114879826Y-71322717D01*
X114918487Y-71331998D01*
X114937254Y-71333624D01*
X115166732Y-71319187D01*
X115185147Y-71315222D01*
X115197000Y-71310743D01*
X115197000Y-71520940D01*
X114319998Y-72397943D01*
X114225355Y-72390494D01*
X114206565Y-72391825D01*
X113982171Y-72441983D01*
X113964603Y-72448780D01*
X113764877Y-72562701D01*
X113750084Y-72574363D01*
X113592685Y-72741975D01*
X113581975Y-72757471D01*
X113480819Y-72963956D01*
X113475139Y-72981917D01*
X113439170Y-73209017D01*
X113439022Y-73227854D01*
X113471419Y-73455491D01*
X113476817Y-73473539D01*
X113574717Y-73681587D01*
X113585182Y-73697249D01*
X113739928Y-73867314D01*
X113754537Y-73879207D01*
X113952449Y-73996251D01*
X113969908Y-74003323D01*
X114193486Y-74056999D01*
X114212253Y-74058625D01*
X114441731Y-74044188D01*
X114460146Y-74040223D01*
X114675234Y-73958948D01*
X114691669Y-73949743D01*
X114873350Y-73808817D01*
X114886353Y-73795187D01*
X115018565Y-73607069D01*
X115026984Y-73590218D01*
X115098115Y-73371304D01*
X115101214Y-73352219D01*
X115102571Y-73179488D01*
X116067123Y-72214936D01*
X116067123Y-72812690D01*
X116068337Y-72825011D01*
X116095249Y-72960307D01*
X116104747Y-72983237D01*
X116184841Y-73103108D01*
X116202392Y-73120659D01*
X116322263Y-73200753D01*
X116345193Y-73210251D01*
X116480489Y-73237163D01*
X116492810Y-73238377D01*
X117574000Y-73238377D01*
X117574000Y-74324000D01*
X116992715Y-74324000D01*
X116978243Y-74325679D01*
X116824634Y-74361807D01*
X116800836Y-74372979D01*
X116693048Y-74454377D01*
X116677316Y-74471634D01*
X116606984Y-74585225D01*
X116598549Y-74606999D01*
X116575075Y-74732574D01*
X116574000Y-74744175D01*
X116574000Y-83324000D01*
X113581284Y-83324000D01*
X113539282Y-83302599D01*
X113644387Y-83262253D01*
X113653991Y-83257600D01*
X113861330Y-83134491D01*
X113870012Y-83128286D01*
X114053645Y-82972004D01*
X114061158Y-82964424D01*
X114215833Y-82779435D01*
X114221962Y-82770698D01*
X114343256Y-82562294D01*
X114347825Y-82552649D01*
X114404016Y-82402361D01*
X114328843Y-82294000D01*
X113499999Y-82294000D01*
X111668174Y-82293999D01*
X111593587Y-82408197D01*
X111689591Y-82626900D01*
X111694692Y-82636275D01*
X111827430Y-82837584D01*
X111834038Y-82845965D01*
X111998798Y-83022032D01*
X112006722Y-83029180D01*
X112198792Y-83174968D01*
X112207808Y-83180679D01*
X112421696Y-83292021D01*
X112431545Y-83296131D01*
X112458111Y-83304660D01*
X112417565Y-83324000D01*
X108426000Y-83324000D01*
X108426000Y-81429770D01*
X111591724Y-81429770D01*
X111666056Y-81546000D01*
X112552192Y-81546000D01*
X112626001Y-81472191D01*
X112626001Y-80725809D01*
X112626000Y-80725808D01*
X112626000Y-79827809D01*
X113373999Y-79827809D01*
X113373999Y-80574191D01*
X113374000Y-80574192D01*
X113374000Y-81472192D01*
X113447809Y-81546001D01*
X114328871Y-81546001D01*
X114404192Y-81439622D01*
X114359723Y-81313343D01*
X114355339Y-81303612D01*
X114238067Y-81092916D01*
X114232107Y-81084064D01*
X114081013Y-80896140D01*
X114073647Y-80888417D01*
X113893049Y-80728638D01*
X113884486Y-80722267D01*
X113767887Y-80649973D01*
X113861330Y-80594491D01*
X113870012Y-80588286D01*
X114053645Y-80432004D01*
X114061158Y-80424424D01*
X114215833Y-80239435D01*
X114221962Y-80230698D01*
X114343256Y-80022294D01*
X114347825Y-80012649D01*
X114404016Y-79862361D01*
X114328843Y-79754000D01*
X113447808Y-79754000D01*
X113373999Y-79827809D01*
X112626000Y-79827809D01*
X112626000Y-79827808D01*
X112552191Y-79753999D01*
X111668174Y-79753999D01*
X111593587Y-79868197D01*
X111689591Y-80086900D01*
X111694692Y-80096275D01*
X111827430Y-80297584D01*
X111834038Y-80305965D01*
X111998798Y-80482032D01*
X112006722Y-80489180D01*
X112198792Y-80634968D01*
X112207808Y-80640679D01*
X112224166Y-80649194D01*
X112223032Y-80649882D01*
X112028199Y-80791957D01*
X112020138Y-80798952D01*
X111852029Y-80971822D01*
X111845263Y-80980074D01*
X111708683Y-81178798D01*
X111703403Y-81188073D01*
X111591724Y-81429770D01*
X108426000Y-81429770D01*
X108426000Y-66776000D01*
X109755727Y-66776000D01*
X109688424Y-66837957D01*
G37*
D21*
X109688424Y-66837957D02*
X109675598Y-66854435D01*
X109583130Y-67025302D01*
X109576350Y-67045052D01*
X109545233Y-67231526D01*
X109544372Y-67241914D01*
X109544372Y-67756783D01*
X109544856Y-67764583D01*
X109562588Y-67906831D01*
X109567436Y-67924437D01*
X109644951Y-68101157D01*
X109656373Y-68118638D01*
X109787957Y-68261576D01*
X109804435Y-68274401D01*
X109897001Y-68324495D01*
X109897000Y-68468123D01*
X109843810Y-68468123D01*
X109831489Y-68469337D01*
X109696193Y-68496249D01*
X109673263Y-68505747D01*
X109553392Y-68585841D01*
X109535841Y-68603392D01*
X109455747Y-68723263D01*
X109446249Y-68746193D01*
X109419337Y-68881489D01*
X109418123Y-68893810D01*
X109418123Y-70106190D01*
X109419337Y-70118511D01*
X109446249Y-70253807D01*
X109455747Y-70276737D01*
X109535841Y-70396608D01*
X109553392Y-70414159D01*
X109673263Y-70494253D01*
X109687137Y-70500000D01*
X109673263Y-70505747D01*
X109553392Y-70585841D01*
X109535841Y-70603392D01*
X109455747Y-70723263D01*
X109446249Y-70746193D01*
X109419337Y-70881489D01*
X109418123Y-70893810D01*
X109418123Y-72106190D01*
X109419337Y-72118511D01*
X109446249Y-72253807D01*
X109455747Y-72276737D01*
X109535841Y-72396608D01*
X109553392Y-72414159D01*
X109673263Y-72494253D01*
X109696193Y-72503751D01*
X109831489Y-72530663D01*
X109843810Y-72531877D01*
X109897000Y-72531877D01*
X109897001Y-72673827D01*
X109848843Y-72694951D01*
X109831362Y-72706373D01*
X109688424Y-72837957D01*
X109675598Y-72854435D01*
X109583130Y-73025302D01*
X109576350Y-73045052D01*
X109545233Y-73231526D01*
X109544372Y-73241914D01*
X109544372Y-73756783D01*
X109544856Y-73764583D01*
X109562588Y-73906831D01*
X109567436Y-73924437D01*
X109644951Y-74101157D01*
X109656373Y-74118638D01*
X109787957Y-74261576D01*
X109804435Y-74274402D01*
X109975302Y-74366870D01*
X109995052Y-74373650D01*
X110181526Y-74404767D01*
X110191914Y-74405628D01*
X110631783Y-74405628D01*
X110639583Y-74405144D01*
X110781831Y-74387412D01*
X110799437Y-74382564D01*
X110976157Y-74305049D01*
X110993638Y-74293627D01*
X111136576Y-74162043D01*
X111149402Y-74145565D01*
X111199127Y-74053681D01*
X111219951Y-74101157D01*
X111231373Y-74118638D01*
X111362957Y-74261576D01*
X111379435Y-74274402D01*
X111550302Y-74366870D01*
X111570052Y-74373650D01*
X111756526Y-74404767D01*
X111766914Y-74405628D01*
X111947001Y-74405628D01*
X111947000Y-76118492D01*
X111869086Y-76238471D01*
X111863707Y-76248695D01*
X111778404Y-76454635D01*
X111774978Y-76465668D01*
X111728631Y-76683706D01*
X111727273Y-76695180D01*
X111721439Y-76918013D01*
X111722195Y-76929541D01*
X111757065Y-77149705D01*
X111759909Y-77160903D01*
X111834317Y-77371026D01*
X111839154Y-77381518D01*
X111950608Y-77574563D01*
X111957276Y-77583998D01*
X112102045Y-77753499D01*
X112110320Y-77761561D01*
X112283552Y-77901842D01*
X112293158Y-77908261D01*
X112453175Y-77995142D01*
X112448142Y-77997130D01*
X112232155Y-78104346D01*
X112223032Y-78109882D01*
X112028199Y-78251957D01*
X112020138Y-78258952D01*
X111852029Y-78431822D01*
X111845263Y-78440074D01*
X111708683Y-78638798D01*
X111703403Y-78648073D01*
X111591724Y-78889770D01*
X111666056Y-79006000D01*
X112500001Y-79006000D01*
X114328871Y-79006001D01*
X114404192Y-78899622D01*
X114359723Y-78773343D01*
X114355339Y-78763612D01*
X114238067Y-78552916D01*
X114232107Y-78544064D01*
X114081013Y-78356140D01*
X114073647Y-78348417D01*
X113893049Y-78188638D01*
X113884486Y-78182267D01*
X113679549Y-78055202D01*
X113670036Y-78050365D01*
X113538658Y-77997018D01*
X113620847Y-77960425D01*
X113630927Y-77954780D01*
X113814633Y-77828523D01*
X113823516Y-77821135D01*
X113981135Y-77663516D01*
X113988523Y-77654633D01*
X114114780Y-77470927D01*
X114120425Y-77460847D01*
X114211090Y-77257211D01*
X114214804Y-77246270D01*
X114267034Y-77028716D01*
X114268758Y-77015622D01*
X114276211Y-76731019D01*
X114275175Y-76717853D01*
X114234402Y-76497865D01*
X114231266Y-76486745D01*
X114151383Y-76278642D01*
X114146273Y-76268280D01*
X114029803Y-76078219D01*
X114022891Y-76068961D01*
X113873736Y-75903309D01*
X113865252Y-75895466D01*
X113688406Y-75759768D01*
X113678635Y-75753603D01*
X113480022Y-75652405D01*
X113469291Y-75648123D01*
X113255562Y-75584814D01*
X113244231Y-75582560D01*
X113053000Y-75562460D01*
X113053000Y-74036621D01*
X113058417Y-73974710D01*
X113056496Y-73952747D01*
X113040409Y-73892708D01*
X113029610Y-73831469D01*
X113022070Y-73810752D01*
X113015312Y-73799046D01*
X113011815Y-73785996D01*
X113002498Y-73766016D01*
X112966840Y-73715091D01*
X112935754Y-73661249D01*
X112921582Y-73644360D01*
X112873962Y-73604403D01*
X112855628Y-73586069D01*
X112855628Y-73243217D01*
X112855144Y-73235417D01*
X112837412Y-73093169D01*
X112832564Y-73075563D01*
X112755049Y-72898843D01*
X112743627Y-72881362D01*
X112612043Y-72738424D01*
X112595565Y-72725598D01*
X112424698Y-72633130D01*
X112404948Y-72626350D01*
X112218474Y-72595233D01*
X112208086Y-72594372D01*
X111768217Y-72594372D01*
X111760417Y-72594856D01*
X111618169Y-72612588D01*
X111600563Y-72617436D01*
X111423843Y-72694951D01*
X111406362Y-72706373D01*
X111263424Y-72837957D01*
X111250598Y-72854435D01*
X111200873Y-72946319D01*
X111180049Y-72898843D01*
X111168627Y-72881362D01*
X111037043Y-72738424D01*
X111020564Y-72725598D01*
X111003000Y-72716093D01*
X111003000Y-72531877D01*
X111056190Y-72531877D01*
X111068511Y-72530663D01*
X111203807Y-72503751D01*
X111226737Y-72494253D01*
X111346608Y-72414159D01*
X111364159Y-72396608D01*
X111444253Y-72276737D01*
X111453751Y-72253807D01*
X111480663Y-72118511D01*
X111481877Y-72106190D01*
X111481877Y-70893810D01*
X111480663Y-70881489D01*
X111453751Y-70746193D01*
X111444253Y-70723263D01*
X111364159Y-70603392D01*
X111346608Y-70585841D01*
X111226737Y-70505747D01*
X111212863Y-70500000D01*
X111226737Y-70494253D01*
X111346608Y-70414159D01*
X111364159Y-70396608D01*
X111444253Y-70276737D01*
X111453751Y-70253807D01*
X111480663Y-70118511D01*
X111481877Y-70106190D01*
X111481877Y-68893810D01*
X111480663Y-68881489D01*
X111453751Y-68746193D01*
X111444253Y-68723263D01*
X111364159Y-68603392D01*
X111346608Y-68585841D01*
X111226737Y-68505747D01*
X111203807Y-68496249D01*
X111068511Y-68469337D01*
X111056190Y-68468123D01*
X111003000Y-68468123D01*
X111003000Y-68285009D01*
X111136576Y-68162043D01*
X111149402Y-68145565D01*
X111241870Y-67974698D01*
X111248650Y-67954948D01*
X111279767Y-67768474D01*
X111280628Y-67758086D01*
X111280628Y-67243217D01*
X111280144Y-67235417D01*
X111262412Y-67093169D01*
X111257564Y-67075563D01*
X111180049Y-66898843D01*
X111168627Y-66881362D01*
X111071634Y-66776000D01*
X112508939Y-66776000D01*
X112606897Y-66873958D01*
X112646858Y-66921583D01*
X112663747Y-66935754D01*
X112717584Y-66966837D01*
X112768514Y-67002499D01*
X112788497Y-67011817D01*
X112801548Y-67015314D01*
X112813250Y-67022070D01*
X112833968Y-67029611D01*
X112895200Y-67040407D01*
X112955245Y-67056496D01*
X112977207Y-67058417D01*
X113039137Y-67053000D01*
X115066000Y-67053000D01*
X115065999Y-69674594D01*
X114950356Y-69665493D01*
X114931565Y-69666824D01*
X114880037Y-69678342D01*
X114853751Y-69546193D01*
X114844253Y-69523263D01*
X114764159Y-69403392D01*
X114746608Y-69385841D01*
X114626737Y-69305747D01*
X114603807Y-69296249D01*
X114468511Y-69269337D01*
X114456190Y-69268123D01*
X112943810Y-69268123D01*
X112931489Y-69269337D01*
X112796193Y-69296249D01*
X112773263Y-69305747D01*
X112653392Y-69385841D01*
X112635841Y-69403392D01*
X112555747Y-69523263D01*
X112546249Y-69546193D01*
X112519337Y-69681489D01*
X112518123Y-69693810D01*
X112518123Y-71306190D01*
X112519337Y-71318511D01*
X112546249Y-71453807D01*
X112555747Y-71476737D01*
X112635841Y-71596608D01*
X112653392Y-71614159D01*
X112773263Y-71694253D01*
X112796193Y-71703751D01*
X112931489Y-71730663D01*
X112943810Y-71731877D01*
X114456190Y-71731877D01*
X114468511Y-71730663D01*
X114603807Y-71703751D01*
X114626737Y-71694253D01*
X114746608Y-71614159D01*
X114764159Y-71596608D01*
X114844253Y-71476737D01*
X114853751Y-71453807D01*
X114879826Y-71322717D01*
X114918487Y-71331998D01*
X114937254Y-71333624D01*
X115166732Y-71319187D01*
X115185147Y-71315222D01*
X115197000Y-71310743D01*
X115197000Y-71520940D01*
X114319998Y-72397943D01*
X114225355Y-72390494D01*
X114206565Y-72391825D01*
X113982171Y-72441983D01*
X113964603Y-72448780D01*
X113764877Y-72562701D01*
X113750084Y-72574363D01*
X113592685Y-72741975D01*
X113581975Y-72757471D01*
X113480819Y-72963956D01*
X113475139Y-72981917D01*
X113439170Y-73209017D01*
X113439022Y-73227854D01*
X113471419Y-73455491D01*
X113476817Y-73473539D01*
X113574717Y-73681587D01*
X113585182Y-73697249D01*
X113739928Y-73867314D01*
X113754537Y-73879207D01*
X113952449Y-73996251D01*
X113969908Y-74003323D01*
X114193486Y-74056999D01*
X114212253Y-74058625D01*
X114441731Y-74044188D01*
X114460146Y-74040223D01*
X114675234Y-73958948D01*
X114691669Y-73949743D01*
X114873350Y-73808817D01*
X114886353Y-73795187D01*
X115018565Y-73607069D01*
X115026984Y-73590218D01*
X115098115Y-73371304D01*
X115101214Y-73352219D01*
X115102571Y-73179488D01*
X116067123Y-72214936D01*
X116067123Y-72812690D01*
X116068337Y-72825011D01*
X116095249Y-72960307D01*
X116104747Y-72983237D01*
X116184841Y-73103108D01*
X116202392Y-73120659D01*
X116322263Y-73200753D01*
X116345193Y-73210251D01*
X116480489Y-73237163D01*
X116492810Y-73238377D01*
X117574000Y-73238377D01*
X117574000Y-74324000D01*
X116992715Y-74324000D01*
X116978243Y-74325679D01*
X116824634Y-74361807D01*
X116800836Y-74372979D01*
X116693048Y-74454377D01*
X116677316Y-74471634D01*
X116606984Y-74585225D01*
X116598549Y-74606999D01*
X116575075Y-74732574D01*
X116574000Y-74744175D01*
X116574000Y-83324000D01*
X113581284Y-83324000D01*
X113539282Y-83302599D01*
X113644387Y-83262253D01*
X113653991Y-83257600D01*
X113861330Y-83134491D01*
X113870012Y-83128286D01*
X114053645Y-82972004D01*
X114061158Y-82964424D01*
X114215833Y-82779435D01*
X114221962Y-82770698D01*
X114343256Y-82562294D01*
X114347825Y-82552649D01*
X114404016Y-82402361D01*
X114328843Y-82294000D01*
X113499999Y-82294000D01*
X111668174Y-82293999D01*
X111593587Y-82408197D01*
X111689591Y-82626900D01*
X111694692Y-82636275D01*
X111827430Y-82837584D01*
X111834038Y-82845965D01*
X111998798Y-83022032D01*
X112006722Y-83029180D01*
X112198792Y-83174968D01*
X112207808Y-83180679D01*
X112421696Y-83292021D01*
X112431545Y-83296131D01*
X112458111Y-83304660D01*
X112417565Y-83324000D01*
X108426000Y-83324000D01*
X108426000Y-81429770D01*
X111591724Y-81429770D01*
X111666056Y-81546000D01*
X112552192Y-81546000D01*
X112626001Y-81472191D01*
X112626001Y-80725809D01*
X112626000Y-80725808D01*
X112626000Y-79827809D01*
X113373999Y-79827809D01*
X113373999Y-80574191D01*
X113374000Y-80574192D01*
X113374000Y-81472192D01*
X113447809Y-81546001D01*
X114328871Y-81546001D01*
X114404192Y-81439622D01*
X114359723Y-81313343D01*
X114355339Y-81303612D01*
X114238067Y-81092916D01*
X114232107Y-81084064D01*
X114081013Y-80896140D01*
X114073647Y-80888417D01*
X113893049Y-80728638D01*
X113884486Y-80722267D01*
X113767887Y-80649973D01*
X113861330Y-80594491D01*
X113870012Y-80588286D01*
X114053645Y-80432004D01*
X114061158Y-80424424D01*
X114215833Y-80239435D01*
X114221962Y-80230698D01*
X114343256Y-80022294D01*
X114347825Y-80012649D01*
X114404016Y-79862361D01*
X114328843Y-79754000D01*
X113447808Y-79754000D01*
X113373999Y-79827809D01*
X112626000Y-79827809D01*
X112626000Y-79827808D01*
X112552191Y-79753999D01*
X111668174Y-79753999D01*
X111593587Y-79868197D01*
X111689591Y-80086900D01*
X111694692Y-80096275D01*
X111827430Y-80297584D01*
X111834038Y-80305965D01*
X111998798Y-80482032D01*
X112006722Y-80489180D01*
X112198792Y-80634968D01*
X112207808Y-80640679D01*
X112224166Y-80649194D01*
X112223032Y-80649882D01*
X112028199Y-80791957D01*
X112020138Y-80798952D01*
X111852029Y-80971822D01*
X111845263Y-80980074D01*
X111708683Y-81178798D01*
X111703403Y-81188073D01*
X111591724Y-81429770D01*
X108426000Y-81429770D01*
X108426000Y-66776000D01*
X109755727Y-66776000D01*
X109688424Y-66837957D01*
%TO.N,Net-(J1-Pad1)*%
G36*
X122702502Y-50928370D02*
G01*
X122708603Y-50929216D01*
X122894691Y-50945823D01*
X123034816Y-50984158D01*
X123165937Y-51046699D01*
X123283896Y-51131462D01*
X123385001Y-51235794D01*
X123466020Y-51356364D01*
X123524410Y-51489377D01*
X123559119Y-51633956D01*
X123570387Y-51787370D01*
X123572297Y-51798820D01*
X123574000Y-51805288D01*
X123574000Y-62724000D01*
X116214935Y-62724000D01*
X116125840Y-57586204D01*
X116124985Y-57576889D01*
X116110714Y-57491582D01*
X116124752Y-57475951D01*
X116194235Y-57361839D01*
X116202507Y-57340002D01*
X116225044Y-57214254D01*
X116226032Y-57202646D01*
X116223792Y-56902580D01*
X116407127Y-56868601D01*
X116416169Y-56866220D01*
X116677973Y-56776074D01*
X116686564Y-56772383D01*
X116932168Y-56644531D01*
X116940120Y-56639610D01*
X117164128Y-56476858D01*
X117171264Y-56470816D01*
X117368755Y-56276743D01*
X117374920Y-56269713D01*
X117541557Y-56048579D01*
X117546615Y-56040715D01*
X117678735Y-55797380D01*
X117682575Y-55788855D01*
X117777277Y-55528664D01*
X117779815Y-55519665D01*
X117835183Y-55247525D01*
X117836429Y-55236592D01*
X117846184Y-54864030D01*
X117845512Y-54853048D01*
X117804464Y-54578383D01*
X117802400Y-54569263D01*
X117721445Y-54304472D01*
X117718057Y-54295757D01*
X117598853Y-54045842D01*
X117594213Y-54037724D01*
X117439378Y-53808172D01*
X117433590Y-53800829D01*
X117246526Y-53596685D01*
X117239716Y-53590278D01*
X117024532Y-53416026D01*
X117016849Y-53410697D01*
X116778273Y-53270165D01*
X116769887Y-53266029D01*
X116513160Y-53162304D01*
X116504254Y-53159454D01*
X116235016Y-53094815D01*
X116225787Y-53093312D01*
X116195345Y-53090649D01*
X116179191Y-50926000D01*
X122689960Y-50926000D01*
X122702502Y-50928370D01*
G37*
X122702502Y-50928370D02*
X122708603Y-50929216D01*
X122894691Y-50945823D01*
X123034816Y-50984158D01*
X123165937Y-51046699D01*
X123283896Y-51131462D01*
X123385001Y-51235794D01*
X123466020Y-51356364D01*
X123524410Y-51489377D01*
X123559119Y-51633956D01*
X123570387Y-51787370D01*
X123572297Y-51798820D01*
X123574000Y-51805288D01*
X123574000Y-62724000D01*
X116214935Y-62724000D01*
X116125840Y-57586204D01*
X116124985Y-57576889D01*
X116110714Y-57491582D01*
X116124752Y-57475951D01*
X116194235Y-57361839D01*
X116202507Y-57340002D01*
X116225044Y-57214254D01*
X116226032Y-57202646D01*
X116223792Y-56902580D01*
X116407127Y-56868601D01*
X116416169Y-56866220D01*
X116677973Y-56776074D01*
X116686564Y-56772383D01*
X116932168Y-56644531D01*
X116940120Y-56639610D01*
X117164128Y-56476858D01*
X117171264Y-56470816D01*
X117368755Y-56276743D01*
X117374920Y-56269713D01*
X117541557Y-56048579D01*
X117546615Y-56040715D01*
X117678735Y-55797380D01*
X117682575Y-55788855D01*
X117777277Y-55528664D01*
X117779815Y-55519665D01*
X117835183Y-55247525D01*
X117836429Y-55236592D01*
X117846184Y-54864030D01*
X117845512Y-54853048D01*
X117804464Y-54578383D01*
X117802400Y-54569263D01*
X117721445Y-54304472D01*
X117718057Y-54295757D01*
X117598853Y-54045842D01*
X117594213Y-54037724D01*
X117439378Y-53808172D01*
X117433590Y-53800829D01*
X117246526Y-53596685D01*
X117239716Y-53590278D01*
X117024532Y-53416026D01*
X117016849Y-53410697D01*
X116778273Y-53270165D01*
X116769887Y-53266029D01*
X116513160Y-53162304D01*
X116504254Y-53159454D01*
X116235016Y-53094815D01*
X116225787Y-53093312D01*
X116195345Y-53090649D01*
X116179191Y-50926000D01*
X122689960Y-50926000D01*
X122702502Y-50928370D01*
%TO.N,+5V*%
G36*
X123574001Y-87939955D02*
G01*
X123571630Y-87952502D01*
X123570784Y-87958602D01*
X123554176Y-88144693D01*
X123515843Y-88284814D01*
X123453302Y-88415935D01*
X123368534Y-88533901D01*
X123264209Y-88634999D01*
X123143636Y-88716020D01*
X123010623Y-88774410D01*
X122866043Y-88809119D01*
X122712630Y-88820387D01*
X122701180Y-88822297D01*
X122694712Y-88824000D01*
X109310040Y-88824000D01*
X109297497Y-88821630D01*
X109291398Y-88820784D01*
X109105307Y-88804176D01*
X108965186Y-88765843D01*
X108834065Y-88703302D01*
X108716099Y-88618534D01*
X108615001Y-88514209D01*
X108533980Y-88393636D01*
X108475590Y-88260623D01*
X108440881Y-88116043D01*
X108429613Y-87962630D01*
X108427703Y-87951180D01*
X108426000Y-87944712D01*
X108426000Y-83876000D01*
X117052191Y-83876000D01*
X117126000Y-83802191D01*
X117126000Y-75166841D01*
X117195489Y-75180663D01*
X117207810Y-75181877D01*
X118022190Y-75181877D01*
X118034511Y-75180663D01*
X118169807Y-75153751D01*
X118192737Y-75144253D01*
X118250000Y-75105992D01*
X118307263Y-75144253D01*
X118330193Y-75153751D01*
X118465489Y-75180663D01*
X118477810Y-75181877D01*
X118799036Y-75181877D01*
X118918538Y-75301379D01*
X118913372Y-75333999D01*
X118913224Y-75352836D01*
X118945621Y-75580473D01*
X118951019Y-75598521D01*
X119048919Y-75806569D01*
X119059384Y-75822231D01*
X119214130Y-75992296D01*
X119228739Y-76004189D01*
X119426651Y-76121233D01*
X119444110Y-76128305D01*
X119667688Y-76181981D01*
X119686455Y-76183607D01*
X119915933Y-76169170D01*
X119934348Y-76165205D01*
X120149436Y-76083930D01*
X120165871Y-76074725D01*
X120347552Y-75933799D01*
X120360555Y-75920169D01*
X120492767Y-75732051D01*
X120501186Y-75715200D01*
X120572317Y-75496286D01*
X120575416Y-75477201D01*
X120577312Y-75235758D01*
X120574513Y-75216627D01*
X120563774Y-75181721D01*
X120574511Y-75180663D01*
X120709807Y-75153751D01*
X120732737Y-75144253D01*
X120852608Y-75064159D01*
X120870159Y-75046608D01*
X120950253Y-74926737D01*
X120959751Y-74903807D01*
X120986663Y-74768511D01*
X120987877Y-74756190D01*
X120987877Y-73238810D01*
X120986663Y-73226489D01*
X120959751Y-73091193D01*
X120950253Y-73068263D01*
X120870159Y-72948392D01*
X120852608Y-72930841D01*
X120732737Y-72850747D01*
X120709807Y-72841249D01*
X120574511Y-72814337D01*
X120562190Y-72813123D01*
X120432834Y-72813123D01*
X120432877Y-72812690D01*
X120432877Y-70187310D01*
X120432834Y-70186877D01*
X120562190Y-70186877D01*
X120574511Y-70185663D01*
X120709807Y-70158751D01*
X120732737Y-70149253D01*
X120852608Y-70069159D01*
X120870159Y-70051608D01*
X120950253Y-69931737D01*
X120959751Y-69908807D01*
X120986663Y-69773511D01*
X120987877Y-69761190D01*
X120987877Y-68794182D01*
X121199186Y-68582873D01*
X121416732Y-68569187D01*
X121435147Y-68565222D01*
X121650235Y-68483947D01*
X121666670Y-68474742D01*
X121848351Y-68333816D01*
X121861354Y-68320186D01*
X121993566Y-68132068D01*
X122001985Y-68115217D01*
X122073116Y-67896303D01*
X122076215Y-67877218D01*
X122078111Y-67635775D01*
X122075312Y-67616644D01*
X122007629Y-67396640D01*
X121999475Y-67379659D01*
X121870235Y-67189487D01*
X121857448Y-67175655D01*
X121678003Y-67031892D01*
X121661714Y-67022430D01*
X121447929Y-66937787D01*
X121429578Y-66933533D01*
X121200356Y-66915493D01*
X121181566Y-66916824D01*
X120957172Y-66966982D01*
X120939604Y-66973779D01*
X120739878Y-67087700D01*
X120725085Y-67099362D01*
X120567686Y-67266974D01*
X120556976Y-67282470D01*
X120455820Y-67488955D01*
X120450140Y-67506916D01*
X120414171Y-67734016D01*
X120414023Y-67752853D01*
X120420385Y-67797556D01*
X120399818Y-67818123D01*
X119747810Y-67818123D01*
X119735489Y-67819337D01*
X119600193Y-67846249D01*
X119577263Y-67855747D01*
X119457392Y-67935841D01*
X119439841Y-67953392D01*
X119359747Y-68073263D01*
X119350249Y-68096193D01*
X119323337Y-68231489D01*
X119322123Y-68243810D01*
X119322123Y-69761190D01*
X119322166Y-69761623D01*
X118775475Y-69761623D01*
X118776000Y-69754950D01*
X118776000Y-66276000D01*
X123574000Y-66276000D01*
X123574001Y-87939955D01*
G37*
X123574001Y-87939955D02*
X123571630Y-87952502D01*
X123570784Y-87958602D01*
X123554176Y-88144693D01*
X123515843Y-88284814D01*
X123453302Y-88415935D01*
X123368534Y-88533901D01*
X123264209Y-88634999D01*
X123143636Y-88716020D01*
X123010623Y-88774410D01*
X122866043Y-88809119D01*
X122712630Y-88820387D01*
X122701180Y-88822297D01*
X122694712Y-88824000D01*
X109310040Y-88824000D01*
X109297497Y-88821630D01*
X109291398Y-88820784D01*
X109105307Y-88804176D01*
X108965186Y-88765843D01*
X108834065Y-88703302D01*
X108716099Y-88618534D01*
X108615001Y-88514209D01*
X108533980Y-88393636D01*
X108475590Y-88260623D01*
X108440881Y-88116043D01*
X108429613Y-87962630D01*
X108427703Y-87951180D01*
X108426000Y-87944712D01*
X108426000Y-83876000D01*
X117052191Y-83876000D01*
X117126000Y-83802191D01*
X117126000Y-75166841D01*
X117195489Y-75180663D01*
X117207810Y-75181877D01*
X118022190Y-75181877D01*
X118034511Y-75180663D01*
X118169807Y-75153751D01*
X118192737Y-75144253D01*
X118250000Y-75105992D01*
X118307263Y-75144253D01*
X118330193Y-75153751D01*
X118465489Y-75180663D01*
X118477810Y-75181877D01*
X118799036Y-75181877D01*
X118918538Y-75301379D01*
X118913372Y-75333999D01*
X118913224Y-75352836D01*
X118945621Y-75580473D01*
X118951019Y-75598521D01*
X119048919Y-75806569D01*
X119059384Y-75822231D01*
X119214130Y-75992296D01*
X119228739Y-76004189D01*
X119426651Y-76121233D01*
X119444110Y-76128305D01*
X119667688Y-76181981D01*
X119686455Y-76183607D01*
X119915933Y-76169170D01*
X119934348Y-76165205D01*
X120149436Y-76083930D01*
X120165871Y-76074725D01*
X120347552Y-75933799D01*
X120360555Y-75920169D01*
X120492767Y-75732051D01*
X120501186Y-75715200D01*
X120572317Y-75496286D01*
X120575416Y-75477201D01*
X120577312Y-75235758D01*
X120574513Y-75216627D01*
X120563774Y-75181721D01*
X120574511Y-75180663D01*
X120709807Y-75153751D01*
X120732737Y-75144253D01*
X120852608Y-75064159D01*
X120870159Y-75046608D01*
X120950253Y-74926737D01*
X120959751Y-74903807D01*
X120986663Y-74768511D01*
X120987877Y-74756190D01*
X120987877Y-73238810D01*
X120986663Y-73226489D01*
X120959751Y-73091193D01*
X120950253Y-73068263D01*
X120870159Y-72948392D01*
X120852608Y-72930841D01*
X120732737Y-72850747D01*
X120709807Y-72841249D01*
X120574511Y-72814337D01*
X120562190Y-72813123D01*
X120432834Y-72813123D01*
X120432877Y-72812690D01*
X120432877Y-70187310D01*
X120432834Y-70186877D01*
X120562190Y-70186877D01*
X120574511Y-70185663D01*
X120709807Y-70158751D01*
X120732737Y-70149253D01*
X120852608Y-70069159D01*
X120870159Y-70051608D01*
X120950253Y-69931737D01*
X120959751Y-69908807D01*
X120986663Y-69773511D01*
X120987877Y-69761190D01*
X120987877Y-68794182D01*
X121199186Y-68582873D01*
X121416732Y-68569187D01*
X121435147Y-68565222D01*
X121650235Y-68483947D01*
X121666670Y-68474742D01*
X121848351Y-68333816D01*
X121861354Y-68320186D01*
X121993566Y-68132068D01*
X122001985Y-68115217D01*
X122073116Y-67896303D01*
X122076215Y-67877218D01*
X122078111Y-67635775D01*
X122075312Y-67616644D01*
X122007629Y-67396640D01*
X121999475Y-67379659D01*
X121870235Y-67189487D01*
X121857448Y-67175655D01*
X121678003Y-67031892D01*
X121661714Y-67022430D01*
X121447929Y-66937787D01*
X121429578Y-66933533D01*
X121200356Y-66915493D01*
X121181566Y-66916824D01*
X120957172Y-66966982D01*
X120939604Y-66973779D01*
X120739878Y-67087700D01*
X120725085Y-67099362D01*
X120567686Y-67266974D01*
X120556976Y-67282470D01*
X120455820Y-67488955D01*
X120450140Y-67506916D01*
X120414171Y-67734016D01*
X120414023Y-67752853D01*
X120420385Y-67797556D01*
X120399818Y-67818123D01*
X119747810Y-67818123D01*
X119735489Y-67819337D01*
X119600193Y-67846249D01*
X119577263Y-67855747D01*
X119457392Y-67935841D01*
X119439841Y-67953392D01*
X119359747Y-68073263D01*
X119350249Y-68096193D01*
X119323337Y-68231489D01*
X119322123Y-68243810D01*
X119322123Y-69761190D01*
X119322166Y-69761623D01*
X118775475Y-69761623D01*
X118776000Y-69754950D01*
X118776000Y-66276000D01*
X123574000Y-66276000D01*
X123574001Y-87939955D01*
G36*
X115562836Y-62724000D02*
G01*
X113927179Y-62724000D01*
X113928137Y-62632532D01*
X113925808Y-62614842D01*
X113862008Y-62386336D01*
X113855185Y-62370569D01*
X113732457Y-62167921D01*
X113721646Y-62154570D01*
X113548942Y-61992391D01*
X113534939Y-61982439D01*
X113324985Y-61872678D01*
X113308821Y-61866858D01*
X113077084Y-61817601D01*
X113059950Y-61816343D01*
X112823503Y-61831219D01*
X112806662Y-61834615D01*
X112582927Y-61912529D01*
X112567621Y-61920328D01*
X112373079Y-62055537D01*
X112360433Y-62067166D01*
X112209418Y-62249711D01*
X112200365Y-62264312D01*
X112104003Y-62480744D01*
X112099211Y-62497242D01*
X112064601Y-62731614D01*
X112064421Y-62748793D01*
X112094114Y-62983838D01*
X112098561Y-63000433D01*
X112136731Y-63091237D01*
X112125103Y-63127026D01*
X112122000Y-63146615D01*
X112121999Y-66124000D01*
X108526000Y-66124000D01*
X108526000Y-61276000D01*
X111754950Y-61276000D01*
X111764821Y-61275223D01*
X111903112Y-61253321D01*
X111921974Y-61247192D01*
X112051153Y-61181372D01*
X112067198Y-61169714D01*
X112169714Y-61067198D01*
X112181372Y-61051153D01*
X112247192Y-60921974D01*
X112253321Y-60903112D01*
X112275223Y-60764821D01*
X112276000Y-60754950D01*
X112276000Y-57726000D01*
X115476166Y-57726000D01*
X115562836Y-62724000D01*
G37*
X115562836Y-62724000D02*
X113927179Y-62724000D01*
X113928137Y-62632532D01*
X113925808Y-62614842D01*
X113862008Y-62386336D01*
X113855185Y-62370569D01*
X113732457Y-62167921D01*
X113721646Y-62154570D01*
X113548942Y-61992391D01*
X113534939Y-61982439D01*
X113324985Y-61872678D01*
X113308821Y-61866858D01*
X113077084Y-61817601D01*
X113059950Y-61816343D01*
X112823503Y-61831219D01*
X112806662Y-61834615D01*
X112582927Y-61912529D01*
X112567621Y-61920328D01*
X112373079Y-62055537D01*
X112360433Y-62067166D01*
X112209418Y-62249711D01*
X112200365Y-62264312D01*
X112104003Y-62480744D01*
X112099211Y-62497242D01*
X112064601Y-62731614D01*
X112064421Y-62748793D01*
X112094114Y-62983838D01*
X112098561Y-63000433D01*
X112136731Y-63091237D01*
X112125103Y-63127026D01*
X112122000Y-63146615D01*
X112121999Y-66124000D01*
X108526000Y-66124000D01*
X108526000Y-61276000D01*
X111754950Y-61276000D01*
X111764821Y-61275223D01*
X111903112Y-61253321D01*
X111921974Y-61247192D01*
X112051153Y-61181372D01*
X112067198Y-61169714D01*
X112169714Y-61067198D01*
X112181372Y-61051153D01*
X112247192Y-60921974D01*
X112253321Y-60903112D01*
X112275223Y-60764821D01*
X112276000Y-60754950D01*
X112276000Y-57726000D01*
X115476166Y-57726000D01*
X115562836Y-62724000D01*
%TO.N,Net-(D1-Pad2)*%
G36*
X123474000Y-65624000D02*
G01*
X118197809Y-65624000D01*
X118124000Y-65697809D01*
X118124000Y-67857929D01*
X118115296Y-67863745D01*
X118097745Y-67881296D01*
X117995549Y-68034245D01*
X117986051Y-68057175D01*
X117951377Y-68231489D01*
X117950164Y-68243810D01*
X117950164Y-69624000D01*
X116271999Y-69624000D01*
X116271999Y-66584321D01*
X116271998Y-66584309D01*
X116271998Y-66537616D01*
X116268896Y-66518028D01*
X116255921Y-66478097D01*
X116249350Y-66436613D01*
X116243222Y-66417752D01*
X116224158Y-66380336D01*
X116211181Y-66340398D01*
X116202177Y-66322728D01*
X116177496Y-66288758D01*
X116158430Y-66251338D01*
X116146772Y-66235293D01*
X115883706Y-65972227D01*
X115876000Y-65966628D01*
X115876000Y-65947809D01*
X115802191Y-65874000D01*
X115695776Y-65874000D01*
X115682385Y-65869649D01*
X115640902Y-65863078D01*
X115600971Y-65850104D01*
X115581382Y-65847001D01*
X115534690Y-65847001D01*
X115534678Y-65847000D01*
X113427999Y-65847000D01*
X113427999Y-63573643D01*
X113518747Y-63528596D01*
X113532956Y-63518939D01*
X113691705Y-63376000D01*
X123474000Y-63376000D01*
X123474000Y-65624000D01*
G37*
X123474000Y-65624000D02*
X118197809Y-65624000D01*
X118124000Y-65697809D01*
X118124000Y-67857929D01*
X118115296Y-67863745D01*
X118097745Y-67881296D01*
X117995549Y-68034245D01*
X117986051Y-68057175D01*
X117951377Y-68231489D01*
X117950164Y-68243810D01*
X117950164Y-69624000D01*
X116271999Y-69624000D01*
X116271999Y-66584321D01*
X116271998Y-66584309D01*
X116271998Y-66537616D01*
X116268896Y-66518028D01*
X116255921Y-66478097D01*
X116249350Y-66436613D01*
X116243222Y-66417752D01*
X116224158Y-66380336D01*
X116211181Y-66340398D01*
X116202177Y-66322728D01*
X116177496Y-66288758D01*
X116158430Y-66251338D01*
X116146772Y-66235293D01*
X115883706Y-65972227D01*
X115876000Y-65966628D01*
X115876000Y-65947809D01*
X115802191Y-65874000D01*
X115695776Y-65874000D01*
X115682385Y-65869649D01*
X115640902Y-65863078D01*
X115600971Y-65850104D01*
X115581382Y-65847001D01*
X115534690Y-65847001D01*
X115534678Y-65847000D01*
X113427999Y-65847000D01*
X113427999Y-63573643D01*
X113518747Y-63528596D01*
X113532956Y-63518939D01*
X113691705Y-63376000D01*
X123474000Y-63376000D01*
X123474000Y-65624000D01*
%TO.N,Net-(J1-Pad3)*%
G36*
X115643323Y-53089695D02*
G01*
X115384125Y-53144790D01*
X115375148Y-53147407D01*
X115115794Y-53244376D01*
X115107302Y-53248290D01*
X114865130Y-53382529D01*
X114857310Y-53387655D01*
X114637639Y-53556215D01*
X114630663Y-53562441D01*
X114438319Y-53761619D01*
X114432340Y-53768808D01*
X114271550Y-53994228D01*
X114266700Y-54002222D01*
X114140995Y-54248932D01*
X114137379Y-54257555D01*
X114049521Y-54520135D01*
X114047219Y-54529198D01*
X113999137Y-54801880D01*
X113998201Y-54811184D01*
X113990953Y-55087978D01*
X113991401Y-55097318D01*
X114025145Y-55372143D01*
X114026969Y-55381314D01*
X114100965Y-55648133D01*
X114104125Y-55656934D01*
X114216746Y-55909884D01*
X114221172Y-55918121D01*
X114369944Y-56151647D01*
X114375538Y-56159139D01*
X114557194Y-56368110D01*
X114563835Y-56374693D01*
X114774383Y-56554518D01*
X114781923Y-56560047D01*
X115016739Y-56706776D01*
X115025014Y-56711129D01*
X115278938Y-56821539D01*
X115287766Y-56824622D01*
X115555220Y-56896286D01*
X115564406Y-56898030D01*
X115671835Y-56910270D01*
X115673057Y-57074000D01*
X111697809Y-57074000D01*
X111624000Y-57147809D01*
X111624000Y-60624000D01*
X108426000Y-60624000D01*
X108426000Y-51810040D01*
X108428370Y-51797498D01*
X108429216Y-51791397D01*
X108445823Y-51605309D01*
X108484158Y-51465184D01*
X108546699Y-51334063D01*
X108631462Y-51216104D01*
X108735794Y-51114999D01*
X108856364Y-51033980D01*
X108989377Y-50975590D01*
X109133956Y-50940881D01*
X109287370Y-50929613D01*
X109298820Y-50927703D01*
X109305288Y-50926000D01*
X115627176Y-50926000D01*
X115643323Y-53089695D01*
G37*
X115643323Y-53089695D02*
X115384125Y-53144790D01*
X115375148Y-53147407D01*
X115115794Y-53244376D01*
X115107302Y-53248290D01*
X114865130Y-53382529D01*
X114857310Y-53387655D01*
X114637639Y-53556215D01*
X114630663Y-53562441D01*
X114438319Y-53761619D01*
X114432340Y-53768808D01*
X114271550Y-53994228D01*
X114266700Y-54002222D01*
X114140995Y-54248932D01*
X114137379Y-54257555D01*
X114049521Y-54520135D01*
X114047219Y-54529198D01*
X113999137Y-54801880D01*
X113998201Y-54811184D01*
X113990953Y-55087978D01*
X113991401Y-55097318D01*
X114025145Y-55372143D01*
X114026969Y-55381314D01*
X114100965Y-55648133D01*
X114104125Y-55656934D01*
X114216746Y-55909884D01*
X114221172Y-55918121D01*
X114369944Y-56151647D01*
X114375538Y-56159139D01*
X114557194Y-56368110D01*
X114563835Y-56374693D01*
X114774383Y-56554518D01*
X114781923Y-56560047D01*
X115016739Y-56706776D01*
X115025014Y-56711129D01*
X115278938Y-56821539D01*
X115287766Y-56824622D01*
X115555220Y-56896286D01*
X115564406Y-56898030D01*
X115671835Y-56910270D01*
X115673057Y-57074000D01*
X111697809Y-57074000D01*
X111624000Y-57147809D01*
X111624000Y-60624000D01*
X108426000Y-60624000D01*
X108426000Y-51810040D01*
X108428370Y-51797498D01*
X108429216Y-51791397D01*
X108445823Y-51605309D01*
X108484158Y-51465184D01*
X108546699Y-51334063D01*
X108631462Y-51216104D01*
X108735794Y-51114999D01*
X108856364Y-51033980D01*
X108989377Y-50975590D01*
X109133956Y-50940881D01*
X109287370Y-50929613D01*
X109298820Y-50927703D01*
X109305288Y-50926000D01*
X115627176Y-50926000D01*
X115643323Y-53089695D01*
%TD*%
M02*
