%TF.GenerationSoftware,KiCad,Pcbnew,5.99.0-unknown-ad88874~101~ubuntu20.04.1*%
%TF.CreationDate,2020-05-19T22:39:21-04:00*%
%TF.ProjectId,headlights,68656164-6c69-4676-9874-732e6b696361,rev?*%
%TF.SameCoordinates,Original*%
%TF.FileFunction,Legend,Bot*%
%TF.FilePolarity,Positive*%
%FSLAX46Y46*%
G04 Gerber Fmt 4.6, Leading zero omitted, Abs format (unit mm)*
G04 Created by KiCad (PCBNEW 5.99.0-unknown-ad88874~101~ubuntu20.04.1) date 2020-05-19 22:39:21*
%MOMM*%
%LPD*%
G01*
G04 APERTURE LIST*
%ADD10C,0.300000*%
G04 APERTURE END LIST*
D10*
X119835714Y-84800509D02*
X119764285Y-84729080D01*
X119621428Y-84514794D01*
X119550000Y-84371937D01*
X119478571Y-84157651D01*
X119407142Y-83800509D01*
X119407142Y-83514794D01*
X119478571Y-83157651D01*
X119550000Y-82943366D01*
X119621428Y-82800509D01*
X119764285Y-82586223D01*
X119835714Y-82514794D01*
X122000000Y-87264794D02*
X122071428Y-87479080D01*
X122071428Y-87764794D01*
X122000000Y-87979080D01*
X121857142Y-88121937D01*
X121714285Y-88193366D01*
X121500000Y-88193366D01*
X121357142Y-88121937D01*
X121214285Y-87979080D01*
X121142857Y-87764794D01*
X121142857Y-87479080D01*
X120571428Y-87479080D01*
X121285714Y-85121937D02*
X121000000Y-85121937D01*
X121000000Y-85050509D02*
X121285714Y-85050509D01*
X121357142Y-84979080D02*
X120928571Y-84979080D01*
X121000000Y-84907651D02*
X121285714Y-84907651D01*
X121285714Y-84836223D02*
X121000000Y-84836223D01*
X121071428Y-85121937D02*
X120928571Y-84979080D01*
X121071428Y-84836223D01*
X121214285Y-85121937D02*
X121357142Y-84979080D01*
X121214285Y-84836223D01*
X121285714Y-85121937D02*
X121357142Y-84979080D01*
X121285714Y-84836223D01*
X121142857Y-84764794D01*
X121000000Y-84836223D01*
X120928571Y-84979080D01*
X121000000Y-85121937D01*
X121142857Y-85193366D01*
X121285714Y-85121937D01*
X120571428Y-83121937D02*
X121214285Y-83621937D01*
X121357142Y-83693366D01*
X121500000Y-83621937D01*
X121571428Y-83479080D01*
X121500000Y-83336223D01*
X121357142Y-83264794D01*
X121214285Y-83336223D01*
X120571428Y-83836223D01*
X121285714Y-82121937D02*
X121000000Y-82121937D01*
X121000000Y-82050509D02*
X121285714Y-82050509D01*
X121357142Y-81979080D02*
X120928571Y-81979080D01*
X121000000Y-81907651D02*
X121285714Y-81907651D01*
X121285714Y-81836223D02*
X121000000Y-81836223D01*
X121071428Y-82121937D02*
X120928571Y-81979080D01*
X121071428Y-81836223D01*
X121214285Y-82121937D02*
X121357142Y-81979080D01*
X121214285Y-81836223D01*
X121285714Y-82121937D02*
X121357142Y-81979080D01*
X121285714Y-81836223D01*
X121142857Y-81764794D01*
X121000000Y-81836223D01*
X120928571Y-81979080D01*
X121000000Y-82121937D01*
X121142857Y-82193366D01*
X121285714Y-82121937D01*
X122000000Y-80836223D02*
X122071428Y-80621937D01*
X122071428Y-80336223D01*
X122000000Y-80121937D01*
X121857142Y-79979080D01*
X121714285Y-79907651D01*
X121500000Y-79907651D01*
X121357142Y-79979080D01*
X121214285Y-80121937D01*
X121142857Y-80336223D01*
X121142857Y-80621937D01*
X120571428Y-80621937D01*
M02*
