%TF.GenerationSoftware,KiCad,Pcbnew,5.99.0-unknown-ad88874~101~ubuntu20.04.1*%
%TF.CreationDate,2020-05-19T22:39:20-04:00*%
%TF.ProjectId,headlights,68656164-6c69-4676-9874-732e6b696361,rev?*%
%TF.SameCoordinates,Original*%
%TF.FileFunction,Copper,L2,Bot*%
%TF.FilePolarity,Positive*%
%FSLAX46Y46*%
G04 Gerber Fmt 4.6, Leading zero omitted, Abs format (unit mm)*
G04 Created by KiCad (PCBNEW 5.99.0-unknown-ad88874~101~ubuntu20.04.1) date 2020-05-19 22:39:20*
%MOMM*%
%LPD*%
G01*
G04 APERTURE LIST*
%TA.AperFunction,ComponentPad*%
%ADD10O,1.700000X1.700000*%
%TD*%
%TA.AperFunction,ComponentPad*%
%ADD11R,1.700000X1.700000*%
%TD*%
%TA.AperFunction,ComponentPad*%
%ADD12C,3.000000*%
%TD*%
%TA.AperFunction,ComponentPad*%
%ADD13R,3.000000X3.000000*%
%TD*%
%TA.AperFunction,ViaPad*%
%ADD14C,0.800000*%
%TD*%
%TA.AperFunction,Conductor*%
%ADD15C,0.250000*%
%TD*%
%TA.AperFunction,Conductor*%
%ADD16C,0.254000*%
%TD*%
G04 APERTURE END LIST*
D10*
%TO.P,J2,5,Pin_5*%
%TO.N,/ON*%
X113000000Y-76840000D03*
%TO.P,J2,4,Pin_4*%
%TO.N,GND*%
X113000000Y-79380000D03*
%TO.P,J2,3,Pin_3*%
X113000000Y-81920000D03*
%TO.P,J2,2,Pin_2*%
%TO.N,+5V*%
X113000000Y-84460000D03*
D11*
%TO.P,J2,1,Pin_1*%
X113000000Y-87000000D03*
%TD*%
D12*
%TO.P,J1,3,Pin_3*%
%TO.N,Net-(J1-Pad3)*%
X110840000Y-55000000D03*
%TO.P,J1,2,Pin_2*%
%TO.N,Net-(J1-Pad2)*%
X115920000Y-55000000D03*
D13*
%TO.P,J1,1,Pin_1*%
%TO.N,Net-(J1-Pad1)*%
X121000000Y-55000000D03*
%TD*%
D14*
%TO.N,Net-(J1-Pad3)*%
X113000000Y-62750000D03*
X119749201Y-75349983D03*
%TO.N,Net-(U2-Pad9)*%
X119500000Y-72250000D03*
X119500000Y-70750000D03*
X117000000Y-70750000D03*
X117000000Y-72250000D03*
%TO.N,+5V*%
X122750000Y-66750000D03*
X120250000Y-66750000D03*
X119250000Y-66750000D03*
%TO.N,Net-(RV1-Pad2)*%
X121250000Y-67750000D03*
%TO.N,+5V*%
X110800000Y-65800000D03*
X109200000Y-65800000D03*
%TO.N,Net-(J1-Pad3)*%
X114274999Y-73225001D03*
%TO.N,+5V*%
X115000000Y-58500000D03*
X113000000Y-58500000D03*
X111200000Y-64200000D03*
X112000000Y-65000000D03*
X112000000Y-63500000D03*
X112000000Y-62000000D03*
%TO.N,Net-(RV1-Pad2)*%
X115000000Y-70500000D03*
%TD*%
D15*
%TO.N,Net-(J1-Pad3)*%
X113000000Y-61250000D02*
X110750000Y-59000000D01*
X113000000Y-62750000D02*
X113000000Y-61250000D01*
X118399218Y-74000000D02*
X118250000Y-74000000D01*
X119749201Y-75349983D02*
X118399218Y-74000000D01*
X118250000Y-74000000D02*
X115049998Y-74000000D01*
X115049998Y-74000000D02*
X114274999Y-73225001D01*
%TO.N,Net-(RV1-Pad2)*%
X115375000Y-68125000D02*
X115000000Y-68500000D01*
X121250000Y-67750000D02*
X115750000Y-67750000D01*
X115750000Y-67750000D02*
X115375000Y-68125000D01*
X115000000Y-68500000D02*
X115000000Y-70500000D01*
%TD*%
%TO.N,+5V*%
G36*
X120366000Y-59206756D02*
G01*
X120367444Y-59220186D01*
X120417183Y-59448834D01*
X120425813Y-59469668D01*
X120514953Y-59608373D01*
X120526756Y-59621994D01*
X120649652Y-59728485D01*
X120664815Y-59738229D01*
X120812735Y-59805781D01*
X120830028Y-59810859D01*
X120986522Y-59833360D01*
X120995500Y-59834002D01*
X123366000Y-59834002D01*
X123366001Y-87922261D01*
X123365991Y-87922301D01*
X123364415Y-87931523D01*
X123363359Y-87942611D01*
X123363324Y-87942989D01*
X123348624Y-88107708D01*
X123320088Y-88212012D01*
X123273534Y-88309617D01*
X123210431Y-88397434D01*
X123132775Y-88472687D01*
X123043016Y-88533003D01*
X122944005Y-88576466D01*
X122833940Y-88602890D01*
X122698712Y-88612821D01*
X122689840Y-88614111D01*
X122681213Y-88616000D01*
X109327735Y-88616000D01*
X109327699Y-88615991D01*
X109318477Y-88614415D01*
X109307389Y-88613359D01*
X109307011Y-88613324D01*
X109142292Y-88598624D01*
X109037988Y-88570088D01*
X108940383Y-88523534D01*
X108852566Y-88460431D01*
X108777313Y-88382775D01*
X108716997Y-88293016D01*
X108673534Y-88194005D01*
X108647110Y-88083940D01*
X108637179Y-87948712D01*
X108635889Y-87939840D01*
X108634000Y-87931213D01*
X108634000Y-87447808D01*
X111508163Y-87447808D01*
X111508163Y-87858258D01*
X111510319Y-87874634D01*
X111585137Y-88153859D01*
X111597880Y-88178339D01*
X111728990Y-88334590D01*
X111745879Y-88348761D01*
X111920120Y-88449359D01*
X111940837Y-88456900D01*
X112133538Y-88490878D01*
X112144499Y-88491837D01*
X112552191Y-88491837D01*
X112626000Y-88418028D01*
X112626000Y-87447809D01*
X113373999Y-87447809D01*
X113373999Y-88418028D01*
X113447808Y-88491837D01*
X113858258Y-88491837D01*
X113874634Y-88489681D01*
X114153859Y-88414863D01*
X114178339Y-88402120D01*
X114334590Y-88271010D01*
X114348761Y-88254121D01*
X114449359Y-88079880D01*
X114456900Y-88059163D01*
X114490878Y-87866462D01*
X114491837Y-87855501D01*
X114491837Y-87447809D01*
X114418028Y-87374000D01*
X113447808Y-87374000D01*
X113373999Y-87447809D01*
X112626000Y-87447809D01*
X112626000Y-87447808D01*
X112552191Y-87373999D01*
X111581972Y-87373999D01*
X111508163Y-87447808D01*
X108634000Y-87447808D01*
X108634000Y-86144499D01*
X111508163Y-86144499D01*
X111508163Y-86552191D01*
X111581972Y-86626000D01*
X112552192Y-86626000D01*
X112626001Y-86552191D01*
X112626001Y-85805809D01*
X112626000Y-85805808D01*
X112626000Y-84907809D01*
X113373999Y-84907809D01*
X113373999Y-85654191D01*
X113374000Y-85654192D01*
X113374000Y-86552192D01*
X113447809Y-86626001D01*
X114418028Y-86626001D01*
X114491837Y-86552192D01*
X114491837Y-86141742D01*
X114489681Y-86125366D01*
X114414863Y-85846142D01*
X114402120Y-85821662D01*
X114271010Y-85665410D01*
X114254121Y-85651239D01*
X114079880Y-85550641D01*
X114059163Y-85543100D01*
X114024325Y-85536957D01*
X114053645Y-85512004D01*
X114061158Y-85504424D01*
X114215833Y-85319435D01*
X114221962Y-85310698D01*
X114343256Y-85102294D01*
X114347825Y-85092649D01*
X114404016Y-84942361D01*
X114328843Y-84834000D01*
X113447808Y-84834000D01*
X113373999Y-84907809D01*
X112626000Y-84907809D01*
X112626000Y-84907808D01*
X112552191Y-84833999D01*
X111668174Y-84833999D01*
X111593587Y-84948197D01*
X111689591Y-85166900D01*
X111694692Y-85176275D01*
X111827430Y-85377584D01*
X111834038Y-85385965D01*
X111985481Y-85547801D01*
X111846142Y-85585137D01*
X111821662Y-85597880D01*
X111665410Y-85728990D01*
X111651239Y-85745879D01*
X111550641Y-85920120D01*
X111543100Y-85940837D01*
X111509122Y-86133538D01*
X111508163Y-86144499D01*
X108634000Y-86144499D01*
X108634000Y-76831043D01*
X111511109Y-76831043D01*
X111529188Y-77071497D01*
X111530885Y-77082034D01*
X111589221Y-77316005D01*
X111592669Y-77326104D01*
X111689591Y-77546900D01*
X111694692Y-77556275D01*
X111827430Y-77757584D01*
X111834038Y-77765965D01*
X111998798Y-77942032D01*
X112006722Y-77949180D01*
X112198792Y-78094968D01*
X112207808Y-78100679D01*
X112224166Y-78109194D01*
X112223032Y-78109882D01*
X112028199Y-78251957D01*
X112020138Y-78258952D01*
X111852029Y-78431822D01*
X111845263Y-78440074D01*
X111708683Y-78638798D01*
X111703403Y-78648073D01*
X111602260Y-78866968D01*
X111598618Y-78877000D01*
X111535802Y-79109807D01*
X111533903Y-79120309D01*
X111511211Y-79360372D01*
X111511109Y-79371043D01*
X111529188Y-79611497D01*
X111530885Y-79622034D01*
X111589221Y-79856005D01*
X111592669Y-79866104D01*
X111689591Y-80086900D01*
X111694692Y-80096275D01*
X111827430Y-80297584D01*
X111834038Y-80305965D01*
X111998798Y-80482032D01*
X112006722Y-80489180D01*
X112198792Y-80634968D01*
X112207808Y-80640679D01*
X112224166Y-80649194D01*
X112223032Y-80649882D01*
X112028199Y-80791957D01*
X112020138Y-80798952D01*
X111852029Y-80971822D01*
X111845263Y-80980074D01*
X111708683Y-81178798D01*
X111703403Y-81188073D01*
X111602260Y-81406968D01*
X111598618Y-81417000D01*
X111535802Y-81649807D01*
X111533903Y-81660309D01*
X111511211Y-81900372D01*
X111511109Y-81911043D01*
X111529188Y-82151497D01*
X111530885Y-82162034D01*
X111589221Y-82396005D01*
X111592669Y-82406104D01*
X111689591Y-82626900D01*
X111694692Y-82636275D01*
X111827430Y-82837584D01*
X111834038Y-82845965D01*
X111998798Y-83022032D01*
X112006722Y-83029180D01*
X112198792Y-83174968D01*
X112207808Y-83180679D01*
X112224166Y-83189194D01*
X112223032Y-83189882D01*
X112028199Y-83331957D01*
X112020138Y-83338952D01*
X111852029Y-83511822D01*
X111845263Y-83520074D01*
X111708683Y-83718798D01*
X111703403Y-83728073D01*
X111591724Y-83969770D01*
X111666056Y-84086000D01*
X112500001Y-84086000D01*
X114328871Y-84086001D01*
X114404192Y-83979622D01*
X114359723Y-83853343D01*
X114355339Y-83843612D01*
X114238067Y-83632916D01*
X114232107Y-83624064D01*
X114081013Y-83436140D01*
X114073647Y-83428417D01*
X113893049Y-83268638D01*
X113884486Y-83262267D01*
X113767888Y-83189973D01*
X113861330Y-83134491D01*
X113870012Y-83128286D01*
X114053645Y-82972004D01*
X114061158Y-82964424D01*
X114215833Y-82779435D01*
X114221962Y-82770698D01*
X114343256Y-82562294D01*
X114347825Y-82552650D01*
X114432272Y-82326787D01*
X114435151Y-82316511D01*
X114480392Y-82079351D01*
X114481507Y-82068128D01*
X114484077Y-81800341D01*
X114483178Y-81789099D01*
X114442499Y-81551114D01*
X114439817Y-81540784D01*
X114359723Y-81313343D01*
X114355339Y-81303612D01*
X114238067Y-81092916D01*
X114232107Y-81084064D01*
X114081013Y-80896140D01*
X114073647Y-80888417D01*
X113893049Y-80728638D01*
X113884486Y-80722267D01*
X113767888Y-80649973D01*
X113770675Y-80648318D01*
X120374000Y-80648318D01*
X120374000Y-87502700D01*
X120447809Y-87576509D01*
X122052191Y-87576509D01*
X122126000Y-87502700D01*
X122126000Y-80648318D01*
X122052191Y-80574509D01*
X120447809Y-80574509D01*
X120374000Y-80648318D01*
X113770675Y-80648318D01*
X113861330Y-80594491D01*
X113870012Y-80588286D01*
X114053645Y-80432004D01*
X114061158Y-80424424D01*
X114215833Y-80239435D01*
X114221962Y-80230698D01*
X114343256Y-80022294D01*
X114347825Y-80012650D01*
X114432272Y-79786787D01*
X114435151Y-79776511D01*
X114480392Y-79539351D01*
X114481507Y-79528128D01*
X114484077Y-79260341D01*
X114483178Y-79249099D01*
X114442499Y-79011114D01*
X114439817Y-79000784D01*
X114359723Y-78773343D01*
X114355339Y-78763612D01*
X114238067Y-78552916D01*
X114232107Y-78544064D01*
X114081013Y-78356140D01*
X114073647Y-78348417D01*
X113893049Y-78188638D01*
X113884486Y-78182267D01*
X113767888Y-78109973D01*
X113861330Y-78054491D01*
X113870012Y-78048286D01*
X114053645Y-77892004D01*
X114061158Y-77884424D01*
X114215833Y-77699435D01*
X114221962Y-77690698D01*
X114343256Y-77482294D01*
X114347825Y-77472650D01*
X114432272Y-77246787D01*
X114435151Y-77236511D01*
X114480392Y-76999351D01*
X114481507Y-76988128D01*
X114484077Y-76720341D01*
X114483178Y-76709099D01*
X114442499Y-76471114D01*
X114439817Y-76460784D01*
X114359723Y-76233343D01*
X114355339Y-76223612D01*
X114238067Y-76012916D01*
X114232107Y-76004064D01*
X114081013Y-75816140D01*
X114073647Y-75808417D01*
X113893049Y-75648638D01*
X113884486Y-75642267D01*
X113679549Y-75515202D01*
X113670036Y-75510365D01*
X113446619Y-75419645D01*
X113436427Y-75416480D01*
X113200919Y-75364700D01*
X113190340Y-75363298D01*
X112949475Y-75351939D01*
X112938809Y-75352339D01*
X112699474Y-75381727D01*
X112689030Y-75383918D01*
X112458068Y-75453210D01*
X112448142Y-75457130D01*
X112232155Y-75564346D01*
X112223032Y-75569882D01*
X112028199Y-75711957D01*
X112020138Y-75718952D01*
X111852029Y-75891822D01*
X111845263Y-75900074D01*
X111708683Y-76098798D01*
X111703403Y-76108073D01*
X111602260Y-76326968D01*
X111598618Y-76337000D01*
X111535802Y-76569807D01*
X111533903Y-76580309D01*
X111511211Y-76820372D01*
X111511109Y-76831043D01*
X108634000Y-76831043D01*
X108634000Y-73096939D01*
X113238999Y-73096939D01*
X113238999Y-73353063D01*
X113241155Y-73369439D01*
X113307445Y-73616836D01*
X113313766Y-73632096D01*
X113441828Y-73853906D01*
X113451883Y-73867010D01*
X113632990Y-74048117D01*
X113646094Y-74058172D01*
X113867904Y-74186234D01*
X113883164Y-74192555D01*
X114130561Y-74258845D01*
X114146937Y-74261001D01*
X114234784Y-74261001D01*
X114590018Y-74616236D01*
X114606064Y-74627894D01*
X114651146Y-74650865D01*
X114692081Y-74680606D01*
X114709753Y-74689610D01*
X114757869Y-74705243D01*
X114802958Y-74728218D01*
X114821821Y-74734347D01*
X114871804Y-74742263D01*
X114919919Y-74757896D01*
X114939507Y-74760999D01*
X114994807Y-74760999D01*
X114994819Y-74761000D01*
X118084003Y-74761000D01*
X118713201Y-75390199D01*
X118713201Y-75478045D01*
X118715357Y-75494421D01*
X118781647Y-75741818D01*
X118787968Y-75757078D01*
X118916030Y-75978888D01*
X118926085Y-75991992D01*
X119107192Y-76173099D01*
X119120296Y-76183154D01*
X119342106Y-76311216D01*
X119357366Y-76317537D01*
X119604763Y-76383827D01*
X119621139Y-76385983D01*
X119877263Y-76385983D01*
X119893639Y-76383827D01*
X120141036Y-76317537D01*
X120156296Y-76311216D01*
X120378106Y-76183154D01*
X120391210Y-76173099D01*
X120572317Y-75991992D01*
X120582372Y-75978888D01*
X120710434Y-75757078D01*
X120716755Y-75741818D01*
X120783045Y-75494421D01*
X120785201Y-75478045D01*
X120785201Y-75314507D01*
X120910234Y-75233472D01*
X120923809Y-75221617D01*
X121029826Y-75098313D01*
X121039512Y-75083113D01*
X121106495Y-74934933D01*
X121111506Y-74917621D01*
X121133405Y-74761041D01*
X121134012Y-74752061D01*
X121111060Y-68784568D01*
X121121937Y-68786000D01*
X121378062Y-68786000D01*
X121394438Y-68783844D01*
X121641835Y-68717554D01*
X121657095Y-68711233D01*
X121878905Y-68583171D01*
X121892009Y-68573116D01*
X122073116Y-68392009D01*
X122083171Y-68378905D01*
X122211233Y-68157095D01*
X122217554Y-68141835D01*
X122283844Y-67894438D01*
X122286000Y-67878062D01*
X122286000Y-67621938D01*
X122283844Y-67605562D01*
X122217554Y-67358165D01*
X122211233Y-67342905D01*
X122083171Y-67121095D01*
X122073116Y-67107991D01*
X121892009Y-66926884D01*
X121878905Y-66916829D01*
X121657095Y-66788767D01*
X121641835Y-66782446D01*
X121394438Y-66716156D01*
X121378062Y-66714000D01*
X121121938Y-66714000D01*
X121105562Y-66716156D01*
X120858165Y-66782446D01*
X120842905Y-66788767D01*
X120621095Y-66916829D01*
X120607991Y-66926884D01*
X120545876Y-66989000D01*
X115694821Y-66989000D01*
X115694809Y-66989001D01*
X115639509Y-66989001D01*
X115619921Y-66992104D01*
X115571806Y-67007737D01*
X115521823Y-67015653D01*
X115502960Y-67021782D01*
X115457871Y-67044757D01*
X115409756Y-67060390D01*
X115392084Y-67069394D01*
X115351150Y-67099134D01*
X115306065Y-67122107D01*
X115290020Y-67133764D01*
X115133593Y-67290191D01*
X115133588Y-67290198D01*
X114540197Y-67883589D01*
X114540190Y-67883594D01*
X114383763Y-68040022D01*
X114372106Y-68056067D01*
X114349138Y-68101145D01*
X114319394Y-68142083D01*
X114310390Y-68159755D01*
X114294753Y-68207880D01*
X114271782Y-68252963D01*
X114265653Y-68271824D01*
X114257736Y-68321809D01*
X114242103Y-68369923D01*
X114239001Y-68389511D01*
X114239001Y-68444810D01*
X114239000Y-68444822D01*
X114239001Y-69795875D01*
X114176884Y-69857991D01*
X114166829Y-69871095D01*
X114038767Y-70092905D01*
X114032446Y-70108165D01*
X113966156Y-70355562D01*
X113964000Y-70371938D01*
X113964000Y-70628062D01*
X113966156Y-70644438D01*
X114032446Y-70891835D01*
X114038767Y-70907095D01*
X114166829Y-71128905D01*
X114176884Y-71142009D01*
X114357991Y-71323116D01*
X114371095Y-71333171D01*
X114592905Y-71461233D01*
X114608165Y-71467554D01*
X114759802Y-71508185D01*
X114770662Y-72314903D01*
X114682094Y-72263768D01*
X114666834Y-72257447D01*
X114419437Y-72191157D01*
X114403061Y-72189001D01*
X114146937Y-72189001D01*
X114130561Y-72191157D01*
X113883164Y-72257447D01*
X113867904Y-72263768D01*
X113646094Y-72391830D01*
X113632990Y-72401885D01*
X113451883Y-72582992D01*
X113441828Y-72596096D01*
X113313766Y-72817906D01*
X113307445Y-72833166D01*
X113241155Y-73080563D01*
X113238999Y-73096939D01*
X108634000Y-73096939D01*
X108634000Y-59834000D01*
X110507785Y-59834000D01*
X112239001Y-61565218D01*
X112239000Y-62045876D01*
X112176884Y-62107991D01*
X112166829Y-62121095D01*
X112038767Y-62342905D01*
X112032446Y-62358165D01*
X111966156Y-62605562D01*
X111964000Y-62621938D01*
X111964000Y-62878062D01*
X111966156Y-62894438D01*
X112032446Y-63141835D01*
X112038767Y-63157095D01*
X112166829Y-63378905D01*
X112176884Y-63392009D01*
X112357991Y-63573116D01*
X112371095Y-63583171D01*
X112592905Y-63711233D01*
X112608165Y-63717554D01*
X112855562Y-63783844D01*
X112871938Y-63786000D01*
X113128062Y-63786000D01*
X113144438Y-63783844D01*
X113391835Y-63717554D01*
X113407095Y-63711233D01*
X113628905Y-63583171D01*
X113642009Y-63573116D01*
X113823116Y-63392009D01*
X113833171Y-63378905D01*
X113961233Y-63157095D01*
X113967554Y-63141835D01*
X114033844Y-62894438D01*
X114036000Y-62878062D01*
X114036000Y-62621938D01*
X114033844Y-62605562D01*
X113967554Y-62358165D01*
X113961233Y-62342905D01*
X113833171Y-62121095D01*
X113823116Y-62107991D01*
X113761000Y-62045876D01*
X113761000Y-61194821D01*
X113760999Y-61194809D01*
X113760999Y-61139510D01*
X113757897Y-61119922D01*
X113742264Y-61071808D01*
X113734347Y-61021823D01*
X113728218Y-61002962D01*
X113705248Y-60957879D01*
X113689611Y-60909755D01*
X113680607Y-60892084D01*
X113650863Y-60851145D01*
X113627893Y-60806065D01*
X113616236Y-60790020D01*
X113576620Y-60750405D01*
X113576607Y-60750390D01*
X111634000Y-58807786D01*
X111634000Y-58034000D01*
X120366000Y-58034000D01*
X120366000Y-59206756D01*
G37*
D16*
X120366000Y-59206756D02*
X120367444Y-59220186D01*
X120417183Y-59448834D01*
X120425813Y-59469668D01*
X120514953Y-59608373D01*
X120526756Y-59621994D01*
X120649652Y-59728485D01*
X120664815Y-59738229D01*
X120812735Y-59805781D01*
X120830028Y-59810859D01*
X120986522Y-59833360D01*
X120995500Y-59834002D01*
X123366000Y-59834002D01*
X123366001Y-87922261D01*
X123365991Y-87922301D01*
X123364415Y-87931523D01*
X123363359Y-87942611D01*
X123363324Y-87942989D01*
X123348624Y-88107708D01*
X123320088Y-88212012D01*
X123273534Y-88309617D01*
X123210431Y-88397434D01*
X123132775Y-88472687D01*
X123043016Y-88533003D01*
X122944005Y-88576466D01*
X122833940Y-88602890D01*
X122698712Y-88612821D01*
X122689840Y-88614111D01*
X122681213Y-88616000D01*
X109327735Y-88616000D01*
X109327699Y-88615991D01*
X109318477Y-88614415D01*
X109307389Y-88613359D01*
X109307011Y-88613324D01*
X109142292Y-88598624D01*
X109037988Y-88570088D01*
X108940383Y-88523534D01*
X108852566Y-88460431D01*
X108777313Y-88382775D01*
X108716997Y-88293016D01*
X108673534Y-88194005D01*
X108647110Y-88083940D01*
X108637179Y-87948712D01*
X108635889Y-87939840D01*
X108634000Y-87931213D01*
X108634000Y-87447808D01*
X111508163Y-87447808D01*
X111508163Y-87858258D01*
X111510319Y-87874634D01*
X111585137Y-88153859D01*
X111597880Y-88178339D01*
X111728990Y-88334590D01*
X111745879Y-88348761D01*
X111920120Y-88449359D01*
X111940837Y-88456900D01*
X112133538Y-88490878D01*
X112144499Y-88491837D01*
X112552191Y-88491837D01*
X112626000Y-88418028D01*
X112626000Y-87447809D01*
X113373999Y-87447809D01*
X113373999Y-88418028D01*
X113447808Y-88491837D01*
X113858258Y-88491837D01*
X113874634Y-88489681D01*
X114153859Y-88414863D01*
X114178339Y-88402120D01*
X114334590Y-88271010D01*
X114348761Y-88254121D01*
X114449359Y-88079880D01*
X114456900Y-88059163D01*
X114490878Y-87866462D01*
X114491837Y-87855501D01*
X114491837Y-87447809D01*
X114418028Y-87374000D01*
X113447808Y-87374000D01*
X113373999Y-87447809D01*
X112626000Y-87447809D01*
X112626000Y-87447808D01*
X112552191Y-87373999D01*
X111581972Y-87373999D01*
X111508163Y-87447808D01*
X108634000Y-87447808D01*
X108634000Y-86144499D01*
X111508163Y-86144499D01*
X111508163Y-86552191D01*
X111581972Y-86626000D01*
X112552192Y-86626000D01*
X112626001Y-86552191D01*
X112626001Y-85805809D01*
X112626000Y-85805808D01*
X112626000Y-84907809D01*
X113373999Y-84907809D01*
X113373999Y-85654191D01*
X113374000Y-85654192D01*
X113374000Y-86552192D01*
X113447809Y-86626001D01*
X114418028Y-86626001D01*
X114491837Y-86552192D01*
X114491837Y-86141742D01*
X114489681Y-86125366D01*
X114414863Y-85846142D01*
X114402120Y-85821662D01*
X114271010Y-85665410D01*
X114254121Y-85651239D01*
X114079880Y-85550641D01*
X114059163Y-85543100D01*
X114024325Y-85536957D01*
X114053645Y-85512004D01*
X114061158Y-85504424D01*
X114215833Y-85319435D01*
X114221962Y-85310698D01*
X114343256Y-85102294D01*
X114347825Y-85092649D01*
X114404016Y-84942361D01*
X114328843Y-84834000D01*
X113447808Y-84834000D01*
X113373999Y-84907809D01*
X112626000Y-84907809D01*
X112626000Y-84907808D01*
X112552191Y-84833999D01*
X111668174Y-84833999D01*
X111593587Y-84948197D01*
X111689591Y-85166900D01*
X111694692Y-85176275D01*
X111827430Y-85377584D01*
X111834038Y-85385965D01*
X111985481Y-85547801D01*
X111846142Y-85585137D01*
X111821662Y-85597880D01*
X111665410Y-85728990D01*
X111651239Y-85745879D01*
X111550641Y-85920120D01*
X111543100Y-85940837D01*
X111509122Y-86133538D01*
X111508163Y-86144499D01*
X108634000Y-86144499D01*
X108634000Y-76831043D01*
X111511109Y-76831043D01*
X111529188Y-77071497D01*
X111530885Y-77082034D01*
X111589221Y-77316005D01*
X111592669Y-77326104D01*
X111689591Y-77546900D01*
X111694692Y-77556275D01*
X111827430Y-77757584D01*
X111834038Y-77765965D01*
X111998798Y-77942032D01*
X112006722Y-77949180D01*
X112198792Y-78094968D01*
X112207808Y-78100679D01*
X112224166Y-78109194D01*
X112223032Y-78109882D01*
X112028199Y-78251957D01*
X112020138Y-78258952D01*
X111852029Y-78431822D01*
X111845263Y-78440074D01*
X111708683Y-78638798D01*
X111703403Y-78648073D01*
X111602260Y-78866968D01*
X111598618Y-78877000D01*
X111535802Y-79109807D01*
X111533903Y-79120309D01*
X111511211Y-79360372D01*
X111511109Y-79371043D01*
X111529188Y-79611497D01*
X111530885Y-79622034D01*
X111589221Y-79856005D01*
X111592669Y-79866104D01*
X111689591Y-80086900D01*
X111694692Y-80096275D01*
X111827430Y-80297584D01*
X111834038Y-80305965D01*
X111998798Y-80482032D01*
X112006722Y-80489180D01*
X112198792Y-80634968D01*
X112207808Y-80640679D01*
X112224166Y-80649194D01*
X112223032Y-80649882D01*
X112028199Y-80791957D01*
X112020138Y-80798952D01*
X111852029Y-80971822D01*
X111845263Y-80980074D01*
X111708683Y-81178798D01*
X111703403Y-81188073D01*
X111602260Y-81406968D01*
X111598618Y-81417000D01*
X111535802Y-81649807D01*
X111533903Y-81660309D01*
X111511211Y-81900372D01*
X111511109Y-81911043D01*
X111529188Y-82151497D01*
X111530885Y-82162034D01*
X111589221Y-82396005D01*
X111592669Y-82406104D01*
X111689591Y-82626900D01*
X111694692Y-82636275D01*
X111827430Y-82837584D01*
X111834038Y-82845965D01*
X111998798Y-83022032D01*
X112006722Y-83029180D01*
X112198792Y-83174968D01*
X112207808Y-83180679D01*
X112224166Y-83189194D01*
X112223032Y-83189882D01*
X112028199Y-83331957D01*
X112020138Y-83338952D01*
X111852029Y-83511822D01*
X111845263Y-83520074D01*
X111708683Y-83718798D01*
X111703403Y-83728073D01*
X111591724Y-83969770D01*
X111666056Y-84086000D01*
X112500001Y-84086000D01*
X114328871Y-84086001D01*
X114404192Y-83979622D01*
X114359723Y-83853343D01*
X114355339Y-83843612D01*
X114238067Y-83632916D01*
X114232107Y-83624064D01*
X114081013Y-83436140D01*
X114073647Y-83428417D01*
X113893049Y-83268638D01*
X113884486Y-83262267D01*
X113767888Y-83189973D01*
X113861330Y-83134491D01*
X113870012Y-83128286D01*
X114053645Y-82972004D01*
X114061158Y-82964424D01*
X114215833Y-82779435D01*
X114221962Y-82770698D01*
X114343256Y-82562294D01*
X114347825Y-82552650D01*
X114432272Y-82326787D01*
X114435151Y-82316511D01*
X114480392Y-82079351D01*
X114481507Y-82068128D01*
X114484077Y-81800341D01*
X114483178Y-81789099D01*
X114442499Y-81551114D01*
X114439817Y-81540784D01*
X114359723Y-81313343D01*
X114355339Y-81303612D01*
X114238067Y-81092916D01*
X114232107Y-81084064D01*
X114081013Y-80896140D01*
X114073647Y-80888417D01*
X113893049Y-80728638D01*
X113884486Y-80722267D01*
X113767888Y-80649973D01*
X113770675Y-80648318D01*
X120374000Y-80648318D01*
X120374000Y-87502700D01*
X120447809Y-87576509D01*
X122052191Y-87576509D01*
X122126000Y-87502700D01*
X122126000Y-80648318D01*
X122052191Y-80574509D01*
X120447809Y-80574509D01*
X120374000Y-80648318D01*
X113770675Y-80648318D01*
X113861330Y-80594491D01*
X113870012Y-80588286D01*
X114053645Y-80432004D01*
X114061158Y-80424424D01*
X114215833Y-80239435D01*
X114221962Y-80230698D01*
X114343256Y-80022294D01*
X114347825Y-80012650D01*
X114432272Y-79786787D01*
X114435151Y-79776511D01*
X114480392Y-79539351D01*
X114481507Y-79528128D01*
X114484077Y-79260341D01*
X114483178Y-79249099D01*
X114442499Y-79011114D01*
X114439817Y-79000784D01*
X114359723Y-78773343D01*
X114355339Y-78763612D01*
X114238067Y-78552916D01*
X114232107Y-78544064D01*
X114081013Y-78356140D01*
X114073647Y-78348417D01*
X113893049Y-78188638D01*
X113884486Y-78182267D01*
X113767888Y-78109973D01*
X113861330Y-78054491D01*
X113870012Y-78048286D01*
X114053645Y-77892004D01*
X114061158Y-77884424D01*
X114215833Y-77699435D01*
X114221962Y-77690698D01*
X114343256Y-77482294D01*
X114347825Y-77472650D01*
X114432272Y-77246787D01*
X114435151Y-77236511D01*
X114480392Y-76999351D01*
X114481507Y-76988128D01*
X114484077Y-76720341D01*
X114483178Y-76709099D01*
X114442499Y-76471114D01*
X114439817Y-76460784D01*
X114359723Y-76233343D01*
X114355339Y-76223612D01*
X114238067Y-76012916D01*
X114232107Y-76004064D01*
X114081013Y-75816140D01*
X114073647Y-75808417D01*
X113893049Y-75648638D01*
X113884486Y-75642267D01*
X113679549Y-75515202D01*
X113670036Y-75510365D01*
X113446619Y-75419645D01*
X113436427Y-75416480D01*
X113200919Y-75364700D01*
X113190340Y-75363298D01*
X112949475Y-75351939D01*
X112938809Y-75352339D01*
X112699474Y-75381727D01*
X112689030Y-75383918D01*
X112458068Y-75453210D01*
X112448142Y-75457130D01*
X112232155Y-75564346D01*
X112223032Y-75569882D01*
X112028199Y-75711957D01*
X112020138Y-75718952D01*
X111852029Y-75891822D01*
X111845263Y-75900074D01*
X111708683Y-76098798D01*
X111703403Y-76108073D01*
X111602260Y-76326968D01*
X111598618Y-76337000D01*
X111535802Y-76569807D01*
X111533903Y-76580309D01*
X111511211Y-76820372D01*
X111511109Y-76831043D01*
X108634000Y-76831043D01*
X108634000Y-73096939D01*
X113238999Y-73096939D01*
X113238999Y-73353063D01*
X113241155Y-73369439D01*
X113307445Y-73616836D01*
X113313766Y-73632096D01*
X113441828Y-73853906D01*
X113451883Y-73867010D01*
X113632990Y-74048117D01*
X113646094Y-74058172D01*
X113867904Y-74186234D01*
X113883164Y-74192555D01*
X114130561Y-74258845D01*
X114146937Y-74261001D01*
X114234784Y-74261001D01*
X114590018Y-74616236D01*
X114606064Y-74627894D01*
X114651146Y-74650865D01*
X114692081Y-74680606D01*
X114709753Y-74689610D01*
X114757869Y-74705243D01*
X114802958Y-74728218D01*
X114821821Y-74734347D01*
X114871804Y-74742263D01*
X114919919Y-74757896D01*
X114939507Y-74760999D01*
X114994807Y-74760999D01*
X114994819Y-74761000D01*
X118084003Y-74761000D01*
X118713201Y-75390199D01*
X118713201Y-75478045D01*
X118715357Y-75494421D01*
X118781647Y-75741818D01*
X118787968Y-75757078D01*
X118916030Y-75978888D01*
X118926085Y-75991992D01*
X119107192Y-76173099D01*
X119120296Y-76183154D01*
X119342106Y-76311216D01*
X119357366Y-76317537D01*
X119604763Y-76383827D01*
X119621139Y-76385983D01*
X119877263Y-76385983D01*
X119893639Y-76383827D01*
X120141036Y-76317537D01*
X120156296Y-76311216D01*
X120378106Y-76183154D01*
X120391210Y-76173099D01*
X120572317Y-75991992D01*
X120582372Y-75978888D01*
X120710434Y-75757078D01*
X120716755Y-75741818D01*
X120783045Y-75494421D01*
X120785201Y-75478045D01*
X120785201Y-75314507D01*
X120910234Y-75233472D01*
X120923809Y-75221617D01*
X121029826Y-75098313D01*
X121039512Y-75083113D01*
X121106495Y-74934933D01*
X121111506Y-74917621D01*
X121133405Y-74761041D01*
X121134012Y-74752061D01*
X121111060Y-68784568D01*
X121121937Y-68786000D01*
X121378062Y-68786000D01*
X121394438Y-68783844D01*
X121641835Y-68717554D01*
X121657095Y-68711233D01*
X121878905Y-68583171D01*
X121892009Y-68573116D01*
X122073116Y-68392009D01*
X122083171Y-68378905D01*
X122211233Y-68157095D01*
X122217554Y-68141835D01*
X122283844Y-67894438D01*
X122286000Y-67878062D01*
X122286000Y-67621938D01*
X122283844Y-67605562D01*
X122217554Y-67358165D01*
X122211233Y-67342905D01*
X122083171Y-67121095D01*
X122073116Y-67107991D01*
X121892009Y-66926884D01*
X121878905Y-66916829D01*
X121657095Y-66788767D01*
X121641835Y-66782446D01*
X121394438Y-66716156D01*
X121378062Y-66714000D01*
X121121938Y-66714000D01*
X121105562Y-66716156D01*
X120858165Y-66782446D01*
X120842905Y-66788767D01*
X120621095Y-66916829D01*
X120607991Y-66926884D01*
X120545876Y-66989000D01*
X115694821Y-66989000D01*
X115694809Y-66989001D01*
X115639509Y-66989001D01*
X115619921Y-66992104D01*
X115571806Y-67007737D01*
X115521823Y-67015653D01*
X115502960Y-67021782D01*
X115457871Y-67044757D01*
X115409756Y-67060390D01*
X115392084Y-67069394D01*
X115351150Y-67099134D01*
X115306065Y-67122107D01*
X115290020Y-67133764D01*
X115133593Y-67290191D01*
X115133588Y-67290198D01*
X114540197Y-67883589D01*
X114540190Y-67883594D01*
X114383763Y-68040022D01*
X114372106Y-68056067D01*
X114349138Y-68101145D01*
X114319394Y-68142083D01*
X114310390Y-68159755D01*
X114294753Y-68207880D01*
X114271782Y-68252963D01*
X114265653Y-68271824D01*
X114257736Y-68321809D01*
X114242103Y-68369923D01*
X114239001Y-68389511D01*
X114239001Y-68444810D01*
X114239000Y-68444822D01*
X114239001Y-69795875D01*
X114176884Y-69857991D01*
X114166829Y-69871095D01*
X114038767Y-70092905D01*
X114032446Y-70108165D01*
X113966156Y-70355562D01*
X113964000Y-70371938D01*
X113964000Y-70628062D01*
X113966156Y-70644438D01*
X114032446Y-70891835D01*
X114038767Y-70907095D01*
X114166829Y-71128905D01*
X114176884Y-71142009D01*
X114357991Y-71323116D01*
X114371095Y-71333171D01*
X114592905Y-71461233D01*
X114608165Y-71467554D01*
X114759802Y-71508185D01*
X114770662Y-72314903D01*
X114682094Y-72263768D01*
X114666834Y-72257447D01*
X114419437Y-72191157D01*
X114403061Y-72189001D01*
X114146937Y-72189001D01*
X114130561Y-72191157D01*
X113883164Y-72257447D01*
X113867904Y-72263768D01*
X113646094Y-72391830D01*
X113632990Y-72401885D01*
X113451883Y-72582992D01*
X113441828Y-72596096D01*
X113313766Y-72817906D01*
X113307445Y-72833166D01*
X113241155Y-73080563D01*
X113238999Y-73096939D01*
X108634000Y-73096939D01*
X108634000Y-59834000D01*
X110507785Y-59834000D01*
X112239001Y-61565218D01*
X112239000Y-62045876D01*
X112176884Y-62107991D01*
X112166829Y-62121095D01*
X112038767Y-62342905D01*
X112032446Y-62358165D01*
X111966156Y-62605562D01*
X111964000Y-62621938D01*
X111964000Y-62878062D01*
X111966156Y-62894438D01*
X112032446Y-63141835D01*
X112038767Y-63157095D01*
X112166829Y-63378905D01*
X112176884Y-63392009D01*
X112357991Y-63573116D01*
X112371095Y-63583171D01*
X112592905Y-63711233D01*
X112608165Y-63717554D01*
X112855562Y-63783844D01*
X112871938Y-63786000D01*
X113128062Y-63786000D01*
X113144438Y-63783844D01*
X113391835Y-63717554D01*
X113407095Y-63711233D01*
X113628905Y-63583171D01*
X113642009Y-63573116D01*
X113823116Y-63392009D01*
X113833171Y-63378905D01*
X113961233Y-63157095D01*
X113967554Y-63141835D01*
X114033844Y-62894438D01*
X114036000Y-62878062D01*
X114036000Y-62621938D01*
X114033844Y-62605562D01*
X113967554Y-62358165D01*
X113961233Y-62342905D01*
X113833171Y-62121095D01*
X113823116Y-62107991D01*
X113761000Y-62045876D01*
X113761000Y-61194821D01*
X113760999Y-61194809D01*
X113760999Y-61139510D01*
X113757897Y-61119922D01*
X113742264Y-61071808D01*
X113734347Y-61021823D01*
X113728218Y-61002962D01*
X113705248Y-60957879D01*
X113689611Y-60909755D01*
X113680607Y-60892084D01*
X113650863Y-60851145D01*
X113627893Y-60806065D01*
X113616236Y-60790020D01*
X113576620Y-60750405D01*
X113576607Y-60750390D01*
X111634000Y-58807786D01*
X111634000Y-58034000D01*
X120366000Y-58034000D01*
X120366000Y-59206756D01*
%TO.N,Net-(U2-Pad9)*%
G36*
X120373091Y-74513917D02*
G01*
X120156296Y-74388750D01*
X120141036Y-74382429D01*
X119893639Y-74316139D01*
X119877263Y-74313983D01*
X119789417Y-74313983D01*
X119015628Y-73540195D01*
X119015625Y-73540191D01*
X118859198Y-73383764D01*
X118843152Y-73372106D01*
X118798065Y-73349133D01*
X118757134Y-73319394D01*
X118739462Y-73310389D01*
X118691344Y-73294755D01*
X118646257Y-73271782D01*
X118627394Y-73265653D01*
X118577411Y-73257737D01*
X118529296Y-73242103D01*
X118509707Y-73239001D01*
X118454409Y-73239001D01*
X118454397Y-73239000D01*
X115543172Y-73239000D01*
X115518375Y-71396985D01*
X115628905Y-71333171D01*
X115642009Y-71323116D01*
X115823116Y-71142009D01*
X115833171Y-71128905D01*
X115961233Y-70907095D01*
X115967554Y-70891835D01*
X116033844Y-70644438D01*
X116036000Y-70628062D01*
X116036000Y-70371938D01*
X116033844Y-70355562D01*
X115967554Y-70108165D01*
X115961233Y-70092905D01*
X115833171Y-69871095D01*
X115823116Y-69857991D01*
X115761000Y-69795876D01*
X115761000Y-68815214D01*
X116065214Y-68511000D01*
X120350003Y-68511000D01*
X120373091Y-74513917D01*
G37*
X120373091Y-74513917D02*
X120156296Y-74388750D01*
X120141036Y-74382429D01*
X119893639Y-74316139D01*
X119877263Y-74313983D01*
X119789417Y-74313983D01*
X119015628Y-73540195D01*
X119015625Y-73540191D01*
X118859198Y-73383764D01*
X118843152Y-73372106D01*
X118798065Y-73349133D01*
X118757134Y-73319394D01*
X118739462Y-73310389D01*
X118691344Y-73294755D01*
X118646257Y-73271782D01*
X118627394Y-73265653D01*
X118577411Y-73257737D01*
X118529296Y-73242103D01*
X118509707Y-73239001D01*
X118454409Y-73239001D01*
X118454397Y-73239000D01*
X115543172Y-73239000D01*
X115518375Y-71396985D01*
X115628905Y-71333171D01*
X115642009Y-71323116D01*
X115823116Y-71142009D01*
X115833171Y-71128905D01*
X115961233Y-70907095D01*
X115967554Y-70891835D01*
X116033844Y-70644438D01*
X116036000Y-70628062D01*
X116036000Y-70371938D01*
X116033844Y-70355562D01*
X115967554Y-70108165D01*
X115961233Y-70092905D01*
X115833171Y-69871095D01*
X115823116Y-69857991D01*
X115761000Y-69795876D01*
X115761000Y-68815214D01*
X116065214Y-68511000D01*
X120350003Y-68511000D01*
X120373091Y-74513917D01*
%TO.N,Net-(J1-Pad3)*%
G36*
X115474000Y-53020573D02*
G01*
X115441675Y-53026040D01*
X115432806Y-53028210D01*
X115161732Y-53115764D01*
X115153270Y-53119192D01*
X114897672Y-53244961D01*
X114889793Y-53249574D01*
X114655029Y-53410923D01*
X114647899Y-53416625D01*
X114438887Y-53610174D01*
X114432654Y-53616846D01*
X114253770Y-53838538D01*
X114248565Y-53846041D01*
X114103559Y-54091235D01*
X114099492Y-54099410D01*
X113991398Y-54362968D01*
X113988554Y-54371644D01*
X113919639Y-54648046D01*
X113918077Y-54657042D01*
X113889785Y-54940497D01*
X113889538Y-54949624D01*
X113902460Y-55234194D01*
X113903533Y-55243261D01*
X113957399Y-55522986D01*
X113959770Y-55531803D01*
X114053453Y-55800822D01*
X114057072Y-55809204D01*
X114188606Y-56061881D01*
X114193397Y-56069654D01*
X114360030Y-56300696D01*
X114365893Y-56307696D01*
X114564134Y-56512264D01*
X114570946Y-56518343D01*
X114796641Y-56692152D01*
X114804259Y-56697185D01*
X115052679Y-56836592D01*
X115060944Y-56840472D01*
X115326887Y-56942558D01*
X115335625Y-56945205D01*
X115474000Y-56976389D01*
X115474000Y-57274000D01*
X110947809Y-57274000D01*
X110874000Y-57347809D01*
X110874000Y-59074000D01*
X108526000Y-59074000D01*
X108526000Y-51815050D01*
X108526793Y-51811893D01*
X108528444Y-51802131D01*
X108544426Y-51623048D01*
X108578059Y-51500107D01*
X108632932Y-51385062D01*
X108707303Y-51281565D01*
X108798841Y-51192859D01*
X108904628Y-51121773D01*
X109021331Y-51070544D01*
X109149362Y-51039806D01*
X109293827Y-51029197D01*
X109303613Y-51027700D01*
X109310861Y-51026000D01*
X115474000Y-51026000D01*
X115474000Y-53020573D01*
G37*
X115474000Y-53020573D02*
X115441675Y-53026040D01*
X115432806Y-53028210D01*
X115161732Y-53115764D01*
X115153270Y-53119192D01*
X114897672Y-53244961D01*
X114889793Y-53249574D01*
X114655029Y-53410923D01*
X114647899Y-53416625D01*
X114438887Y-53610174D01*
X114432654Y-53616846D01*
X114253770Y-53838538D01*
X114248565Y-53846041D01*
X114103559Y-54091235D01*
X114099492Y-54099410D01*
X113991398Y-54362968D01*
X113988554Y-54371644D01*
X113919639Y-54648046D01*
X113918077Y-54657042D01*
X113889785Y-54940497D01*
X113889538Y-54949624D01*
X113902460Y-55234194D01*
X113903533Y-55243261D01*
X113957399Y-55522986D01*
X113959770Y-55531803D01*
X114053453Y-55800822D01*
X114057072Y-55809204D01*
X114188606Y-56061881D01*
X114193397Y-56069654D01*
X114360030Y-56300696D01*
X114365893Y-56307696D01*
X114564134Y-56512264D01*
X114570946Y-56518343D01*
X114796641Y-56692152D01*
X114804259Y-56697185D01*
X115052679Y-56836592D01*
X115060944Y-56840472D01*
X115326887Y-56942558D01*
X115335625Y-56945205D01*
X115474000Y-56976389D01*
X115474000Y-57274000D01*
X110947809Y-57274000D01*
X110874000Y-57347809D01*
X110874000Y-59074000D01*
X108526000Y-59074000D01*
X108526000Y-51815050D01*
X108526793Y-51811893D01*
X108528444Y-51802131D01*
X108544426Y-51623048D01*
X108578059Y-51500107D01*
X108632932Y-51385062D01*
X108707303Y-51281565D01*
X108798841Y-51192859D01*
X108904628Y-51121773D01*
X109021331Y-51070544D01*
X109149362Y-51039806D01*
X109293827Y-51029197D01*
X109303613Y-51027700D01*
X109310861Y-51026000D01*
X115474000Y-51026000D01*
X115474000Y-53020573D01*
%TO.N,Net-(J1-Pad1)*%
G36*
X122688107Y-51026793D02*
G01*
X122697869Y-51028444D01*
X122876952Y-51044426D01*
X122999893Y-51078059D01*
X123114938Y-51132932D01*
X123218435Y-51207303D01*
X123307141Y-51298841D01*
X123378227Y-51404628D01*
X123429456Y-51521331D01*
X123460194Y-51649362D01*
X123470803Y-51793827D01*
X123472300Y-51803613D01*
X123474000Y-51810861D01*
X123474000Y-59074002D01*
X121126000Y-59074002D01*
X121126000Y-57347809D01*
X121052191Y-57274000D01*
X116126000Y-57274000D01*
X116126000Y-57016746D01*
X116199907Y-57011708D01*
X116208947Y-57010429D01*
X116487378Y-56950230D01*
X116496139Y-56947659D01*
X116762962Y-56847899D01*
X116771261Y-56844091D01*
X117020889Y-56706856D01*
X117028550Y-56701890D01*
X117255753Y-56530058D01*
X117262618Y-56524038D01*
X117462636Y-56321208D01*
X117468559Y-56314260D01*
X117637203Y-56084681D01*
X117642061Y-56076950D01*
X117775797Y-55825431D01*
X117779488Y-55817080D01*
X117875514Y-55548889D01*
X117877962Y-55540093D01*
X117934436Y-55260012D01*
X117935658Y-55249244D01*
X117946187Y-54860124D01*
X117945549Y-54849306D01*
X117904304Y-54566582D01*
X117902336Y-54557666D01*
X117820953Y-54284675D01*
X117817719Y-54276138D01*
X117697782Y-54017753D01*
X117693348Y-54009771D01*
X117537367Y-53771407D01*
X117531827Y-53764149D01*
X117343072Y-53550799D01*
X117336543Y-53544416D01*
X117118965Y-53360549D01*
X117111583Y-53355176D01*
X116869742Y-53204643D01*
X116861661Y-53200392D01*
X116600623Y-53086347D01*
X116592013Y-53083306D01*
X116317245Y-53008139D01*
X116308288Y-53006374D01*
X116126000Y-52983991D01*
X116126000Y-51026000D01*
X122684950Y-51026000D01*
X122688107Y-51026793D01*
G37*
X122688107Y-51026793D02*
X122697869Y-51028444D01*
X122876952Y-51044426D01*
X122999893Y-51078059D01*
X123114938Y-51132932D01*
X123218435Y-51207303D01*
X123307141Y-51298841D01*
X123378227Y-51404628D01*
X123429456Y-51521331D01*
X123460194Y-51649362D01*
X123470803Y-51793827D01*
X123472300Y-51803613D01*
X123474000Y-51810861D01*
X123474000Y-59074002D01*
X121126000Y-59074002D01*
X121126000Y-57347809D01*
X121052191Y-57274000D01*
X116126000Y-57274000D01*
X116126000Y-57016746D01*
X116199907Y-57011708D01*
X116208947Y-57010429D01*
X116487378Y-56950230D01*
X116496139Y-56947659D01*
X116762962Y-56847899D01*
X116771261Y-56844091D01*
X117020889Y-56706856D01*
X117028550Y-56701890D01*
X117255753Y-56530058D01*
X117262618Y-56524038D01*
X117462636Y-56321208D01*
X117468559Y-56314260D01*
X117637203Y-56084681D01*
X117642061Y-56076950D01*
X117775797Y-55825431D01*
X117779488Y-55817080D01*
X117875514Y-55548889D01*
X117877962Y-55540093D01*
X117934436Y-55260012D01*
X117935658Y-55249244D01*
X117946187Y-54860124D01*
X117945549Y-54849306D01*
X117904304Y-54566582D01*
X117902336Y-54557666D01*
X117820953Y-54284675D01*
X117817719Y-54276138D01*
X117697782Y-54017753D01*
X117693348Y-54009771D01*
X117537367Y-53771407D01*
X117531827Y-53764149D01*
X117343072Y-53550799D01*
X117336543Y-53544416D01*
X117118965Y-53360549D01*
X117111583Y-53355176D01*
X116869742Y-53204643D01*
X116861661Y-53200392D01*
X116600623Y-53086347D01*
X116592013Y-53083306D01*
X116317245Y-53008139D01*
X116308288Y-53006374D01*
X116126000Y-52983991D01*
X116126000Y-51026000D01*
X122684950Y-51026000D01*
X122688107Y-51026793D01*
%TD*%
M02*
