%TF.GenerationSoftware,KiCad,Pcbnew,5.99.0-unknown-1463dd1~101~ubuntu20.04.1*%
%TF.CreationDate,2020-07-07T22:40:52-04:00*%
%TF.ProjectId,QFPbreakout,51465062-7265-4616-9b6f-75742e6b6963,rev?*%
%TF.SameCoordinates,Original*%
%TF.FileFunction,Soldermask,Bot*%
%TF.FilePolarity,Negative*%
%FSLAX46Y46*%
G04 Gerber Fmt 4.6, Leading zero omitted, Abs format (unit mm)*
G04 Created by KiCad (PCBNEW 5.99.0-unknown-1463dd1~101~ubuntu20.04.1) date 2020-07-07 22:40:52*
%MOMM*%
%LPD*%
G01*
G04 APERTURE LIST*
%ADD10C,1.600000*%
%ADD11O,1.600000X0.900000*%
%ADD12O,0.900000X1.600000*%
%ADD13O,1.700000X1.700000*%
%ADD14R,1.700000X1.700000*%
G04 APERTURE END LIST*
D10*
%TO.C,U1*%
X87000000Y-113000000D03*
X113000000Y-87000000D03*
X87000000Y-87000000D03*
X113000000Y-113000000D03*
D11*
X90300000Y-99500000D03*
X90300000Y-96500000D03*
X88300000Y-101500000D03*
X88300000Y-98500000D03*
X88300000Y-103000000D03*
X92300000Y-94500000D03*
X90300000Y-102500000D03*
X90300000Y-104000000D03*
X88300000Y-94000000D03*
X92300000Y-96000000D03*
X92300000Y-99000000D03*
X88300000Y-95500000D03*
X92300000Y-97500000D03*
X88300000Y-100000000D03*
X92300000Y-103500000D03*
X92300000Y-102000000D03*
X88300000Y-106000000D03*
X88300000Y-97000000D03*
X90300000Y-105500000D03*
X90300000Y-95000000D03*
X90300000Y-98000000D03*
X88300000Y-104500000D03*
X92300000Y-105000000D03*
X92300000Y-100500000D03*
X90300000Y-101000000D03*
D12*
X99000000Y-90300000D03*
X103500000Y-90300000D03*
X103000000Y-88300000D03*
X100500000Y-90300000D03*
X101000000Y-92300000D03*
X95000000Y-92300000D03*
X104000000Y-92300000D03*
X100000000Y-88300000D03*
X98500000Y-88300000D03*
X105500000Y-92300000D03*
X95500000Y-88300000D03*
X94000000Y-88300000D03*
X97000000Y-88300000D03*
X105000000Y-90300000D03*
X98000000Y-92300000D03*
X102000000Y-90300000D03*
X101500000Y-88300000D03*
X96500000Y-92300000D03*
X104500000Y-88300000D03*
X102500000Y-92300000D03*
X94500000Y-90300000D03*
X99500000Y-92300000D03*
X106000000Y-88300000D03*
X97500000Y-90300000D03*
X96000000Y-90300000D03*
D11*
X109700000Y-94500000D03*
X107700000Y-99500000D03*
X107700000Y-104000000D03*
X109700000Y-97500000D03*
X109700000Y-96000000D03*
X107700000Y-98000000D03*
X107700000Y-95000000D03*
X111700000Y-106000000D03*
X111700000Y-95500000D03*
X109700000Y-105000000D03*
X107700000Y-101000000D03*
X109700000Y-100500000D03*
X109700000Y-102000000D03*
X109700000Y-103500000D03*
X109700000Y-99000000D03*
X111700000Y-104500000D03*
X111700000Y-98500000D03*
X111700000Y-103000000D03*
X111700000Y-94000000D03*
X107700000Y-105500000D03*
X111700000Y-101500000D03*
X107700000Y-96500000D03*
X111700000Y-97000000D03*
X107700000Y-102500000D03*
X111700000Y-100000000D03*
D12*
X100000000Y-111700000D03*
X99500000Y-109700000D03*
X99000000Y-107700000D03*
X98000000Y-109700000D03*
X97500000Y-107700000D03*
X98500000Y-111700000D03*
X95500000Y-111700000D03*
X96500000Y-109700000D03*
X94500000Y-107700000D03*
X96000000Y-107700000D03*
X97000000Y-111700000D03*
X95000000Y-109700000D03*
X94000000Y-111700000D03*
X100500000Y-107700000D03*
X104500000Y-111700000D03*
X103000000Y-111700000D03*
X101500000Y-111700000D03*
X105500000Y-109700000D03*
X103500000Y-107700000D03*
X105000000Y-107700000D03*
X106000000Y-111700000D03*
X102000000Y-107700000D03*
X102500000Y-109700000D03*
X101000000Y-109700000D03*
X104000000Y-109700000D03*
%TD*%
D13*
%TO.C,J1*%
X115240000Y-120320000D03*
X115240000Y-122860000D03*
X112700000Y-120320000D03*
X112700000Y-122860000D03*
X110160000Y-120320000D03*
X110160000Y-122860000D03*
X107620000Y-120320000D03*
X107620000Y-122860000D03*
X105080000Y-120320000D03*
X105080000Y-122860000D03*
X102540000Y-120320000D03*
X102540000Y-122860000D03*
X100000000Y-120320000D03*
X100000000Y-122860000D03*
X97460000Y-120320000D03*
X97460000Y-122860000D03*
X94920000Y-120320000D03*
X94920000Y-122860000D03*
X92380000Y-120320000D03*
X92380000Y-122860000D03*
X89840000Y-120320000D03*
X89840000Y-122860000D03*
X87300000Y-120320000D03*
X87300000Y-122860000D03*
X84760000Y-120320000D03*
D14*
X84760000Y-122860000D03*
%TD*%
D13*
%TO.C,J4*%
X79680000Y-115240000D03*
X77140000Y-115240000D03*
X79680000Y-112700000D03*
X77140000Y-112700000D03*
X79680000Y-110160000D03*
X77140000Y-110160000D03*
X79680000Y-107620000D03*
X77140000Y-107620000D03*
X79680000Y-105080000D03*
X77140000Y-105080000D03*
X79680000Y-102540000D03*
X77140000Y-102540000D03*
X79680000Y-100000000D03*
X77140000Y-100000000D03*
X79680000Y-97460000D03*
X77140000Y-97460000D03*
X79680000Y-94920000D03*
X77140000Y-94920000D03*
X79680000Y-92380000D03*
X77140000Y-92380000D03*
X79680000Y-89840000D03*
X77140000Y-89840000D03*
X79680000Y-87300000D03*
X77140000Y-87300000D03*
X79680000Y-84760000D03*
D14*
X77140000Y-84760000D03*
%TD*%
D13*
%TO.C,J3*%
X84760000Y-79680000D03*
X84760000Y-77140000D03*
X87300000Y-79680000D03*
X87300000Y-77140000D03*
X89840000Y-79680000D03*
X89840000Y-77140000D03*
X92380000Y-79680000D03*
X92380000Y-77140000D03*
X94920000Y-79680000D03*
X94920000Y-77140000D03*
X97460000Y-79680000D03*
X97460000Y-77140000D03*
X100000000Y-79680000D03*
X100000000Y-77140000D03*
X102540000Y-79680000D03*
X102540000Y-77140000D03*
X105080000Y-79680000D03*
X105080000Y-77140000D03*
X107620000Y-79680000D03*
X107620000Y-77140000D03*
X110160000Y-79680000D03*
X110160000Y-77140000D03*
X112700000Y-79680000D03*
X112700000Y-77140000D03*
X115240000Y-79680000D03*
D14*
X115240000Y-77140000D03*
%TD*%
D13*
%TO.C,J2*%
X120320000Y-84760000D03*
X122860000Y-84760000D03*
X120320000Y-87300000D03*
X122860000Y-87300000D03*
X120320000Y-89840000D03*
X122860000Y-89840000D03*
X120320000Y-92380000D03*
X122860000Y-92380000D03*
X120320000Y-94920000D03*
X122860000Y-94920000D03*
X120320000Y-97460000D03*
X122860000Y-97460000D03*
X120320000Y-100000000D03*
X122860000Y-100000000D03*
X120320000Y-102540000D03*
X122860000Y-102540000D03*
X120320000Y-105080000D03*
X122860000Y-105080000D03*
X120320000Y-107620000D03*
X122860000Y-107620000D03*
X120320000Y-110160000D03*
X122860000Y-110160000D03*
X120320000Y-112700000D03*
X122860000Y-112700000D03*
X120320000Y-115240000D03*
D14*
X122860000Y-115240000D03*
%TD*%
M02*
