%TF.GenerationSoftware,KiCad,Pcbnew,5.99.0-unknown-1463dd1~101~ubuntu20.04.1*%
%TF.CreationDate,2020-07-07T22:40:51-04:00*%
%TF.ProjectId,QFPbreakout,51465062-7265-4616-9b6f-75742e6b6963,rev?*%
%TF.SameCoordinates,Original*%
%TF.FileFunction,Legend,Top*%
%TF.FilePolarity,Positive*%
%FSLAX46Y46*%
G04 Gerber Fmt 4.6, Leading zero omitted, Abs format (unit mm)*
G04 Created by KiCad (PCBNEW 5.99.0-unknown-1463dd1~101~ubuntu20.04.1) date 2020-07-07 22:40:51*
%MOMM*%
%LPD*%
G01*
G04 APERTURE LIST*
%ADD10C,0.200000*%
%ADD11C,0.150000*%
%ADD12C,0.400000*%
%ADD13C,0.120000*%
G04 APERTURE END LIST*
D10*
X115894095Y-71701428D02*
X115894095Y-71320476D01*
X115513142Y-71282380D01*
X115551238Y-71320476D01*
X115589333Y-71396666D01*
X115589333Y-71587142D01*
X115551238Y-71663333D01*
X115513142Y-71701428D01*
X115436952Y-71739523D01*
X115246476Y-71739523D01*
X115170285Y-71701428D01*
X115132190Y-71663333D01*
X115094095Y-71587142D01*
X115094095Y-71396666D01*
X115132190Y-71320476D01*
X115170285Y-71282380D01*
X115094095Y-72501428D02*
X115094095Y-72044285D01*
X115094095Y-72272857D02*
X115894095Y-72272857D01*
X115779809Y-72196666D01*
X115703619Y-72120476D01*
X115665523Y-72044285D01*
X115894095Y-73834761D02*
X115894095Y-73453809D01*
X115513142Y-73415714D01*
X115551238Y-73453809D01*
X115589333Y-73530000D01*
X115589333Y-73720476D01*
X115551238Y-73796666D01*
X115513142Y-73834761D01*
X115436952Y-73872857D01*
X115246476Y-73872857D01*
X115170285Y-73834761D01*
X115132190Y-73796666D01*
X115094095Y-73720476D01*
X115094095Y-73530000D01*
X115132190Y-73453809D01*
X115170285Y-73415714D01*
X115817904Y-74177619D02*
X115856000Y-74215714D01*
X115894095Y-74291904D01*
X115894095Y-74482380D01*
X115856000Y-74558571D01*
X115817904Y-74596666D01*
X115741714Y-74634761D01*
X115665523Y-74634761D01*
X115551238Y-74596666D01*
X115094095Y-74139523D01*
X115094095Y-74634761D01*
X113318095Y-71701428D02*
X113318095Y-71320476D01*
X112937142Y-71282380D01*
X112975238Y-71320476D01*
X113013333Y-71396666D01*
X113013333Y-71587142D01*
X112975238Y-71663333D01*
X112937142Y-71701428D01*
X112860952Y-71739523D01*
X112670476Y-71739523D01*
X112594285Y-71701428D01*
X112556190Y-71663333D01*
X112518095Y-71587142D01*
X112518095Y-71396666D01*
X112556190Y-71320476D01*
X112594285Y-71282380D01*
X113318095Y-72006190D02*
X113318095Y-72501428D01*
X113013333Y-72234761D01*
X113013333Y-72349047D01*
X112975238Y-72425238D01*
X112937142Y-72463333D01*
X112860952Y-72501428D01*
X112670476Y-72501428D01*
X112594285Y-72463333D01*
X112556190Y-72425238D01*
X112518095Y-72349047D01*
X112518095Y-72120476D01*
X112556190Y-72044285D01*
X112594285Y-72006190D01*
X113318095Y-73834761D02*
X113318095Y-73453809D01*
X112937142Y-73415714D01*
X112975238Y-73453809D01*
X113013333Y-73530000D01*
X113013333Y-73720476D01*
X112975238Y-73796666D01*
X112937142Y-73834761D01*
X112860952Y-73872857D01*
X112670476Y-73872857D01*
X112594285Y-73834761D01*
X112556190Y-73796666D01*
X112518095Y-73720476D01*
X112518095Y-73530000D01*
X112556190Y-73453809D01*
X112594285Y-73415714D01*
X113051428Y-74558571D02*
X112518095Y-74558571D01*
X113356190Y-74368095D02*
X112784761Y-74177619D01*
X112784761Y-74672857D01*
X110742095Y-71701428D02*
X110742095Y-71320476D01*
X110361142Y-71282380D01*
X110399238Y-71320476D01*
X110437333Y-71396666D01*
X110437333Y-71587142D01*
X110399238Y-71663333D01*
X110361142Y-71701428D01*
X110284952Y-71739523D01*
X110094476Y-71739523D01*
X110018285Y-71701428D01*
X109980190Y-71663333D01*
X109942095Y-71587142D01*
X109942095Y-71396666D01*
X109980190Y-71320476D01*
X110018285Y-71282380D01*
X110742095Y-72463333D02*
X110742095Y-72082380D01*
X110361142Y-72044285D01*
X110399238Y-72082380D01*
X110437333Y-72158571D01*
X110437333Y-72349047D01*
X110399238Y-72425238D01*
X110361142Y-72463333D01*
X110284952Y-72501428D01*
X110094476Y-72501428D01*
X110018285Y-72463333D01*
X109980190Y-72425238D01*
X109942095Y-72349047D01*
X109942095Y-72158571D01*
X109980190Y-72082380D01*
X110018285Y-72044285D01*
X110742095Y-73834761D02*
X110742095Y-73453809D01*
X110361142Y-73415714D01*
X110399238Y-73453809D01*
X110437333Y-73530000D01*
X110437333Y-73720476D01*
X110399238Y-73796666D01*
X110361142Y-73834761D01*
X110284952Y-73872857D01*
X110094476Y-73872857D01*
X110018285Y-73834761D01*
X109980190Y-73796666D01*
X109942095Y-73720476D01*
X109942095Y-73530000D01*
X109980190Y-73453809D01*
X110018285Y-73415714D01*
X110742095Y-74558571D02*
X110742095Y-74406190D01*
X110704000Y-74330000D01*
X110665904Y-74291904D01*
X110551619Y-74215714D01*
X110399238Y-74177619D01*
X110094476Y-74177619D01*
X110018285Y-74215714D01*
X109980190Y-74253809D01*
X109942095Y-74330000D01*
X109942095Y-74482380D01*
X109980190Y-74558571D01*
X110018285Y-74596666D01*
X110094476Y-74634761D01*
X110284952Y-74634761D01*
X110361142Y-74596666D01*
X110399238Y-74558571D01*
X110437333Y-74482380D01*
X110437333Y-74330000D01*
X110399238Y-74253809D01*
X110361142Y-74215714D01*
X110284952Y-74177619D01*
X108166095Y-71701428D02*
X108166095Y-71320476D01*
X107785142Y-71282380D01*
X107823238Y-71320476D01*
X107861333Y-71396666D01*
X107861333Y-71587142D01*
X107823238Y-71663333D01*
X107785142Y-71701428D01*
X107708952Y-71739523D01*
X107518476Y-71739523D01*
X107442285Y-71701428D01*
X107404190Y-71663333D01*
X107366095Y-71587142D01*
X107366095Y-71396666D01*
X107404190Y-71320476D01*
X107442285Y-71282380D01*
X108166095Y-72006190D02*
X108166095Y-72539523D01*
X107366095Y-72196666D01*
X108166095Y-73834761D02*
X108166095Y-73453809D01*
X107785142Y-73415714D01*
X107823238Y-73453809D01*
X107861333Y-73530000D01*
X107861333Y-73720476D01*
X107823238Y-73796666D01*
X107785142Y-73834761D01*
X107708952Y-73872857D01*
X107518476Y-73872857D01*
X107442285Y-73834761D01*
X107404190Y-73796666D01*
X107366095Y-73720476D01*
X107366095Y-73530000D01*
X107404190Y-73453809D01*
X107442285Y-73415714D01*
X107823238Y-74330000D02*
X107861333Y-74253809D01*
X107899428Y-74215714D01*
X107975619Y-74177619D01*
X108013714Y-74177619D01*
X108089904Y-74215714D01*
X108128000Y-74253809D01*
X108166095Y-74330000D01*
X108166095Y-74482380D01*
X108128000Y-74558571D01*
X108089904Y-74596666D01*
X108013714Y-74634761D01*
X107975619Y-74634761D01*
X107899428Y-74596666D01*
X107861333Y-74558571D01*
X107823238Y-74482380D01*
X107823238Y-74330000D01*
X107785142Y-74253809D01*
X107747047Y-74215714D01*
X107670857Y-74177619D01*
X107518476Y-74177619D01*
X107442285Y-74215714D01*
X107404190Y-74253809D01*
X107366095Y-74330000D01*
X107366095Y-74482380D01*
X107404190Y-74558571D01*
X107442285Y-74596666D01*
X107518476Y-74634761D01*
X107670857Y-74634761D01*
X107747047Y-74596666D01*
X107785142Y-74558571D01*
X107823238Y-74482380D01*
X105590095Y-71701428D02*
X105590095Y-71320476D01*
X105209142Y-71282380D01*
X105247238Y-71320476D01*
X105285333Y-71396666D01*
X105285333Y-71587142D01*
X105247238Y-71663333D01*
X105209142Y-71701428D01*
X105132952Y-71739523D01*
X104942476Y-71739523D01*
X104866285Y-71701428D01*
X104828190Y-71663333D01*
X104790095Y-71587142D01*
X104790095Y-71396666D01*
X104828190Y-71320476D01*
X104866285Y-71282380D01*
X104790095Y-72120476D02*
X104790095Y-72272857D01*
X104828190Y-72349047D01*
X104866285Y-72387142D01*
X104980571Y-72463333D01*
X105132952Y-72501428D01*
X105437714Y-72501428D01*
X105513904Y-72463333D01*
X105552000Y-72425238D01*
X105590095Y-72349047D01*
X105590095Y-72196666D01*
X105552000Y-72120476D01*
X105513904Y-72082380D01*
X105437714Y-72044285D01*
X105247238Y-72044285D01*
X105171047Y-72082380D01*
X105132952Y-72120476D01*
X105094857Y-72196666D01*
X105094857Y-72349047D01*
X105132952Y-72425238D01*
X105171047Y-72463333D01*
X105247238Y-72501428D01*
X105590095Y-73796666D02*
X105590095Y-73644285D01*
X105552000Y-73568095D01*
X105513904Y-73530000D01*
X105399619Y-73453809D01*
X105247238Y-73415714D01*
X104942476Y-73415714D01*
X104866285Y-73453809D01*
X104828190Y-73491904D01*
X104790095Y-73568095D01*
X104790095Y-73720476D01*
X104828190Y-73796666D01*
X104866285Y-73834761D01*
X104942476Y-73872857D01*
X105132952Y-73872857D01*
X105209142Y-73834761D01*
X105247238Y-73796666D01*
X105285333Y-73720476D01*
X105285333Y-73568095D01*
X105247238Y-73491904D01*
X105209142Y-73453809D01*
X105132952Y-73415714D01*
X105590095Y-74368095D02*
X105590095Y-74444285D01*
X105552000Y-74520476D01*
X105513904Y-74558571D01*
X105437714Y-74596666D01*
X105285333Y-74634761D01*
X105094857Y-74634761D01*
X104942476Y-74596666D01*
X104866285Y-74558571D01*
X104828190Y-74520476D01*
X104790095Y-74444285D01*
X104790095Y-74368095D01*
X104828190Y-74291904D01*
X104866285Y-74253809D01*
X104942476Y-74215714D01*
X105094857Y-74177619D01*
X105285333Y-74177619D01*
X105437714Y-74215714D01*
X105513904Y-74253809D01*
X105552000Y-74291904D01*
X105590095Y-74368095D01*
X103014095Y-71663333D02*
X103014095Y-71510952D01*
X102976000Y-71434761D01*
X102937904Y-71396666D01*
X102823619Y-71320476D01*
X102671238Y-71282380D01*
X102366476Y-71282380D01*
X102290285Y-71320476D01*
X102252190Y-71358571D01*
X102214095Y-71434761D01*
X102214095Y-71587142D01*
X102252190Y-71663333D01*
X102290285Y-71701428D01*
X102366476Y-71739523D01*
X102556952Y-71739523D01*
X102633142Y-71701428D01*
X102671238Y-71663333D01*
X102709333Y-71587142D01*
X102709333Y-71434761D01*
X102671238Y-71358571D01*
X102633142Y-71320476D01*
X102556952Y-71282380D01*
X102214095Y-72501428D02*
X102214095Y-72044285D01*
X102214095Y-72272857D02*
X103014095Y-72272857D01*
X102899809Y-72196666D01*
X102823619Y-72120476D01*
X102785523Y-72044285D01*
X103014095Y-73796666D02*
X103014095Y-73644285D01*
X102976000Y-73568095D01*
X102937904Y-73530000D01*
X102823619Y-73453809D01*
X102671238Y-73415714D01*
X102366476Y-73415714D01*
X102290285Y-73453809D01*
X102252190Y-73491904D01*
X102214095Y-73568095D01*
X102214095Y-73720476D01*
X102252190Y-73796666D01*
X102290285Y-73834761D01*
X102366476Y-73872857D01*
X102556952Y-73872857D01*
X102633142Y-73834761D01*
X102671238Y-73796666D01*
X102709333Y-73720476D01*
X102709333Y-73568095D01*
X102671238Y-73491904D01*
X102633142Y-73453809D01*
X102556952Y-73415714D01*
X102937904Y-74177619D02*
X102976000Y-74215714D01*
X103014095Y-74291904D01*
X103014095Y-74482380D01*
X102976000Y-74558571D01*
X102937904Y-74596666D01*
X102861714Y-74634761D01*
X102785523Y-74634761D01*
X102671238Y-74596666D01*
X102214095Y-74139523D01*
X102214095Y-74634761D01*
X100438095Y-71663333D02*
X100438095Y-71510952D01*
X100400000Y-71434761D01*
X100361904Y-71396666D01*
X100247619Y-71320476D01*
X100095238Y-71282380D01*
X99790476Y-71282380D01*
X99714285Y-71320476D01*
X99676190Y-71358571D01*
X99638095Y-71434761D01*
X99638095Y-71587142D01*
X99676190Y-71663333D01*
X99714285Y-71701428D01*
X99790476Y-71739523D01*
X99980952Y-71739523D01*
X100057142Y-71701428D01*
X100095238Y-71663333D01*
X100133333Y-71587142D01*
X100133333Y-71434761D01*
X100095238Y-71358571D01*
X100057142Y-71320476D01*
X99980952Y-71282380D01*
X100438095Y-72006190D02*
X100438095Y-72501428D01*
X100133333Y-72234761D01*
X100133333Y-72349047D01*
X100095238Y-72425238D01*
X100057142Y-72463333D01*
X99980952Y-72501428D01*
X99790476Y-72501428D01*
X99714285Y-72463333D01*
X99676190Y-72425238D01*
X99638095Y-72349047D01*
X99638095Y-72120476D01*
X99676190Y-72044285D01*
X99714285Y-72006190D01*
X100438095Y-73796666D02*
X100438095Y-73644285D01*
X100400000Y-73568095D01*
X100361904Y-73530000D01*
X100247619Y-73453809D01*
X100095238Y-73415714D01*
X99790476Y-73415714D01*
X99714285Y-73453809D01*
X99676190Y-73491904D01*
X99638095Y-73568095D01*
X99638095Y-73720476D01*
X99676190Y-73796666D01*
X99714285Y-73834761D01*
X99790476Y-73872857D01*
X99980952Y-73872857D01*
X100057142Y-73834761D01*
X100095238Y-73796666D01*
X100133333Y-73720476D01*
X100133333Y-73568095D01*
X100095238Y-73491904D01*
X100057142Y-73453809D01*
X99980952Y-73415714D01*
X100171428Y-74558571D02*
X99638095Y-74558571D01*
X100476190Y-74368095D02*
X99904761Y-74177619D01*
X99904761Y-74672857D01*
X97862095Y-71663333D02*
X97862095Y-71510952D01*
X97824000Y-71434761D01*
X97785904Y-71396666D01*
X97671619Y-71320476D01*
X97519238Y-71282380D01*
X97214476Y-71282380D01*
X97138285Y-71320476D01*
X97100190Y-71358571D01*
X97062095Y-71434761D01*
X97062095Y-71587142D01*
X97100190Y-71663333D01*
X97138285Y-71701428D01*
X97214476Y-71739523D01*
X97404952Y-71739523D01*
X97481142Y-71701428D01*
X97519238Y-71663333D01*
X97557333Y-71587142D01*
X97557333Y-71434761D01*
X97519238Y-71358571D01*
X97481142Y-71320476D01*
X97404952Y-71282380D01*
X97862095Y-72463333D02*
X97862095Y-72082380D01*
X97481142Y-72044285D01*
X97519238Y-72082380D01*
X97557333Y-72158571D01*
X97557333Y-72349047D01*
X97519238Y-72425238D01*
X97481142Y-72463333D01*
X97404952Y-72501428D01*
X97214476Y-72501428D01*
X97138285Y-72463333D01*
X97100190Y-72425238D01*
X97062095Y-72349047D01*
X97062095Y-72158571D01*
X97100190Y-72082380D01*
X97138285Y-72044285D01*
X97862095Y-73796666D02*
X97862095Y-73644285D01*
X97824000Y-73568095D01*
X97785904Y-73530000D01*
X97671619Y-73453809D01*
X97519238Y-73415714D01*
X97214476Y-73415714D01*
X97138285Y-73453809D01*
X97100190Y-73491904D01*
X97062095Y-73568095D01*
X97062095Y-73720476D01*
X97100190Y-73796666D01*
X97138285Y-73834761D01*
X97214476Y-73872857D01*
X97404952Y-73872857D01*
X97481142Y-73834761D01*
X97519238Y-73796666D01*
X97557333Y-73720476D01*
X97557333Y-73568095D01*
X97519238Y-73491904D01*
X97481142Y-73453809D01*
X97404952Y-73415714D01*
X97862095Y-74558571D02*
X97862095Y-74406190D01*
X97824000Y-74330000D01*
X97785904Y-74291904D01*
X97671619Y-74215714D01*
X97519238Y-74177619D01*
X97214476Y-74177619D01*
X97138285Y-74215714D01*
X97100190Y-74253809D01*
X97062095Y-74330000D01*
X97062095Y-74482380D01*
X97100190Y-74558571D01*
X97138285Y-74596666D01*
X97214476Y-74634761D01*
X97404952Y-74634761D01*
X97481142Y-74596666D01*
X97519238Y-74558571D01*
X97557333Y-74482380D01*
X97557333Y-74330000D01*
X97519238Y-74253809D01*
X97481142Y-74215714D01*
X97404952Y-74177619D01*
X95286095Y-71663333D02*
X95286095Y-71510952D01*
X95248000Y-71434761D01*
X95209904Y-71396666D01*
X95095619Y-71320476D01*
X94943238Y-71282380D01*
X94638476Y-71282380D01*
X94562285Y-71320476D01*
X94524190Y-71358571D01*
X94486095Y-71434761D01*
X94486095Y-71587142D01*
X94524190Y-71663333D01*
X94562285Y-71701428D01*
X94638476Y-71739523D01*
X94828952Y-71739523D01*
X94905142Y-71701428D01*
X94943238Y-71663333D01*
X94981333Y-71587142D01*
X94981333Y-71434761D01*
X94943238Y-71358571D01*
X94905142Y-71320476D01*
X94828952Y-71282380D01*
X95286095Y-72006190D02*
X95286095Y-72539523D01*
X94486095Y-72196666D01*
X95286095Y-73796666D02*
X95286095Y-73644285D01*
X95248000Y-73568095D01*
X95209904Y-73530000D01*
X95095619Y-73453809D01*
X94943238Y-73415714D01*
X94638476Y-73415714D01*
X94562285Y-73453809D01*
X94524190Y-73491904D01*
X94486095Y-73568095D01*
X94486095Y-73720476D01*
X94524190Y-73796666D01*
X94562285Y-73834761D01*
X94638476Y-73872857D01*
X94828952Y-73872857D01*
X94905142Y-73834761D01*
X94943238Y-73796666D01*
X94981333Y-73720476D01*
X94981333Y-73568095D01*
X94943238Y-73491904D01*
X94905142Y-73453809D01*
X94828952Y-73415714D01*
X94943238Y-74330000D02*
X94981333Y-74253809D01*
X95019428Y-74215714D01*
X95095619Y-74177619D01*
X95133714Y-74177619D01*
X95209904Y-74215714D01*
X95248000Y-74253809D01*
X95286095Y-74330000D01*
X95286095Y-74482380D01*
X95248000Y-74558571D01*
X95209904Y-74596666D01*
X95133714Y-74634761D01*
X95095619Y-74634761D01*
X95019428Y-74596666D01*
X94981333Y-74558571D01*
X94943238Y-74482380D01*
X94943238Y-74330000D01*
X94905142Y-74253809D01*
X94867047Y-74215714D01*
X94790857Y-74177619D01*
X94638476Y-74177619D01*
X94562285Y-74215714D01*
X94524190Y-74253809D01*
X94486095Y-74330000D01*
X94486095Y-74482380D01*
X94524190Y-74558571D01*
X94562285Y-74596666D01*
X94638476Y-74634761D01*
X94790857Y-74634761D01*
X94867047Y-74596666D01*
X94905142Y-74558571D01*
X94943238Y-74482380D01*
X92710095Y-71663333D02*
X92710095Y-71510952D01*
X92672000Y-71434761D01*
X92633904Y-71396666D01*
X92519619Y-71320476D01*
X92367238Y-71282380D01*
X92062476Y-71282380D01*
X91986285Y-71320476D01*
X91948190Y-71358571D01*
X91910095Y-71434761D01*
X91910095Y-71587142D01*
X91948190Y-71663333D01*
X91986285Y-71701428D01*
X92062476Y-71739523D01*
X92252952Y-71739523D01*
X92329142Y-71701428D01*
X92367238Y-71663333D01*
X92405333Y-71587142D01*
X92405333Y-71434761D01*
X92367238Y-71358571D01*
X92329142Y-71320476D01*
X92252952Y-71282380D01*
X91910095Y-72120476D02*
X91910095Y-72272857D01*
X91948190Y-72349047D01*
X91986285Y-72387142D01*
X92100571Y-72463333D01*
X92252952Y-72501428D01*
X92557714Y-72501428D01*
X92633904Y-72463333D01*
X92672000Y-72425238D01*
X92710095Y-72349047D01*
X92710095Y-72196666D01*
X92672000Y-72120476D01*
X92633904Y-72082380D01*
X92557714Y-72044285D01*
X92367238Y-72044285D01*
X92291047Y-72082380D01*
X92252952Y-72120476D01*
X92214857Y-72196666D01*
X92214857Y-72349047D01*
X92252952Y-72425238D01*
X92291047Y-72463333D01*
X92367238Y-72501428D01*
X92710095Y-73377619D02*
X92710095Y-73910952D01*
X91910095Y-73568095D01*
X92710095Y-74368095D02*
X92710095Y-74444285D01*
X92672000Y-74520476D01*
X92633904Y-74558571D01*
X92557714Y-74596666D01*
X92405333Y-74634761D01*
X92214857Y-74634761D01*
X92062476Y-74596666D01*
X91986285Y-74558571D01*
X91948190Y-74520476D01*
X91910095Y-74444285D01*
X91910095Y-74368095D01*
X91948190Y-74291904D01*
X91986285Y-74253809D01*
X92062476Y-74215714D01*
X92214857Y-74177619D01*
X92405333Y-74177619D01*
X92557714Y-74215714D01*
X92633904Y-74253809D01*
X92672000Y-74291904D01*
X92710095Y-74368095D01*
X90134095Y-71244285D02*
X90134095Y-71777619D01*
X89334095Y-71434761D01*
X89334095Y-72501428D02*
X89334095Y-72044285D01*
X89334095Y-72272857D02*
X90134095Y-72272857D01*
X90019809Y-72196666D01*
X89943619Y-72120476D01*
X89905523Y-72044285D01*
X90134095Y-73377619D02*
X90134095Y-73910952D01*
X89334095Y-73568095D01*
X90057904Y-74177619D02*
X90096000Y-74215714D01*
X90134095Y-74291904D01*
X90134095Y-74482380D01*
X90096000Y-74558571D01*
X90057904Y-74596666D01*
X89981714Y-74634761D01*
X89905523Y-74634761D01*
X89791238Y-74596666D01*
X89334095Y-74139523D01*
X89334095Y-74634761D01*
X87558095Y-71244285D02*
X87558095Y-71777619D01*
X86758095Y-71434761D01*
X87558095Y-72006190D02*
X87558095Y-72501428D01*
X87253333Y-72234761D01*
X87253333Y-72349047D01*
X87215238Y-72425238D01*
X87177142Y-72463333D01*
X87100952Y-72501428D01*
X86910476Y-72501428D01*
X86834285Y-72463333D01*
X86796190Y-72425238D01*
X86758095Y-72349047D01*
X86758095Y-72120476D01*
X86796190Y-72044285D01*
X86834285Y-72006190D01*
X87558095Y-73377619D02*
X87558095Y-73910952D01*
X86758095Y-73568095D01*
X87291428Y-74558571D02*
X86758095Y-74558571D01*
X87596190Y-74368095D02*
X87024761Y-74177619D01*
X87024761Y-74672857D01*
X84982095Y-71244285D02*
X84982095Y-71777619D01*
X84182095Y-71434761D01*
X84982095Y-72463333D02*
X84982095Y-72082380D01*
X84601142Y-72044285D01*
X84639238Y-72082380D01*
X84677333Y-72158571D01*
X84677333Y-72349047D01*
X84639238Y-72425238D01*
X84601142Y-72463333D01*
X84524952Y-72501428D01*
X84334476Y-72501428D01*
X84258285Y-72463333D01*
X84220190Y-72425238D01*
X84182095Y-72349047D01*
X84182095Y-72158571D01*
X84220190Y-72082380D01*
X84258285Y-72044285D01*
X71244285Y-84105904D02*
X71777619Y-84105904D01*
X71434761Y-84905904D01*
X72425238Y-84105904D02*
X72272857Y-84105904D01*
X72196666Y-84144000D01*
X72158571Y-84182095D01*
X72082380Y-84296380D01*
X72044285Y-84448761D01*
X72044285Y-84753523D01*
X72082380Y-84829714D01*
X72120476Y-84867809D01*
X72196666Y-84905904D01*
X72349047Y-84905904D01*
X72425238Y-84867809D01*
X72463333Y-84829714D01*
X72501428Y-84753523D01*
X72501428Y-84563047D01*
X72463333Y-84486857D01*
X72425238Y-84448761D01*
X72349047Y-84410666D01*
X72196666Y-84410666D01*
X72120476Y-84448761D01*
X72082380Y-84486857D01*
X72044285Y-84563047D01*
X73377619Y-84105904D02*
X73910952Y-84105904D01*
X73568095Y-84905904D01*
X74139523Y-84105904D02*
X74672857Y-84105904D01*
X74330000Y-84905904D01*
X71244285Y-86681904D02*
X71777619Y-86681904D01*
X71434761Y-87481904D01*
X72196666Y-87024761D02*
X72120476Y-86986666D01*
X72082380Y-86948571D01*
X72044285Y-86872380D01*
X72044285Y-86834285D01*
X72082380Y-86758095D01*
X72120476Y-86720000D01*
X72196666Y-86681904D01*
X72349047Y-86681904D01*
X72425238Y-86720000D01*
X72463333Y-86758095D01*
X72501428Y-86834285D01*
X72501428Y-86872380D01*
X72463333Y-86948571D01*
X72425238Y-86986666D01*
X72349047Y-87024761D01*
X72196666Y-87024761D01*
X72120476Y-87062857D01*
X72082380Y-87100952D01*
X72044285Y-87177142D01*
X72044285Y-87329523D01*
X72082380Y-87405714D01*
X72120476Y-87443809D01*
X72196666Y-87481904D01*
X72349047Y-87481904D01*
X72425238Y-87443809D01*
X72463333Y-87405714D01*
X72501428Y-87329523D01*
X72501428Y-87177142D01*
X72463333Y-87100952D01*
X72425238Y-87062857D01*
X72349047Y-87024761D01*
X73377619Y-86681904D02*
X73910952Y-86681904D01*
X73568095Y-87481904D01*
X74253809Y-87481904D02*
X74406190Y-87481904D01*
X74482380Y-87443809D01*
X74520476Y-87405714D01*
X74596666Y-87291428D01*
X74634761Y-87139047D01*
X74634761Y-86834285D01*
X74596666Y-86758095D01*
X74558571Y-86720000D01*
X74482380Y-86681904D01*
X74330000Y-86681904D01*
X74253809Y-86720000D01*
X74215714Y-86758095D01*
X74177619Y-86834285D01*
X74177619Y-87024761D01*
X74215714Y-87100952D01*
X74253809Y-87139047D01*
X74330000Y-87177142D01*
X74482380Y-87177142D01*
X74558571Y-87139047D01*
X74596666Y-87100952D01*
X74634761Y-87024761D01*
X71434761Y-89600761D02*
X71358571Y-89562666D01*
X71320476Y-89524571D01*
X71282380Y-89448380D01*
X71282380Y-89410285D01*
X71320476Y-89334095D01*
X71358571Y-89296000D01*
X71434761Y-89257904D01*
X71587142Y-89257904D01*
X71663333Y-89296000D01*
X71701428Y-89334095D01*
X71739523Y-89410285D01*
X71739523Y-89448380D01*
X71701428Y-89524571D01*
X71663333Y-89562666D01*
X71587142Y-89600761D01*
X71434761Y-89600761D01*
X71358571Y-89638857D01*
X71320476Y-89676952D01*
X71282380Y-89753142D01*
X71282380Y-89905523D01*
X71320476Y-89981714D01*
X71358571Y-90019809D01*
X71434761Y-90057904D01*
X71587142Y-90057904D01*
X71663333Y-90019809D01*
X71701428Y-89981714D01*
X71739523Y-89905523D01*
X71739523Y-89753142D01*
X71701428Y-89676952D01*
X71663333Y-89638857D01*
X71587142Y-89600761D01*
X72234761Y-89257904D02*
X72310952Y-89257904D01*
X72387142Y-89296000D01*
X72425238Y-89334095D01*
X72463333Y-89410285D01*
X72501428Y-89562666D01*
X72501428Y-89753142D01*
X72463333Y-89905523D01*
X72425238Y-89981714D01*
X72387142Y-90019809D01*
X72310952Y-90057904D01*
X72234761Y-90057904D01*
X72158571Y-90019809D01*
X72120476Y-89981714D01*
X72082380Y-89905523D01*
X72044285Y-89753142D01*
X72044285Y-89562666D01*
X72082380Y-89410285D01*
X72120476Y-89334095D01*
X72158571Y-89296000D01*
X72234761Y-89257904D01*
X73568095Y-89600761D02*
X73491904Y-89562666D01*
X73453809Y-89524571D01*
X73415714Y-89448380D01*
X73415714Y-89410285D01*
X73453809Y-89334095D01*
X73491904Y-89296000D01*
X73568095Y-89257904D01*
X73720476Y-89257904D01*
X73796666Y-89296000D01*
X73834761Y-89334095D01*
X73872857Y-89410285D01*
X73872857Y-89448380D01*
X73834761Y-89524571D01*
X73796666Y-89562666D01*
X73720476Y-89600761D01*
X73568095Y-89600761D01*
X73491904Y-89638857D01*
X73453809Y-89676952D01*
X73415714Y-89753142D01*
X73415714Y-89905523D01*
X73453809Y-89981714D01*
X73491904Y-90019809D01*
X73568095Y-90057904D01*
X73720476Y-90057904D01*
X73796666Y-90019809D01*
X73834761Y-89981714D01*
X73872857Y-89905523D01*
X73872857Y-89753142D01*
X73834761Y-89676952D01*
X73796666Y-89638857D01*
X73720476Y-89600761D01*
X74634761Y-90057904D02*
X74177619Y-90057904D01*
X74406190Y-90057904D02*
X74406190Y-89257904D01*
X74330000Y-89372190D01*
X74253809Y-89448380D01*
X74177619Y-89486476D01*
X71434761Y-92176761D02*
X71358571Y-92138666D01*
X71320476Y-92100571D01*
X71282380Y-92024380D01*
X71282380Y-91986285D01*
X71320476Y-91910095D01*
X71358571Y-91872000D01*
X71434761Y-91833904D01*
X71587142Y-91833904D01*
X71663333Y-91872000D01*
X71701428Y-91910095D01*
X71739523Y-91986285D01*
X71739523Y-92024380D01*
X71701428Y-92100571D01*
X71663333Y-92138666D01*
X71587142Y-92176761D01*
X71434761Y-92176761D01*
X71358571Y-92214857D01*
X71320476Y-92252952D01*
X71282380Y-92329142D01*
X71282380Y-92481523D01*
X71320476Y-92557714D01*
X71358571Y-92595809D01*
X71434761Y-92633904D01*
X71587142Y-92633904D01*
X71663333Y-92595809D01*
X71701428Y-92557714D01*
X71739523Y-92481523D01*
X71739523Y-92329142D01*
X71701428Y-92252952D01*
X71663333Y-92214857D01*
X71587142Y-92176761D01*
X72044285Y-91910095D02*
X72082380Y-91872000D01*
X72158571Y-91833904D01*
X72349047Y-91833904D01*
X72425238Y-91872000D01*
X72463333Y-91910095D01*
X72501428Y-91986285D01*
X72501428Y-92062476D01*
X72463333Y-92176761D01*
X72006190Y-92633904D01*
X72501428Y-92633904D01*
X73568095Y-92176761D02*
X73491904Y-92138666D01*
X73453809Y-92100571D01*
X73415714Y-92024380D01*
X73415714Y-91986285D01*
X73453809Y-91910095D01*
X73491904Y-91872000D01*
X73568095Y-91833904D01*
X73720476Y-91833904D01*
X73796666Y-91872000D01*
X73834761Y-91910095D01*
X73872857Y-91986285D01*
X73872857Y-92024380D01*
X73834761Y-92100571D01*
X73796666Y-92138666D01*
X73720476Y-92176761D01*
X73568095Y-92176761D01*
X73491904Y-92214857D01*
X73453809Y-92252952D01*
X73415714Y-92329142D01*
X73415714Y-92481523D01*
X73453809Y-92557714D01*
X73491904Y-92595809D01*
X73568095Y-92633904D01*
X73720476Y-92633904D01*
X73796666Y-92595809D01*
X73834761Y-92557714D01*
X73872857Y-92481523D01*
X73872857Y-92329142D01*
X73834761Y-92252952D01*
X73796666Y-92214857D01*
X73720476Y-92176761D01*
X74139523Y-91833904D02*
X74634761Y-91833904D01*
X74368095Y-92138666D01*
X74482380Y-92138666D01*
X74558571Y-92176761D01*
X74596666Y-92214857D01*
X74634761Y-92291047D01*
X74634761Y-92481523D01*
X74596666Y-92557714D01*
X74558571Y-92595809D01*
X74482380Y-92633904D01*
X74253809Y-92633904D01*
X74177619Y-92595809D01*
X74139523Y-92557714D01*
X71434761Y-94752761D02*
X71358571Y-94714666D01*
X71320476Y-94676571D01*
X71282380Y-94600380D01*
X71282380Y-94562285D01*
X71320476Y-94486095D01*
X71358571Y-94448000D01*
X71434761Y-94409904D01*
X71587142Y-94409904D01*
X71663333Y-94448000D01*
X71701428Y-94486095D01*
X71739523Y-94562285D01*
X71739523Y-94600380D01*
X71701428Y-94676571D01*
X71663333Y-94714666D01*
X71587142Y-94752761D01*
X71434761Y-94752761D01*
X71358571Y-94790857D01*
X71320476Y-94828952D01*
X71282380Y-94905142D01*
X71282380Y-95057523D01*
X71320476Y-95133714D01*
X71358571Y-95171809D01*
X71434761Y-95209904D01*
X71587142Y-95209904D01*
X71663333Y-95171809D01*
X71701428Y-95133714D01*
X71739523Y-95057523D01*
X71739523Y-94905142D01*
X71701428Y-94828952D01*
X71663333Y-94790857D01*
X71587142Y-94752761D01*
X72425238Y-94676571D02*
X72425238Y-95209904D01*
X72234761Y-94371809D02*
X72044285Y-94943238D01*
X72539523Y-94943238D01*
X73568095Y-94752761D02*
X73491904Y-94714666D01*
X73453809Y-94676571D01*
X73415714Y-94600380D01*
X73415714Y-94562285D01*
X73453809Y-94486095D01*
X73491904Y-94448000D01*
X73568095Y-94409904D01*
X73720476Y-94409904D01*
X73796666Y-94448000D01*
X73834761Y-94486095D01*
X73872857Y-94562285D01*
X73872857Y-94600380D01*
X73834761Y-94676571D01*
X73796666Y-94714666D01*
X73720476Y-94752761D01*
X73568095Y-94752761D01*
X73491904Y-94790857D01*
X73453809Y-94828952D01*
X73415714Y-94905142D01*
X73415714Y-95057523D01*
X73453809Y-95133714D01*
X73491904Y-95171809D01*
X73568095Y-95209904D01*
X73720476Y-95209904D01*
X73796666Y-95171809D01*
X73834761Y-95133714D01*
X73872857Y-95057523D01*
X73872857Y-94905142D01*
X73834761Y-94828952D01*
X73796666Y-94790857D01*
X73720476Y-94752761D01*
X74596666Y-94409904D02*
X74215714Y-94409904D01*
X74177619Y-94790857D01*
X74215714Y-94752761D01*
X74291904Y-94714666D01*
X74482380Y-94714666D01*
X74558571Y-94752761D01*
X74596666Y-94790857D01*
X74634761Y-94867047D01*
X74634761Y-95057523D01*
X74596666Y-95133714D01*
X74558571Y-95171809D01*
X74482380Y-95209904D01*
X74291904Y-95209904D01*
X74215714Y-95171809D01*
X74177619Y-95133714D01*
X71434761Y-97328761D02*
X71358571Y-97290666D01*
X71320476Y-97252571D01*
X71282380Y-97176380D01*
X71282380Y-97138285D01*
X71320476Y-97062095D01*
X71358571Y-97024000D01*
X71434761Y-96985904D01*
X71587142Y-96985904D01*
X71663333Y-97024000D01*
X71701428Y-97062095D01*
X71739523Y-97138285D01*
X71739523Y-97176380D01*
X71701428Y-97252571D01*
X71663333Y-97290666D01*
X71587142Y-97328761D01*
X71434761Y-97328761D01*
X71358571Y-97366857D01*
X71320476Y-97404952D01*
X71282380Y-97481142D01*
X71282380Y-97633523D01*
X71320476Y-97709714D01*
X71358571Y-97747809D01*
X71434761Y-97785904D01*
X71587142Y-97785904D01*
X71663333Y-97747809D01*
X71701428Y-97709714D01*
X71739523Y-97633523D01*
X71739523Y-97481142D01*
X71701428Y-97404952D01*
X71663333Y-97366857D01*
X71587142Y-97328761D01*
X72425238Y-96985904D02*
X72272857Y-96985904D01*
X72196666Y-97024000D01*
X72158571Y-97062095D01*
X72082380Y-97176380D01*
X72044285Y-97328761D01*
X72044285Y-97633523D01*
X72082380Y-97709714D01*
X72120476Y-97747809D01*
X72196666Y-97785904D01*
X72349047Y-97785904D01*
X72425238Y-97747809D01*
X72463333Y-97709714D01*
X72501428Y-97633523D01*
X72501428Y-97443047D01*
X72463333Y-97366857D01*
X72425238Y-97328761D01*
X72349047Y-97290666D01*
X72196666Y-97290666D01*
X72120476Y-97328761D01*
X72082380Y-97366857D01*
X72044285Y-97443047D01*
X73568095Y-97328761D02*
X73491904Y-97290666D01*
X73453809Y-97252571D01*
X73415714Y-97176380D01*
X73415714Y-97138285D01*
X73453809Y-97062095D01*
X73491904Y-97024000D01*
X73568095Y-96985904D01*
X73720476Y-96985904D01*
X73796666Y-97024000D01*
X73834761Y-97062095D01*
X73872857Y-97138285D01*
X73872857Y-97176380D01*
X73834761Y-97252571D01*
X73796666Y-97290666D01*
X73720476Y-97328761D01*
X73568095Y-97328761D01*
X73491904Y-97366857D01*
X73453809Y-97404952D01*
X73415714Y-97481142D01*
X73415714Y-97633523D01*
X73453809Y-97709714D01*
X73491904Y-97747809D01*
X73568095Y-97785904D01*
X73720476Y-97785904D01*
X73796666Y-97747809D01*
X73834761Y-97709714D01*
X73872857Y-97633523D01*
X73872857Y-97481142D01*
X73834761Y-97404952D01*
X73796666Y-97366857D01*
X73720476Y-97328761D01*
X74139523Y-96985904D02*
X74672857Y-96985904D01*
X74330000Y-97785904D01*
X71434761Y-99904761D02*
X71358571Y-99866666D01*
X71320476Y-99828571D01*
X71282380Y-99752380D01*
X71282380Y-99714285D01*
X71320476Y-99638095D01*
X71358571Y-99600000D01*
X71434761Y-99561904D01*
X71587142Y-99561904D01*
X71663333Y-99600000D01*
X71701428Y-99638095D01*
X71739523Y-99714285D01*
X71739523Y-99752380D01*
X71701428Y-99828571D01*
X71663333Y-99866666D01*
X71587142Y-99904761D01*
X71434761Y-99904761D01*
X71358571Y-99942857D01*
X71320476Y-99980952D01*
X71282380Y-100057142D01*
X71282380Y-100209523D01*
X71320476Y-100285714D01*
X71358571Y-100323809D01*
X71434761Y-100361904D01*
X71587142Y-100361904D01*
X71663333Y-100323809D01*
X71701428Y-100285714D01*
X71739523Y-100209523D01*
X71739523Y-100057142D01*
X71701428Y-99980952D01*
X71663333Y-99942857D01*
X71587142Y-99904761D01*
X72196666Y-99904761D02*
X72120476Y-99866666D01*
X72082380Y-99828571D01*
X72044285Y-99752380D01*
X72044285Y-99714285D01*
X72082380Y-99638095D01*
X72120476Y-99600000D01*
X72196666Y-99561904D01*
X72349047Y-99561904D01*
X72425238Y-99600000D01*
X72463333Y-99638095D01*
X72501428Y-99714285D01*
X72501428Y-99752380D01*
X72463333Y-99828571D01*
X72425238Y-99866666D01*
X72349047Y-99904761D01*
X72196666Y-99904761D01*
X72120476Y-99942857D01*
X72082380Y-99980952D01*
X72044285Y-100057142D01*
X72044285Y-100209523D01*
X72082380Y-100285714D01*
X72120476Y-100323809D01*
X72196666Y-100361904D01*
X72349047Y-100361904D01*
X72425238Y-100323809D01*
X72463333Y-100285714D01*
X72501428Y-100209523D01*
X72501428Y-100057142D01*
X72463333Y-99980952D01*
X72425238Y-99942857D01*
X72349047Y-99904761D01*
X73568095Y-99904761D02*
X73491904Y-99866666D01*
X73453809Y-99828571D01*
X73415714Y-99752380D01*
X73415714Y-99714285D01*
X73453809Y-99638095D01*
X73491904Y-99600000D01*
X73568095Y-99561904D01*
X73720476Y-99561904D01*
X73796666Y-99600000D01*
X73834761Y-99638095D01*
X73872857Y-99714285D01*
X73872857Y-99752380D01*
X73834761Y-99828571D01*
X73796666Y-99866666D01*
X73720476Y-99904761D01*
X73568095Y-99904761D01*
X73491904Y-99942857D01*
X73453809Y-99980952D01*
X73415714Y-100057142D01*
X73415714Y-100209523D01*
X73453809Y-100285714D01*
X73491904Y-100323809D01*
X73568095Y-100361904D01*
X73720476Y-100361904D01*
X73796666Y-100323809D01*
X73834761Y-100285714D01*
X73872857Y-100209523D01*
X73872857Y-100057142D01*
X73834761Y-99980952D01*
X73796666Y-99942857D01*
X73720476Y-99904761D01*
X74253809Y-100361904D02*
X74406190Y-100361904D01*
X74482380Y-100323809D01*
X74520476Y-100285714D01*
X74596666Y-100171428D01*
X74634761Y-100019047D01*
X74634761Y-99714285D01*
X74596666Y-99638095D01*
X74558571Y-99600000D01*
X74482380Y-99561904D01*
X74330000Y-99561904D01*
X74253809Y-99600000D01*
X74215714Y-99638095D01*
X74177619Y-99714285D01*
X74177619Y-99904761D01*
X74215714Y-99980952D01*
X74253809Y-100019047D01*
X74330000Y-100057142D01*
X74482380Y-100057142D01*
X74558571Y-100019047D01*
X74596666Y-99980952D01*
X74634761Y-99904761D01*
X71358571Y-102937904D02*
X71510952Y-102937904D01*
X71587142Y-102899809D01*
X71625238Y-102861714D01*
X71701428Y-102747428D01*
X71739523Y-102595047D01*
X71739523Y-102290285D01*
X71701428Y-102214095D01*
X71663333Y-102176000D01*
X71587142Y-102137904D01*
X71434761Y-102137904D01*
X71358571Y-102176000D01*
X71320476Y-102214095D01*
X71282380Y-102290285D01*
X71282380Y-102480761D01*
X71320476Y-102556952D01*
X71358571Y-102595047D01*
X71434761Y-102633142D01*
X71587142Y-102633142D01*
X71663333Y-102595047D01*
X71701428Y-102556952D01*
X71739523Y-102480761D01*
X72234761Y-102137904D02*
X72310952Y-102137904D01*
X72387142Y-102176000D01*
X72425238Y-102214095D01*
X72463333Y-102290285D01*
X72501428Y-102442666D01*
X72501428Y-102633142D01*
X72463333Y-102785523D01*
X72425238Y-102861714D01*
X72387142Y-102899809D01*
X72310952Y-102937904D01*
X72234761Y-102937904D01*
X72158571Y-102899809D01*
X72120476Y-102861714D01*
X72082380Y-102785523D01*
X72044285Y-102633142D01*
X72044285Y-102442666D01*
X72082380Y-102290285D01*
X72120476Y-102214095D01*
X72158571Y-102176000D01*
X72234761Y-102137904D01*
X73491904Y-102937904D02*
X73644285Y-102937904D01*
X73720476Y-102899809D01*
X73758571Y-102861714D01*
X73834761Y-102747428D01*
X73872857Y-102595047D01*
X73872857Y-102290285D01*
X73834761Y-102214095D01*
X73796666Y-102176000D01*
X73720476Y-102137904D01*
X73568095Y-102137904D01*
X73491904Y-102176000D01*
X73453809Y-102214095D01*
X73415714Y-102290285D01*
X73415714Y-102480761D01*
X73453809Y-102556952D01*
X73491904Y-102595047D01*
X73568095Y-102633142D01*
X73720476Y-102633142D01*
X73796666Y-102595047D01*
X73834761Y-102556952D01*
X73872857Y-102480761D01*
X74634761Y-102937904D02*
X74177619Y-102937904D01*
X74406190Y-102937904D02*
X74406190Y-102137904D01*
X74330000Y-102252190D01*
X74253809Y-102328380D01*
X74177619Y-102366476D01*
X71358571Y-105513904D02*
X71510952Y-105513904D01*
X71587142Y-105475809D01*
X71625238Y-105437714D01*
X71701428Y-105323428D01*
X71739523Y-105171047D01*
X71739523Y-104866285D01*
X71701428Y-104790095D01*
X71663333Y-104752000D01*
X71587142Y-104713904D01*
X71434761Y-104713904D01*
X71358571Y-104752000D01*
X71320476Y-104790095D01*
X71282380Y-104866285D01*
X71282380Y-105056761D01*
X71320476Y-105132952D01*
X71358571Y-105171047D01*
X71434761Y-105209142D01*
X71587142Y-105209142D01*
X71663333Y-105171047D01*
X71701428Y-105132952D01*
X71739523Y-105056761D01*
X72044285Y-104790095D02*
X72082380Y-104752000D01*
X72158571Y-104713904D01*
X72349047Y-104713904D01*
X72425238Y-104752000D01*
X72463333Y-104790095D01*
X72501428Y-104866285D01*
X72501428Y-104942476D01*
X72463333Y-105056761D01*
X72006190Y-105513904D01*
X72501428Y-105513904D01*
X73491904Y-105513904D02*
X73644285Y-105513904D01*
X73720476Y-105475809D01*
X73758571Y-105437714D01*
X73834761Y-105323428D01*
X73872857Y-105171047D01*
X73872857Y-104866285D01*
X73834761Y-104790095D01*
X73796666Y-104752000D01*
X73720476Y-104713904D01*
X73568095Y-104713904D01*
X73491904Y-104752000D01*
X73453809Y-104790095D01*
X73415714Y-104866285D01*
X73415714Y-105056761D01*
X73453809Y-105132952D01*
X73491904Y-105171047D01*
X73568095Y-105209142D01*
X73720476Y-105209142D01*
X73796666Y-105171047D01*
X73834761Y-105132952D01*
X73872857Y-105056761D01*
X74139523Y-104713904D02*
X74634761Y-104713904D01*
X74368095Y-105018666D01*
X74482380Y-105018666D01*
X74558571Y-105056761D01*
X74596666Y-105094857D01*
X74634761Y-105171047D01*
X74634761Y-105361523D01*
X74596666Y-105437714D01*
X74558571Y-105475809D01*
X74482380Y-105513904D01*
X74253809Y-105513904D01*
X74177619Y-105475809D01*
X74139523Y-105437714D01*
X71358571Y-108089904D02*
X71510952Y-108089904D01*
X71587142Y-108051809D01*
X71625238Y-108013714D01*
X71701428Y-107899428D01*
X71739523Y-107747047D01*
X71739523Y-107442285D01*
X71701428Y-107366095D01*
X71663333Y-107328000D01*
X71587142Y-107289904D01*
X71434761Y-107289904D01*
X71358571Y-107328000D01*
X71320476Y-107366095D01*
X71282380Y-107442285D01*
X71282380Y-107632761D01*
X71320476Y-107708952D01*
X71358571Y-107747047D01*
X71434761Y-107785142D01*
X71587142Y-107785142D01*
X71663333Y-107747047D01*
X71701428Y-107708952D01*
X71739523Y-107632761D01*
X72425238Y-107556571D02*
X72425238Y-108089904D01*
X72234761Y-107251809D02*
X72044285Y-107823238D01*
X72539523Y-107823238D01*
X73491904Y-108089904D02*
X73644285Y-108089904D01*
X73720476Y-108051809D01*
X73758571Y-108013714D01*
X73834761Y-107899428D01*
X73872857Y-107747047D01*
X73872857Y-107442285D01*
X73834761Y-107366095D01*
X73796666Y-107328000D01*
X73720476Y-107289904D01*
X73568095Y-107289904D01*
X73491904Y-107328000D01*
X73453809Y-107366095D01*
X73415714Y-107442285D01*
X73415714Y-107632761D01*
X73453809Y-107708952D01*
X73491904Y-107747047D01*
X73568095Y-107785142D01*
X73720476Y-107785142D01*
X73796666Y-107747047D01*
X73834761Y-107708952D01*
X73872857Y-107632761D01*
X74596666Y-107289904D02*
X74215714Y-107289904D01*
X74177619Y-107670857D01*
X74215714Y-107632761D01*
X74291904Y-107594666D01*
X74482380Y-107594666D01*
X74558571Y-107632761D01*
X74596666Y-107670857D01*
X74634761Y-107747047D01*
X74634761Y-107937523D01*
X74596666Y-108013714D01*
X74558571Y-108051809D01*
X74482380Y-108089904D01*
X74291904Y-108089904D01*
X74215714Y-108051809D01*
X74177619Y-108013714D01*
X71358571Y-110665904D02*
X71510952Y-110665904D01*
X71587142Y-110627809D01*
X71625238Y-110589714D01*
X71701428Y-110475428D01*
X71739523Y-110323047D01*
X71739523Y-110018285D01*
X71701428Y-109942095D01*
X71663333Y-109904000D01*
X71587142Y-109865904D01*
X71434761Y-109865904D01*
X71358571Y-109904000D01*
X71320476Y-109942095D01*
X71282380Y-110018285D01*
X71282380Y-110208761D01*
X71320476Y-110284952D01*
X71358571Y-110323047D01*
X71434761Y-110361142D01*
X71587142Y-110361142D01*
X71663333Y-110323047D01*
X71701428Y-110284952D01*
X71739523Y-110208761D01*
X72425238Y-109865904D02*
X72272857Y-109865904D01*
X72196666Y-109904000D01*
X72158571Y-109942095D01*
X72082380Y-110056380D01*
X72044285Y-110208761D01*
X72044285Y-110513523D01*
X72082380Y-110589714D01*
X72120476Y-110627809D01*
X72196666Y-110665904D01*
X72349047Y-110665904D01*
X72425238Y-110627809D01*
X72463333Y-110589714D01*
X72501428Y-110513523D01*
X72501428Y-110323047D01*
X72463333Y-110246857D01*
X72425238Y-110208761D01*
X72349047Y-110170666D01*
X72196666Y-110170666D01*
X72120476Y-110208761D01*
X72082380Y-110246857D01*
X72044285Y-110323047D01*
X73491904Y-110665904D02*
X73644285Y-110665904D01*
X73720476Y-110627809D01*
X73758571Y-110589714D01*
X73834761Y-110475428D01*
X73872857Y-110323047D01*
X73872857Y-110018285D01*
X73834761Y-109942095D01*
X73796666Y-109904000D01*
X73720476Y-109865904D01*
X73568095Y-109865904D01*
X73491904Y-109904000D01*
X73453809Y-109942095D01*
X73415714Y-110018285D01*
X73415714Y-110208761D01*
X73453809Y-110284952D01*
X73491904Y-110323047D01*
X73568095Y-110361142D01*
X73720476Y-110361142D01*
X73796666Y-110323047D01*
X73834761Y-110284952D01*
X73872857Y-110208761D01*
X74139523Y-109865904D02*
X74672857Y-109865904D01*
X74330000Y-110665904D01*
X71358571Y-113241904D02*
X71510952Y-113241904D01*
X71587142Y-113203809D01*
X71625238Y-113165714D01*
X71701428Y-113051428D01*
X71739523Y-112899047D01*
X71739523Y-112594285D01*
X71701428Y-112518095D01*
X71663333Y-112480000D01*
X71587142Y-112441904D01*
X71434761Y-112441904D01*
X71358571Y-112480000D01*
X71320476Y-112518095D01*
X71282380Y-112594285D01*
X71282380Y-112784761D01*
X71320476Y-112860952D01*
X71358571Y-112899047D01*
X71434761Y-112937142D01*
X71587142Y-112937142D01*
X71663333Y-112899047D01*
X71701428Y-112860952D01*
X71739523Y-112784761D01*
X72196666Y-112784761D02*
X72120476Y-112746666D01*
X72082380Y-112708571D01*
X72044285Y-112632380D01*
X72044285Y-112594285D01*
X72082380Y-112518095D01*
X72120476Y-112480000D01*
X72196666Y-112441904D01*
X72349047Y-112441904D01*
X72425238Y-112480000D01*
X72463333Y-112518095D01*
X72501428Y-112594285D01*
X72501428Y-112632380D01*
X72463333Y-112708571D01*
X72425238Y-112746666D01*
X72349047Y-112784761D01*
X72196666Y-112784761D01*
X72120476Y-112822857D01*
X72082380Y-112860952D01*
X72044285Y-112937142D01*
X72044285Y-113089523D01*
X72082380Y-113165714D01*
X72120476Y-113203809D01*
X72196666Y-113241904D01*
X72349047Y-113241904D01*
X72425238Y-113203809D01*
X72463333Y-113165714D01*
X72501428Y-113089523D01*
X72501428Y-112937142D01*
X72463333Y-112860952D01*
X72425238Y-112822857D01*
X72349047Y-112784761D01*
X73491904Y-113241904D02*
X73644285Y-113241904D01*
X73720476Y-113203809D01*
X73758571Y-113165714D01*
X73834761Y-113051428D01*
X73872857Y-112899047D01*
X73872857Y-112594285D01*
X73834761Y-112518095D01*
X73796666Y-112480000D01*
X73720476Y-112441904D01*
X73568095Y-112441904D01*
X73491904Y-112480000D01*
X73453809Y-112518095D01*
X73415714Y-112594285D01*
X73415714Y-112784761D01*
X73453809Y-112860952D01*
X73491904Y-112899047D01*
X73568095Y-112937142D01*
X73720476Y-112937142D01*
X73796666Y-112899047D01*
X73834761Y-112860952D01*
X73872857Y-112784761D01*
X74253809Y-113241904D02*
X74406190Y-113241904D01*
X74482380Y-113203809D01*
X74520476Y-113165714D01*
X74596666Y-113051428D01*
X74634761Y-112899047D01*
X74634761Y-112594285D01*
X74596666Y-112518095D01*
X74558571Y-112480000D01*
X74482380Y-112441904D01*
X74330000Y-112441904D01*
X74253809Y-112480000D01*
X74215714Y-112518095D01*
X74177619Y-112594285D01*
X74177619Y-112784761D01*
X74215714Y-112860952D01*
X74253809Y-112899047D01*
X74330000Y-112937142D01*
X74482380Y-112937142D01*
X74558571Y-112899047D01*
X74596666Y-112860952D01*
X74634761Y-112784761D01*
X71739523Y-115817904D02*
X71282380Y-115817904D01*
X71510952Y-115817904D02*
X71510952Y-115017904D01*
X71434761Y-115132190D01*
X71358571Y-115208380D01*
X71282380Y-115246476D01*
X72234761Y-115017904D02*
X72310952Y-115017904D01*
X72387142Y-115056000D01*
X72425238Y-115094095D01*
X72463333Y-115170285D01*
X72501428Y-115322666D01*
X72501428Y-115513142D01*
X72463333Y-115665523D01*
X72425238Y-115741714D01*
X72387142Y-115779809D01*
X72310952Y-115817904D01*
X72234761Y-115817904D01*
X72158571Y-115779809D01*
X72120476Y-115741714D01*
X72082380Y-115665523D01*
X72044285Y-115513142D01*
X72044285Y-115322666D01*
X72082380Y-115170285D01*
X72120476Y-115094095D01*
X72158571Y-115056000D01*
X72234761Y-115017904D01*
X72996666Y-115017904D02*
X73072857Y-115017904D01*
X73149047Y-115056000D01*
X73187142Y-115094095D01*
X73225238Y-115170285D01*
X73263333Y-115322666D01*
X73263333Y-115513142D01*
X73225238Y-115665523D01*
X73187142Y-115741714D01*
X73149047Y-115779809D01*
X73072857Y-115817904D01*
X72996666Y-115817904D01*
X72920476Y-115779809D01*
X72882380Y-115741714D01*
X72844285Y-115665523D01*
X72806190Y-115513142D01*
X72806190Y-115322666D01*
X72844285Y-115170285D01*
X72882380Y-115094095D01*
X72920476Y-115056000D01*
X72996666Y-115017904D01*
X128717619Y-115817904D02*
X128679523Y-115856000D01*
X128603333Y-115894095D01*
X128412857Y-115894095D01*
X128336666Y-115856000D01*
X128298571Y-115817904D01*
X128260476Y-115741714D01*
X128260476Y-115665523D01*
X128298571Y-115551238D01*
X128755714Y-115094095D01*
X128260476Y-115094095D01*
X127574761Y-115894095D02*
X127727142Y-115894095D01*
X127803333Y-115856000D01*
X127841428Y-115817904D01*
X127917619Y-115703619D01*
X127955714Y-115551238D01*
X127955714Y-115246476D01*
X127917619Y-115170285D01*
X127879523Y-115132190D01*
X127803333Y-115094095D01*
X127650952Y-115094095D01*
X127574761Y-115132190D01*
X127536666Y-115170285D01*
X127498571Y-115246476D01*
X127498571Y-115436952D01*
X127536666Y-115513142D01*
X127574761Y-115551238D01*
X127650952Y-115589333D01*
X127803333Y-115589333D01*
X127879523Y-115551238D01*
X127917619Y-115513142D01*
X127955714Y-115436952D01*
X126584285Y-115817904D02*
X126546190Y-115856000D01*
X126470000Y-115894095D01*
X126279523Y-115894095D01*
X126203333Y-115856000D01*
X126165238Y-115817904D01*
X126127142Y-115741714D01*
X126127142Y-115665523D01*
X126165238Y-115551238D01*
X126622380Y-115094095D01*
X126127142Y-115094095D01*
X125860476Y-115894095D02*
X125327142Y-115894095D01*
X125670000Y-115094095D01*
X128717619Y-113241904D02*
X128679523Y-113280000D01*
X128603333Y-113318095D01*
X128412857Y-113318095D01*
X128336666Y-113280000D01*
X128298571Y-113241904D01*
X128260476Y-113165714D01*
X128260476Y-113089523D01*
X128298571Y-112975238D01*
X128755714Y-112518095D01*
X128260476Y-112518095D01*
X127803333Y-112975238D02*
X127879523Y-113013333D01*
X127917619Y-113051428D01*
X127955714Y-113127619D01*
X127955714Y-113165714D01*
X127917619Y-113241904D01*
X127879523Y-113280000D01*
X127803333Y-113318095D01*
X127650952Y-113318095D01*
X127574761Y-113280000D01*
X127536666Y-113241904D01*
X127498571Y-113165714D01*
X127498571Y-113127619D01*
X127536666Y-113051428D01*
X127574761Y-113013333D01*
X127650952Y-112975238D01*
X127803333Y-112975238D01*
X127879523Y-112937142D01*
X127917619Y-112899047D01*
X127955714Y-112822857D01*
X127955714Y-112670476D01*
X127917619Y-112594285D01*
X127879523Y-112556190D01*
X127803333Y-112518095D01*
X127650952Y-112518095D01*
X127574761Y-112556190D01*
X127536666Y-112594285D01*
X127498571Y-112670476D01*
X127498571Y-112822857D01*
X127536666Y-112899047D01*
X127574761Y-112937142D01*
X127650952Y-112975238D01*
X126584285Y-113241904D02*
X126546190Y-113280000D01*
X126470000Y-113318095D01*
X126279523Y-113318095D01*
X126203333Y-113280000D01*
X126165238Y-113241904D01*
X126127142Y-113165714D01*
X126127142Y-113089523D01*
X126165238Y-112975238D01*
X126622380Y-112518095D01*
X126127142Y-112518095D01*
X125746190Y-112518095D02*
X125593809Y-112518095D01*
X125517619Y-112556190D01*
X125479523Y-112594285D01*
X125403333Y-112708571D01*
X125365238Y-112860952D01*
X125365238Y-113165714D01*
X125403333Y-113241904D01*
X125441428Y-113280000D01*
X125517619Y-113318095D01*
X125670000Y-113318095D01*
X125746190Y-113280000D01*
X125784285Y-113241904D01*
X125822380Y-113165714D01*
X125822380Y-112975238D01*
X125784285Y-112899047D01*
X125746190Y-112860952D01*
X125670000Y-112822857D01*
X125517619Y-112822857D01*
X125441428Y-112860952D01*
X125403333Y-112899047D01*
X125365238Y-112975238D01*
X128755714Y-110742095D02*
X128260476Y-110742095D01*
X128527142Y-110437333D01*
X128412857Y-110437333D01*
X128336666Y-110399238D01*
X128298571Y-110361142D01*
X128260476Y-110284952D01*
X128260476Y-110094476D01*
X128298571Y-110018285D01*
X128336666Y-109980190D01*
X128412857Y-109942095D01*
X128641428Y-109942095D01*
X128717619Y-109980190D01*
X128755714Y-110018285D01*
X127765238Y-110742095D02*
X127689047Y-110742095D01*
X127612857Y-110704000D01*
X127574761Y-110665904D01*
X127536666Y-110589714D01*
X127498571Y-110437333D01*
X127498571Y-110246857D01*
X127536666Y-110094476D01*
X127574761Y-110018285D01*
X127612857Y-109980190D01*
X127689047Y-109942095D01*
X127765238Y-109942095D01*
X127841428Y-109980190D01*
X127879523Y-110018285D01*
X127917619Y-110094476D01*
X127955714Y-110246857D01*
X127955714Y-110437333D01*
X127917619Y-110589714D01*
X127879523Y-110665904D01*
X127841428Y-110704000D01*
X127765238Y-110742095D01*
X126622380Y-110742095D02*
X126127142Y-110742095D01*
X126393809Y-110437333D01*
X126279523Y-110437333D01*
X126203333Y-110399238D01*
X126165238Y-110361142D01*
X126127142Y-110284952D01*
X126127142Y-110094476D01*
X126165238Y-110018285D01*
X126203333Y-109980190D01*
X126279523Y-109942095D01*
X126508095Y-109942095D01*
X126584285Y-109980190D01*
X126622380Y-110018285D01*
X125365238Y-109942095D02*
X125822380Y-109942095D01*
X125593809Y-109942095D02*
X125593809Y-110742095D01*
X125670000Y-110627809D01*
X125746190Y-110551619D01*
X125822380Y-110513523D01*
X128755714Y-108166095D02*
X128260476Y-108166095D01*
X128527142Y-107861333D01*
X128412857Y-107861333D01*
X128336666Y-107823238D01*
X128298571Y-107785142D01*
X128260476Y-107708952D01*
X128260476Y-107518476D01*
X128298571Y-107442285D01*
X128336666Y-107404190D01*
X128412857Y-107366095D01*
X128641428Y-107366095D01*
X128717619Y-107404190D01*
X128755714Y-107442285D01*
X127955714Y-108089904D02*
X127917619Y-108128000D01*
X127841428Y-108166095D01*
X127650952Y-108166095D01*
X127574761Y-108128000D01*
X127536666Y-108089904D01*
X127498571Y-108013714D01*
X127498571Y-107937523D01*
X127536666Y-107823238D01*
X127993809Y-107366095D01*
X127498571Y-107366095D01*
X126622380Y-108166095D02*
X126127142Y-108166095D01*
X126393809Y-107861333D01*
X126279523Y-107861333D01*
X126203333Y-107823238D01*
X126165238Y-107785142D01*
X126127142Y-107708952D01*
X126127142Y-107518476D01*
X126165238Y-107442285D01*
X126203333Y-107404190D01*
X126279523Y-107366095D01*
X126508095Y-107366095D01*
X126584285Y-107404190D01*
X126622380Y-107442285D01*
X125860476Y-108166095D02*
X125365238Y-108166095D01*
X125631904Y-107861333D01*
X125517619Y-107861333D01*
X125441428Y-107823238D01*
X125403333Y-107785142D01*
X125365238Y-107708952D01*
X125365238Y-107518476D01*
X125403333Y-107442285D01*
X125441428Y-107404190D01*
X125517619Y-107366095D01*
X125746190Y-107366095D01*
X125822380Y-107404190D01*
X125860476Y-107442285D01*
X128755714Y-105590095D02*
X128260476Y-105590095D01*
X128527142Y-105285333D01*
X128412857Y-105285333D01*
X128336666Y-105247238D01*
X128298571Y-105209142D01*
X128260476Y-105132952D01*
X128260476Y-104942476D01*
X128298571Y-104866285D01*
X128336666Y-104828190D01*
X128412857Y-104790095D01*
X128641428Y-104790095D01*
X128717619Y-104828190D01*
X128755714Y-104866285D01*
X127574761Y-105323428D02*
X127574761Y-104790095D01*
X127765238Y-105628190D02*
X127955714Y-105056761D01*
X127460476Y-105056761D01*
X126622380Y-105590095D02*
X126127142Y-105590095D01*
X126393809Y-105285333D01*
X126279523Y-105285333D01*
X126203333Y-105247238D01*
X126165238Y-105209142D01*
X126127142Y-105132952D01*
X126127142Y-104942476D01*
X126165238Y-104866285D01*
X126203333Y-104828190D01*
X126279523Y-104790095D01*
X126508095Y-104790095D01*
X126584285Y-104828190D01*
X126622380Y-104866285D01*
X125403333Y-105590095D02*
X125784285Y-105590095D01*
X125822380Y-105209142D01*
X125784285Y-105247238D01*
X125708095Y-105285333D01*
X125517619Y-105285333D01*
X125441428Y-105247238D01*
X125403333Y-105209142D01*
X125365238Y-105132952D01*
X125365238Y-104942476D01*
X125403333Y-104866285D01*
X125441428Y-104828190D01*
X125517619Y-104790095D01*
X125708095Y-104790095D01*
X125784285Y-104828190D01*
X125822380Y-104866285D01*
X128755714Y-103014095D02*
X128260476Y-103014095D01*
X128527142Y-102709333D01*
X128412857Y-102709333D01*
X128336666Y-102671238D01*
X128298571Y-102633142D01*
X128260476Y-102556952D01*
X128260476Y-102366476D01*
X128298571Y-102290285D01*
X128336666Y-102252190D01*
X128412857Y-102214095D01*
X128641428Y-102214095D01*
X128717619Y-102252190D01*
X128755714Y-102290285D01*
X127574761Y-103014095D02*
X127727142Y-103014095D01*
X127803333Y-102976000D01*
X127841428Y-102937904D01*
X127917619Y-102823619D01*
X127955714Y-102671238D01*
X127955714Y-102366476D01*
X127917619Y-102290285D01*
X127879523Y-102252190D01*
X127803333Y-102214095D01*
X127650952Y-102214095D01*
X127574761Y-102252190D01*
X127536666Y-102290285D01*
X127498571Y-102366476D01*
X127498571Y-102556952D01*
X127536666Y-102633142D01*
X127574761Y-102671238D01*
X127650952Y-102709333D01*
X127803333Y-102709333D01*
X127879523Y-102671238D01*
X127917619Y-102633142D01*
X127955714Y-102556952D01*
X126622380Y-103014095D02*
X126127142Y-103014095D01*
X126393809Y-102709333D01*
X126279523Y-102709333D01*
X126203333Y-102671238D01*
X126165238Y-102633142D01*
X126127142Y-102556952D01*
X126127142Y-102366476D01*
X126165238Y-102290285D01*
X126203333Y-102252190D01*
X126279523Y-102214095D01*
X126508095Y-102214095D01*
X126584285Y-102252190D01*
X126622380Y-102290285D01*
X125860476Y-103014095D02*
X125327142Y-103014095D01*
X125670000Y-102214095D01*
X128755714Y-100438095D02*
X128260476Y-100438095D01*
X128527142Y-100133333D01*
X128412857Y-100133333D01*
X128336666Y-100095238D01*
X128298571Y-100057142D01*
X128260476Y-99980952D01*
X128260476Y-99790476D01*
X128298571Y-99714285D01*
X128336666Y-99676190D01*
X128412857Y-99638095D01*
X128641428Y-99638095D01*
X128717619Y-99676190D01*
X128755714Y-99714285D01*
X127803333Y-100095238D02*
X127879523Y-100133333D01*
X127917619Y-100171428D01*
X127955714Y-100247619D01*
X127955714Y-100285714D01*
X127917619Y-100361904D01*
X127879523Y-100400000D01*
X127803333Y-100438095D01*
X127650952Y-100438095D01*
X127574761Y-100400000D01*
X127536666Y-100361904D01*
X127498571Y-100285714D01*
X127498571Y-100247619D01*
X127536666Y-100171428D01*
X127574761Y-100133333D01*
X127650952Y-100095238D01*
X127803333Y-100095238D01*
X127879523Y-100057142D01*
X127917619Y-100019047D01*
X127955714Y-99942857D01*
X127955714Y-99790476D01*
X127917619Y-99714285D01*
X127879523Y-99676190D01*
X127803333Y-99638095D01*
X127650952Y-99638095D01*
X127574761Y-99676190D01*
X127536666Y-99714285D01*
X127498571Y-99790476D01*
X127498571Y-99942857D01*
X127536666Y-100019047D01*
X127574761Y-100057142D01*
X127650952Y-100095238D01*
X126622380Y-100438095D02*
X126127142Y-100438095D01*
X126393809Y-100133333D01*
X126279523Y-100133333D01*
X126203333Y-100095238D01*
X126165238Y-100057142D01*
X126127142Y-99980952D01*
X126127142Y-99790476D01*
X126165238Y-99714285D01*
X126203333Y-99676190D01*
X126279523Y-99638095D01*
X126508095Y-99638095D01*
X126584285Y-99676190D01*
X126622380Y-99714285D01*
X125746190Y-99638095D02*
X125593809Y-99638095D01*
X125517619Y-99676190D01*
X125479523Y-99714285D01*
X125403333Y-99828571D01*
X125365238Y-99980952D01*
X125365238Y-100285714D01*
X125403333Y-100361904D01*
X125441428Y-100400000D01*
X125517619Y-100438095D01*
X125670000Y-100438095D01*
X125746190Y-100400000D01*
X125784285Y-100361904D01*
X125822380Y-100285714D01*
X125822380Y-100095238D01*
X125784285Y-100019047D01*
X125746190Y-99980952D01*
X125670000Y-99942857D01*
X125517619Y-99942857D01*
X125441428Y-99980952D01*
X125403333Y-100019047D01*
X125365238Y-100095238D01*
X128336666Y-97595428D02*
X128336666Y-97062095D01*
X128527142Y-97900190D02*
X128717619Y-97328761D01*
X128222380Y-97328761D01*
X127765238Y-97862095D02*
X127689047Y-97862095D01*
X127612857Y-97824000D01*
X127574761Y-97785904D01*
X127536666Y-97709714D01*
X127498571Y-97557333D01*
X127498571Y-97366857D01*
X127536666Y-97214476D01*
X127574761Y-97138285D01*
X127612857Y-97100190D01*
X127689047Y-97062095D01*
X127765238Y-97062095D01*
X127841428Y-97100190D01*
X127879523Y-97138285D01*
X127917619Y-97214476D01*
X127955714Y-97366857D01*
X127955714Y-97557333D01*
X127917619Y-97709714D01*
X127879523Y-97785904D01*
X127841428Y-97824000D01*
X127765238Y-97862095D01*
X126203333Y-97595428D02*
X126203333Y-97062095D01*
X126393809Y-97900190D02*
X126584285Y-97328761D01*
X126089047Y-97328761D01*
X125365238Y-97062095D02*
X125822380Y-97062095D01*
X125593809Y-97062095D02*
X125593809Y-97862095D01*
X125670000Y-97747809D01*
X125746190Y-97671619D01*
X125822380Y-97633523D01*
X128336666Y-95019428D02*
X128336666Y-94486095D01*
X128527142Y-95324190D02*
X128717619Y-94752761D01*
X128222380Y-94752761D01*
X127955714Y-95209904D02*
X127917619Y-95248000D01*
X127841428Y-95286095D01*
X127650952Y-95286095D01*
X127574761Y-95248000D01*
X127536666Y-95209904D01*
X127498571Y-95133714D01*
X127498571Y-95057523D01*
X127536666Y-94943238D01*
X127993809Y-94486095D01*
X127498571Y-94486095D01*
X126203333Y-95019428D02*
X126203333Y-94486095D01*
X126393809Y-95324190D02*
X126584285Y-94752761D01*
X126089047Y-94752761D01*
X125860476Y-95286095D02*
X125365238Y-95286095D01*
X125631904Y-94981333D01*
X125517619Y-94981333D01*
X125441428Y-94943238D01*
X125403333Y-94905142D01*
X125365238Y-94828952D01*
X125365238Y-94638476D01*
X125403333Y-94562285D01*
X125441428Y-94524190D01*
X125517619Y-94486095D01*
X125746190Y-94486095D01*
X125822380Y-94524190D01*
X125860476Y-94562285D01*
X128336666Y-92443428D02*
X128336666Y-91910095D01*
X128527142Y-92748190D02*
X128717619Y-92176761D01*
X128222380Y-92176761D01*
X127574761Y-92443428D02*
X127574761Y-91910095D01*
X127765238Y-92748190D02*
X127955714Y-92176761D01*
X127460476Y-92176761D01*
X126203333Y-92443428D02*
X126203333Y-91910095D01*
X126393809Y-92748190D02*
X126584285Y-92176761D01*
X126089047Y-92176761D01*
X125403333Y-92710095D02*
X125784285Y-92710095D01*
X125822380Y-92329142D01*
X125784285Y-92367238D01*
X125708095Y-92405333D01*
X125517619Y-92405333D01*
X125441428Y-92367238D01*
X125403333Y-92329142D01*
X125365238Y-92252952D01*
X125365238Y-92062476D01*
X125403333Y-91986285D01*
X125441428Y-91948190D01*
X125517619Y-91910095D01*
X125708095Y-91910095D01*
X125784285Y-91948190D01*
X125822380Y-91986285D01*
X128336666Y-89867428D02*
X128336666Y-89334095D01*
X128527142Y-90172190D02*
X128717619Y-89600761D01*
X128222380Y-89600761D01*
X127574761Y-90134095D02*
X127727142Y-90134095D01*
X127803333Y-90096000D01*
X127841428Y-90057904D01*
X127917619Y-89943619D01*
X127955714Y-89791238D01*
X127955714Y-89486476D01*
X127917619Y-89410285D01*
X127879523Y-89372190D01*
X127803333Y-89334095D01*
X127650952Y-89334095D01*
X127574761Y-89372190D01*
X127536666Y-89410285D01*
X127498571Y-89486476D01*
X127498571Y-89676952D01*
X127536666Y-89753142D01*
X127574761Y-89791238D01*
X127650952Y-89829333D01*
X127803333Y-89829333D01*
X127879523Y-89791238D01*
X127917619Y-89753142D01*
X127955714Y-89676952D01*
X126203333Y-89867428D02*
X126203333Y-89334095D01*
X126393809Y-90172190D02*
X126584285Y-89600761D01*
X126089047Y-89600761D01*
X125860476Y-90134095D02*
X125327142Y-90134095D01*
X125670000Y-89334095D01*
X128336666Y-87291428D02*
X128336666Y-86758095D01*
X128527142Y-87596190D02*
X128717619Y-87024761D01*
X128222380Y-87024761D01*
X127803333Y-87215238D02*
X127879523Y-87253333D01*
X127917619Y-87291428D01*
X127955714Y-87367619D01*
X127955714Y-87405714D01*
X127917619Y-87481904D01*
X127879523Y-87520000D01*
X127803333Y-87558095D01*
X127650952Y-87558095D01*
X127574761Y-87520000D01*
X127536666Y-87481904D01*
X127498571Y-87405714D01*
X127498571Y-87367619D01*
X127536666Y-87291428D01*
X127574761Y-87253333D01*
X127650952Y-87215238D01*
X127803333Y-87215238D01*
X127879523Y-87177142D01*
X127917619Y-87139047D01*
X127955714Y-87062857D01*
X127955714Y-86910476D01*
X127917619Y-86834285D01*
X127879523Y-86796190D01*
X127803333Y-86758095D01*
X127650952Y-86758095D01*
X127574761Y-86796190D01*
X127536666Y-86834285D01*
X127498571Y-86910476D01*
X127498571Y-87062857D01*
X127536666Y-87139047D01*
X127574761Y-87177142D01*
X127650952Y-87215238D01*
X126203333Y-87291428D02*
X126203333Y-86758095D01*
X126393809Y-87596190D02*
X126584285Y-87024761D01*
X126089047Y-87024761D01*
X125746190Y-86758095D02*
X125593809Y-86758095D01*
X125517619Y-86796190D01*
X125479523Y-86834285D01*
X125403333Y-86948571D01*
X125365238Y-87100952D01*
X125365238Y-87405714D01*
X125403333Y-87481904D01*
X125441428Y-87520000D01*
X125517619Y-87558095D01*
X125670000Y-87558095D01*
X125746190Y-87520000D01*
X125784285Y-87481904D01*
X125822380Y-87405714D01*
X125822380Y-87215238D01*
X125784285Y-87139047D01*
X125746190Y-87100952D01*
X125670000Y-87062857D01*
X125517619Y-87062857D01*
X125441428Y-87100952D01*
X125403333Y-87139047D01*
X125365238Y-87215238D01*
X128298571Y-84982095D02*
X128679523Y-84982095D01*
X128717619Y-84601142D01*
X128679523Y-84639238D01*
X128603333Y-84677333D01*
X128412857Y-84677333D01*
X128336666Y-84639238D01*
X128298571Y-84601142D01*
X128260476Y-84524952D01*
X128260476Y-84334476D01*
X128298571Y-84258285D01*
X128336666Y-84220190D01*
X128412857Y-84182095D01*
X128603333Y-84182095D01*
X128679523Y-84220190D01*
X128717619Y-84258285D01*
X127765238Y-84982095D02*
X127689047Y-84982095D01*
X127612857Y-84944000D01*
X127574761Y-84905904D01*
X127536666Y-84829714D01*
X127498571Y-84677333D01*
X127498571Y-84486857D01*
X127536666Y-84334476D01*
X127574761Y-84258285D01*
X127612857Y-84220190D01*
X127689047Y-84182095D01*
X127765238Y-84182095D01*
X127841428Y-84220190D01*
X127879523Y-84258285D01*
X127917619Y-84334476D01*
X127955714Y-84486857D01*
X127955714Y-84677333D01*
X127917619Y-84829714D01*
X127879523Y-84905904D01*
X127841428Y-84944000D01*
X127765238Y-84982095D01*
X84905904Y-127650952D02*
X84905904Y-128108095D01*
X84905904Y-127879523D02*
X84105904Y-127879523D01*
X84220190Y-127955714D01*
X84296380Y-128031904D01*
X84334476Y-128108095D01*
X84182095Y-126127142D02*
X84144000Y-126089047D01*
X84105904Y-126012857D01*
X84105904Y-125822380D01*
X84144000Y-125746190D01*
X84182095Y-125708095D01*
X84258285Y-125670000D01*
X84334476Y-125670000D01*
X84448761Y-125708095D01*
X84905904Y-126165238D01*
X84905904Y-125670000D01*
X86681904Y-128146190D02*
X86681904Y-127650952D01*
X86986666Y-127917619D01*
X86986666Y-127803333D01*
X87024761Y-127727142D01*
X87062857Y-127689047D01*
X87139047Y-127650952D01*
X87329523Y-127650952D01*
X87405714Y-127689047D01*
X87443809Y-127727142D01*
X87481904Y-127803333D01*
X87481904Y-128031904D01*
X87443809Y-128108095D01*
X87405714Y-128146190D01*
X86948571Y-125746190D02*
X87481904Y-125746190D01*
X86643809Y-125936666D02*
X87215238Y-126127142D01*
X87215238Y-125631904D01*
X89257904Y-127689047D02*
X89257904Y-128070000D01*
X89638857Y-128108095D01*
X89600761Y-128070000D01*
X89562666Y-127993809D01*
X89562666Y-127803333D01*
X89600761Y-127727142D01*
X89638857Y-127689047D01*
X89715047Y-127650952D01*
X89905523Y-127650952D01*
X89981714Y-127689047D01*
X90019809Y-127727142D01*
X90057904Y-127803333D01*
X90057904Y-127993809D01*
X90019809Y-128070000D01*
X89981714Y-128108095D01*
X89257904Y-125746190D02*
X89257904Y-125898571D01*
X89296000Y-125974761D01*
X89334095Y-126012857D01*
X89448380Y-126089047D01*
X89600761Y-126127142D01*
X89905523Y-126127142D01*
X89981714Y-126089047D01*
X90019809Y-126050952D01*
X90057904Y-125974761D01*
X90057904Y-125822380D01*
X90019809Y-125746190D01*
X89981714Y-125708095D01*
X89905523Y-125670000D01*
X89715047Y-125670000D01*
X89638857Y-125708095D01*
X89600761Y-125746190D01*
X89562666Y-125822380D01*
X89562666Y-125974761D01*
X89600761Y-126050952D01*
X89638857Y-126089047D01*
X89715047Y-126127142D01*
X91833904Y-128146190D02*
X91833904Y-127612857D01*
X92633904Y-127955714D01*
X92176761Y-125974761D02*
X92138666Y-126050952D01*
X92100571Y-126089047D01*
X92024380Y-126127142D01*
X91986285Y-126127142D01*
X91910095Y-126089047D01*
X91872000Y-126050952D01*
X91833904Y-125974761D01*
X91833904Y-125822380D01*
X91872000Y-125746190D01*
X91910095Y-125708095D01*
X91986285Y-125670000D01*
X92024380Y-125670000D01*
X92100571Y-125708095D01*
X92138666Y-125746190D01*
X92176761Y-125822380D01*
X92176761Y-125974761D01*
X92214857Y-126050952D01*
X92252952Y-126089047D01*
X92329142Y-126127142D01*
X92481523Y-126127142D01*
X92557714Y-126089047D01*
X92595809Y-126050952D01*
X92633904Y-125974761D01*
X92633904Y-125822380D01*
X92595809Y-125746190D01*
X92557714Y-125708095D01*
X92481523Y-125670000D01*
X92329142Y-125670000D01*
X92252952Y-125708095D01*
X92214857Y-125746190D01*
X92176761Y-125822380D01*
X95209904Y-128031904D02*
X95209904Y-127879523D01*
X95171809Y-127803333D01*
X95133714Y-127765238D01*
X95019428Y-127689047D01*
X94867047Y-127650952D01*
X94562285Y-127650952D01*
X94486095Y-127689047D01*
X94448000Y-127727142D01*
X94409904Y-127803333D01*
X94409904Y-127955714D01*
X94448000Y-128031904D01*
X94486095Y-128070000D01*
X94562285Y-128108095D01*
X94752761Y-128108095D01*
X94828952Y-128070000D01*
X94867047Y-128031904D01*
X94905142Y-127955714D01*
X94905142Y-127803333D01*
X94867047Y-127727142D01*
X94828952Y-127689047D01*
X94752761Y-127650952D01*
X95209904Y-126279523D02*
X95209904Y-126736666D01*
X95209904Y-126508095D02*
X94409904Y-126508095D01*
X94524190Y-126584285D01*
X94600380Y-126660476D01*
X94638476Y-126736666D01*
X94409904Y-125784285D02*
X94409904Y-125708095D01*
X94448000Y-125631904D01*
X94486095Y-125593809D01*
X94562285Y-125555714D01*
X94714666Y-125517619D01*
X94905142Y-125517619D01*
X95057523Y-125555714D01*
X95133714Y-125593809D01*
X95171809Y-125631904D01*
X95209904Y-125708095D01*
X95209904Y-125784285D01*
X95171809Y-125860476D01*
X95133714Y-125898571D01*
X95057523Y-125936666D01*
X94905142Y-125974761D01*
X94714666Y-125974761D01*
X94562285Y-125936666D01*
X94486095Y-125898571D01*
X94448000Y-125860476D01*
X94409904Y-125784285D01*
X97785904Y-128260476D02*
X97785904Y-128717619D01*
X97785904Y-128489047D02*
X96985904Y-128489047D01*
X97100190Y-128565238D01*
X97176380Y-128641428D01*
X97214476Y-128717619D01*
X97785904Y-127498571D02*
X97785904Y-127955714D01*
X97785904Y-127727142D02*
X96985904Y-127727142D01*
X97100190Y-127803333D01*
X97176380Y-127879523D01*
X97214476Y-127955714D01*
X97785904Y-126127142D02*
X97785904Y-126584285D01*
X97785904Y-126355714D02*
X96985904Y-126355714D01*
X97100190Y-126431904D01*
X97176380Y-126508095D01*
X97214476Y-126584285D01*
X97062095Y-125822380D02*
X97024000Y-125784285D01*
X96985904Y-125708095D01*
X96985904Y-125517619D01*
X97024000Y-125441428D01*
X97062095Y-125403333D01*
X97138285Y-125365238D01*
X97214476Y-125365238D01*
X97328761Y-125403333D01*
X97785904Y-125860476D01*
X97785904Y-125365238D01*
X100361904Y-128260476D02*
X100361904Y-128717619D01*
X100361904Y-128489047D02*
X99561904Y-128489047D01*
X99676190Y-128565238D01*
X99752380Y-128641428D01*
X99790476Y-128717619D01*
X99561904Y-127993809D02*
X99561904Y-127498571D01*
X99866666Y-127765238D01*
X99866666Y-127650952D01*
X99904761Y-127574761D01*
X99942857Y-127536666D01*
X100019047Y-127498571D01*
X100209523Y-127498571D01*
X100285714Y-127536666D01*
X100323809Y-127574761D01*
X100361904Y-127650952D01*
X100361904Y-127879523D01*
X100323809Y-127955714D01*
X100285714Y-127993809D01*
X100361904Y-126127142D02*
X100361904Y-126584285D01*
X100361904Y-126355714D02*
X99561904Y-126355714D01*
X99676190Y-126431904D01*
X99752380Y-126508095D01*
X99790476Y-126584285D01*
X99828571Y-125441428D02*
X100361904Y-125441428D01*
X99523809Y-125631904D02*
X100095238Y-125822380D01*
X100095238Y-125327142D01*
X102937904Y-128260476D02*
X102937904Y-128717619D01*
X102937904Y-128489047D02*
X102137904Y-128489047D01*
X102252190Y-128565238D01*
X102328380Y-128641428D01*
X102366476Y-128717619D01*
X102137904Y-127536666D02*
X102137904Y-127917619D01*
X102518857Y-127955714D01*
X102480761Y-127917619D01*
X102442666Y-127841428D01*
X102442666Y-127650952D01*
X102480761Y-127574761D01*
X102518857Y-127536666D01*
X102595047Y-127498571D01*
X102785523Y-127498571D01*
X102861714Y-127536666D01*
X102899809Y-127574761D01*
X102937904Y-127650952D01*
X102937904Y-127841428D01*
X102899809Y-127917619D01*
X102861714Y-127955714D01*
X102937904Y-126127142D02*
X102937904Y-126584285D01*
X102937904Y-126355714D02*
X102137904Y-126355714D01*
X102252190Y-126431904D01*
X102328380Y-126508095D01*
X102366476Y-126584285D01*
X102137904Y-125441428D02*
X102137904Y-125593809D01*
X102176000Y-125670000D01*
X102214095Y-125708095D01*
X102328380Y-125784285D01*
X102480761Y-125822380D01*
X102785523Y-125822380D01*
X102861714Y-125784285D01*
X102899809Y-125746190D01*
X102937904Y-125670000D01*
X102937904Y-125517619D01*
X102899809Y-125441428D01*
X102861714Y-125403333D01*
X102785523Y-125365238D01*
X102595047Y-125365238D01*
X102518857Y-125403333D01*
X102480761Y-125441428D01*
X102442666Y-125517619D01*
X102442666Y-125670000D01*
X102480761Y-125746190D01*
X102518857Y-125784285D01*
X102595047Y-125822380D01*
X105513904Y-128260476D02*
X105513904Y-128717619D01*
X105513904Y-128489047D02*
X104713904Y-128489047D01*
X104828190Y-128565238D01*
X104904380Y-128641428D01*
X104942476Y-128717619D01*
X104713904Y-127993809D02*
X104713904Y-127460476D01*
X105513904Y-127803333D01*
X105513904Y-126127142D02*
X105513904Y-126584285D01*
X105513904Y-126355714D02*
X104713904Y-126355714D01*
X104828190Y-126431904D01*
X104904380Y-126508095D01*
X104942476Y-126584285D01*
X105056761Y-125670000D02*
X105018666Y-125746190D01*
X104980571Y-125784285D01*
X104904380Y-125822380D01*
X104866285Y-125822380D01*
X104790095Y-125784285D01*
X104752000Y-125746190D01*
X104713904Y-125670000D01*
X104713904Y-125517619D01*
X104752000Y-125441428D01*
X104790095Y-125403333D01*
X104866285Y-125365238D01*
X104904380Y-125365238D01*
X104980571Y-125403333D01*
X105018666Y-125441428D01*
X105056761Y-125517619D01*
X105056761Y-125670000D01*
X105094857Y-125746190D01*
X105132952Y-125784285D01*
X105209142Y-125822380D01*
X105361523Y-125822380D01*
X105437714Y-125784285D01*
X105475809Y-125746190D01*
X105513904Y-125670000D01*
X105513904Y-125517619D01*
X105475809Y-125441428D01*
X105437714Y-125403333D01*
X105361523Y-125365238D01*
X105209142Y-125365238D01*
X105132952Y-125403333D01*
X105094857Y-125441428D01*
X105056761Y-125517619D01*
X108089904Y-128260476D02*
X108089904Y-128717619D01*
X108089904Y-128489047D02*
X107289904Y-128489047D01*
X107404190Y-128565238D01*
X107480380Y-128641428D01*
X107518476Y-128717619D01*
X108089904Y-127879523D02*
X108089904Y-127727142D01*
X108051809Y-127650952D01*
X108013714Y-127612857D01*
X107899428Y-127536666D01*
X107747047Y-127498571D01*
X107442285Y-127498571D01*
X107366095Y-127536666D01*
X107328000Y-127574761D01*
X107289904Y-127650952D01*
X107289904Y-127803333D01*
X107328000Y-127879523D01*
X107366095Y-127917619D01*
X107442285Y-127955714D01*
X107632761Y-127955714D01*
X107708952Y-127917619D01*
X107747047Y-127879523D01*
X107785142Y-127803333D01*
X107785142Y-127650952D01*
X107747047Y-127574761D01*
X107708952Y-127536666D01*
X107632761Y-127498571D01*
X107366095Y-126584285D02*
X107328000Y-126546190D01*
X107289904Y-126470000D01*
X107289904Y-126279523D01*
X107328000Y-126203333D01*
X107366095Y-126165238D01*
X107442285Y-126127142D01*
X107518476Y-126127142D01*
X107632761Y-126165238D01*
X108089904Y-126622380D01*
X108089904Y-126127142D01*
X107289904Y-125631904D02*
X107289904Y-125555714D01*
X107328000Y-125479523D01*
X107366095Y-125441428D01*
X107442285Y-125403333D01*
X107594666Y-125365238D01*
X107785142Y-125365238D01*
X107937523Y-125403333D01*
X108013714Y-125441428D01*
X108051809Y-125479523D01*
X108089904Y-125555714D01*
X108089904Y-125631904D01*
X108051809Y-125708095D01*
X108013714Y-125746190D01*
X107937523Y-125784285D01*
X107785142Y-125822380D01*
X107594666Y-125822380D01*
X107442285Y-125784285D01*
X107366095Y-125746190D01*
X107328000Y-125708095D01*
X107289904Y-125631904D01*
X109942095Y-128717619D02*
X109904000Y-128679523D01*
X109865904Y-128603333D01*
X109865904Y-128412857D01*
X109904000Y-128336666D01*
X109942095Y-128298571D01*
X110018285Y-128260476D01*
X110094476Y-128260476D01*
X110208761Y-128298571D01*
X110665904Y-128755714D01*
X110665904Y-128260476D01*
X110665904Y-127498571D02*
X110665904Y-127955714D01*
X110665904Y-127727142D02*
X109865904Y-127727142D01*
X109980190Y-127803333D01*
X110056380Y-127879523D01*
X110094476Y-127955714D01*
X109942095Y-126584285D02*
X109904000Y-126546190D01*
X109865904Y-126470000D01*
X109865904Y-126279523D01*
X109904000Y-126203333D01*
X109942095Y-126165238D01*
X110018285Y-126127142D01*
X110094476Y-126127142D01*
X110208761Y-126165238D01*
X110665904Y-126622380D01*
X110665904Y-126127142D01*
X109942095Y-125822380D02*
X109904000Y-125784285D01*
X109865904Y-125708095D01*
X109865904Y-125517619D01*
X109904000Y-125441428D01*
X109942095Y-125403333D01*
X110018285Y-125365238D01*
X110094476Y-125365238D01*
X110208761Y-125403333D01*
X110665904Y-125860476D01*
X110665904Y-125365238D01*
X112518095Y-128717619D02*
X112480000Y-128679523D01*
X112441904Y-128603333D01*
X112441904Y-128412857D01*
X112480000Y-128336666D01*
X112518095Y-128298571D01*
X112594285Y-128260476D01*
X112670476Y-128260476D01*
X112784761Y-128298571D01*
X113241904Y-128755714D01*
X113241904Y-128260476D01*
X112441904Y-127993809D02*
X112441904Y-127498571D01*
X112746666Y-127765238D01*
X112746666Y-127650952D01*
X112784761Y-127574761D01*
X112822857Y-127536666D01*
X112899047Y-127498571D01*
X113089523Y-127498571D01*
X113165714Y-127536666D01*
X113203809Y-127574761D01*
X113241904Y-127650952D01*
X113241904Y-127879523D01*
X113203809Y-127955714D01*
X113165714Y-127993809D01*
X112518095Y-126584285D02*
X112480000Y-126546190D01*
X112441904Y-126470000D01*
X112441904Y-126279523D01*
X112480000Y-126203333D01*
X112518095Y-126165238D01*
X112594285Y-126127142D01*
X112670476Y-126127142D01*
X112784761Y-126165238D01*
X113241904Y-126622380D01*
X113241904Y-126127142D01*
X112708571Y-125441428D02*
X113241904Y-125441428D01*
X112403809Y-125631904D02*
X112975238Y-125822380D01*
X112975238Y-125327142D01*
X115094095Y-128717619D02*
X115056000Y-128679523D01*
X115017904Y-128603333D01*
X115017904Y-128412857D01*
X115056000Y-128336666D01*
X115094095Y-128298571D01*
X115170285Y-128260476D01*
X115246476Y-128260476D01*
X115360761Y-128298571D01*
X115817904Y-128755714D01*
X115817904Y-128260476D01*
X115017904Y-127536666D02*
X115017904Y-127917619D01*
X115398857Y-127955714D01*
X115360761Y-127917619D01*
X115322666Y-127841428D01*
X115322666Y-127650952D01*
X115360761Y-127574761D01*
X115398857Y-127536666D01*
X115475047Y-127498571D01*
X115665523Y-127498571D01*
X115741714Y-127536666D01*
X115779809Y-127574761D01*
X115817904Y-127650952D01*
X115817904Y-127841428D01*
X115779809Y-127917619D01*
X115741714Y-127955714D01*
D11*
%TO.C,U1*%
X99238095Y-98952380D02*
X99238095Y-99761904D01*
X99285714Y-99857142D01*
X99333333Y-99904761D01*
X99428571Y-99952380D01*
X99619047Y-99952380D01*
X99714285Y-99904761D01*
X99761904Y-99857142D01*
X99809523Y-99761904D01*
X99809523Y-98952380D01*
X100809523Y-99952380D02*
X100238095Y-99952380D01*
X100523809Y-99952380D02*
X100523809Y-98952380D01*
X100428571Y-99095238D01*
X100333333Y-99190476D01*
X100238095Y-99238095D01*
%TO.C,J1*%
X81882380Y-121923333D02*
X82596666Y-121923333D01*
X82739523Y-121970952D01*
X82834761Y-122066190D01*
X82882380Y-122209047D01*
X82882380Y-122304285D01*
X82882380Y-120923333D02*
X82882380Y-121494761D01*
X82882380Y-121209047D02*
X81882380Y-121209047D01*
X82025238Y-121304285D01*
X82120476Y-121399523D01*
X82168095Y-121494761D01*
%TO.C,J4*%
X78076666Y-81882380D02*
X78076666Y-82596666D01*
X78029047Y-82739523D01*
X77933809Y-82834761D01*
X77790952Y-82882380D01*
X77695714Y-82882380D01*
X78981428Y-82215714D02*
X78981428Y-82882380D01*
X78743333Y-81834761D02*
X78505238Y-82549047D01*
X79124285Y-82549047D01*
%TO.C,J3*%
X118117619Y-78076666D02*
X117403333Y-78076666D01*
X117260476Y-78029047D01*
X117165238Y-77933809D01*
X117117619Y-77790952D01*
X117117619Y-77695714D01*
X118117619Y-78457619D02*
X118117619Y-79076666D01*
X117736666Y-78743333D01*
X117736666Y-78886190D01*
X117689047Y-78981428D01*
X117641428Y-79029047D01*
X117546190Y-79076666D01*
X117308095Y-79076666D01*
X117212857Y-79029047D01*
X117165238Y-78981428D01*
X117117619Y-78886190D01*
X117117619Y-78600476D01*
X117165238Y-78505238D01*
X117212857Y-78457619D01*
%TO.C,J2*%
X121256666Y-117022380D02*
X121256666Y-117736666D01*
X121209047Y-117879523D01*
X121113809Y-117974761D01*
X120970952Y-118022380D01*
X120875714Y-118022380D01*
X121685238Y-117117619D02*
X121732857Y-117070000D01*
X121828095Y-117022380D01*
X122066190Y-117022380D01*
X122161428Y-117070000D01*
X122209047Y-117117619D01*
X122256666Y-117212857D01*
X122256666Y-117308095D01*
X122209047Y-117450952D01*
X121637619Y-118022380D01*
X122256666Y-118022380D01*
D12*
%TO.C,U1*%
X117000000Y-83000000D02*
X117000000Y-117000000D01*
X83000000Y-83000000D02*
X83000000Y-117000000D01*
X117000000Y-117000000D02*
X83000000Y-117000000D01*
X83000000Y-83000000D02*
X117000000Y-83000000D01*
D13*
%TO.C,J1*%
X83430000Y-124190000D02*
X83430000Y-122860000D01*
X84760000Y-124190000D02*
X83430000Y-124190000D01*
X83430000Y-121590000D02*
X83430000Y-118990000D01*
X86030000Y-121590000D02*
X83430000Y-121590000D01*
X86030000Y-124190000D02*
X86030000Y-121590000D01*
X83430000Y-118990000D02*
X116570000Y-118990000D01*
X86030000Y-124190000D02*
X116570000Y-124190000D01*
X116570000Y-124190000D02*
X116570000Y-118990000D01*
%TO.C,J4*%
X75810000Y-83430000D02*
X77140000Y-83430000D01*
X75810000Y-84760000D02*
X75810000Y-83430000D01*
X78410000Y-83430000D02*
X81010000Y-83430000D01*
X78410000Y-86030000D02*
X78410000Y-83430000D01*
X75810000Y-86030000D02*
X78410000Y-86030000D01*
X81010000Y-83430000D02*
X81010000Y-116570000D01*
X75810000Y-86030000D02*
X75810000Y-116570000D01*
X75810000Y-116570000D02*
X81010000Y-116570000D01*
%TO.C,J3*%
X116570000Y-75810000D02*
X116570000Y-77140000D01*
X115240000Y-75810000D02*
X116570000Y-75810000D01*
X116570000Y-78410000D02*
X116570000Y-81010000D01*
X113970000Y-78410000D02*
X116570000Y-78410000D01*
X113970000Y-75810000D02*
X113970000Y-78410000D01*
X116570000Y-81010000D02*
X83430000Y-81010000D01*
X113970000Y-75810000D02*
X83430000Y-75810000D01*
X83430000Y-75810000D02*
X83430000Y-81010000D01*
%TO.C,J2*%
X124190000Y-116570000D02*
X122860000Y-116570000D01*
X124190000Y-115240000D02*
X124190000Y-116570000D01*
X121590000Y-116570000D02*
X118990000Y-116570000D01*
X121590000Y-113970000D02*
X121590000Y-116570000D01*
X124190000Y-113970000D02*
X121590000Y-113970000D01*
X118990000Y-116570000D02*
X118990000Y-83430000D01*
X124190000Y-113970000D02*
X124190000Y-83430000D01*
X124190000Y-83430000D02*
X118990000Y-83430000D01*
%TD*%
M02*
