%TF.GenerationSoftware,KiCad,Pcbnew,5.99.0-unknown-ad88874~101~ubuntu20.04.1*%
%TF.CreationDate,2020-05-19T21:35:34-04:00*%
%TF.ProjectId,L6205DIP,4c363230-3544-4495-902e-6b696361645f,rev?*%
%TF.SameCoordinates,Original*%
%TF.FileFunction,Copper,L1,Top*%
%TF.FilePolarity,Positive*%
%FSLAX46Y46*%
G04 Gerber Fmt 4.6, Leading zero omitted, Abs format (unit mm)*
G04 Created by KiCad (PCBNEW 5.99.0-unknown-ad88874~101~ubuntu20.04.1) date 2020-05-19 21:35:34*
%MOMM*%
%LPD*%
G01*
G04 APERTURE LIST*
%TA.AperFunction,ComponentPad*%
%ADD10R,1.700000X1.700000*%
%TD*%
%TA.AperFunction,ComponentPad*%
%ADD11O,1.700000X1.700000*%
%TD*%
%TA.AperFunction,ComponentPad*%
%ADD12O,2.400000X1.600000*%
%TD*%
%TA.AperFunction,ComponentPad*%
%ADD13R,2.400000X1.600000*%
%TD*%
%TA.AperFunction,ComponentPad*%
%ADD14C,1.500000*%
%TD*%
%TA.AperFunction,ViaPad*%
%ADD15C,0.800000*%
%TD*%
%TA.AperFunction,Conductor*%
%ADD16C,2.000000*%
%TD*%
%TA.AperFunction,Conductor*%
%ADD17C,1.000000*%
%TD*%
%TA.AperFunction,Conductor*%
%ADD18C,0.250000*%
%TD*%
%TA.AperFunction,Conductor*%
%ADD19C,0.254000*%
%TD*%
G04 APERTURE END LIST*
D10*
%TO.P,J1,1,Pin_1*%
%TO.N,/M1_B*%
X107000000Y-131500000D03*
D11*
%TO.P,J1,2,Pin_2*%
%TO.N,/M1_A*%
X104460000Y-131500000D03*
%TO.P,J1,3,Pin_3*%
%TO.N,/M2_B*%
X107000000Y-128960000D03*
%TO.P,J1,4,Pin_4*%
%TO.N,/M2_A*%
X104460000Y-128960000D03*
%TO.P,J1,5,Pin_5*%
%TO.N,GND*%
X107000000Y-126420000D03*
%TO.P,J1,6,Pin_6*%
X104460000Y-126420000D03*
%TO.P,J1,7,Pin_7*%
%TO.N,N/C*%
X107000000Y-123880000D03*
%TO.P,J1,8,Pin_8*%
%TO.N,/IN1_A*%
X104460000Y-123880000D03*
%TO.P,J1,9,Pin_9*%
%TO.N,GND*%
X107000000Y-121340000D03*
%TO.P,J1,10,Pin_10*%
%TO.N,/IN2_A*%
X104460000Y-121340000D03*
%TO.P,J1,11,Pin_11*%
%TO.N,GND*%
X107000000Y-118800000D03*
%TO.P,J1,12,Pin_12*%
%TO.N,/ENA_A*%
X104460000Y-118800000D03*
%TO.P,J1,13,Pin_13*%
%TO.N,GND*%
X107000000Y-116260000D03*
%TO.P,J1,14,Pin_14*%
%TO.N,/IN1_B*%
X104460000Y-116260000D03*
%TO.P,J1,15,Pin_15*%
%TO.N,GND*%
X107000000Y-113720000D03*
%TO.P,J1,16,Pin_16*%
%TO.N,/IN2_B*%
X104460000Y-113720000D03*
%TO.P,J1,17,Pin_17*%
%TO.N,GND*%
X107000000Y-111180000D03*
%TO.P,J1,18,Pin_18*%
%TO.N,/ENA_B*%
X104460000Y-111180000D03*
%TO.P,J1,19,Pin_19*%
%TO.N,GND*%
X107000000Y-108640000D03*
%TO.P,J1,20,Pin_20*%
X104460000Y-108640000D03*
%TO.P,J1,21,Pin_21*%
%TO.N,+12V*%
X107000000Y-106100000D03*
%TO.P,J1,22,Pin_22*%
X104460000Y-106100000D03*
%TO.P,J1,23,Pin_23*%
X107000000Y-103560000D03*
%TO.P,J1,24,Pin_24*%
X104460000Y-103560000D03*
%TD*%
%TO.P,C1,1*%
%TO.N,Net-(C1-Pad1)*%
%TA.AperFunction,SMDPad,CuDef*%
G36*
G01*
X128737500Y-115081250D02*
X128737500Y-114568750D01*
G75*
G02*
X128956250Y-114350000I218750J0D01*
G01*
X129393750Y-114350000D01*
G75*
G02*
X129612500Y-114568750I0J-218750D01*
G01*
X129612500Y-115081250D01*
G75*
G02*
X129393750Y-115300000I-218750J0D01*
G01*
X128956250Y-115300000D01*
G75*
G02*
X128737500Y-115081250I0J218750D01*
G01*
G37*
%TD.AperFunction*%
%TO.P,C1,2*%
%TO.N,GND*%
%TA.AperFunction,SMDPad,CuDef*%
G36*
G01*
X130312500Y-115081250D02*
X130312500Y-114568750D01*
G75*
G02*
X130531250Y-114350000I218750J0D01*
G01*
X130968750Y-114350000D01*
G75*
G02*
X131187500Y-114568750I0J-218750D01*
G01*
X131187500Y-115081250D01*
G75*
G02*
X130968750Y-115300000I-218750J0D01*
G01*
X130531250Y-115300000D01*
G75*
G02*
X130312500Y-115081250I0J218750D01*
G01*
G37*
%TD.AperFunction*%
%TD*%
%TO.P,C2,2*%
%TO.N,GND*%
%TA.AperFunction,SMDPad,CuDef*%
G36*
G01*
X130562500Y-126506250D02*
X130562500Y-125993750D01*
G75*
G02*
X130781250Y-125775000I218750J0D01*
G01*
X131218750Y-125775000D01*
G75*
G02*
X131437500Y-125993750I0J-218750D01*
G01*
X131437500Y-126506250D01*
G75*
G02*
X131218750Y-126725000I-218750J0D01*
G01*
X130781250Y-126725000D01*
G75*
G02*
X130562500Y-126506250I0J218750D01*
G01*
G37*
%TD.AperFunction*%
%TO.P,C2,1*%
%TO.N,Net-(C2-Pad1)*%
%TA.AperFunction,SMDPad,CuDef*%
G36*
G01*
X128987500Y-126506250D02*
X128987500Y-125993750D01*
G75*
G02*
X129206250Y-125775000I218750J0D01*
G01*
X129643750Y-125775000D01*
G75*
G02*
X129862500Y-125993750I0J-218750D01*
G01*
X129862500Y-126506250D01*
G75*
G02*
X129643750Y-126725000I-218750J0D01*
G01*
X129206250Y-126725000D01*
G75*
G02*
X128987500Y-126506250I0J218750D01*
G01*
G37*
%TD.AperFunction*%
%TD*%
%TO.P,C3,2*%
%TO.N,GND*%
%TA.AperFunction,SMDPad,CuDef*%
G36*
G01*
X123862500Y-100993750D02*
X123862500Y-101506250D01*
G75*
G02*
X123643750Y-101725000I-218750J0D01*
G01*
X123206250Y-101725000D01*
G75*
G02*
X122987500Y-101506250I0J218750D01*
G01*
X122987500Y-100993750D01*
G75*
G02*
X123206250Y-100775000I218750J0D01*
G01*
X123643750Y-100775000D01*
G75*
G02*
X123862500Y-100993750I0J-218750D01*
G01*
G37*
%TD.AperFunction*%
%TO.P,C3,1*%
%TO.N,+12V*%
%TA.AperFunction,SMDPad,CuDef*%
G36*
G01*
X125437500Y-100993750D02*
X125437500Y-101506250D01*
G75*
G02*
X125218750Y-101725000I-218750J0D01*
G01*
X124781250Y-101725000D01*
G75*
G02*
X124562500Y-101506250I0J218750D01*
G01*
X124562500Y-100993750D01*
G75*
G02*
X124781250Y-100775000I218750J0D01*
G01*
X125218750Y-100775000D01*
G75*
G02*
X125437500Y-100993750I0J-218750D01*
G01*
G37*
%TD.AperFunction*%
%TD*%
%TO.P,C5,2*%
%TO.N,/VBOOT*%
%TA.AperFunction,SMDPad,CuDef*%
G36*
G01*
X123862500Y-102743750D02*
X123862500Y-103256250D01*
G75*
G02*
X123643750Y-103475000I-218750J0D01*
G01*
X123206250Y-103475000D01*
G75*
G02*
X122987500Y-103256250I0J218750D01*
G01*
X122987500Y-102743750D01*
G75*
G02*
X123206250Y-102525000I218750J0D01*
G01*
X123643750Y-102525000D01*
G75*
G02*
X123862500Y-102743750I0J-218750D01*
G01*
G37*
%TD.AperFunction*%
%TO.P,C5,1*%
%TO.N,+12V*%
%TA.AperFunction,SMDPad,CuDef*%
G36*
G01*
X125437500Y-102743750D02*
X125437500Y-103256250D01*
G75*
G02*
X125218750Y-103475000I-218750J0D01*
G01*
X124781250Y-103475000D01*
G75*
G02*
X124562500Y-103256250I0J218750D01*
G01*
X124562500Y-102743750D01*
G75*
G02*
X124781250Y-102525000I218750J0D01*
G01*
X125218750Y-102525000D01*
G75*
G02*
X125437500Y-102743750I0J-218750D01*
G01*
G37*
%TD.AperFunction*%
%TD*%
%TO.P,C6,2*%
%TO.N,/VCP*%
%TA.AperFunction,SMDPad,CuDef*%
G36*
G01*
X124550000Y-106256250D02*
X124550000Y-105743750D01*
G75*
G02*
X124768750Y-105525000I218750J0D01*
G01*
X125206250Y-105525000D01*
G75*
G02*
X125425000Y-105743750I0J-218750D01*
G01*
X125425000Y-106256250D01*
G75*
G02*
X125206250Y-106475000I-218750J0D01*
G01*
X124768750Y-106475000D01*
G75*
G02*
X124550000Y-106256250I0J218750D01*
G01*
G37*
%TD.AperFunction*%
%TO.P,C6,1*%
%TO.N,Net-(C6-Pad1)*%
%TA.AperFunction,SMDPad,CuDef*%
G36*
G01*
X122975000Y-106256250D02*
X122975000Y-105743750D01*
G75*
G02*
X123193750Y-105525000I218750J0D01*
G01*
X123631250Y-105525000D01*
G75*
G02*
X123850000Y-105743750I0J-218750D01*
G01*
X123850000Y-106256250D01*
G75*
G02*
X123631250Y-106475000I-218750J0D01*
G01*
X123193750Y-106475000D01*
G75*
G02*
X122975000Y-106256250I0J218750D01*
G01*
G37*
%TD.AperFunction*%
%TD*%
%TO.P,R1,1*%
%TO.N,/ENA_A*%
%TA.AperFunction,SMDPad,CuDef*%
G36*
G01*
X131187500Y-116318750D02*
X131187500Y-116831250D01*
G75*
G02*
X130968750Y-117050000I-218750J0D01*
G01*
X130531250Y-117050000D01*
G75*
G02*
X130312500Y-116831250I0J218750D01*
G01*
X130312500Y-116318750D01*
G75*
G02*
X130531250Y-116100000I218750J0D01*
G01*
X130968750Y-116100000D01*
G75*
G02*
X131187500Y-116318750I0J-218750D01*
G01*
G37*
%TD.AperFunction*%
%TO.P,R1,2*%
%TO.N,Net-(C1-Pad1)*%
%TA.AperFunction,SMDPad,CuDef*%
G36*
G01*
X129612500Y-116318750D02*
X129612500Y-116831250D01*
G75*
G02*
X129393750Y-117050000I-218750J0D01*
G01*
X128956250Y-117050000D01*
G75*
G02*
X128737500Y-116831250I0J218750D01*
G01*
X128737500Y-116318750D01*
G75*
G02*
X128956250Y-116100000I218750J0D01*
G01*
X129393750Y-116100000D01*
G75*
G02*
X129612500Y-116318750I0J-218750D01*
G01*
G37*
%TD.AperFunction*%
%TD*%
%TO.P,R2,2*%
%TO.N,Net-(C2-Pad1)*%
%TA.AperFunction,SMDPad,CuDef*%
G36*
G01*
X129862500Y-124243750D02*
X129862500Y-124756250D01*
G75*
G02*
X129643750Y-124975000I-218750J0D01*
G01*
X129206250Y-124975000D01*
G75*
G02*
X128987500Y-124756250I0J218750D01*
G01*
X128987500Y-124243750D01*
G75*
G02*
X129206250Y-124025000I218750J0D01*
G01*
X129643750Y-124025000D01*
G75*
G02*
X129862500Y-124243750I0J-218750D01*
G01*
G37*
%TD.AperFunction*%
%TO.P,R2,1*%
%TO.N,/ENA_B*%
%TA.AperFunction,SMDPad,CuDef*%
G36*
G01*
X131437500Y-124243750D02*
X131437500Y-124756250D01*
G75*
G02*
X131218750Y-124975000I-218750J0D01*
G01*
X130781250Y-124975000D01*
G75*
G02*
X130562500Y-124756250I0J218750D01*
G01*
X130562500Y-124243750D01*
G75*
G02*
X130781250Y-124025000I218750J0D01*
G01*
X131218750Y-124025000D01*
G75*
G02*
X131437500Y-124243750I0J-218750D01*
G01*
G37*
%TD.AperFunction*%
%TD*%
%TO.P,R3,2*%
%TO.N,Net-(C6-Pad1)*%
%TA.AperFunction,SMDPad,CuDef*%
G36*
G01*
X114937500Y-106256250D02*
X114937500Y-105743750D01*
G75*
G02*
X115156250Y-105525000I218750J0D01*
G01*
X115593750Y-105525000D01*
G75*
G02*
X115812500Y-105743750I0J-218750D01*
G01*
X115812500Y-106256250D01*
G75*
G02*
X115593750Y-106475000I-218750J0D01*
G01*
X115156250Y-106475000D01*
G75*
G02*
X114937500Y-106256250I0J218750D01*
G01*
G37*
%TD.AperFunction*%
%TO.P,R3,1*%
%TO.N,Net-(D1-Pad1)*%
%TA.AperFunction,SMDPad,CuDef*%
G36*
G01*
X113362500Y-106256250D02*
X113362500Y-105743750D01*
G75*
G02*
X113581250Y-105525000I218750J0D01*
G01*
X114018750Y-105525000D01*
G75*
G02*
X114237500Y-105743750I0J-218750D01*
G01*
X114237500Y-106256250D01*
G75*
G02*
X114018750Y-106475000I-218750J0D01*
G01*
X113581250Y-106475000D01*
G75*
G02*
X113362500Y-106256250I0J218750D01*
G01*
G37*
%TD.AperFunction*%
%TD*%
%TO.P,C4,2*%
%TO.N,GND*%
%TA.AperFunction,SMDPad,CuDef*%
G36*
G01*
X129250000Y-107350000D02*
X131250000Y-107350000D01*
G75*
G02*
X131500000Y-107600000I0J-250000D01*
G01*
X131500000Y-111100000D01*
G75*
G02*
X131250000Y-111350000I-250000J0D01*
G01*
X129250000Y-111350000D01*
G75*
G02*
X129000000Y-111100000I0J250000D01*
G01*
X129000000Y-107600000D01*
G75*
G02*
X129250000Y-107350000I250000J0D01*
G01*
G37*
%TD.AperFunction*%
%TO.P,C4,1*%
%TO.N,+12V*%
%TA.AperFunction,SMDPad,CuDef*%
G36*
G01*
X129250000Y-101250000D02*
X131250000Y-101250000D01*
G75*
G02*
X131500000Y-101500000I0J-250000D01*
G01*
X131500000Y-105000000D01*
G75*
G02*
X131250000Y-105250000I-250000J0D01*
G01*
X129250000Y-105250000D01*
G75*
G02*
X129000000Y-105000000I0J250000D01*
G01*
X129000000Y-101500000D01*
G75*
G02*
X129250000Y-101250000I250000J0D01*
G01*
G37*
%TD.AperFunction*%
%TD*%
D12*
%TO.P,U1,20,EN*%
%TO.N,Net-(C1-Pad1)*%
X123870000Y-108750000D03*
%TO.P,U1,10,IN2*%
%TO.N,/IN2_B*%
X116250000Y-131610000D03*
%TO.P,U1,19,VCP*%
%TO.N,/VCP*%
X123870000Y-111290000D03*
%TO.P,U1,9,IN1*%
%TO.N,/IN1_B*%
X116250000Y-129070000D03*
%TO.P,U1,18,OUT2*%
%TO.N,/M2_A*%
X123870000Y-113830000D03*
%TO.P,U1,8,SNS*%
%TO.N,GND*%
X116250000Y-126530000D03*
%TO.P,U1,17,VS*%
%TO.N,+12V*%
X123870000Y-116370000D03*
%TO.P,U1,7,OUT1*%
%TO.N,/M1_B*%
X116250000Y-123990000D03*
%TO.P,U1,16,GND*%
%TO.N,GND*%
X123870000Y-118910000D03*
%TO.P,U1,6,GND*%
X116250000Y-121450000D03*
%TO.P,U1,15,GND*%
X123870000Y-121450000D03*
%TO.P,U1,5,GND*%
X116250000Y-118910000D03*
%TO.P,U1,14,VS*%
%TO.N,+12V*%
X123870000Y-123990000D03*
%TO.P,U1,4,OUT1*%
%TO.N,/M1_A*%
X116250000Y-116370000D03*
%TO.P,U1,13,OUT2*%
%TO.N,/M2_B*%
X123870000Y-126530000D03*
%TO.P,U1,3,SNS*%
%TO.N,GND*%
X116250000Y-113830000D03*
%TO.P,U1,12,VBOOT*%
%TO.N,/VBOOT*%
X123870000Y-129070000D03*
%TO.P,U1,2,IN2*%
%TO.N,/IN2_A*%
X116250000Y-111290000D03*
%TO.P,U1,11,EN*%
%TO.N,Net-(C2-Pad1)*%
X123870000Y-131610000D03*
D13*
%TO.P,U1,1,IN1*%
%TO.N,/IN1_A*%
X116250000Y-108750000D03*
%TD*%
D14*
%TO.P,M1,1,Pin_1*%
%TO.N,/M2_A*%
X111250000Y-133500000D03*
%TD*%
%TO.P,M2,1,Pin_1*%
%TO.N,/M2_B*%
X111250000Y-128250000D03*
%TD*%
%TA.AperFunction,SMDPad,CuDef*%
%TO.P,D2,1,K*%
%TO.N,/VBOOT*%
G36*
X119500000Y-103825000D02*
G01*
X118400000Y-103825000D01*
X118400000Y-103250000D01*
X118900000Y-103250000D01*
X118900000Y-102750000D01*
X118400000Y-102750000D01*
X118400000Y-102175000D01*
X119500000Y-102175000D01*
X119500000Y-103825000D01*
G37*
%TD.AperFunction*%
%TA.AperFunction,SMDPad,CuDef*%
%TO.P,D2,2,A*%
%TO.N,Net-(D1-Pad1)*%
G36*
X115000001Y-102175000D02*
G01*
X116100000Y-102175001D01*
X116100000Y-102750001D01*
X115600000Y-102750001D01*
X115599999Y-103250000D01*
X116100000Y-103250000D01*
X116099999Y-103825000D01*
X115000000Y-103825000D01*
X115000001Y-102175000D01*
G37*
%TD.AperFunction*%
%TD*%
%TA.AperFunction,SMDPad,CuDef*%
%TO.P,D1,2,A*%
%TO.N,+12V*%
G36*
X109150001Y-102175000D02*
G01*
X110250000Y-102175001D01*
X110250000Y-102750001D01*
X109750000Y-102750001D01*
X109749999Y-103250000D01*
X110250000Y-103250000D01*
X110249999Y-103825000D01*
X109150000Y-103825000D01*
X109150001Y-102175000D01*
G37*
%TD.AperFunction*%
%TA.AperFunction,SMDPad,CuDef*%
%TO.P,D1,1,K*%
%TO.N,Net-(D1-Pad1)*%
G36*
X113650000Y-103825000D02*
G01*
X112550000Y-103825000D01*
X112550000Y-103250000D01*
X113050000Y-103250000D01*
X113050000Y-102750000D01*
X112550000Y-102750000D01*
X112550000Y-102175000D01*
X113650000Y-102175000D01*
X113650000Y-103825000D01*
G37*
%TD.AperFunction*%
%TD*%
D15*
%TO.N,/ENA_B*%
X130434314Y-120815686D03*
X127592157Y-107407843D03*
%TO.N,/VBOOT*%
X120750000Y-104000000D03*
X123500000Y-104000000D03*
%TO.N,GND*%
X112250000Y-106000000D03*
X109750000Y-106000000D03*
X111000000Y-110400000D03*
%TO.N,/VCP*%
X125987500Y-106000000D03*
%TO.N,/VBOOT*%
X129250000Y-119500000D03*
%TO.N,/ENA_B*%
X118500000Y-110000000D03*
%TO.N,+12V*%
X127000000Y-101250000D03*
X127000000Y-103000000D03*
%TD*%
D16*
%TO.N,/M2_B*%
X113455780Y-132044220D02*
X111250011Y-129838451D01*
X115021569Y-133610010D02*
X113455780Y-132044220D01*
X113455780Y-132044220D02*
X112250000Y-130838441D01*
X111250011Y-129838451D02*
X111250011Y-128250000D01*
D17*
%TO.N,Net-(D1-Pad1)*%
X113350000Y-103000000D02*
X115300000Y-103000000D01*
D18*
%TO.N,/ENA_B*%
X131000000Y-121381372D02*
X130434314Y-120815686D01*
X131000000Y-124500000D02*
X131000000Y-121381372D01*
%TO.N,Net-(C2-Pad1)*%
X129250000Y-129500000D02*
X127625000Y-131125000D01*
X127625000Y-131125000D02*
X127140000Y-131610000D01*
X129425000Y-126250000D02*
X129425000Y-129325000D01*
X129425000Y-129325000D02*
X127625000Y-131125000D01*
X129425000Y-124500000D02*
X129425000Y-126250000D01*
%TO.N,Net-(C1-Pad1)*%
X129175000Y-114825000D02*
X129175000Y-116575000D01*
%TO.N,/ENA_A*%
X128250000Y-117750000D02*
X130500000Y-117750000D01*
X130500000Y-117750000D02*
X130750000Y-117500000D01*
X128000000Y-116641484D02*
X128000000Y-117500000D01*
X128000000Y-115325000D02*
X128000000Y-116641484D01*
X128000000Y-117500000D02*
X128250000Y-117750000D01*
X130750000Y-117500000D02*
X130750000Y-116575000D01*
%TO.N,Net-(C1-Pad1)*%
X129250000Y-115000000D02*
X129250000Y-112750000D01*
%TO.N,/ENA_B*%
X127592157Y-107407843D02*
X121657843Y-107407843D01*
X119065685Y-110000000D02*
X121657843Y-107407843D01*
%TO.N,/VBOOT*%
X120750000Y-104000000D02*
X120500000Y-104000000D01*
X120500000Y-104000000D02*
X119500000Y-103000000D01*
X123500000Y-104000000D02*
X123500000Y-103075000D01*
X123500000Y-103075000D02*
X123425000Y-103000000D01*
%TO.N,/ENA_A*%
X109655001Y-112544999D02*
X103895999Y-112544999D01*
X109655001Y-112544999D02*
X127294999Y-112544999D01*
X127294999Y-112544999D02*
X128000000Y-113250000D01*
%TO.N,/IN2_A*%
X115290000Y-111290000D02*
X113200000Y-109200000D01*
X116250000Y-111290000D02*
X115290000Y-111290000D01*
X107804999Y-110004999D02*
X103895999Y-110004999D01*
X113200000Y-109200000D02*
X108609998Y-109200000D01*
X108609998Y-109200000D02*
X107804999Y-110004999D01*
%TO.N,/IN1_A*%
X116250000Y-108750000D02*
X115150000Y-108750000D01*
X101000000Y-111000000D02*
X101000000Y-111200000D01*
X115150000Y-108750000D02*
X113675001Y-107275001D01*
X113675001Y-107275001D02*
X104085997Y-107275001D01*
X104085997Y-107275001D02*
X101000000Y-110360998D01*
X101000000Y-110360998D02*
X101000000Y-111000000D01*
%TO.N,/ENA_A*%
X102200000Y-114240998D02*
X102200000Y-118200000D01*
X102800000Y-118800000D02*
X104460000Y-118800000D01*
X103895999Y-112544999D02*
X102200000Y-114240998D01*
X102200000Y-118200000D02*
X102800000Y-118800000D01*
%TO.N,/IN2_A*%
X101500000Y-114940998D02*
X101500000Y-114100000D01*
X103895999Y-110004999D02*
X101500000Y-112400998D01*
X101500000Y-112400998D02*
X101500000Y-114100000D01*
%TO.N,/IN1_A*%
X101000000Y-122750000D02*
X101000000Y-111200000D01*
%TO.N,/VBOOT*%
X119500000Y-103000000D02*
X119500000Y-103700000D01*
%TO.N,Net-(C6-Pad1)*%
X120175000Y-106000000D02*
X123675000Y-106000000D01*
%TO.N,/VCP*%
X126250000Y-106000000D02*
X125250000Y-106000000D01*
%TO.N,/IN1_B*%
X116826014Y-120035010D02*
X111035010Y-120035010D01*
X119000000Y-122208996D02*
X116826014Y-120035010D01*
X119000000Y-127000000D02*
X119000000Y-122208996D01*
X111035010Y-120035010D02*
X108435001Y-117435001D01*
X108435001Y-117435001D02*
X105635001Y-117435001D01*
X105635001Y-117435001D02*
X104460000Y-116260000D01*
X116930000Y-129070000D02*
X119000000Y-127000000D01*
X116250000Y-129070000D02*
X116930000Y-129070000D01*
%TO.N,/VBOOT*%
X127000000Y-121750000D02*
X129250000Y-119500000D01*
X123870000Y-129070000D02*
X126430000Y-129070000D01*
X127000000Y-128500000D02*
X127000000Y-121750000D01*
X126430000Y-129070000D02*
X127000000Y-128500000D01*
%TO.N,/ENA_B*%
X118500000Y-110000000D02*
X119065685Y-110000000D01*
%TO.N,/ENA_A*%
X128000000Y-115325000D02*
X128000000Y-113250000D01*
D16*
%TO.N,/M2_B*%
X118110010Y-133610010D02*
X115021569Y-133610010D01*
X120250000Y-129461559D02*
X120250000Y-132250000D01*
X118110010Y-133610010D02*
X118889990Y-133610010D01*
X118889990Y-133610010D02*
X120250000Y-132250000D01*
X123870000Y-126530000D02*
X123181559Y-126530000D01*
X123181559Y-126530000D02*
X120250000Y-129461559D01*
D18*
%TO.N,/IN2_A*%
X101500000Y-120250000D02*
X101500000Y-114940998D01*
X104460000Y-121340000D02*
X102590000Y-121340000D01*
X102590000Y-121340000D02*
X101500000Y-120250000D01*
%TO.N,/IN1_A*%
X102130000Y-123880000D02*
X101000000Y-122750000D01*
X104460000Y-123880000D02*
X102130000Y-123880000D01*
D16*
%TO.N,/M2_A*%
X111250000Y-133500000D02*
X111049990Y-133700010D01*
X111049990Y-133700010D02*
X103626008Y-133700010D01*
X103626008Y-133700010D02*
X102409999Y-132484001D01*
X102409999Y-132484001D02*
X102409999Y-129807920D01*
X102409999Y-129807920D02*
X103257919Y-128960000D01*
X103257919Y-128960000D02*
X104460000Y-128960000D01*
%TO.N,/M1_B*%
X109050001Y-126449999D02*
X109050001Y-124949999D01*
X109050001Y-124949999D02*
X110010000Y-123990000D01*
X110010000Y-123990000D02*
X111510000Y-123990000D01*
X107494002Y-131500000D02*
X109050001Y-129944001D01*
X109050001Y-129944001D02*
X109050001Y-126449999D01*
X107000000Y-131500000D02*
X107494002Y-131500000D01*
X111510000Y-123990000D02*
X116250000Y-123990000D01*
D18*
%TO.N,Net-(C1-Pad1)*%
X128000000Y-111500000D02*
X128000000Y-109750000D01*
X129250000Y-112750000D02*
X128000000Y-111500000D01*
X128000000Y-109750000D02*
X127000000Y-108750000D01*
X127000000Y-108750000D02*
X123870000Y-108750000D01*
%TO.N,Net-(C2-Pad1)*%
X127140000Y-131610000D02*
X123870000Y-131610000D01*
%TO.N,Net-(C6-Pad1)*%
X115750000Y-106000000D02*
X120175000Y-106000000D01*
%TO.N,Net-(D1-Pad1)*%
X113775000Y-106000000D02*
X113775000Y-103425000D01*
X113775000Y-103425000D02*
X113350000Y-103000000D01*
%TD*%
%TO.N,GND*%
G36*
X122489705Y-100523346D02*
G01*
X122479961Y-100538508D01*
X122385660Y-100744999D01*
X122380582Y-100762293D01*
X122367753Y-100851525D01*
X122443117Y-100938500D01*
X123736500Y-100938501D01*
X123736499Y-101561500D01*
X122453910Y-101561499D01*
X122378258Y-101655377D01*
X122419902Y-101846809D01*
X122428532Y-101867643D01*
X122552484Y-102060517D01*
X122564287Y-102074138D01*
X122735846Y-102222795D01*
X122751008Y-102232539D01*
X122794074Y-102252206D01*
X122700924Y-102337957D01*
X122688098Y-102354435D01*
X122595630Y-102525302D01*
X122588850Y-102545052D01*
X122557733Y-102731526D01*
X122556872Y-102741914D01*
X122556872Y-103256783D01*
X122557356Y-103264583D01*
X122575088Y-103406831D01*
X122579936Y-103424437D01*
X122657451Y-103601157D01*
X122668873Y-103618638D01*
X122731458Y-103686623D01*
X122705820Y-103738955D01*
X122700140Y-103756916D01*
X122664171Y-103984016D01*
X122664023Y-104002853D01*
X122696420Y-104230490D01*
X122701818Y-104248538D01*
X122799718Y-104456586D01*
X122810183Y-104472248D01*
X122964929Y-104642313D01*
X122979538Y-104654206D01*
X123177450Y-104771250D01*
X123194909Y-104778322D01*
X123418487Y-104831998D01*
X123437254Y-104833624D01*
X123666732Y-104819187D01*
X123685147Y-104815222D01*
X123900235Y-104733947D01*
X123916670Y-104724742D01*
X124098352Y-104583816D01*
X124111354Y-104570185D01*
X124144065Y-104523642D01*
X124149652Y-104528483D01*
X124164815Y-104538227D01*
X124312735Y-104605779D01*
X124330028Y-104610857D01*
X124486522Y-104633358D01*
X124495500Y-104634000D01*
X127116000Y-104634000D01*
X127116000Y-104756754D01*
X127117444Y-104770184D01*
X127167183Y-104998832D01*
X127175813Y-105019666D01*
X127264953Y-105158371D01*
X127276756Y-105171992D01*
X127399652Y-105278483D01*
X127414815Y-105288227D01*
X127562735Y-105355779D01*
X127580028Y-105360857D01*
X127736522Y-105383358D01*
X127745500Y-105384000D01*
X128691313Y-105384000D01*
X128825339Y-105529591D01*
X128841818Y-105542417D01*
X129021616Y-105639718D01*
X129041366Y-105646498D01*
X129237858Y-105679287D01*
X129248246Y-105680148D01*
X131250451Y-105680148D01*
X131258251Y-105679664D01*
X131408073Y-105660988D01*
X131425679Y-105656140D01*
X131611699Y-105574545D01*
X131629180Y-105563124D01*
X131779591Y-105424661D01*
X131792417Y-105408182D01*
X131874243Y-105256980D01*
X131908371Y-105235047D01*
X131921992Y-105223244D01*
X132028483Y-105100348D01*
X132038227Y-105085185D01*
X132105779Y-104937265D01*
X132110857Y-104919972D01*
X132133358Y-104763478D01*
X132134000Y-104754500D01*
X132134000Y-100426000D01*
X133689960Y-100426000D01*
X133702502Y-100428370D01*
X133708603Y-100429216D01*
X133894691Y-100445823D01*
X134034816Y-100484158D01*
X134165937Y-100546699D01*
X134283896Y-100631462D01*
X134385001Y-100735794D01*
X134466020Y-100856364D01*
X134524410Y-100989377D01*
X134559119Y-101133956D01*
X134570387Y-101287370D01*
X134572297Y-101298820D01*
X134574001Y-101305292D01*
X134574000Y-133440683D01*
X134571309Y-133455493D01*
X134570505Y-133461599D01*
X134553016Y-133674327D01*
X134510405Y-133843968D01*
X134440656Y-134004380D01*
X134345652Y-134151235D01*
X134227929Y-134280610D01*
X134090658Y-134389019D01*
X133937532Y-134473550D01*
X133772649Y-134531938D01*
X133593000Y-134563939D01*
X133473890Y-134569555D01*
X133462393Y-134571166D01*
X133450357Y-134574000D01*
X119953223Y-134574000D01*
X119960949Y-134565419D01*
X119979209Y-134540286D01*
X121180279Y-133339217D01*
X121205409Y-133320959D01*
X121215224Y-133312122D01*
X121286181Y-133233315D01*
X121310325Y-133209172D01*
X121314741Y-133204268D01*
X121336222Y-133177739D01*
X121407196Y-133098915D01*
X121414959Y-133088231D01*
X121430492Y-133061327D01*
X121450040Y-133037186D01*
X121457232Y-133026111D01*
X121505385Y-132931608D01*
X121558408Y-132839769D01*
X121563780Y-132827704D01*
X121573378Y-132798161D01*
X121587480Y-132770485D01*
X121592214Y-132758155D01*
X121619666Y-132655701D01*
X121652436Y-132554848D01*
X121655181Y-132541930D01*
X121658428Y-132511042D01*
X121666469Y-132481033D01*
X121668535Y-132467989D01*
X121674085Y-132362083D01*
X121677655Y-132328115D01*
X121678000Y-132321526D01*
X121678000Y-132287375D01*
X121683550Y-132181483D01*
X121682859Y-132168294D01*
X121678000Y-132137616D01*
X121678000Y-131700802D01*
X122242628Y-131700802D01*
X122243535Y-131712320D01*
X122279728Y-131922952D01*
X122282718Y-131934112D01*
X122356690Y-132134621D01*
X122361664Y-132145050D01*
X122470937Y-132328721D01*
X122477728Y-132338067D01*
X122618643Y-132498751D01*
X122627024Y-132506704D01*
X122794862Y-132639015D01*
X122804551Y-132645308D01*
X122993690Y-132744819D01*
X123004364Y-132749241D01*
X123208864Y-132812739D01*
X123220990Y-132815234D01*
X123415280Y-132835655D01*
X123421870Y-132836000D01*
X124324166Y-132836000D01*
X124329934Y-132835736D01*
X124488600Y-132821156D01*
X124499959Y-132819050D01*
X124705654Y-132761039D01*
X124716440Y-132756899D01*
X124908119Y-132662373D01*
X124917970Y-132656336D01*
X125089214Y-132528463D01*
X125097800Y-132520732D01*
X125242873Y-132363793D01*
X125249906Y-132354627D01*
X125363950Y-132173879D01*
X125369195Y-132163585D01*
X125369428Y-132163000D01*
X127115864Y-132163000D01*
X127177789Y-132168417D01*
X127199751Y-132166496D01*
X127259791Y-132150409D01*
X127321031Y-132139610D01*
X127341748Y-132132070D01*
X127353451Y-132125313D01*
X127366502Y-132121816D01*
X127386484Y-132112498D01*
X127437404Y-132076843D01*
X127491251Y-132045755D01*
X127508140Y-132031583D01*
X127548107Y-131983952D01*
X128046846Y-131485214D01*
X128046855Y-131485203D01*
X128818969Y-130713089D01*
X129667444Y-129864615D01*
X129798953Y-129733106D01*
X129846583Y-129693140D01*
X129860754Y-129676251D01*
X129891840Y-129622409D01*
X129927498Y-129571484D01*
X129936815Y-129551504D01*
X129940312Y-129538454D01*
X129947070Y-129526748D01*
X129954610Y-129506031D01*
X129965409Y-129444792D01*
X129981496Y-129384754D01*
X129983417Y-129362791D01*
X129978000Y-129300866D01*
X129978000Y-127059723D01*
X129988657Y-127055048D01*
X130006138Y-127043627D01*
X130075559Y-126979720D01*
X130127484Y-127060517D01*
X130139287Y-127074138D01*
X130310846Y-127222795D01*
X130326008Y-127232539D01*
X130572741Y-127345219D01*
X130688500Y-127270825D01*
X130688500Y-126635309D01*
X131311500Y-126635309D01*
X131311500Y-127250432D01*
X131405378Y-127326084D01*
X131559309Y-127292598D01*
X131580143Y-127283968D01*
X131773017Y-127160016D01*
X131786638Y-127148213D01*
X131935295Y-126976654D01*
X131945039Y-126961492D01*
X132039340Y-126755001D01*
X132044418Y-126737707D01*
X132057247Y-126648475D01*
X131981883Y-126561500D01*
X131385309Y-126561500D01*
X131311500Y-126635309D01*
X130688500Y-126635309D01*
X130688500Y-125938500D01*
X131971089Y-125938500D01*
X132046740Y-125844623D01*
X132005098Y-125653191D01*
X131996468Y-125632357D01*
X131872516Y-125439483D01*
X131860713Y-125425862D01*
X131689154Y-125277205D01*
X131673992Y-125267461D01*
X131630926Y-125247794D01*
X131724076Y-125162043D01*
X131736902Y-125145565D01*
X131829370Y-124974698D01*
X131836150Y-124954948D01*
X131867267Y-124768474D01*
X131868128Y-124758086D01*
X131868128Y-124243217D01*
X131867644Y-124235417D01*
X131849912Y-124093169D01*
X131845064Y-124075563D01*
X131767549Y-123898843D01*
X131756127Y-123881362D01*
X131624543Y-123738424D01*
X131608064Y-123725598D01*
X131553000Y-123695799D01*
X131553000Y-121405505D01*
X131558418Y-121343583D01*
X131556497Y-121321619D01*
X131540406Y-121261566D01*
X131529610Y-121200341D01*
X131522069Y-121179621D01*
X131515313Y-121167920D01*
X131511817Y-121154872D01*
X131502499Y-121134888D01*
X131466837Y-121083959D01*
X131435755Y-121030122D01*
X131421583Y-121013233D01*
X131373958Y-120973270D01*
X131261176Y-120860488D01*
X131262425Y-120701461D01*
X131259626Y-120682330D01*
X131191943Y-120462326D01*
X131183789Y-120445345D01*
X131054549Y-120255173D01*
X131041762Y-120241341D01*
X130862317Y-120097578D01*
X130846028Y-120088116D01*
X130632243Y-120003473D01*
X130613892Y-119999219D01*
X130384670Y-119981179D01*
X130365880Y-119982510D01*
X130141486Y-120032668D01*
X130123918Y-120039465D01*
X129924192Y-120153386D01*
X129909399Y-120165048D01*
X129752000Y-120332660D01*
X129741290Y-120348156D01*
X129640134Y-120554641D01*
X129634454Y-120572602D01*
X129598485Y-120799702D01*
X129598337Y-120818539D01*
X129630734Y-121046176D01*
X129636132Y-121064224D01*
X129734032Y-121272272D01*
X129744497Y-121287934D01*
X129899243Y-121457999D01*
X129913852Y-121469892D01*
X130111764Y-121586936D01*
X130129223Y-121594008D01*
X130352801Y-121647684D01*
X130371568Y-121649310D01*
X130447001Y-121644564D01*
X130447000Y-123690277D01*
X130436343Y-123694952D01*
X130418862Y-123706373D01*
X130275924Y-123837957D01*
X130263098Y-123854435D01*
X130213373Y-123946319D01*
X130192549Y-123898843D01*
X130181127Y-123881362D01*
X130049543Y-123738424D01*
X130033065Y-123725598D01*
X129862198Y-123633130D01*
X129842448Y-123626350D01*
X129655974Y-123595233D01*
X129645586Y-123594372D01*
X129205717Y-123594372D01*
X129197917Y-123594856D01*
X129055669Y-123612588D01*
X129038063Y-123617436D01*
X128861343Y-123694951D01*
X128843862Y-123706373D01*
X128700924Y-123837957D01*
X128688098Y-123854435D01*
X128595630Y-124025302D01*
X128588850Y-124045052D01*
X128557733Y-124231526D01*
X128556872Y-124241914D01*
X128556872Y-124756783D01*
X128557356Y-124764583D01*
X128575088Y-124906831D01*
X128579936Y-124924437D01*
X128657451Y-125101157D01*
X128668873Y-125118638D01*
X128800457Y-125261576D01*
X128816935Y-125274401D01*
X128872000Y-125304201D01*
X128872001Y-125440276D01*
X128861343Y-125444951D01*
X128843862Y-125456373D01*
X128700924Y-125587957D01*
X128688098Y-125604435D01*
X128595630Y-125775302D01*
X128588850Y-125795052D01*
X128557733Y-125981526D01*
X128556872Y-125991914D01*
X128556872Y-126506783D01*
X128557356Y-126514583D01*
X128575088Y-126656831D01*
X128579936Y-126674437D01*
X128657451Y-126851157D01*
X128668873Y-126868638D01*
X128800457Y-127011576D01*
X128816936Y-127024402D01*
X128872000Y-127054201D01*
X128872001Y-129095940D01*
X127264797Y-130703145D01*
X127264786Y-130703154D01*
X126910941Y-131057000D01*
X125367656Y-131057000D01*
X125269063Y-130891279D01*
X125262272Y-130881933D01*
X125121357Y-130721249D01*
X125112976Y-130713296D01*
X124945138Y-130580985D01*
X124935449Y-130574692D01*
X124746310Y-130475181D01*
X124735636Y-130470759D01*
X124531136Y-130407261D01*
X124519010Y-130404766D01*
X124324720Y-130384345D01*
X124318130Y-130384000D01*
X123415834Y-130384000D01*
X123410066Y-130384264D01*
X123251400Y-130398844D01*
X123240041Y-130400950D01*
X123034346Y-130458961D01*
X123023560Y-130463101D01*
X122831881Y-130557627D01*
X122822030Y-130563664D01*
X122650786Y-130691537D01*
X122642200Y-130699268D01*
X122497127Y-130856207D01*
X122490094Y-130865373D01*
X122376050Y-131046121D01*
X122370805Y-131056415D01*
X122291609Y-131254920D01*
X122288328Y-131265998D01*
X122246634Y-131475610D01*
X122245426Y-131487100D01*
X122242628Y-131700802D01*
X121678000Y-131700802D01*
X121678000Y-130053054D01*
X122297331Y-129433723D01*
X122356690Y-129594621D01*
X122361664Y-129605050D01*
X122470937Y-129788721D01*
X122477728Y-129798067D01*
X122618643Y-129958751D01*
X122627024Y-129966704D01*
X122794862Y-130099015D01*
X122804551Y-130105308D01*
X122993690Y-130204819D01*
X123004364Y-130209241D01*
X123208864Y-130272739D01*
X123220990Y-130275234D01*
X123415280Y-130295655D01*
X123421870Y-130296000D01*
X124324166Y-130296000D01*
X124329934Y-130295736D01*
X124488600Y-130281156D01*
X124499959Y-130279050D01*
X124705654Y-130221039D01*
X124716440Y-130216899D01*
X124908119Y-130122373D01*
X124917970Y-130116336D01*
X125089214Y-129988463D01*
X125097800Y-129980732D01*
X125242873Y-129823793D01*
X125249906Y-129814627D01*
X125363950Y-129633879D01*
X125369195Y-129623585D01*
X125369428Y-129623000D01*
X126405864Y-129623000D01*
X126467789Y-129628417D01*
X126489751Y-129626496D01*
X126549791Y-129610409D01*
X126611031Y-129599610D01*
X126631748Y-129592070D01*
X126643451Y-129585313D01*
X126656502Y-129581816D01*
X126676484Y-129572498D01*
X126727404Y-129536843D01*
X126781251Y-129505755D01*
X126798140Y-129491583D01*
X126838107Y-129443952D01*
X127373966Y-128908095D01*
X127421583Y-128868140D01*
X127435755Y-128851250D01*
X127466837Y-128797413D01*
X127502499Y-128746484D01*
X127511817Y-128726500D01*
X127515313Y-128713452D01*
X127522069Y-128701751D01*
X127529610Y-128681031D01*
X127540406Y-128619806D01*
X127556497Y-128559753D01*
X127558418Y-128537790D01*
X127553000Y-128475854D01*
X127553000Y-121979058D01*
X129199186Y-120332873D01*
X129416732Y-120319187D01*
X129435147Y-120315222D01*
X129650235Y-120233947D01*
X129666670Y-120224742D01*
X129848351Y-120083816D01*
X129861354Y-120070186D01*
X129993566Y-119882068D01*
X130001985Y-119865217D01*
X130073116Y-119646303D01*
X130076215Y-119627218D01*
X130078111Y-119385775D01*
X130075312Y-119366644D01*
X130007629Y-119146640D01*
X129999475Y-119129659D01*
X129870235Y-118939487D01*
X129857448Y-118925655D01*
X129678003Y-118781892D01*
X129661714Y-118772430D01*
X129447929Y-118687787D01*
X129429578Y-118683533D01*
X129200356Y-118665493D01*
X129181566Y-118666824D01*
X128957172Y-118716982D01*
X128939604Y-118723779D01*
X128739878Y-118837700D01*
X128725085Y-118849362D01*
X128567686Y-119016974D01*
X128556976Y-119032470D01*
X128455820Y-119238955D01*
X128450140Y-119256916D01*
X128414171Y-119484016D01*
X128414023Y-119502853D01*
X128420385Y-119547556D01*
X126626048Y-121341894D01*
X126578418Y-121381860D01*
X126564247Y-121398749D01*
X126533165Y-121452584D01*
X126497502Y-121503516D01*
X126488184Y-121523498D01*
X126484686Y-121536552D01*
X126477931Y-121548253D01*
X126470390Y-121568969D01*
X126459594Y-121630199D01*
X126443504Y-121690249D01*
X126441583Y-121712211D01*
X126447001Y-121774147D01*
X126447000Y-128270939D01*
X126200941Y-128517000D01*
X125367656Y-128517000D01*
X125269063Y-128351279D01*
X125262272Y-128341933D01*
X125121357Y-128181249D01*
X125112976Y-128173296D01*
X124945138Y-128040985D01*
X124935449Y-128034692D01*
X124746310Y-127935181D01*
X124735636Y-127930759D01*
X124531136Y-127867261D01*
X124519010Y-127864766D01*
X124416331Y-127853974D01*
X124447704Y-127843780D01*
X124459769Y-127838408D01*
X124708230Y-127694959D01*
X124718915Y-127687196D01*
X124747196Y-127661731D01*
X124908119Y-127582373D01*
X124917970Y-127576336D01*
X125089214Y-127448463D01*
X125097800Y-127440732D01*
X125242873Y-127283793D01*
X125249906Y-127274627D01*
X125363950Y-127093879D01*
X125369195Y-127083585D01*
X125448391Y-126885080D01*
X125451672Y-126874002D01*
X125493366Y-126664390D01*
X125494574Y-126652900D01*
X125497372Y-126439198D01*
X125496465Y-126427680D01*
X125460272Y-126217048D01*
X125457282Y-126205888D01*
X125383310Y-126005379D01*
X125378336Y-125994950D01*
X125269063Y-125811279D01*
X125262272Y-125801933D01*
X125121357Y-125641249D01*
X125112976Y-125633296D01*
X124945138Y-125500985D01*
X124935449Y-125494692D01*
X124746310Y-125395181D01*
X124741601Y-125393230D01*
X124718915Y-125372804D01*
X124708230Y-125365041D01*
X124459769Y-125221592D01*
X124447704Y-125216220D01*
X124420579Y-125207407D01*
X124488600Y-125201156D01*
X124499959Y-125199050D01*
X124705654Y-125141039D01*
X124716440Y-125136899D01*
X124908119Y-125042373D01*
X124917970Y-125036336D01*
X125089214Y-124908463D01*
X125097800Y-124900732D01*
X125242873Y-124743793D01*
X125249906Y-124734627D01*
X125363950Y-124553879D01*
X125369195Y-124543585D01*
X125448391Y-124345080D01*
X125451672Y-124334002D01*
X125493366Y-124124390D01*
X125494574Y-124112900D01*
X125497372Y-123899198D01*
X125496465Y-123887680D01*
X125460272Y-123677048D01*
X125457282Y-123665888D01*
X125383310Y-123465379D01*
X125378336Y-123454950D01*
X125269063Y-123271279D01*
X125262272Y-123261933D01*
X125121357Y-123101249D01*
X125112976Y-123093296D01*
X124945138Y-122960985D01*
X124935449Y-122954692D01*
X124746310Y-122855181D01*
X124735636Y-122850759D01*
X124664862Y-122828783D01*
X124756996Y-122804096D01*
X124767335Y-122800333D01*
X124984734Y-122698958D01*
X124994262Y-122693457D01*
X125190755Y-122555871D01*
X125199183Y-122548798D01*
X125368798Y-122379183D01*
X125375871Y-122370755D01*
X125513457Y-122174262D01*
X125518958Y-122164734D01*
X125623473Y-121940600D01*
X125549190Y-121824000D01*
X122190810Y-121824000D01*
X122116527Y-121940600D01*
X122221042Y-122164734D01*
X122226543Y-122174262D01*
X122364129Y-122370755D01*
X122371202Y-122379183D01*
X122540817Y-122548798D01*
X122549245Y-122555871D01*
X122745738Y-122693457D01*
X122755266Y-122698958D01*
X122972665Y-122800333D01*
X122983004Y-122804096D01*
X123072726Y-122828137D01*
X123034346Y-122838961D01*
X123023560Y-122843101D01*
X122831881Y-122937627D01*
X122822030Y-122943664D01*
X122650786Y-123071537D01*
X122642200Y-123079268D01*
X122497127Y-123236207D01*
X122490094Y-123245373D01*
X122376050Y-123426121D01*
X122370805Y-123436415D01*
X122291609Y-123634920D01*
X122288328Y-123645998D01*
X122246634Y-123855610D01*
X122245426Y-123867100D01*
X122242628Y-124080802D01*
X122243535Y-124092320D01*
X122279728Y-124302952D01*
X122282718Y-124314112D01*
X122356690Y-124514621D01*
X122361664Y-124525050D01*
X122470937Y-124708721D01*
X122477728Y-124718067D01*
X122618643Y-124878751D01*
X122627024Y-124886704D01*
X122794862Y-125019015D01*
X122804551Y-125025308D01*
X122967881Y-125111240D01*
X122963569Y-125111466D01*
X122950524Y-125113532D01*
X122920524Y-125121571D01*
X122889630Y-125124818D01*
X122876712Y-125127564D01*
X122775857Y-125160334D01*
X122673404Y-125187787D01*
X122661074Y-125192520D01*
X122633398Y-125206622D01*
X122603855Y-125216220D01*
X122591790Y-125221592D01*
X122499938Y-125274622D01*
X122405446Y-125322769D01*
X122394371Y-125329962D01*
X122370234Y-125349507D01*
X122343329Y-125365040D01*
X122332645Y-125372803D01*
X122253832Y-125443767D01*
X122227289Y-125465261D01*
X122222385Y-125469677D01*
X122198244Y-125493819D01*
X122119437Y-125564776D01*
X122110600Y-125574591D01*
X122092342Y-125599721D01*
X119319724Y-128372340D01*
X119294591Y-128390600D01*
X119284776Y-128399437D01*
X119213813Y-128478251D01*
X119189676Y-128502387D01*
X119185261Y-128507290D01*
X119163779Y-128533818D01*
X119092803Y-128612646D01*
X119085040Y-128623331D01*
X119069508Y-128650234D01*
X119049962Y-128674372D01*
X119042769Y-128685447D01*
X118994622Y-128779939D01*
X118941592Y-128871791D01*
X118936220Y-128883856D01*
X118926622Y-128913399D01*
X118912520Y-128941075D01*
X118907787Y-128953405D01*
X118880334Y-129055858D01*
X118847564Y-129156713D01*
X118844818Y-129169631D01*
X118841571Y-129200525D01*
X118833532Y-129230525D01*
X118831466Y-129243570D01*
X118825917Y-129349459D01*
X118822345Y-129383444D01*
X118822000Y-129390034D01*
X118822000Y-129424203D01*
X118816451Y-129530076D01*
X118817142Y-129543265D01*
X118822000Y-129573937D01*
X118822001Y-131658504D01*
X118298495Y-132182010D01*
X117738820Y-132182010D01*
X117743950Y-132173879D01*
X117749195Y-132163585D01*
X117828391Y-131965080D01*
X117831672Y-131954002D01*
X117873366Y-131744390D01*
X117874574Y-131732900D01*
X117877372Y-131519198D01*
X117876465Y-131507680D01*
X117840272Y-131297048D01*
X117837282Y-131285888D01*
X117763310Y-131085379D01*
X117758336Y-131074950D01*
X117649063Y-130891279D01*
X117642272Y-130881933D01*
X117501357Y-130721249D01*
X117492976Y-130713296D01*
X117325138Y-130580985D01*
X117315449Y-130574692D01*
X117126310Y-130475181D01*
X117115636Y-130470759D01*
X116911136Y-130407261D01*
X116899010Y-130404766D01*
X116704720Y-130384345D01*
X116698130Y-130384000D01*
X115795834Y-130384000D01*
X115790066Y-130384264D01*
X115631400Y-130398844D01*
X115620041Y-130400950D01*
X115414346Y-130458961D01*
X115403560Y-130463101D01*
X115211881Y-130557627D01*
X115202030Y-130563664D01*
X115030786Y-130691537D01*
X115022200Y-130699268D01*
X114877127Y-130856207D01*
X114870094Y-130865373D01*
X114756050Y-131046121D01*
X114750805Y-131056415D01*
X114675706Y-131244651D01*
X114516253Y-131085198D01*
X114516236Y-131085179D01*
X114191442Y-130760386D01*
X112678011Y-129246956D01*
X112678011Y-128178475D01*
X112677666Y-128171885D01*
X112655192Y-127958070D01*
X112652447Y-127945152D01*
X112563791Y-127672296D01*
X112558419Y-127660231D01*
X112414971Y-127411770D01*
X112407208Y-127401086D01*
X112215235Y-127187878D01*
X112205420Y-127179041D01*
X111973316Y-127010408D01*
X111961878Y-127003804D01*
X111699783Y-126887111D01*
X111687223Y-126883030D01*
X111406595Y-126823381D01*
X111393460Y-126822001D01*
X111106563Y-126822001D01*
X111093428Y-126823381D01*
X110812800Y-126883030D01*
X110800239Y-126887112D01*
X110538146Y-127003804D01*
X110526708Y-127010407D01*
X110478001Y-127045795D01*
X110478001Y-125541495D01*
X110601497Y-125418000D01*
X114937998Y-125418000D01*
X114929245Y-125424129D01*
X114920817Y-125431202D01*
X114751202Y-125600817D01*
X114744129Y-125609245D01*
X114606543Y-125805738D01*
X114601042Y-125815266D01*
X114496527Y-126039400D01*
X114570810Y-126156000D01*
X117929190Y-126156000D01*
X118003473Y-126039400D01*
X117898958Y-125815266D01*
X117893457Y-125805738D01*
X117755871Y-125609245D01*
X117748798Y-125600817D01*
X117579183Y-125431202D01*
X117570755Y-125424129D01*
X117374262Y-125286543D01*
X117364734Y-125281042D01*
X117147335Y-125179667D01*
X117136996Y-125175904D01*
X117078910Y-125160340D01*
X117088230Y-125154959D01*
X117098915Y-125147196D01*
X117127196Y-125121731D01*
X117288119Y-125042373D01*
X117297970Y-125036336D01*
X117469214Y-124908463D01*
X117477800Y-124900732D01*
X117622873Y-124743793D01*
X117629906Y-124734627D01*
X117743950Y-124553879D01*
X117749195Y-124543585D01*
X117828391Y-124345080D01*
X117831672Y-124334002D01*
X117873366Y-124124390D01*
X117874574Y-124112900D01*
X117877372Y-123899198D01*
X117876465Y-123887680D01*
X117840272Y-123677048D01*
X117837282Y-123665888D01*
X117763310Y-123465379D01*
X117758336Y-123454950D01*
X117649063Y-123271279D01*
X117642272Y-123261933D01*
X117501357Y-123101249D01*
X117492976Y-123093296D01*
X117325138Y-122960985D01*
X117315449Y-122954692D01*
X117126310Y-122855181D01*
X117121601Y-122853230D01*
X117098915Y-122832804D01*
X117088230Y-122825041D01*
X117078910Y-122819660D01*
X117136996Y-122804096D01*
X117147335Y-122800333D01*
X117364734Y-122698958D01*
X117374262Y-122693457D01*
X117570755Y-122555871D01*
X117579183Y-122548798D01*
X117748798Y-122379183D01*
X117755871Y-122370755D01*
X117893457Y-122174262D01*
X117898958Y-122164734D01*
X117986323Y-121977379D01*
X118447001Y-122438057D01*
X118447000Y-126770941D01*
X117228825Y-127989117D01*
X117126310Y-127935181D01*
X117115636Y-127930759D01*
X117044862Y-127908783D01*
X117136996Y-127884096D01*
X117147335Y-127880333D01*
X117364734Y-127778958D01*
X117374262Y-127773457D01*
X117570755Y-127635871D01*
X117579183Y-127628798D01*
X117748798Y-127459183D01*
X117755871Y-127450755D01*
X117893457Y-127254262D01*
X117898958Y-127244734D01*
X118003473Y-127020600D01*
X117929190Y-126904000D01*
X114570810Y-126904000D01*
X114496527Y-127020600D01*
X114601042Y-127244734D01*
X114606543Y-127254262D01*
X114744129Y-127450755D01*
X114751202Y-127459183D01*
X114920817Y-127628798D01*
X114929245Y-127635871D01*
X115125738Y-127773457D01*
X115135266Y-127778958D01*
X115352665Y-127880333D01*
X115363004Y-127884096D01*
X115452726Y-127908137D01*
X115414346Y-127918961D01*
X115403560Y-127923101D01*
X115211881Y-128017627D01*
X115202030Y-128023664D01*
X115030786Y-128151537D01*
X115022200Y-128159268D01*
X114877127Y-128316207D01*
X114870094Y-128325373D01*
X114756050Y-128506121D01*
X114750805Y-128516415D01*
X114671609Y-128714920D01*
X114668328Y-128725998D01*
X114626634Y-128935610D01*
X114625426Y-128947100D01*
X114622628Y-129160802D01*
X114623535Y-129172320D01*
X114659728Y-129382952D01*
X114662718Y-129394112D01*
X114736690Y-129594621D01*
X114741664Y-129605050D01*
X114850937Y-129788721D01*
X114857728Y-129798067D01*
X114998643Y-129958751D01*
X115007024Y-129966704D01*
X115174862Y-130099015D01*
X115184551Y-130105308D01*
X115373690Y-130204819D01*
X115384364Y-130209241D01*
X115588864Y-130272739D01*
X115600990Y-130275234D01*
X115795280Y-130295655D01*
X115801870Y-130296000D01*
X116704166Y-130296000D01*
X116709934Y-130295736D01*
X116868600Y-130281156D01*
X116879959Y-130279050D01*
X117085654Y-130221039D01*
X117096440Y-130216899D01*
X117288119Y-130122373D01*
X117297970Y-130116336D01*
X117469214Y-129988463D01*
X117477800Y-129980732D01*
X117622873Y-129823793D01*
X117629906Y-129814627D01*
X117743950Y-129633879D01*
X117749195Y-129623585D01*
X117828391Y-129425080D01*
X117831672Y-129414002D01*
X117873366Y-129204390D01*
X117874574Y-129192900D01*
X117877372Y-128979198D01*
X117876465Y-128967680D01*
X117867361Y-128914697D01*
X119373956Y-127408103D01*
X119421582Y-127368140D01*
X119435754Y-127351251D01*
X119466841Y-127297409D01*
X119502499Y-127246484D01*
X119511817Y-127226501D01*
X119515314Y-127213450D01*
X119522070Y-127201748D01*
X119529611Y-127181030D01*
X119540407Y-127119798D01*
X119556496Y-127059753D01*
X119558417Y-127037790D01*
X119553000Y-126975865D01*
X119553000Y-122233117D01*
X119558417Y-122171206D01*
X119556496Y-122149243D01*
X119540409Y-122089204D01*
X119529610Y-122027965D01*
X119522070Y-122007248D01*
X119515312Y-121995542D01*
X119511815Y-121982492D01*
X119502498Y-121962512D01*
X119466840Y-121911587D01*
X119435754Y-121857745D01*
X119421583Y-121840856D01*
X119373957Y-121800894D01*
X117580522Y-120007460D01*
X117748798Y-119839183D01*
X117755871Y-119830755D01*
X117893457Y-119634262D01*
X117898958Y-119624734D01*
X118003473Y-119400600D01*
X122116527Y-119400600D01*
X122221042Y-119624734D01*
X122226543Y-119634262D01*
X122364129Y-119830755D01*
X122371202Y-119839183D01*
X122540817Y-120008798D01*
X122549245Y-120015871D01*
X122745738Y-120153457D01*
X122755266Y-120158958D01*
X122800391Y-120180000D01*
X122755266Y-120201042D01*
X122745738Y-120206543D01*
X122549245Y-120344129D01*
X122540817Y-120351202D01*
X122371202Y-120520817D01*
X122364129Y-120529245D01*
X122226543Y-120725738D01*
X122221042Y-120735266D01*
X122116527Y-120959400D01*
X122190810Y-121076000D01*
X123422191Y-121076000D01*
X123496000Y-121002191D01*
X123496000Y-119357809D01*
X124244000Y-119357809D01*
X124244000Y-121002191D01*
X124317809Y-121076000D01*
X125549190Y-121076000D01*
X125623473Y-120959400D01*
X125518958Y-120735266D01*
X125513457Y-120725738D01*
X125375871Y-120529245D01*
X125368798Y-120520817D01*
X125199183Y-120351202D01*
X125190755Y-120344129D01*
X124994262Y-120206543D01*
X124984734Y-120201042D01*
X124939609Y-120180000D01*
X124984734Y-120158958D01*
X124994262Y-120153457D01*
X125190755Y-120015871D01*
X125199183Y-120008798D01*
X125368798Y-119839183D01*
X125375871Y-119830755D01*
X125513457Y-119634262D01*
X125518958Y-119624734D01*
X125623473Y-119400600D01*
X125549190Y-119284000D01*
X124317809Y-119284000D01*
X124244000Y-119357809D01*
X123496000Y-119357809D01*
X123422191Y-119284000D01*
X122190810Y-119284000D01*
X122116527Y-119400600D01*
X118003473Y-119400600D01*
X117929190Y-119284000D01*
X116697809Y-119284000D01*
X116624000Y-119357809D01*
X116624000Y-119482010D01*
X115876000Y-119482010D01*
X115876000Y-119357809D01*
X115802191Y-119284000D01*
X114570810Y-119284000D01*
X114496527Y-119400600D01*
X114534489Y-119482010D01*
X111264069Y-119482010D01*
X108843112Y-117061054D01*
X108803141Y-117013418D01*
X108786252Y-116999247D01*
X108732406Y-116968159D01*
X108681485Y-116932503D01*
X108661503Y-116923185D01*
X108648452Y-116919688D01*
X108636749Y-116912931D01*
X108616032Y-116905391D01*
X108554792Y-116894592D01*
X108494752Y-116878505D01*
X108472790Y-116876584D01*
X108410865Y-116882001D01*
X108351806Y-116882001D01*
X108404016Y-116742361D01*
X108328843Y-116634000D01*
X107447808Y-116634000D01*
X107373999Y-116707809D01*
X107373999Y-116882001D01*
X106626001Y-116882001D01*
X106626001Y-115065809D01*
X106626000Y-115065808D01*
X106626000Y-114928888D01*
X106626000Y-114167809D01*
X107373999Y-114167809D01*
X107373999Y-114914191D01*
X107374000Y-114914192D01*
X107374000Y-115812192D01*
X107447809Y-115886001D01*
X108328871Y-115886001D01*
X108404192Y-115779622D01*
X108359723Y-115653343D01*
X108355339Y-115643612D01*
X108238067Y-115432916D01*
X108232107Y-115424064D01*
X108081013Y-115236140D01*
X108073647Y-115228417D01*
X107893049Y-115068638D01*
X107884486Y-115062267D01*
X107767887Y-114989973D01*
X107861330Y-114934491D01*
X107870012Y-114928286D01*
X108053645Y-114772004D01*
X108061158Y-114764424D01*
X108215833Y-114579435D01*
X108221962Y-114570698D01*
X108343256Y-114362294D01*
X108347825Y-114352649D01*
X108359807Y-114320600D01*
X114496527Y-114320600D01*
X114601042Y-114544734D01*
X114606543Y-114554262D01*
X114744129Y-114750755D01*
X114751202Y-114759183D01*
X114920817Y-114928798D01*
X114929245Y-114935871D01*
X115125738Y-115073457D01*
X115135266Y-115078958D01*
X115352665Y-115180333D01*
X115363004Y-115184096D01*
X115452726Y-115208137D01*
X115414346Y-115218961D01*
X115403560Y-115223101D01*
X115211881Y-115317627D01*
X115202030Y-115323664D01*
X115030786Y-115451537D01*
X115022200Y-115459268D01*
X114877127Y-115616207D01*
X114870094Y-115625373D01*
X114756050Y-115806121D01*
X114750805Y-115816415D01*
X114671609Y-116014920D01*
X114668328Y-116025998D01*
X114626634Y-116235610D01*
X114625426Y-116247100D01*
X114622628Y-116460802D01*
X114623535Y-116472320D01*
X114659728Y-116682952D01*
X114662718Y-116694112D01*
X114736690Y-116894621D01*
X114741664Y-116905050D01*
X114850937Y-117088721D01*
X114857728Y-117098067D01*
X114998643Y-117258751D01*
X115007024Y-117266704D01*
X115174862Y-117399015D01*
X115184551Y-117405308D01*
X115373690Y-117504819D01*
X115384364Y-117509241D01*
X115455138Y-117531217D01*
X115363004Y-117555904D01*
X115352665Y-117559667D01*
X115135266Y-117661042D01*
X115125738Y-117666543D01*
X114929245Y-117804129D01*
X114920817Y-117811202D01*
X114751202Y-117980817D01*
X114744129Y-117989245D01*
X114606543Y-118185738D01*
X114601042Y-118195266D01*
X114496527Y-118419400D01*
X114570810Y-118536000D01*
X117929190Y-118536000D01*
X118003473Y-118419400D01*
X122116527Y-118419400D01*
X122190810Y-118536000D01*
X125549190Y-118536000D01*
X125623473Y-118419400D01*
X125518958Y-118195266D01*
X125513457Y-118185738D01*
X125375871Y-117989245D01*
X125368798Y-117980817D01*
X125199183Y-117811202D01*
X125190755Y-117804129D01*
X124994262Y-117666543D01*
X124984734Y-117661042D01*
X124767335Y-117559667D01*
X124756996Y-117555904D01*
X124667274Y-117531863D01*
X124705654Y-117521039D01*
X124716440Y-117516899D01*
X124908119Y-117422373D01*
X124917970Y-117416336D01*
X125089214Y-117288463D01*
X125097800Y-117280732D01*
X125242873Y-117123793D01*
X125249906Y-117114627D01*
X125363950Y-116933879D01*
X125369195Y-116923585D01*
X125448391Y-116725080D01*
X125451672Y-116714002D01*
X125493366Y-116504390D01*
X125494574Y-116492900D01*
X125497372Y-116279198D01*
X125496465Y-116267680D01*
X125460272Y-116057048D01*
X125457282Y-116045888D01*
X125383310Y-115845379D01*
X125378336Y-115834950D01*
X125269063Y-115651279D01*
X125262272Y-115641933D01*
X125121357Y-115481249D01*
X125112976Y-115473296D01*
X124945138Y-115340985D01*
X124935449Y-115334692D01*
X124746310Y-115235181D01*
X124735636Y-115230759D01*
X124531136Y-115167261D01*
X124519010Y-115164766D01*
X124324720Y-115144345D01*
X124318130Y-115144000D01*
X123415834Y-115144000D01*
X123410066Y-115144264D01*
X123251400Y-115158844D01*
X123240041Y-115160950D01*
X123034346Y-115218961D01*
X123023560Y-115223101D01*
X122831881Y-115317627D01*
X122822030Y-115323664D01*
X122650786Y-115451537D01*
X122642200Y-115459268D01*
X122497127Y-115616207D01*
X122490094Y-115625373D01*
X122376050Y-115806121D01*
X122370805Y-115816415D01*
X122291609Y-116014920D01*
X122288328Y-116025998D01*
X122246634Y-116235610D01*
X122245426Y-116247100D01*
X122242628Y-116460802D01*
X122243535Y-116472320D01*
X122279728Y-116682952D01*
X122282718Y-116694112D01*
X122356690Y-116894621D01*
X122361664Y-116905050D01*
X122470937Y-117088721D01*
X122477728Y-117098067D01*
X122618643Y-117258751D01*
X122627024Y-117266704D01*
X122794862Y-117399015D01*
X122804551Y-117405308D01*
X122993690Y-117504819D01*
X123004364Y-117509241D01*
X123075138Y-117531217D01*
X122983004Y-117555904D01*
X122972665Y-117559667D01*
X122755266Y-117661042D01*
X122745738Y-117666543D01*
X122549245Y-117804129D01*
X122540817Y-117811202D01*
X122371202Y-117980817D01*
X122364129Y-117989245D01*
X122226543Y-118185738D01*
X122221042Y-118195266D01*
X122116527Y-118419400D01*
X118003473Y-118419400D01*
X117898958Y-118195266D01*
X117893457Y-118185738D01*
X117755871Y-117989245D01*
X117748798Y-117980817D01*
X117579183Y-117811202D01*
X117570755Y-117804129D01*
X117374262Y-117666543D01*
X117364734Y-117661042D01*
X117147335Y-117559667D01*
X117136996Y-117555904D01*
X117047274Y-117531863D01*
X117085654Y-117521039D01*
X117096440Y-117516899D01*
X117288119Y-117422373D01*
X117297970Y-117416336D01*
X117469214Y-117288463D01*
X117477800Y-117280732D01*
X117622873Y-117123793D01*
X117629906Y-117114627D01*
X117743950Y-116933879D01*
X117749195Y-116923585D01*
X117828391Y-116725080D01*
X117831672Y-116714002D01*
X117873366Y-116504390D01*
X117874574Y-116492900D01*
X117877372Y-116279198D01*
X117876465Y-116267680D01*
X117840272Y-116057048D01*
X117837282Y-116045888D01*
X117763310Y-115845379D01*
X117758336Y-115834950D01*
X117649063Y-115651279D01*
X117642272Y-115641933D01*
X117501357Y-115481249D01*
X117492976Y-115473296D01*
X117325138Y-115340985D01*
X117315449Y-115334692D01*
X117126310Y-115235181D01*
X117115636Y-115230759D01*
X117044862Y-115208783D01*
X117136996Y-115184096D01*
X117147335Y-115180333D01*
X117364734Y-115078958D01*
X117374262Y-115073457D01*
X117570755Y-114935871D01*
X117579183Y-114928798D01*
X117748798Y-114759183D01*
X117755871Y-114750755D01*
X117893457Y-114554262D01*
X117898958Y-114544734D01*
X118003473Y-114320600D01*
X117929190Y-114204000D01*
X114570810Y-114204000D01*
X114496527Y-114320600D01*
X108359807Y-114320600D01*
X108404016Y-114202361D01*
X108328843Y-114094000D01*
X107447808Y-114094000D01*
X107373999Y-114167809D01*
X106626000Y-114167809D01*
X106626001Y-114160345D01*
X106626001Y-113097999D01*
X107374000Y-113097999D01*
X107374000Y-113272192D01*
X107447809Y-113346001D01*
X108328871Y-113346001D01*
X108404192Y-113239622D01*
X108359723Y-113113343D01*
X108355339Y-113103612D01*
X108352215Y-113097999D01*
X114611962Y-113097999D01*
X114606543Y-113105738D01*
X114601042Y-113115266D01*
X114496527Y-113339400D01*
X114570810Y-113456000D01*
X117929190Y-113456000D01*
X118003473Y-113339400D01*
X117898958Y-113115266D01*
X117893457Y-113105738D01*
X117888038Y-113097999D01*
X122482128Y-113097999D01*
X122376050Y-113266121D01*
X122370805Y-113276415D01*
X122291609Y-113474920D01*
X122288328Y-113485998D01*
X122246634Y-113695610D01*
X122245426Y-113707100D01*
X122242628Y-113920802D01*
X122243535Y-113932320D01*
X122279728Y-114142952D01*
X122282718Y-114154112D01*
X122356690Y-114354621D01*
X122361664Y-114365050D01*
X122470937Y-114548721D01*
X122477728Y-114558067D01*
X122618643Y-114718751D01*
X122627024Y-114726704D01*
X122794862Y-114859015D01*
X122804551Y-114865308D01*
X122993690Y-114964819D01*
X123004364Y-114969241D01*
X123208864Y-115032739D01*
X123220990Y-115035234D01*
X123415280Y-115055655D01*
X123421870Y-115056000D01*
X124324166Y-115056000D01*
X124329934Y-115055736D01*
X124488600Y-115041156D01*
X124499959Y-115039050D01*
X124705654Y-114981039D01*
X124716440Y-114976899D01*
X124908119Y-114882373D01*
X124917970Y-114876336D01*
X125089214Y-114748463D01*
X125097800Y-114740732D01*
X125242873Y-114583793D01*
X125249906Y-114574627D01*
X125363950Y-114393879D01*
X125369195Y-114383585D01*
X125448391Y-114185080D01*
X125451672Y-114174002D01*
X125493366Y-113964390D01*
X125494574Y-113952900D01*
X125497372Y-113739198D01*
X125496465Y-113727680D01*
X125460272Y-113517048D01*
X125457282Y-113505888D01*
X125383310Y-113305379D01*
X125378336Y-113294950D01*
X125269063Y-113111279D01*
X125262272Y-113101933D01*
X125258822Y-113097999D01*
X127065940Y-113097999D01*
X127447001Y-113479062D01*
X127447000Y-115287643D01*
X127447000Y-115287644D01*
X127447001Y-116597895D01*
X127447000Y-116597905D01*
X127447001Y-117475853D01*
X127441583Y-117537789D01*
X127443504Y-117559751D01*
X127459594Y-117619801D01*
X127470390Y-117681031D01*
X127477931Y-117701747D01*
X127484686Y-117713448D01*
X127488184Y-117726502D01*
X127497502Y-117746484D01*
X127533165Y-117797416D01*
X127564247Y-117851251D01*
X127578418Y-117868140D01*
X127626044Y-117908102D01*
X127841889Y-118123947D01*
X127881860Y-118171583D01*
X127898750Y-118185755D01*
X127952590Y-118216839D01*
X128003515Y-118252499D01*
X128023499Y-118261817D01*
X128036549Y-118265313D01*
X128048249Y-118272069D01*
X128068968Y-118279610D01*
X128130204Y-118290408D01*
X128190247Y-118306496D01*
X128212209Y-118308417D01*
X128274134Y-118303000D01*
X130475864Y-118303000D01*
X130537789Y-118308417D01*
X130559751Y-118306496D01*
X130619791Y-118290409D01*
X130681031Y-118279610D01*
X130701748Y-118272070D01*
X130713451Y-118265313D01*
X130726502Y-118261816D01*
X130746484Y-118252498D01*
X130797404Y-118216843D01*
X130851251Y-118185755D01*
X130868140Y-118171583D01*
X130908112Y-118123946D01*
X131123954Y-117908104D01*
X131171582Y-117868140D01*
X131185755Y-117851250D01*
X131216839Y-117797410D01*
X131252499Y-117746485D01*
X131261817Y-117726501D01*
X131265313Y-117713451D01*
X131272069Y-117701751D01*
X131279610Y-117681032D01*
X131290408Y-117619796D01*
X131306496Y-117559753D01*
X131308417Y-117537791D01*
X131303000Y-117475866D01*
X131303000Y-117384723D01*
X131313657Y-117380048D01*
X131331138Y-117368627D01*
X131474076Y-117237043D01*
X131486902Y-117220565D01*
X131579370Y-117049698D01*
X131586150Y-117029948D01*
X131617267Y-116843474D01*
X131618128Y-116833086D01*
X131618128Y-116318217D01*
X131617644Y-116310417D01*
X131599912Y-116168169D01*
X131595064Y-116150563D01*
X131517549Y-115973843D01*
X131506127Y-115956362D01*
X131384381Y-115824111D01*
X131523017Y-115735016D01*
X131536638Y-115723213D01*
X131685295Y-115551654D01*
X131695039Y-115536492D01*
X131789340Y-115330001D01*
X131794418Y-115312707D01*
X131807247Y-115223475D01*
X131731883Y-115136500D01*
X130438500Y-115136500D01*
X130438500Y-113824568D01*
X130413194Y-113804175D01*
X131061500Y-113804175D01*
X131061500Y-114439691D01*
X131135309Y-114513500D01*
X131721089Y-114513500D01*
X131796740Y-114419623D01*
X131755098Y-114228191D01*
X131746468Y-114207357D01*
X131622516Y-114014483D01*
X131610713Y-114000862D01*
X131439154Y-113852205D01*
X131423992Y-113842461D01*
X131177259Y-113729781D01*
X131061500Y-113804175D01*
X130413194Y-113804175D01*
X130344622Y-113748916D01*
X130190691Y-113782402D01*
X130169857Y-113791032D01*
X129976983Y-113914984D01*
X129963362Y-113926787D01*
X129822941Y-114088841D01*
X129803000Y-114067179D01*
X129803000Y-112774135D01*
X129808417Y-112712210D01*
X129806496Y-112690247D01*
X129790407Y-112630202D01*
X129779611Y-112568970D01*
X129772070Y-112548252D01*
X129765314Y-112536550D01*
X129761817Y-112523499D01*
X129752499Y-112503516D01*
X129716837Y-112452587D01*
X129685755Y-112398750D01*
X129671583Y-112381860D01*
X129623969Y-112341908D01*
X129271284Y-111989224D01*
X129802191Y-111989224D01*
X129876000Y-111915415D01*
X130623999Y-111915415D01*
X130697808Y-111989224D01*
X131254183Y-111989224D01*
X131267613Y-111987780D01*
X131603353Y-111914745D01*
X131624187Y-111906115D01*
X131824620Y-111777304D01*
X131838241Y-111765501D01*
X131992783Y-111587151D01*
X132002527Y-111571989D01*
X132100561Y-111357323D01*
X132105639Y-111340030D01*
X132138582Y-111110906D01*
X132139224Y-111101929D01*
X132139224Y-109797809D01*
X132065415Y-109724000D01*
X130697809Y-109723999D01*
X130624000Y-109797808D01*
X130623999Y-111915415D01*
X129876000Y-111915415D01*
X129876001Y-109797809D01*
X129802192Y-109724000D01*
X128557387Y-109723999D01*
X128558418Y-109712211D01*
X128556497Y-109690247D01*
X128540406Y-109630194D01*
X128529610Y-109568969D01*
X128522069Y-109548249D01*
X128515313Y-109536548D01*
X128511817Y-109523500D01*
X128502499Y-109503516D01*
X128466837Y-109452587D01*
X128435755Y-109398749D01*
X128421583Y-109381860D01*
X128373963Y-109341903D01*
X127408105Y-108376046D01*
X127368140Y-108328417D01*
X127351251Y-108314246D01*
X127297405Y-108283158D01*
X127246484Y-108247502D01*
X127226502Y-108238184D01*
X127213451Y-108234687D01*
X127201748Y-108227930D01*
X127181031Y-108220390D01*
X127119791Y-108209591D01*
X127059751Y-108193504D01*
X127037789Y-108191583D01*
X126975864Y-108197000D01*
X125367656Y-108197000D01*
X125269063Y-108031279D01*
X125262272Y-108021933D01*
X125208698Y-107960843D01*
X126975819Y-107960843D01*
X127057086Y-108050156D01*
X127071695Y-108062049D01*
X127269607Y-108179093D01*
X127287066Y-108186165D01*
X127510644Y-108239841D01*
X127529411Y-108241467D01*
X127758889Y-108227030D01*
X127777304Y-108223065D01*
X127992392Y-108141790D01*
X128008827Y-108132585D01*
X128190508Y-107991659D01*
X128203511Y-107978029D01*
X128335723Y-107789911D01*
X128344142Y-107773060D01*
X128360776Y-107721867D01*
X128360776Y-108902191D01*
X128434585Y-108976000D01*
X129802191Y-108976001D01*
X129876000Y-108902192D01*
X129876000Y-108902191D01*
X130623999Y-108902191D01*
X130697808Y-108976000D01*
X132065415Y-108976001D01*
X132139224Y-108902192D01*
X132139224Y-107595817D01*
X132137780Y-107582387D01*
X132064745Y-107246647D01*
X132056115Y-107225813D01*
X131927304Y-107025380D01*
X131915501Y-107011759D01*
X131737151Y-106857217D01*
X131721989Y-106847473D01*
X131507323Y-106749439D01*
X131490030Y-106744361D01*
X131260906Y-106711418D01*
X131251929Y-106710776D01*
X130697809Y-106710776D01*
X130624000Y-106784585D01*
X130623999Y-108902191D01*
X129876000Y-108902191D01*
X129876001Y-106784585D01*
X129802192Y-106710776D01*
X129245817Y-106710776D01*
X129232387Y-106712220D01*
X128896647Y-106785255D01*
X128875813Y-106793885D01*
X128675380Y-106922696D01*
X128661759Y-106934499D01*
X128507217Y-107112849D01*
X128497473Y-107128011D01*
X128420240Y-107297128D01*
X128420268Y-107293618D01*
X128417469Y-107274487D01*
X128349786Y-107054483D01*
X128341632Y-107037502D01*
X128212392Y-106847330D01*
X128199605Y-106833498D01*
X128020160Y-106689735D01*
X128003871Y-106680273D01*
X127790086Y-106595630D01*
X127771735Y-106591376D01*
X127542513Y-106573336D01*
X127523723Y-106574667D01*
X127299329Y-106624825D01*
X127281761Y-106631622D01*
X127082035Y-106745543D01*
X127067242Y-106757205D01*
X126975553Y-106854843D01*
X125437636Y-106854843D01*
X125551157Y-106805049D01*
X125568638Y-106793627D01*
X125621110Y-106745323D01*
X125664950Y-106771250D01*
X125682409Y-106778322D01*
X125905987Y-106831998D01*
X125924754Y-106833624D01*
X126154232Y-106819187D01*
X126172647Y-106815222D01*
X126387735Y-106733947D01*
X126404170Y-106724742D01*
X126585851Y-106583816D01*
X126598854Y-106570186D01*
X126731066Y-106382068D01*
X126739485Y-106365217D01*
X126810616Y-106146303D01*
X126813715Y-106127218D01*
X126815611Y-105885775D01*
X126812812Y-105866644D01*
X126745129Y-105646640D01*
X126736975Y-105629659D01*
X126607735Y-105439487D01*
X126594948Y-105425655D01*
X126415503Y-105281892D01*
X126399214Y-105272430D01*
X126185429Y-105187787D01*
X126167078Y-105183533D01*
X125937856Y-105165493D01*
X125919066Y-105166824D01*
X125694672Y-105216982D01*
X125677103Y-105223779D01*
X125625603Y-105253154D01*
X125612043Y-105238424D01*
X125595565Y-105225598D01*
X125424698Y-105133130D01*
X125404948Y-105126350D01*
X125218474Y-105095233D01*
X125208086Y-105094372D01*
X124768217Y-105094372D01*
X124760417Y-105094856D01*
X124618169Y-105112588D01*
X124600563Y-105117436D01*
X124423843Y-105194951D01*
X124406362Y-105206373D01*
X124263424Y-105337957D01*
X124250598Y-105354435D01*
X124200873Y-105446319D01*
X124180049Y-105398843D01*
X124168627Y-105381362D01*
X124037043Y-105238424D01*
X124020565Y-105225598D01*
X123849698Y-105133130D01*
X123829948Y-105126350D01*
X123643474Y-105095233D01*
X123633086Y-105094372D01*
X123193217Y-105094372D01*
X123185417Y-105094856D01*
X123043169Y-105112588D01*
X123025563Y-105117436D01*
X122848843Y-105194951D01*
X122831362Y-105206373D01*
X122688424Y-105337957D01*
X122675598Y-105354436D01*
X122625505Y-105447000D01*
X116163672Y-105447000D01*
X116142548Y-105398843D01*
X116131127Y-105381362D01*
X115999543Y-105238424D01*
X115983065Y-105225598D01*
X115812198Y-105133130D01*
X115792448Y-105126350D01*
X115605974Y-105095233D01*
X115595586Y-105094372D01*
X115155717Y-105094372D01*
X115147917Y-105094856D01*
X115005669Y-105112588D01*
X114988063Y-105117436D01*
X114811343Y-105194951D01*
X114793862Y-105206373D01*
X114650924Y-105337957D01*
X114638098Y-105354435D01*
X114588373Y-105446319D01*
X114567549Y-105398843D01*
X114556127Y-105381362D01*
X114424543Y-105238424D01*
X114408065Y-105225599D01*
X114328000Y-105182269D01*
X114328000Y-103928000D01*
X114589590Y-103928000D01*
X114607155Y-104002681D01*
X114618327Y-104026479D01*
X114700876Y-104135792D01*
X114718132Y-104151524D01*
X114833346Y-104222862D01*
X114855121Y-104231297D01*
X114982574Y-104255122D01*
X114994175Y-104256197D01*
X116107284Y-104256197D01*
X116121756Y-104254518D01*
X116277681Y-104217845D01*
X116301479Y-104206673D01*
X116410791Y-104124124D01*
X116426522Y-104106868D01*
X116497861Y-103991655D01*
X116506297Y-103969879D01*
X116530122Y-103842426D01*
X116531197Y-103830825D01*
X116531197Y-103242715D01*
X116529518Y-103228243D01*
X116492845Y-103072318D01*
X116481673Y-103048520D01*
X116445705Y-103000890D01*
X116497862Y-102916655D01*
X116506297Y-102894880D01*
X116530122Y-102767427D01*
X116531197Y-102755826D01*
X116531197Y-102169175D01*
X117968803Y-102169175D01*
X117968803Y-102757285D01*
X117970482Y-102771757D01*
X118007155Y-102927682D01*
X118018327Y-102951480D01*
X118054295Y-102999110D01*
X118002138Y-103083346D01*
X117993703Y-103105121D01*
X117969878Y-103232574D01*
X117968803Y-103244175D01*
X117968803Y-103832285D01*
X117970482Y-103846757D01*
X118007155Y-104002682D01*
X118018327Y-104026480D01*
X118100876Y-104135792D01*
X118118132Y-104151524D01*
X118233346Y-104222862D01*
X118255121Y-104231297D01*
X118382574Y-104255122D01*
X118394175Y-104256197D01*
X119507284Y-104256197D01*
X119521756Y-104254518D01*
X119528210Y-104253000D01*
X119586316Y-104253000D01*
X119608028Y-104249171D01*
X119770247Y-104190128D01*
X119789340Y-104179104D01*
X119847904Y-104129964D01*
X119946087Y-104228146D01*
X119946420Y-104230489D01*
X119951817Y-104248538D01*
X120049718Y-104456586D01*
X120060183Y-104472248D01*
X120214929Y-104642313D01*
X120229538Y-104654206D01*
X120427450Y-104771250D01*
X120444909Y-104778322D01*
X120668487Y-104831998D01*
X120687254Y-104833624D01*
X120916732Y-104819187D01*
X120935147Y-104815222D01*
X121150235Y-104733947D01*
X121166670Y-104724742D01*
X121348351Y-104583816D01*
X121361354Y-104570186D01*
X121493566Y-104382068D01*
X121501985Y-104365217D01*
X121573116Y-104146303D01*
X121576215Y-104127218D01*
X121578111Y-103885775D01*
X121575312Y-103866644D01*
X121507629Y-103646640D01*
X121499475Y-103629659D01*
X121370235Y-103439487D01*
X121357448Y-103425655D01*
X121178003Y-103281892D01*
X121161714Y-103272430D01*
X120947929Y-103187787D01*
X120929578Y-103183533D01*
X120700356Y-103165493D01*
X120681566Y-103166824D01*
X120491393Y-103209333D01*
X119942510Y-102660451D01*
X119935754Y-102648749D01*
X119931197Y-102643318D01*
X119931197Y-102167715D01*
X119929518Y-102153243D01*
X119892845Y-101997318D01*
X119881673Y-101973520D01*
X119799124Y-101864208D01*
X119781868Y-101848476D01*
X119666654Y-101777138D01*
X119644879Y-101768703D01*
X119517426Y-101744878D01*
X119505825Y-101743803D01*
X118392715Y-101743803D01*
X118378243Y-101745482D01*
X118222318Y-101782155D01*
X118198520Y-101793327D01*
X118089208Y-101875876D01*
X118073476Y-101893132D01*
X118002138Y-102008346D01*
X117993703Y-102030121D01*
X117969878Y-102157574D01*
X117968803Y-102169175D01*
X116531197Y-102169175D01*
X116531197Y-102167716D01*
X116529518Y-102153244D01*
X116492845Y-101997319D01*
X116481673Y-101973521D01*
X116399124Y-101864209D01*
X116381868Y-101848478D01*
X116266655Y-101777139D01*
X116244879Y-101768703D01*
X116117426Y-101744878D01*
X116105825Y-101743803D01*
X114992716Y-101743803D01*
X114978244Y-101745482D01*
X114822319Y-101782155D01*
X114798521Y-101793327D01*
X114689209Y-101875876D01*
X114673477Y-101893132D01*
X114602139Y-102008346D01*
X114593704Y-102030121D01*
X114585875Y-102072000D01*
X114060410Y-102072000D01*
X114042845Y-101997318D01*
X114031673Y-101973520D01*
X113949124Y-101864208D01*
X113931868Y-101848476D01*
X113816654Y-101777138D01*
X113794879Y-101768703D01*
X113667426Y-101744878D01*
X113655825Y-101743803D01*
X112542715Y-101743803D01*
X112528243Y-101745482D01*
X112372318Y-101782155D01*
X112348520Y-101793327D01*
X112239208Y-101875876D01*
X112223476Y-101893132D01*
X112152138Y-102008346D01*
X112143703Y-102030121D01*
X112119878Y-102157574D01*
X112118803Y-102169175D01*
X112118803Y-102757285D01*
X112120482Y-102771757D01*
X112157155Y-102927682D01*
X112168327Y-102951480D01*
X112204295Y-102999110D01*
X112152138Y-103083346D01*
X112143703Y-103105121D01*
X112119878Y-103232574D01*
X112118803Y-103244175D01*
X112118803Y-103832285D01*
X112120482Y-103846757D01*
X112157155Y-104002682D01*
X112168327Y-104026480D01*
X112250876Y-104135792D01*
X112268132Y-104151524D01*
X112383346Y-104222862D01*
X112405121Y-104231297D01*
X112532574Y-104255122D01*
X112544175Y-104256197D01*
X113222001Y-104256197D01*
X113222000Y-105204323D01*
X113218862Y-105206373D01*
X113075924Y-105337957D01*
X113063098Y-105354435D01*
X112970630Y-105525302D01*
X112963850Y-105545052D01*
X112932733Y-105731526D01*
X112931872Y-105741914D01*
X112931872Y-106256783D01*
X112932356Y-106264583D01*
X112950088Y-106406831D01*
X112954936Y-106424437D01*
X113032451Y-106601157D01*
X113043873Y-106618638D01*
X113139026Y-106722001D01*
X109384000Y-106722001D01*
X109384000Y-104884000D01*
X110506754Y-104884000D01*
X110520184Y-104882556D01*
X110748832Y-104832817D01*
X110769666Y-104824187D01*
X110908371Y-104735047D01*
X110921992Y-104723244D01*
X111028483Y-104600348D01*
X111038227Y-104585185D01*
X111105779Y-104437265D01*
X111110857Y-104419972D01*
X111133358Y-104263478D01*
X111134000Y-104254500D01*
X111134000Y-100426000D01*
X122574056Y-100426000D01*
X122489705Y-100523346D01*
G37*
D19*
X122489705Y-100523346D02*
X122479961Y-100538508D01*
X122385660Y-100744999D01*
X122380582Y-100762293D01*
X122367753Y-100851525D01*
X122443117Y-100938500D01*
X123736500Y-100938501D01*
X123736499Y-101561500D01*
X122453910Y-101561499D01*
X122378258Y-101655377D01*
X122419902Y-101846809D01*
X122428532Y-101867643D01*
X122552484Y-102060517D01*
X122564287Y-102074138D01*
X122735846Y-102222795D01*
X122751008Y-102232539D01*
X122794074Y-102252206D01*
X122700924Y-102337957D01*
X122688098Y-102354435D01*
X122595630Y-102525302D01*
X122588850Y-102545052D01*
X122557733Y-102731526D01*
X122556872Y-102741914D01*
X122556872Y-103256783D01*
X122557356Y-103264583D01*
X122575088Y-103406831D01*
X122579936Y-103424437D01*
X122657451Y-103601157D01*
X122668873Y-103618638D01*
X122731458Y-103686623D01*
X122705820Y-103738955D01*
X122700140Y-103756916D01*
X122664171Y-103984016D01*
X122664023Y-104002853D01*
X122696420Y-104230490D01*
X122701818Y-104248538D01*
X122799718Y-104456586D01*
X122810183Y-104472248D01*
X122964929Y-104642313D01*
X122979538Y-104654206D01*
X123177450Y-104771250D01*
X123194909Y-104778322D01*
X123418487Y-104831998D01*
X123437254Y-104833624D01*
X123666732Y-104819187D01*
X123685147Y-104815222D01*
X123900235Y-104733947D01*
X123916670Y-104724742D01*
X124098352Y-104583816D01*
X124111354Y-104570185D01*
X124144065Y-104523642D01*
X124149652Y-104528483D01*
X124164815Y-104538227D01*
X124312735Y-104605779D01*
X124330028Y-104610857D01*
X124486522Y-104633358D01*
X124495500Y-104634000D01*
X127116000Y-104634000D01*
X127116000Y-104756754D01*
X127117444Y-104770184D01*
X127167183Y-104998832D01*
X127175813Y-105019666D01*
X127264953Y-105158371D01*
X127276756Y-105171992D01*
X127399652Y-105278483D01*
X127414815Y-105288227D01*
X127562735Y-105355779D01*
X127580028Y-105360857D01*
X127736522Y-105383358D01*
X127745500Y-105384000D01*
X128691313Y-105384000D01*
X128825339Y-105529591D01*
X128841818Y-105542417D01*
X129021616Y-105639718D01*
X129041366Y-105646498D01*
X129237858Y-105679287D01*
X129248246Y-105680148D01*
X131250451Y-105680148D01*
X131258251Y-105679664D01*
X131408073Y-105660988D01*
X131425679Y-105656140D01*
X131611699Y-105574545D01*
X131629180Y-105563124D01*
X131779591Y-105424661D01*
X131792417Y-105408182D01*
X131874243Y-105256980D01*
X131908371Y-105235047D01*
X131921992Y-105223244D01*
X132028483Y-105100348D01*
X132038227Y-105085185D01*
X132105779Y-104937265D01*
X132110857Y-104919972D01*
X132133358Y-104763478D01*
X132134000Y-104754500D01*
X132134000Y-100426000D01*
X133689960Y-100426000D01*
X133702502Y-100428370D01*
X133708603Y-100429216D01*
X133894691Y-100445823D01*
X134034816Y-100484158D01*
X134165937Y-100546699D01*
X134283896Y-100631462D01*
X134385001Y-100735794D01*
X134466020Y-100856364D01*
X134524410Y-100989377D01*
X134559119Y-101133956D01*
X134570387Y-101287370D01*
X134572297Y-101298820D01*
X134574001Y-101305292D01*
X134574000Y-133440683D01*
X134571309Y-133455493D01*
X134570505Y-133461599D01*
X134553016Y-133674327D01*
X134510405Y-133843968D01*
X134440656Y-134004380D01*
X134345652Y-134151235D01*
X134227929Y-134280610D01*
X134090658Y-134389019D01*
X133937532Y-134473550D01*
X133772649Y-134531938D01*
X133593000Y-134563939D01*
X133473890Y-134569555D01*
X133462393Y-134571166D01*
X133450357Y-134574000D01*
X119953223Y-134574000D01*
X119960949Y-134565419D01*
X119979209Y-134540286D01*
X121180279Y-133339217D01*
X121205409Y-133320959D01*
X121215224Y-133312122D01*
X121286181Y-133233315D01*
X121310325Y-133209172D01*
X121314741Y-133204268D01*
X121336222Y-133177739D01*
X121407196Y-133098915D01*
X121414959Y-133088231D01*
X121430492Y-133061327D01*
X121450040Y-133037186D01*
X121457232Y-133026111D01*
X121505385Y-132931608D01*
X121558408Y-132839769D01*
X121563780Y-132827704D01*
X121573378Y-132798161D01*
X121587480Y-132770485D01*
X121592214Y-132758155D01*
X121619666Y-132655701D01*
X121652436Y-132554848D01*
X121655181Y-132541930D01*
X121658428Y-132511042D01*
X121666469Y-132481033D01*
X121668535Y-132467989D01*
X121674085Y-132362083D01*
X121677655Y-132328115D01*
X121678000Y-132321526D01*
X121678000Y-132287375D01*
X121683550Y-132181483D01*
X121682859Y-132168294D01*
X121678000Y-132137616D01*
X121678000Y-131700802D01*
X122242628Y-131700802D01*
X122243535Y-131712320D01*
X122279728Y-131922952D01*
X122282718Y-131934112D01*
X122356690Y-132134621D01*
X122361664Y-132145050D01*
X122470937Y-132328721D01*
X122477728Y-132338067D01*
X122618643Y-132498751D01*
X122627024Y-132506704D01*
X122794862Y-132639015D01*
X122804551Y-132645308D01*
X122993690Y-132744819D01*
X123004364Y-132749241D01*
X123208864Y-132812739D01*
X123220990Y-132815234D01*
X123415280Y-132835655D01*
X123421870Y-132836000D01*
X124324166Y-132836000D01*
X124329934Y-132835736D01*
X124488600Y-132821156D01*
X124499959Y-132819050D01*
X124705654Y-132761039D01*
X124716440Y-132756899D01*
X124908119Y-132662373D01*
X124917970Y-132656336D01*
X125089214Y-132528463D01*
X125097800Y-132520732D01*
X125242873Y-132363793D01*
X125249906Y-132354627D01*
X125363950Y-132173879D01*
X125369195Y-132163585D01*
X125369428Y-132163000D01*
X127115864Y-132163000D01*
X127177789Y-132168417D01*
X127199751Y-132166496D01*
X127259791Y-132150409D01*
X127321031Y-132139610D01*
X127341748Y-132132070D01*
X127353451Y-132125313D01*
X127366502Y-132121816D01*
X127386484Y-132112498D01*
X127437404Y-132076843D01*
X127491251Y-132045755D01*
X127508140Y-132031583D01*
X127548107Y-131983952D01*
X128046846Y-131485214D01*
X128046855Y-131485203D01*
X128818969Y-130713089D01*
X129667444Y-129864615D01*
X129798953Y-129733106D01*
X129846583Y-129693140D01*
X129860754Y-129676251D01*
X129891840Y-129622409D01*
X129927498Y-129571484D01*
X129936815Y-129551504D01*
X129940312Y-129538454D01*
X129947070Y-129526748D01*
X129954610Y-129506031D01*
X129965409Y-129444792D01*
X129981496Y-129384754D01*
X129983417Y-129362791D01*
X129978000Y-129300866D01*
X129978000Y-127059723D01*
X129988657Y-127055048D01*
X130006138Y-127043627D01*
X130075559Y-126979720D01*
X130127484Y-127060517D01*
X130139287Y-127074138D01*
X130310846Y-127222795D01*
X130326008Y-127232539D01*
X130572741Y-127345219D01*
X130688500Y-127270825D01*
X130688500Y-126635309D01*
X131311500Y-126635309D01*
X131311500Y-127250432D01*
X131405378Y-127326084D01*
X131559309Y-127292598D01*
X131580143Y-127283968D01*
X131773017Y-127160016D01*
X131786638Y-127148213D01*
X131935295Y-126976654D01*
X131945039Y-126961492D01*
X132039340Y-126755001D01*
X132044418Y-126737707D01*
X132057247Y-126648475D01*
X131981883Y-126561500D01*
X131385309Y-126561500D01*
X131311500Y-126635309D01*
X130688500Y-126635309D01*
X130688500Y-125938500D01*
X131971089Y-125938500D01*
X132046740Y-125844623D01*
X132005098Y-125653191D01*
X131996468Y-125632357D01*
X131872516Y-125439483D01*
X131860713Y-125425862D01*
X131689154Y-125277205D01*
X131673992Y-125267461D01*
X131630926Y-125247794D01*
X131724076Y-125162043D01*
X131736902Y-125145565D01*
X131829370Y-124974698D01*
X131836150Y-124954948D01*
X131867267Y-124768474D01*
X131868128Y-124758086D01*
X131868128Y-124243217D01*
X131867644Y-124235417D01*
X131849912Y-124093169D01*
X131845064Y-124075563D01*
X131767549Y-123898843D01*
X131756127Y-123881362D01*
X131624543Y-123738424D01*
X131608064Y-123725598D01*
X131553000Y-123695799D01*
X131553000Y-121405505D01*
X131558418Y-121343583D01*
X131556497Y-121321619D01*
X131540406Y-121261566D01*
X131529610Y-121200341D01*
X131522069Y-121179621D01*
X131515313Y-121167920D01*
X131511817Y-121154872D01*
X131502499Y-121134888D01*
X131466837Y-121083959D01*
X131435755Y-121030122D01*
X131421583Y-121013233D01*
X131373958Y-120973270D01*
X131261176Y-120860488D01*
X131262425Y-120701461D01*
X131259626Y-120682330D01*
X131191943Y-120462326D01*
X131183789Y-120445345D01*
X131054549Y-120255173D01*
X131041762Y-120241341D01*
X130862317Y-120097578D01*
X130846028Y-120088116D01*
X130632243Y-120003473D01*
X130613892Y-119999219D01*
X130384670Y-119981179D01*
X130365880Y-119982510D01*
X130141486Y-120032668D01*
X130123918Y-120039465D01*
X129924192Y-120153386D01*
X129909399Y-120165048D01*
X129752000Y-120332660D01*
X129741290Y-120348156D01*
X129640134Y-120554641D01*
X129634454Y-120572602D01*
X129598485Y-120799702D01*
X129598337Y-120818539D01*
X129630734Y-121046176D01*
X129636132Y-121064224D01*
X129734032Y-121272272D01*
X129744497Y-121287934D01*
X129899243Y-121457999D01*
X129913852Y-121469892D01*
X130111764Y-121586936D01*
X130129223Y-121594008D01*
X130352801Y-121647684D01*
X130371568Y-121649310D01*
X130447001Y-121644564D01*
X130447000Y-123690277D01*
X130436343Y-123694952D01*
X130418862Y-123706373D01*
X130275924Y-123837957D01*
X130263098Y-123854435D01*
X130213373Y-123946319D01*
X130192549Y-123898843D01*
X130181127Y-123881362D01*
X130049543Y-123738424D01*
X130033065Y-123725598D01*
X129862198Y-123633130D01*
X129842448Y-123626350D01*
X129655974Y-123595233D01*
X129645586Y-123594372D01*
X129205717Y-123594372D01*
X129197917Y-123594856D01*
X129055669Y-123612588D01*
X129038063Y-123617436D01*
X128861343Y-123694951D01*
X128843862Y-123706373D01*
X128700924Y-123837957D01*
X128688098Y-123854435D01*
X128595630Y-124025302D01*
X128588850Y-124045052D01*
X128557733Y-124231526D01*
X128556872Y-124241914D01*
X128556872Y-124756783D01*
X128557356Y-124764583D01*
X128575088Y-124906831D01*
X128579936Y-124924437D01*
X128657451Y-125101157D01*
X128668873Y-125118638D01*
X128800457Y-125261576D01*
X128816935Y-125274401D01*
X128872000Y-125304201D01*
X128872001Y-125440276D01*
X128861343Y-125444951D01*
X128843862Y-125456373D01*
X128700924Y-125587957D01*
X128688098Y-125604435D01*
X128595630Y-125775302D01*
X128588850Y-125795052D01*
X128557733Y-125981526D01*
X128556872Y-125991914D01*
X128556872Y-126506783D01*
X128557356Y-126514583D01*
X128575088Y-126656831D01*
X128579936Y-126674437D01*
X128657451Y-126851157D01*
X128668873Y-126868638D01*
X128800457Y-127011576D01*
X128816936Y-127024402D01*
X128872000Y-127054201D01*
X128872001Y-129095940D01*
X127264797Y-130703145D01*
X127264786Y-130703154D01*
X126910941Y-131057000D01*
X125367656Y-131057000D01*
X125269063Y-130891279D01*
X125262272Y-130881933D01*
X125121357Y-130721249D01*
X125112976Y-130713296D01*
X124945138Y-130580985D01*
X124935449Y-130574692D01*
X124746310Y-130475181D01*
X124735636Y-130470759D01*
X124531136Y-130407261D01*
X124519010Y-130404766D01*
X124324720Y-130384345D01*
X124318130Y-130384000D01*
X123415834Y-130384000D01*
X123410066Y-130384264D01*
X123251400Y-130398844D01*
X123240041Y-130400950D01*
X123034346Y-130458961D01*
X123023560Y-130463101D01*
X122831881Y-130557627D01*
X122822030Y-130563664D01*
X122650786Y-130691537D01*
X122642200Y-130699268D01*
X122497127Y-130856207D01*
X122490094Y-130865373D01*
X122376050Y-131046121D01*
X122370805Y-131056415D01*
X122291609Y-131254920D01*
X122288328Y-131265998D01*
X122246634Y-131475610D01*
X122245426Y-131487100D01*
X122242628Y-131700802D01*
X121678000Y-131700802D01*
X121678000Y-130053054D01*
X122297331Y-129433723D01*
X122356690Y-129594621D01*
X122361664Y-129605050D01*
X122470937Y-129788721D01*
X122477728Y-129798067D01*
X122618643Y-129958751D01*
X122627024Y-129966704D01*
X122794862Y-130099015D01*
X122804551Y-130105308D01*
X122993690Y-130204819D01*
X123004364Y-130209241D01*
X123208864Y-130272739D01*
X123220990Y-130275234D01*
X123415280Y-130295655D01*
X123421870Y-130296000D01*
X124324166Y-130296000D01*
X124329934Y-130295736D01*
X124488600Y-130281156D01*
X124499959Y-130279050D01*
X124705654Y-130221039D01*
X124716440Y-130216899D01*
X124908119Y-130122373D01*
X124917970Y-130116336D01*
X125089214Y-129988463D01*
X125097800Y-129980732D01*
X125242873Y-129823793D01*
X125249906Y-129814627D01*
X125363950Y-129633879D01*
X125369195Y-129623585D01*
X125369428Y-129623000D01*
X126405864Y-129623000D01*
X126467789Y-129628417D01*
X126489751Y-129626496D01*
X126549791Y-129610409D01*
X126611031Y-129599610D01*
X126631748Y-129592070D01*
X126643451Y-129585313D01*
X126656502Y-129581816D01*
X126676484Y-129572498D01*
X126727404Y-129536843D01*
X126781251Y-129505755D01*
X126798140Y-129491583D01*
X126838107Y-129443952D01*
X127373966Y-128908095D01*
X127421583Y-128868140D01*
X127435755Y-128851250D01*
X127466837Y-128797413D01*
X127502499Y-128746484D01*
X127511817Y-128726500D01*
X127515313Y-128713452D01*
X127522069Y-128701751D01*
X127529610Y-128681031D01*
X127540406Y-128619806D01*
X127556497Y-128559753D01*
X127558418Y-128537790D01*
X127553000Y-128475854D01*
X127553000Y-121979058D01*
X129199186Y-120332873D01*
X129416732Y-120319187D01*
X129435147Y-120315222D01*
X129650235Y-120233947D01*
X129666670Y-120224742D01*
X129848351Y-120083816D01*
X129861354Y-120070186D01*
X129993566Y-119882068D01*
X130001985Y-119865217D01*
X130073116Y-119646303D01*
X130076215Y-119627218D01*
X130078111Y-119385775D01*
X130075312Y-119366644D01*
X130007629Y-119146640D01*
X129999475Y-119129659D01*
X129870235Y-118939487D01*
X129857448Y-118925655D01*
X129678003Y-118781892D01*
X129661714Y-118772430D01*
X129447929Y-118687787D01*
X129429578Y-118683533D01*
X129200356Y-118665493D01*
X129181566Y-118666824D01*
X128957172Y-118716982D01*
X128939604Y-118723779D01*
X128739878Y-118837700D01*
X128725085Y-118849362D01*
X128567686Y-119016974D01*
X128556976Y-119032470D01*
X128455820Y-119238955D01*
X128450140Y-119256916D01*
X128414171Y-119484016D01*
X128414023Y-119502853D01*
X128420385Y-119547556D01*
X126626048Y-121341894D01*
X126578418Y-121381860D01*
X126564247Y-121398749D01*
X126533165Y-121452584D01*
X126497502Y-121503516D01*
X126488184Y-121523498D01*
X126484686Y-121536552D01*
X126477931Y-121548253D01*
X126470390Y-121568969D01*
X126459594Y-121630199D01*
X126443504Y-121690249D01*
X126441583Y-121712211D01*
X126447001Y-121774147D01*
X126447000Y-128270939D01*
X126200941Y-128517000D01*
X125367656Y-128517000D01*
X125269063Y-128351279D01*
X125262272Y-128341933D01*
X125121357Y-128181249D01*
X125112976Y-128173296D01*
X124945138Y-128040985D01*
X124935449Y-128034692D01*
X124746310Y-127935181D01*
X124735636Y-127930759D01*
X124531136Y-127867261D01*
X124519010Y-127864766D01*
X124416331Y-127853974D01*
X124447704Y-127843780D01*
X124459769Y-127838408D01*
X124708230Y-127694959D01*
X124718915Y-127687196D01*
X124747196Y-127661731D01*
X124908119Y-127582373D01*
X124917970Y-127576336D01*
X125089214Y-127448463D01*
X125097800Y-127440732D01*
X125242873Y-127283793D01*
X125249906Y-127274627D01*
X125363950Y-127093879D01*
X125369195Y-127083585D01*
X125448391Y-126885080D01*
X125451672Y-126874002D01*
X125493366Y-126664390D01*
X125494574Y-126652900D01*
X125497372Y-126439198D01*
X125496465Y-126427680D01*
X125460272Y-126217048D01*
X125457282Y-126205888D01*
X125383310Y-126005379D01*
X125378336Y-125994950D01*
X125269063Y-125811279D01*
X125262272Y-125801933D01*
X125121357Y-125641249D01*
X125112976Y-125633296D01*
X124945138Y-125500985D01*
X124935449Y-125494692D01*
X124746310Y-125395181D01*
X124741601Y-125393230D01*
X124718915Y-125372804D01*
X124708230Y-125365041D01*
X124459769Y-125221592D01*
X124447704Y-125216220D01*
X124420579Y-125207407D01*
X124488600Y-125201156D01*
X124499959Y-125199050D01*
X124705654Y-125141039D01*
X124716440Y-125136899D01*
X124908119Y-125042373D01*
X124917970Y-125036336D01*
X125089214Y-124908463D01*
X125097800Y-124900732D01*
X125242873Y-124743793D01*
X125249906Y-124734627D01*
X125363950Y-124553879D01*
X125369195Y-124543585D01*
X125448391Y-124345080D01*
X125451672Y-124334002D01*
X125493366Y-124124390D01*
X125494574Y-124112900D01*
X125497372Y-123899198D01*
X125496465Y-123887680D01*
X125460272Y-123677048D01*
X125457282Y-123665888D01*
X125383310Y-123465379D01*
X125378336Y-123454950D01*
X125269063Y-123271279D01*
X125262272Y-123261933D01*
X125121357Y-123101249D01*
X125112976Y-123093296D01*
X124945138Y-122960985D01*
X124935449Y-122954692D01*
X124746310Y-122855181D01*
X124735636Y-122850759D01*
X124664862Y-122828783D01*
X124756996Y-122804096D01*
X124767335Y-122800333D01*
X124984734Y-122698958D01*
X124994262Y-122693457D01*
X125190755Y-122555871D01*
X125199183Y-122548798D01*
X125368798Y-122379183D01*
X125375871Y-122370755D01*
X125513457Y-122174262D01*
X125518958Y-122164734D01*
X125623473Y-121940600D01*
X125549190Y-121824000D01*
X122190810Y-121824000D01*
X122116527Y-121940600D01*
X122221042Y-122164734D01*
X122226543Y-122174262D01*
X122364129Y-122370755D01*
X122371202Y-122379183D01*
X122540817Y-122548798D01*
X122549245Y-122555871D01*
X122745738Y-122693457D01*
X122755266Y-122698958D01*
X122972665Y-122800333D01*
X122983004Y-122804096D01*
X123072726Y-122828137D01*
X123034346Y-122838961D01*
X123023560Y-122843101D01*
X122831881Y-122937627D01*
X122822030Y-122943664D01*
X122650786Y-123071537D01*
X122642200Y-123079268D01*
X122497127Y-123236207D01*
X122490094Y-123245373D01*
X122376050Y-123426121D01*
X122370805Y-123436415D01*
X122291609Y-123634920D01*
X122288328Y-123645998D01*
X122246634Y-123855610D01*
X122245426Y-123867100D01*
X122242628Y-124080802D01*
X122243535Y-124092320D01*
X122279728Y-124302952D01*
X122282718Y-124314112D01*
X122356690Y-124514621D01*
X122361664Y-124525050D01*
X122470937Y-124708721D01*
X122477728Y-124718067D01*
X122618643Y-124878751D01*
X122627024Y-124886704D01*
X122794862Y-125019015D01*
X122804551Y-125025308D01*
X122967881Y-125111240D01*
X122963569Y-125111466D01*
X122950524Y-125113532D01*
X122920524Y-125121571D01*
X122889630Y-125124818D01*
X122876712Y-125127564D01*
X122775857Y-125160334D01*
X122673404Y-125187787D01*
X122661074Y-125192520D01*
X122633398Y-125206622D01*
X122603855Y-125216220D01*
X122591790Y-125221592D01*
X122499938Y-125274622D01*
X122405446Y-125322769D01*
X122394371Y-125329962D01*
X122370234Y-125349507D01*
X122343329Y-125365040D01*
X122332645Y-125372803D01*
X122253832Y-125443767D01*
X122227289Y-125465261D01*
X122222385Y-125469677D01*
X122198244Y-125493819D01*
X122119437Y-125564776D01*
X122110600Y-125574591D01*
X122092342Y-125599721D01*
X119319724Y-128372340D01*
X119294591Y-128390600D01*
X119284776Y-128399437D01*
X119213813Y-128478251D01*
X119189676Y-128502387D01*
X119185261Y-128507290D01*
X119163779Y-128533818D01*
X119092803Y-128612646D01*
X119085040Y-128623331D01*
X119069508Y-128650234D01*
X119049962Y-128674372D01*
X119042769Y-128685447D01*
X118994622Y-128779939D01*
X118941592Y-128871791D01*
X118936220Y-128883856D01*
X118926622Y-128913399D01*
X118912520Y-128941075D01*
X118907787Y-128953405D01*
X118880334Y-129055858D01*
X118847564Y-129156713D01*
X118844818Y-129169631D01*
X118841571Y-129200525D01*
X118833532Y-129230525D01*
X118831466Y-129243570D01*
X118825917Y-129349459D01*
X118822345Y-129383444D01*
X118822000Y-129390034D01*
X118822000Y-129424203D01*
X118816451Y-129530076D01*
X118817142Y-129543265D01*
X118822000Y-129573937D01*
X118822001Y-131658504D01*
X118298495Y-132182010D01*
X117738820Y-132182010D01*
X117743950Y-132173879D01*
X117749195Y-132163585D01*
X117828391Y-131965080D01*
X117831672Y-131954002D01*
X117873366Y-131744390D01*
X117874574Y-131732900D01*
X117877372Y-131519198D01*
X117876465Y-131507680D01*
X117840272Y-131297048D01*
X117837282Y-131285888D01*
X117763310Y-131085379D01*
X117758336Y-131074950D01*
X117649063Y-130891279D01*
X117642272Y-130881933D01*
X117501357Y-130721249D01*
X117492976Y-130713296D01*
X117325138Y-130580985D01*
X117315449Y-130574692D01*
X117126310Y-130475181D01*
X117115636Y-130470759D01*
X116911136Y-130407261D01*
X116899010Y-130404766D01*
X116704720Y-130384345D01*
X116698130Y-130384000D01*
X115795834Y-130384000D01*
X115790066Y-130384264D01*
X115631400Y-130398844D01*
X115620041Y-130400950D01*
X115414346Y-130458961D01*
X115403560Y-130463101D01*
X115211881Y-130557627D01*
X115202030Y-130563664D01*
X115030786Y-130691537D01*
X115022200Y-130699268D01*
X114877127Y-130856207D01*
X114870094Y-130865373D01*
X114756050Y-131046121D01*
X114750805Y-131056415D01*
X114675706Y-131244651D01*
X114516253Y-131085198D01*
X114516236Y-131085179D01*
X114191442Y-130760386D01*
X112678011Y-129246956D01*
X112678011Y-128178475D01*
X112677666Y-128171885D01*
X112655192Y-127958070D01*
X112652447Y-127945152D01*
X112563791Y-127672296D01*
X112558419Y-127660231D01*
X112414971Y-127411770D01*
X112407208Y-127401086D01*
X112215235Y-127187878D01*
X112205420Y-127179041D01*
X111973316Y-127010408D01*
X111961878Y-127003804D01*
X111699783Y-126887111D01*
X111687223Y-126883030D01*
X111406595Y-126823381D01*
X111393460Y-126822001D01*
X111106563Y-126822001D01*
X111093428Y-126823381D01*
X110812800Y-126883030D01*
X110800239Y-126887112D01*
X110538146Y-127003804D01*
X110526708Y-127010407D01*
X110478001Y-127045795D01*
X110478001Y-125541495D01*
X110601497Y-125418000D01*
X114937998Y-125418000D01*
X114929245Y-125424129D01*
X114920817Y-125431202D01*
X114751202Y-125600817D01*
X114744129Y-125609245D01*
X114606543Y-125805738D01*
X114601042Y-125815266D01*
X114496527Y-126039400D01*
X114570810Y-126156000D01*
X117929190Y-126156000D01*
X118003473Y-126039400D01*
X117898958Y-125815266D01*
X117893457Y-125805738D01*
X117755871Y-125609245D01*
X117748798Y-125600817D01*
X117579183Y-125431202D01*
X117570755Y-125424129D01*
X117374262Y-125286543D01*
X117364734Y-125281042D01*
X117147335Y-125179667D01*
X117136996Y-125175904D01*
X117078910Y-125160340D01*
X117088230Y-125154959D01*
X117098915Y-125147196D01*
X117127196Y-125121731D01*
X117288119Y-125042373D01*
X117297970Y-125036336D01*
X117469214Y-124908463D01*
X117477800Y-124900732D01*
X117622873Y-124743793D01*
X117629906Y-124734627D01*
X117743950Y-124553879D01*
X117749195Y-124543585D01*
X117828391Y-124345080D01*
X117831672Y-124334002D01*
X117873366Y-124124390D01*
X117874574Y-124112900D01*
X117877372Y-123899198D01*
X117876465Y-123887680D01*
X117840272Y-123677048D01*
X117837282Y-123665888D01*
X117763310Y-123465379D01*
X117758336Y-123454950D01*
X117649063Y-123271279D01*
X117642272Y-123261933D01*
X117501357Y-123101249D01*
X117492976Y-123093296D01*
X117325138Y-122960985D01*
X117315449Y-122954692D01*
X117126310Y-122855181D01*
X117121601Y-122853230D01*
X117098915Y-122832804D01*
X117088230Y-122825041D01*
X117078910Y-122819660D01*
X117136996Y-122804096D01*
X117147335Y-122800333D01*
X117364734Y-122698958D01*
X117374262Y-122693457D01*
X117570755Y-122555871D01*
X117579183Y-122548798D01*
X117748798Y-122379183D01*
X117755871Y-122370755D01*
X117893457Y-122174262D01*
X117898958Y-122164734D01*
X117986323Y-121977379D01*
X118447001Y-122438057D01*
X118447000Y-126770941D01*
X117228825Y-127989117D01*
X117126310Y-127935181D01*
X117115636Y-127930759D01*
X117044862Y-127908783D01*
X117136996Y-127884096D01*
X117147335Y-127880333D01*
X117364734Y-127778958D01*
X117374262Y-127773457D01*
X117570755Y-127635871D01*
X117579183Y-127628798D01*
X117748798Y-127459183D01*
X117755871Y-127450755D01*
X117893457Y-127254262D01*
X117898958Y-127244734D01*
X118003473Y-127020600D01*
X117929190Y-126904000D01*
X114570810Y-126904000D01*
X114496527Y-127020600D01*
X114601042Y-127244734D01*
X114606543Y-127254262D01*
X114744129Y-127450755D01*
X114751202Y-127459183D01*
X114920817Y-127628798D01*
X114929245Y-127635871D01*
X115125738Y-127773457D01*
X115135266Y-127778958D01*
X115352665Y-127880333D01*
X115363004Y-127884096D01*
X115452726Y-127908137D01*
X115414346Y-127918961D01*
X115403560Y-127923101D01*
X115211881Y-128017627D01*
X115202030Y-128023664D01*
X115030786Y-128151537D01*
X115022200Y-128159268D01*
X114877127Y-128316207D01*
X114870094Y-128325373D01*
X114756050Y-128506121D01*
X114750805Y-128516415D01*
X114671609Y-128714920D01*
X114668328Y-128725998D01*
X114626634Y-128935610D01*
X114625426Y-128947100D01*
X114622628Y-129160802D01*
X114623535Y-129172320D01*
X114659728Y-129382952D01*
X114662718Y-129394112D01*
X114736690Y-129594621D01*
X114741664Y-129605050D01*
X114850937Y-129788721D01*
X114857728Y-129798067D01*
X114998643Y-129958751D01*
X115007024Y-129966704D01*
X115174862Y-130099015D01*
X115184551Y-130105308D01*
X115373690Y-130204819D01*
X115384364Y-130209241D01*
X115588864Y-130272739D01*
X115600990Y-130275234D01*
X115795280Y-130295655D01*
X115801870Y-130296000D01*
X116704166Y-130296000D01*
X116709934Y-130295736D01*
X116868600Y-130281156D01*
X116879959Y-130279050D01*
X117085654Y-130221039D01*
X117096440Y-130216899D01*
X117288119Y-130122373D01*
X117297970Y-130116336D01*
X117469214Y-129988463D01*
X117477800Y-129980732D01*
X117622873Y-129823793D01*
X117629906Y-129814627D01*
X117743950Y-129633879D01*
X117749195Y-129623585D01*
X117828391Y-129425080D01*
X117831672Y-129414002D01*
X117873366Y-129204390D01*
X117874574Y-129192900D01*
X117877372Y-128979198D01*
X117876465Y-128967680D01*
X117867361Y-128914697D01*
X119373956Y-127408103D01*
X119421582Y-127368140D01*
X119435754Y-127351251D01*
X119466841Y-127297409D01*
X119502499Y-127246484D01*
X119511817Y-127226501D01*
X119515314Y-127213450D01*
X119522070Y-127201748D01*
X119529611Y-127181030D01*
X119540407Y-127119798D01*
X119556496Y-127059753D01*
X119558417Y-127037790D01*
X119553000Y-126975865D01*
X119553000Y-122233117D01*
X119558417Y-122171206D01*
X119556496Y-122149243D01*
X119540409Y-122089204D01*
X119529610Y-122027965D01*
X119522070Y-122007248D01*
X119515312Y-121995542D01*
X119511815Y-121982492D01*
X119502498Y-121962512D01*
X119466840Y-121911587D01*
X119435754Y-121857745D01*
X119421583Y-121840856D01*
X119373957Y-121800894D01*
X117580522Y-120007460D01*
X117748798Y-119839183D01*
X117755871Y-119830755D01*
X117893457Y-119634262D01*
X117898958Y-119624734D01*
X118003473Y-119400600D01*
X122116527Y-119400600D01*
X122221042Y-119624734D01*
X122226543Y-119634262D01*
X122364129Y-119830755D01*
X122371202Y-119839183D01*
X122540817Y-120008798D01*
X122549245Y-120015871D01*
X122745738Y-120153457D01*
X122755266Y-120158958D01*
X122800391Y-120180000D01*
X122755266Y-120201042D01*
X122745738Y-120206543D01*
X122549245Y-120344129D01*
X122540817Y-120351202D01*
X122371202Y-120520817D01*
X122364129Y-120529245D01*
X122226543Y-120725738D01*
X122221042Y-120735266D01*
X122116527Y-120959400D01*
X122190810Y-121076000D01*
X123422191Y-121076000D01*
X123496000Y-121002191D01*
X123496000Y-119357809D01*
X124244000Y-119357809D01*
X124244000Y-121002191D01*
X124317809Y-121076000D01*
X125549190Y-121076000D01*
X125623473Y-120959400D01*
X125518958Y-120735266D01*
X125513457Y-120725738D01*
X125375871Y-120529245D01*
X125368798Y-120520817D01*
X125199183Y-120351202D01*
X125190755Y-120344129D01*
X124994262Y-120206543D01*
X124984734Y-120201042D01*
X124939609Y-120180000D01*
X124984734Y-120158958D01*
X124994262Y-120153457D01*
X125190755Y-120015871D01*
X125199183Y-120008798D01*
X125368798Y-119839183D01*
X125375871Y-119830755D01*
X125513457Y-119634262D01*
X125518958Y-119624734D01*
X125623473Y-119400600D01*
X125549190Y-119284000D01*
X124317809Y-119284000D01*
X124244000Y-119357809D01*
X123496000Y-119357809D01*
X123422191Y-119284000D01*
X122190810Y-119284000D01*
X122116527Y-119400600D01*
X118003473Y-119400600D01*
X117929190Y-119284000D01*
X116697809Y-119284000D01*
X116624000Y-119357809D01*
X116624000Y-119482010D01*
X115876000Y-119482010D01*
X115876000Y-119357809D01*
X115802191Y-119284000D01*
X114570810Y-119284000D01*
X114496527Y-119400600D01*
X114534489Y-119482010D01*
X111264069Y-119482010D01*
X108843112Y-117061054D01*
X108803141Y-117013418D01*
X108786252Y-116999247D01*
X108732406Y-116968159D01*
X108681485Y-116932503D01*
X108661503Y-116923185D01*
X108648452Y-116919688D01*
X108636749Y-116912931D01*
X108616032Y-116905391D01*
X108554792Y-116894592D01*
X108494752Y-116878505D01*
X108472790Y-116876584D01*
X108410865Y-116882001D01*
X108351806Y-116882001D01*
X108404016Y-116742361D01*
X108328843Y-116634000D01*
X107447808Y-116634000D01*
X107373999Y-116707809D01*
X107373999Y-116882001D01*
X106626001Y-116882001D01*
X106626001Y-115065809D01*
X106626000Y-115065808D01*
X106626000Y-114928888D01*
X106626000Y-114167809D01*
X107373999Y-114167809D01*
X107373999Y-114914191D01*
X107374000Y-114914192D01*
X107374000Y-115812192D01*
X107447809Y-115886001D01*
X108328871Y-115886001D01*
X108404192Y-115779622D01*
X108359723Y-115653343D01*
X108355339Y-115643612D01*
X108238067Y-115432916D01*
X108232107Y-115424064D01*
X108081013Y-115236140D01*
X108073647Y-115228417D01*
X107893049Y-115068638D01*
X107884486Y-115062267D01*
X107767887Y-114989973D01*
X107861330Y-114934491D01*
X107870012Y-114928286D01*
X108053645Y-114772004D01*
X108061158Y-114764424D01*
X108215833Y-114579435D01*
X108221962Y-114570698D01*
X108343256Y-114362294D01*
X108347825Y-114352649D01*
X108359807Y-114320600D01*
X114496527Y-114320600D01*
X114601042Y-114544734D01*
X114606543Y-114554262D01*
X114744129Y-114750755D01*
X114751202Y-114759183D01*
X114920817Y-114928798D01*
X114929245Y-114935871D01*
X115125738Y-115073457D01*
X115135266Y-115078958D01*
X115352665Y-115180333D01*
X115363004Y-115184096D01*
X115452726Y-115208137D01*
X115414346Y-115218961D01*
X115403560Y-115223101D01*
X115211881Y-115317627D01*
X115202030Y-115323664D01*
X115030786Y-115451537D01*
X115022200Y-115459268D01*
X114877127Y-115616207D01*
X114870094Y-115625373D01*
X114756050Y-115806121D01*
X114750805Y-115816415D01*
X114671609Y-116014920D01*
X114668328Y-116025998D01*
X114626634Y-116235610D01*
X114625426Y-116247100D01*
X114622628Y-116460802D01*
X114623535Y-116472320D01*
X114659728Y-116682952D01*
X114662718Y-116694112D01*
X114736690Y-116894621D01*
X114741664Y-116905050D01*
X114850937Y-117088721D01*
X114857728Y-117098067D01*
X114998643Y-117258751D01*
X115007024Y-117266704D01*
X115174862Y-117399015D01*
X115184551Y-117405308D01*
X115373690Y-117504819D01*
X115384364Y-117509241D01*
X115455138Y-117531217D01*
X115363004Y-117555904D01*
X115352665Y-117559667D01*
X115135266Y-117661042D01*
X115125738Y-117666543D01*
X114929245Y-117804129D01*
X114920817Y-117811202D01*
X114751202Y-117980817D01*
X114744129Y-117989245D01*
X114606543Y-118185738D01*
X114601042Y-118195266D01*
X114496527Y-118419400D01*
X114570810Y-118536000D01*
X117929190Y-118536000D01*
X118003473Y-118419400D01*
X122116527Y-118419400D01*
X122190810Y-118536000D01*
X125549190Y-118536000D01*
X125623473Y-118419400D01*
X125518958Y-118195266D01*
X125513457Y-118185738D01*
X125375871Y-117989245D01*
X125368798Y-117980817D01*
X125199183Y-117811202D01*
X125190755Y-117804129D01*
X124994262Y-117666543D01*
X124984734Y-117661042D01*
X124767335Y-117559667D01*
X124756996Y-117555904D01*
X124667274Y-117531863D01*
X124705654Y-117521039D01*
X124716440Y-117516899D01*
X124908119Y-117422373D01*
X124917970Y-117416336D01*
X125089214Y-117288463D01*
X125097800Y-117280732D01*
X125242873Y-117123793D01*
X125249906Y-117114627D01*
X125363950Y-116933879D01*
X125369195Y-116923585D01*
X125448391Y-116725080D01*
X125451672Y-116714002D01*
X125493366Y-116504390D01*
X125494574Y-116492900D01*
X125497372Y-116279198D01*
X125496465Y-116267680D01*
X125460272Y-116057048D01*
X125457282Y-116045888D01*
X125383310Y-115845379D01*
X125378336Y-115834950D01*
X125269063Y-115651279D01*
X125262272Y-115641933D01*
X125121357Y-115481249D01*
X125112976Y-115473296D01*
X124945138Y-115340985D01*
X124935449Y-115334692D01*
X124746310Y-115235181D01*
X124735636Y-115230759D01*
X124531136Y-115167261D01*
X124519010Y-115164766D01*
X124324720Y-115144345D01*
X124318130Y-115144000D01*
X123415834Y-115144000D01*
X123410066Y-115144264D01*
X123251400Y-115158844D01*
X123240041Y-115160950D01*
X123034346Y-115218961D01*
X123023560Y-115223101D01*
X122831881Y-115317627D01*
X122822030Y-115323664D01*
X122650786Y-115451537D01*
X122642200Y-115459268D01*
X122497127Y-115616207D01*
X122490094Y-115625373D01*
X122376050Y-115806121D01*
X122370805Y-115816415D01*
X122291609Y-116014920D01*
X122288328Y-116025998D01*
X122246634Y-116235610D01*
X122245426Y-116247100D01*
X122242628Y-116460802D01*
X122243535Y-116472320D01*
X122279728Y-116682952D01*
X122282718Y-116694112D01*
X122356690Y-116894621D01*
X122361664Y-116905050D01*
X122470937Y-117088721D01*
X122477728Y-117098067D01*
X122618643Y-117258751D01*
X122627024Y-117266704D01*
X122794862Y-117399015D01*
X122804551Y-117405308D01*
X122993690Y-117504819D01*
X123004364Y-117509241D01*
X123075138Y-117531217D01*
X122983004Y-117555904D01*
X122972665Y-117559667D01*
X122755266Y-117661042D01*
X122745738Y-117666543D01*
X122549245Y-117804129D01*
X122540817Y-117811202D01*
X122371202Y-117980817D01*
X122364129Y-117989245D01*
X122226543Y-118185738D01*
X122221042Y-118195266D01*
X122116527Y-118419400D01*
X118003473Y-118419400D01*
X117898958Y-118195266D01*
X117893457Y-118185738D01*
X117755871Y-117989245D01*
X117748798Y-117980817D01*
X117579183Y-117811202D01*
X117570755Y-117804129D01*
X117374262Y-117666543D01*
X117364734Y-117661042D01*
X117147335Y-117559667D01*
X117136996Y-117555904D01*
X117047274Y-117531863D01*
X117085654Y-117521039D01*
X117096440Y-117516899D01*
X117288119Y-117422373D01*
X117297970Y-117416336D01*
X117469214Y-117288463D01*
X117477800Y-117280732D01*
X117622873Y-117123793D01*
X117629906Y-117114627D01*
X117743950Y-116933879D01*
X117749195Y-116923585D01*
X117828391Y-116725080D01*
X117831672Y-116714002D01*
X117873366Y-116504390D01*
X117874574Y-116492900D01*
X117877372Y-116279198D01*
X117876465Y-116267680D01*
X117840272Y-116057048D01*
X117837282Y-116045888D01*
X117763310Y-115845379D01*
X117758336Y-115834950D01*
X117649063Y-115651279D01*
X117642272Y-115641933D01*
X117501357Y-115481249D01*
X117492976Y-115473296D01*
X117325138Y-115340985D01*
X117315449Y-115334692D01*
X117126310Y-115235181D01*
X117115636Y-115230759D01*
X117044862Y-115208783D01*
X117136996Y-115184096D01*
X117147335Y-115180333D01*
X117364734Y-115078958D01*
X117374262Y-115073457D01*
X117570755Y-114935871D01*
X117579183Y-114928798D01*
X117748798Y-114759183D01*
X117755871Y-114750755D01*
X117893457Y-114554262D01*
X117898958Y-114544734D01*
X118003473Y-114320600D01*
X117929190Y-114204000D01*
X114570810Y-114204000D01*
X114496527Y-114320600D01*
X108359807Y-114320600D01*
X108404016Y-114202361D01*
X108328843Y-114094000D01*
X107447808Y-114094000D01*
X107373999Y-114167809D01*
X106626000Y-114167809D01*
X106626001Y-114160345D01*
X106626001Y-113097999D01*
X107374000Y-113097999D01*
X107374000Y-113272192D01*
X107447809Y-113346001D01*
X108328871Y-113346001D01*
X108404192Y-113239622D01*
X108359723Y-113113343D01*
X108355339Y-113103612D01*
X108352215Y-113097999D01*
X114611962Y-113097999D01*
X114606543Y-113105738D01*
X114601042Y-113115266D01*
X114496527Y-113339400D01*
X114570810Y-113456000D01*
X117929190Y-113456000D01*
X118003473Y-113339400D01*
X117898958Y-113115266D01*
X117893457Y-113105738D01*
X117888038Y-113097999D01*
X122482128Y-113097999D01*
X122376050Y-113266121D01*
X122370805Y-113276415D01*
X122291609Y-113474920D01*
X122288328Y-113485998D01*
X122246634Y-113695610D01*
X122245426Y-113707100D01*
X122242628Y-113920802D01*
X122243535Y-113932320D01*
X122279728Y-114142952D01*
X122282718Y-114154112D01*
X122356690Y-114354621D01*
X122361664Y-114365050D01*
X122470937Y-114548721D01*
X122477728Y-114558067D01*
X122618643Y-114718751D01*
X122627024Y-114726704D01*
X122794862Y-114859015D01*
X122804551Y-114865308D01*
X122993690Y-114964819D01*
X123004364Y-114969241D01*
X123208864Y-115032739D01*
X123220990Y-115035234D01*
X123415280Y-115055655D01*
X123421870Y-115056000D01*
X124324166Y-115056000D01*
X124329934Y-115055736D01*
X124488600Y-115041156D01*
X124499959Y-115039050D01*
X124705654Y-114981039D01*
X124716440Y-114976899D01*
X124908119Y-114882373D01*
X124917970Y-114876336D01*
X125089214Y-114748463D01*
X125097800Y-114740732D01*
X125242873Y-114583793D01*
X125249906Y-114574627D01*
X125363950Y-114393879D01*
X125369195Y-114383585D01*
X125448391Y-114185080D01*
X125451672Y-114174002D01*
X125493366Y-113964390D01*
X125494574Y-113952900D01*
X125497372Y-113739198D01*
X125496465Y-113727680D01*
X125460272Y-113517048D01*
X125457282Y-113505888D01*
X125383310Y-113305379D01*
X125378336Y-113294950D01*
X125269063Y-113111279D01*
X125262272Y-113101933D01*
X125258822Y-113097999D01*
X127065940Y-113097999D01*
X127447001Y-113479062D01*
X127447000Y-115287643D01*
X127447000Y-115287644D01*
X127447001Y-116597895D01*
X127447000Y-116597905D01*
X127447001Y-117475853D01*
X127441583Y-117537789D01*
X127443504Y-117559751D01*
X127459594Y-117619801D01*
X127470390Y-117681031D01*
X127477931Y-117701747D01*
X127484686Y-117713448D01*
X127488184Y-117726502D01*
X127497502Y-117746484D01*
X127533165Y-117797416D01*
X127564247Y-117851251D01*
X127578418Y-117868140D01*
X127626044Y-117908102D01*
X127841889Y-118123947D01*
X127881860Y-118171583D01*
X127898750Y-118185755D01*
X127952590Y-118216839D01*
X128003515Y-118252499D01*
X128023499Y-118261817D01*
X128036549Y-118265313D01*
X128048249Y-118272069D01*
X128068968Y-118279610D01*
X128130204Y-118290408D01*
X128190247Y-118306496D01*
X128212209Y-118308417D01*
X128274134Y-118303000D01*
X130475864Y-118303000D01*
X130537789Y-118308417D01*
X130559751Y-118306496D01*
X130619791Y-118290409D01*
X130681031Y-118279610D01*
X130701748Y-118272070D01*
X130713451Y-118265313D01*
X130726502Y-118261816D01*
X130746484Y-118252498D01*
X130797404Y-118216843D01*
X130851251Y-118185755D01*
X130868140Y-118171583D01*
X130908112Y-118123946D01*
X131123954Y-117908104D01*
X131171582Y-117868140D01*
X131185755Y-117851250D01*
X131216839Y-117797410D01*
X131252499Y-117746485D01*
X131261817Y-117726501D01*
X131265313Y-117713451D01*
X131272069Y-117701751D01*
X131279610Y-117681032D01*
X131290408Y-117619796D01*
X131306496Y-117559753D01*
X131308417Y-117537791D01*
X131303000Y-117475866D01*
X131303000Y-117384723D01*
X131313657Y-117380048D01*
X131331138Y-117368627D01*
X131474076Y-117237043D01*
X131486902Y-117220565D01*
X131579370Y-117049698D01*
X131586150Y-117029948D01*
X131617267Y-116843474D01*
X131618128Y-116833086D01*
X131618128Y-116318217D01*
X131617644Y-116310417D01*
X131599912Y-116168169D01*
X131595064Y-116150563D01*
X131517549Y-115973843D01*
X131506127Y-115956362D01*
X131384381Y-115824111D01*
X131523017Y-115735016D01*
X131536638Y-115723213D01*
X131685295Y-115551654D01*
X131695039Y-115536492D01*
X131789340Y-115330001D01*
X131794418Y-115312707D01*
X131807247Y-115223475D01*
X131731883Y-115136500D01*
X130438500Y-115136500D01*
X130438500Y-113824568D01*
X130413194Y-113804175D01*
X131061500Y-113804175D01*
X131061500Y-114439691D01*
X131135309Y-114513500D01*
X131721089Y-114513500D01*
X131796740Y-114419623D01*
X131755098Y-114228191D01*
X131746468Y-114207357D01*
X131622516Y-114014483D01*
X131610713Y-114000862D01*
X131439154Y-113852205D01*
X131423992Y-113842461D01*
X131177259Y-113729781D01*
X131061500Y-113804175D01*
X130413194Y-113804175D01*
X130344622Y-113748916D01*
X130190691Y-113782402D01*
X130169857Y-113791032D01*
X129976983Y-113914984D01*
X129963362Y-113926787D01*
X129822941Y-114088841D01*
X129803000Y-114067179D01*
X129803000Y-112774135D01*
X129808417Y-112712210D01*
X129806496Y-112690247D01*
X129790407Y-112630202D01*
X129779611Y-112568970D01*
X129772070Y-112548252D01*
X129765314Y-112536550D01*
X129761817Y-112523499D01*
X129752499Y-112503516D01*
X129716837Y-112452587D01*
X129685755Y-112398750D01*
X129671583Y-112381860D01*
X129623969Y-112341908D01*
X129271284Y-111989224D01*
X129802191Y-111989224D01*
X129876000Y-111915415D01*
X130623999Y-111915415D01*
X130697808Y-111989224D01*
X131254183Y-111989224D01*
X131267613Y-111987780D01*
X131603353Y-111914745D01*
X131624187Y-111906115D01*
X131824620Y-111777304D01*
X131838241Y-111765501D01*
X131992783Y-111587151D01*
X132002527Y-111571989D01*
X132100561Y-111357323D01*
X132105639Y-111340030D01*
X132138582Y-111110906D01*
X132139224Y-111101929D01*
X132139224Y-109797809D01*
X132065415Y-109724000D01*
X130697809Y-109723999D01*
X130624000Y-109797808D01*
X130623999Y-111915415D01*
X129876000Y-111915415D01*
X129876001Y-109797809D01*
X129802192Y-109724000D01*
X128557387Y-109723999D01*
X128558418Y-109712211D01*
X128556497Y-109690247D01*
X128540406Y-109630194D01*
X128529610Y-109568969D01*
X128522069Y-109548249D01*
X128515313Y-109536548D01*
X128511817Y-109523500D01*
X128502499Y-109503516D01*
X128466837Y-109452587D01*
X128435755Y-109398749D01*
X128421583Y-109381860D01*
X128373963Y-109341903D01*
X127408105Y-108376046D01*
X127368140Y-108328417D01*
X127351251Y-108314246D01*
X127297405Y-108283158D01*
X127246484Y-108247502D01*
X127226502Y-108238184D01*
X127213451Y-108234687D01*
X127201748Y-108227930D01*
X127181031Y-108220390D01*
X127119791Y-108209591D01*
X127059751Y-108193504D01*
X127037789Y-108191583D01*
X126975864Y-108197000D01*
X125367656Y-108197000D01*
X125269063Y-108031279D01*
X125262272Y-108021933D01*
X125208698Y-107960843D01*
X126975819Y-107960843D01*
X127057086Y-108050156D01*
X127071695Y-108062049D01*
X127269607Y-108179093D01*
X127287066Y-108186165D01*
X127510644Y-108239841D01*
X127529411Y-108241467D01*
X127758889Y-108227030D01*
X127777304Y-108223065D01*
X127992392Y-108141790D01*
X128008827Y-108132585D01*
X128190508Y-107991659D01*
X128203511Y-107978029D01*
X128335723Y-107789911D01*
X128344142Y-107773060D01*
X128360776Y-107721867D01*
X128360776Y-108902191D01*
X128434585Y-108976000D01*
X129802191Y-108976001D01*
X129876000Y-108902192D01*
X129876000Y-108902191D01*
X130623999Y-108902191D01*
X130697808Y-108976000D01*
X132065415Y-108976001D01*
X132139224Y-108902192D01*
X132139224Y-107595817D01*
X132137780Y-107582387D01*
X132064745Y-107246647D01*
X132056115Y-107225813D01*
X131927304Y-107025380D01*
X131915501Y-107011759D01*
X131737151Y-106857217D01*
X131721989Y-106847473D01*
X131507323Y-106749439D01*
X131490030Y-106744361D01*
X131260906Y-106711418D01*
X131251929Y-106710776D01*
X130697809Y-106710776D01*
X130624000Y-106784585D01*
X130623999Y-108902191D01*
X129876000Y-108902191D01*
X129876001Y-106784585D01*
X129802192Y-106710776D01*
X129245817Y-106710776D01*
X129232387Y-106712220D01*
X128896647Y-106785255D01*
X128875813Y-106793885D01*
X128675380Y-106922696D01*
X128661759Y-106934499D01*
X128507217Y-107112849D01*
X128497473Y-107128011D01*
X128420240Y-107297128D01*
X128420268Y-107293618D01*
X128417469Y-107274487D01*
X128349786Y-107054483D01*
X128341632Y-107037502D01*
X128212392Y-106847330D01*
X128199605Y-106833498D01*
X128020160Y-106689735D01*
X128003871Y-106680273D01*
X127790086Y-106595630D01*
X127771735Y-106591376D01*
X127542513Y-106573336D01*
X127523723Y-106574667D01*
X127299329Y-106624825D01*
X127281761Y-106631622D01*
X127082035Y-106745543D01*
X127067242Y-106757205D01*
X126975553Y-106854843D01*
X125437636Y-106854843D01*
X125551157Y-106805049D01*
X125568638Y-106793627D01*
X125621110Y-106745323D01*
X125664950Y-106771250D01*
X125682409Y-106778322D01*
X125905987Y-106831998D01*
X125924754Y-106833624D01*
X126154232Y-106819187D01*
X126172647Y-106815222D01*
X126387735Y-106733947D01*
X126404170Y-106724742D01*
X126585851Y-106583816D01*
X126598854Y-106570186D01*
X126731066Y-106382068D01*
X126739485Y-106365217D01*
X126810616Y-106146303D01*
X126813715Y-106127218D01*
X126815611Y-105885775D01*
X126812812Y-105866644D01*
X126745129Y-105646640D01*
X126736975Y-105629659D01*
X126607735Y-105439487D01*
X126594948Y-105425655D01*
X126415503Y-105281892D01*
X126399214Y-105272430D01*
X126185429Y-105187787D01*
X126167078Y-105183533D01*
X125937856Y-105165493D01*
X125919066Y-105166824D01*
X125694672Y-105216982D01*
X125677103Y-105223779D01*
X125625603Y-105253154D01*
X125612043Y-105238424D01*
X125595565Y-105225598D01*
X125424698Y-105133130D01*
X125404948Y-105126350D01*
X125218474Y-105095233D01*
X125208086Y-105094372D01*
X124768217Y-105094372D01*
X124760417Y-105094856D01*
X124618169Y-105112588D01*
X124600563Y-105117436D01*
X124423843Y-105194951D01*
X124406362Y-105206373D01*
X124263424Y-105337957D01*
X124250598Y-105354435D01*
X124200873Y-105446319D01*
X124180049Y-105398843D01*
X124168627Y-105381362D01*
X124037043Y-105238424D01*
X124020565Y-105225598D01*
X123849698Y-105133130D01*
X123829948Y-105126350D01*
X123643474Y-105095233D01*
X123633086Y-105094372D01*
X123193217Y-105094372D01*
X123185417Y-105094856D01*
X123043169Y-105112588D01*
X123025563Y-105117436D01*
X122848843Y-105194951D01*
X122831362Y-105206373D01*
X122688424Y-105337957D01*
X122675598Y-105354436D01*
X122625505Y-105447000D01*
X116163672Y-105447000D01*
X116142548Y-105398843D01*
X116131127Y-105381362D01*
X115999543Y-105238424D01*
X115983065Y-105225598D01*
X115812198Y-105133130D01*
X115792448Y-105126350D01*
X115605974Y-105095233D01*
X115595586Y-105094372D01*
X115155717Y-105094372D01*
X115147917Y-105094856D01*
X115005669Y-105112588D01*
X114988063Y-105117436D01*
X114811343Y-105194951D01*
X114793862Y-105206373D01*
X114650924Y-105337957D01*
X114638098Y-105354435D01*
X114588373Y-105446319D01*
X114567549Y-105398843D01*
X114556127Y-105381362D01*
X114424543Y-105238424D01*
X114408065Y-105225599D01*
X114328000Y-105182269D01*
X114328000Y-103928000D01*
X114589590Y-103928000D01*
X114607155Y-104002681D01*
X114618327Y-104026479D01*
X114700876Y-104135792D01*
X114718132Y-104151524D01*
X114833346Y-104222862D01*
X114855121Y-104231297D01*
X114982574Y-104255122D01*
X114994175Y-104256197D01*
X116107284Y-104256197D01*
X116121756Y-104254518D01*
X116277681Y-104217845D01*
X116301479Y-104206673D01*
X116410791Y-104124124D01*
X116426522Y-104106868D01*
X116497861Y-103991655D01*
X116506297Y-103969879D01*
X116530122Y-103842426D01*
X116531197Y-103830825D01*
X116531197Y-103242715D01*
X116529518Y-103228243D01*
X116492845Y-103072318D01*
X116481673Y-103048520D01*
X116445705Y-103000890D01*
X116497862Y-102916655D01*
X116506297Y-102894880D01*
X116530122Y-102767427D01*
X116531197Y-102755826D01*
X116531197Y-102169175D01*
X117968803Y-102169175D01*
X117968803Y-102757285D01*
X117970482Y-102771757D01*
X118007155Y-102927682D01*
X118018327Y-102951480D01*
X118054295Y-102999110D01*
X118002138Y-103083346D01*
X117993703Y-103105121D01*
X117969878Y-103232574D01*
X117968803Y-103244175D01*
X117968803Y-103832285D01*
X117970482Y-103846757D01*
X118007155Y-104002682D01*
X118018327Y-104026480D01*
X118100876Y-104135792D01*
X118118132Y-104151524D01*
X118233346Y-104222862D01*
X118255121Y-104231297D01*
X118382574Y-104255122D01*
X118394175Y-104256197D01*
X119507284Y-104256197D01*
X119521756Y-104254518D01*
X119528210Y-104253000D01*
X119586316Y-104253000D01*
X119608028Y-104249171D01*
X119770247Y-104190128D01*
X119789340Y-104179104D01*
X119847904Y-104129964D01*
X119946087Y-104228146D01*
X119946420Y-104230489D01*
X119951817Y-104248538D01*
X120049718Y-104456586D01*
X120060183Y-104472248D01*
X120214929Y-104642313D01*
X120229538Y-104654206D01*
X120427450Y-104771250D01*
X120444909Y-104778322D01*
X120668487Y-104831998D01*
X120687254Y-104833624D01*
X120916732Y-104819187D01*
X120935147Y-104815222D01*
X121150235Y-104733947D01*
X121166670Y-104724742D01*
X121348351Y-104583816D01*
X121361354Y-104570186D01*
X121493566Y-104382068D01*
X121501985Y-104365217D01*
X121573116Y-104146303D01*
X121576215Y-104127218D01*
X121578111Y-103885775D01*
X121575312Y-103866644D01*
X121507629Y-103646640D01*
X121499475Y-103629659D01*
X121370235Y-103439487D01*
X121357448Y-103425655D01*
X121178003Y-103281892D01*
X121161714Y-103272430D01*
X120947929Y-103187787D01*
X120929578Y-103183533D01*
X120700356Y-103165493D01*
X120681566Y-103166824D01*
X120491393Y-103209333D01*
X119942510Y-102660451D01*
X119935754Y-102648749D01*
X119931197Y-102643318D01*
X119931197Y-102167715D01*
X119929518Y-102153243D01*
X119892845Y-101997318D01*
X119881673Y-101973520D01*
X119799124Y-101864208D01*
X119781868Y-101848476D01*
X119666654Y-101777138D01*
X119644879Y-101768703D01*
X119517426Y-101744878D01*
X119505825Y-101743803D01*
X118392715Y-101743803D01*
X118378243Y-101745482D01*
X118222318Y-101782155D01*
X118198520Y-101793327D01*
X118089208Y-101875876D01*
X118073476Y-101893132D01*
X118002138Y-102008346D01*
X117993703Y-102030121D01*
X117969878Y-102157574D01*
X117968803Y-102169175D01*
X116531197Y-102169175D01*
X116531197Y-102167716D01*
X116529518Y-102153244D01*
X116492845Y-101997319D01*
X116481673Y-101973521D01*
X116399124Y-101864209D01*
X116381868Y-101848478D01*
X116266655Y-101777139D01*
X116244879Y-101768703D01*
X116117426Y-101744878D01*
X116105825Y-101743803D01*
X114992716Y-101743803D01*
X114978244Y-101745482D01*
X114822319Y-101782155D01*
X114798521Y-101793327D01*
X114689209Y-101875876D01*
X114673477Y-101893132D01*
X114602139Y-102008346D01*
X114593704Y-102030121D01*
X114585875Y-102072000D01*
X114060410Y-102072000D01*
X114042845Y-101997318D01*
X114031673Y-101973520D01*
X113949124Y-101864208D01*
X113931868Y-101848476D01*
X113816654Y-101777138D01*
X113794879Y-101768703D01*
X113667426Y-101744878D01*
X113655825Y-101743803D01*
X112542715Y-101743803D01*
X112528243Y-101745482D01*
X112372318Y-101782155D01*
X112348520Y-101793327D01*
X112239208Y-101875876D01*
X112223476Y-101893132D01*
X112152138Y-102008346D01*
X112143703Y-102030121D01*
X112119878Y-102157574D01*
X112118803Y-102169175D01*
X112118803Y-102757285D01*
X112120482Y-102771757D01*
X112157155Y-102927682D01*
X112168327Y-102951480D01*
X112204295Y-102999110D01*
X112152138Y-103083346D01*
X112143703Y-103105121D01*
X112119878Y-103232574D01*
X112118803Y-103244175D01*
X112118803Y-103832285D01*
X112120482Y-103846757D01*
X112157155Y-104002682D01*
X112168327Y-104026480D01*
X112250876Y-104135792D01*
X112268132Y-104151524D01*
X112383346Y-104222862D01*
X112405121Y-104231297D01*
X112532574Y-104255122D01*
X112544175Y-104256197D01*
X113222001Y-104256197D01*
X113222000Y-105204323D01*
X113218862Y-105206373D01*
X113075924Y-105337957D01*
X113063098Y-105354435D01*
X112970630Y-105525302D01*
X112963850Y-105545052D01*
X112932733Y-105731526D01*
X112931872Y-105741914D01*
X112931872Y-106256783D01*
X112932356Y-106264583D01*
X112950088Y-106406831D01*
X112954936Y-106424437D01*
X113032451Y-106601157D01*
X113043873Y-106618638D01*
X113139026Y-106722001D01*
X109384000Y-106722001D01*
X109384000Y-104884000D01*
X110506754Y-104884000D01*
X110520184Y-104882556D01*
X110748832Y-104832817D01*
X110769666Y-104824187D01*
X110908371Y-104735047D01*
X110921992Y-104723244D01*
X111028483Y-104600348D01*
X111038227Y-104585185D01*
X111105779Y-104437265D01*
X111110857Y-104419972D01*
X111133358Y-104263478D01*
X111134000Y-104254500D01*
X111134000Y-100426000D01*
X122574056Y-100426000D01*
X122489705Y-100523346D01*
G36*
X100626053Y-109952887D02*
G01*
X100578417Y-109992858D01*
X100564246Y-110009747D01*
X100533160Y-110063589D01*
X100497501Y-110114515D01*
X100488183Y-110134498D01*
X100484686Y-110147549D01*
X100477930Y-110159251D01*
X100470389Y-110179969D01*
X100459593Y-110241201D01*
X100443504Y-110301246D01*
X100441583Y-110323209D01*
X100447000Y-110385134D01*
X100447001Y-110956411D01*
X100447000Y-110956421D01*
X100447000Y-111242562D01*
X100447001Y-111242574D01*
X100447000Y-122725864D01*
X100441583Y-122787789D01*
X100443504Y-122809752D01*
X100459593Y-122869797D01*
X100470389Y-122931029D01*
X100477930Y-122951747D01*
X100484686Y-122963449D01*
X100488183Y-122976500D01*
X100497501Y-122996483D01*
X100533160Y-123047409D01*
X100564246Y-123101251D01*
X100578417Y-123118140D01*
X100626054Y-123158112D01*
X101721895Y-124253954D01*
X101761860Y-124301582D01*
X101778749Y-124315754D01*
X101832592Y-124346841D01*
X101883517Y-124382499D01*
X101903500Y-124391817D01*
X101916548Y-124395313D01*
X101928249Y-124402069D01*
X101948968Y-124409610D01*
X102010204Y-124420408D01*
X102070247Y-124436496D01*
X102092209Y-124438417D01*
X102154134Y-124433000D01*
X103305783Y-124433000D01*
X103410608Y-124614563D01*
X103417276Y-124623998D01*
X103562045Y-124793499D01*
X103570320Y-124801561D01*
X103743552Y-124941842D01*
X103753158Y-124948261D01*
X103913175Y-125035142D01*
X103908142Y-125037130D01*
X103692155Y-125144346D01*
X103683032Y-125149882D01*
X103488199Y-125291957D01*
X103480138Y-125298952D01*
X103312029Y-125471822D01*
X103305263Y-125480074D01*
X103168683Y-125678798D01*
X103163403Y-125688073D01*
X103051724Y-125929770D01*
X103126056Y-126046000D01*
X103960001Y-126046000D01*
X105654191Y-126046001D01*
X105654192Y-126046000D01*
X105666056Y-126046000D01*
X107374000Y-126046001D01*
X107373999Y-126794000D01*
X105805809Y-126793999D01*
X105805808Y-126794000D01*
X104959999Y-126794000D01*
X103128174Y-126793999D01*
X103053587Y-126908197D01*
X103149591Y-127126900D01*
X103154692Y-127136275D01*
X103287430Y-127337584D01*
X103294038Y-127345965D01*
X103458798Y-127522032D01*
X103466722Y-127529180D01*
X103470437Y-127532000D01*
X103370297Y-127532000D01*
X103339625Y-127527142D01*
X103326436Y-127526451D01*
X103220563Y-127532000D01*
X103186393Y-127532000D01*
X103179804Y-127532345D01*
X103145817Y-127535917D01*
X103039929Y-127541466D01*
X103026884Y-127543532D01*
X102996884Y-127551571D01*
X102965990Y-127554818D01*
X102953072Y-127557564D01*
X102852217Y-127590334D01*
X102749764Y-127617787D01*
X102737434Y-127622520D01*
X102709758Y-127636622D01*
X102680215Y-127646220D01*
X102668150Y-127651592D01*
X102576298Y-127704622D01*
X102481806Y-127752769D01*
X102470729Y-127759963D01*
X102446594Y-127779508D01*
X102419690Y-127795040D01*
X102409005Y-127802803D01*
X102330179Y-127873779D01*
X102303652Y-127895260D01*
X102298748Y-127899675D01*
X102274614Y-127923810D01*
X102195797Y-127994776D01*
X102186960Y-128004591D01*
X102168699Y-128029725D01*
X101479721Y-128718703D01*
X101454591Y-128736961D01*
X101444776Y-128745798D01*
X101373819Y-128824605D01*
X101349675Y-128848748D01*
X101345260Y-128853652D01*
X101323774Y-128880183D01*
X101252803Y-128959006D01*
X101245041Y-128969689D01*
X101229508Y-128996593D01*
X101209960Y-129020734D01*
X101202768Y-129031809D01*
X101154618Y-129126307D01*
X101101592Y-129218151D01*
X101096220Y-129230217D01*
X101086622Y-129259757D01*
X101072519Y-129287435D01*
X101067786Y-129299766D01*
X101040331Y-129402226D01*
X101007564Y-129503072D01*
X101004819Y-129515990D01*
X101001572Y-129546878D01*
X100993531Y-129576887D01*
X100991465Y-129589931D01*
X100985915Y-129695837D01*
X100982345Y-129729805D01*
X100982000Y-129736394D01*
X100982000Y-129770545D01*
X100976450Y-129876437D01*
X100977141Y-129889626D01*
X100982000Y-129920304D01*
X100981999Y-132371623D01*
X100977141Y-132402295D01*
X100976450Y-132415484D01*
X100981999Y-132521357D01*
X100981999Y-132555526D01*
X100982344Y-132562116D01*
X100985916Y-132596101D01*
X100991465Y-132701990D01*
X100993531Y-132715035D01*
X101001570Y-132745035D01*
X101004817Y-132775929D01*
X101007563Y-132788847D01*
X101040333Y-132889702D01*
X101067786Y-132992155D01*
X101072519Y-133004485D01*
X101086621Y-133032161D01*
X101096219Y-133061704D01*
X101101591Y-133073769D01*
X101154621Y-133165621D01*
X101202768Y-133260113D01*
X101209961Y-133271188D01*
X101229507Y-133295326D01*
X101245039Y-133322229D01*
X101252802Y-133332914D01*
X101323778Y-133411742D01*
X101345260Y-133438270D01*
X101349675Y-133443173D01*
X101373813Y-133467310D01*
X101444775Y-133546123D01*
X101454590Y-133554960D01*
X101479723Y-133573220D01*
X102480502Y-134574000D01*
X101310040Y-134574000D01*
X101297497Y-134571630D01*
X101291398Y-134570784D01*
X101105307Y-134554176D01*
X100965186Y-134515843D01*
X100834065Y-134453302D01*
X100716099Y-134368534D01*
X100615001Y-134264209D01*
X100533980Y-134143636D01*
X100475590Y-134010623D01*
X100440881Y-133866043D01*
X100429613Y-133712630D01*
X100427703Y-133701180D01*
X100426000Y-133694712D01*
X100426000Y-108134000D01*
X102444939Y-108134000D01*
X100626053Y-109952887D01*
G37*
X100626053Y-109952887D02*
X100578417Y-109992858D01*
X100564246Y-110009747D01*
X100533160Y-110063589D01*
X100497501Y-110114515D01*
X100488183Y-110134498D01*
X100484686Y-110147549D01*
X100477930Y-110159251D01*
X100470389Y-110179969D01*
X100459593Y-110241201D01*
X100443504Y-110301246D01*
X100441583Y-110323209D01*
X100447000Y-110385134D01*
X100447001Y-110956411D01*
X100447000Y-110956421D01*
X100447000Y-111242562D01*
X100447001Y-111242574D01*
X100447000Y-122725864D01*
X100441583Y-122787789D01*
X100443504Y-122809752D01*
X100459593Y-122869797D01*
X100470389Y-122931029D01*
X100477930Y-122951747D01*
X100484686Y-122963449D01*
X100488183Y-122976500D01*
X100497501Y-122996483D01*
X100533160Y-123047409D01*
X100564246Y-123101251D01*
X100578417Y-123118140D01*
X100626054Y-123158112D01*
X101721895Y-124253954D01*
X101761860Y-124301582D01*
X101778749Y-124315754D01*
X101832592Y-124346841D01*
X101883517Y-124382499D01*
X101903500Y-124391817D01*
X101916548Y-124395313D01*
X101928249Y-124402069D01*
X101948968Y-124409610D01*
X102010204Y-124420408D01*
X102070247Y-124436496D01*
X102092209Y-124438417D01*
X102154134Y-124433000D01*
X103305783Y-124433000D01*
X103410608Y-124614563D01*
X103417276Y-124623998D01*
X103562045Y-124793499D01*
X103570320Y-124801561D01*
X103743552Y-124941842D01*
X103753158Y-124948261D01*
X103913175Y-125035142D01*
X103908142Y-125037130D01*
X103692155Y-125144346D01*
X103683032Y-125149882D01*
X103488199Y-125291957D01*
X103480138Y-125298952D01*
X103312029Y-125471822D01*
X103305263Y-125480074D01*
X103168683Y-125678798D01*
X103163403Y-125688073D01*
X103051724Y-125929770D01*
X103126056Y-126046000D01*
X103960001Y-126046000D01*
X105654191Y-126046001D01*
X105654192Y-126046000D01*
X105666056Y-126046000D01*
X107374000Y-126046001D01*
X107373999Y-126794000D01*
X105805809Y-126793999D01*
X105805808Y-126794000D01*
X104959999Y-126794000D01*
X103128174Y-126793999D01*
X103053587Y-126908197D01*
X103149591Y-127126900D01*
X103154692Y-127136275D01*
X103287430Y-127337584D01*
X103294038Y-127345965D01*
X103458798Y-127522032D01*
X103466722Y-127529180D01*
X103470437Y-127532000D01*
X103370297Y-127532000D01*
X103339625Y-127527142D01*
X103326436Y-127526451D01*
X103220563Y-127532000D01*
X103186393Y-127532000D01*
X103179804Y-127532345D01*
X103145817Y-127535917D01*
X103039929Y-127541466D01*
X103026884Y-127543532D01*
X102996884Y-127551571D01*
X102965990Y-127554818D01*
X102953072Y-127557564D01*
X102852217Y-127590334D01*
X102749764Y-127617787D01*
X102737434Y-127622520D01*
X102709758Y-127636622D01*
X102680215Y-127646220D01*
X102668150Y-127651592D01*
X102576298Y-127704622D01*
X102481806Y-127752769D01*
X102470729Y-127759963D01*
X102446594Y-127779508D01*
X102419690Y-127795040D01*
X102409005Y-127802803D01*
X102330179Y-127873779D01*
X102303652Y-127895260D01*
X102298748Y-127899675D01*
X102274614Y-127923810D01*
X102195797Y-127994776D01*
X102186960Y-128004591D01*
X102168699Y-128029725D01*
X101479721Y-128718703D01*
X101454591Y-128736961D01*
X101444776Y-128745798D01*
X101373819Y-128824605D01*
X101349675Y-128848748D01*
X101345260Y-128853652D01*
X101323774Y-128880183D01*
X101252803Y-128959006D01*
X101245041Y-128969689D01*
X101229508Y-128996593D01*
X101209960Y-129020734D01*
X101202768Y-129031809D01*
X101154618Y-129126307D01*
X101101592Y-129218151D01*
X101096220Y-129230217D01*
X101086622Y-129259757D01*
X101072519Y-129287435D01*
X101067786Y-129299766D01*
X101040331Y-129402226D01*
X101007564Y-129503072D01*
X101004819Y-129515990D01*
X101001572Y-129546878D01*
X100993531Y-129576887D01*
X100991465Y-129589931D01*
X100985915Y-129695837D01*
X100982345Y-129729805D01*
X100982000Y-129736394D01*
X100982000Y-129770545D01*
X100976450Y-129876437D01*
X100977141Y-129889626D01*
X100982000Y-129920304D01*
X100981999Y-132371623D01*
X100977141Y-132402295D01*
X100976450Y-132415484D01*
X100981999Y-132521357D01*
X100981999Y-132555526D01*
X100982344Y-132562116D01*
X100985916Y-132596101D01*
X100991465Y-132701990D01*
X100993531Y-132715035D01*
X101001570Y-132745035D01*
X101004817Y-132775929D01*
X101007563Y-132788847D01*
X101040333Y-132889702D01*
X101067786Y-132992155D01*
X101072519Y-133004485D01*
X101086621Y-133032161D01*
X101096219Y-133061704D01*
X101101591Y-133073769D01*
X101154621Y-133165621D01*
X101202768Y-133260113D01*
X101209961Y-133271188D01*
X101229507Y-133295326D01*
X101245039Y-133322229D01*
X101252802Y-133332914D01*
X101323778Y-133411742D01*
X101345260Y-133438270D01*
X101349675Y-133443173D01*
X101373813Y-133467310D01*
X101444775Y-133546123D01*
X101454590Y-133554960D01*
X101479723Y-133573220D01*
X102480502Y-134574000D01*
X101310040Y-134574000D01*
X101297497Y-134571630D01*
X101291398Y-134570784D01*
X101105307Y-134554176D01*
X100965186Y-134515843D01*
X100834065Y-134453302D01*
X100716099Y-134368534D01*
X100615001Y-134264209D01*
X100533980Y-134143636D01*
X100475590Y-134010623D01*
X100440881Y-133866043D01*
X100429613Y-133712630D01*
X100427703Y-133701180D01*
X100426000Y-133694712D01*
X100426000Y-108134000D01*
X102444939Y-108134000D01*
X100626053Y-109952887D01*
G36*
X107374000Y-118352192D02*
G01*
X107447809Y-118426001D01*
X108328871Y-118426001D01*
X108404192Y-118319622D01*
X108359723Y-118193343D01*
X108355339Y-118183612D01*
X108297327Y-118079385D01*
X110626905Y-120408964D01*
X110666870Y-120456592D01*
X110683759Y-120470764D01*
X110737601Y-120501851D01*
X110788526Y-120537509D01*
X110808509Y-120546827D01*
X110821560Y-120550324D01*
X110833262Y-120557080D01*
X110853980Y-120564621D01*
X110915212Y-120575417D01*
X110975257Y-120591506D01*
X110997220Y-120593427D01*
X111059145Y-120588010D01*
X114702981Y-120588010D01*
X114606543Y-120725738D01*
X114601042Y-120735266D01*
X114496527Y-120959400D01*
X114570810Y-121076000D01*
X115802191Y-121076000D01*
X115876000Y-121002191D01*
X115876000Y-120588010D01*
X116596956Y-120588010D01*
X116624000Y-120615054D01*
X116624000Y-121824000D01*
X114570810Y-121824000D01*
X114496527Y-121940600D01*
X114601042Y-122164734D01*
X114606543Y-122174262D01*
X114744129Y-122370755D01*
X114751202Y-122379183D01*
X114920817Y-122548798D01*
X114929245Y-122555871D01*
X114937998Y-122562000D01*
X110122384Y-122562000D01*
X110091706Y-122557141D01*
X110078517Y-122556450D01*
X109972625Y-122562000D01*
X109938474Y-122562000D01*
X109931885Y-122562345D01*
X109897917Y-122565915D01*
X109792011Y-122571465D01*
X109778967Y-122573531D01*
X109748958Y-122581572D01*
X109718070Y-122584819D01*
X109705152Y-122587564D01*
X109604299Y-122620334D01*
X109501845Y-122647786D01*
X109489515Y-122652520D01*
X109461839Y-122666622D01*
X109432296Y-122676220D01*
X109420231Y-122681592D01*
X109328392Y-122734615D01*
X109233889Y-122782768D01*
X109222814Y-122789960D01*
X109198673Y-122809508D01*
X109171769Y-122825041D01*
X109161085Y-122832804D01*
X109082261Y-122903778D01*
X109055732Y-122925259D01*
X109050828Y-122929675D01*
X109026685Y-122953819D01*
X108947878Y-123024776D01*
X108939041Y-123034591D01*
X108920786Y-123059717D01*
X108266962Y-123713542D01*
X108234402Y-123537865D01*
X108231266Y-123526745D01*
X108151383Y-123318642D01*
X108146273Y-123308280D01*
X108029803Y-123118219D01*
X108022891Y-123108961D01*
X107873736Y-122943309D01*
X107865252Y-122935466D01*
X107688406Y-122799768D01*
X107678635Y-122793603D01*
X107539281Y-122722599D01*
X107644387Y-122682253D01*
X107653991Y-122677600D01*
X107861330Y-122554491D01*
X107870012Y-122548286D01*
X108053645Y-122392004D01*
X108061158Y-122384424D01*
X108215833Y-122199435D01*
X108221962Y-122190698D01*
X108343256Y-121982294D01*
X108347825Y-121972649D01*
X108404016Y-121822361D01*
X108328843Y-121714000D01*
X107499999Y-121714000D01*
X106626000Y-121713999D01*
X106626001Y-120145809D01*
X106626000Y-120145808D01*
X106626000Y-120008888D01*
X106626000Y-119247809D01*
X107373999Y-119247809D01*
X107373999Y-119994191D01*
X107374000Y-119994192D01*
X107374000Y-120892192D01*
X107447809Y-120966001D01*
X108328871Y-120966001D01*
X108404192Y-120859622D01*
X108359723Y-120733343D01*
X108355339Y-120723612D01*
X108238067Y-120512916D01*
X108232107Y-120504064D01*
X108081013Y-120316140D01*
X108073647Y-120308417D01*
X107893049Y-120148638D01*
X107884486Y-120142267D01*
X107767887Y-120069973D01*
X107861330Y-120014491D01*
X107870012Y-120008286D01*
X108053645Y-119852004D01*
X108061158Y-119844424D01*
X108215833Y-119659435D01*
X108221962Y-119650698D01*
X108343256Y-119442294D01*
X108347825Y-119432649D01*
X108404016Y-119282361D01*
X108328843Y-119174000D01*
X107447808Y-119174000D01*
X107373999Y-119247809D01*
X106626000Y-119247809D01*
X106626001Y-119240345D01*
X106626001Y-117988001D01*
X107374000Y-117988001D01*
X107374000Y-118352192D01*
G37*
X107374000Y-118352192D02*
X107447809Y-118426001D01*
X108328871Y-118426001D01*
X108404192Y-118319622D01*
X108359723Y-118193343D01*
X108355339Y-118183612D01*
X108297327Y-118079385D01*
X110626905Y-120408964D01*
X110666870Y-120456592D01*
X110683759Y-120470764D01*
X110737601Y-120501851D01*
X110788526Y-120537509D01*
X110808509Y-120546827D01*
X110821560Y-120550324D01*
X110833262Y-120557080D01*
X110853980Y-120564621D01*
X110915212Y-120575417D01*
X110975257Y-120591506D01*
X110997220Y-120593427D01*
X111059145Y-120588010D01*
X114702981Y-120588010D01*
X114606543Y-120725738D01*
X114601042Y-120735266D01*
X114496527Y-120959400D01*
X114570810Y-121076000D01*
X115802191Y-121076000D01*
X115876000Y-121002191D01*
X115876000Y-120588010D01*
X116596956Y-120588010D01*
X116624000Y-120615054D01*
X116624000Y-121824000D01*
X114570810Y-121824000D01*
X114496527Y-121940600D01*
X114601042Y-122164734D01*
X114606543Y-122174262D01*
X114744129Y-122370755D01*
X114751202Y-122379183D01*
X114920817Y-122548798D01*
X114929245Y-122555871D01*
X114937998Y-122562000D01*
X110122384Y-122562000D01*
X110091706Y-122557141D01*
X110078517Y-122556450D01*
X109972625Y-122562000D01*
X109938474Y-122562000D01*
X109931885Y-122562345D01*
X109897917Y-122565915D01*
X109792011Y-122571465D01*
X109778967Y-122573531D01*
X109748958Y-122581572D01*
X109718070Y-122584819D01*
X109705152Y-122587564D01*
X109604299Y-122620334D01*
X109501845Y-122647786D01*
X109489515Y-122652520D01*
X109461839Y-122666622D01*
X109432296Y-122676220D01*
X109420231Y-122681592D01*
X109328392Y-122734615D01*
X109233889Y-122782768D01*
X109222814Y-122789960D01*
X109198673Y-122809508D01*
X109171769Y-122825041D01*
X109161085Y-122832804D01*
X109082261Y-122903778D01*
X109055732Y-122925259D01*
X109050828Y-122929675D01*
X109026685Y-122953819D01*
X108947878Y-123024776D01*
X108939041Y-123034591D01*
X108920786Y-123059717D01*
X108266962Y-123713542D01*
X108234402Y-123537865D01*
X108231266Y-123526745D01*
X108151383Y-123318642D01*
X108146273Y-123308280D01*
X108029803Y-123118219D01*
X108022891Y-123108961D01*
X107873736Y-122943309D01*
X107865252Y-122935466D01*
X107688406Y-122799768D01*
X107678635Y-122793603D01*
X107539281Y-122722599D01*
X107644387Y-122682253D01*
X107653991Y-122677600D01*
X107861330Y-122554491D01*
X107870012Y-122548286D01*
X108053645Y-122392004D01*
X108061158Y-122384424D01*
X108215833Y-122199435D01*
X108221962Y-122190698D01*
X108343256Y-121982294D01*
X108347825Y-121972649D01*
X108404016Y-121822361D01*
X108328843Y-121714000D01*
X107499999Y-121714000D01*
X106626000Y-121713999D01*
X106626001Y-120145809D01*
X106626000Y-120145808D01*
X106626000Y-120008888D01*
X106626000Y-119247809D01*
X107373999Y-119247809D01*
X107373999Y-119994191D01*
X107374000Y-119994192D01*
X107374000Y-120892192D01*
X107447809Y-120966001D01*
X108328871Y-120966001D01*
X108404192Y-120859622D01*
X108359723Y-120733343D01*
X108355339Y-120723612D01*
X108238067Y-120512916D01*
X108232107Y-120504064D01*
X108081013Y-120316140D01*
X108073647Y-120308417D01*
X107893049Y-120148638D01*
X107884486Y-120142267D01*
X107767887Y-120069973D01*
X107861330Y-120014491D01*
X107870012Y-120008286D01*
X108053645Y-119852004D01*
X108061158Y-119844424D01*
X108215833Y-119659435D01*
X108221962Y-119650698D01*
X108343256Y-119442294D01*
X108347825Y-119432649D01*
X108404016Y-119282361D01*
X108328843Y-119174000D01*
X107447808Y-119174000D01*
X107373999Y-119247809D01*
X106626000Y-119247809D01*
X106626001Y-119240345D01*
X106626001Y-117988001D01*
X107374000Y-117988001D01*
X107374000Y-118352192D01*
G36*
X114618123Y-109000182D02*
G01*
X114618123Y-109556190D01*
X114619337Y-109568511D01*
X114646249Y-109703807D01*
X114655747Y-109726737D01*
X114735841Y-109846608D01*
X114753392Y-109864159D01*
X114873263Y-109944253D01*
X114896193Y-109953751D01*
X115031489Y-109980663D01*
X115043810Y-109981877D01*
X117456190Y-109981877D01*
X117468511Y-109980663D01*
X117603807Y-109953751D01*
X117626737Y-109944253D01*
X117675645Y-109911575D01*
X117664171Y-109984016D01*
X117664023Y-110002853D01*
X117696420Y-110230490D01*
X117701818Y-110248538D01*
X117799718Y-110456586D01*
X117810183Y-110472248D01*
X117964929Y-110642313D01*
X117979538Y-110654206D01*
X118177450Y-110771250D01*
X118194909Y-110778322D01*
X118418487Y-110831998D01*
X118437254Y-110833624D01*
X118666732Y-110819187D01*
X118685147Y-110815222D01*
X118900235Y-110733947D01*
X118916670Y-110724742D01*
X119098352Y-110583816D01*
X119111354Y-110570186D01*
X119120683Y-110556912D01*
X119125436Y-110556496D01*
X119185476Y-110540409D01*
X119246716Y-110529610D01*
X119267433Y-110522070D01*
X119279135Y-110515314D01*
X119292186Y-110511817D01*
X119312167Y-110502499D01*
X119363101Y-110466836D01*
X119416937Y-110435754D01*
X119433825Y-110421583D01*
X119473787Y-110373957D01*
X121886902Y-107960843D01*
X122529817Y-107960843D01*
X122497127Y-107996207D01*
X122490094Y-108005373D01*
X122376050Y-108186121D01*
X122370805Y-108196415D01*
X122291609Y-108394920D01*
X122288328Y-108405998D01*
X122246634Y-108615610D01*
X122245426Y-108627100D01*
X122242628Y-108840802D01*
X122243535Y-108852320D01*
X122279728Y-109062952D01*
X122282718Y-109074112D01*
X122356690Y-109274621D01*
X122361664Y-109285050D01*
X122470937Y-109468721D01*
X122477728Y-109478067D01*
X122618643Y-109638751D01*
X122627024Y-109646704D01*
X122794862Y-109779015D01*
X122804551Y-109785308D01*
X122993690Y-109884819D01*
X123004364Y-109889241D01*
X123208864Y-109952739D01*
X123220990Y-109955234D01*
X123415280Y-109975655D01*
X123421870Y-109976000D01*
X124324166Y-109976000D01*
X124329934Y-109975736D01*
X124488600Y-109961156D01*
X124499959Y-109959050D01*
X124705654Y-109901039D01*
X124716440Y-109896899D01*
X124908119Y-109802373D01*
X124917970Y-109796336D01*
X125089214Y-109668463D01*
X125097800Y-109660732D01*
X125242873Y-109503793D01*
X125249906Y-109494627D01*
X125363950Y-109313879D01*
X125369195Y-109303585D01*
X125369428Y-109303000D01*
X126770941Y-109303000D01*
X127447001Y-109979061D01*
X127447000Y-111475864D01*
X127441583Y-111537789D01*
X127443504Y-111559752D01*
X127459593Y-111619797D01*
X127470389Y-111681029D01*
X127477930Y-111701747D01*
X127484686Y-111713449D01*
X127488183Y-111726500D01*
X127497501Y-111746483D01*
X127533160Y-111797409D01*
X127564246Y-111851251D01*
X127578417Y-111868140D01*
X127626048Y-111908107D01*
X128697001Y-112979062D01*
X128697000Y-113982379D01*
X128611343Y-114019952D01*
X128593862Y-114031373D01*
X128553000Y-114068989D01*
X128553000Y-113274135D01*
X128558417Y-113212210D01*
X128556496Y-113190247D01*
X128540407Y-113130202D01*
X128529611Y-113068970D01*
X128522070Y-113048252D01*
X128515314Y-113036550D01*
X128511817Y-113023499D01*
X128502499Y-113003516D01*
X128466838Y-112952587D01*
X128435755Y-112898749D01*
X128421582Y-112881860D01*
X128373968Y-112841908D01*
X127703104Y-112171045D01*
X127663139Y-112123416D01*
X127646250Y-112109245D01*
X127592404Y-112078157D01*
X127541483Y-112042501D01*
X127521501Y-112033183D01*
X127508450Y-112029686D01*
X127496747Y-112022929D01*
X127476030Y-112015389D01*
X127414790Y-112004590D01*
X127354750Y-111988503D01*
X127332788Y-111986582D01*
X127270863Y-111991999D01*
X125276802Y-111991999D01*
X125363950Y-111853879D01*
X125369195Y-111843585D01*
X125448391Y-111645080D01*
X125451672Y-111634002D01*
X125493366Y-111424390D01*
X125494574Y-111412900D01*
X125497372Y-111199198D01*
X125496465Y-111187680D01*
X125460272Y-110977048D01*
X125457282Y-110965888D01*
X125383310Y-110765379D01*
X125378336Y-110754950D01*
X125269063Y-110571279D01*
X125262272Y-110561933D01*
X125121357Y-110401249D01*
X125112976Y-110393296D01*
X124945138Y-110260985D01*
X124935449Y-110254692D01*
X124746310Y-110155181D01*
X124735636Y-110150759D01*
X124531136Y-110087261D01*
X124519010Y-110084766D01*
X124324720Y-110064345D01*
X124318130Y-110064000D01*
X123415834Y-110064000D01*
X123410066Y-110064264D01*
X123251400Y-110078844D01*
X123240041Y-110080950D01*
X123034346Y-110138961D01*
X123023560Y-110143101D01*
X122831881Y-110237627D01*
X122822030Y-110243664D01*
X122650786Y-110371537D01*
X122642200Y-110379268D01*
X122497127Y-110536207D01*
X122490094Y-110545373D01*
X122376050Y-110726121D01*
X122370805Y-110736415D01*
X122291609Y-110934920D01*
X122288328Y-110945998D01*
X122246634Y-111155610D01*
X122245426Y-111167100D01*
X122242628Y-111380802D01*
X122243535Y-111392320D01*
X122279728Y-111602952D01*
X122282718Y-111614112D01*
X122356690Y-111814621D01*
X122361664Y-111825050D01*
X122460988Y-111991999D01*
X117656802Y-111991999D01*
X117743950Y-111853879D01*
X117749195Y-111843585D01*
X117828391Y-111645080D01*
X117831672Y-111634002D01*
X117873366Y-111424390D01*
X117874574Y-111412900D01*
X117877372Y-111199198D01*
X117876465Y-111187680D01*
X117840272Y-110977048D01*
X117837282Y-110965888D01*
X117763310Y-110765379D01*
X117758336Y-110754950D01*
X117649063Y-110571279D01*
X117642272Y-110561933D01*
X117501357Y-110401249D01*
X117492976Y-110393296D01*
X117325138Y-110260985D01*
X117315449Y-110254692D01*
X117126310Y-110155181D01*
X117115636Y-110150759D01*
X116911136Y-110087261D01*
X116899010Y-110084766D01*
X116704720Y-110064345D01*
X116698130Y-110064000D01*
X115795834Y-110064000D01*
X115790066Y-110064264D01*
X115631400Y-110078844D01*
X115620041Y-110080950D01*
X115414346Y-110138961D01*
X115403560Y-110143101D01*
X115211881Y-110237627D01*
X115202030Y-110243664D01*
X115101094Y-110319036D01*
X113608111Y-108826053D01*
X113568140Y-108778417D01*
X113551251Y-108764246D01*
X113497405Y-108733158D01*
X113446484Y-108697502D01*
X113426502Y-108688184D01*
X113413451Y-108684687D01*
X113401748Y-108677930D01*
X113381031Y-108670390D01*
X113319791Y-108659591D01*
X113259751Y-108643504D01*
X113237789Y-108641583D01*
X113175864Y-108647000D01*
X108634131Y-108647000D01*
X108572209Y-108641582D01*
X108550245Y-108643503D01*
X108490192Y-108659594D01*
X108428967Y-108670390D01*
X108408247Y-108677931D01*
X108396546Y-108684687D01*
X108383498Y-108688183D01*
X108363514Y-108697501D01*
X108312585Y-108733163D01*
X108258747Y-108764245D01*
X108241858Y-108778417D01*
X108201896Y-108826043D01*
X108013939Y-109014000D01*
X107447808Y-109014000D01*
X107373999Y-109087809D01*
X107373999Y-109451999D01*
X106626000Y-109451999D01*
X106626000Y-109087808D01*
X106552191Y-109013999D01*
X105805809Y-109013999D01*
X105805808Y-109014000D01*
X105788843Y-109014000D01*
X104086000Y-109013999D01*
X104086001Y-108266000D01*
X105654191Y-108266001D01*
X105654192Y-108266000D01*
X106500001Y-108266000D01*
X108328871Y-108266001D01*
X108404192Y-108159622D01*
X108395169Y-108134000D01*
X108756754Y-108134000D01*
X108770184Y-108132556D01*
X108998832Y-108082817D01*
X109019666Y-108074187D01*
X109158371Y-107985047D01*
X109171992Y-107973244D01*
X109278483Y-107850348D01*
X109288227Y-107835185D01*
X109291508Y-107828001D01*
X113445943Y-107828001D01*
X114618123Y-109000182D01*
G37*
X114618123Y-109000182D02*
X114618123Y-109556190D01*
X114619337Y-109568511D01*
X114646249Y-109703807D01*
X114655747Y-109726737D01*
X114735841Y-109846608D01*
X114753392Y-109864159D01*
X114873263Y-109944253D01*
X114896193Y-109953751D01*
X115031489Y-109980663D01*
X115043810Y-109981877D01*
X117456190Y-109981877D01*
X117468511Y-109980663D01*
X117603807Y-109953751D01*
X117626737Y-109944253D01*
X117675645Y-109911575D01*
X117664171Y-109984016D01*
X117664023Y-110002853D01*
X117696420Y-110230490D01*
X117701818Y-110248538D01*
X117799718Y-110456586D01*
X117810183Y-110472248D01*
X117964929Y-110642313D01*
X117979538Y-110654206D01*
X118177450Y-110771250D01*
X118194909Y-110778322D01*
X118418487Y-110831998D01*
X118437254Y-110833624D01*
X118666732Y-110819187D01*
X118685147Y-110815222D01*
X118900235Y-110733947D01*
X118916670Y-110724742D01*
X119098352Y-110583816D01*
X119111354Y-110570186D01*
X119120683Y-110556912D01*
X119125436Y-110556496D01*
X119185476Y-110540409D01*
X119246716Y-110529610D01*
X119267433Y-110522070D01*
X119279135Y-110515314D01*
X119292186Y-110511817D01*
X119312167Y-110502499D01*
X119363101Y-110466836D01*
X119416937Y-110435754D01*
X119433825Y-110421583D01*
X119473787Y-110373957D01*
X121886902Y-107960843D01*
X122529817Y-107960843D01*
X122497127Y-107996207D01*
X122490094Y-108005373D01*
X122376050Y-108186121D01*
X122370805Y-108196415D01*
X122291609Y-108394920D01*
X122288328Y-108405998D01*
X122246634Y-108615610D01*
X122245426Y-108627100D01*
X122242628Y-108840802D01*
X122243535Y-108852320D01*
X122279728Y-109062952D01*
X122282718Y-109074112D01*
X122356690Y-109274621D01*
X122361664Y-109285050D01*
X122470937Y-109468721D01*
X122477728Y-109478067D01*
X122618643Y-109638751D01*
X122627024Y-109646704D01*
X122794862Y-109779015D01*
X122804551Y-109785308D01*
X122993690Y-109884819D01*
X123004364Y-109889241D01*
X123208864Y-109952739D01*
X123220990Y-109955234D01*
X123415280Y-109975655D01*
X123421870Y-109976000D01*
X124324166Y-109976000D01*
X124329934Y-109975736D01*
X124488600Y-109961156D01*
X124499959Y-109959050D01*
X124705654Y-109901039D01*
X124716440Y-109896899D01*
X124908119Y-109802373D01*
X124917970Y-109796336D01*
X125089214Y-109668463D01*
X125097800Y-109660732D01*
X125242873Y-109503793D01*
X125249906Y-109494627D01*
X125363950Y-109313879D01*
X125369195Y-109303585D01*
X125369428Y-109303000D01*
X126770941Y-109303000D01*
X127447001Y-109979061D01*
X127447000Y-111475864D01*
X127441583Y-111537789D01*
X127443504Y-111559752D01*
X127459593Y-111619797D01*
X127470389Y-111681029D01*
X127477930Y-111701747D01*
X127484686Y-111713449D01*
X127488183Y-111726500D01*
X127497501Y-111746483D01*
X127533160Y-111797409D01*
X127564246Y-111851251D01*
X127578417Y-111868140D01*
X127626048Y-111908107D01*
X128697001Y-112979062D01*
X128697000Y-113982379D01*
X128611343Y-114019952D01*
X128593862Y-114031373D01*
X128553000Y-114068989D01*
X128553000Y-113274135D01*
X128558417Y-113212210D01*
X128556496Y-113190247D01*
X128540407Y-113130202D01*
X128529611Y-113068970D01*
X128522070Y-113048252D01*
X128515314Y-113036550D01*
X128511817Y-113023499D01*
X128502499Y-113003516D01*
X128466838Y-112952587D01*
X128435755Y-112898749D01*
X128421582Y-112881860D01*
X128373968Y-112841908D01*
X127703104Y-112171045D01*
X127663139Y-112123416D01*
X127646250Y-112109245D01*
X127592404Y-112078157D01*
X127541483Y-112042501D01*
X127521501Y-112033183D01*
X127508450Y-112029686D01*
X127496747Y-112022929D01*
X127476030Y-112015389D01*
X127414790Y-112004590D01*
X127354750Y-111988503D01*
X127332788Y-111986582D01*
X127270863Y-111991999D01*
X125276802Y-111991999D01*
X125363950Y-111853879D01*
X125369195Y-111843585D01*
X125448391Y-111645080D01*
X125451672Y-111634002D01*
X125493366Y-111424390D01*
X125494574Y-111412900D01*
X125497372Y-111199198D01*
X125496465Y-111187680D01*
X125460272Y-110977048D01*
X125457282Y-110965888D01*
X125383310Y-110765379D01*
X125378336Y-110754950D01*
X125269063Y-110571279D01*
X125262272Y-110561933D01*
X125121357Y-110401249D01*
X125112976Y-110393296D01*
X124945138Y-110260985D01*
X124935449Y-110254692D01*
X124746310Y-110155181D01*
X124735636Y-110150759D01*
X124531136Y-110087261D01*
X124519010Y-110084766D01*
X124324720Y-110064345D01*
X124318130Y-110064000D01*
X123415834Y-110064000D01*
X123410066Y-110064264D01*
X123251400Y-110078844D01*
X123240041Y-110080950D01*
X123034346Y-110138961D01*
X123023560Y-110143101D01*
X122831881Y-110237627D01*
X122822030Y-110243664D01*
X122650786Y-110371537D01*
X122642200Y-110379268D01*
X122497127Y-110536207D01*
X122490094Y-110545373D01*
X122376050Y-110726121D01*
X122370805Y-110736415D01*
X122291609Y-110934920D01*
X122288328Y-110945998D01*
X122246634Y-111155610D01*
X122245426Y-111167100D01*
X122242628Y-111380802D01*
X122243535Y-111392320D01*
X122279728Y-111602952D01*
X122282718Y-111614112D01*
X122356690Y-111814621D01*
X122361664Y-111825050D01*
X122460988Y-111991999D01*
X117656802Y-111991999D01*
X117743950Y-111853879D01*
X117749195Y-111843585D01*
X117828391Y-111645080D01*
X117831672Y-111634002D01*
X117873366Y-111424390D01*
X117874574Y-111412900D01*
X117877372Y-111199198D01*
X117876465Y-111187680D01*
X117840272Y-110977048D01*
X117837282Y-110965888D01*
X117763310Y-110765379D01*
X117758336Y-110754950D01*
X117649063Y-110571279D01*
X117642272Y-110561933D01*
X117501357Y-110401249D01*
X117492976Y-110393296D01*
X117325138Y-110260985D01*
X117315449Y-110254692D01*
X117126310Y-110155181D01*
X117115636Y-110150759D01*
X116911136Y-110087261D01*
X116899010Y-110084766D01*
X116704720Y-110064345D01*
X116698130Y-110064000D01*
X115795834Y-110064000D01*
X115790066Y-110064264D01*
X115631400Y-110078844D01*
X115620041Y-110080950D01*
X115414346Y-110138961D01*
X115403560Y-110143101D01*
X115211881Y-110237627D01*
X115202030Y-110243664D01*
X115101094Y-110319036D01*
X113608111Y-108826053D01*
X113568140Y-108778417D01*
X113551251Y-108764246D01*
X113497405Y-108733158D01*
X113446484Y-108697502D01*
X113426502Y-108688184D01*
X113413451Y-108684687D01*
X113401748Y-108677930D01*
X113381031Y-108670390D01*
X113319791Y-108659591D01*
X113259751Y-108643504D01*
X113237789Y-108641583D01*
X113175864Y-108647000D01*
X108634131Y-108647000D01*
X108572209Y-108641582D01*
X108550245Y-108643503D01*
X108490192Y-108659594D01*
X108428967Y-108670390D01*
X108408247Y-108677931D01*
X108396546Y-108684687D01*
X108383498Y-108688183D01*
X108363514Y-108697501D01*
X108312585Y-108733163D01*
X108258747Y-108764245D01*
X108241858Y-108778417D01*
X108201896Y-108826043D01*
X108013939Y-109014000D01*
X107447808Y-109014000D01*
X107373999Y-109087809D01*
X107373999Y-109451999D01*
X106626000Y-109451999D01*
X106626000Y-109087808D01*
X106552191Y-109013999D01*
X105805809Y-109013999D01*
X105805808Y-109014000D01*
X105788843Y-109014000D01*
X104086000Y-109013999D01*
X104086001Y-108266000D01*
X105654191Y-108266001D01*
X105654192Y-108266000D01*
X106500001Y-108266000D01*
X108328871Y-108266001D01*
X108404192Y-108159622D01*
X108395169Y-108134000D01*
X108756754Y-108134000D01*
X108770184Y-108132556D01*
X108998832Y-108082817D01*
X109019666Y-108074187D01*
X109158371Y-107985047D01*
X109171992Y-107973244D01*
X109278483Y-107850348D01*
X109288227Y-107835185D01*
X109291508Y-107828001D01*
X113445943Y-107828001D01*
X114618123Y-109000182D01*
G36*
X114626289Y-111408348D02*
G01*
X114659728Y-111602952D01*
X114662718Y-111614112D01*
X114736690Y-111814621D01*
X114741664Y-111825050D01*
X114840988Y-111991999D01*
X108244485Y-111991999D01*
X108343256Y-111822294D01*
X108347825Y-111812649D01*
X108404016Y-111662361D01*
X108328843Y-111554000D01*
X107447808Y-111554000D01*
X107373999Y-111627809D01*
X107373999Y-111991999D01*
X106626000Y-111991999D01*
X106626001Y-111620345D01*
X106626001Y-110557999D01*
X107374000Y-110557999D01*
X107374000Y-110732192D01*
X107447809Y-110806001D01*
X108328871Y-110806001D01*
X108404192Y-110699622D01*
X108359723Y-110573343D01*
X108355339Y-110563612D01*
X108238451Y-110353606D01*
X108839058Y-109753000D01*
X112970942Y-109753000D01*
X114626289Y-111408348D01*
G37*
X114626289Y-111408348D02*
X114659728Y-111602952D01*
X114662718Y-111614112D01*
X114736690Y-111814621D01*
X114741664Y-111825050D01*
X114840988Y-111991999D01*
X108244485Y-111991999D01*
X108343256Y-111822294D01*
X108347825Y-111812649D01*
X108404016Y-111662361D01*
X108328843Y-111554000D01*
X107447808Y-111554000D01*
X107373999Y-111627809D01*
X107373999Y-111991999D01*
X106626000Y-111991999D01*
X106626001Y-111620345D01*
X106626001Y-110557999D01*
X107374000Y-110557999D01*
X107374000Y-110732192D01*
X107447809Y-110806001D01*
X108328871Y-110806001D01*
X108404192Y-110699622D01*
X108359723Y-110573343D01*
X108355339Y-110563612D01*
X108238451Y-110353606D01*
X108839058Y-109753000D01*
X112970942Y-109753000D01*
X114626289Y-111408348D01*
%TO.N,+12V*%
G36*
X110374000Y-104124000D02*
G01*
X108697809Y-104124000D01*
X108624000Y-104197809D01*
X108624000Y-106514001D01*
X108429575Y-106514001D01*
X108432272Y-106506788D01*
X108435151Y-106496511D01*
X108468943Y-106319370D01*
X108393356Y-106228000D01*
X105805809Y-106227999D01*
X105805808Y-106228000D01*
X103062272Y-106227999D01*
X102986602Y-106324852D01*
X103049221Y-106576005D01*
X103052669Y-106586104D01*
X103149591Y-106806900D01*
X103154692Y-106816275D01*
X103279392Y-107005391D01*
X102910783Y-107374000D01*
X100634000Y-107374000D01*
X100634000Y-105873233D01*
X102984085Y-105873233D01*
X103059734Y-105972000D01*
X104258191Y-105972001D01*
X104332000Y-105898192D01*
X104332000Y-104754191D01*
X104588000Y-104754192D01*
X104587999Y-105898191D01*
X104661808Y-105972000D01*
X106798191Y-105972001D01*
X106872000Y-105898192D01*
X106872000Y-104754191D01*
X107128000Y-104754192D01*
X107127999Y-105898191D01*
X107201808Y-105972000D01*
X108392863Y-105972001D01*
X108468373Y-105882488D01*
X108442499Y-105731114D01*
X108439817Y-105720784D01*
X108359723Y-105493343D01*
X108355339Y-105483612D01*
X108238067Y-105272916D01*
X108232107Y-105264064D01*
X108081013Y-105076140D01*
X108073647Y-105068417D01*
X107893049Y-104908638D01*
X107884486Y-104902267D01*
X107767888Y-104829973D01*
X107861330Y-104774491D01*
X107870012Y-104768286D01*
X108053645Y-104612004D01*
X108061158Y-104604424D01*
X108215833Y-104419435D01*
X108221962Y-104410698D01*
X108343256Y-104202294D01*
X108347825Y-104192650D01*
X108432272Y-103966787D01*
X108435151Y-103956511D01*
X108468943Y-103779370D01*
X108393356Y-103688000D01*
X107201809Y-103687999D01*
X107128000Y-103761808D01*
X107127999Y-104754191D01*
X106872000Y-104754191D01*
X106872001Y-103761809D01*
X106798192Y-103688000D01*
X104661809Y-103687999D01*
X104588000Y-103761808D01*
X104587999Y-104754191D01*
X104332000Y-104754191D01*
X104332001Y-103761809D01*
X104258192Y-103688000D01*
X103062272Y-103687999D01*
X102986602Y-103784852D01*
X103049221Y-104036005D01*
X103052669Y-104046104D01*
X103149591Y-104266900D01*
X103154692Y-104276275D01*
X103287430Y-104477584D01*
X103294038Y-104485965D01*
X103458798Y-104662032D01*
X103466722Y-104669180D01*
X103658792Y-104814968D01*
X103667808Y-104820679D01*
X103684166Y-104829194D01*
X103683032Y-104829882D01*
X103488199Y-104971957D01*
X103480138Y-104978952D01*
X103312029Y-105151822D01*
X103305263Y-105160074D01*
X103168683Y-105358798D01*
X103163403Y-105368073D01*
X103062260Y-105586968D01*
X103058619Y-105597000D01*
X102984085Y-105873233D01*
X100634000Y-105873233D01*
X100634000Y-103333233D01*
X102984085Y-103333233D01*
X103059734Y-103432000D01*
X104258191Y-103432001D01*
X104332000Y-103358191D01*
X104587999Y-103358191D01*
X104661808Y-103432000D01*
X106798191Y-103432001D01*
X106872000Y-103358191D01*
X107127999Y-103358191D01*
X107201808Y-103432000D01*
X108392863Y-103432001D01*
X108468373Y-103342488D01*
X108442499Y-103191114D01*
X108439817Y-103180784D01*
X108359723Y-102953343D01*
X108355339Y-102943612D01*
X108238067Y-102732916D01*
X108232107Y-102724064D01*
X108081013Y-102536140D01*
X108073647Y-102528417D01*
X107893049Y-102368638D01*
X107884486Y-102362267D01*
X107679549Y-102235202D01*
X107670036Y-102230365D01*
X107446619Y-102139645D01*
X107436427Y-102136480D01*
X107222096Y-102089356D01*
X107128000Y-102165011D01*
X107127999Y-103358191D01*
X106872000Y-103358191D01*
X106872001Y-102166201D01*
X106786981Y-102090982D01*
X106699474Y-102101726D01*
X106689030Y-102103918D01*
X106458068Y-102173210D01*
X106448142Y-102177130D01*
X106232155Y-102284346D01*
X106223032Y-102289882D01*
X106028199Y-102431957D01*
X106020138Y-102438952D01*
X105852029Y-102611822D01*
X105845263Y-102620074D01*
X105729229Y-102788903D01*
X105698067Y-102732916D01*
X105692107Y-102724064D01*
X105541013Y-102536140D01*
X105533647Y-102528417D01*
X105353049Y-102368638D01*
X105344486Y-102362267D01*
X105139549Y-102235202D01*
X105130036Y-102230365D01*
X104906619Y-102139645D01*
X104896427Y-102136480D01*
X104682096Y-102089356D01*
X104588000Y-102165011D01*
X104587999Y-103358191D01*
X104332000Y-103358191D01*
X104332001Y-102166201D01*
X104246981Y-102090982D01*
X104159474Y-102101726D01*
X104149030Y-102103918D01*
X103918068Y-102173210D01*
X103908142Y-102177130D01*
X103692155Y-102284346D01*
X103683032Y-102289882D01*
X103488199Y-102431957D01*
X103480138Y-102438952D01*
X103312029Y-102611822D01*
X103305263Y-102620074D01*
X103168683Y-102818798D01*
X103163403Y-102828073D01*
X103062260Y-103046968D01*
X103058619Y-103057000D01*
X102984085Y-103333233D01*
X100634000Y-103333233D01*
X100634000Y-101327731D01*
X100634008Y-101327699D01*
X100635584Y-101318478D01*
X100636676Y-101307012D01*
X100651376Y-101142290D01*
X100679911Y-101037987D01*
X100726465Y-100940385D01*
X100789569Y-100852566D01*
X100867225Y-100777314D01*
X100956985Y-100716997D01*
X101055995Y-100673534D01*
X101166060Y-100647110D01*
X101301288Y-100637179D01*
X101310160Y-100635889D01*
X101318787Y-100634000D01*
X110374000Y-100634000D01*
X110374000Y-104124000D01*
G37*
X110374000Y-104124000D02*
X108697809Y-104124000D01*
X108624000Y-104197809D01*
X108624000Y-106514001D01*
X108429575Y-106514001D01*
X108432272Y-106506788D01*
X108435151Y-106496511D01*
X108468943Y-106319370D01*
X108393356Y-106228000D01*
X105805809Y-106227999D01*
X105805808Y-106228000D01*
X103062272Y-106227999D01*
X102986602Y-106324852D01*
X103049221Y-106576005D01*
X103052669Y-106586104D01*
X103149591Y-106806900D01*
X103154692Y-106816275D01*
X103279392Y-107005391D01*
X102910783Y-107374000D01*
X100634000Y-107374000D01*
X100634000Y-105873233D01*
X102984085Y-105873233D01*
X103059734Y-105972000D01*
X104258191Y-105972001D01*
X104332000Y-105898192D01*
X104332000Y-104754191D01*
X104588000Y-104754192D01*
X104587999Y-105898191D01*
X104661808Y-105972000D01*
X106798191Y-105972001D01*
X106872000Y-105898192D01*
X106872000Y-104754191D01*
X107128000Y-104754192D01*
X107127999Y-105898191D01*
X107201808Y-105972000D01*
X108392863Y-105972001D01*
X108468373Y-105882488D01*
X108442499Y-105731114D01*
X108439817Y-105720784D01*
X108359723Y-105493343D01*
X108355339Y-105483612D01*
X108238067Y-105272916D01*
X108232107Y-105264064D01*
X108081013Y-105076140D01*
X108073647Y-105068417D01*
X107893049Y-104908638D01*
X107884486Y-104902267D01*
X107767888Y-104829973D01*
X107861330Y-104774491D01*
X107870012Y-104768286D01*
X108053645Y-104612004D01*
X108061158Y-104604424D01*
X108215833Y-104419435D01*
X108221962Y-104410698D01*
X108343256Y-104202294D01*
X108347825Y-104192650D01*
X108432272Y-103966787D01*
X108435151Y-103956511D01*
X108468943Y-103779370D01*
X108393356Y-103688000D01*
X107201809Y-103687999D01*
X107128000Y-103761808D01*
X107127999Y-104754191D01*
X106872000Y-104754191D01*
X106872001Y-103761809D01*
X106798192Y-103688000D01*
X104661809Y-103687999D01*
X104588000Y-103761808D01*
X104587999Y-104754191D01*
X104332000Y-104754191D01*
X104332001Y-103761809D01*
X104258192Y-103688000D01*
X103062272Y-103687999D01*
X102986602Y-103784852D01*
X103049221Y-104036005D01*
X103052669Y-104046104D01*
X103149591Y-104266900D01*
X103154692Y-104276275D01*
X103287430Y-104477584D01*
X103294038Y-104485965D01*
X103458798Y-104662032D01*
X103466722Y-104669180D01*
X103658792Y-104814968D01*
X103667808Y-104820679D01*
X103684166Y-104829194D01*
X103683032Y-104829882D01*
X103488199Y-104971957D01*
X103480138Y-104978952D01*
X103312029Y-105151822D01*
X103305263Y-105160074D01*
X103168683Y-105358798D01*
X103163403Y-105368073D01*
X103062260Y-105586968D01*
X103058619Y-105597000D01*
X102984085Y-105873233D01*
X100634000Y-105873233D01*
X100634000Y-103333233D01*
X102984085Y-103333233D01*
X103059734Y-103432000D01*
X104258191Y-103432001D01*
X104332000Y-103358191D01*
X104587999Y-103358191D01*
X104661808Y-103432000D01*
X106798191Y-103432001D01*
X106872000Y-103358191D01*
X107127999Y-103358191D01*
X107201808Y-103432000D01*
X108392863Y-103432001D01*
X108468373Y-103342488D01*
X108442499Y-103191114D01*
X108439817Y-103180784D01*
X108359723Y-102953343D01*
X108355339Y-102943612D01*
X108238067Y-102732916D01*
X108232107Y-102724064D01*
X108081013Y-102536140D01*
X108073647Y-102528417D01*
X107893049Y-102368638D01*
X107884486Y-102362267D01*
X107679549Y-102235202D01*
X107670036Y-102230365D01*
X107446619Y-102139645D01*
X107436427Y-102136480D01*
X107222096Y-102089356D01*
X107128000Y-102165011D01*
X107127999Y-103358191D01*
X106872000Y-103358191D01*
X106872001Y-102166201D01*
X106786981Y-102090982D01*
X106699474Y-102101726D01*
X106689030Y-102103918D01*
X106458068Y-102173210D01*
X106448142Y-102177130D01*
X106232155Y-102284346D01*
X106223032Y-102289882D01*
X106028199Y-102431957D01*
X106020138Y-102438952D01*
X105852029Y-102611822D01*
X105845263Y-102620074D01*
X105729229Y-102788903D01*
X105698067Y-102732916D01*
X105692107Y-102724064D01*
X105541013Y-102536140D01*
X105533647Y-102528417D01*
X105353049Y-102368638D01*
X105344486Y-102362267D01*
X105139549Y-102235202D01*
X105130036Y-102230365D01*
X104906619Y-102139645D01*
X104896427Y-102136480D01*
X104682096Y-102089356D01*
X104588000Y-102165011D01*
X104587999Y-103358191D01*
X104332000Y-103358191D01*
X104332001Y-102166201D01*
X104246981Y-102090982D01*
X104159474Y-102101726D01*
X104149030Y-102103918D01*
X103918068Y-102173210D01*
X103908142Y-102177130D01*
X103692155Y-102284346D01*
X103683032Y-102289882D01*
X103488199Y-102431957D01*
X103480138Y-102438952D01*
X103312029Y-102611822D01*
X103305263Y-102620074D01*
X103168683Y-102818798D01*
X103163403Y-102828073D01*
X103062260Y-103046968D01*
X103058619Y-103057000D01*
X102984085Y-103333233D01*
X100634000Y-103333233D01*
X100634000Y-101327731D01*
X100634008Y-101327699D01*
X100635584Y-101318478D01*
X100636676Y-101307012D01*
X100651376Y-101142290D01*
X100679911Y-101037987D01*
X100726465Y-100940385D01*
X100789569Y-100852566D01*
X100867225Y-100777314D01*
X100956985Y-100716997D01*
X101055995Y-100673534D01*
X101166060Y-100647110D01*
X101301288Y-100637179D01*
X101310160Y-100635889D01*
X101318787Y-100634000D01*
X110374000Y-100634000D01*
X110374000Y-104124000D01*
G36*
X128896647Y-100685255D02*
G01*
X128875813Y-100693885D01*
X128675380Y-100822696D01*
X128661759Y-100834499D01*
X128507217Y-101012849D01*
X128497473Y-101028011D01*
X128399439Y-101242677D01*
X128394361Y-101259970D01*
X128361418Y-101489094D01*
X128360776Y-101498071D01*
X128360776Y-102802191D01*
X128434585Y-102876000D01*
X130624000Y-102876001D01*
X130623999Y-103624000D01*
X128434585Y-103623999D01*
X128360776Y-103697808D01*
X128360776Y-104624000D01*
X127876000Y-104624000D01*
X127876000Y-103947809D01*
X127802191Y-103874000D01*
X125807619Y-103874000D01*
X125935295Y-103726654D01*
X125945039Y-103711492D01*
X126039340Y-103505001D01*
X126044418Y-103487707D01*
X126057247Y-103398475D01*
X125981883Y-103311500D01*
X124688500Y-103311499D01*
X124688500Y-101635309D01*
X125311499Y-101635309D01*
X125311500Y-102614692D01*
X125385309Y-102688501D01*
X125971090Y-102688501D01*
X126046742Y-102594623D01*
X126005098Y-102403191D01*
X125996468Y-102382357D01*
X125872516Y-102189483D01*
X125860713Y-102175862D01*
X125804721Y-102127344D01*
X125935295Y-101976654D01*
X125945039Y-101961492D01*
X126039340Y-101755001D01*
X126044418Y-101737707D01*
X126057247Y-101648475D01*
X125981883Y-101561500D01*
X125385308Y-101561500D01*
X125311499Y-101635309D01*
X124688500Y-101635309D01*
X124688501Y-101504001D01*
X124688501Y-100938500D01*
X125971090Y-100938501D01*
X126046742Y-100844623D01*
X126005098Y-100653191D01*
X125997149Y-100634000D01*
X129132265Y-100634000D01*
X128896647Y-100685255D01*
G37*
X128896647Y-100685255D02*
X128875813Y-100693885D01*
X128675380Y-100822696D01*
X128661759Y-100834499D01*
X128507217Y-101012849D01*
X128497473Y-101028011D01*
X128399439Y-101242677D01*
X128394361Y-101259970D01*
X128361418Y-101489094D01*
X128360776Y-101498071D01*
X128360776Y-102802191D01*
X128434585Y-102876000D01*
X130624000Y-102876001D01*
X130623999Y-103624000D01*
X128434585Y-103623999D01*
X128360776Y-103697808D01*
X128360776Y-104624000D01*
X127876000Y-104624000D01*
X127876000Y-103947809D01*
X127802191Y-103874000D01*
X125807619Y-103874000D01*
X125935295Y-103726654D01*
X125945039Y-103711492D01*
X126039340Y-103505001D01*
X126044418Y-103487707D01*
X126057247Y-103398475D01*
X125981883Y-103311500D01*
X124688500Y-103311499D01*
X124688500Y-101635309D01*
X125311499Y-101635309D01*
X125311500Y-102614692D01*
X125385309Y-102688501D01*
X125971090Y-102688501D01*
X126046742Y-102594623D01*
X126005098Y-102403191D01*
X125996468Y-102382357D01*
X125872516Y-102189483D01*
X125860713Y-102175862D01*
X125804721Y-102127344D01*
X125935295Y-101976654D01*
X125945039Y-101961492D01*
X126039340Y-101755001D01*
X126044418Y-101737707D01*
X126057247Y-101648475D01*
X125981883Y-101561500D01*
X125385308Y-101561500D01*
X125311499Y-101635309D01*
X124688500Y-101635309D01*
X124688501Y-101504001D01*
X124688501Y-100938500D01*
X125971090Y-100938501D01*
X126046742Y-100844623D01*
X126005098Y-100653191D01*
X125997149Y-100634000D01*
X129132265Y-100634000D01*
X128896647Y-100685255D01*
%TD*%
M02*
