%TF.GenerationSoftware,KiCad,Pcbnew,5.99.0-unknown-ad88874~101~ubuntu20.04.1*%
%TF.CreationDate,2020-05-19T21:35:34-04:00*%
%TF.ProjectId,L6205DIP,4c363230-3544-4495-902e-6b696361645f,rev?*%
%TF.SameCoordinates,Original*%
%TF.FileFunction,Legend,Bot*%
%TF.FilePolarity,Positive*%
%FSLAX46Y46*%
G04 Gerber Fmt 4.6, Leading zero omitted, Abs format (unit mm)*
G04 Created by KiCad (PCBNEW 5.99.0-unknown-ad88874~101~ubuntu20.04.1) date 2020-05-19 21:35:34*
%MOMM*%
%LPD*%
G01*
G04 APERTURE LIST*
%ADD10C,0.270000*%
G04 APERTURE END LIST*
D10*
X133481000Y-132774500D02*
X133414333Y-132574500D01*
X133347666Y-132507833D01*
X133214333Y-132441166D01*
X133014333Y-132441166D01*
X132881000Y-132507833D01*
X132814333Y-132574500D01*
X132747666Y-132707833D01*
X132747666Y-133241166D01*
X134147666Y-133241166D01*
X134147666Y-132774500D01*
X134081000Y-132641166D01*
X134014333Y-132574500D01*
X133881000Y-132507833D01*
X133747666Y-132507833D01*
X133614333Y-132574500D01*
X133547666Y-132641166D01*
X133481000Y-132774500D01*
X133481000Y-133241166D01*
X134147666Y-131574500D02*
X134147666Y-131307833D01*
X134081000Y-131174500D01*
X133947666Y-131041166D01*
X133681000Y-130974500D01*
X133214333Y-130974500D01*
X132947666Y-131041166D01*
X132814333Y-131174500D01*
X132747666Y-131307833D01*
X132747666Y-131574500D01*
X132814333Y-131707833D01*
X132947666Y-131841166D01*
X133214333Y-131907833D01*
X133681000Y-131907833D01*
X133947666Y-131841166D01*
X134081000Y-131707833D01*
X134147666Y-131574500D01*
X134147666Y-130574500D02*
X134147666Y-129774500D01*
X132747666Y-130174500D02*
X134147666Y-130174500D01*
X134147666Y-129507833D02*
X134147666Y-128707833D01*
X132747666Y-129107833D02*
X134147666Y-129107833D01*
X134147666Y-127974500D02*
X134147666Y-127707833D01*
X134081000Y-127574500D01*
X133947666Y-127441166D01*
X133681000Y-127374500D01*
X133214333Y-127374500D01*
X132947666Y-127441166D01*
X132814333Y-127574500D01*
X132747666Y-127707833D01*
X132747666Y-127974500D01*
X132814333Y-128107833D01*
X132947666Y-128241166D01*
X133214333Y-128307833D01*
X133681000Y-128307833D01*
X133947666Y-128241166D01*
X134081000Y-128107833D01*
X134147666Y-127974500D01*
X132747666Y-126774500D02*
X134147666Y-126774500D01*
X133147666Y-126307833D01*
X134147666Y-125841166D01*
X132747666Y-125841166D01*
X133481000Y-123641166D02*
X133481000Y-124107833D01*
X132747666Y-124107833D02*
X134147666Y-124107833D01*
X134147666Y-123441166D01*
X133481000Y-122907833D02*
X133481000Y-122441166D01*
X132747666Y-122241166D02*
X132747666Y-122907833D01*
X134147666Y-122907833D01*
X134147666Y-122241166D01*
X133481000Y-121641166D02*
X133481000Y-121174500D01*
X132747666Y-120974500D02*
X132747666Y-121641166D01*
X134147666Y-121641166D01*
X134147666Y-120974500D01*
X132747666Y-120374500D02*
X134147666Y-120374500D01*
X134147666Y-120041166D01*
X134081000Y-119841166D01*
X133947666Y-119707833D01*
X133814333Y-119641166D01*
X133547666Y-119574500D01*
X133347666Y-119574500D01*
X133081000Y-119641166D01*
X132947666Y-119707833D01*
X132814333Y-119841166D01*
X132747666Y-120041166D01*
X132747666Y-120374500D01*
X133481000Y-118974500D02*
X133481000Y-118507833D01*
X132747666Y-118307833D02*
X132747666Y-118974500D01*
X134147666Y-118974500D01*
X134147666Y-118307833D01*
X132747666Y-116907833D02*
X133414333Y-117374500D01*
X132747666Y-117707833D02*
X134147666Y-117707833D01*
X134147666Y-117174500D01*
X134081000Y-117041166D01*
X134014333Y-116974500D01*
X133881000Y-116907833D01*
X133681000Y-116907833D01*
X133547666Y-116974500D01*
X133481000Y-117041166D01*
X133414333Y-117174500D01*
X133414333Y-117707833D01*
X130493666Y-133241166D02*
X131893666Y-133241166D01*
X130893666Y-132774500D01*
X131893666Y-132307833D01*
X130493666Y-132307833D01*
X131893666Y-131374500D02*
X131893666Y-131107833D01*
X131827000Y-130974500D01*
X131693666Y-130841166D01*
X131427000Y-130774500D01*
X130960333Y-130774500D01*
X130693666Y-130841166D01*
X130560333Y-130974500D01*
X130493666Y-131107833D01*
X130493666Y-131374500D01*
X130560333Y-131507833D01*
X130693666Y-131641166D01*
X130960333Y-131707833D01*
X131427000Y-131707833D01*
X131693666Y-131641166D01*
X131827000Y-131507833D01*
X131893666Y-131374500D01*
X131893666Y-130374500D02*
X131893666Y-129574500D01*
X130493666Y-129974500D02*
X131893666Y-129974500D01*
X131893666Y-128841166D02*
X131893666Y-128574500D01*
X131827000Y-128441166D01*
X131693666Y-128307833D01*
X131427000Y-128241166D01*
X130960333Y-128241166D01*
X130693666Y-128307833D01*
X130560333Y-128441166D01*
X130493666Y-128574500D01*
X130493666Y-128841166D01*
X130560333Y-128974500D01*
X130693666Y-129107833D01*
X130960333Y-129174500D01*
X131427000Y-129174500D01*
X131693666Y-129107833D01*
X131827000Y-128974500D01*
X131893666Y-128841166D01*
X130493666Y-126841166D02*
X131160333Y-127307833D01*
X130493666Y-127641166D02*
X131893666Y-127641166D01*
X131893666Y-127107833D01*
X131827000Y-126974500D01*
X131760333Y-126907833D01*
X131627000Y-126841166D01*
X131427000Y-126841166D01*
X131293666Y-126907833D01*
X131227000Y-126974500D01*
X131160333Y-127107833D01*
X131160333Y-127641166D01*
X130493666Y-125174500D02*
X131893666Y-125174500D01*
X131893666Y-124841166D01*
X131827000Y-124641166D01*
X131693666Y-124507833D01*
X131560333Y-124441166D01*
X131293666Y-124374500D01*
X131093666Y-124374500D01*
X130827000Y-124441166D01*
X130693666Y-124507833D01*
X130560333Y-124641166D01*
X130493666Y-124841166D01*
X130493666Y-125174500D01*
X130493666Y-122974500D02*
X131160333Y-123441166D01*
X130493666Y-123774500D02*
X131893666Y-123774500D01*
X131893666Y-123241166D01*
X131827000Y-123107833D01*
X131760333Y-123041166D01*
X131627000Y-122974500D01*
X131427000Y-122974500D01*
X131293666Y-123041166D01*
X131227000Y-123107833D01*
X131160333Y-123241166D01*
X131160333Y-123774500D01*
X130493666Y-122374500D02*
X131893666Y-122374500D01*
X131893666Y-121907833D02*
X130493666Y-121441166D01*
X131893666Y-120974500D01*
X131227000Y-120507833D02*
X131227000Y-120041166D01*
X130493666Y-119841166D02*
X130493666Y-120507833D01*
X131893666Y-120507833D01*
X131893666Y-119841166D01*
X130493666Y-118441166D02*
X131160333Y-118907833D01*
X130493666Y-119241166D02*
X131893666Y-119241166D01*
X131893666Y-118707833D01*
X131827000Y-118574500D01*
X131760333Y-118507833D01*
X131627000Y-118441166D01*
X131427000Y-118441166D01*
X131293666Y-118507833D01*
X131227000Y-118574500D01*
X131160333Y-118707833D01*
X131160333Y-119241166D01*
X128239666Y-132574500D02*
X128239666Y-133241166D01*
X129639666Y-133241166D01*
X129506333Y-132174500D02*
X129573000Y-132107833D01*
X129639666Y-131974500D01*
X129639666Y-131641166D01*
X129573000Y-131507833D01*
X129506333Y-131441166D01*
X129373000Y-131374500D01*
X129239666Y-131374500D01*
X129039666Y-131441166D01*
X128239666Y-132241166D01*
X128239666Y-131374500D01*
X129639666Y-130174499D02*
X129639666Y-130441166D01*
X129573000Y-130574499D01*
X129506333Y-130641166D01*
X129306333Y-130774499D01*
X129039666Y-130841166D01*
X128506333Y-130841166D01*
X128373000Y-130774499D01*
X128306333Y-130707833D01*
X128239666Y-130574499D01*
X128239666Y-130307833D01*
X128306333Y-130174499D01*
X128373000Y-130107833D01*
X128506333Y-130041166D01*
X128839666Y-130041166D01*
X128973000Y-130107833D01*
X129039666Y-130174499D01*
X129106333Y-130307833D01*
X129106333Y-130574499D01*
X129039666Y-130707833D01*
X128973000Y-130774499D01*
X128839666Y-130841166D01*
X129639666Y-129174499D02*
X129639666Y-129041166D01*
X129573000Y-128907833D01*
X129506333Y-128841166D01*
X129373000Y-128774499D01*
X129106333Y-128707833D01*
X128773000Y-128707833D01*
X128506333Y-128774499D01*
X128373000Y-128841166D01*
X128306333Y-128907833D01*
X128239666Y-129041166D01*
X128239666Y-129174499D01*
X128306333Y-129307833D01*
X128373000Y-129374499D01*
X128506333Y-129441166D01*
X128773000Y-129507833D01*
X129106333Y-129507833D01*
X129373000Y-129441166D01*
X129506333Y-129374499D01*
X129573000Y-129307833D01*
X129639666Y-129174499D01*
X129639666Y-127441166D02*
X129639666Y-128107833D01*
X128973000Y-128174499D01*
X129039666Y-128107833D01*
X129106333Y-127974499D01*
X129106333Y-127641166D01*
X129039666Y-127507833D01*
X128973000Y-127441166D01*
X128839666Y-127374499D01*
X128506333Y-127374499D01*
X128373000Y-127441166D01*
X128306333Y-127507833D01*
X128239666Y-127641166D01*
X128239666Y-127974499D01*
X128306333Y-128107833D01*
X128373000Y-128174499D01*
X128239666Y-125707833D02*
X129639666Y-125707833D01*
X129639666Y-125374499D01*
X129573000Y-125174499D01*
X129439666Y-125041166D01*
X129306333Y-124974499D01*
X129039666Y-124907833D01*
X128839666Y-124907833D01*
X128573000Y-124974499D01*
X128439666Y-125041166D01*
X128306333Y-125174499D01*
X128239666Y-125374499D01*
X128239666Y-125707833D01*
X128239666Y-124307833D02*
X129639666Y-124307833D01*
X128239666Y-123641166D02*
X129639666Y-123641166D01*
X129639666Y-123107833D01*
X129573000Y-122974499D01*
X129506333Y-122907833D01*
X129373000Y-122841166D01*
X129173000Y-122841166D01*
X129039666Y-122907833D01*
X128973000Y-122974499D01*
X128906333Y-123107833D01*
X128906333Y-123641166D01*
X129639666Y-121374499D02*
X128239666Y-120907833D01*
X129639666Y-120441166D01*
X128639666Y-120041166D02*
X128639666Y-119374499D01*
X128239666Y-120174499D02*
X129639666Y-119707833D01*
X128239666Y-119241166D01*
X128239666Y-117974499D02*
X128906333Y-118441166D01*
X128239666Y-118774499D02*
X129639666Y-118774499D01*
X129639666Y-118241166D01*
X129573000Y-118107833D01*
X129506333Y-118041166D01*
X129373000Y-117974499D01*
X129173000Y-117974499D01*
X129039666Y-118041166D01*
X128973000Y-118107833D01*
X128906333Y-118241166D01*
X128906333Y-118774499D01*
X128373000Y-117374499D02*
X128306333Y-117307833D01*
X128239666Y-117374499D01*
X128306333Y-117441166D01*
X128373000Y-117374499D01*
X128239666Y-117374499D01*
X125985666Y-132441166D02*
X126652333Y-132907833D01*
X125985666Y-133241166D02*
X127385666Y-133241166D01*
X127385666Y-132707833D01*
X127319000Y-132574500D01*
X127252333Y-132507833D01*
X127119000Y-132441166D01*
X126919000Y-132441166D01*
X126785666Y-132507833D01*
X126719000Y-132574500D01*
X126652333Y-132707833D01*
X126652333Y-133241166D01*
X126719000Y-131841166D02*
X126719000Y-131374500D01*
X125985666Y-131174500D02*
X125985666Y-131841166D01*
X127385666Y-131841166D01*
X127385666Y-131174500D01*
X127385666Y-130774500D02*
X125985666Y-130307833D01*
X127385666Y-129841166D01*
X126119000Y-129374500D02*
X126052333Y-129307833D01*
X125985666Y-129374500D01*
X126052333Y-129441166D01*
X126119000Y-129374500D01*
X125985666Y-129374500D01*
X126385666Y-127707833D02*
X126385666Y-127041166D01*
X125985666Y-127841166D02*
X127385666Y-127374500D01*
X125985666Y-126907833D01*
X126519000Y-125374500D02*
X126519000Y-124307833D01*
X125985666Y-122574500D02*
X127385666Y-122574500D01*
X126385666Y-122107833D01*
X127385666Y-121641166D01*
X125985666Y-121641166D01*
X126385666Y-121041166D02*
X126385666Y-120374500D01*
X125985666Y-121174500D02*
X127385666Y-120707833D01*
X125985666Y-120241166D01*
X126652333Y-119507833D02*
X125985666Y-119507833D01*
X127385666Y-119974500D02*
X126652333Y-119507833D01*
X127385666Y-119041166D01*
X125985666Y-116774500D02*
X125985666Y-117574500D01*
X125985666Y-117174500D02*
X127385666Y-117174500D01*
X127185666Y-117307833D01*
X127052333Y-117441166D01*
X126985666Y-117574500D01*
X125985666Y-116107833D02*
X125985666Y-115841166D01*
X126052333Y-115707833D01*
X126119000Y-115641166D01*
X126319000Y-115507833D01*
X126585666Y-115441166D01*
X127119000Y-115441166D01*
X127252333Y-115507833D01*
X127319000Y-115574500D01*
X127385666Y-115707833D01*
X127385666Y-115974500D01*
X127319000Y-116107833D01*
X127252333Y-116174500D01*
X127119000Y-116241166D01*
X126785666Y-116241166D01*
X126652333Y-116174500D01*
X126585666Y-116107833D01*
X126519000Y-115974500D01*
X126519000Y-115707833D01*
X126585666Y-115574500D01*
X126652333Y-115507833D01*
X126785666Y-115441166D01*
X126052333Y-114774500D02*
X125985666Y-114774500D01*
X125852333Y-114841166D01*
X125785666Y-114907833D01*
X127252333Y-113174500D02*
X127319000Y-113107833D01*
X127385666Y-112974500D01*
X127385666Y-112641166D01*
X127319000Y-112507833D01*
X127252333Y-112441166D01*
X127119000Y-112374500D01*
X126985666Y-112374500D01*
X126785666Y-112441166D01*
X125985666Y-113241166D01*
X125985666Y-112374500D01*
X127385666Y-111507833D02*
X127385666Y-111374500D01*
X127319000Y-111241166D01*
X127252333Y-111174500D01*
X127119000Y-111107833D01*
X126852333Y-111041166D01*
X126519000Y-111041166D01*
X126252333Y-111107833D01*
X126119000Y-111174500D01*
X126052333Y-111241166D01*
X125985666Y-111374500D01*
X125985666Y-111507833D01*
X126052333Y-111641166D01*
X126119000Y-111707833D01*
X126252333Y-111774500D01*
X126519000Y-111841166D01*
X126852333Y-111841166D01*
X127119000Y-111774500D01*
X127252333Y-111707833D01*
X127319000Y-111641166D01*
X127385666Y-111507833D01*
X127252333Y-110507833D02*
X127319000Y-110441166D01*
X127385666Y-110307833D01*
X127385666Y-109974500D01*
X127319000Y-109841166D01*
X127252333Y-109774500D01*
X127119000Y-109707833D01*
X126985666Y-109707833D01*
X126785666Y-109774500D01*
X125985666Y-110574500D01*
X125985666Y-109707833D01*
X127385666Y-108841166D02*
X127385666Y-108707833D01*
X127319000Y-108574500D01*
X127252333Y-108507833D01*
X127119000Y-108441166D01*
X126852333Y-108374500D01*
X126519000Y-108374500D01*
X126252333Y-108441166D01*
X126119000Y-108507833D01*
X126052333Y-108574500D01*
X125985666Y-108707833D01*
X125985666Y-108841166D01*
X126052333Y-108974500D01*
X126119000Y-109041166D01*
X126252333Y-109107833D01*
X126519000Y-109174500D01*
X126852333Y-109174500D01*
X127119000Y-109107833D01*
X127252333Y-109041166D01*
X127319000Y-108974500D01*
X127385666Y-108841166D01*
M02*
