%TF.GenerationSoftware,KiCad,Pcbnew,5.99.0-unknown-ad88874~101~ubuntu20.04.1*%
%TF.CreationDate,2020-05-19T21:35:34-04:00*%
%TF.ProjectId,L6205DIP,4c363230-3544-4495-902e-6b696361645f,rev?*%
%TF.SameCoordinates,Original*%
%TF.FileFunction,Soldermask,Top*%
%TF.FilePolarity,Negative*%
%FSLAX46Y46*%
G04 Gerber Fmt 4.6, Leading zero omitted, Abs format (unit mm)*
G04 Created by KiCad (PCBNEW 5.99.0-unknown-ad88874~101~ubuntu20.04.1) date 2020-05-19 21:35:34*
%MOMM*%
%LPD*%
G01*
G04 APERTURE LIST*
%ADD10O,1.800000X1.800000*%
%ADD11O,2.500000X1.700000*%
%ADD12C,1.600000*%
G04 APERTURE END LIST*
%TO.C,J1*%
G36*
G01*
X107900000Y-130650000D02*
X107900000Y-132350000D01*
G75*
G02*
X107850000Y-132400000I-50000J0D01*
G01*
X106150000Y-132400000D01*
G75*
G02*
X106100000Y-132350000I0J50000D01*
G01*
X106100000Y-130650000D01*
G75*
G02*
X106150000Y-130600000I50000J0D01*
G01*
X107850000Y-130600000D01*
G75*
G02*
X107900000Y-130650000I0J-50000D01*
G01*
G37*
D10*
X104460000Y-131500000D03*
X107000000Y-128960000D03*
X104460000Y-128960000D03*
X107000000Y-126420000D03*
X104460000Y-126420000D03*
X107000000Y-123880000D03*
X104460000Y-123880000D03*
X107000000Y-121340000D03*
X104460000Y-121340000D03*
X107000000Y-118800000D03*
X104460000Y-118800000D03*
X107000000Y-116260000D03*
X104460000Y-116260000D03*
X107000000Y-113720000D03*
X104460000Y-113720000D03*
X107000000Y-111180000D03*
X104460000Y-111180000D03*
X107000000Y-108640000D03*
X104460000Y-108640000D03*
X107000000Y-106100000D03*
X104460000Y-106100000D03*
X107000000Y-103560000D03*
X104460000Y-103560000D03*
%TD*%
%TO.C,C1*%
G36*
G01*
X128687500Y-115106250D02*
X128687500Y-114543750D01*
G75*
G02*
X128931250Y-114300000I243750J0D01*
G01*
X129418750Y-114300000D01*
G75*
G02*
X129662500Y-114543750I0J-243750D01*
G01*
X129662500Y-115106250D01*
G75*
G02*
X129418750Y-115350000I-243750J0D01*
G01*
X128931250Y-115350000D01*
G75*
G02*
X128687500Y-115106250I0J243750D01*
G01*
G37*
G36*
G01*
X130262500Y-115106250D02*
X130262500Y-114543750D01*
G75*
G02*
X130506250Y-114300000I243750J0D01*
G01*
X130993750Y-114300000D01*
G75*
G02*
X131237500Y-114543750I0J-243750D01*
G01*
X131237500Y-115106250D01*
G75*
G02*
X130993750Y-115350000I-243750J0D01*
G01*
X130506250Y-115350000D01*
G75*
G02*
X130262500Y-115106250I0J243750D01*
G01*
G37*
%TD*%
%TO.C,C2*%
G36*
G01*
X130512500Y-126531250D02*
X130512500Y-125968750D01*
G75*
G02*
X130756250Y-125725000I243750J0D01*
G01*
X131243750Y-125725000D01*
G75*
G02*
X131487500Y-125968750I0J-243750D01*
G01*
X131487500Y-126531250D01*
G75*
G02*
X131243750Y-126775000I-243750J0D01*
G01*
X130756250Y-126775000D01*
G75*
G02*
X130512500Y-126531250I0J243750D01*
G01*
G37*
G36*
G01*
X128937500Y-126531250D02*
X128937500Y-125968750D01*
G75*
G02*
X129181250Y-125725000I243750J0D01*
G01*
X129668750Y-125725000D01*
G75*
G02*
X129912500Y-125968750I0J-243750D01*
G01*
X129912500Y-126531250D01*
G75*
G02*
X129668750Y-126775000I-243750J0D01*
G01*
X129181250Y-126775000D01*
G75*
G02*
X128937500Y-126531250I0J243750D01*
G01*
G37*
%TD*%
%TO.C,C3*%
G36*
G01*
X123912500Y-100968750D02*
X123912500Y-101531250D01*
G75*
G02*
X123668750Y-101775000I-243750J0D01*
G01*
X123181250Y-101775000D01*
G75*
G02*
X122937500Y-101531250I0J243750D01*
G01*
X122937500Y-100968750D01*
G75*
G02*
X123181250Y-100725000I243750J0D01*
G01*
X123668750Y-100725000D01*
G75*
G02*
X123912500Y-100968750I0J-243750D01*
G01*
G37*
G36*
G01*
X125487500Y-100968750D02*
X125487500Y-101531250D01*
G75*
G02*
X125243750Y-101775000I-243750J0D01*
G01*
X124756250Y-101775000D01*
G75*
G02*
X124512500Y-101531250I0J243750D01*
G01*
X124512500Y-100968750D01*
G75*
G02*
X124756250Y-100725000I243750J0D01*
G01*
X125243750Y-100725000D01*
G75*
G02*
X125487500Y-100968750I0J-243750D01*
G01*
G37*
%TD*%
%TO.C,C5*%
G36*
G01*
X123912500Y-102718750D02*
X123912500Y-103281250D01*
G75*
G02*
X123668750Y-103525000I-243750J0D01*
G01*
X123181250Y-103525000D01*
G75*
G02*
X122937500Y-103281250I0J243750D01*
G01*
X122937500Y-102718750D01*
G75*
G02*
X123181250Y-102475000I243750J0D01*
G01*
X123668750Y-102475000D01*
G75*
G02*
X123912500Y-102718750I0J-243750D01*
G01*
G37*
G36*
G01*
X125487500Y-102718750D02*
X125487500Y-103281250D01*
G75*
G02*
X125243750Y-103525000I-243750J0D01*
G01*
X124756250Y-103525000D01*
G75*
G02*
X124512500Y-103281250I0J243750D01*
G01*
X124512500Y-102718750D01*
G75*
G02*
X124756250Y-102475000I243750J0D01*
G01*
X125243750Y-102475000D01*
G75*
G02*
X125487500Y-102718750I0J-243750D01*
G01*
G37*
%TD*%
%TO.C,C6*%
G36*
G01*
X124500000Y-106281250D02*
X124500000Y-105718750D01*
G75*
G02*
X124743750Y-105475000I243750J0D01*
G01*
X125231250Y-105475000D01*
G75*
G02*
X125475000Y-105718750I0J-243750D01*
G01*
X125475000Y-106281250D01*
G75*
G02*
X125231250Y-106525000I-243750J0D01*
G01*
X124743750Y-106525000D01*
G75*
G02*
X124500000Y-106281250I0J243750D01*
G01*
G37*
G36*
G01*
X122925000Y-106281250D02*
X122925000Y-105718750D01*
G75*
G02*
X123168750Y-105475000I243750J0D01*
G01*
X123656250Y-105475000D01*
G75*
G02*
X123900000Y-105718750I0J-243750D01*
G01*
X123900000Y-106281250D01*
G75*
G02*
X123656250Y-106525000I-243750J0D01*
G01*
X123168750Y-106525000D01*
G75*
G02*
X122925000Y-106281250I0J243750D01*
G01*
G37*
%TD*%
%TO.C,R1*%
G36*
G01*
X131237500Y-116293750D02*
X131237500Y-116856250D01*
G75*
G02*
X130993750Y-117100000I-243750J0D01*
G01*
X130506250Y-117100000D01*
G75*
G02*
X130262500Y-116856250I0J243750D01*
G01*
X130262500Y-116293750D01*
G75*
G02*
X130506250Y-116050000I243750J0D01*
G01*
X130993750Y-116050000D01*
G75*
G02*
X131237500Y-116293750I0J-243750D01*
G01*
G37*
G36*
G01*
X129662500Y-116293750D02*
X129662500Y-116856250D01*
G75*
G02*
X129418750Y-117100000I-243750J0D01*
G01*
X128931250Y-117100000D01*
G75*
G02*
X128687500Y-116856250I0J243750D01*
G01*
X128687500Y-116293750D01*
G75*
G02*
X128931250Y-116050000I243750J0D01*
G01*
X129418750Y-116050000D01*
G75*
G02*
X129662500Y-116293750I0J-243750D01*
G01*
G37*
%TD*%
%TO.C,R2*%
G36*
G01*
X129912500Y-124218750D02*
X129912500Y-124781250D01*
G75*
G02*
X129668750Y-125025000I-243750J0D01*
G01*
X129181250Y-125025000D01*
G75*
G02*
X128937500Y-124781250I0J243750D01*
G01*
X128937500Y-124218750D01*
G75*
G02*
X129181250Y-123975000I243750J0D01*
G01*
X129668750Y-123975000D01*
G75*
G02*
X129912500Y-124218750I0J-243750D01*
G01*
G37*
G36*
G01*
X131487500Y-124218750D02*
X131487500Y-124781250D01*
G75*
G02*
X131243750Y-125025000I-243750J0D01*
G01*
X130756250Y-125025000D01*
G75*
G02*
X130512500Y-124781250I0J243750D01*
G01*
X130512500Y-124218750D01*
G75*
G02*
X130756250Y-123975000I243750J0D01*
G01*
X131243750Y-123975000D01*
G75*
G02*
X131487500Y-124218750I0J-243750D01*
G01*
G37*
%TD*%
%TO.C,R3*%
G36*
G01*
X114887500Y-106281250D02*
X114887500Y-105718750D01*
G75*
G02*
X115131250Y-105475000I243750J0D01*
G01*
X115618750Y-105475000D01*
G75*
G02*
X115862500Y-105718750I0J-243750D01*
G01*
X115862500Y-106281250D01*
G75*
G02*
X115618750Y-106525000I-243750J0D01*
G01*
X115131250Y-106525000D01*
G75*
G02*
X114887500Y-106281250I0J243750D01*
G01*
G37*
G36*
G01*
X113312500Y-106281250D02*
X113312500Y-105718750D01*
G75*
G02*
X113556250Y-105475000I243750J0D01*
G01*
X114043750Y-105475000D01*
G75*
G02*
X114287500Y-105718750I0J-243750D01*
G01*
X114287500Y-106281250D01*
G75*
G02*
X114043750Y-106525000I-243750J0D01*
G01*
X113556250Y-106525000D01*
G75*
G02*
X113312500Y-106281250I0J243750D01*
G01*
G37*
%TD*%
%TO.C,C4*%
G36*
G01*
X129210000Y-107300000D02*
X131290000Y-107300000D01*
G75*
G02*
X131550000Y-107560000I0J-260000D01*
G01*
X131550000Y-111140000D01*
G75*
G02*
X131290000Y-111400000I-260000J0D01*
G01*
X129210000Y-111400000D01*
G75*
G02*
X128950000Y-111140000I0J260000D01*
G01*
X128950000Y-107560000D01*
G75*
G02*
X129210000Y-107300000I260000J0D01*
G01*
G37*
G36*
G01*
X129210000Y-101200000D02*
X131290000Y-101200000D01*
G75*
G02*
X131550000Y-101460000I0J-260000D01*
G01*
X131550000Y-105040000D01*
G75*
G02*
X131290000Y-105300000I-260000J0D01*
G01*
X129210000Y-105300000D01*
G75*
G02*
X128950000Y-105040000I0J260000D01*
G01*
X128950000Y-101460000D01*
G75*
G02*
X129210000Y-101200000I260000J0D01*
G01*
G37*
%TD*%
D11*
%TO.C,U1*%
X123870000Y-108750000D03*
X116250000Y-131610000D03*
X123870000Y-111290000D03*
X116250000Y-129070000D03*
X123870000Y-113830000D03*
X116250000Y-126530000D03*
X123870000Y-116370000D03*
X116250000Y-123990000D03*
X123870000Y-118910000D03*
X116250000Y-121450000D03*
X123870000Y-121450000D03*
X116250000Y-118910000D03*
X123870000Y-123990000D03*
X116250000Y-116370000D03*
X123870000Y-126530000D03*
X116250000Y-113830000D03*
X123870000Y-129070000D03*
X116250000Y-111290000D03*
X123870000Y-131610000D03*
G36*
G01*
X115000000Y-109550000D02*
X115000000Y-107950000D01*
G75*
G02*
X115050000Y-107900000I50000J0D01*
G01*
X117450000Y-107900000D01*
G75*
G02*
X117500000Y-107950000I0J-50000D01*
G01*
X117500000Y-109550000D01*
G75*
G02*
X117450000Y-109600000I-50000J0D01*
G01*
X115050000Y-109600000D01*
G75*
G02*
X115000000Y-109550000I0J50000D01*
G01*
G37*
%TD*%
D12*
%TO.C,M1*%
X111250000Y-133500000D03*
%TD*%
%TO.C,M2*%
X111250000Y-128250000D03*
%TD*%
%TO.C,D2*%
G36*
X119539092Y-102143826D02*
G01*
X119550000Y-102175000D01*
X119550000Y-103825000D01*
X119531174Y-103864092D01*
X119500000Y-103875000D01*
X118400000Y-103875000D01*
X118360908Y-103856174D01*
X118350000Y-103825000D01*
X118350000Y-103250000D01*
X118368826Y-103210908D01*
X118400000Y-103200000D01*
X118850000Y-103200000D01*
X118850000Y-102800000D01*
X118400000Y-102800000D01*
X118360908Y-102781174D01*
X118350000Y-102750000D01*
X118350000Y-102175000D01*
X118368826Y-102135908D01*
X118400000Y-102125000D01*
X119500000Y-102125000D01*
X119539092Y-102143826D01*
G37*
G36*
X114960908Y-103856174D02*
G01*
X114950000Y-103825000D01*
X114950001Y-102175000D01*
X114968827Y-102135908D01*
X115000001Y-102125000D01*
X116100000Y-102125001D01*
X116139092Y-102143827D01*
X116150000Y-102175001D01*
X116150000Y-102750001D01*
X116131174Y-102789093D01*
X116100000Y-102800001D01*
X115650000Y-102800001D01*
X115650000Y-103200000D01*
X116100000Y-103200000D01*
X116139092Y-103218826D01*
X116150000Y-103250000D01*
X116149999Y-103825000D01*
X116131173Y-103864092D01*
X116099999Y-103875000D01*
X115000000Y-103875000D01*
X114960908Y-103856174D01*
G37*
%TD*%
%TO.C,D1*%
G36*
X109110908Y-103856174D02*
G01*
X109100000Y-103825000D01*
X109100001Y-102175000D01*
X109118827Y-102135908D01*
X109150001Y-102125000D01*
X110250000Y-102125001D01*
X110289092Y-102143827D01*
X110300000Y-102175001D01*
X110300000Y-102750001D01*
X110281174Y-102789093D01*
X110250000Y-102800001D01*
X109800000Y-102800001D01*
X109800000Y-103200000D01*
X110250000Y-103200000D01*
X110289092Y-103218826D01*
X110300000Y-103250000D01*
X110299999Y-103825000D01*
X110281173Y-103864092D01*
X110249999Y-103875000D01*
X109150000Y-103875000D01*
X109110908Y-103856174D01*
G37*
G36*
X113689092Y-102143826D02*
G01*
X113700000Y-102175000D01*
X113700000Y-103825000D01*
X113681174Y-103864092D01*
X113650000Y-103875000D01*
X112550000Y-103875000D01*
X112510908Y-103856174D01*
X112500000Y-103825000D01*
X112500000Y-103250000D01*
X112518826Y-103210908D01*
X112550000Y-103200000D01*
X113000000Y-103200000D01*
X113000000Y-102800000D01*
X112550000Y-102800000D01*
X112510908Y-102781174D01*
X112500000Y-102750000D01*
X112500000Y-102175000D01*
X112518826Y-102135908D01*
X112550000Y-102125000D01*
X113650000Y-102125000D01*
X113689092Y-102143826D01*
G37*
%TD*%
M02*
