%TF.GenerationSoftware,KiCad,Pcbnew,5.99.0-unknown-ad88874~101~ubuntu20.04.1*%
%TF.CreationDate,2020-05-19T21:35:34-04:00*%
%TF.ProjectId,L6205DIP,4c363230-3544-4495-902e-6b696361645f,rev?*%
%TF.SameCoordinates,Original*%
%TF.FileFunction,Legend,Top*%
%TF.FilePolarity,Positive*%
%FSLAX46Y46*%
G04 Gerber Fmt 4.6, Leading zero omitted, Abs format (unit mm)*
G04 Created by KiCad (PCBNEW 5.99.0-unknown-ad88874~101~ubuntu20.04.1) date 2020-05-19 21:35:34*
%MOMM*%
%LPD*%
G01*
G04 APERTURE LIST*
%ADD10C,0.300000*%
%ADD11C,0.120000*%
%ADD12C,0.200000*%
%ADD13C,0.150000*%
G04 APERTURE END LIST*
D10*
X117650000Y-113750000D02*
X119250000Y-115050000D01*
X119250000Y-113350000D02*
X117750000Y-115350000D01*
X119450000Y-113350000D02*
X120850000Y-115650000D01*
X120650000Y-113350000D02*
X119250000Y-115750000D01*
D11*
X119150000Y-115250000D02*
X117900000Y-115250000D01*
X117900000Y-113750000D02*
X119150000Y-113750000D01*
X119150000Y-113750000D02*
X119150000Y-115250000D01*
X117900000Y-115250000D02*
X117900000Y-113750000D01*
X120750000Y-115250000D02*
X119500000Y-115250000D01*
X120750000Y-113750000D02*
X120750000Y-115250000D01*
X119500000Y-113750000D02*
X120750000Y-113750000D01*
X119500000Y-115250000D02*
X119500000Y-113750000D01*
D12*
X121941857Y-112725238D02*
X121941857Y-113296666D01*
X121041857Y-113010952D02*
X121941857Y-113010952D01*
X121941857Y-113820476D02*
X121941857Y-114010952D01*
X121899000Y-114106190D01*
X121813285Y-114201428D01*
X121641857Y-114249047D01*
X121341857Y-114249047D01*
X121170428Y-114201428D01*
X121084714Y-114106190D01*
X121041857Y-114010952D01*
X121041857Y-113820476D01*
X121084714Y-113725238D01*
X121170428Y-113630000D01*
X121341857Y-113582380D01*
X121641857Y-113582380D01*
X121813285Y-113630000D01*
X121899000Y-113725238D01*
X121941857Y-113820476D01*
X121041857Y-115439523D02*
X121941857Y-115439523D01*
X121941857Y-115677619D01*
X121899000Y-115820476D01*
X121813285Y-115915714D01*
X121727571Y-115963333D01*
X121556142Y-116010952D01*
X121427571Y-116010952D01*
X121256142Y-115963333D01*
X121170428Y-115915714D01*
X121084714Y-115820476D01*
X121041857Y-115677619D01*
X121041857Y-115439523D01*
X121941857Y-116630000D02*
X121941857Y-116820476D01*
X121899000Y-116915714D01*
X121813285Y-117010952D01*
X121641857Y-117058571D01*
X121341857Y-117058571D01*
X121170428Y-117010952D01*
X121084714Y-116915714D01*
X121041857Y-116820476D01*
X121041857Y-116630000D01*
X121084714Y-116534761D01*
X121170428Y-116439523D01*
X121341857Y-116391904D01*
X121641857Y-116391904D01*
X121813285Y-116439523D01*
X121899000Y-116534761D01*
X121941857Y-116630000D01*
X121127571Y-117487142D02*
X121084714Y-117534761D01*
X121041857Y-117487142D01*
X121084714Y-117439523D01*
X121127571Y-117487142D01*
X121041857Y-117487142D01*
X121599000Y-117487142D02*
X121556142Y-117534761D01*
X121513285Y-117487142D01*
X121556142Y-117439523D01*
X121599000Y-117487142D01*
X121513285Y-117487142D01*
X119592857Y-115915714D02*
X120492857Y-115915714D01*
X120064285Y-115915714D02*
X120064285Y-116487142D01*
X119592857Y-116487142D02*
X120492857Y-116487142D01*
X119850000Y-116915714D02*
X119850000Y-117391904D01*
X119592857Y-116820476D02*
X120492857Y-117153809D01*
X119592857Y-117487142D01*
X120492857Y-117677619D02*
X119592857Y-118010952D01*
X120492857Y-118344285D01*
X120064285Y-118677619D02*
X120064285Y-119010952D01*
X119592857Y-119153809D02*
X119592857Y-118677619D01*
X120492857Y-118677619D01*
X120492857Y-119153809D01*
X119592857Y-120344285D02*
X120492857Y-120344285D01*
X120492857Y-120582380D01*
X120450000Y-120725238D01*
X120364285Y-120820476D01*
X120278571Y-120868095D01*
X120107142Y-120915714D01*
X119978571Y-120915714D01*
X119807142Y-120868095D01*
X119721428Y-120820476D01*
X119635714Y-120725238D01*
X119592857Y-120582380D01*
X119592857Y-120344285D01*
X120492857Y-121534761D02*
X120492857Y-121725238D01*
X120450000Y-121820476D01*
X120364285Y-121915714D01*
X120192857Y-121963333D01*
X119892857Y-121963333D01*
X119721428Y-121915714D01*
X119635714Y-121820476D01*
X119592857Y-121725238D01*
X119592857Y-121534761D01*
X119635714Y-121439523D01*
X119721428Y-121344285D01*
X119892857Y-121296666D01*
X120192857Y-121296666D01*
X120364285Y-121344285D01*
X120450000Y-121439523D01*
X120492857Y-121534761D01*
X119592857Y-122391904D02*
X120492857Y-122391904D01*
X120492857Y-122772857D01*
X120450000Y-122868095D01*
X120407142Y-122915714D01*
X120321428Y-122963333D01*
X120192857Y-122963333D01*
X120107142Y-122915714D01*
X120064285Y-122868095D01*
X120021428Y-122772857D01*
X120021428Y-122391904D01*
X120064285Y-123391904D02*
X120064285Y-123725238D01*
X119592857Y-123868095D02*
X119592857Y-123391904D01*
X120492857Y-123391904D01*
X120492857Y-123868095D01*
X119592857Y-125534761D02*
X119592857Y-125058571D01*
X120492857Y-125058571D01*
X119592857Y-125868095D02*
X120492857Y-125868095D01*
X120064285Y-126677619D02*
X120064285Y-126344285D01*
X119592857Y-126344285D02*
X120492857Y-126344285D01*
X120492857Y-126820476D01*
X120064285Y-127201428D02*
X120064285Y-127534761D01*
X119592857Y-127677619D02*
X119592857Y-127201428D01*
X120492857Y-127201428D01*
X120492857Y-127677619D01*
X118143857Y-115915714D02*
X119043857Y-115915714D01*
X119043857Y-116153809D01*
X119001000Y-116296666D01*
X118915285Y-116391904D01*
X118829571Y-116439523D01*
X118658142Y-116487142D01*
X118529571Y-116487142D01*
X118358142Y-116439523D01*
X118272428Y-116391904D01*
X118186714Y-116296666D01*
X118143857Y-116153809D01*
X118143857Y-115915714D01*
X119043857Y-117106190D02*
X119043857Y-117296666D01*
X119001000Y-117391904D01*
X118915285Y-117487142D01*
X118743857Y-117534761D01*
X118443857Y-117534761D01*
X118272428Y-117487142D01*
X118186714Y-117391904D01*
X118143857Y-117296666D01*
X118143857Y-117106190D01*
X118186714Y-117010952D01*
X118272428Y-116915714D01*
X118443857Y-116868095D01*
X118743857Y-116868095D01*
X118915285Y-116915714D01*
X119001000Y-117010952D01*
X119043857Y-117106190D01*
X118143857Y-118725238D02*
X119043857Y-118725238D01*
X119043857Y-118963333D01*
X119001000Y-119106190D01*
X118915285Y-119201428D01*
X118829571Y-119249047D01*
X118658142Y-119296666D01*
X118529571Y-119296666D01*
X118358142Y-119249047D01*
X118272428Y-119201428D01*
X118186714Y-119106190D01*
X118143857Y-118963333D01*
X118143857Y-118725238D01*
X119043857Y-119915714D02*
X119043857Y-120106190D01*
X119001000Y-120201428D01*
X118915285Y-120296666D01*
X118743857Y-120344285D01*
X118443857Y-120344285D01*
X118272428Y-120296666D01*
X118186714Y-120201428D01*
X118143857Y-120106190D01*
X118143857Y-119915714D01*
X118186714Y-119820476D01*
X118272428Y-119725238D01*
X118443857Y-119677619D01*
X118743857Y-119677619D01*
X118915285Y-119725238D01*
X119001000Y-119820476D01*
X119043857Y-119915714D01*
X118143857Y-120772857D02*
X119043857Y-120772857D01*
X119043857Y-121153809D01*
X119001000Y-121249047D01*
X118958142Y-121296666D01*
X118872428Y-121344285D01*
X118743857Y-121344285D01*
X118658142Y-121296666D01*
X118615285Y-121249047D01*
X118572428Y-121153809D01*
X118572428Y-120772857D01*
X118615285Y-121772857D02*
X118615285Y-122106190D01*
X118143857Y-122249047D02*
X118143857Y-121772857D01*
X119043857Y-121772857D01*
X119043857Y-122249047D01*
X118186714Y-123391904D02*
X118143857Y-123534761D01*
X118143857Y-123772857D01*
X118186714Y-123868095D01*
X118229571Y-123915714D01*
X118315285Y-123963333D01*
X118401000Y-123963333D01*
X118486714Y-123915714D01*
X118529571Y-123868095D01*
X118572428Y-123772857D01*
X118615285Y-123582380D01*
X118658142Y-123487142D01*
X118701000Y-123439523D01*
X118786714Y-123391904D01*
X118872428Y-123391904D01*
X118958142Y-123439523D01*
X119001000Y-123487142D01*
X119043857Y-123582380D01*
X119043857Y-123820476D01*
X119001000Y-123963333D01*
X118143857Y-124391904D02*
X119043857Y-124391904D01*
X118615285Y-124391904D02*
X118615285Y-124963333D01*
X118143857Y-124963333D02*
X119043857Y-124963333D01*
X118143857Y-125439523D02*
X119043857Y-125439523D01*
X119043857Y-125772857D02*
X119043857Y-126344285D01*
X118143857Y-126058571D02*
X119043857Y-126058571D01*
D13*
%TO.C,J1*%
X101011666Y-133222380D02*
X101011666Y-133936666D01*
X100964047Y-134079523D01*
X100868809Y-134174761D01*
X100725952Y-134222380D01*
X100630714Y-134222380D01*
X102011666Y-134222380D02*
X101440238Y-134222380D01*
X101725952Y-134222380D02*
X101725952Y-133222380D01*
X101630714Y-133365238D01*
X101535476Y-133460476D01*
X101440238Y-133508095D01*
%TO.C,C1*%
X127258333Y-115182142D02*
X127210714Y-115229761D01*
X127067857Y-115277380D01*
X126972619Y-115277380D01*
X126829761Y-115229761D01*
X126734523Y-115134523D01*
X126686904Y-115039285D01*
X126639285Y-114848809D01*
X126639285Y-114705952D01*
X126686904Y-114515476D01*
X126734523Y-114420238D01*
X126829761Y-114325000D01*
X126972619Y-114277380D01*
X127067857Y-114277380D01*
X127210714Y-114325000D01*
X127258333Y-114372619D01*
X128210714Y-115277380D02*
X127639285Y-115277380D01*
X127925000Y-115277380D02*
X127925000Y-114277380D01*
X127829761Y-114420238D01*
X127734523Y-114515476D01*
X127639285Y-114563095D01*
%TO.C,C2*%
X127295833Y-126607142D02*
X127248214Y-126654761D01*
X127105357Y-126702380D01*
X127010119Y-126702380D01*
X126867261Y-126654761D01*
X126772023Y-126559523D01*
X126724404Y-126464285D01*
X126676785Y-126273809D01*
X126676785Y-126130952D01*
X126724404Y-125940476D01*
X126772023Y-125845238D01*
X126867261Y-125750000D01*
X127010119Y-125702380D01*
X127105357Y-125702380D01*
X127248214Y-125750000D01*
X127295833Y-125797619D01*
X127676785Y-125797619D02*
X127724404Y-125750000D01*
X127819642Y-125702380D01*
X128057738Y-125702380D01*
X128152976Y-125750000D01*
X128200595Y-125797619D01*
X128248214Y-125892857D01*
X128248214Y-125988095D01*
X128200595Y-126130952D01*
X127629166Y-126702380D01*
X128248214Y-126702380D01*
%TO.C,C3*%
X121583333Y-101607142D02*
X121535714Y-101654761D01*
X121392857Y-101702380D01*
X121297619Y-101702380D01*
X121154761Y-101654761D01*
X121059523Y-101559523D01*
X121011904Y-101464285D01*
X120964285Y-101273809D01*
X120964285Y-101130952D01*
X121011904Y-100940476D01*
X121059523Y-100845238D01*
X121154761Y-100750000D01*
X121297619Y-100702380D01*
X121392857Y-100702380D01*
X121535714Y-100750000D01*
X121583333Y-100797619D01*
X121916666Y-100702380D02*
X122535714Y-100702380D01*
X122202380Y-101083333D01*
X122345238Y-101083333D01*
X122440476Y-101130952D01*
X122488095Y-101178571D01*
X122535714Y-101273809D01*
X122535714Y-101511904D01*
X122488095Y-101607142D01*
X122440476Y-101654761D01*
X122345238Y-101702380D01*
X122059523Y-101702380D01*
X121964285Y-101654761D01*
X121916666Y-101607142D01*
%TO.C,C5*%
X121583333Y-103307142D02*
X121535714Y-103354761D01*
X121392857Y-103402380D01*
X121297619Y-103402380D01*
X121154761Y-103354761D01*
X121059523Y-103259523D01*
X121011904Y-103164285D01*
X120964285Y-102973809D01*
X120964285Y-102830952D01*
X121011904Y-102640476D01*
X121059523Y-102545238D01*
X121154761Y-102450000D01*
X121297619Y-102402380D01*
X121392857Y-102402380D01*
X121535714Y-102450000D01*
X121583333Y-102497619D01*
X122488095Y-102402380D02*
X122011904Y-102402380D01*
X121964285Y-102878571D01*
X122011904Y-102830952D01*
X122107142Y-102783333D01*
X122345238Y-102783333D01*
X122440476Y-102830952D01*
X122488095Y-102878571D01*
X122535714Y-102973809D01*
X122535714Y-103211904D01*
X122488095Y-103307142D01*
X122440476Y-103354761D01*
X122345238Y-103402380D01*
X122107142Y-103402380D01*
X122011904Y-103354761D01*
X121964285Y-103307142D01*
%TO.C,C6*%
X121570833Y-106357142D02*
X121523214Y-106404761D01*
X121380357Y-106452380D01*
X121285119Y-106452380D01*
X121142261Y-106404761D01*
X121047023Y-106309523D01*
X120999404Y-106214285D01*
X120951785Y-106023809D01*
X120951785Y-105880952D01*
X120999404Y-105690476D01*
X121047023Y-105595238D01*
X121142261Y-105500000D01*
X121285119Y-105452380D01*
X121380357Y-105452380D01*
X121523214Y-105500000D01*
X121570833Y-105547619D01*
X122427976Y-105452380D02*
X122237500Y-105452380D01*
X122142261Y-105500000D01*
X122094642Y-105547619D01*
X121999404Y-105690476D01*
X121951785Y-105880952D01*
X121951785Y-106261904D01*
X121999404Y-106357142D01*
X122047023Y-106404761D01*
X122142261Y-106452380D01*
X122332738Y-106452380D01*
X122427976Y-106404761D01*
X122475595Y-106357142D01*
X122523214Y-106261904D01*
X122523214Y-106023809D01*
X122475595Y-105928571D01*
X122427976Y-105880952D01*
X122332738Y-105833333D01*
X122142261Y-105833333D01*
X122047023Y-105880952D01*
X121999404Y-105928571D01*
X121951785Y-106023809D01*
%TO.C,R1*%
X127258333Y-117027380D02*
X126925000Y-116551190D01*
X126686904Y-117027380D02*
X126686904Y-116027380D01*
X127067857Y-116027380D01*
X127163095Y-116075000D01*
X127210714Y-116122619D01*
X127258333Y-116217857D01*
X127258333Y-116360714D01*
X127210714Y-116455952D01*
X127163095Y-116503571D01*
X127067857Y-116551190D01*
X126686904Y-116551190D01*
X128210714Y-117027380D02*
X127639285Y-117027380D01*
X127925000Y-117027380D02*
X127925000Y-116027380D01*
X127829761Y-116170238D01*
X127734523Y-116265476D01*
X127639285Y-116313095D01*
%TO.C,R2*%
X127295833Y-124952380D02*
X126962500Y-124476190D01*
X126724404Y-124952380D02*
X126724404Y-123952380D01*
X127105357Y-123952380D01*
X127200595Y-124000000D01*
X127248214Y-124047619D01*
X127295833Y-124142857D01*
X127295833Y-124285714D01*
X127248214Y-124380952D01*
X127200595Y-124428571D01*
X127105357Y-124476190D01*
X126724404Y-124476190D01*
X127676785Y-124047619D02*
X127724404Y-124000000D01*
X127819642Y-123952380D01*
X128057738Y-123952380D01*
X128152976Y-124000000D01*
X128200595Y-124047619D01*
X128248214Y-124142857D01*
X128248214Y-124238095D01*
X128200595Y-124380952D01*
X127629166Y-124952380D01*
X128248214Y-124952380D01*
%TO.C,R3*%
X111958333Y-106702380D02*
X111625000Y-106226190D01*
X111386904Y-106702380D02*
X111386904Y-105702380D01*
X111767857Y-105702380D01*
X111863095Y-105750000D01*
X111910714Y-105797619D01*
X111958333Y-105892857D01*
X111958333Y-106035714D01*
X111910714Y-106130952D01*
X111863095Y-106178571D01*
X111767857Y-106226190D01*
X111386904Y-106226190D01*
X112291666Y-105702380D02*
X112910714Y-105702380D01*
X112577380Y-106083333D01*
X112720238Y-106083333D01*
X112815476Y-106130952D01*
X112863095Y-106178571D01*
X112910714Y-106273809D01*
X112910714Y-106511904D01*
X112863095Y-106607142D01*
X112815476Y-106654761D01*
X112720238Y-106702380D01*
X112434523Y-106702380D01*
X112339285Y-106654761D01*
X112291666Y-106607142D01*
%TO.C,C4*%
X132833333Y-112107142D02*
X132785714Y-112154761D01*
X132642857Y-112202380D01*
X132547619Y-112202380D01*
X132404761Y-112154761D01*
X132309523Y-112059523D01*
X132261904Y-111964285D01*
X132214285Y-111773809D01*
X132214285Y-111630952D01*
X132261904Y-111440476D01*
X132309523Y-111345238D01*
X132404761Y-111250000D01*
X132547619Y-111202380D01*
X132642857Y-111202380D01*
X132785714Y-111250000D01*
X132833333Y-111297619D01*
X133690476Y-111535714D02*
X133690476Y-112202380D01*
X133452380Y-111154761D02*
X133214285Y-111869047D01*
X133833333Y-111869047D01*
%TO.C,U1*%
X119358095Y-133442380D02*
X119358095Y-134251904D01*
X119405714Y-134347142D01*
X119453333Y-134394761D01*
X119548571Y-134442380D01*
X119739047Y-134442380D01*
X119834285Y-134394761D01*
X119881904Y-134347142D01*
X119929523Y-134251904D01*
X119929523Y-133442380D01*
X120929523Y-134442380D02*
X120358095Y-134442380D01*
X120643809Y-134442380D02*
X120643809Y-133442380D01*
X120548571Y-133585238D01*
X120453333Y-133680476D01*
X120358095Y-133728095D01*
%TO.C,D2*%
X116511904Y-105152380D02*
X116511904Y-104152380D01*
X116750000Y-104152380D01*
X116892857Y-104200000D01*
X116988095Y-104295238D01*
X117035714Y-104390476D01*
X117083333Y-104580952D01*
X117083333Y-104723809D01*
X117035714Y-104914285D01*
X116988095Y-105009523D01*
X116892857Y-105104761D01*
X116750000Y-105152380D01*
X116511904Y-105152380D01*
X117464285Y-104247619D02*
X117511904Y-104200000D01*
X117607142Y-104152380D01*
X117845238Y-104152380D01*
X117940476Y-104200000D01*
X117988095Y-104247619D01*
X118035714Y-104342857D01*
X118035714Y-104438095D01*
X117988095Y-104580952D01*
X117416666Y-105152380D01*
X118035714Y-105152380D01*
%TO.C,D1*%
X110661904Y-105152380D02*
X110661904Y-104152380D01*
X110900000Y-104152380D01*
X111042857Y-104200000D01*
X111138095Y-104295238D01*
X111185714Y-104390476D01*
X111233333Y-104580952D01*
X111233333Y-104723809D01*
X111185714Y-104914285D01*
X111138095Y-105009523D01*
X111042857Y-105104761D01*
X110900000Y-105152380D01*
X110661904Y-105152380D01*
X112185714Y-105152380D02*
X111614285Y-105152380D01*
X111900000Y-105152380D02*
X111900000Y-104152380D01*
X111804761Y-104295238D01*
X111709523Y-104390476D01*
X111614285Y-104438095D01*
D11*
%TO.C,J1*%
X103020000Y-132830000D02*
X103020000Y-102230000D01*
X103020000Y-102230000D02*
X100360000Y-102230000D01*
X100360000Y-102230000D02*
X100360000Y-132830000D01*
X100360000Y-132830000D02*
X103020000Y-132830000D01*
X103417071Y-131880000D02*
X103020000Y-131880000D01*
X103417071Y-131120000D02*
X103020000Y-131120000D01*
X105890000Y-131880000D02*
X105502929Y-131880000D01*
X105890000Y-131120000D02*
X105502929Y-131120000D01*
X103020000Y-130230000D02*
X100360000Y-130230000D01*
X103417071Y-129340000D02*
X103020000Y-129340000D01*
X103417071Y-128580000D02*
X103020000Y-128580000D01*
X105957071Y-129340000D02*
X105502929Y-129340000D01*
X105957071Y-128580000D02*
X105502929Y-128580000D01*
X103020000Y-127690000D02*
X100360000Y-127690000D01*
X103417071Y-126800000D02*
X103020000Y-126800000D01*
X103417071Y-126040000D02*
X103020000Y-126040000D01*
X105957071Y-126800000D02*
X105502929Y-126800000D01*
X105957071Y-126040000D02*
X105502929Y-126040000D01*
X103020000Y-125150000D02*
X100360000Y-125150000D01*
X103417071Y-124260000D02*
X103020000Y-124260000D01*
X103417071Y-123500000D02*
X103020000Y-123500000D01*
X105957071Y-124260000D02*
X105502929Y-124260000D01*
X105957071Y-123500000D02*
X105502929Y-123500000D01*
X103020000Y-122610000D02*
X100360000Y-122610000D01*
X103417071Y-121720000D02*
X103020000Y-121720000D01*
X103417071Y-120960000D02*
X103020000Y-120960000D01*
X105957071Y-121720000D02*
X105502929Y-121720000D01*
X105957071Y-120960000D02*
X105502929Y-120960000D01*
X103020000Y-120070000D02*
X100360000Y-120070000D01*
X103417071Y-119180000D02*
X103020000Y-119180000D01*
X103417071Y-118420000D02*
X103020000Y-118420000D01*
X105957071Y-119180000D02*
X105502929Y-119180000D01*
X105957071Y-118420000D02*
X105502929Y-118420000D01*
X103020000Y-117530000D02*
X100360000Y-117530000D01*
X103417071Y-116640000D02*
X103020000Y-116640000D01*
X103417071Y-115880000D02*
X103020000Y-115880000D01*
X105957071Y-116640000D02*
X105502929Y-116640000D01*
X105957071Y-115880000D02*
X105502929Y-115880000D01*
X103020000Y-114990000D02*
X100360000Y-114990000D01*
X103417071Y-114100000D02*
X103020000Y-114100000D01*
X103417071Y-113340000D02*
X103020000Y-113340000D01*
X105957071Y-114100000D02*
X105502929Y-114100000D01*
X105957071Y-113340000D02*
X105502929Y-113340000D01*
X103020000Y-112450000D02*
X100360000Y-112450000D01*
X103417071Y-111560000D02*
X103020000Y-111560000D01*
X103417071Y-110800000D02*
X103020000Y-110800000D01*
X105957071Y-111560000D02*
X105502929Y-111560000D01*
X105957071Y-110800000D02*
X105502929Y-110800000D01*
X103020000Y-109910000D02*
X100360000Y-109910000D01*
X103417071Y-109020000D02*
X103020000Y-109020000D01*
X103417071Y-108260000D02*
X103020000Y-108260000D01*
X105957071Y-109020000D02*
X105502929Y-109020000D01*
X105957071Y-108260000D02*
X105502929Y-108260000D01*
X103020000Y-107370000D02*
X100360000Y-107370000D01*
X103417071Y-106480000D02*
X103020000Y-106480000D01*
X103417071Y-105720000D02*
X103020000Y-105720000D01*
X105957071Y-106480000D02*
X105502929Y-106480000D01*
X105957071Y-105720000D02*
X105502929Y-105720000D01*
X103020000Y-104830000D02*
X100360000Y-104830000D01*
X103417071Y-103940000D02*
X103020000Y-103940000D01*
X103417071Y-103180000D02*
X103020000Y-103180000D01*
X105957071Y-103940000D02*
X105502929Y-103940000D01*
X105957071Y-103180000D02*
X105502929Y-103180000D01*
X108270000Y-131500000D02*
X108270000Y-132770000D01*
X108270000Y-132770000D02*
X107000000Y-132770000D01*
%TO.C,C1*%
X129799721Y-114315000D02*
X130125279Y-114315000D01*
X129799721Y-115335000D02*
X130125279Y-115335000D01*
%TO.C,C2*%
X130049721Y-126760000D02*
X130375279Y-126760000D01*
X130049721Y-125740000D02*
X130375279Y-125740000D01*
%TO.C,C3*%
X124375279Y-100740000D02*
X124049721Y-100740000D01*
X124375279Y-101760000D02*
X124049721Y-101760000D01*
%TO.C,C5*%
X124375279Y-102490000D02*
X124049721Y-102490000D01*
X124375279Y-103510000D02*
X124049721Y-103510000D01*
%TO.C,C6*%
X124037221Y-106510000D02*
X124362779Y-106510000D01*
X124037221Y-105490000D02*
X124362779Y-105490000D01*
%TO.C,R1*%
X130125279Y-117085000D02*
X129799721Y-117085000D01*
X130125279Y-116065000D02*
X129799721Y-116065000D01*
%TO.C,R2*%
X130375279Y-123990000D02*
X130049721Y-123990000D01*
X130375279Y-125010000D02*
X130049721Y-125010000D01*
%TO.C,R3*%
X114424721Y-106510000D02*
X114750279Y-106510000D01*
X114424721Y-105490000D02*
X114750279Y-105490000D01*
%TO.C,C4*%
X133260000Y-101300000D02*
X132260000Y-101300000D01*
X132760000Y-100800000D02*
X132760000Y-101800000D01*
X127054437Y-102040000D02*
X125990000Y-103104437D01*
X133445563Y-102040000D02*
X134510000Y-103104437D01*
X133445563Y-102040000D02*
X131760000Y-102040000D01*
X127054437Y-102040000D02*
X128740000Y-102040000D01*
X125990000Y-103104437D02*
X125990000Y-110560000D01*
X134510000Y-103104437D02*
X134510000Y-110560000D01*
X134510000Y-110560000D02*
X131760000Y-110560000D01*
X125990000Y-110560000D02*
X128740000Y-110560000D01*
%TO.C,U1*%
X122310000Y-107420000D02*
X121060000Y-107420000D01*
X122310000Y-132940000D02*
X122310000Y-107420000D01*
X117810000Y-132940000D02*
X122310000Y-132940000D01*
X117810000Y-107420000D02*
X117810000Y-132940000D01*
X119060000Y-107420000D02*
X117810000Y-107420000D01*
X121060000Y-107420000D02*
G75*
G02*
X119060000Y-107420000I-1000000J0D01*
G01*
%TO.C,D2*%
X118150000Y-103800000D02*
X116350000Y-103800000D01*
D12*
X120250000Y-103000000D02*
G75*
G03*
X120250000Y-103000000I-100000J0D01*
G01*
D11*
X118150000Y-102200000D02*
X116350000Y-102200000D01*
%TO.C,D1*%
X112300000Y-102200000D02*
X110500000Y-102200000D01*
D12*
X114200000Y-103000000D02*
G75*
G03*
X114200000Y-103000000I-100000J0D01*
G01*
D11*
X112300000Y-103800000D02*
X110500000Y-103800000D01*
%TD*%
M02*
