M48
; DRILL file {KiCad 5.99.0-unknown-ad88874~101~ubuntu20.04.1} date Tue May 19 21:35:36 2020
; FORMAT={-:-/ absolute / inch / decimal}
; #@! TF.CreationDate,2020-05-19T21:35:36-04:00
; #@! TF.GenerationSoftware,Kicad,Pcbnew,5.99.0-unknown-ad88874~101~ubuntu20.04.1
; #@! TF.FileFunction,Plated,1,2,PTH
FMAT,2
INCH
T1C0.0157
T2C0.0315
T3C0.0354
T4C0.0394
%
G90
G05
T1
X4.3209Y-4.1732
X4.3701Y-4.3465
X4.4193Y-4.1732
X4.6654Y-4.3307
X4.7539Y-4.0945
X4.8622Y-4.0945
X4.9601Y-4.1732
X5.0Y-3.9862
X5.0Y-4.0551
X5.0233Y-4.2287
X5.0886Y-4.7047
X5.1352Y-4.7565
T2
X4.5768Y-4.2815
X4.5768Y-4.3815
X4.5768Y-4.4815
X4.5768Y-4.5815
X4.5768Y-4.6815
X4.5768Y-4.7815
X4.5768Y-4.8815
X4.5768Y-4.9815
X4.5768Y-5.0815
X4.5768Y-5.1815
X4.8768Y-4.2815
X4.8768Y-4.3815
X4.8768Y-4.4815
X4.8768Y-4.5815
X4.8768Y-4.6815
X4.8768Y-4.7815
X4.8768Y-4.8815
X4.8768Y-4.9815
X4.8768Y-5.0815
X4.8768Y-5.1815
T3
X4.3799Y-5.2559
X4.3799Y-5.0492
T4
X4.1126Y-4.0772
X4.1126Y-4.1772
X4.1126Y-4.2772
X4.1126Y-4.3772
X4.1126Y-4.4772
X4.1126Y-4.5772
X4.1126Y-4.6772
X4.1126Y-4.7772
X4.1126Y-4.8772
X4.1126Y-4.9772
X4.1126Y-5.0772
X4.1126Y-5.1772
X4.2126Y-4.0772
X4.2126Y-4.1772
X4.2126Y-4.2772
X4.2126Y-4.3772
X4.2126Y-4.4772
X4.2126Y-4.5772
X4.2126Y-4.6772
X4.2126Y-4.7772
X4.2126Y-4.8772
X4.2126Y-4.9772
X4.2126Y-5.0772
X4.2126Y-5.1772
T0
M30
