%TF.GenerationSoftware,KiCad,Pcbnew,5.99.0-unknown-ad88874~101~ubuntu20.04.1*%
%TF.CreationDate,2020-05-19T21:35:34-04:00*%
%TF.ProjectId,L6205DIP,4c363230-3544-4495-902e-6b696361645f,rev?*%
%TF.SameCoordinates,Original*%
%TF.FileFunction,Copper,L2,Bot*%
%TF.FilePolarity,Positive*%
%FSLAX46Y46*%
G04 Gerber Fmt 4.6, Leading zero omitted, Abs format (unit mm)*
G04 Created by KiCad (PCBNEW 5.99.0-unknown-ad88874~101~ubuntu20.04.1) date 2020-05-19 21:35:34*
%MOMM*%
%LPD*%
G01*
G04 APERTURE LIST*
%TA.AperFunction,ComponentPad*%
%ADD10R,1.700000X1.700000*%
%TD*%
%TA.AperFunction,ComponentPad*%
%ADD11O,1.700000X1.700000*%
%TD*%
%TA.AperFunction,ComponentPad*%
%ADD12O,2.400000X1.600000*%
%TD*%
%TA.AperFunction,ComponentPad*%
%ADD13R,2.400000X1.600000*%
%TD*%
%TA.AperFunction,ComponentPad*%
%ADD14C,1.500000*%
%TD*%
%TA.AperFunction,ViaPad*%
%ADD15C,0.800000*%
%TD*%
%TA.AperFunction,Conductor*%
%ADD16C,2.000000*%
%TD*%
%TA.AperFunction,Conductor*%
%ADD17C,0.250000*%
%TD*%
%TA.AperFunction,Conductor*%
%ADD18C,0.254000*%
%TD*%
G04 APERTURE END LIST*
D10*
%TO.P,J1,1,Pin_1*%
%TO.N,/M1_B*%
X107000000Y-131500000D03*
D11*
%TO.P,J1,2,Pin_2*%
%TO.N,/M1_A*%
X104460000Y-131500000D03*
%TO.P,J1,3,Pin_3*%
%TO.N,/M2_B*%
X107000000Y-128960000D03*
%TO.P,J1,4,Pin_4*%
%TO.N,/M2_A*%
X104460000Y-128960000D03*
%TO.P,J1,5,Pin_5*%
%TO.N,GND*%
X107000000Y-126420000D03*
%TO.P,J1,6,Pin_6*%
X104460000Y-126420000D03*
%TO.P,J1,7,Pin_7*%
%TO.N,N/C*%
X107000000Y-123880000D03*
%TO.P,J1,8,Pin_8*%
%TO.N,/IN1_A*%
X104460000Y-123880000D03*
%TO.P,J1,9,Pin_9*%
%TO.N,GND*%
X107000000Y-121340000D03*
%TO.P,J1,10,Pin_10*%
%TO.N,/IN2_A*%
X104460000Y-121340000D03*
%TO.P,J1,11,Pin_11*%
%TO.N,GND*%
X107000000Y-118800000D03*
%TO.P,J1,12,Pin_12*%
%TO.N,/ENA_A*%
X104460000Y-118800000D03*
%TO.P,J1,13,Pin_13*%
%TO.N,GND*%
X107000000Y-116260000D03*
%TO.P,J1,14,Pin_14*%
%TO.N,/IN1_B*%
X104460000Y-116260000D03*
%TO.P,J1,15,Pin_15*%
%TO.N,GND*%
X107000000Y-113720000D03*
%TO.P,J1,16,Pin_16*%
%TO.N,/IN2_B*%
X104460000Y-113720000D03*
%TO.P,J1,17,Pin_17*%
%TO.N,GND*%
X107000000Y-111180000D03*
%TO.P,J1,18,Pin_18*%
%TO.N,/ENA_B*%
X104460000Y-111180000D03*
%TO.P,J1,19,Pin_19*%
%TO.N,GND*%
X107000000Y-108640000D03*
%TO.P,J1,20,Pin_20*%
X104460000Y-108640000D03*
%TO.P,J1,21,Pin_21*%
%TO.N,+12V*%
X107000000Y-106100000D03*
%TO.P,J1,22,Pin_22*%
X104460000Y-106100000D03*
%TO.P,J1,23,Pin_23*%
X107000000Y-103560000D03*
%TO.P,J1,24,Pin_24*%
X104460000Y-103560000D03*
%TD*%
D12*
%TO.P,U1,20,EN*%
%TO.N,Net-(C1-Pad1)*%
X123870000Y-108750000D03*
%TO.P,U1,10,IN2*%
%TO.N,/IN2_B*%
X116250000Y-131610000D03*
%TO.P,U1,19,VCP*%
%TO.N,/VCP*%
X123870000Y-111290000D03*
%TO.P,U1,9,IN1*%
%TO.N,/IN1_B*%
X116250000Y-129070000D03*
%TO.P,U1,18,OUT2*%
%TO.N,/M2_A*%
X123870000Y-113830000D03*
%TO.P,U1,8,SNS*%
%TO.N,GND*%
X116250000Y-126530000D03*
%TO.P,U1,17,VS*%
%TO.N,+12V*%
X123870000Y-116370000D03*
%TO.P,U1,7,OUT1*%
%TO.N,/M1_B*%
X116250000Y-123990000D03*
%TO.P,U1,16,GND*%
%TO.N,GND*%
X123870000Y-118910000D03*
%TO.P,U1,6,GND*%
X116250000Y-121450000D03*
%TO.P,U1,15,GND*%
X123870000Y-121450000D03*
%TO.P,U1,5,GND*%
X116250000Y-118910000D03*
%TO.P,U1,14,VS*%
%TO.N,+12V*%
X123870000Y-123990000D03*
%TO.P,U1,4,OUT1*%
%TO.N,/M1_A*%
X116250000Y-116370000D03*
%TO.P,U1,13,OUT2*%
%TO.N,/M2_B*%
X123870000Y-126530000D03*
%TO.P,U1,3,SNS*%
%TO.N,GND*%
X116250000Y-113830000D03*
%TO.P,U1,12,VBOOT*%
%TO.N,/VBOOT*%
X123870000Y-129070000D03*
%TO.P,U1,2,IN2*%
%TO.N,/IN2_A*%
X116250000Y-111290000D03*
%TO.P,U1,11,EN*%
%TO.N,Net-(C2-Pad1)*%
X123870000Y-131610000D03*
D13*
%TO.P,U1,1,IN1*%
%TO.N,/IN1_A*%
X116250000Y-108750000D03*
%TD*%
D14*
%TO.P,M1,1,Pin_1*%
%TO.N,/M2_A*%
X111250000Y-133500000D03*
%TD*%
%TO.P,M2,1,Pin_1*%
%TO.N,/M2_B*%
X111250000Y-128250000D03*
%TD*%
D15*
%TO.N,/ENA_B*%
X130434314Y-120815686D03*
X127592157Y-107407843D03*
%TO.N,/VBOOT*%
X120750000Y-104000000D03*
X123500000Y-104000000D03*
%TO.N,GND*%
X112250000Y-106000000D03*
X109750000Y-106000000D03*
X111000000Y-110400000D03*
%TO.N,/VCP*%
X125987500Y-106000000D03*
%TO.N,/VBOOT*%
X129250000Y-119500000D03*
%TO.N,/ENA_B*%
X118500000Y-110000000D03*
%TO.N,+12V*%
X127000000Y-101250000D03*
X127000000Y-103000000D03*
%TD*%
D16*
%TO.N,/M2_B*%
X107000000Y-128960000D02*
X107790000Y-128960000D01*
X107790000Y-128960000D02*
X108500000Y-128250000D01*
X108500000Y-128250000D02*
X111250000Y-128250000D01*
%TO.N,/M1_A*%
X113849990Y-127900010D02*
X113849990Y-118081569D01*
X113849990Y-129400010D02*
X112250000Y-131000000D01*
X113849990Y-127900010D02*
X113849990Y-129400010D01*
X113849990Y-118081569D02*
X115561559Y-116370000D01*
X115561559Y-116370000D02*
X116250000Y-116370000D01*
X110638718Y-131000000D02*
X112250000Y-131000000D01*
X106699999Y-133550001D02*
X108810001Y-133550001D01*
X105307920Y-133550001D02*
X106699999Y-133550001D01*
X108810001Y-133550001D02*
X109049992Y-133310010D01*
X109049992Y-132588726D02*
X110638718Y-131000000D01*
X109049992Y-133310010D02*
X109049992Y-132588726D01*
D17*
%TO.N,/ENA_B*%
X130434314Y-110250000D02*
X130434314Y-120815686D01*
X127592157Y-107407843D02*
X130434314Y-110250000D01*
%TO.N,/VBOOT*%
X127500000Y-108500000D02*
X126750000Y-107750000D01*
X129250000Y-119500000D02*
X129250000Y-110250000D01*
X129250000Y-110250000D02*
X127500000Y-108500000D01*
X126750000Y-107750000D02*
X126750000Y-105689498D01*
X126250000Y-105250000D02*
X124750000Y-105250000D01*
X126750000Y-105689498D02*
X126310502Y-105250000D01*
X126310502Y-105250000D02*
X126250000Y-105250000D01*
X123500000Y-104000000D02*
X120750000Y-104000000D01*
X124750000Y-105250000D02*
X123500000Y-104000000D01*
%TO.N,/ENA_B*%
X114595001Y-110004999D02*
X113000000Y-111600000D01*
X109590002Y-111600000D02*
X107995001Y-110004999D01*
X115804999Y-110004999D02*
X118495001Y-110004999D01*
X105635001Y-110004999D02*
X107995001Y-110004999D01*
X115804999Y-110004999D02*
X114595001Y-110004999D01*
X113000000Y-111600000D02*
X109590002Y-111600000D01*
%TO.N,/IN2_B*%
X117205502Y-112794498D02*
X119000000Y-114588996D01*
X117115994Y-112704990D02*
X117205502Y-112794498D01*
X117205502Y-112794498D02*
X116956003Y-112544999D01*
X116956003Y-112544999D02*
X105635001Y-112544999D01*
X105635001Y-112544999D02*
X104460000Y-113720000D01*
%TO.N,/VCP*%
X126250000Y-106000000D02*
X126250000Y-107000000D01*
%TO.N,/ENA_B*%
X118495001Y-110004999D02*
X118500000Y-110000000D01*
X104460000Y-111180000D02*
X105635001Y-110004999D01*
%TO.N,/VCP*%
X125710000Y-111290000D02*
X126250000Y-110750000D01*
X123870000Y-111290000D02*
X125710000Y-111290000D01*
X126250000Y-110750000D02*
X126250000Y-107000000D01*
%TO.N,/IN2_B*%
X119000000Y-114588996D02*
X119000000Y-128860000D01*
X119000000Y-128860000D02*
X116250000Y-131610000D01*
D16*
%TO.N,/M2_A*%
X111361288Y-133611288D02*
X111250000Y-133500000D01*
X114111288Y-133611288D02*
X111361288Y-133611288D01*
X125097153Y-133611288D02*
X114111288Y-133611288D01*
X126270010Y-132438431D02*
X125097153Y-133611288D01*
X126270010Y-115541569D02*
X126270010Y-132438431D01*
X124558441Y-113830000D02*
X126270010Y-115541569D01*
X123870000Y-113830000D02*
X124558441Y-113830000D01*
%TO.N,/M1_A*%
X105307920Y-133550001D02*
X104460000Y-132702081D01*
X104460000Y-132702081D02*
X104460000Y-131500000D01*
%TD*%
%TO.N,GND*%
G36*
X112616000Y-107506754D02*
G01*
X112617444Y-107520184D01*
X112667183Y-107748832D01*
X112675813Y-107769666D01*
X112764953Y-107908371D01*
X112776756Y-107921992D01*
X112899652Y-108028483D01*
X112914815Y-108038227D01*
X113062735Y-108105779D01*
X113080028Y-108110857D01*
X113236522Y-108133358D01*
X113245500Y-108134000D01*
X114408163Y-108134000D01*
X114408163Y-109264105D01*
X114366824Y-109270652D01*
X114347963Y-109276781D01*
X114302880Y-109299752D01*
X114254755Y-109315389D01*
X114237083Y-109324393D01*
X114196145Y-109354137D01*
X114151067Y-109377105D01*
X114135022Y-109388762D01*
X114092230Y-109431555D01*
X112684786Y-110839000D01*
X109905217Y-110839000D01*
X108611413Y-109545197D01*
X108611408Y-109545190D01*
X108454981Y-109388763D01*
X108438935Y-109377105D01*
X108393848Y-109354132D01*
X108352917Y-109324393D01*
X108335245Y-109315388D01*
X108325784Y-109312314D01*
X108343256Y-109282294D01*
X108347825Y-109272650D01*
X108432272Y-109046787D01*
X108435151Y-109036511D01*
X108468943Y-108859370D01*
X108393356Y-108768000D01*
X107201809Y-108767999D01*
X107128000Y-108841808D01*
X107127999Y-109243999D01*
X106872001Y-109243999D01*
X106872001Y-108841809D01*
X106798192Y-108768000D01*
X105805809Y-108767999D01*
X105805808Y-108768000D01*
X104661808Y-108767999D01*
X104661807Y-108768000D01*
X103062272Y-108767999D01*
X102986602Y-108864852D01*
X103049221Y-109116005D01*
X103052669Y-109126104D01*
X103149591Y-109346900D01*
X103154692Y-109356275D01*
X103287430Y-109557584D01*
X103294038Y-109565965D01*
X103458798Y-109742032D01*
X103466722Y-109749180D01*
X103658792Y-109894968D01*
X103667808Y-109900679D01*
X103684166Y-109909194D01*
X103683032Y-109909882D01*
X103488199Y-110051957D01*
X103480138Y-110058952D01*
X103312029Y-110231822D01*
X103305263Y-110240074D01*
X103168683Y-110438798D01*
X103163403Y-110448073D01*
X103062260Y-110666968D01*
X103058618Y-110677000D01*
X102995802Y-110909807D01*
X102993903Y-110920309D01*
X102971211Y-111160372D01*
X102971109Y-111171043D01*
X102989188Y-111411497D01*
X102990885Y-111422034D01*
X103049221Y-111656005D01*
X103052669Y-111666104D01*
X103149591Y-111886900D01*
X103154692Y-111896275D01*
X103287430Y-112097584D01*
X103294038Y-112105965D01*
X103458798Y-112282032D01*
X103466722Y-112289180D01*
X103658792Y-112434968D01*
X103667808Y-112440679D01*
X103684166Y-112449194D01*
X103683032Y-112449882D01*
X103488199Y-112591957D01*
X103480138Y-112598952D01*
X103312029Y-112771822D01*
X103305263Y-112780074D01*
X103168683Y-112978798D01*
X103163403Y-112988073D01*
X103062260Y-113206968D01*
X103058618Y-113217000D01*
X102995802Y-113449807D01*
X102993903Y-113460309D01*
X102971211Y-113700372D01*
X102971109Y-113711043D01*
X102989188Y-113951497D01*
X102990885Y-113962034D01*
X103049221Y-114196005D01*
X103052669Y-114206104D01*
X103149591Y-114426900D01*
X103154692Y-114436275D01*
X103287430Y-114637584D01*
X103294038Y-114645965D01*
X103458798Y-114822032D01*
X103466722Y-114829180D01*
X103658792Y-114974968D01*
X103667808Y-114980679D01*
X103684166Y-114989194D01*
X103683032Y-114989882D01*
X103488199Y-115131957D01*
X103480138Y-115138952D01*
X103312029Y-115311822D01*
X103305263Y-115320074D01*
X103168683Y-115518798D01*
X103163403Y-115528073D01*
X103062260Y-115746968D01*
X103058618Y-115757000D01*
X102995802Y-115989807D01*
X102993903Y-116000309D01*
X102971211Y-116240372D01*
X102971109Y-116251043D01*
X102989188Y-116491497D01*
X102990885Y-116502034D01*
X103049221Y-116736005D01*
X103052669Y-116746104D01*
X103149591Y-116966900D01*
X103154692Y-116976275D01*
X103287430Y-117177584D01*
X103294038Y-117185965D01*
X103458798Y-117362032D01*
X103466722Y-117369180D01*
X103658792Y-117514968D01*
X103667808Y-117520679D01*
X103684166Y-117529194D01*
X103683032Y-117529882D01*
X103488199Y-117671957D01*
X103480138Y-117678952D01*
X103312029Y-117851822D01*
X103305263Y-117860074D01*
X103168683Y-118058798D01*
X103163403Y-118068073D01*
X103062260Y-118286968D01*
X103058618Y-118297000D01*
X102995802Y-118529807D01*
X102993903Y-118540309D01*
X102971211Y-118780372D01*
X102971109Y-118791043D01*
X102989188Y-119031497D01*
X102990885Y-119042034D01*
X103049221Y-119276005D01*
X103052669Y-119286104D01*
X103149591Y-119506900D01*
X103154692Y-119516275D01*
X103287430Y-119717584D01*
X103294038Y-119725965D01*
X103458798Y-119902032D01*
X103466722Y-119909180D01*
X103658792Y-120054968D01*
X103667808Y-120060679D01*
X103684166Y-120069194D01*
X103683032Y-120069882D01*
X103488199Y-120211957D01*
X103480138Y-120218952D01*
X103312029Y-120391822D01*
X103305263Y-120400074D01*
X103168683Y-120598798D01*
X103163403Y-120608073D01*
X103062260Y-120826968D01*
X103058618Y-120837000D01*
X102995802Y-121069807D01*
X102993903Y-121080309D01*
X102971211Y-121320372D01*
X102971109Y-121331043D01*
X102989188Y-121571497D01*
X102990885Y-121582034D01*
X103049221Y-121816005D01*
X103052669Y-121826104D01*
X103149591Y-122046900D01*
X103154692Y-122056275D01*
X103287430Y-122257584D01*
X103294038Y-122265965D01*
X103458798Y-122442032D01*
X103466722Y-122449180D01*
X103658792Y-122594968D01*
X103667808Y-122600679D01*
X103684166Y-122609194D01*
X103683032Y-122609882D01*
X103488199Y-122751957D01*
X103480138Y-122758952D01*
X103312029Y-122931822D01*
X103305263Y-122940074D01*
X103168683Y-123138798D01*
X103163403Y-123148073D01*
X103062260Y-123366968D01*
X103058618Y-123377000D01*
X102995802Y-123609807D01*
X102993903Y-123620309D01*
X102971211Y-123860372D01*
X102971109Y-123871043D01*
X102989188Y-124111497D01*
X102990885Y-124122034D01*
X103049221Y-124356005D01*
X103052669Y-124366104D01*
X103149591Y-124586900D01*
X103154692Y-124596275D01*
X103287430Y-124797584D01*
X103294038Y-124805965D01*
X103458798Y-124982032D01*
X103466722Y-124989180D01*
X103658792Y-125134968D01*
X103667808Y-125140679D01*
X103684166Y-125149194D01*
X103683032Y-125149882D01*
X103488199Y-125291957D01*
X103480138Y-125298952D01*
X103312029Y-125471822D01*
X103305263Y-125480074D01*
X103168683Y-125678798D01*
X103163403Y-125688073D01*
X103062260Y-125906968D01*
X103058619Y-125917000D01*
X102984085Y-126193233D01*
X103059734Y-126292000D01*
X104258192Y-126292001D01*
X104258193Y-126292000D01*
X105654191Y-126292001D01*
X105654192Y-126292000D01*
X106798192Y-126292001D01*
X106798193Y-126292000D01*
X108392863Y-126292001D01*
X108468373Y-126202488D01*
X108442499Y-126051114D01*
X108439817Y-126040784D01*
X108359723Y-125813343D01*
X108355339Y-125803612D01*
X108238067Y-125592916D01*
X108232107Y-125584064D01*
X108081013Y-125396140D01*
X108073647Y-125388417D01*
X107893049Y-125228638D01*
X107884486Y-125222267D01*
X107767888Y-125149973D01*
X107861330Y-125094491D01*
X107870012Y-125088286D01*
X108053645Y-124932004D01*
X108061158Y-124924424D01*
X108215833Y-124739435D01*
X108221962Y-124730698D01*
X108343256Y-124522294D01*
X108347825Y-124512650D01*
X108432272Y-124286787D01*
X108435151Y-124276511D01*
X108480392Y-124039351D01*
X108481507Y-124028128D01*
X108484077Y-123760341D01*
X108483178Y-123749099D01*
X108442499Y-123511114D01*
X108439817Y-123500784D01*
X108359723Y-123273343D01*
X108355339Y-123263612D01*
X108238067Y-123052916D01*
X108232107Y-123044064D01*
X108081013Y-122856140D01*
X108073647Y-122848417D01*
X107893049Y-122688638D01*
X107884486Y-122682267D01*
X107767888Y-122609973D01*
X107861330Y-122554491D01*
X107870012Y-122548286D01*
X108053645Y-122392004D01*
X108061158Y-122384424D01*
X108215833Y-122199435D01*
X108221962Y-122190698D01*
X108343256Y-121982294D01*
X108347825Y-121972650D01*
X108432272Y-121746787D01*
X108435151Y-121736511D01*
X108468943Y-121559370D01*
X108393356Y-121468000D01*
X107201808Y-121467999D01*
X107201807Y-121468000D01*
X106872000Y-121467999D01*
X106872001Y-120145809D01*
X106872000Y-120145808D01*
X106872000Y-119994191D01*
X107127999Y-119994191D01*
X107128000Y-119994192D01*
X107127999Y-121138191D01*
X107201808Y-121212000D01*
X108392863Y-121212001D01*
X108468373Y-121122488D01*
X108442499Y-120971114D01*
X108439817Y-120960784D01*
X108359723Y-120733343D01*
X108355339Y-120723612D01*
X108238067Y-120512916D01*
X108232107Y-120504064D01*
X108081013Y-120316140D01*
X108073647Y-120308417D01*
X107893049Y-120148638D01*
X107884486Y-120142267D01*
X107767888Y-120069973D01*
X107861330Y-120014491D01*
X107870012Y-120008286D01*
X108053645Y-119852004D01*
X108061158Y-119844424D01*
X108215833Y-119659435D01*
X108221962Y-119650698D01*
X108343256Y-119442294D01*
X108347825Y-119432650D01*
X108432272Y-119206787D01*
X108435151Y-119196511D01*
X108468943Y-119019370D01*
X108393356Y-118928000D01*
X107201809Y-118927999D01*
X107128000Y-119001808D01*
X107127999Y-119994191D01*
X106872000Y-119994191D01*
X106872001Y-119001808D01*
X106872000Y-119001807D01*
X106872001Y-117605809D01*
X106872000Y-117605808D01*
X106872000Y-117454191D01*
X107127999Y-117454191D01*
X107128000Y-117454192D01*
X107127999Y-118598191D01*
X107201808Y-118672000D01*
X108392863Y-118672001D01*
X108468373Y-118582488D01*
X108442499Y-118431114D01*
X108439817Y-118420784D01*
X108359723Y-118193343D01*
X108355339Y-118183612D01*
X108238067Y-117972916D01*
X108232107Y-117964064D01*
X108081013Y-117776140D01*
X108073647Y-117768417D01*
X107893049Y-117608638D01*
X107884486Y-117602267D01*
X107767888Y-117529973D01*
X107861330Y-117474491D01*
X107870012Y-117468286D01*
X108053645Y-117312004D01*
X108061158Y-117304424D01*
X108215833Y-117119435D01*
X108221962Y-117110698D01*
X108343256Y-116902294D01*
X108347825Y-116892650D01*
X108432272Y-116666787D01*
X108435151Y-116656511D01*
X108468943Y-116479370D01*
X108393356Y-116388000D01*
X107201809Y-116387999D01*
X107128000Y-116461808D01*
X107127999Y-117454191D01*
X106872000Y-117454191D01*
X106872001Y-116461808D01*
X106872000Y-116461807D01*
X106872001Y-115065809D01*
X106872000Y-115065808D01*
X106872000Y-114914191D01*
X107127999Y-114914191D01*
X107128000Y-114914192D01*
X107127999Y-116058191D01*
X107201808Y-116132000D01*
X108392863Y-116132001D01*
X108468373Y-116042488D01*
X108442499Y-115891114D01*
X108439817Y-115880784D01*
X108359723Y-115653343D01*
X108355339Y-115643612D01*
X108238067Y-115432916D01*
X108232107Y-115424064D01*
X108081013Y-115236140D01*
X108073647Y-115228417D01*
X107893049Y-115068638D01*
X107884486Y-115062267D01*
X107767888Y-114989973D01*
X107861330Y-114934491D01*
X107870012Y-114928286D01*
X108053645Y-114772004D01*
X108061158Y-114764424D01*
X108215833Y-114579435D01*
X108221962Y-114570698D01*
X108343256Y-114362294D01*
X108347825Y-114352650D01*
X108432272Y-114126787D01*
X108435151Y-114116511D01*
X108468943Y-113939370D01*
X108393356Y-113848000D01*
X107201809Y-113847999D01*
X107128000Y-113921808D01*
X107127999Y-114914191D01*
X106872000Y-114914191D01*
X106872001Y-113921808D01*
X106872000Y-113921807D01*
X106872001Y-113305999D01*
X107127999Y-113305999D01*
X107127999Y-113518191D01*
X107201808Y-113592000D01*
X108392863Y-113592001D01*
X108468373Y-113502488D01*
X108442499Y-113351114D01*
X108439817Y-113340784D01*
X108427567Y-113305999D01*
X114512102Y-113305999D01*
X114499667Y-113332665D01*
X114495904Y-113343004D01*
X114426129Y-113603408D01*
X114501782Y-113702000D01*
X116378000Y-113702000D01*
X116378000Y-113958000D01*
X114501782Y-113958000D01*
X114426129Y-114056592D01*
X114495904Y-114316996D01*
X114499667Y-114327335D01*
X114601042Y-114544734D01*
X114606543Y-114554262D01*
X114744129Y-114750755D01*
X114751202Y-114759183D01*
X114874420Y-114882401D01*
X114801042Y-114921417D01*
X114671521Y-114988555D01*
X114660835Y-114995548D01*
X114659333Y-114996765D01*
X114657306Y-114997842D01*
X114647037Y-115004665D01*
X114408002Y-115199616D01*
X114399256Y-115208300D01*
X114349684Y-115268223D01*
X112756242Y-116861665D01*
X112704633Y-116903160D01*
X112695828Y-116911783D01*
X112642132Y-116975774D01*
X112638298Y-116979608D01*
X112634161Y-116984171D01*
X112591121Y-117036569D01*
X112497558Y-117148070D01*
X112490595Y-117158240D01*
X112489412Y-117160392D01*
X112487856Y-117162286D01*
X112481001Y-117172527D01*
X112412230Y-117300784D01*
X112341998Y-117428538D01*
X112337143Y-117439864D01*
X112336399Y-117442209D01*
X112335241Y-117444369D01*
X112330506Y-117455745D01*
X112287950Y-117594942D01*
X112243810Y-117734089D01*
X112241199Y-117746588D01*
X112240996Y-117748519D01*
X112240325Y-117750714D01*
X112237888Y-117762797D01*
X112206715Y-118069670D01*
X112206672Y-118081995D01*
X112213991Y-118159421D01*
X112213990Y-126923152D01*
X112183499Y-126897567D01*
X112173329Y-126890604D01*
X111903031Y-126742007D01*
X111891702Y-126737151D01*
X111597480Y-126643819D01*
X111584985Y-126641208D01*
X111329401Y-126614345D01*
X111322811Y-126614000D01*
X108589201Y-126614000D01*
X108523371Y-126606848D01*
X108511046Y-126606719D01*
X108446597Y-126612357D01*
X108393356Y-126548000D01*
X107201808Y-126547999D01*
X107201807Y-126548000D01*
X105805809Y-126547999D01*
X105805808Y-126548000D01*
X104661808Y-126547999D01*
X104661807Y-126548000D01*
X103062272Y-126547999D01*
X102986602Y-126644852D01*
X103049221Y-126896005D01*
X103052669Y-126906104D01*
X103149591Y-127126900D01*
X103154692Y-127136275D01*
X103287430Y-127337584D01*
X103294038Y-127345965D01*
X103458798Y-127522032D01*
X103466722Y-127529180D01*
X103658792Y-127674968D01*
X103667808Y-127680679D01*
X103684166Y-127689194D01*
X103683032Y-127689882D01*
X103488199Y-127831957D01*
X103480138Y-127838952D01*
X103312029Y-128011822D01*
X103305263Y-128020074D01*
X103168683Y-128218798D01*
X103163403Y-128228073D01*
X103062260Y-128446968D01*
X103058618Y-128457000D01*
X102995802Y-128689807D01*
X102993903Y-128700309D01*
X102971211Y-128940372D01*
X102971109Y-128951043D01*
X102989188Y-129191497D01*
X102990885Y-129202034D01*
X103049221Y-129436005D01*
X103052669Y-129446104D01*
X103149591Y-129666900D01*
X103154692Y-129676275D01*
X103287430Y-129877584D01*
X103294038Y-129885965D01*
X103458798Y-130062032D01*
X103466722Y-130069180D01*
X103549979Y-130132375D01*
X103314643Y-130321591D01*
X103305838Y-130330214D01*
X103107568Y-130566501D01*
X103100605Y-130576671D01*
X102952007Y-130846969D01*
X102947151Y-130858297D01*
X102853819Y-131152520D01*
X102851208Y-131165015D01*
X102824345Y-131420599D01*
X102824000Y-131427189D01*
X102824000Y-132612887D01*
X102816849Y-132678711D01*
X102816720Y-132691034D01*
X102824000Y-132774249D01*
X102824000Y-132779671D01*
X102824301Y-132785823D01*
X102830908Y-132853214D01*
X102843603Y-132998313D01*
X102845871Y-133010430D01*
X102846554Y-133012781D01*
X102846793Y-133015218D01*
X102849187Y-133027310D01*
X102891265Y-133166676D01*
X102931925Y-133306631D01*
X102936502Y-133318074D01*
X102937634Y-133320258D01*
X102938341Y-133322599D01*
X102943037Y-133333993D01*
X103011417Y-133462597D01*
X103078555Y-133592118D01*
X103085548Y-133602804D01*
X103086765Y-133604306D01*
X103087842Y-133606333D01*
X103094665Y-133616602D01*
X103289616Y-133855638D01*
X103298300Y-133864383D01*
X103358222Y-133913955D01*
X103810266Y-134366000D01*
X101327735Y-134366000D01*
X101327699Y-134365991D01*
X101318477Y-134364415D01*
X101307389Y-134363359D01*
X101307011Y-134363324D01*
X101142292Y-134348624D01*
X101037988Y-134320088D01*
X100940383Y-134273534D01*
X100852566Y-134210431D01*
X100777313Y-134132775D01*
X100716997Y-134043016D01*
X100673534Y-133944005D01*
X100647110Y-133833940D01*
X100637179Y-133698712D01*
X100635889Y-133689840D01*
X100634000Y-133681213D01*
X100634000Y-108134000D01*
X103059708Y-108134000D01*
X103058619Y-108137000D01*
X102984085Y-108413233D01*
X103059734Y-108512000D01*
X104258192Y-108512001D01*
X104258193Y-108512000D01*
X105654191Y-108512001D01*
X105654192Y-108512000D01*
X106798192Y-108512001D01*
X106798193Y-108512000D01*
X108392863Y-108512001D01*
X108468373Y-108422488D01*
X108442499Y-108271114D01*
X108439817Y-108260784D01*
X108395170Y-108134000D01*
X108756754Y-108134000D01*
X108770184Y-108132556D01*
X108998832Y-108082817D01*
X109019666Y-108074187D01*
X109158371Y-107985047D01*
X109171992Y-107973244D01*
X109278483Y-107850348D01*
X109288227Y-107835185D01*
X109355779Y-107687265D01*
X109360857Y-107669972D01*
X109383358Y-107513478D01*
X109384000Y-107504500D01*
X109384000Y-105134000D01*
X112616000Y-105134000D01*
X112616000Y-107506754D01*
G37*
D18*
X112616000Y-107506754D02*
X112617444Y-107520184D01*
X112667183Y-107748832D01*
X112675813Y-107769666D01*
X112764953Y-107908371D01*
X112776756Y-107921992D01*
X112899652Y-108028483D01*
X112914815Y-108038227D01*
X113062735Y-108105779D01*
X113080028Y-108110857D01*
X113236522Y-108133358D01*
X113245500Y-108134000D01*
X114408163Y-108134000D01*
X114408163Y-109264105D01*
X114366824Y-109270652D01*
X114347963Y-109276781D01*
X114302880Y-109299752D01*
X114254755Y-109315389D01*
X114237083Y-109324393D01*
X114196145Y-109354137D01*
X114151067Y-109377105D01*
X114135022Y-109388762D01*
X114092230Y-109431555D01*
X112684786Y-110839000D01*
X109905217Y-110839000D01*
X108611413Y-109545197D01*
X108611408Y-109545190D01*
X108454981Y-109388763D01*
X108438935Y-109377105D01*
X108393848Y-109354132D01*
X108352917Y-109324393D01*
X108335245Y-109315388D01*
X108325784Y-109312314D01*
X108343256Y-109282294D01*
X108347825Y-109272650D01*
X108432272Y-109046787D01*
X108435151Y-109036511D01*
X108468943Y-108859370D01*
X108393356Y-108768000D01*
X107201809Y-108767999D01*
X107128000Y-108841808D01*
X107127999Y-109243999D01*
X106872001Y-109243999D01*
X106872001Y-108841809D01*
X106798192Y-108768000D01*
X105805809Y-108767999D01*
X105805808Y-108768000D01*
X104661808Y-108767999D01*
X104661807Y-108768000D01*
X103062272Y-108767999D01*
X102986602Y-108864852D01*
X103049221Y-109116005D01*
X103052669Y-109126104D01*
X103149591Y-109346900D01*
X103154692Y-109356275D01*
X103287430Y-109557584D01*
X103294038Y-109565965D01*
X103458798Y-109742032D01*
X103466722Y-109749180D01*
X103658792Y-109894968D01*
X103667808Y-109900679D01*
X103684166Y-109909194D01*
X103683032Y-109909882D01*
X103488199Y-110051957D01*
X103480138Y-110058952D01*
X103312029Y-110231822D01*
X103305263Y-110240074D01*
X103168683Y-110438798D01*
X103163403Y-110448073D01*
X103062260Y-110666968D01*
X103058618Y-110677000D01*
X102995802Y-110909807D01*
X102993903Y-110920309D01*
X102971211Y-111160372D01*
X102971109Y-111171043D01*
X102989188Y-111411497D01*
X102990885Y-111422034D01*
X103049221Y-111656005D01*
X103052669Y-111666104D01*
X103149591Y-111886900D01*
X103154692Y-111896275D01*
X103287430Y-112097584D01*
X103294038Y-112105965D01*
X103458798Y-112282032D01*
X103466722Y-112289180D01*
X103658792Y-112434968D01*
X103667808Y-112440679D01*
X103684166Y-112449194D01*
X103683032Y-112449882D01*
X103488199Y-112591957D01*
X103480138Y-112598952D01*
X103312029Y-112771822D01*
X103305263Y-112780074D01*
X103168683Y-112978798D01*
X103163403Y-112988073D01*
X103062260Y-113206968D01*
X103058618Y-113217000D01*
X102995802Y-113449807D01*
X102993903Y-113460309D01*
X102971211Y-113700372D01*
X102971109Y-113711043D01*
X102989188Y-113951497D01*
X102990885Y-113962034D01*
X103049221Y-114196005D01*
X103052669Y-114206104D01*
X103149591Y-114426900D01*
X103154692Y-114436275D01*
X103287430Y-114637584D01*
X103294038Y-114645965D01*
X103458798Y-114822032D01*
X103466722Y-114829180D01*
X103658792Y-114974968D01*
X103667808Y-114980679D01*
X103684166Y-114989194D01*
X103683032Y-114989882D01*
X103488199Y-115131957D01*
X103480138Y-115138952D01*
X103312029Y-115311822D01*
X103305263Y-115320074D01*
X103168683Y-115518798D01*
X103163403Y-115528073D01*
X103062260Y-115746968D01*
X103058618Y-115757000D01*
X102995802Y-115989807D01*
X102993903Y-116000309D01*
X102971211Y-116240372D01*
X102971109Y-116251043D01*
X102989188Y-116491497D01*
X102990885Y-116502034D01*
X103049221Y-116736005D01*
X103052669Y-116746104D01*
X103149591Y-116966900D01*
X103154692Y-116976275D01*
X103287430Y-117177584D01*
X103294038Y-117185965D01*
X103458798Y-117362032D01*
X103466722Y-117369180D01*
X103658792Y-117514968D01*
X103667808Y-117520679D01*
X103684166Y-117529194D01*
X103683032Y-117529882D01*
X103488199Y-117671957D01*
X103480138Y-117678952D01*
X103312029Y-117851822D01*
X103305263Y-117860074D01*
X103168683Y-118058798D01*
X103163403Y-118068073D01*
X103062260Y-118286968D01*
X103058618Y-118297000D01*
X102995802Y-118529807D01*
X102993903Y-118540309D01*
X102971211Y-118780372D01*
X102971109Y-118791043D01*
X102989188Y-119031497D01*
X102990885Y-119042034D01*
X103049221Y-119276005D01*
X103052669Y-119286104D01*
X103149591Y-119506900D01*
X103154692Y-119516275D01*
X103287430Y-119717584D01*
X103294038Y-119725965D01*
X103458798Y-119902032D01*
X103466722Y-119909180D01*
X103658792Y-120054968D01*
X103667808Y-120060679D01*
X103684166Y-120069194D01*
X103683032Y-120069882D01*
X103488199Y-120211957D01*
X103480138Y-120218952D01*
X103312029Y-120391822D01*
X103305263Y-120400074D01*
X103168683Y-120598798D01*
X103163403Y-120608073D01*
X103062260Y-120826968D01*
X103058618Y-120837000D01*
X102995802Y-121069807D01*
X102993903Y-121080309D01*
X102971211Y-121320372D01*
X102971109Y-121331043D01*
X102989188Y-121571497D01*
X102990885Y-121582034D01*
X103049221Y-121816005D01*
X103052669Y-121826104D01*
X103149591Y-122046900D01*
X103154692Y-122056275D01*
X103287430Y-122257584D01*
X103294038Y-122265965D01*
X103458798Y-122442032D01*
X103466722Y-122449180D01*
X103658792Y-122594968D01*
X103667808Y-122600679D01*
X103684166Y-122609194D01*
X103683032Y-122609882D01*
X103488199Y-122751957D01*
X103480138Y-122758952D01*
X103312029Y-122931822D01*
X103305263Y-122940074D01*
X103168683Y-123138798D01*
X103163403Y-123148073D01*
X103062260Y-123366968D01*
X103058618Y-123377000D01*
X102995802Y-123609807D01*
X102993903Y-123620309D01*
X102971211Y-123860372D01*
X102971109Y-123871043D01*
X102989188Y-124111497D01*
X102990885Y-124122034D01*
X103049221Y-124356005D01*
X103052669Y-124366104D01*
X103149591Y-124586900D01*
X103154692Y-124596275D01*
X103287430Y-124797584D01*
X103294038Y-124805965D01*
X103458798Y-124982032D01*
X103466722Y-124989180D01*
X103658792Y-125134968D01*
X103667808Y-125140679D01*
X103684166Y-125149194D01*
X103683032Y-125149882D01*
X103488199Y-125291957D01*
X103480138Y-125298952D01*
X103312029Y-125471822D01*
X103305263Y-125480074D01*
X103168683Y-125678798D01*
X103163403Y-125688073D01*
X103062260Y-125906968D01*
X103058619Y-125917000D01*
X102984085Y-126193233D01*
X103059734Y-126292000D01*
X104258192Y-126292001D01*
X104258193Y-126292000D01*
X105654191Y-126292001D01*
X105654192Y-126292000D01*
X106798192Y-126292001D01*
X106798193Y-126292000D01*
X108392863Y-126292001D01*
X108468373Y-126202488D01*
X108442499Y-126051114D01*
X108439817Y-126040784D01*
X108359723Y-125813343D01*
X108355339Y-125803612D01*
X108238067Y-125592916D01*
X108232107Y-125584064D01*
X108081013Y-125396140D01*
X108073647Y-125388417D01*
X107893049Y-125228638D01*
X107884486Y-125222267D01*
X107767888Y-125149973D01*
X107861330Y-125094491D01*
X107870012Y-125088286D01*
X108053645Y-124932004D01*
X108061158Y-124924424D01*
X108215833Y-124739435D01*
X108221962Y-124730698D01*
X108343256Y-124522294D01*
X108347825Y-124512650D01*
X108432272Y-124286787D01*
X108435151Y-124276511D01*
X108480392Y-124039351D01*
X108481507Y-124028128D01*
X108484077Y-123760341D01*
X108483178Y-123749099D01*
X108442499Y-123511114D01*
X108439817Y-123500784D01*
X108359723Y-123273343D01*
X108355339Y-123263612D01*
X108238067Y-123052916D01*
X108232107Y-123044064D01*
X108081013Y-122856140D01*
X108073647Y-122848417D01*
X107893049Y-122688638D01*
X107884486Y-122682267D01*
X107767888Y-122609973D01*
X107861330Y-122554491D01*
X107870012Y-122548286D01*
X108053645Y-122392004D01*
X108061158Y-122384424D01*
X108215833Y-122199435D01*
X108221962Y-122190698D01*
X108343256Y-121982294D01*
X108347825Y-121972650D01*
X108432272Y-121746787D01*
X108435151Y-121736511D01*
X108468943Y-121559370D01*
X108393356Y-121468000D01*
X107201808Y-121467999D01*
X107201807Y-121468000D01*
X106872000Y-121467999D01*
X106872001Y-120145809D01*
X106872000Y-120145808D01*
X106872000Y-119994191D01*
X107127999Y-119994191D01*
X107128000Y-119994192D01*
X107127999Y-121138191D01*
X107201808Y-121212000D01*
X108392863Y-121212001D01*
X108468373Y-121122488D01*
X108442499Y-120971114D01*
X108439817Y-120960784D01*
X108359723Y-120733343D01*
X108355339Y-120723612D01*
X108238067Y-120512916D01*
X108232107Y-120504064D01*
X108081013Y-120316140D01*
X108073647Y-120308417D01*
X107893049Y-120148638D01*
X107884486Y-120142267D01*
X107767888Y-120069973D01*
X107861330Y-120014491D01*
X107870012Y-120008286D01*
X108053645Y-119852004D01*
X108061158Y-119844424D01*
X108215833Y-119659435D01*
X108221962Y-119650698D01*
X108343256Y-119442294D01*
X108347825Y-119432650D01*
X108432272Y-119206787D01*
X108435151Y-119196511D01*
X108468943Y-119019370D01*
X108393356Y-118928000D01*
X107201809Y-118927999D01*
X107128000Y-119001808D01*
X107127999Y-119994191D01*
X106872000Y-119994191D01*
X106872001Y-119001808D01*
X106872000Y-119001807D01*
X106872001Y-117605809D01*
X106872000Y-117605808D01*
X106872000Y-117454191D01*
X107127999Y-117454191D01*
X107128000Y-117454192D01*
X107127999Y-118598191D01*
X107201808Y-118672000D01*
X108392863Y-118672001D01*
X108468373Y-118582488D01*
X108442499Y-118431114D01*
X108439817Y-118420784D01*
X108359723Y-118193343D01*
X108355339Y-118183612D01*
X108238067Y-117972916D01*
X108232107Y-117964064D01*
X108081013Y-117776140D01*
X108073647Y-117768417D01*
X107893049Y-117608638D01*
X107884486Y-117602267D01*
X107767888Y-117529973D01*
X107861330Y-117474491D01*
X107870012Y-117468286D01*
X108053645Y-117312004D01*
X108061158Y-117304424D01*
X108215833Y-117119435D01*
X108221962Y-117110698D01*
X108343256Y-116902294D01*
X108347825Y-116892650D01*
X108432272Y-116666787D01*
X108435151Y-116656511D01*
X108468943Y-116479370D01*
X108393356Y-116388000D01*
X107201809Y-116387999D01*
X107128000Y-116461808D01*
X107127999Y-117454191D01*
X106872000Y-117454191D01*
X106872001Y-116461808D01*
X106872000Y-116461807D01*
X106872001Y-115065809D01*
X106872000Y-115065808D01*
X106872000Y-114914191D01*
X107127999Y-114914191D01*
X107128000Y-114914192D01*
X107127999Y-116058191D01*
X107201808Y-116132000D01*
X108392863Y-116132001D01*
X108468373Y-116042488D01*
X108442499Y-115891114D01*
X108439817Y-115880784D01*
X108359723Y-115653343D01*
X108355339Y-115643612D01*
X108238067Y-115432916D01*
X108232107Y-115424064D01*
X108081013Y-115236140D01*
X108073647Y-115228417D01*
X107893049Y-115068638D01*
X107884486Y-115062267D01*
X107767888Y-114989973D01*
X107861330Y-114934491D01*
X107870012Y-114928286D01*
X108053645Y-114772004D01*
X108061158Y-114764424D01*
X108215833Y-114579435D01*
X108221962Y-114570698D01*
X108343256Y-114362294D01*
X108347825Y-114352650D01*
X108432272Y-114126787D01*
X108435151Y-114116511D01*
X108468943Y-113939370D01*
X108393356Y-113848000D01*
X107201809Y-113847999D01*
X107128000Y-113921808D01*
X107127999Y-114914191D01*
X106872000Y-114914191D01*
X106872001Y-113921808D01*
X106872000Y-113921807D01*
X106872001Y-113305999D01*
X107127999Y-113305999D01*
X107127999Y-113518191D01*
X107201808Y-113592000D01*
X108392863Y-113592001D01*
X108468373Y-113502488D01*
X108442499Y-113351114D01*
X108439817Y-113340784D01*
X108427567Y-113305999D01*
X114512102Y-113305999D01*
X114499667Y-113332665D01*
X114495904Y-113343004D01*
X114426129Y-113603408D01*
X114501782Y-113702000D01*
X116378000Y-113702000D01*
X116378000Y-113958000D01*
X114501782Y-113958000D01*
X114426129Y-114056592D01*
X114495904Y-114316996D01*
X114499667Y-114327335D01*
X114601042Y-114544734D01*
X114606543Y-114554262D01*
X114744129Y-114750755D01*
X114751202Y-114759183D01*
X114874420Y-114882401D01*
X114801042Y-114921417D01*
X114671521Y-114988555D01*
X114660835Y-114995548D01*
X114659333Y-114996765D01*
X114657306Y-114997842D01*
X114647037Y-115004665D01*
X114408002Y-115199616D01*
X114399256Y-115208300D01*
X114349684Y-115268223D01*
X112756242Y-116861665D01*
X112704633Y-116903160D01*
X112695828Y-116911783D01*
X112642132Y-116975774D01*
X112638298Y-116979608D01*
X112634161Y-116984171D01*
X112591121Y-117036569D01*
X112497558Y-117148070D01*
X112490595Y-117158240D01*
X112489412Y-117160392D01*
X112487856Y-117162286D01*
X112481001Y-117172527D01*
X112412230Y-117300784D01*
X112341998Y-117428538D01*
X112337143Y-117439864D01*
X112336399Y-117442209D01*
X112335241Y-117444369D01*
X112330506Y-117455745D01*
X112287950Y-117594942D01*
X112243810Y-117734089D01*
X112241199Y-117746588D01*
X112240996Y-117748519D01*
X112240325Y-117750714D01*
X112237888Y-117762797D01*
X112206715Y-118069670D01*
X112206672Y-118081995D01*
X112213991Y-118159421D01*
X112213990Y-126923152D01*
X112183499Y-126897567D01*
X112173329Y-126890604D01*
X111903031Y-126742007D01*
X111891702Y-126737151D01*
X111597480Y-126643819D01*
X111584985Y-126641208D01*
X111329401Y-126614345D01*
X111322811Y-126614000D01*
X108589201Y-126614000D01*
X108523371Y-126606848D01*
X108511046Y-126606719D01*
X108446597Y-126612357D01*
X108393356Y-126548000D01*
X107201808Y-126547999D01*
X107201807Y-126548000D01*
X105805809Y-126547999D01*
X105805808Y-126548000D01*
X104661808Y-126547999D01*
X104661807Y-126548000D01*
X103062272Y-126547999D01*
X102986602Y-126644852D01*
X103049221Y-126896005D01*
X103052669Y-126906104D01*
X103149591Y-127126900D01*
X103154692Y-127136275D01*
X103287430Y-127337584D01*
X103294038Y-127345965D01*
X103458798Y-127522032D01*
X103466722Y-127529180D01*
X103658792Y-127674968D01*
X103667808Y-127680679D01*
X103684166Y-127689194D01*
X103683032Y-127689882D01*
X103488199Y-127831957D01*
X103480138Y-127838952D01*
X103312029Y-128011822D01*
X103305263Y-128020074D01*
X103168683Y-128218798D01*
X103163403Y-128228073D01*
X103062260Y-128446968D01*
X103058618Y-128457000D01*
X102995802Y-128689807D01*
X102993903Y-128700309D01*
X102971211Y-128940372D01*
X102971109Y-128951043D01*
X102989188Y-129191497D01*
X102990885Y-129202034D01*
X103049221Y-129436005D01*
X103052669Y-129446104D01*
X103149591Y-129666900D01*
X103154692Y-129676275D01*
X103287430Y-129877584D01*
X103294038Y-129885965D01*
X103458798Y-130062032D01*
X103466722Y-130069180D01*
X103549979Y-130132375D01*
X103314643Y-130321591D01*
X103305838Y-130330214D01*
X103107568Y-130566501D01*
X103100605Y-130576671D01*
X102952007Y-130846969D01*
X102947151Y-130858297D01*
X102853819Y-131152520D01*
X102851208Y-131165015D01*
X102824345Y-131420599D01*
X102824000Y-131427189D01*
X102824000Y-132612887D01*
X102816849Y-132678711D01*
X102816720Y-132691034D01*
X102824000Y-132774249D01*
X102824000Y-132779671D01*
X102824301Y-132785823D01*
X102830908Y-132853214D01*
X102843603Y-132998313D01*
X102845871Y-133010430D01*
X102846554Y-133012781D01*
X102846793Y-133015218D01*
X102849187Y-133027310D01*
X102891265Y-133166676D01*
X102931925Y-133306631D01*
X102936502Y-133318074D01*
X102937634Y-133320258D01*
X102938341Y-133322599D01*
X102943037Y-133333993D01*
X103011417Y-133462597D01*
X103078555Y-133592118D01*
X103085548Y-133602804D01*
X103086765Y-133604306D01*
X103087842Y-133606333D01*
X103094665Y-133616602D01*
X103289616Y-133855638D01*
X103298300Y-133864383D01*
X103358222Y-133913955D01*
X103810266Y-134366000D01*
X101327735Y-134366000D01*
X101327699Y-134365991D01*
X101318477Y-134364415D01*
X101307389Y-134363359D01*
X101307011Y-134363324D01*
X101142292Y-134348624D01*
X101037988Y-134320088D01*
X100940383Y-134273534D01*
X100852566Y-134210431D01*
X100777313Y-134132775D01*
X100716997Y-134043016D01*
X100673534Y-133944005D01*
X100647110Y-133833940D01*
X100637179Y-133698712D01*
X100635889Y-133689840D01*
X100634000Y-133681213D01*
X100634000Y-108134000D01*
X103059708Y-108134000D01*
X103058619Y-108137000D01*
X102984085Y-108413233D01*
X103059734Y-108512000D01*
X104258192Y-108512001D01*
X104258193Y-108512000D01*
X105654191Y-108512001D01*
X105654192Y-108512000D01*
X106798192Y-108512001D01*
X106798193Y-108512000D01*
X108392863Y-108512001D01*
X108468373Y-108422488D01*
X108442499Y-108271114D01*
X108439817Y-108260784D01*
X108395170Y-108134000D01*
X108756754Y-108134000D01*
X108770184Y-108132556D01*
X108998832Y-108082817D01*
X109019666Y-108074187D01*
X109158371Y-107985047D01*
X109171992Y-107973244D01*
X109278483Y-107850348D01*
X109288227Y-107835185D01*
X109355779Y-107687265D01*
X109360857Y-107669972D01*
X109383358Y-107513478D01*
X109384000Y-107504500D01*
X109384000Y-105134000D01*
X112616000Y-105134000D01*
X112616000Y-107506754D01*
G36*
X118239000Y-114904213D02*
G01*
X118239001Y-128544783D01*
X118045660Y-128738124D01*
X118004096Y-128583004D01*
X118000333Y-128572665D01*
X117898958Y-128355266D01*
X117893457Y-128345738D01*
X117755871Y-128149245D01*
X117748798Y-128140817D01*
X117579183Y-127971202D01*
X117570755Y-127964129D01*
X117374262Y-127826543D01*
X117364734Y-127821042D01*
X117319609Y-127800000D01*
X117364734Y-127778958D01*
X117374262Y-127773457D01*
X117570755Y-127635871D01*
X117579183Y-127628798D01*
X117748798Y-127459183D01*
X117755871Y-127450755D01*
X117893457Y-127254262D01*
X117898958Y-127244734D01*
X118000333Y-127027335D01*
X118004096Y-127016996D01*
X118073871Y-126756592D01*
X117998218Y-126658000D01*
X116122000Y-126658000D01*
X116122000Y-126402000D01*
X117998218Y-126402000D01*
X118073871Y-126303408D01*
X118004096Y-126043004D01*
X118000333Y-126032665D01*
X117898958Y-125815266D01*
X117893457Y-125805738D01*
X117755871Y-125609245D01*
X117748798Y-125600817D01*
X117579183Y-125431202D01*
X117570755Y-125424129D01*
X117374262Y-125286543D01*
X117364734Y-125281042D01*
X117319609Y-125260000D01*
X117364734Y-125238958D01*
X117374262Y-125233457D01*
X117570755Y-125095871D01*
X117579183Y-125088798D01*
X117748798Y-124919183D01*
X117755871Y-124910755D01*
X117893457Y-124714262D01*
X117898958Y-124704734D01*
X118000333Y-124487335D01*
X118004096Y-124476996D01*
X118066180Y-124245296D01*
X118068090Y-124234461D01*
X118088996Y-123995501D01*
X118088996Y-123984499D01*
X118068090Y-123745539D01*
X118066180Y-123734704D01*
X118004096Y-123503004D01*
X118000333Y-123492665D01*
X117898958Y-123275266D01*
X117893457Y-123265738D01*
X117755871Y-123069245D01*
X117748798Y-123060817D01*
X117579183Y-122891202D01*
X117570755Y-122884129D01*
X117374262Y-122746543D01*
X117364734Y-122741042D01*
X117319609Y-122720000D01*
X117364734Y-122698958D01*
X117374262Y-122693457D01*
X117570755Y-122555871D01*
X117579183Y-122548798D01*
X117748798Y-122379183D01*
X117755871Y-122370755D01*
X117893457Y-122174262D01*
X117898958Y-122164734D01*
X118000333Y-121947335D01*
X118004096Y-121936996D01*
X118073871Y-121676592D01*
X117998218Y-121578000D01*
X116122000Y-121578000D01*
X116122000Y-119111809D01*
X116378000Y-119111809D01*
X116378000Y-121248191D01*
X116451809Y-121322000D01*
X117998218Y-121322000D01*
X118073871Y-121223408D01*
X118004096Y-120963004D01*
X118000333Y-120952665D01*
X117898958Y-120735266D01*
X117893457Y-120725738D01*
X117755871Y-120529245D01*
X117748798Y-120520817D01*
X117579183Y-120351202D01*
X117570755Y-120344129D01*
X117374262Y-120206543D01*
X117364734Y-120201042D01*
X117319609Y-120180000D01*
X117364734Y-120158958D01*
X117374262Y-120153457D01*
X117570755Y-120015871D01*
X117579183Y-120008798D01*
X117748798Y-119839183D01*
X117755871Y-119830755D01*
X117893457Y-119634262D01*
X117898958Y-119624734D01*
X118000333Y-119407335D01*
X118004096Y-119396996D01*
X118073871Y-119136592D01*
X117998218Y-119038000D01*
X116451809Y-119038000D01*
X116378000Y-119111809D01*
X116122000Y-119111809D01*
X116122000Y-118782000D01*
X117998218Y-118782000D01*
X118073871Y-118683408D01*
X118004096Y-118423004D01*
X118000333Y-118412665D01*
X117898958Y-118195266D01*
X117893457Y-118185738D01*
X117755871Y-117989245D01*
X117748798Y-117980817D01*
X117579183Y-117811202D01*
X117570755Y-117804129D01*
X117374262Y-117666543D01*
X117364734Y-117661042D01*
X117319609Y-117640000D01*
X117364734Y-117618958D01*
X117374262Y-117613456D01*
X117570755Y-117475871D01*
X117579183Y-117468798D01*
X117748798Y-117299183D01*
X117755871Y-117290755D01*
X117893457Y-117094262D01*
X117898958Y-117084734D01*
X118000333Y-116867335D01*
X118004096Y-116856996D01*
X118066180Y-116625296D01*
X118068090Y-116614461D01*
X118088996Y-116375501D01*
X118088996Y-116364499D01*
X118068090Y-116125539D01*
X118066180Y-116114704D01*
X118004096Y-115883004D01*
X118000333Y-115872665D01*
X117898958Y-115655266D01*
X117893457Y-115645738D01*
X117755871Y-115449245D01*
X117748798Y-115440817D01*
X117579183Y-115271202D01*
X117570755Y-115264129D01*
X117374262Y-115126543D01*
X117364734Y-115121042D01*
X117319609Y-115100000D01*
X117364734Y-115078958D01*
X117374262Y-115073457D01*
X117570755Y-114935871D01*
X117579183Y-114928798D01*
X117748798Y-114759183D01*
X117755871Y-114750755D01*
X117891642Y-114556854D01*
X118239000Y-114904213D01*
G37*
X118239000Y-114904213D02*
X118239001Y-128544783D01*
X118045660Y-128738124D01*
X118004096Y-128583004D01*
X118000333Y-128572665D01*
X117898958Y-128355266D01*
X117893457Y-128345738D01*
X117755871Y-128149245D01*
X117748798Y-128140817D01*
X117579183Y-127971202D01*
X117570755Y-127964129D01*
X117374262Y-127826543D01*
X117364734Y-127821042D01*
X117319609Y-127800000D01*
X117364734Y-127778958D01*
X117374262Y-127773457D01*
X117570755Y-127635871D01*
X117579183Y-127628798D01*
X117748798Y-127459183D01*
X117755871Y-127450755D01*
X117893457Y-127254262D01*
X117898958Y-127244734D01*
X118000333Y-127027335D01*
X118004096Y-127016996D01*
X118073871Y-126756592D01*
X117998218Y-126658000D01*
X116122000Y-126658000D01*
X116122000Y-126402000D01*
X117998218Y-126402000D01*
X118073871Y-126303408D01*
X118004096Y-126043004D01*
X118000333Y-126032665D01*
X117898958Y-125815266D01*
X117893457Y-125805738D01*
X117755871Y-125609245D01*
X117748798Y-125600817D01*
X117579183Y-125431202D01*
X117570755Y-125424129D01*
X117374262Y-125286543D01*
X117364734Y-125281042D01*
X117319609Y-125260000D01*
X117364734Y-125238958D01*
X117374262Y-125233457D01*
X117570755Y-125095871D01*
X117579183Y-125088798D01*
X117748798Y-124919183D01*
X117755871Y-124910755D01*
X117893457Y-124714262D01*
X117898958Y-124704734D01*
X118000333Y-124487335D01*
X118004096Y-124476996D01*
X118066180Y-124245296D01*
X118068090Y-124234461D01*
X118088996Y-123995501D01*
X118088996Y-123984499D01*
X118068090Y-123745539D01*
X118066180Y-123734704D01*
X118004096Y-123503004D01*
X118000333Y-123492665D01*
X117898958Y-123275266D01*
X117893457Y-123265738D01*
X117755871Y-123069245D01*
X117748798Y-123060817D01*
X117579183Y-122891202D01*
X117570755Y-122884129D01*
X117374262Y-122746543D01*
X117364734Y-122741042D01*
X117319609Y-122720000D01*
X117364734Y-122698958D01*
X117374262Y-122693457D01*
X117570755Y-122555871D01*
X117579183Y-122548798D01*
X117748798Y-122379183D01*
X117755871Y-122370755D01*
X117893457Y-122174262D01*
X117898958Y-122164734D01*
X118000333Y-121947335D01*
X118004096Y-121936996D01*
X118073871Y-121676592D01*
X117998218Y-121578000D01*
X116122000Y-121578000D01*
X116122000Y-119111809D01*
X116378000Y-119111809D01*
X116378000Y-121248191D01*
X116451809Y-121322000D01*
X117998218Y-121322000D01*
X118073871Y-121223408D01*
X118004096Y-120963004D01*
X118000333Y-120952665D01*
X117898958Y-120735266D01*
X117893457Y-120725738D01*
X117755871Y-120529245D01*
X117748798Y-120520817D01*
X117579183Y-120351202D01*
X117570755Y-120344129D01*
X117374262Y-120206543D01*
X117364734Y-120201042D01*
X117319609Y-120180000D01*
X117364734Y-120158958D01*
X117374262Y-120153457D01*
X117570755Y-120015871D01*
X117579183Y-120008798D01*
X117748798Y-119839183D01*
X117755871Y-119830755D01*
X117893457Y-119634262D01*
X117898958Y-119624734D01*
X118000333Y-119407335D01*
X118004096Y-119396996D01*
X118073871Y-119136592D01*
X117998218Y-119038000D01*
X116451809Y-119038000D01*
X116378000Y-119111809D01*
X116122000Y-119111809D01*
X116122000Y-118782000D01*
X117998218Y-118782000D01*
X118073871Y-118683408D01*
X118004096Y-118423004D01*
X118000333Y-118412665D01*
X117898958Y-118195266D01*
X117893457Y-118185738D01*
X117755871Y-117989245D01*
X117748798Y-117980817D01*
X117579183Y-117811202D01*
X117570755Y-117804129D01*
X117374262Y-117666543D01*
X117364734Y-117661042D01*
X117319609Y-117640000D01*
X117364734Y-117618958D01*
X117374262Y-117613456D01*
X117570755Y-117475871D01*
X117579183Y-117468798D01*
X117748798Y-117299183D01*
X117755871Y-117290755D01*
X117893457Y-117094262D01*
X117898958Y-117084734D01*
X118000333Y-116867335D01*
X118004096Y-116856996D01*
X118066180Y-116625296D01*
X118068090Y-116614461D01*
X118088996Y-116375501D01*
X118088996Y-116364499D01*
X118068090Y-116125539D01*
X118066180Y-116114704D01*
X118004096Y-115883004D01*
X118000333Y-115872665D01*
X117898958Y-115655266D01*
X117893457Y-115645738D01*
X117755871Y-115449245D01*
X117748798Y-115440817D01*
X117579183Y-115271202D01*
X117570755Y-115264129D01*
X117374262Y-115126543D01*
X117364734Y-115121042D01*
X117319609Y-115100000D01*
X117364734Y-115078958D01*
X117374262Y-115073457D01*
X117570755Y-114935871D01*
X117579183Y-114928798D01*
X117748798Y-114759183D01*
X117755871Y-114750755D01*
X117891642Y-114556854D01*
X118239000Y-114904213D01*
G36*
X107127999Y-110978192D02*
G01*
X107128000Y-110978193D01*
X107127999Y-111783999D01*
X106872001Y-111783999D01*
X106872001Y-111381808D01*
X106872000Y-111381807D01*
X106872001Y-110765999D01*
X107127999Y-110765999D01*
X107127999Y-110978192D01*
G37*
X107127999Y-110978192D02*
X107128000Y-110978193D01*
X107127999Y-111783999D01*
X106872001Y-111783999D01*
X106872001Y-111381808D01*
X106872000Y-111381807D01*
X106872001Y-110765999D01*
X107127999Y-110765999D01*
X107127999Y-110978192D01*
%TO.N,+12V*%
G36*
X128874000Y-105374000D02*
G01*
X127447651Y-105374000D01*
X127439610Y-105349252D01*
X127430606Y-105331580D01*
X127400862Y-105290642D01*
X127377894Y-105245564D01*
X127366237Y-105229519D01*
X127216991Y-105080274D01*
X126926914Y-104790198D01*
X126926909Y-104790191D01*
X126770482Y-104633764D01*
X126754436Y-104622106D01*
X126709349Y-104599133D01*
X126668418Y-104569394D01*
X126650746Y-104560389D01*
X126602628Y-104544755D01*
X126557541Y-104521782D01*
X126538678Y-104515653D01*
X126488695Y-104507737D01*
X126440580Y-104492103D01*
X126420991Y-104489001D01*
X126365693Y-104489001D01*
X126365681Y-104489000D01*
X125065216Y-104489000D01*
X124536000Y-103959785D01*
X124536000Y-103871938D01*
X124533844Y-103855562D01*
X124467554Y-103608165D01*
X124461233Y-103592905D01*
X124333171Y-103371095D01*
X124323116Y-103357991D01*
X124142009Y-103176884D01*
X124128905Y-103166829D01*
X123907095Y-103038767D01*
X123891835Y-103032446D01*
X123644438Y-102966156D01*
X123628062Y-102964000D01*
X123371938Y-102964000D01*
X123355562Y-102966156D01*
X123108165Y-103032446D01*
X123092905Y-103038767D01*
X122871095Y-103166829D01*
X122857991Y-103176884D01*
X122795876Y-103239000D01*
X121454124Y-103239000D01*
X121392009Y-103176884D01*
X121378905Y-103166829D01*
X121157095Y-103038767D01*
X121141835Y-103032446D01*
X120894438Y-102966156D01*
X120878062Y-102964000D01*
X120621938Y-102964000D01*
X120605562Y-102966156D01*
X120358165Y-103032446D01*
X120342905Y-103038767D01*
X120121095Y-103166829D01*
X120107991Y-103176884D01*
X119926884Y-103357991D01*
X119916829Y-103371095D01*
X119788767Y-103592905D01*
X119782446Y-103608165D01*
X119716156Y-103855562D01*
X119714000Y-103871938D01*
X119714000Y-104128062D01*
X119716156Y-104144438D01*
X119782446Y-104391835D01*
X119788767Y-104407095D01*
X119916829Y-104628905D01*
X119926884Y-104642009D01*
X120107991Y-104823116D01*
X120121095Y-104833171D01*
X120342905Y-104961233D01*
X120358165Y-104967554D01*
X120605562Y-105033844D01*
X120621938Y-105036000D01*
X120878062Y-105036000D01*
X120894438Y-105033844D01*
X121141835Y-104967554D01*
X121157095Y-104961233D01*
X121378905Y-104833171D01*
X121392009Y-104823116D01*
X121454124Y-104761000D01*
X122795876Y-104761000D01*
X122857991Y-104823116D01*
X122871095Y-104833171D01*
X123092905Y-104961233D01*
X123108165Y-104967554D01*
X123355562Y-105033844D01*
X123371938Y-105036000D01*
X123459785Y-105036000D01*
X124140775Y-105716991D01*
X124290021Y-105866237D01*
X124306066Y-105877894D01*
X124351144Y-105900862D01*
X124392082Y-105930606D01*
X124409754Y-105939610D01*
X124457879Y-105955247D01*
X124502962Y-105978218D01*
X124521823Y-105984347D01*
X124571808Y-105992264D01*
X124619922Y-106007897D01*
X124639510Y-106010999D01*
X124694809Y-106010999D01*
X124694821Y-106011000D01*
X124951500Y-106011000D01*
X124951500Y-106128062D01*
X124953656Y-106144438D01*
X125019946Y-106391835D01*
X125026267Y-106407095D01*
X125154329Y-106628905D01*
X125164384Y-106642009D01*
X125345491Y-106823116D01*
X125358595Y-106833171D01*
X125489001Y-106908461D01*
X125489001Y-107990811D01*
X125375871Y-107829245D01*
X125368798Y-107820817D01*
X125199183Y-107651202D01*
X125190755Y-107644129D01*
X124994262Y-107506543D01*
X124984734Y-107501042D01*
X124767335Y-107399667D01*
X124756996Y-107395904D01*
X124525296Y-107333820D01*
X124514461Y-107331910D01*
X124335348Y-107316240D01*
X124329854Y-107316000D01*
X123410146Y-107316000D01*
X123404652Y-107316240D01*
X123225539Y-107331910D01*
X123214704Y-107333820D01*
X122983004Y-107395904D01*
X122972665Y-107399667D01*
X122755266Y-107501042D01*
X122745738Y-107506543D01*
X122549245Y-107644129D01*
X122540817Y-107651202D01*
X122371202Y-107820817D01*
X122364129Y-107829245D01*
X122226543Y-108025738D01*
X122221042Y-108035266D01*
X122119667Y-108252665D01*
X122115904Y-108263004D01*
X122053820Y-108494704D01*
X122051910Y-108505539D01*
X122031004Y-108744499D01*
X122031004Y-108755501D01*
X122051910Y-108994461D01*
X122053820Y-109005296D01*
X122115904Y-109236996D01*
X122119667Y-109247335D01*
X122221042Y-109464734D01*
X122226543Y-109474262D01*
X122364129Y-109670755D01*
X122371202Y-109679183D01*
X122540817Y-109848798D01*
X122549245Y-109855871D01*
X122745738Y-109993457D01*
X122755266Y-109998958D01*
X122800391Y-110020000D01*
X122755266Y-110041042D01*
X122745738Y-110046543D01*
X122549245Y-110184129D01*
X122540817Y-110191202D01*
X122371202Y-110360817D01*
X122364129Y-110369245D01*
X122226543Y-110565738D01*
X122221042Y-110575266D01*
X122119667Y-110792665D01*
X122115904Y-110803004D01*
X122053820Y-111034704D01*
X122051910Y-111045539D01*
X122031004Y-111284499D01*
X122031004Y-111295501D01*
X122051910Y-111534461D01*
X122053820Y-111545296D01*
X122115904Y-111776996D01*
X122119667Y-111787335D01*
X122221042Y-112004734D01*
X122226543Y-112014262D01*
X122364129Y-112210755D01*
X122371202Y-112219183D01*
X122540817Y-112388798D01*
X122549245Y-112395871D01*
X122745738Y-112533457D01*
X122755266Y-112538958D01*
X122800391Y-112560000D01*
X122755266Y-112581042D01*
X122745738Y-112586544D01*
X122549245Y-112724129D01*
X122540817Y-112731202D01*
X122371202Y-112900817D01*
X122364129Y-112909245D01*
X122226543Y-113105738D01*
X122221042Y-113115266D01*
X122119667Y-113332665D01*
X122115904Y-113343004D01*
X122053820Y-113574704D01*
X122051910Y-113585539D01*
X122031004Y-113824499D01*
X122031004Y-113835501D01*
X122051910Y-114074461D01*
X122053820Y-114085296D01*
X122115904Y-114316996D01*
X122119667Y-114327335D01*
X122221042Y-114544734D01*
X122226543Y-114554262D01*
X122364129Y-114750755D01*
X122371202Y-114759183D01*
X122540817Y-114928798D01*
X122549245Y-114935871D01*
X122745738Y-115073457D01*
X122755266Y-115078958D01*
X122885633Y-115139750D01*
X122936502Y-115182433D01*
X122946671Y-115189396D01*
X123216969Y-115337993D01*
X123228298Y-115342849D01*
X123522520Y-115436181D01*
X123535015Y-115438792D01*
X123790599Y-115465655D01*
X123797189Y-115466000D01*
X123880789Y-115466000D01*
X124634010Y-116219221D01*
X124634010Y-117522950D01*
X124525296Y-117493820D01*
X124514461Y-117491910D01*
X124335348Y-117476240D01*
X124329854Y-117476000D01*
X123410146Y-117476000D01*
X123404652Y-117476240D01*
X123225539Y-117491910D01*
X123214704Y-117493820D01*
X122983004Y-117555904D01*
X122972665Y-117559667D01*
X122755266Y-117661042D01*
X122745738Y-117666543D01*
X122549245Y-117804129D01*
X122540817Y-117811202D01*
X122371202Y-117980817D01*
X122364129Y-117989245D01*
X122226543Y-118185738D01*
X122221042Y-118195266D01*
X122119667Y-118412665D01*
X122115904Y-118423004D01*
X122053820Y-118654704D01*
X122051910Y-118665539D01*
X122031004Y-118904499D01*
X122031004Y-118915501D01*
X122051910Y-119154461D01*
X122053820Y-119165296D01*
X122115904Y-119396996D01*
X122119667Y-119407335D01*
X122221042Y-119624734D01*
X122226543Y-119634262D01*
X122364129Y-119830755D01*
X122371202Y-119839183D01*
X122540817Y-120008798D01*
X122549245Y-120015871D01*
X122745738Y-120153457D01*
X122755266Y-120158958D01*
X122800391Y-120180000D01*
X122755266Y-120201042D01*
X122745738Y-120206543D01*
X122549245Y-120344129D01*
X122540817Y-120351202D01*
X122371202Y-120520817D01*
X122364129Y-120529245D01*
X122226543Y-120725738D01*
X122221042Y-120735266D01*
X122119667Y-120952665D01*
X122115904Y-120963004D01*
X122053820Y-121194704D01*
X122051910Y-121205539D01*
X122031004Y-121444499D01*
X122031004Y-121455501D01*
X122051910Y-121694461D01*
X122053820Y-121705296D01*
X122115904Y-121936996D01*
X122119667Y-121947335D01*
X122221042Y-122164734D01*
X122226543Y-122174262D01*
X122364129Y-122370755D01*
X122371202Y-122379183D01*
X122540817Y-122548798D01*
X122549245Y-122555871D01*
X122745738Y-122693457D01*
X122755266Y-122698958D01*
X122972665Y-122800333D01*
X122983004Y-122804096D01*
X123214704Y-122866180D01*
X123225539Y-122868090D01*
X123404652Y-122883760D01*
X123410146Y-122884000D01*
X124329854Y-122884000D01*
X124335348Y-122883760D01*
X124514461Y-122868090D01*
X124525296Y-122866180D01*
X124634010Y-122837050D01*
X124634011Y-125124000D01*
X124563288Y-125124000D01*
X124525296Y-125113820D01*
X124514461Y-125111910D01*
X124335348Y-125096240D01*
X124329854Y-125096000D01*
X123410146Y-125096000D01*
X123404652Y-125096240D01*
X123225539Y-125111910D01*
X123214704Y-125113820D01*
X123176712Y-125124000D01*
X119761000Y-125124000D01*
X119761000Y-114533817D01*
X119760999Y-114533805D01*
X119760999Y-114478505D01*
X119757897Y-114458916D01*
X119742263Y-114410801D01*
X119734346Y-114360819D01*
X119728218Y-114341957D01*
X119705245Y-114296869D01*
X119689610Y-114248750D01*
X119680606Y-114231080D01*
X119650866Y-114190146D01*
X119627893Y-114145061D01*
X119626000Y-114142455D01*
X119626000Y-107447809D01*
X119552191Y-107374000D01*
X117720339Y-107374000D01*
X117679880Y-107350641D01*
X117659163Y-107343100D01*
X117466462Y-107309122D01*
X117455501Y-107308163D01*
X115041742Y-107308163D01*
X115025366Y-107310319D01*
X114787704Y-107374000D01*
X113376000Y-107374000D01*
X113376000Y-104447809D01*
X113302191Y-104374000D01*
X108697809Y-104374000D01*
X108624000Y-104447809D01*
X108624000Y-107374000D01*
X107774382Y-107374000D01*
X107679549Y-107315202D01*
X107670036Y-107310365D01*
X107446619Y-107219645D01*
X107436427Y-107216480D01*
X107200919Y-107164700D01*
X107190340Y-107163298D01*
X106949475Y-107151939D01*
X106938809Y-107152339D01*
X106699474Y-107181727D01*
X106689030Y-107183918D01*
X106458068Y-107253210D01*
X106448142Y-107257130D01*
X106232155Y-107364346D01*
X106223031Y-107369883D01*
X106217385Y-107374000D01*
X105234382Y-107374000D01*
X105139549Y-107315202D01*
X105130036Y-107310365D01*
X104906619Y-107219645D01*
X104896427Y-107216480D01*
X104660919Y-107164700D01*
X104650340Y-107163298D01*
X104409475Y-107151939D01*
X104398809Y-107152339D01*
X104159474Y-107181727D01*
X104149030Y-107183918D01*
X103918068Y-107253210D01*
X103908142Y-107257130D01*
X103692155Y-107364346D01*
X103683031Y-107369883D01*
X103677385Y-107374000D01*
X100634000Y-107374000D01*
X100634000Y-101327731D01*
X100634008Y-101327699D01*
X100635584Y-101318478D01*
X100636641Y-101307391D01*
X100636676Y-101307012D01*
X100651376Y-101142290D01*
X100679911Y-101037987D01*
X100726465Y-100940385D01*
X100789569Y-100852566D01*
X100867225Y-100777314D01*
X100956985Y-100716997D01*
X101055995Y-100673534D01*
X101166060Y-100647110D01*
X101301288Y-100637179D01*
X101310160Y-100635889D01*
X101318787Y-100634000D01*
X128874000Y-100634000D01*
X128874000Y-105374000D01*
G37*
X128874000Y-105374000D02*
X127447651Y-105374000D01*
X127439610Y-105349252D01*
X127430606Y-105331580D01*
X127400862Y-105290642D01*
X127377894Y-105245564D01*
X127366237Y-105229519D01*
X127216991Y-105080274D01*
X126926914Y-104790198D01*
X126926909Y-104790191D01*
X126770482Y-104633764D01*
X126754436Y-104622106D01*
X126709349Y-104599133D01*
X126668418Y-104569394D01*
X126650746Y-104560389D01*
X126602628Y-104544755D01*
X126557541Y-104521782D01*
X126538678Y-104515653D01*
X126488695Y-104507737D01*
X126440580Y-104492103D01*
X126420991Y-104489001D01*
X126365693Y-104489001D01*
X126365681Y-104489000D01*
X125065216Y-104489000D01*
X124536000Y-103959785D01*
X124536000Y-103871938D01*
X124533844Y-103855562D01*
X124467554Y-103608165D01*
X124461233Y-103592905D01*
X124333171Y-103371095D01*
X124323116Y-103357991D01*
X124142009Y-103176884D01*
X124128905Y-103166829D01*
X123907095Y-103038767D01*
X123891835Y-103032446D01*
X123644438Y-102966156D01*
X123628062Y-102964000D01*
X123371938Y-102964000D01*
X123355562Y-102966156D01*
X123108165Y-103032446D01*
X123092905Y-103038767D01*
X122871095Y-103166829D01*
X122857991Y-103176884D01*
X122795876Y-103239000D01*
X121454124Y-103239000D01*
X121392009Y-103176884D01*
X121378905Y-103166829D01*
X121157095Y-103038767D01*
X121141835Y-103032446D01*
X120894438Y-102966156D01*
X120878062Y-102964000D01*
X120621938Y-102964000D01*
X120605562Y-102966156D01*
X120358165Y-103032446D01*
X120342905Y-103038767D01*
X120121095Y-103166829D01*
X120107991Y-103176884D01*
X119926884Y-103357991D01*
X119916829Y-103371095D01*
X119788767Y-103592905D01*
X119782446Y-103608165D01*
X119716156Y-103855562D01*
X119714000Y-103871938D01*
X119714000Y-104128062D01*
X119716156Y-104144438D01*
X119782446Y-104391835D01*
X119788767Y-104407095D01*
X119916829Y-104628905D01*
X119926884Y-104642009D01*
X120107991Y-104823116D01*
X120121095Y-104833171D01*
X120342905Y-104961233D01*
X120358165Y-104967554D01*
X120605562Y-105033844D01*
X120621938Y-105036000D01*
X120878062Y-105036000D01*
X120894438Y-105033844D01*
X121141835Y-104967554D01*
X121157095Y-104961233D01*
X121378905Y-104833171D01*
X121392009Y-104823116D01*
X121454124Y-104761000D01*
X122795876Y-104761000D01*
X122857991Y-104823116D01*
X122871095Y-104833171D01*
X123092905Y-104961233D01*
X123108165Y-104967554D01*
X123355562Y-105033844D01*
X123371938Y-105036000D01*
X123459785Y-105036000D01*
X124140775Y-105716991D01*
X124290021Y-105866237D01*
X124306066Y-105877894D01*
X124351144Y-105900862D01*
X124392082Y-105930606D01*
X124409754Y-105939610D01*
X124457879Y-105955247D01*
X124502962Y-105978218D01*
X124521823Y-105984347D01*
X124571808Y-105992264D01*
X124619922Y-106007897D01*
X124639510Y-106010999D01*
X124694809Y-106010999D01*
X124694821Y-106011000D01*
X124951500Y-106011000D01*
X124951500Y-106128062D01*
X124953656Y-106144438D01*
X125019946Y-106391835D01*
X125026267Y-106407095D01*
X125154329Y-106628905D01*
X125164384Y-106642009D01*
X125345491Y-106823116D01*
X125358595Y-106833171D01*
X125489001Y-106908461D01*
X125489001Y-107990811D01*
X125375871Y-107829245D01*
X125368798Y-107820817D01*
X125199183Y-107651202D01*
X125190755Y-107644129D01*
X124994262Y-107506543D01*
X124984734Y-107501042D01*
X124767335Y-107399667D01*
X124756996Y-107395904D01*
X124525296Y-107333820D01*
X124514461Y-107331910D01*
X124335348Y-107316240D01*
X124329854Y-107316000D01*
X123410146Y-107316000D01*
X123404652Y-107316240D01*
X123225539Y-107331910D01*
X123214704Y-107333820D01*
X122983004Y-107395904D01*
X122972665Y-107399667D01*
X122755266Y-107501042D01*
X122745738Y-107506543D01*
X122549245Y-107644129D01*
X122540817Y-107651202D01*
X122371202Y-107820817D01*
X122364129Y-107829245D01*
X122226543Y-108025738D01*
X122221042Y-108035266D01*
X122119667Y-108252665D01*
X122115904Y-108263004D01*
X122053820Y-108494704D01*
X122051910Y-108505539D01*
X122031004Y-108744499D01*
X122031004Y-108755501D01*
X122051910Y-108994461D01*
X122053820Y-109005296D01*
X122115904Y-109236996D01*
X122119667Y-109247335D01*
X122221042Y-109464734D01*
X122226543Y-109474262D01*
X122364129Y-109670755D01*
X122371202Y-109679183D01*
X122540817Y-109848798D01*
X122549245Y-109855871D01*
X122745738Y-109993457D01*
X122755266Y-109998958D01*
X122800391Y-110020000D01*
X122755266Y-110041042D01*
X122745738Y-110046543D01*
X122549245Y-110184129D01*
X122540817Y-110191202D01*
X122371202Y-110360817D01*
X122364129Y-110369245D01*
X122226543Y-110565738D01*
X122221042Y-110575266D01*
X122119667Y-110792665D01*
X122115904Y-110803004D01*
X122053820Y-111034704D01*
X122051910Y-111045539D01*
X122031004Y-111284499D01*
X122031004Y-111295501D01*
X122051910Y-111534461D01*
X122053820Y-111545296D01*
X122115904Y-111776996D01*
X122119667Y-111787335D01*
X122221042Y-112004734D01*
X122226543Y-112014262D01*
X122364129Y-112210755D01*
X122371202Y-112219183D01*
X122540817Y-112388798D01*
X122549245Y-112395871D01*
X122745738Y-112533457D01*
X122755266Y-112538958D01*
X122800391Y-112560000D01*
X122755266Y-112581042D01*
X122745738Y-112586544D01*
X122549245Y-112724129D01*
X122540817Y-112731202D01*
X122371202Y-112900817D01*
X122364129Y-112909245D01*
X122226543Y-113105738D01*
X122221042Y-113115266D01*
X122119667Y-113332665D01*
X122115904Y-113343004D01*
X122053820Y-113574704D01*
X122051910Y-113585539D01*
X122031004Y-113824499D01*
X122031004Y-113835501D01*
X122051910Y-114074461D01*
X122053820Y-114085296D01*
X122115904Y-114316996D01*
X122119667Y-114327335D01*
X122221042Y-114544734D01*
X122226543Y-114554262D01*
X122364129Y-114750755D01*
X122371202Y-114759183D01*
X122540817Y-114928798D01*
X122549245Y-114935871D01*
X122745738Y-115073457D01*
X122755266Y-115078958D01*
X122885633Y-115139750D01*
X122936502Y-115182433D01*
X122946671Y-115189396D01*
X123216969Y-115337993D01*
X123228298Y-115342849D01*
X123522520Y-115436181D01*
X123535015Y-115438792D01*
X123790599Y-115465655D01*
X123797189Y-115466000D01*
X123880789Y-115466000D01*
X124634010Y-116219221D01*
X124634010Y-117522950D01*
X124525296Y-117493820D01*
X124514461Y-117491910D01*
X124335348Y-117476240D01*
X124329854Y-117476000D01*
X123410146Y-117476000D01*
X123404652Y-117476240D01*
X123225539Y-117491910D01*
X123214704Y-117493820D01*
X122983004Y-117555904D01*
X122972665Y-117559667D01*
X122755266Y-117661042D01*
X122745738Y-117666543D01*
X122549245Y-117804129D01*
X122540817Y-117811202D01*
X122371202Y-117980817D01*
X122364129Y-117989245D01*
X122226543Y-118185738D01*
X122221042Y-118195266D01*
X122119667Y-118412665D01*
X122115904Y-118423004D01*
X122053820Y-118654704D01*
X122051910Y-118665539D01*
X122031004Y-118904499D01*
X122031004Y-118915501D01*
X122051910Y-119154461D01*
X122053820Y-119165296D01*
X122115904Y-119396996D01*
X122119667Y-119407335D01*
X122221042Y-119624734D01*
X122226543Y-119634262D01*
X122364129Y-119830755D01*
X122371202Y-119839183D01*
X122540817Y-120008798D01*
X122549245Y-120015871D01*
X122745738Y-120153457D01*
X122755266Y-120158958D01*
X122800391Y-120180000D01*
X122755266Y-120201042D01*
X122745738Y-120206543D01*
X122549245Y-120344129D01*
X122540817Y-120351202D01*
X122371202Y-120520817D01*
X122364129Y-120529245D01*
X122226543Y-120725738D01*
X122221042Y-120735266D01*
X122119667Y-120952665D01*
X122115904Y-120963004D01*
X122053820Y-121194704D01*
X122051910Y-121205539D01*
X122031004Y-121444499D01*
X122031004Y-121455501D01*
X122051910Y-121694461D01*
X122053820Y-121705296D01*
X122115904Y-121936996D01*
X122119667Y-121947335D01*
X122221042Y-122164734D01*
X122226543Y-122174262D01*
X122364129Y-122370755D01*
X122371202Y-122379183D01*
X122540817Y-122548798D01*
X122549245Y-122555871D01*
X122745738Y-122693457D01*
X122755266Y-122698958D01*
X122972665Y-122800333D01*
X122983004Y-122804096D01*
X123214704Y-122866180D01*
X123225539Y-122868090D01*
X123404652Y-122883760D01*
X123410146Y-122884000D01*
X124329854Y-122884000D01*
X124335348Y-122883760D01*
X124514461Y-122868090D01*
X124525296Y-122866180D01*
X124634010Y-122837050D01*
X124634011Y-125124000D01*
X124563288Y-125124000D01*
X124525296Y-125113820D01*
X124514461Y-125111910D01*
X124335348Y-125096240D01*
X124329854Y-125096000D01*
X123410146Y-125096000D01*
X123404652Y-125096240D01*
X123225539Y-125111910D01*
X123214704Y-125113820D01*
X123176712Y-125124000D01*
X119761000Y-125124000D01*
X119761000Y-114533817D01*
X119760999Y-114533805D01*
X119760999Y-114478505D01*
X119757897Y-114458916D01*
X119742263Y-114410801D01*
X119734346Y-114360819D01*
X119728218Y-114341957D01*
X119705245Y-114296869D01*
X119689610Y-114248750D01*
X119680606Y-114231080D01*
X119650866Y-114190146D01*
X119627893Y-114145061D01*
X119626000Y-114142455D01*
X119626000Y-107447809D01*
X119552191Y-107374000D01*
X117720339Y-107374000D01*
X117679880Y-107350641D01*
X117659163Y-107343100D01*
X117466462Y-107309122D01*
X117455501Y-107308163D01*
X115041742Y-107308163D01*
X115025366Y-107310319D01*
X114787704Y-107374000D01*
X113376000Y-107374000D01*
X113376000Y-104447809D01*
X113302191Y-104374000D01*
X108697809Y-104374000D01*
X108624000Y-104447809D01*
X108624000Y-107374000D01*
X107774382Y-107374000D01*
X107679549Y-107315202D01*
X107670036Y-107310365D01*
X107446619Y-107219645D01*
X107436427Y-107216480D01*
X107200919Y-107164700D01*
X107190340Y-107163298D01*
X106949475Y-107151939D01*
X106938809Y-107152339D01*
X106699474Y-107181727D01*
X106689030Y-107183918D01*
X106458068Y-107253210D01*
X106448142Y-107257130D01*
X106232155Y-107364346D01*
X106223031Y-107369883D01*
X106217385Y-107374000D01*
X105234382Y-107374000D01*
X105139549Y-107315202D01*
X105130036Y-107310365D01*
X104906619Y-107219645D01*
X104896427Y-107216480D01*
X104660919Y-107164700D01*
X104650340Y-107163298D01*
X104409475Y-107151939D01*
X104398809Y-107152339D01*
X104159474Y-107181727D01*
X104149030Y-107183918D01*
X103918068Y-107253210D01*
X103908142Y-107257130D01*
X103692155Y-107364346D01*
X103683031Y-107369883D01*
X103677385Y-107374000D01*
X100634000Y-107374000D01*
X100634000Y-101327731D01*
X100634008Y-101327699D01*
X100635584Y-101318478D01*
X100636641Y-101307391D01*
X100636676Y-101307012D01*
X100651376Y-101142290D01*
X100679911Y-101037987D01*
X100726465Y-100940385D01*
X100789569Y-100852566D01*
X100867225Y-100777314D01*
X100956985Y-100716997D01*
X101055995Y-100673534D01*
X101166060Y-100647110D01*
X101301288Y-100637179D01*
X101310160Y-100635889D01*
X101318787Y-100634000D01*
X128874000Y-100634000D01*
X128874000Y-105374000D01*
%TD*%
M02*
