%TF.GenerationSoftware,KiCad,Pcbnew,5.99.0-unknown-ad88874~101~ubuntu20.04.1*%
%TF.CreationDate,2020-05-19T21:45:08-04:00*%
%TF.ProjectId,L6205,4c363230-352e-46b6-9963-61645f706362,rev?*%
%TF.SameCoordinates,Original*%
%TF.FileFunction,Paste,Top*%
%TF.FilePolarity,Positive*%
%FSLAX46Y46*%
G04 Gerber Fmt 4.6, Leading zero omitted, Abs format (unit mm)*
G04 Created by KiCad (PCBNEW 5.99.0-unknown-ad88874~101~ubuntu20.04.1) date 2020-05-19 21:45:08*
%MOMM*%
%LPD*%
G01*
G04 APERTURE LIST*
%ADD10R,1.700000X0.700000*%
%ADD11R,6.400000X11.270000*%
%ADD12R,3.400000X2.415000*%
G04 APERTURE END LIST*
D10*
%TO.C,U1*%
X115578000Y-114421502D03*
D11*
X122428000Y-120136502D03*
D10*
X115578000Y-115691502D03*
X115578000Y-116961502D03*
X115578000Y-118231502D03*
X115578000Y-119501502D03*
X115578000Y-120771502D03*
X115578000Y-122041502D03*
X115578000Y-123311502D03*
X115578000Y-124581502D03*
X115578000Y-125851502D03*
X129278000Y-125851502D03*
X129278000Y-124581502D03*
X129278000Y-123311502D03*
X129278000Y-122041502D03*
X129278000Y-120771502D03*
X129278000Y-119501502D03*
X129278000Y-118231502D03*
X129278000Y-116961502D03*
X129278000Y-115691502D03*
X129278000Y-114421502D03*
D12*
X122428000Y-113294002D03*
X122428000Y-126979002D03*
%TD*%
%TO.C,D2*%
G36*
X116550001Y-104561502D02*
G01*
X117650000Y-104561503D01*
X117650000Y-105136503D01*
X117150000Y-105136503D01*
X117149999Y-105636502D01*
X117650000Y-105636502D01*
X117649999Y-106211502D01*
X116550000Y-106211502D01*
X116550001Y-104561502D01*
G37*
G36*
X121050000Y-106211502D02*
G01*
X119950000Y-106211502D01*
X119950000Y-105636502D01*
X120450000Y-105636502D01*
X120450000Y-105136502D01*
X119950000Y-105136502D01*
X119950000Y-104561502D01*
X121050000Y-104561502D01*
X121050000Y-106211502D01*
G37*
%TD*%
%TO.C,D1*%
G36*
X110300001Y-104561502D02*
G01*
X111400000Y-104561503D01*
X111400000Y-105136503D01*
X110900000Y-105136503D01*
X110899999Y-105636502D01*
X111400000Y-105636502D01*
X111399999Y-106211502D01*
X110300000Y-106211502D01*
X110300001Y-104561502D01*
G37*
G36*
X114800000Y-106211502D02*
G01*
X113700000Y-106211502D01*
X113700000Y-105636502D01*
X114200000Y-105636502D01*
X114200000Y-105136502D01*
X113700000Y-105136502D01*
X113700000Y-104561502D01*
X114800000Y-104561502D01*
X114800000Y-106211502D01*
G37*
%TD*%
%TO.C,C4*%
G36*
G01*
X127000000Y-110636502D02*
X125000000Y-110636502D01*
G75*
G02*
X124750000Y-110386502I0J250000D01*
G01*
X124750000Y-106886502D01*
G75*
G02*
X125000000Y-106636502I250000J0D01*
G01*
X127000000Y-106636502D01*
G75*
G02*
X127250000Y-106886502I0J-250000D01*
G01*
X127250000Y-110386502D01*
G75*
G02*
X127000000Y-110636502I-250000J0D01*
G01*
G37*
G36*
G01*
X127000000Y-104536502D02*
X125000000Y-104536502D01*
G75*
G02*
X124750000Y-104286502I0J250000D01*
G01*
X124750000Y-100786502D01*
G75*
G02*
X125000000Y-100536502I250000J0D01*
G01*
X127000000Y-100536502D01*
G75*
G02*
X127250000Y-100786502I0J-250000D01*
G01*
X127250000Y-104286502D01*
G75*
G02*
X127000000Y-104536502I-250000J0D01*
G01*
G37*
%TD*%
%TO.C,R3*%
G36*
G01*
X119475000Y-107564252D02*
X119475000Y-108076752D01*
G75*
G02*
X119256250Y-108295502I-218750J0D01*
G01*
X118818750Y-108295502D01*
G75*
G02*
X118600000Y-108076752I0J218750D01*
G01*
X118600000Y-107564252D01*
G75*
G02*
X118818750Y-107345502I218750J0D01*
G01*
X119256250Y-107345502D01*
G75*
G02*
X119475000Y-107564252I0J-218750D01*
G01*
G37*
G36*
G01*
X117900000Y-107564252D02*
X117900000Y-108076752D01*
G75*
G02*
X117681250Y-108295502I-218750J0D01*
G01*
X117243750Y-108295502D01*
G75*
G02*
X117025000Y-108076752I0J218750D01*
G01*
X117025000Y-107564252D01*
G75*
G02*
X117243750Y-107345502I218750J0D01*
G01*
X117681250Y-107345502D01*
G75*
G02*
X117900000Y-107564252I0J-218750D01*
G01*
G37*
%TD*%
%TO.C,R2*%
G36*
G01*
X133256250Y-122611502D02*
X132743750Y-122611502D01*
G75*
G02*
X132525000Y-122392752I0J218750D01*
G01*
X132525000Y-121955252D01*
G75*
G02*
X132743750Y-121736502I218750J0D01*
G01*
X133256250Y-121736502D01*
G75*
G02*
X133475000Y-121955252I0J-218750D01*
G01*
X133475000Y-122392752D01*
G75*
G02*
X133256250Y-122611502I-218750J0D01*
G01*
G37*
G36*
G01*
X133256250Y-121036502D02*
X132743750Y-121036502D01*
G75*
G02*
X132525000Y-120817752I0J218750D01*
G01*
X132525000Y-120380252D01*
G75*
G02*
X132743750Y-120161502I218750J0D01*
G01*
X133256250Y-120161502D01*
G75*
G02*
X133475000Y-120380252I0J-218750D01*
G01*
X133475000Y-120817752D01*
G75*
G02*
X133256250Y-121036502I-218750J0D01*
G01*
G37*
%TD*%
%TO.C,R1*%
G36*
G01*
X112006250Y-121074002D02*
X111493750Y-121074002D01*
G75*
G02*
X111275000Y-120855252I0J218750D01*
G01*
X111275000Y-120417752D01*
G75*
G02*
X111493750Y-120199002I218750J0D01*
G01*
X112006250Y-120199002D01*
G75*
G02*
X112225000Y-120417752I0J-218750D01*
G01*
X112225000Y-120855252D01*
G75*
G02*
X112006250Y-121074002I-218750J0D01*
G01*
G37*
G36*
G01*
X112006250Y-122649002D02*
X111493750Y-122649002D01*
G75*
G02*
X111275000Y-122430252I0J218750D01*
G01*
X111275000Y-121992752D01*
G75*
G02*
X111493750Y-121774002I218750J0D01*
G01*
X112006250Y-121774002D01*
G75*
G02*
X112225000Y-121992752I0J-218750D01*
G01*
X112225000Y-122430252D01*
G75*
G02*
X112006250Y-122649002I-218750J0D01*
G01*
G37*
%TD*%
%TO.C,C6*%
G36*
G01*
X117025000Y-109826752D02*
X117025000Y-109314252D01*
G75*
G02*
X117243750Y-109095502I218750J0D01*
G01*
X117681250Y-109095502D01*
G75*
G02*
X117900000Y-109314252I0J-218750D01*
G01*
X117900000Y-109826752D01*
G75*
G02*
X117681250Y-110045502I-218750J0D01*
G01*
X117243750Y-110045502D01*
G75*
G02*
X117025000Y-109826752I0J218750D01*
G01*
G37*
G36*
G01*
X118600000Y-109826752D02*
X118600000Y-109314252D01*
G75*
G02*
X118818750Y-109095502I218750J0D01*
G01*
X119256250Y-109095502D01*
G75*
G02*
X119475000Y-109314252I0J-218750D01*
G01*
X119475000Y-109826752D01*
G75*
G02*
X119256250Y-110045502I-218750J0D01*
G01*
X118818750Y-110045502D01*
G75*
G02*
X118600000Y-109826752I0J218750D01*
G01*
G37*
%TD*%
%TO.C,C5*%
G36*
G01*
X131743750Y-110124002D02*
X132256250Y-110124002D01*
G75*
G02*
X132475000Y-110342752I0J-218750D01*
G01*
X132475000Y-110780252D01*
G75*
G02*
X132256250Y-110999002I-218750J0D01*
G01*
X131743750Y-110999002D01*
G75*
G02*
X131525000Y-110780252I0J218750D01*
G01*
X131525000Y-110342752D01*
G75*
G02*
X131743750Y-110124002I218750J0D01*
G01*
G37*
G36*
G01*
X131743750Y-111699002D02*
X132256250Y-111699002D01*
G75*
G02*
X132475000Y-111917752I0J-218750D01*
G01*
X132475000Y-112355252D01*
G75*
G02*
X132256250Y-112574002I-218750J0D01*
G01*
X131743750Y-112574002D01*
G75*
G02*
X131525000Y-112355252I0J218750D01*
G01*
X131525000Y-111917752D01*
G75*
G02*
X131743750Y-111699002I218750J0D01*
G01*
G37*
%TD*%
%TO.C,C3*%
G36*
G01*
X132256250Y-109324002D02*
X131743750Y-109324002D01*
G75*
G02*
X131525000Y-109105252I0J218750D01*
G01*
X131525000Y-108667752D01*
G75*
G02*
X131743750Y-108449002I218750J0D01*
G01*
X132256250Y-108449002D01*
G75*
G02*
X132475000Y-108667752I0J-218750D01*
G01*
X132475000Y-109105252D01*
G75*
G02*
X132256250Y-109324002I-218750J0D01*
G01*
G37*
G36*
G01*
X132256250Y-107749002D02*
X131743750Y-107749002D01*
G75*
G02*
X131525000Y-107530252I0J218750D01*
G01*
X131525000Y-107092752D01*
G75*
G02*
X131743750Y-106874002I218750J0D01*
G01*
X132256250Y-106874002D01*
G75*
G02*
X132475000Y-107092752I0J-218750D01*
G01*
X132475000Y-107530252D01*
G75*
G02*
X132256250Y-107749002I-218750J0D01*
G01*
G37*
%TD*%
%TO.C,C2*%
G36*
G01*
X131243750Y-120161502D02*
X131756250Y-120161502D01*
G75*
G02*
X131975000Y-120380252I0J-218750D01*
G01*
X131975000Y-120817752D01*
G75*
G02*
X131756250Y-121036502I-218750J0D01*
G01*
X131243750Y-121036502D01*
G75*
G02*
X131025000Y-120817752I0J218750D01*
G01*
X131025000Y-120380252D01*
G75*
G02*
X131243750Y-120161502I218750J0D01*
G01*
G37*
G36*
G01*
X131243750Y-121736502D02*
X131756250Y-121736502D01*
G75*
G02*
X131975000Y-121955252I0J-218750D01*
G01*
X131975000Y-122392752D01*
G75*
G02*
X131756250Y-122611502I-218750J0D01*
G01*
X131243750Y-122611502D01*
G75*
G02*
X131025000Y-122392752I0J218750D01*
G01*
X131025000Y-121955252D01*
G75*
G02*
X131243750Y-121736502I218750J0D01*
G01*
G37*
%TD*%
%TO.C,C1*%
G36*
G01*
X113243750Y-121736502D02*
X113756250Y-121736502D01*
G75*
G02*
X113975000Y-121955252I0J-218750D01*
G01*
X113975000Y-122392752D01*
G75*
G02*
X113756250Y-122611502I-218750J0D01*
G01*
X113243750Y-122611502D01*
G75*
G02*
X113025000Y-122392752I0J218750D01*
G01*
X113025000Y-121955252D01*
G75*
G02*
X113243750Y-121736502I218750J0D01*
G01*
G37*
G36*
G01*
X113243750Y-120161502D02*
X113756250Y-120161502D01*
G75*
G02*
X113975000Y-120380252I0J-218750D01*
G01*
X113975000Y-120817752D01*
G75*
G02*
X113756250Y-121036502I-218750J0D01*
G01*
X113243750Y-121036502D01*
G75*
G02*
X113025000Y-120817752I0J218750D01*
G01*
X113025000Y-120380252D01*
G75*
G02*
X113243750Y-120161502I218750J0D01*
G01*
G37*
%TD*%
M02*
