%TF.GenerationSoftware,KiCad,Pcbnew,5.99.0-unknown-ad88874~101~ubuntu20.04.1*%
%TF.CreationDate,2020-05-19T21:45:09-04:00*%
%TF.ProjectId,L6205,4c363230-352e-46b6-9963-61645f706362,rev?*%
%TF.SameCoordinates,Original*%
%TF.FileFunction,Soldermask,Bot*%
%TF.FilePolarity,Negative*%
%FSLAX46Y46*%
G04 Gerber Fmt 4.6, Leading zero omitted, Abs format (unit mm)*
G04 Created by KiCad (PCBNEW 5.99.0-unknown-ad88874~101~ubuntu20.04.1) date 2020-05-19 21:45:09*
%MOMM*%
%LPD*%
G01*
G04 APERTURE LIST*
%ADD10C,0.100000*%
%ADD11O,1.800000X1.800000*%
G04 APERTURE END LIST*
D10*
G36*
X125750000Y-126136502D02*
G01*
X119000000Y-126136502D01*
X119000000Y-114136502D01*
X125750000Y-114136502D01*
X125750000Y-126136502D01*
G37*
X125750000Y-126136502D02*
X119000000Y-126136502D01*
X119000000Y-114136502D01*
X125750000Y-114136502D01*
X125750000Y-126136502D01*
%TO.C,J1*%
G36*
G01*
X107834000Y-130468000D02*
X107834000Y-132168000D01*
G75*
G02*
X107784000Y-132218000I-50000J0D01*
G01*
X106084000Y-132218000D01*
G75*
G02*
X106034000Y-132168000I0J50000D01*
G01*
X106034000Y-130468000D01*
G75*
G02*
X106084000Y-130418000I50000J0D01*
G01*
X107784000Y-130418000D01*
G75*
G02*
X107834000Y-130468000I0J-50000D01*
G01*
G37*
D11*
X104394000Y-131318000D03*
X106934000Y-128778000D03*
X104394000Y-128778000D03*
X106934000Y-126238000D03*
X104394000Y-126238000D03*
X106934000Y-123698000D03*
X104394000Y-123698000D03*
X106934000Y-121158000D03*
X104394000Y-121158000D03*
X106934000Y-118618000D03*
X104394000Y-118618000D03*
X106934000Y-116078000D03*
X104394000Y-116078000D03*
X106934000Y-113538000D03*
X104394000Y-113538000D03*
X106934000Y-110998000D03*
X104394000Y-110998000D03*
X106934000Y-108458000D03*
X104394000Y-108458000D03*
X106934000Y-105918000D03*
X104394000Y-105918000D03*
X106934000Y-103378000D03*
X104394000Y-103378000D03*
%TD*%
M02*
