%TF.GenerationSoftware,KiCad,Pcbnew,5.99.0-unknown-ad88874~101~ubuntu20.04.1*%
%TF.CreationDate,2020-05-19T21:45:09-04:00*%
%TF.ProjectId,L6205,4c363230-352e-46b6-9963-61645f706362,rev?*%
%TF.SameCoordinates,Original*%
%TF.FileFunction,Soldermask,Top*%
%TF.FilePolarity,Negative*%
%FSLAX46Y46*%
G04 Gerber Fmt 4.6, Leading zero omitted, Abs format (unit mm)*
G04 Created by KiCad (PCBNEW 5.99.0-unknown-ad88874~101~ubuntu20.04.1) date 2020-05-19 21:45:09*
%MOMM*%
%LPD*%
G01*
G04 APERTURE LIST*
%ADD10O,1.800000X1.800000*%
G04 APERTURE END LIST*
%TO.C,J1*%
G36*
G01*
X107834000Y-130468000D02*
X107834000Y-132168000D01*
G75*
G02*
X107784000Y-132218000I-50000J0D01*
G01*
X106084000Y-132218000D01*
G75*
G02*
X106034000Y-132168000I0J50000D01*
G01*
X106034000Y-130468000D01*
G75*
G02*
X106084000Y-130418000I50000J0D01*
G01*
X107784000Y-130418000D01*
G75*
G02*
X107834000Y-130468000I0J-50000D01*
G01*
G37*
D10*
X104394000Y-131318000D03*
X106934000Y-128778000D03*
X104394000Y-128778000D03*
X106934000Y-126238000D03*
X104394000Y-126238000D03*
X106934000Y-123698000D03*
X104394000Y-123698000D03*
X106934000Y-121158000D03*
X104394000Y-121158000D03*
X106934000Y-118618000D03*
X104394000Y-118618000D03*
X106934000Y-116078000D03*
X104394000Y-116078000D03*
X106934000Y-113538000D03*
X104394000Y-113538000D03*
X106934000Y-110998000D03*
X104394000Y-110998000D03*
X106934000Y-108458000D03*
X104394000Y-108458000D03*
X106934000Y-105918000D03*
X104394000Y-105918000D03*
X106934000Y-103378000D03*
X104394000Y-103378000D03*
%TD*%
%TO.C,U1*%
G36*
G01*
X114678000Y-114771502D02*
X114678000Y-114071502D01*
G75*
G02*
X114728000Y-114021502I50000J0D01*
G01*
X116428000Y-114021502D01*
G75*
G02*
X116478000Y-114071502I0J-50000D01*
G01*
X116478000Y-114771502D01*
G75*
G02*
X116428000Y-114821502I-50000J0D01*
G01*
X114728000Y-114821502D01*
G75*
G02*
X114678000Y-114771502I0J50000D01*
G01*
G37*
G36*
G01*
X119178000Y-125771502D02*
X119178000Y-114501502D01*
G75*
G02*
X119228000Y-114451502I50000J0D01*
G01*
X125628000Y-114451502D01*
G75*
G02*
X125678000Y-114501502I0J-50000D01*
G01*
X125678000Y-125771502D01*
G75*
G02*
X125628000Y-125821502I-50000J0D01*
G01*
X119228000Y-125821502D01*
G75*
G02*
X119178000Y-125771502I0J50000D01*
G01*
G37*
G36*
G01*
X114678000Y-116041502D02*
X114678000Y-115341502D01*
G75*
G02*
X114728000Y-115291502I50000J0D01*
G01*
X116428000Y-115291502D01*
G75*
G02*
X116478000Y-115341502I0J-50000D01*
G01*
X116478000Y-116041502D01*
G75*
G02*
X116428000Y-116091502I-50000J0D01*
G01*
X114728000Y-116091502D01*
G75*
G02*
X114678000Y-116041502I0J50000D01*
G01*
G37*
G36*
G01*
X114678000Y-117311502D02*
X114678000Y-116611502D01*
G75*
G02*
X114728000Y-116561502I50000J0D01*
G01*
X116428000Y-116561502D01*
G75*
G02*
X116478000Y-116611502I0J-50000D01*
G01*
X116478000Y-117311502D01*
G75*
G02*
X116428000Y-117361502I-50000J0D01*
G01*
X114728000Y-117361502D01*
G75*
G02*
X114678000Y-117311502I0J50000D01*
G01*
G37*
G36*
G01*
X114678000Y-118581502D02*
X114678000Y-117881502D01*
G75*
G02*
X114728000Y-117831502I50000J0D01*
G01*
X116428000Y-117831502D01*
G75*
G02*
X116478000Y-117881502I0J-50000D01*
G01*
X116478000Y-118581502D01*
G75*
G02*
X116428000Y-118631502I-50000J0D01*
G01*
X114728000Y-118631502D01*
G75*
G02*
X114678000Y-118581502I0J50000D01*
G01*
G37*
G36*
G01*
X114678000Y-119851502D02*
X114678000Y-119151502D01*
G75*
G02*
X114728000Y-119101502I50000J0D01*
G01*
X116428000Y-119101502D01*
G75*
G02*
X116478000Y-119151502I0J-50000D01*
G01*
X116478000Y-119851502D01*
G75*
G02*
X116428000Y-119901502I-50000J0D01*
G01*
X114728000Y-119901502D01*
G75*
G02*
X114678000Y-119851502I0J50000D01*
G01*
G37*
G36*
G01*
X114678000Y-121121502D02*
X114678000Y-120421502D01*
G75*
G02*
X114728000Y-120371502I50000J0D01*
G01*
X116428000Y-120371502D01*
G75*
G02*
X116478000Y-120421502I0J-50000D01*
G01*
X116478000Y-121121502D01*
G75*
G02*
X116428000Y-121171502I-50000J0D01*
G01*
X114728000Y-121171502D01*
G75*
G02*
X114678000Y-121121502I0J50000D01*
G01*
G37*
G36*
G01*
X114678000Y-122391502D02*
X114678000Y-121691502D01*
G75*
G02*
X114728000Y-121641502I50000J0D01*
G01*
X116428000Y-121641502D01*
G75*
G02*
X116478000Y-121691502I0J-50000D01*
G01*
X116478000Y-122391502D01*
G75*
G02*
X116428000Y-122441502I-50000J0D01*
G01*
X114728000Y-122441502D01*
G75*
G02*
X114678000Y-122391502I0J50000D01*
G01*
G37*
G36*
G01*
X114678000Y-123661502D02*
X114678000Y-122961502D01*
G75*
G02*
X114728000Y-122911502I50000J0D01*
G01*
X116428000Y-122911502D01*
G75*
G02*
X116478000Y-122961502I0J-50000D01*
G01*
X116478000Y-123661502D01*
G75*
G02*
X116428000Y-123711502I-50000J0D01*
G01*
X114728000Y-123711502D01*
G75*
G02*
X114678000Y-123661502I0J50000D01*
G01*
G37*
G36*
G01*
X114678000Y-124931502D02*
X114678000Y-124231502D01*
G75*
G02*
X114728000Y-124181502I50000J0D01*
G01*
X116428000Y-124181502D01*
G75*
G02*
X116478000Y-124231502I0J-50000D01*
G01*
X116478000Y-124931502D01*
G75*
G02*
X116428000Y-124981502I-50000J0D01*
G01*
X114728000Y-124981502D01*
G75*
G02*
X114678000Y-124931502I0J50000D01*
G01*
G37*
G36*
G01*
X114678000Y-126201502D02*
X114678000Y-125501502D01*
G75*
G02*
X114728000Y-125451502I50000J0D01*
G01*
X116428000Y-125451502D01*
G75*
G02*
X116478000Y-125501502I0J-50000D01*
G01*
X116478000Y-126201502D01*
G75*
G02*
X116428000Y-126251502I-50000J0D01*
G01*
X114728000Y-126251502D01*
G75*
G02*
X114678000Y-126201502I0J50000D01*
G01*
G37*
G36*
G01*
X128378000Y-126201502D02*
X128378000Y-125501502D01*
G75*
G02*
X128428000Y-125451502I50000J0D01*
G01*
X130128000Y-125451502D01*
G75*
G02*
X130178000Y-125501502I0J-50000D01*
G01*
X130178000Y-126201502D01*
G75*
G02*
X130128000Y-126251502I-50000J0D01*
G01*
X128428000Y-126251502D01*
G75*
G02*
X128378000Y-126201502I0J50000D01*
G01*
G37*
G36*
G01*
X128378000Y-124931502D02*
X128378000Y-124231502D01*
G75*
G02*
X128428000Y-124181502I50000J0D01*
G01*
X130128000Y-124181502D01*
G75*
G02*
X130178000Y-124231502I0J-50000D01*
G01*
X130178000Y-124931502D01*
G75*
G02*
X130128000Y-124981502I-50000J0D01*
G01*
X128428000Y-124981502D01*
G75*
G02*
X128378000Y-124931502I0J50000D01*
G01*
G37*
G36*
G01*
X128378000Y-123661502D02*
X128378000Y-122961502D01*
G75*
G02*
X128428000Y-122911502I50000J0D01*
G01*
X130128000Y-122911502D01*
G75*
G02*
X130178000Y-122961502I0J-50000D01*
G01*
X130178000Y-123661502D01*
G75*
G02*
X130128000Y-123711502I-50000J0D01*
G01*
X128428000Y-123711502D01*
G75*
G02*
X128378000Y-123661502I0J50000D01*
G01*
G37*
G36*
G01*
X128378000Y-122391502D02*
X128378000Y-121691502D01*
G75*
G02*
X128428000Y-121641502I50000J0D01*
G01*
X130128000Y-121641502D01*
G75*
G02*
X130178000Y-121691502I0J-50000D01*
G01*
X130178000Y-122391502D01*
G75*
G02*
X130128000Y-122441502I-50000J0D01*
G01*
X128428000Y-122441502D01*
G75*
G02*
X128378000Y-122391502I0J50000D01*
G01*
G37*
G36*
G01*
X128378000Y-121121502D02*
X128378000Y-120421502D01*
G75*
G02*
X128428000Y-120371502I50000J0D01*
G01*
X130128000Y-120371502D01*
G75*
G02*
X130178000Y-120421502I0J-50000D01*
G01*
X130178000Y-121121502D01*
G75*
G02*
X130128000Y-121171502I-50000J0D01*
G01*
X128428000Y-121171502D01*
G75*
G02*
X128378000Y-121121502I0J50000D01*
G01*
G37*
G36*
G01*
X128378000Y-119851502D02*
X128378000Y-119151502D01*
G75*
G02*
X128428000Y-119101502I50000J0D01*
G01*
X130128000Y-119101502D01*
G75*
G02*
X130178000Y-119151502I0J-50000D01*
G01*
X130178000Y-119851502D01*
G75*
G02*
X130128000Y-119901502I-50000J0D01*
G01*
X128428000Y-119901502D01*
G75*
G02*
X128378000Y-119851502I0J50000D01*
G01*
G37*
G36*
G01*
X128378000Y-118581502D02*
X128378000Y-117881502D01*
G75*
G02*
X128428000Y-117831502I50000J0D01*
G01*
X130128000Y-117831502D01*
G75*
G02*
X130178000Y-117881502I0J-50000D01*
G01*
X130178000Y-118581502D01*
G75*
G02*
X130128000Y-118631502I-50000J0D01*
G01*
X128428000Y-118631502D01*
G75*
G02*
X128378000Y-118581502I0J50000D01*
G01*
G37*
G36*
G01*
X128378000Y-117311502D02*
X128378000Y-116611502D01*
G75*
G02*
X128428000Y-116561502I50000J0D01*
G01*
X130128000Y-116561502D01*
G75*
G02*
X130178000Y-116611502I0J-50000D01*
G01*
X130178000Y-117311502D01*
G75*
G02*
X130128000Y-117361502I-50000J0D01*
G01*
X128428000Y-117361502D01*
G75*
G02*
X128378000Y-117311502I0J50000D01*
G01*
G37*
G36*
G01*
X128378000Y-116041502D02*
X128378000Y-115341502D01*
G75*
G02*
X128428000Y-115291502I50000J0D01*
G01*
X130128000Y-115291502D01*
G75*
G02*
X130178000Y-115341502I0J-50000D01*
G01*
X130178000Y-116041502D01*
G75*
G02*
X130128000Y-116091502I-50000J0D01*
G01*
X128428000Y-116091502D01*
G75*
G02*
X128378000Y-116041502I0J50000D01*
G01*
G37*
G36*
G01*
X128378000Y-114771502D02*
X128378000Y-114071502D01*
G75*
G02*
X128428000Y-114021502I50000J0D01*
G01*
X130128000Y-114021502D01*
G75*
G02*
X130178000Y-114071502I0J-50000D01*
G01*
X130178000Y-114771502D01*
G75*
G02*
X130128000Y-114821502I-50000J0D01*
G01*
X128428000Y-114821502D01*
G75*
G02*
X128378000Y-114771502I0J50000D01*
G01*
G37*
G36*
G01*
X120678000Y-114501502D02*
X120678000Y-112086502D01*
G75*
G02*
X120728000Y-112036502I50000J0D01*
G01*
X124128000Y-112036502D01*
G75*
G02*
X124178000Y-112086502I0J-50000D01*
G01*
X124178000Y-114501502D01*
G75*
G02*
X124128000Y-114551502I-50000J0D01*
G01*
X120728000Y-114551502D01*
G75*
G02*
X120678000Y-114501502I0J50000D01*
G01*
G37*
G36*
G01*
X120678000Y-128186502D02*
X120678000Y-125771502D01*
G75*
G02*
X120728000Y-125721502I50000J0D01*
G01*
X124128000Y-125721502D01*
G75*
G02*
X124178000Y-125771502I0J-50000D01*
G01*
X124178000Y-128186502D01*
G75*
G02*
X124128000Y-128236502I-50000J0D01*
G01*
X120728000Y-128236502D01*
G75*
G02*
X120678000Y-128186502I0J50000D01*
G01*
G37*
%TD*%
%TO.C,D2*%
G36*
X116510908Y-106242676D02*
G01*
X116500000Y-106211502D01*
X116500001Y-104561502D01*
X116518827Y-104522410D01*
X116550001Y-104511502D01*
X117650000Y-104511503D01*
X117689092Y-104530329D01*
X117700000Y-104561503D01*
X117700000Y-105136503D01*
X117681174Y-105175595D01*
X117650000Y-105186503D01*
X117200000Y-105186503D01*
X117200000Y-105586502D01*
X117650000Y-105586502D01*
X117689092Y-105605328D01*
X117700000Y-105636502D01*
X117699999Y-106211502D01*
X117681173Y-106250594D01*
X117649999Y-106261502D01*
X116550000Y-106261502D01*
X116510908Y-106242676D01*
G37*
G36*
X121089092Y-104530328D02*
G01*
X121100000Y-104561502D01*
X121100000Y-106211502D01*
X121081174Y-106250594D01*
X121050000Y-106261502D01*
X119950000Y-106261502D01*
X119910908Y-106242676D01*
X119900000Y-106211502D01*
X119900000Y-105636502D01*
X119918826Y-105597410D01*
X119950000Y-105586502D01*
X120400000Y-105586502D01*
X120400000Y-105186502D01*
X119950000Y-105186502D01*
X119910908Y-105167676D01*
X119900000Y-105136502D01*
X119900000Y-104561502D01*
X119918826Y-104522410D01*
X119950000Y-104511502D01*
X121050000Y-104511502D01*
X121089092Y-104530328D01*
G37*
%TD*%
%TO.C,D1*%
G36*
X110260908Y-106242676D02*
G01*
X110250000Y-106211502D01*
X110250001Y-104561502D01*
X110268827Y-104522410D01*
X110300001Y-104511502D01*
X111400000Y-104511503D01*
X111439092Y-104530329D01*
X111450000Y-104561503D01*
X111450000Y-105136503D01*
X111431174Y-105175595D01*
X111400000Y-105186503D01*
X110950000Y-105186503D01*
X110950000Y-105586502D01*
X111400000Y-105586502D01*
X111439092Y-105605328D01*
X111450000Y-105636502D01*
X111449999Y-106211502D01*
X111431173Y-106250594D01*
X111399999Y-106261502D01*
X110300000Y-106261502D01*
X110260908Y-106242676D01*
G37*
G36*
X114839092Y-104530328D02*
G01*
X114850000Y-104561502D01*
X114850000Y-106211502D01*
X114831174Y-106250594D01*
X114800000Y-106261502D01*
X113700000Y-106261502D01*
X113660908Y-106242676D01*
X113650000Y-106211502D01*
X113650000Y-105636502D01*
X113668826Y-105597410D01*
X113700000Y-105586502D01*
X114150000Y-105586502D01*
X114150000Y-105186502D01*
X113700000Y-105186502D01*
X113660908Y-105167676D01*
X113650000Y-105136502D01*
X113650000Y-104561502D01*
X113668826Y-104522410D01*
X113700000Y-104511502D01*
X114800000Y-104511502D01*
X114839092Y-104530328D01*
G37*
%TD*%
%TO.C,C4*%
G36*
G01*
X127040000Y-110686502D02*
X124960000Y-110686502D01*
G75*
G02*
X124700000Y-110426502I0J260000D01*
G01*
X124700000Y-106846502D01*
G75*
G02*
X124960000Y-106586502I260000J0D01*
G01*
X127040000Y-106586502D01*
G75*
G02*
X127300000Y-106846502I0J-260000D01*
G01*
X127300000Y-110426502D01*
G75*
G02*
X127040000Y-110686502I-260000J0D01*
G01*
G37*
G36*
G01*
X127040000Y-104586502D02*
X124960000Y-104586502D01*
G75*
G02*
X124700000Y-104326502I0J260000D01*
G01*
X124700000Y-100746502D01*
G75*
G02*
X124960000Y-100486502I260000J0D01*
G01*
X127040000Y-100486502D01*
G75*
G02*
X127300000Y-100746502I0J-260000D01*
G01*
X127300000Y-104326502D01*
G75*
G02*
X127040000Y-104586502I-260000J0D01*
G01*
G37*
%TD*%
%TO.C,R3*%
G36*
G01*
X119525000Y-107539252D02*
X119525000Y-108101752D01*
G75*
G02*
X119281250Y-108345502I-243750J0D01*
G01*
X118793750Y-108345502D01*
G75*
G02*
X118550000Y-108101752I0J243750D01*
G01*
X118550000Y-107539252D01*
G75*
G02*
X118793750Y-107295502I243750J0D01*
G01*
X119281250Y-107295502D01*
G75*
G02*
X119525000Y-107539252I0J-243750D01*
G01*
G37*
G36*
G01*
X117950000Y-107539252D02*
X117950000Y-108101752D01*
G75*
G02*
X117706250Y-108345502I-243750J0D01*
G01*
X117218750Y-108345502D01*
G75*
G02*
X116975000Y-108101752I0J243750D01*
G01*
X116975000Y-107539252D01*
G75*
G02*
X117218750Y-107295502I243750J0D01*
G01*
X117706250Y-107295502D01*
G75*
G02*
X117950000Y-107539252I0J-243750D01*
G01*
G37*
%TD*%
%TO.C,R2*%
G36*
G01*
X133281250Y-122661502D02*
X132718750Y-122661502D01*
G75*
G02*
X132475000Y-122417752I0J243750D01*
G01*
X132475000Y-121930252D01*
G75*
G02*
X132718750Y-121686502I243750J0D01*
G01*
X133281250Y-121686502D01*
G75*
G02*
X133525000Y-121930252I0J-243750D01*
G01*
X133525000Y-122417752D01*
G75*
G02*
X133281250Y-122661502I-243750J0D01*
G01*
G37*
G36*
G01*
X133281250Y-121086502D02*
X132718750Y-121086502D01*
G75*
G02*
X132475000Y-120842752I0J243750D01*
G01*
X132475000Y-120355252D01*
G75*
G02*
X132718750Y-120111502I243750J0D01*
G01*
X133281250Y-120111502D01*
G75*
G02*
X133525000Y-120355252I0J-243750D01*
G01*
X133525000Y-120842752D01*
G75*
G02*
X133281250Y-121086502I-243750J0D01*
G01*
G37*
%TD*%
%TO.C,R1*%
G36*
G01*
X112031250Y-121124002D02*
X111468750Y-121124002D01*
G75*
G02*
X111225000Y-120880252I0J243750D01*
G01*
X111225000Y-120392752D01*
G75*
G02*
X111468750Y-120149002I243750J0D01*
G01*
X112031250Y-120149002D01*
G75*
G02*
X112275000Y-120392752I0J-243750D01*
G01*
X112275000Y-120880252D01*
G75*
G02*
X112031250Y-121124002I-243750J0D01*
G01*
G37*
G36*
G01*
X112031250Y-122699002D02*
X111468750Y-122699002D01*
G75*
G02*
X111225000Y-122455252I0J243750D01*
G01*
X111225000Y-121967752D01*
G75*
G02*
X111468750Y-121724002I243750J0D01*
G01*
X112031250Y-121724002D01*
G75*
G02*
X112275000Y-121967752I0J-243750D01*
G01*
X112275000Y-122455252D01*
G75*
G02*
X112031250Y-122699002I-243750J0D01*
G01*
G37*
%TD*%
%TO.C,C6*%
G36*
G01*
X116975000Y-109851752D02*
X116975000Y-109289252D01*
G75*
G02*
X117218750Y-109045502I243750J0D01*
G01*
X117706250Y-109045502D01*
G75*
G02*
X117950000Y-109289252I0J-243750D01*
G01*
X117950000Y-109851752D01*
G75*
G02*
X117706250Y-110095502I-243750J0D01*
G01*
X117218750Y-110095502D01*
G75*
G02*
X116975000Y-109851752I0J243750D01*
G01*
G37*
G36*
G01*
X118550000Y-109851752D02*
X118550000Y-109289252D01*
G75*
G02*
X118793750Y-109045502I243750J0D01*
G01*
X119281250Y-109045502D01*
G75*
G02*
X119525000Y-109289252I0J-243750D01*
G01*
X119525000Y-109851752D01*
G75*
G02*
X119281250Y-110095502I-243750J0D01*
G01*
X118793750Y-110095502D01*
G75*
G02*
X118550000Y-109851752I0J243750D01*
G01*
G37*
%TD*%
%TO.C,C5*%
G36*
G01*
X131718750Y-110074002D02*
X132281250Y-110074002D01*
G75*
G02*
X132525000Y-110317752I0J-243750D01*
G01*
X132525000Y-110805252D01*
G75*
G02*
X132281250Y-111049002I-243750J0D01*
G01*
X131718750Y-111049002D01*
G75*
G02*
X131475000Y-110805252I0J243750D01*
G01*
X131475000Y-110317752D01*
G75*
G02*
X131718750Y-110074002I243750J0D01*
G01*
G37*
G36*
G01*
X131718750Y-111649002D02*
X132281250Y-111649002D01*
G75*
G02*
X132525000Y-111892752I0J-243750D01*
G01*
X132525000Y-112380252D01*
G75*
G02*
X132281250Y-112624002I-243750J0D01*
G01*
X131718750Y-112624002D01*
G75*
G02*
X131475000Y-112380252I0J243750D01*
G01*
X131475000Y-111892752D01*
G75*
G02*
X131718750Y-111649002I243750J0D01*
G01*
G37*
%TD*%
%TO.C,C3*%
G36*
G01*
X132281250Y-109374002D02*
X131718750Y-109374002D01*
G75*
G02*
X131475000Y-109130252I0J243750D01*
G01*
X131475000Y-108642752D01*
G75*
G02*
X131718750Y-108399002I243750J0D01*
G01*
X132281250Y-108399002D01*
G75*
G02*
X132525000Y-108642752I0J-243750D01*
G01*
X132525000Y-109130252D01*
G75*
G02*
X132281250Y-109374002I-243750J0D01*
G01*
G37*
G36*
G01*
X132281250Y-107799002D02*
X131718750Y-107799002D01*
G75*
G02*
X131475000Y-107555252I0J243750D01*
G01*
X131475000Y-107067752D01*
G75*
G02*
X131718750Y-106824002I243750J0D01*
G01*
X132281250Y-106824002D01*
G75*
G02*
X132525000Y-107067752I0J-243750D01*
G01*
X132525000Y-107555252D01*
G75*
G02*
X132281250Y-107799002I-243750J0D01*
G01*
G37*
%TD*%
%TO.C,C2*%
G36*
G01*
X131218750Y-120111502D02*
X131781250Y-120111502D01*
G75*
G02*
X132025000Y-120355252I0J-243750D01*
G01*
X132025000Y-120842752D01*
G75*
G02*
X131781250Y-121086502I-243750J0D01*
G01*
X131218750Y-121086502D01*
G75*
G02*
X130975000Y-120842752I0J243750D01*
G01*
X130975000Y-120355252D01*
G75*
G02*
X131218750Y-120111502I243750J0D01*
G01*
G37*
G36*
G01*
X131218750Y-121686502D02*
X131781250Y-121686502D01*
G75*
G02*
X132025000Y-121930252I0J-243750D01*
G01*
X132025000Y-122417752D01*
G75*
G02*
X131781250Y-122661502I-243750J0D01*
G01*
X131218750Y-122661502D01*
G75*
G02*
X130975000Y-122417752I0J243750D01*
G01*
X130975000Y-121930252D01*
G75*
G02*
X131218750Y-121686502I243750J0D01*
G01*
G37*
%TD*%
%TO.C,C1*%
G36*
G01*
X113218750Y-121686502D02*
X113781250Y-121686502D01*
G75*
G02*
X114025000Y-121930252I0J-243750D01*
G01*
X114025000Y-122417752D01*
G75*
G02*
X113781250Y-122661502I-243750J0D01*
G01*
X113218750Y-122661502D01*
G75*
G02*
X112975000Y-122417752I0J243750D01*
G01*
X112975000Y-121930252D01*
G75*
G02*
X113218750Y-121686502I243750J0D01*
G01*
G37*
G36*
G01*
X113218750Y-120111502D02*
X113781250Y-120111502D01*
G75*
G02*
X114025000Y-120355252I0J-243750D01*
G01*
X114025000Y-120842752D01*
G75*
G02*
X113781250Y-121086502I-243750J0D01*
G01*
X113218750Y-121086502D01*
G75*
G02*
X112975000Y-120842752I0J243750D01*
G01*
X112975000Y-120355252D01*
G75*
G02*
X113218750Y-120111502I243750J0D01*
G01*
G37*
%TD*%
M02*
