%TF.GenerationSoftware,KiCad,Pcbnew,5.99.0-unknown-ad88874~101~ubuntu20.04.1*%
%TF.CreationDate,2020-05-19T21:45:08-04:00*%
%TF.ProjectId,L6205,4c363230-352e-46b6-9963-61645f706362,rev?*%
%TF.SameCoordinates,Original*%
%TF.FileFunction,Copper,L2,Bot*%
%TF.FilePolarity,Positive*%
%FSLAX46Y46*%
G04 Gerber Fmt 4.6, Leading zero omitted, Abs format (unit mm)*
G04 Created by KiCad (PCBNEW 5.99.0-unknown-ad88874~101~ubuntu20.04.1) date 2020-05-19 21:45:08*
%MOMM*%
%LPD*%
G01*
G04 APERTURE LIST*
%TA.AperFunction,ComponentPad*%
%ADD10R,1.700000X1.700000*%
%TD*%
%TA.AperFunction,ComponentPad*%
%ADD11O,1.700000X1.700000*%
%TD*%
%TA.AperFunction,ViaPad*%
%ADD12C,1.000000*%
%TD*%
%TA.AperFunction,Conductor*%
%ADD13R,6.780000X11.860000*%
%TD*%
%TA.AperFunction,ViaPad*%
%ADD14C,0.800000*%
%TD*%
%TA.AperFunction,Conductor*%
%ADD15C,0.250000*%
%TD*%
%TA.AperFunction,Conductor*%
%ADD16C,2.000000*%
%TD*%
%TA.AperFunction,Conductor*%
%ADD17C,0.254000*%
%TD*%
G04 APERTURE END LIST*
D10*
%TO.P,J1,1,Pin_1*%
%TO.N,/M1_B*%
X106934000Y-131318000D03*
D11*
%TO.P,J1,2,Pin_2*%
%TO.N,/M1_A*%
X104394000Y-131318000D03*
%TO.P,J1,3,Pin_3*%
%TO.N,/M2_B*%
X106934000Y-128778000D03*
%TO.P,J1,4,Pin_4*%
%TO.N,/M2_A*%
X104394000Y-128778000D03*
%TO.P,J1,5,Pin_5*%
%TO.N,GND*%
X106934000Y-126238000D03*
%TO.P,J1,6,Pin_6*%
X104394000Y-126238000D03*
%TO.P,J1,7,Pin_7*%
%TO.N,N/C*%
X106934000Y-123698000D03*
%TO.P,J1,8,Pin_8*%
%TO.N,/IN1_A*%
X104394000Y-123698000D03*
%TO.P,J1,9,Pin_9*%
%TO.N,GND*%
X106934000Y-121158000D03*
%TO.P,J1,10,Pin_10*%
%TO.N,/IN2_A*%
X104394000Y-121158000D03*
%TO.P,J1,11,Pin_11*%
%TO.N,GND*%
X106934000Y-118618000D03*
%TO.P,J1,12,Pin_12*%
%TO.N,/ENA_A*%
X104394000Y-118618000D03*
%TO.P,J1,13,Pin_13*%
%TO.N,GND*%
X106934000Y-116078000D03*
%TO.P,J1,14,Pin_14*%
%TO.N,/IN1_B*%
X104394000Y-116078000D03*
%TO.P,J1,15,Pin_15*%
%TO.N,GND*%
X106934000Y-113538000D03*
%TO.P,J1,16,Pin_16*%
%TO.N,/IN2_B*%
X104394000Y-113538000D03*
%TO.P,J1,17,Pin_17*%
%TO.N,GND*%
X106934000Y-110998000D03*
%TO.P,J1,18,Pin_18*%
%TO.N,/ENA_B*%
X104394000Y-110998000D03*
%TO.P,J1,19,Pin_19*%
%TO.N,GND*%
X106934000Y-108458000D03*
%TO.P,J1,20,Pin_20*%
X104394000Y-108458000D03*
%TO.P,J1,21,Pin_21*%
%TO.N,+12V*%
X106934000Y-105918000D03*
%TO.P,J1,22,Pin_22*%
X104394000Y-105918000D03*
%TO.P,J1,23,Pin_23*%
X106934000Y-103378000D03*
%TO.P,J1,24,Pin_24*%
X104394000Y-103378000D03*
%TD*%
D12*
%TO.N,Net-(U1-Pad21)*%
%TO.C,U1*%
X123698000Y-125216502D03*
X122428000Y-125216502D03*
X121158000Y-125216502D03*
X124968000Y-122676502D03*
X123698000Y-122676502D03*
X122428000Y-122676502D03*
X121158000Y-122676502D03*
X119888000Y-122676502D03*
X124968000Y-120136502D03*
X123698000Y-120136502D03*
X122428000Y-120136502D03*
X121158000Y-120136502D03*
X119888000Y-120136502D03*
X124968000Y-117596502D03*
X123698000Y-117596502D03*
X122428000Y-117596502D03*
X121158000Y-117596502D03*
X119888000Y-117596502D03*
X123698000Y-115056502D03*
X122428000Y-115056502D03*
X121158000Y-115056502D03*
D13*
X122428000Y-120136502D03*
%TD*%
D14*
%TO.N,/IN2_B*%
X113500000Y-119250000D03*
%TO.N,/IN1_B*%
X111750000Y-111750000D03*
X117500000Y-111750000D03*
%TO.N,/ENA_B*%
X112750000Y-111000000D03*
X118147000Y-110774999D03*
%TO.N,GND*%
X109000000Y-123500000D03*
X111000000Y-123500000D03*
%TO.N,/IN1_B*%
X126978598Y-120882598D03*
%TO.N,/IN2_A*%
X113517919Y-126374225D03*
%TO.N,/IN1_A*%
X113686000Y-127360000D03*
%TO.N,/M2_A*%
X114000000Y-117750000D03*
X113250000Y-117000000D03*
X112500000Y-117750000D03*
%TO.N,/IN2_B*%
X128000000Y-120886502D03*
%TO.N,GND*%
X133250000Y-106136502D03*
X133250000Y-113886502D03*
%TO.N,/ENA_B*%
X131000000Y-118636502D03*
%TO.N,/M1_B*%
X114750000Y-131500000D03*
%TO.N,/M2_B*%
X133500000Y-117886502D03*
%TO.N,+12V*%
X117500000Y-115386502D03*
X113750000Y-115386502D03*
X131000000Y-115136502D03*
X127500000Y-115136502D03*
X127500000Y-110886502D03*
X128750000Y-110886502D03*
X128750000Y-108886502D03*
X127750000Y-108886502D03*
%TD*%
D15*
%TO.N,/IN2_B*%
X119500000Y-130000000D02*
X125750000Y-130000000D01*
X116750000Y-122500000D02*
X116750000Y-127250000D01*
X113500000Y-119250000D02*
X116750000Y-122500000D01*
X116750000Y-127250000D02*
X119500000Y-130000000D01*
X125750000Y-130000000D02*
X128000000Y-127750000D01*
X128000000Y-127750000D02*
X128000000Y-120886502D01*
D16*
%TO.N,/M2_B*%
X119111283Y-132750000D02*
X132000000Y-132750000D01*
X115040000Y-128960000D02*
X107000000Y-128960000D01*
X115321283Y-128960000D02*
X119111283Y-132750000D01*
X115040000Y-128960000D02*
X115321283Y-128960000D01*
X133500000Y-127500000D02*
X133500000Y-125750000D01*
X133500000Y-125750000D02*
X133500000Y-117886502D01*
X132000000Y-132750000D02*
X133500000Y-131250000D01*
X133500000Y-131250000D02*
X133500000Y-125750000D01*
D15*
%TO.N,/IN1_B*%
X120750000Y-108611511D02*
X120388489Y-108611511D01*
X126065795Y-109684205D02*
X124993101Y-108611511D01*
X126004091Y-109622501D02*
X126065795Y-109684205D01*
X126065795Y-109684205D02*
X126324989Y-109943399D01*
X124993101Y-108611511D02*
X120750000Y-108611511D01*
X118997501Y-110997501D02*
X118245001Y-111750000D01*
X120388489Y-108611511D02*
X118997501Y-110002499D01*
X118997501Y-110002499D02*
X118997501Y-110997501D01*
X126324989Y-113175011D02*
X126324989Y-109943399D01*
X126324989Y-113175011D02*
X126324989Y-114386989D01*
X118245001Y-111750000D02*
X117500000Y-111750000D01*
%TO.N,/IN1_A*%
X104394000Y-123698000D02*
X105758999Y-125062999D01*
X105758999Y-125062999D02*
X105758999Y-126802001D01*
X105758999Y-126802001D02*
X106369999Y-127413001D01*
X106369999Y-127413001D02*
X113632999Y-127413001D01*
X113632999Y-127413001D02*
X113686000Y-127360000D01*
%TO.N,/IN2_A*%
X112016695Y-124873001D02*
X108123001Y-124873001D01*
X108123001Y-124873001D02*
X106433999Y-124873001D01*
X104394000Y-121158000D02*
X105569001Y-122333001D01*
X105569001Y-122333001D02*
X105569001Y-124072003D01*
X105569001Y-124072003D02*
X106369999Y-124873001D01*
X106369999Y-124873001D02*
X108123001Y-124873001D01*
%TO.N,/IN1_B*%
X111750000Y-111750000D02*
X110926002Y-111750000D01*
X110926002Y-111750000D02*
X107963001Y-114713001D01*
X105758999Y-114713001D02*
X107963001Y-114713001D01*
%TO.N,/ENA_B*%
X108605001Y-112355001D02*
X106435999Y-112355001D01*
X112750000Y-111000000D02*
X109960002Y-111000000D01*
X109960002Y-111000000D02*
X108605001Y-112355001D01*
X118225001Y-110774999D02*
X118225001Y-110120999D01*
X118225001Y-110774999D02*
X118147000Y-110774999D01*
%TO.N,/IN1_B*%
X126324989Y-114386989D02*
X126324989Y-120228989D01*
%TO.N,/ENA_B*%
X120184499Y-108161501D02*
X125179501Y-108161501D01*
X118225001Y-110120999D02*
X120184499Y-108161501D01*
X126774999Y-114328999D02*
X126774999Y-111477001D01*
X125179501Y-108161501D02*
X126774999Y-109756999D01*
X126774999Y-109756999D02*
X126774999Y-111477001D01*
%TO.N,/IN1_B*%
X126324989Y-120228989D02*
X126978598Y-120882598D01*
X104394000Y-116078000D02*
X105758999Y-114713001D01*
%TO.N,/ENA_B*%
X126774999Y-114328999D02*
X126774999Y-115598999D01*
X128100001Y-119036501D02*
X128100001Y-117686001D01*
X128100001Y-116924001D02*
X128100001Y-117686001D01*
X126774999Y-115598999D02*
X128100001Y-116924001D01*
%TO.N,/IN2_A*%
X106433999Y-124873001D02*
X106096499Y-124535501D01*
X106225999Y-124665001D02*
X106096499Y-124535501D01*
X113517919Y-126374225D02*
X112016695Y-124873001D01*
%TO.N,/ENA_B*%
X130600001Y-119036501D02*
X128100001Y-119036501D01*
%TO.N,/IN2_B*%
X128000000Y-120886502D02*
X128000000Y-121063500D01*
%TO.N,/ENA_B*%
X131000000Y-118636502D02*
X130600001Y-119036501D01*
X105830998Y-111750000D02*
X105030000Y-111750000D01*
X105030000Y-111750000D02*
X104460000Y-111180000D01*
X106435999Y-112355001D02*
X105830998Y-111750000D01*
D16*
%TO.N,/M1_B*%
X107000000Y-131500000D02*
X114750000Y-131500000D01*
%TD*%
%TO.N,GND*%
G36*
X107061999Y-120956191D02*
G01*
X107135808Y-121030000D01*
X108326863Y-121030001D01*
X108402373Y-120940488D01*
X108376499Y-120789114D01*
X108373817Y-120778784D01*
X108293723Y-120551343D01*
X108289339Y-120541612D01*
X108201613Y-120384000D01*
X113557786Y-120384000D01*
X115989000Y-122815215D01*
X115989001Y-127149427D01*
X115989001Y-127360489D01*
X115992103Y-127380078D01*
X116007739Y-127428199D01*
X116015057Y-127474405D01*
X115974313Y-127452006D01*
X115962982Y-127447150D01*
X115960639Y-127446407D01*
X115958489Y-127445254D01*
X115947109Y-127440517D01*
X115807969Y-127397977D01*
X115668764Y-127353819D01*
X115656270Y-127351209D01*
X115654332Y-127351005D01*
X115652133Y-127350333D01*
X115640053Y-127347898D01*
X115333182Y-127316725D01*
X115320857Y-127316682D01*
X115243441Y-127324000D01*
X114722000Y-127324000D01*
X114722000Y-127231938D01*
X114719844Y-127215562D01*
X114653554Y-126968165D01*
X114647233Y-126952905D01*
X114519171Y-126731095D01*
X114509116Y-126717991D01*
X114500628Y-126709503D01*
X114551763Y-126518663D01*
X114553919Y-126502287D01*
X114553919Y-126246163D01*
X114551763Y-126229787D01*
X114485473Y-125982390D01*
X114479152Y-125967130D01*
X114351090Y-125745320D01*
X114341035Y-125732216D01*
X114159928Y-125551109D01*
X114146824Y-125541054D01*
X113925014Y-125412992D01*
X113909754Y-125406671D01*
X113662357Y-125340381D01*
X113645981Y-125338225D01*
X113558135Y-125338225D01*
X112633105Y-124413196D01*
X112633102Y-124413192D01*
X112476675Y-124256765D01*
X112460629Y-124245107D01*
X112415542Y-124222134D01*
X112374611Y-124192395D01*
X112356939Y-124183390D01*
X112308821Y-124167756D01*
X112263734Y-124144783D01*
X112244871Y-124138654D01*
X112194888Y-124130738D01*
X112146773Y-124115104D01*
X112127184Y-124112002D01*
X112071886Y-124112002D01*
X112071874Y-124112001D01*
X108363575Y-124112001D01*
X108366272Y-124104787D01*
X108369151Y-124094511D01*
X108414392Y-123857351D01*
X108415507Y-123846128D01*
X108418077Y-123578341D01*
X108417178Y-123567099D01*
X108376499Y-123329114D01*
X108373817Y-123318784D01*
X108293723Y-123091343D01*
X108289339Y-123081612D01*
X108172067Y-122870916D01*
X108166107Y-122862064D01*
X108015013Y-122674140D01*
X108007647Y-122666417D01*
X107827049Y-122506638D01*
X107818486Y-122500267D01*
X107701888Y-122427973D01*
X107795330Y-122372491D01*
X107804012Y-122366286D01*
X107987645Y-122210004D01*
X107995158Y-122202424D01*
X108149833Y-122017435D01*
X108155962Y-122008698D01*
X108277256Y-121800294D01*
X108281825Y-121790650D01*
X108366272Y-121564787D01*
X108369151Y-121554511D01*
X108402943Y-121377370D01*
X108327356Y-121286000D01*
X107135808Y-121285999D01*
X107135807Y-121286000D01*
X106806000Y-121285999D01*
X106806001Y-120384000D01*
X107062000Y-120384000D01*
X107061999Y-120956191D01*
G37*
D17*
X107061999Y-120956191D02*
X107135808Y-121030000D01*
X108326863Y-121030001D01*
X108402373Y-120940488D01*
X108376499Y-120789114D01*
X108373817Y-120778784D01*
X108293723Y-120551343D01*
X108289339Y-120541612D01*
X108201613Y-120384000D01*
X113557786Y-120384000D01*
X115989000Y-122815215D01*
X115989001Y-127149427D01*
X115989001Y-127360489D01*
X115992103Y-127380078D01*
X116007739Y-127428199D01*
X116015057Y-127474405D01*
X115974313Y-127452006D01*
X115962982Y-127447150D01*
X115960639Y-127446407D01*
X115958489Y-127445254D01*
X115947109Y-127440517D01*
X115807969Y-127397977D01*
X115668764Y-127353819D01*
X115656270Y-127351209D01*
X115654332Y-127351005D01*
X115652133Y-127350333D01*
X115640053Y-127347898D01*
X115333182Y-127316725D01*
X115320857Y-127316682D01*
X115243441Y-127324000D01*
X114722000Y-127324000D01*
X114722000Y-127231938D01*
X114719844Y-127215562D01*
X114653554Y-126968165D01*
X114647233Y-126952905D01*
X114519171Y-126731095D01*
X114509116Y-126717991D01*
X114500628Y-126709503D01*
X114551763Y-126518663D01*
X114553919Y-126502287D01*
X114553919Y-126246163D01*
X114551763Y-126229787D01*
X114485473Y-125982390D01*
X114479152Y-125967130D01*
X114351090Y-125745320D01*
X114341035Y-125732216D01*
X114159928Y-125551109D01*
X114146824Y-125541054D01*
X113925014Y-125412992D01*
X113909754Y-125406671D01*
X113662357Y-125340381D01*
X113645981Y-125338225D01*
X113558135Y-125338225D01*
X112633105Y-124413196D01*
X112633102Y-124413192D01*
X112476675Y-124256765D01*
X112460629Y-124245107D01*
X112415542Y-124222134D01*
X112374611Y-124192395D01*
X112356939Y-124183390D01*
X112308821Y-124167756D01*
X112263734Y-124144783D01*
X112244871Y-124138654D01*
X112194888Y-124130738D01*
X112146773Y-124115104D01*
X112127184Y-124112002D01*
X112071886Y-124112002D01*
X112071874Y-124112001D01*
X108363575Y-124112001D01*
X108366272Y-124104787D01*
X108369151Y-124094511D01*
X108414392Y-123857351D01*
X108415507Y-123846128D01*
X108418077Y-123578341D01*
X108417178Y-123567099D01*
X108376499Y-123329114D01*
X108373817Y-123318784D01*
X108293723Y-123091343D01*
X108289339Y-123081612D01*
X108172067Y-122870916D01*
X108166107Y-122862064D01*
X108015013Y-122674140D01*
X108007647Y-122666417D01*
X107827049Y-122506638D01*
X107818486Y-122500267D01*
X107701888Y-122427973D01*
X107795330Y-122372491D01*
X107804012Y-122366286D01*
X107987645Y-122210004D01*
X107995158Y-122202424D01*
X108149833Y-122017435D01*
X108155962Y-122008698D01*
X108277256Y-121800294D01*
X108281825Y-121790650D01*
X108366272Y-121564787D01*
X108369151Y-121554511D01*
X108402943Y-121377370D01*
X108327356Y-121286000D01*
X107135808Y-121285999D01*
X107135807Y-121286000D01*
X106806000Y-121285999D01*
X106806001Y-120384000D01*
X107062000Y-120384000D01*
X107061999Y-120956191D01*
G36*
X112481919Y-126414441D02*
G01*
X112481919Y-126502287D01*
X112484075Y-126518663D01*
X112519803Y-126652001D01*
X108363575Y-126652001D01*
X108366272Y-126644788D01*
X108369151Y-126634511D01*
X108402943Y-126457370D01*
X108327356Y-126366000D01*
X107135808Y-126365999D01*
X107135807Y-126366000D01*
X106519999Y-126365999D01*
X106519999Y-126110001D01*
X106732192Y-126110001D01*
X106732193Y-126110000D01*
X108326863Y-126110001D01*
X108402373Y-126020488D01*
X108376499Y-125869114D01*
X108373817Y-125858784D01*
X108294659Y-125634001D01*
X111701480Y-125634001D01*
X112481919Y-126414441D01*
G37*
X112481919Y-126414441D02*
X112481919Y-126502287D01*
X112484075Y-126518663D01*
X112519803Y-126652001D01*
X108363575Y-126652001D01*
X108366272Y-126644788D01*
X108369151Y-126634511D01*
X108402943Y-126457370D01*
X108327356Y-126366000D01*
X107135808Y-126365999D01*
X107135807Y-126366000D01*
X106519999Y-126365999D01*
X106519999Y-126110001D01*
X106732192Y-126110001D01*
X106732193Y-126110000D01*
X108326863Y-126110001D01*
X108402373Y-126020488D01*
X108376499Y-125869114D01*
X108373817Y-125858784D01*
X108294659Y-125634001D01*
X111701480Y-125634001D01*
X112481919Y-126414441D01*
G36*
X104997999Y-126110001D02*
G01*
X104998000Y-126366000D01*
X104266000Y-126365999D01*
X104266001Y-126110000D01*
X104997999Y-126110001D01*
G37*
X104997999Y-126110001D02*
X104998000Y-126366000D01*
X104266000Y-126365999D01*
X104266001Y-126110000D01*
X104997999Y-126110001D01*
G36*
X133672301Y-100634008D02*
G01*
X133681522Y-100635584D01*
X133692609Y-100636641D01*
X133692988Y-100636676D01*
X133857710Y-100651376D01*
X133962013Y-100679911D01*
X134059615Y-100726465D01*
X134147434Y-100789569D01*
X134222686Y-100867225D01*
X134283003Y-100956985D01*
X134326466Y-101055995D01*
X134352890Y-101166060D01*
X134362821Y-101301288D01*
X134364111Y-101310160D01*
X134366001Y-101318792D01*
X134366001Y-116494840D01*
X134142488Y-116373987D01*
X134131126Y-116369211D01*
X133836469Y-116278000D01*
X133824396Y-116275521D01*
X133517635Y-116243279D01*
X133505310Y-116243193D01*
X133198129Y-116271149D01*
X133186023Y-116273458D01*
X132890121Y-116360546D01*
X132878694Y-116365163D01*
X132605344Y-116508067D01*
X132595030Y-116514816D01*
X132354643Y-116708093D01*
X132345838Y-116716716D01*
X132147568Y-116953003D01*
X132140605Y-116963173D01*
X131992008Y-117233471D01*
X131987152Y-117244800D01*
X131893820Y-117539022D01*
X131891209Y-117551517D01*
X131864346Y-117807101D01*
X131864001Y-117813691D01*
X131864001Y-118060996D01*
X131833171Y-118007597D01*
X131823116Y-117994493D01*
X131642009Y-117813386D01*
X131628905Y-117803331D01*
X131407095Y-117675269D01*
X131391835Y-117668948D01*
X131144438Y-117602658D01*
X131128062Y-117600502D01*
X130871938Y-117600502D01*
X130855562Y-117602658D01*
X130608165Y-117668948D01*
X130592905Y-117675269D01*
X130371095Y-117803331D01*
X130357991Y-117813386D01*
X130176884Y-117994493D01*
X130166829Y-118007597D01*
X130038767Y-118229407D01*
X130032446Y-118244667D01*
X130024184Y-118275501D01*
X128884000Y-118275501D01*
X128884000Y-116884000D01*
X131756754Y-116884000D01*
X131770184Y-116882556D01*
X131998832Y-116832817D01*
X132019666Y-116824187D01*
X132158371Y-116735047D01*
X132171992Y-116723244D01*
X132278483Y-116600348D01*
X132288227Y-116585185D01*
X132355779Y-116437265D01*
X132360857Y-116419972D01*
X132383358Y-116263478D01*
X132384000Y-116254500D01*
X132384000Y-100634000D01*
X133672269Y-100634000D01*
X133672301Y-100634008D01*
G37*
X133672301Y-100634008D02*
X133681522Y-100635584D01*
X133692609Y-100636641D01*
X133692988Y-100636676D01*
X133857710Y-100651376D01*
X133962013Y-100679911D01*
X134059615Y-100726465D01*
X134147434Y-100789569D01*
X134222686Y-100867225D01*
X134283003Y-100956985D01*
X134326466Y-101055995D01*
X134352890Y-101166060D01*
X134362821Y-101301288D01*
X134364111Y-101310160D01*
X134366001Y-101318792D01*
X134366001Y-116494840D01*
X134142488Y-116373987D01*
X134131126Y-116369211D01*
X133836469Y-116278000D01*
X133824396Y-116275521D01*
X133517635Y-116243279D01*
X133505310Y-116243193D01*
X133198129Y-116271149D01*
X133186023Y-116273458D01*
X132890121Y-116360546D01*
X132878694Y-116365163D01*
X132605344Y-116508067D01*
X132595030Y-116514816D01*
X132354643Y-116708093D01*
X132345838Y-116716716D01*
X132147568Y-116953003D01*
X132140605Y-116963173D01*
X131992008Y-117233471D01*
X131987152Y-117244800D01*
X131893820Y-117539022D01*
X131891209Y-117551517D01*
X131864346Y-117807101D01*
X131864001Y-117813691D01*
X131864001Y-118060996D01*
X131833171Y-118007597D01*
X131823116Y-117994493D01*
X131642009Y-117813386D01*
X131628905Y-117803331D01*
X131407095Y-117675269D01*
X131391835Y-117668948D01*
X131144438Y-117602658D01*
X131128062Y-117600502D01*
X130871938Y-117600502D01*
X130855562Y-117602658D01*
X130608165Y-117668948D01*
X130592905Y-117675269D01*
X130371095Y-117803331D01*
X130357991Y-117813386D01*
X130176884Y-117994493D01*
X130166829Y-118007597D01*
X130038767Y-118229407D01*
X130032446Y-118244667D01*
X130024184Y-118275501D01*
X128884000Y-118275501D01*
X128884000Y-116884000D01*
X131756754Y-116884000D01*
X131770184Y-116882556D01*
X131998832Y-116832817D01*
X132019666Y-116824187D01*
X132158371Y-116735047D01*
X132171992Y-116723244D01*
X132278483Y-116600348D01*
X132288227Y-116585185D01*
X132355779Y-116437265D01*
X132360857Y-116419972D01*
X132383358Y-116263478D01*
X132384000Y-116254500D01*
X132384000Y-100634000D01*
X133672269Y-100634000D01*
X133672301Y-100634008D01*
G36*
X102918085Y-108231233D02*
G01*
X102993734Y-108330000D01*
X104192192Y-108330001D01*
X104192193Y-108330000D01*
X105588191Y-108330001D01*
X105588192Y-108330000D01*
X106732192Y-108330001D01*
X106732193Y-108330000D01*
X108326863Y-108330001D01*
X108402373Y-108240488D01*
X108384171Y-108134000D01*
X112616000Y-108134000D01*
X112616000Y-109964782D01*
X112605562Y-109966156D01*
X112358165Y-110032446D01*
X112342905Y-110038767D01*
X112121095Y-110166829D01*
X112107991Y-110176884D01*
X112045876Y-110239000D01*
X109904823Y-110239000D01*
X109904811Y-110239001D01*
X109849512Y-110239001D01*
X109829924Y-110242103D01*
X109781810Y-110257736D01*
X109731825Y-110265653D01*
X109712964Y-110271782D01*
X109667881Y-110294753D01*
X109619756Y-110310390D01*
X109602084Y-110319394D01*
X109561146Y-110349138D01*
X109516068Y-110372106D01*
X109500023Y-110383763D01*
X109457231Y-110426556D01*
X108298956Y-111584832D01*
X108366272Y-111404787D01*
X108369151Y-111394511D01*
X108402943Y-111217370D01*
X108327356Y-111126000D01*
X107135809Y-111125999D01*
X107062000Y-111199808D01*
X107061999Y-111594001D01*
X106806001Y-111594001D01*
X106806001Y-111199808D01*
X106806000Y-111199807D01*
X106806001Y-109803809D01*
X106806000Y-109803808D01*
X106806000Y-109652191D01*
X107061999Y-109652191D01*
X107062000Y-109652192D01*
X107061999Y-110796191D01*
X107135808Y-110870000D01*
X108326863Y-110870001D01*
X108402373Y-110780488D01*
X108376499Y-110629114D01*
X108373817Y-110618784D01*
X108293723Y-110391343D01*
X108289339Y-110381612D01*
X108172067Y-110170916D01*
X108166107Y-110162064D01*
X108015013Y-109974140D01*
X108007647Y-109966417D01*
X107827049Y-109806638D01*
X107818486Y-109800267D01*
X107701888Y-109727973D01*
X107795330Y-109672491D01*
X107804012Y-109666286D01*
X107987645Y-109510004D01*
X107995158Y-109502424D01*
X108149833Y-109317435D01*
X108155962Y-109308698D01*
X108277256Y-109100294D01*
X108281825Y-109090650D01*
X108366272Y-108864787D01*
X108369151Y-108854511D01*
X108402943Y-108677370D01*
X108327356Y-108586000D01*
X107135809Y-108585999D01*
X107062000Y-108659808D01*
X107061999Y-109652191D01*
X106806000Y-109652191D01*
X106806001Y-108659809D01*
X106732192Y-108586000D01*
X105739809Y-108585999D01*
X105739808Y-108586000D01*
X104595808Y-108585999D01*
X104595807Y-108586000D01*
X102996272Y-108585999D01*
X102920602Y-108682852D01*
X102983221Y-108934005D01*
X102986669Y-108944104D01*
X103083591Y-109164900D01*
X103088692Y-109174275D01*
X103221430Y-109375584D01*
X103228038Y-109383965D01*
X103392798Y-109560032D01*
X103400722Y-109567180D01*
X103592792Y-109712968D01*
X103601808Y-109718679D01*
X103618166Y-109727194D01*
X103617032Y-109727882D01*
X103422199Y-109869957D01*
X103414138Y-109876952D01*
X103246029Y-110049822D01*
X103239263Y-110058074D01*
X103102683Y-110256798D01*
X103097403Y-110266073D01*
X102996260Y-110484968D01*
X102992618Y-110495000D01*
X102929802Y-110727807D01*
X102927903Y-110738309D01*
X102905211Y-110978372D01*
X102905109Y-110989043D01*
X102923188Y-111229497D01*
X102924885Y-111240034D01*
X102983221Y-111474005D01*
X102986669Y-111484104D01*
X103083591Y-111704900D01*
X103088692Y-111714275D01*
X103221430Y-111915584D01*
X103228038Y-111923965D01*
X103392798Y-112100032D01*
X103400722Y-112107180D01*
X103592792Y-112252968D01*
X103601808Y-112258679D01*
X103618166Y-112267194D01*
X103617032Y-112267882D01*
X103422199Y-112409957D01*
X103414138Y-112416952D01*
X103246029Y-112589822D01*
X103239263Y-112598074D01*
X103102683Y-112796798D01*
X103097403Y-112806073D01*
X102996260Y-113024968D01*
X102992618Y-113035000D01*
X102929802Y-113267807D01*
X102927903Y-113278309D01*
X102905211Y-113518372D01*
X102905109Y-113529043D01*
X102923188Y-113769497D01*
X102924885Y-113780034D01*
X102983221Y-114014005D01*
X102986669Y-114024104D01*
X103083591Y-114244900D01*
X103088692Y-114254275D01*
X103221430Y-114455584D01*
X103228038Y-114463965D01*
X103392798Y-114640032D01*
X103400722Y-114647180D01*
X103592792Y-114792968D01*
X103601808Y-114798679D01*
X103618166Y-114807194D01*
X103617032Y-114807882D01*
X103422199Y-114949957D01*
X103414138Y-114956952D01*
X103259470Y-115116000D01*
X100634000Y-115116000D01*
X100634000Y-108134000D01*
X102944320Y-108134000D01*
X102918085Y-108231233D01*
G37*
X102918085Y-108231233D02*
X102993734Y-108330000D01*
X104192192Y-108330001D01*
X104192193Y-108330000D01*
X105588191Y-108330001D01*
X105588192Y-108330000D01*
X106732192Y-108330001D01*
X106732193Y-108330000D01*
X108326863Y-108330001D01*
X108402373Y-108240488D01*
X108384171Y-108134000D01*
X112616000Y-108134000D01*
X112616000Y-109964782D01*
X112605562Y-109966156D01*
X112358165Y-110032446D01*
X112342905Y-110038767D01*
X112121095Y-110166829D01*
X112107991Y-110176884D01*
X112045876Y-110239000D01*
X109904823Y-110239000D01*
X109904811Y-110239001D01*
X109849512Y-110239001D01*
X109829924Y-110242103D01*
X109781810Y-110257736D01*
X109731825Y-110265653D01*
X109712964Y-110271782D01*
X109667881Y-110294753D01*
X109619756Y-110310390D01*
X109602084Y-110319394D01*
X109561146Y-110349138D01*
X109516068Y-110372106D01*
X109500023Y-110383763D01*
X109457231Y-110426556D01*
X108298956Y-111584832D01*
X108366272Y-111404787D01*
X108369151Y-111394511D01*
X108402943Y-111217370D01*
X108327356Y-111126000D01*
X107135809Y-111125999D01*
X107062000Y-111199808D01*
X107061999Y-111594001D01*
X106806001Y-111594001D01*
X106806001Y-111199808D01*
X106806000Y-111199807D01*
X106806001Y-109803809D01*
X106806000Y-109803808D01*
X106806000Y-109652191D01*
X107061999Y-109652191D01*
X107062000Y-109652192D01*
X107061999Y-110796191D01*
X107135808Y-110870000D01*
X108326863Y-110870001D01*
X108402373Y-110780488D01*
X108376499Y-110629114D01*
X108373817Y-110618784D01*
X108293723Y-110391343D01*
X108289339Y-110381612D01*
X108172067Y-110170916D01*
X108166107Y-110162064D01*
X108015013Y-109974140D01*
X108007647Y-109966417D01*
X107827049Y-109806638D01*
X107818486Y-109800267D01*
X107701888Y-109727973D01*
X107795330Y-109672491D01*
X107804012Y-109666286D01*
X107987645Y-109510004D01*
X107995158Y-109502424D01*
X108149833Y-109317435D01*
X108155962Y-109308698D01*
X108277256Y-109100294D01*
X108281825Y-109090650D01*
X108366272Y-108864787D01*
X108369151Y-108854511D01*
X108402943Y-108677370D01*
X108327356Y-108586000D01*
X107135809Y-108585999D01*
X107062000Y-108659808D01*
X107061999Y-109652191D01*
X106806000Y-109652191D01*
X106806001Y-108659809D01*
X106732192Y-108586000D01*
X105739809Y-108585999D01*
X105739808Y-108586000D01*
X104595808Y-108585999D01*
X104595807Y-108586000D01*
X102996272Y-108585999D01*
X102920602Y-108682852D01*
X102983221Y-108934005D01*
X102986669Y-108944104D01*
X103083591Y-109164900D01*
X103088692Y-109174275D01*
X103221430Y-109375584D01*
X103228038Y-109383965D01*
X103392798Y-109560032D01*
X103400722Y-109567180D01*
X103592792Y-109712968D01*
X103601808Y-109718679D01*
X103618166Y-109727194D01*
X103617032Y-109727882D01*
X103422199Y-109869957D01*
X103414138Y-109876952D01*
X103246029Y-110049822D01*
X103239263Y-110058074D01*
X103102683Y-110256798D01*
X103097403Y-110266073D01*
X102996260Y-110484968D01*
X102992618Y-110495000D01*
X102929802Y-110727807D01*
X102927903Y-110738309D01*
X102905211Y-110978372D01*
X102905109Y-110989043D01*
X102923188Y-111229497D01*
X102924885Y-111240034D01*
X102983221Y-111474005D01*
X102986669Y-111484104D01*
X103083591Y-111704900D01*
X103088692Y-111714275D01*
X103221430Y-111915584D01*
X103228038Y-111923965D01*
X103392798Y-112100032D01*
X103400722Y-112107180D01*
X103592792Y-112252968D01*
X103601808Y-112258679D01*
X103618166Y-112267194D01*
X103617032Y-112267882D01*
X103422199Y-112409957D01*
X103414138Y-112416952D01*
X103246029Y-112589822D01*
X103239263Y-112598074D01*
X103102683Y-112796798D01*
X103097403Y-112806073D01*
X102996260Y-113024968D01*
X102992618Y-113035000D01*
X102929802Y-113267807D01*
X102927903Y-113278309D01*
X102905211Y-113518372D01*
X102905109Y-113529043D01*
X102923188Y-113769497D01*
X102924885Y-113780034D01*
X102983221Y-114014005D01*
X102986669Y-114024104D01*
X103083591Y-114244900D01*
X103088692Y-114254275D01*
X103221430Y-114455584D01*
X103228038Y-114463965D01*
X103392798Y-114640032D01*
X103400722Y-114647180D01*
X103592792Y-114792968D01*
X103601808Y-114798679D01*
X103618166Y-114807194D01*
X103617032Y-114807882D01*
X103422199Y-114949957D01*
X103414138Y-114956952D01*
X103259470Y-115116000D01*
X100634000Y-115116000D01*
X100634000Y-108134000D01*
X102944320Y-108134000D01*
X102918085Y-108231233D01*
G36*
X107061999Y-113336192D02*
G01*
X107062000Y-113336193D01*
X107061999Y-113952001D01*
X106806001Y-113952001D01*
X106806001Y-113739808D01*
X106806000Y-113739807D01*
X106806001Y-113116001D01*
X107061999Y-113116001D01*
X107061999Y-113336192D01*
G37*
X107061999Y-113336192D02*
X107062000Y-113336193D01*
X107061999Y-113952001D01*
X106806001Y-113952001D01*
X106806001Y-113739808D01*
X106806000Y-113739807D01*
X106806001Y-113116001D01*
X107061999Y-113116001D01*
X107061999Y-113336192D01*
%TO.N,+12V*%
G36*
X131624000Y-116124000D02*
G01*
X128376216Y-116124000D01*
X127535999Y-115283784D01*
X127535999Y-109701820D01*
X127535998Y-109701808D01*
X127535998Y-109646509D01*
X127532896Y-109626921D01*
X127517263Y-109578807D01*
X127509346Y-109528822D01*
X127503217Y-109509961D01*
X127480246Y-109464878D01*
X127464609Y-109416753D01*
X127455605Y-109399081D01*
X127425861Y-109358143D01*
X127402893Y-109313065D01*
X127391236Y-109297020D01*
X127126000Y-109031785D01*
X127126000Y-107447809D01*
X127052191Y-107374000D01*
X117947809Y-107374000D01*
X117874000Y-107447809D01*
X117874000Y-109395786D01*
X117608766Y-109661019D01*
X117597109Y-109677063D01*
X117574137Y-109722147D01*
X117544394Y-109763084D01*
X117535390Y-109780756D01*
X117519756Y-109828874D01*
X117496783Y-109873959D01*
X117490654Y-109892822D01*
X117482738Y-109942806D01*
X117467658Y-109989217D01*
X117323884Y-110132990D01*
X117313829Y-110146094D01*
X117185767Y-110367904D01*
X117179446Y-110383164D01*
X117113156Y-110630561D01*
X117111000Y-110646937D01*
X117111000Y-110781686D01*
X117108164Y-110782446D01*
X117092905Y-110788767D01*
X116871095Y-110916829D01*
X116857991Y-110926884D01*
X116676884Y-111107991D01*
X116666829Y-111121095D01*
X116538767Y-111342905D01*
X116532446Y-111358165D01*
X116466156Y-111605562D01*
X116464000Y-111621938D01*
X116464000Y-111878062D01*
X116466156Y-111894438D01*
X116532446Y-112141835D01*
X116538767Y-112157095D01*
X116666829Y-112378905D01*
X116676884Y-112392009D01*
X116857991Y-112573116D01*
X116871095Y-112583171D01*
X117092905Y-112711233D01*
X117108165Y-112717554D01*
X117355562Y-112783844D01*
X117371938Y-112786000D01*
X117628062Y-112786000D01*
X117644438Y-112783844D01*
X117874000Y-112722333D01*
X117874000Y-116124000D01*
X113804722Y-116124000D01*
X113657095Y-116038767D01*
X113641835Y-116032446D01*
X113394438Y-115966156D01*
X113378062Y-115964000D01*
X113376000Y-115964000D01*
X113376000Y-111834848D01*
X113378905Y-111833171D01*
X113392009Y-111823116D01*
X113573116Y-111642009D01*
X113583171Y-111628905D01*
X113711233Y-111407095D01*
X113717554Y-111391835D01*
X113783844Y-111144438D01*
X113786000Y-111128062D01*
X113786000Y-110871938D01*
X113783844Y-110855562D01*
X113717554Y-110608165D01*
X113711233Y-110592905D01*
X113583171Y-110371095D01*
X113573116Y-110357991D01*
X113392009Y-110176884D01*
X113378905Y-110166829D01*
X113376000Y-110165152D01*
X113376000Y-107447809D01*
X113302191Y-107374000D01*
X107948399Y-107374000D01*
X107827049Y-107266638D01*
X107818486Y-107260267D01*
X107613549Y-107133202D01*
X107604036Y-107128365D01*
X107380619Y-107037645D01*
X107370427Y-107034480D01*
X107134919Y-106982700D01*
X107124340Y-106981298D01*
X106883475Y-106969939D01*
X106872809Y-106970339D01*
X106633474Y-106999727D01*
X106623030Y-107001918D01*
X106392068Y-107071210D01*
X106382142Y-107075130D01*
X106166155Y-107182346D01*
X106157032Y-107187882D01*
X105962199Y-107329957D01*
X105954138Y-107336952D01*
X105918110Y-107374000D01*
X105408399Y-107374000D01*
X105287049Y-107266638D01*
X105278486Y-107260267D01*
X105073549Y-107133202D01*
X105064036Y-107128365D01*
X104840619Y-107037645D01*
X104830427Y-107034480D01*
X104594919Y-106982700D01*
X104584340Y-106981298D01*
X104343475Y-106969939D01*
X104332809Y-106970339D01*
X104093474Y-106999727D01*
X104083030Y-107001918D01*
X103852068Y-107071210D01*
X103842142Y-107075130D01*
X103626155Y-107182346D01*
X103617032Y-107187882D01*
X103422199Y-107329957D01*
X103414138Y-107336952D01*
X103378110Y-107374000D01*
X100634000Y-107374000D01*
X100634000Y-101327731D01*
X100634008Y-101327699D01*
X100635584Y-101318478D01*
X100636641Y-101307391D01*
X100636676Y-101307012D01*
X100651376Y-101142290D01*
X100679911Y-101037987D01*
X100726465Y-100940385D01*
X100789569Y-100852566D01*
X100867225Y-100777314D01*
X100956985Y-100716997D01*
X101055995Y-100673534D01*
X101166060Y-100647110D01*
X101301288Y-100637179D01*
X101310160Y-100635889D01*
X101318787Y-100634000D01*
X131624000Y-100634000D01*
X131624000Y-116124000D01*
G37*
X131624000Y-116124000D02*
X128376216Y-116124000D01*
X127535999Y-115283784D01*
X127535999Y-109701820D01*
X127535998Y-109701808D01*
X127535998Y-109646509D01*
X127532896Y-109626921D01*
X127517263Y-109578807D01*
X127509346Y-109528822D01*
X127503217Y-109509961D01*
X127480246Y-109464878D01*
X127464609Y-109416753D01*
X127455605Y-109399081D01*
X127425861Y-109358143D01*
X127402893Y-109313065D01*
X127391236Y-109297020D01*
X127126000Y-109031785D01*
X127126000Y-107447809D01*
X127052191Y-107374000D01*
X117947809Y-107374000D01*
X117874000Y-107447809D01*
X117874000Y-109395786D01*
X117608766Y-109661019D01*
X117597109Y-109677063D01*
X117574137Y-109722147D01*
X117544394Y-109763084D01*
X117535390Y-109780756D01*
X117519756Y-109828874D01*
X117496783Y-109873959D01*
X117490654Y-109892822D01*
X117482738Y-109942806D01*
X117467658Y-109989217D01*
X117323884Y-110132990D01*
X117313829Y-110146094D01*
X117185767Y-110367904D01*
X117179446Y-110383164D01*
X117113156Y-110630561D01*
X117111000Y-110646937D01*
X117111000Y-110781686D01*
X117108164Y-110782446D01*
X117092905Y-110788767D01*
X116871095Y-110916829D01*
X116857991Y-110926884D01*
X116676884Y-111107991D01*
X116666829Y-111121095D01*
X116538767Y-111342905D01*
X116532446Y-111358165D01*
X116466156Y-111605562D01*
X116464000Y-111621938D01*
X116464000Y-111878062D01*
X116466156Y-111894438D01*
X116532446Y-112141835D01*
X116538767Y-112157095D01*
X116666829Y-112378905D01*
X116676884Y-112392009D01*
X116857991Y-112573116D01*
X116871095Y-112583171D01*
X117092905Y-112711233D01*
X117108165Y-112717554D01*
X117355562Y-112783844D01*
X117371938Y-112786000D01*
X117628062Y-112786000D01*
X117644438Y-112783844D01*
X117874000Y-112722333D01*
X117874000Y-116124000D01*
X113804722Y-116124000D01*
X113657095Y-116038767D01*
X113641835Y-116032446D01*
X113394438Y-115966156D01*
X113378062Y-115964000D01*
X113376000Y-115964000D01*
X113376000Y-111834848D01*
X113378905Y-111833171D01*
X113392009Y-111823116D01*
X113573116Y-111642009D01*
X113583171Y-111628905D01*
X113711233Y-111407095D01*
X113717554Y-111391835D01*
X113783844Y-111144438D01*
X113786000Y-111128062D01*
X113786000Y-110871938D01*
X113783844Y-110855562D01*
X113717554Y-110608165D01*
X113711233Y-110592905D01*
X113583171Y-110371095D01*
X113573116Y-110357991D01*
X113392009Y-110176884D01*
X113378905Y-110166829D01*
X113376000Y-110165152D01*
X113376000Y-107447809D01*
X113302191Y-107374000D01*
X107948399Y-107374000D01*
X107827049Y-107266638D01*
X107818486Y-107260267D01*
X107613549Y-107133202D01*
X107604036Y-107128365D01*
X107380619Y-107037645D01*
X107370427Y-107034480D01*
X107134919Y-106982700D01*
X107124340Y-106981298D01*
X106883475Y-106969939D01*
X106872809Y-106970339D01*
X106633474Y-106999727D01*
X106623030Y-107001918D01*
X106392068Y-107071210D01*
X106382142Y-107075130D01*
X106166155Y-107182346D01*
X106157032Y-107187882D01*
X105962199Y-107329957D01*
X105954138Y-107336952D01*
X105918110Y-107374000D01*
X105408399Y-107374000D01*
X105287049Y-107266638D01*
X105278486Y-107260267D01*
X105073549Y-107133202D01*
X105064036Y-107128365D01*
X104840619Y-107037645D01*
X104830427Y-107034480D01*
X104594919Y-106982700D01*
X104584340Y-106981298D01*
X104343475Y-106969939D01*
X104332809Y-106970339D01*
X104093474Y-106999727D01*
X104083030Y-107001918D01*
X103852068Y-107071210D01*
X103842142Y-107075130D01*
X103626155Y-107182346D01*
X103617032Y-107187882D01*
X103422199Y-107329957D01*
X103414138Y-107336952D01*
X103378110Y-107374000D01*
X100634000Y-107374000D01*
X100634000Y-101327731D01*
X100634008Y-101327699D01*
X100635584Y-101318478D01*
X100636641Y-101307391D01*
X100636676Y-101307012D01*
X100651376Y-101142290D01*
X100679911Y-101037987D01*
X100726465Y-100940385D01*
X100789569Y-100852566D01*
X100867225Y-100777314D01*
X100956985Y-100716997D01*
X101055995Y-100673534D01*
X101166060Y-100647110D01*
X101301288Y-100637179D01*
X101310160Y-100635889D01*
X101318787Y-100634000D01*
X131624000Y-100634000D01*
X131624000Y-116124000D01*
%TO.N,Net-(U1-Pad21)*%
G36*
X125563990Y-110258617D02*
G01*
X125563989Y-113125037D01*
X125563989Y-113125038D01*
X125563990Y-114331799D01*
X125563989Y-114331811D01*
X125563990Y-120128416D01*
X125563990Y-120339478D01*
X125567092Y-120359067D01*
X125582728Y-120407188D01*
X125590643Y-120457166D01*
X125596772Y-120476029D01*
X125619742Y-120521107D01*
X125635378Y-120569232D01*
X125644382Y-120586904D01*
X125674127Y-120627845D01*
X125697097Y-120672924D01*
X125708754Y-120688969D01*
X125942598Y-120922812D01*
X125942598Y-121010660D01*
X125944754Y-121027036D01*
X126011044Y-121274433D01*
X126017365Y-121289693D01*
X126145427Y-121511503D01*
X126155482Y-121524607D01*
X126336589Y-121705714D01*
X126349693Y-121715769D01*
X126571503Y-121843831D01*
X126586763Y-121850152D01*
X126834160Y-121916442D01*
X126850536Y-121918598D01*
X127106660Y-121918598D01*
X127123036Y-121916442D01*
X127239001Y-121885369D01*
X127239000Y-127434783D01*
X125434785Y-129239000D01*
X119815216Y-129239000D01*
X117511000Y-126934786D01*
X117511000Y-122444821D01*
X117510999Y-122444809D01*
X117510999Y-122389509D01*
X117507896Y-122369921D01*
X117492263Y-122321806D01*
X117484347Y-122271823D01*
X117478218Y-122252960D01*
X117455243Y-122207871D01*
X117439610Y-122159755D01*
X117430606Y-122142083D01*
X117400865Y-122101148D01*
X117377894Y-122056066D01*
X117366236Y-122040020D01*
X116876000Y-121549785D01*
X116876000Y-116884000D01*
X118006754Y-116884000D01*
X118020184Y-116882556D01*
X118248832Y-116832817D01*
X118269666Y-116824187D01*
X118408371Y-116735047D01*
X118421992Y-116723244D01*
X118528483Y-116600348D01*
X118538227Y-116585185D01*
X118605779Y-116437265D01*
X118610857Y-116419972D01*
X118633358Y-116263478D01*
X118634000Y-116254500D01*
X118634000Y-112408023D01*
X118643852Y-112400865D01*
X118688935Y-112377894D01*
X118704981Y-112366236D01*
X118854225Y-112216991D01*
X119574107Y-111497112D01*
X119574120Y-111497097D01*
X119613737Y-111457481D01*
X119625395Y-111441435D01*
X119648367Y-111396351D01*
X119678107Y-111355417D01*
X119687111Y-111337747D01*
X119702746Y-111289628D01*
X119725719Y-111244540D01*
X119731847Y-111225678D01*
X119739764Y-111175696D01*
X119755398Y-111127581D01*
X119758500Y-111107992D01*
X119758500Y-111052692D01*
X119758501Y-111052680D01*
X119758501Y-110317713D01*
X120703704Y-109372511D01*
X124677886Y-109372511D01*
X125563990Y-110258617D01*
G37*
X125563990Y-110258617D02*
X125563989Y-113125037D01*
X125563989Y-113125038D01*
X125563990Y-114331799D01*
X125563989Y-114331811D01*
X125563990Y-120128416D01*
X125563990Y-120339478D01*
X125567092Y-120359067D01*
X125582728Y-120407188D01*
X125590643Y-120457166D01*
X125596772Y-120476029D01*
X125619742Y-120521107D01*
X125635378Y-120569232D01*
X125644382Y-120586904D01*
X125674127Y-120627845D01*
X125697097Y-120672924D01*
X125708754Y-120688969D01*
X125942598Y-120922812D01*
X125942598Y-121010660D01*
X125944754Y-121027036D01*
X126011044Y-121274433D01*
X126017365Y-121289693D01*
X126145427Y-121511503D01*
X126155482Y-121524607D01*
X126336589Y-121705714D01*
X126349693Y-121715769D01*
X126571503Y-121843831D01*
X126586763Y-121850152D01*
X126834160Y-121916442D01*
X126850536Y-121918598D01*
X127106660Y-121918598D01*
X127123036Y-121916442D01*
X127239001Y-121885369D01*
X127239000Y-127434783D01*
X125434785Y-129239000D01*
X119815216Y-129239000D01*
X117511000Y-126934786D01*
X117511000Y-122444821D01*
X117510999Y-122444809D01*
X117510999Y-122389509D01*
X117507896Y-122369921D01*
X117492263Y-122321806D01*
X117484347Y-122271823D01*
X117478218Y-122252960D01*
X117455243Y-122207871D01*
X117439610Y-122159755D01*
X117430606Y-122142083D01*
X117400865Y-122101148D01*
X117377894Y-122056066D01*
X117366236Y-122040020D01*
X116876000Y-121549785D01*
X116876000Y-116884000D01*
X118006754Y-116884000D01*
X118020184Y-116882556D01*
X118248832Y-116832817D01*
X118269666Y-116824187D01*
X118408371Y-116735047D01*
X118421992Y-116723244D01*
X118528483Y-116600348D01*
X118538227Y-116585185D01*
X118605779Y-116437265D01*
X118610857Y-116419972D01*
X118633358Y-116263478D01*
X118634000Y-116254500D01*
X118634000Y-112408023D01*
X118643852Y-112400865D01*
X118688935Y-112377894D01*
X118704981Y-112366236D01*
X118854225Y-112216991D01*
X119574107Y-111497112D01*
X119574120Y-111497097D01*
X119613737Y-111457481D01*
X119625395Y-111441435D01*
X119648367Y-111396351D01*
X119678107Y-111355417D01*
X119687111Y-111337747D01*
X119702746Y-111289628D01*
X119725719Y-111244540D01*
X119731847Y-111225678D01*
X119739764Y-111175696D01*
X119755398Y-111127581D01*
X119758500Y-111107992D01*
X119758500Y-111052692D01*
X119758501Y-111052680D01*
X119758501Y-110317713D01*
X120703704Y-109372511D01*
X124677886Y-109372511D01*
X125563990Y-110258617D01*
%TO.N,/M2_A*%
G36*
X103220967Y-115940221D02*
G01*
X103219593Y-115952470D01*
X103216546Y-116170690D01*
X103217578Y-116182971D01*
X103256974Y-116397626D01*
X103260372Y-116409473D01*
X103340712Y-116612388D01*
X103346345Y-116623350D01*
X103464568Y-116806796D01*
X103472223Y-116816455D01*
X103623826Y-116973444D01*
X103633212Y-116981432D01*
X103812419Y-117105985D01*
X103823178Y-117111998D01*
X104023165Y-117199370D01*
X104034887Y-117203178D01*
X104248036Y-117250042D01*
X104260274Y-117251501D01*
X104478467Y-117256071D01*
X104490756Y-117255126D01*
X104705680Y-117217230D01*
X104717552Y-117213915D01*
X104921022Y-117134993D01*
X104932023Y-117129436D01*
X105116289Y-117012497D01*
X105126001Y-117004909D01*
X105284045Y-116854407D01*
X105292098Y-116845077D01*
X105417899Y-116666743D01*
X105423987Y-116656026D01*
X105512753Y-116456654D01*
X105516644Y-116444959D01*
X105565092Y-116231713D01*
X105566655Y-116218599D01*
X105570125Y-115970199D01*
X105568928Y-115957046D01*
X105552880Y-115876000D01*
X105774618Y-115876000D01*
X105760967Y-115940221D01*
X105759593Y-115952470D01*
X105756546Y-116170690D01*
X105757578Y-116182971D01*
X105796974Y-116397626D01*
X105800372Y-116409473D01*
X105880712Y-116612388D01*
X105886345Y-116623350D01*
X106004568Y-116806796D01*
X106012223Y-116816455D01*
X106163826Y-116973444D01*
X106173212Y-116981432D01*
X106352419Y-117105985D01*
X106363178Y-117111998D01*
X106563165Y-117199370D01*
X106574887Y-117203178D01*
X106788036Y-117250042D01*
X106800274Y-117251501D01*
X107018467Y-117256071D01*
X107030756Y-117255126D01*
X107245680Y-117217230D01*
X107257552Y-117213915D01*
X107461022Y-117134993D01*
X107472023Y-117129436D01*
X107656289Y-117012497D01*
X107666001Y-117004909D01*
X107824045Y-116854407D01*
X107832098Y-116845077D01*
X107957899Y-116666743D01*
X107963987Y-116656026D01*
X108052753Y-116456654D01*
X108056644Y-116444959D01*
X108105092Y-116231713D01*
X108106655Y-116218599D01*
X108110125Y-115970199D01*
X108108928Y-115957046D01*
X108092880Y-115876000D01*
X112616000Y-115876000D01*
X112616000Y-116256754D01*
X112617444Y-116270184D01*
X112667183Y-116498832D01*
X112675813Y-116519666D01*
X112764953Y-116658371D01*
X112776756Y-116671992D01*
X112899652Y-116778483D01*
X112914815Y-116788227D01*
X113062735Y-116855779D01*
X113080028Y-116860857D01*
X113236522Y-116883358D01*
X113245500Y-116884000D01*
X115624000Y-116884000D01*
X115624000Y-119624000D01*
X114514637Y-119624000D01*
X114228000Y-119337363D01*
X114228000Y-119144737D01*
X114224897Y-119125148D01*
X114159841Y-118924924D01*
X114150837Y-118907252D01*
X114027091Y-118736932D01*
X114013068Y-118722909D01*
X113842748Y-118599163D01*
X113825076Y-118590159D01*
X113624852Y-118525103D01*
X113605263Y-118522000D01*
X113394737Y-118522000D01*
X113375148Y-118525103D01*
X113174924Y-118590159D01*
X113157252Y-118599163D01*
X112986932Y-118722909D01*
X112972909Y-118736932D01*
X112849163Y-118907252D01*
X112840159Y-118924924D01*
X112775103Y-119125148D01*
X112772000Y-119144737D01*
X112772000Y-119355263D01*
X112775103Y-119374852D01*
X112840159Y-119575076D01*
X112849163Y-119592748D01*
X112871869Y-119624000D01*
X107543619Y-119624000D01*
X107656289Y-119552497D01*
X107666001Y-119544909D01*
X107824045Y-119394407D01*
X107832098Y-119385077D01*
X107957899Y-119206743D01*
X107963987Y-119196026D01*
X108052753Y-118996654D01*
X108056644Y-118984959D01*
X108105092Y-118771713D01*
X108106655Y-118758599D01*
X108110125Y-118510199D01*
X108108928Y-118497046D01*
X108066452Y-118282529D01*
X108062890Y-118270730D01*
X107979724Y-118068957D01*
X107973938Y-118058075D01*
X107853166Y-117876299D01*
X107845376Y-117866748D01*
X107691597Y-117711891D01*
X107682101Y-117704035D01*
X107501172Y-117581995D01*
X107490330Y-117576133D01*
X107289142Y-117491562D01*
X107277368Y-117487918D01*
X107063585Y-117444034D01*
X107051328Y-117442746D01*
X106833093Y-117441222D01*
X106820818Y-117442339D01*
X106606444Y-117483234D01*
X106594620Y-117486713D01*
X106392272Y-117568467D01*
X106381350Y-117574177D01*
X106198733Y-117693678D01*
X106189128Y-117701401D01*
X106033202Y-117854096D01*
X106025279Y-117863537D01*
X105901980Y-118043610D01*
X105896042Y-118054411D01*
X105810069Y-118255004D01*
X105806343Y-118266751D01*
X105760967Y-118480221D01*
X105759593Y-118492470D01*
X105756546Y-118710690D01*
X105757578Y-118722971D01*
X105796974Y-118937626D01*
X105800372Y-118949473D01*
X105880712Y-119152388D01*
X105886345Y-119163350D01*
X106004568Y-119346796D01*
X106012223Y-119356455D01*
X106163826Y-119513444D01*
X106173212Y-119521432D01*
X106320787Y-119624000D01*
X105003619Y-119624000D01*
X105116289Y-119552497D01*
X105126001Y-119544909D01*
X105284045Y-119394407D01*
X105292098Y-119385077D01*
X105417899Y-119206743D01*
X105423987Y-119196026D01*
X105512753Y-118996654D01*
X105516644Y-118984959D01*
X105565092Y-118771713D01*
X105566655Y-118758599D01*
X105570125Y-118510199D01*
X105568928Y-118497046D01*
X105526452Y-118282529D01*
X105522890Y-118270730D01*
X105439724Y-118068957D01*
X105433938Y-118058075D01*
X105313166Y-117876299D01*
X105305376Y-117866748D01*
X105151597Y-117711891D01*
X105142101Y-117704035D01*
X104961172Y-117581995D01*
X104950330Y-117576133D01*
X104749142Y-117491562D01*
X104737368Y-117487918D01*
X104523585Y-117444034D01*
X104511328Y-117442746D01*
X104293093Y-117441222D01*
X104280818Y-117442339D01*
X104066444Y-117483234D01*
X104054620Y-117486713D01*
X103852272Y-117568467D01*
X103841350Y-117574177D01*
X103658733Y-117693678D01*
X103649128Y-117701401D01*
X103493202Y-117854096D01*
X103485279Y-117863537D01*
X103361980Y-118043610D01*
X103356042Y-118054411D01*
X103270069Y-118255004D01*
X103266343Y-118266751D01*
X103220967Y-118480221D01*
X103219593Y-118492470D01*
X103216546Y-118710690D01*
X103217578Y-118722971D01*
X103256974Y-118937626D01*
X103260372Y-118949473D01*
X103340712Y-119152388D01*
X103346345Y-119163350D01*
X103464568Y-119346796D01*
X103472223Y-119356455D01*
X103623826Y-119513444D01*
X103633212Y-119521432D01*
X103780787Y-119624000D01*
X102697809Y-119624000D01*
X102624000Y-119697809D01*
X102624000Y-127302191D01*
X102697809Y-127376000D01*
X103902766Y-127376000D01*
X103852068Y-127391210D01*
X103842142Y-127395130D01*
X103626155Y-127502346D01*
X103617032Y-127507882D01*
X103422199Y-127649957D01*
X103414138Y-127656952D01*
X103246029Y-127829822D01*
X103239263Y-127838074D01*
X103102683Y-128036798D01*
X103097403Y-128046073D01*
X102996260Y-128264968D01*
X102992619Y-128275000D01*
X102918085Y-128551233D01*
X102993734Y-128650000D01*
X104522000Y-128650001D01*
X104521999Y-128906000D01*
X102996272Y-128905999D01*
X102920602Y-129002852D01*
X102983221Y-129254005D01*
X102986669Y-129264104D01*
X103083591Y-129484900D01*
X103088692Y-129494275D01*
X103174229Y-129624000D01*
X100376000Y-129624000D01*
X100376000Y-115876000D01*
X103234618Y-115876000D01*
X103220967Y-115940221D01*
G37*
X103220967Y-115940221D02*
X103219593Y-115952470D01*
X103216546Y-116170690D01*
X103217578Y-116182971D01*
X103256974Y-116397626D01*
X103260372Y-116409473D01*
X103340712Y-116612388D01*
X103346345Y-116623350D01*
X103464568Y-116806796D01*
X103472223Y-116816455D01*
X103623826Y-116973444D01*
X103633212Y-116981432D01*
X103812419Y-117105985D01*
X103823178Y-117111998D01*
X104023165Y-117199370D01*
X104034887Y-117203178D01*
X104248036Y-117250042D01*
X104260274Y-117251501D01*
X104478467Y-117256071D01*
X104490756Y-117255126D01*
X104705680Y-117217230D01*
X104717552Y-117213915D01*
X104921022Y-117134993D01*
X104932023Y-117129436D01*
X105116289Y-117012497D01*
X105126001Y-117004909D01*
X105284045Y-116854407D01*
X105292098Y-116845077D01*
X105417899Y-116666743D01*
X105423987Y-116656026D01*
X105512753Y-116456654D01*
X105516644Y-116444959D01*
X105565092Y-116231713D01*
X105566655Y-116218599D01*
X105570125Y-115970199D01*
X105568928Y-115957046D01*
X105552880Y-115876000D01*
X105774618Y-115876000D01*
X105760967Y-115940221D01*
X105759593Y-115952470D01*
X105756546Y-116170690D01*
X105757578Y-116182971D01*
X105796974Y-116397626D01*
X105800372Y-116409473D01*
X105880712Y-116612388D01*
X105886345Y-116623350D01*
X106004568Y-116806796D01*
X106012223Y-116816455D01*
X106163826Y-116973444D01*
X106173212Y-116981432D01*
X106352419Y-117105985D01*
X106363178Y-117111998D01*
X106563165Y-117199370D01*
X106574887Y-117203178D01*
X106788036Y-117250042D01*
X106800274Y-117251501D01*
X107018467Y-117256071D01*
X107030756Y-117255126D01*
X107245680Y-117217230D01*
X107257552Y-117213915D01*
X107461022Y-117134993D01*
X107472023Y-117129436D01*
X107656289Y-117012497D01*
X107666001Y-117004909D01*
X107824045Y-116854407D01*
X107832098Y-116845077D01*
X107957899Y-116666743D01*
X107963987Y-116656026D01*
X108052753Y-116456654D01*
X108056644Y-116444959D01*
X108105092Y-116231713D01*
X108106655Y-116218599D01*
X108110125Y-115970199D01*
X108108928Y-115957046D01*
X108092880Y-115876000D01*
X112616000Y-115876000D01*
X112616000Y-116256754D01*
X112617444Y-116270184D01*
X112667183Y-116498832D01*
X112675813Y-116519666D01*
X112764953Y-116658371D01*
X112776756Y-116671992D01*
X112899652Y-116778483D01*
X112914815Y-116788227D01*
X113062735Y-116855779D01*
X113080028Y-116860857D01*
X113236522Y-116883358D01*
X113245500Y-116884000D01*
X115624000Y-116884000D01*
X115624000Y-119624000D01*
X114514637Y-119624000D01*
X114228000Y-119337363D01*
X114228000Y-119144737D01*
X114224897Y-119125148D01*
X114159841Y-118924924D01*
X114150837Y-118907252D01*
X114027091Y-118736932D01*
X114013068Y-118722909D01*
X113842748Y-118599163D01*
X113825076Y-118590159D01*
X113624852Y-118525103D01*
X113605263Y-118522000D01*
X113394737Y-118522000D01*
X113375148Y-118525103D01*
X113174924Y-118590159D01*
X113157252Y-118599163D01*
X112986932Y-118722909D01*
X112972909Y-118736932D01*
X112849163Y-118907252D01*
X112840159Y-118924924D01*
X112775103Y-119125148D01*
X112772000Y-119144737D01*
X112772000Y-119355263D01*
X112775103Y-119374852D01*
X112840159Y-119575076D01*
X112849163Y-119592748D01*
X112871869Y-119624000D01*
X107543619Y-119624000D01*
X107656289Y-119552497D01*
X107666001Y-119544909D01*
X107824045Y-119394407D01*
X107832098Y-119385077D01*
X107957899Y-119206743D01*
X107963987Y-119196026D01*
X108052753Y-118996654D01*
X108056644Y-118984959D01*
X108105092Y-118771713D01*
X108106655Y-118758599D01*
X108110125Y-118510199D01*
X108108928Y-118497046D01*
X108066452Y-118282529D01*
X108062890Y-118270730D01*
X107979724Y-118068957D01*
X107973938Y-118058075D01*
X107853166Y-117876299D01*
X107845376Y-117866748D01*
X107691597Y-117711891D01*
X107682101Y-117704035D01*
X107501172Y-117581995D01*
X107490330Y-117576133D01*
X107289142Y-117491562D01*
X107277368Y-117487918D01*
X107063585Y-117444034D01*
X107051328Y-117442746D01*
X106833093Y-117441222D01*
X106820818Y-117442339D01*
X106606444Y-117483234D01*
X106594620Y-117486713D01*
X106392272Y-117568467D01*
X106381350Y-117574177D01*
X106198733Y-117693678D01*
X106189128Y-117701401D01*
X106033202Y-117854096D01*
X106025279Y-117863537D01*
X105901980Y-118043610D01*
X105896042Y-118054411D01*
X105810069Y-118255004D01*
X105806343Y-118266751D01*
X105760967Y-118480221D01*
X105759593Y-118492470D01*
X105756546Y-118710690D01*
X105757578Y-118722971D01*
X105796974Y-118937626D01*
X105800372Y-118949473D01*
X105880712Y-119152388D01*
X105886345Y-119163350D01*
X106004568Y-119346796D01*
X106012223Y-119356455D01*
X106163826Y-119513444D01*
X106173212Y-119521432D01*
X106320787Y-119624000D01*
X105003619Y-119624000D01*
X105116289Y-119552497D01*
X105126001Y-119544909D01*
X105284045Y-119394407D01*
X105292098Y-119385077D01*
X105417899Y-119206743D01*
X105423987Y-119196026D01*
X105512753Y-118996654D01*
X105516644Y-118984959D01*
X105565092Y-118771713D01*
X105566655Y-118758599D01*
X105570125Y-118510199D01*
X105568928Y-118497046D01*
X105526452Y-118282529D01*
X105522890Y-118270730D01*
X105439724Y-118068957D01*
X105433938Y-118058075D01*
X105313166Y-117876299D01*
X105305376Y-117866748D01*
X105151597Y-117711891D01*
X105142101Y-117704035D01*
X104961172Y-117581995D01*
X104950330Y-117576133D01*
X104749142Y-117491562D01*
X104737368Y-117487918D01*
X104523585Y-117444034D01*
X104511328Y-117442746D01*
X104293093Y-117441222D01*
X104280818Y-117442339D01*
X104066444Y-117483234D01*
X104054620Y-117486713D01*
X103852272Y-117568467D01*
X103841350Y-117574177D01*
X103658733Y-117693678D01*
X103649128Y-117701401D01*
X103493202Y-117854096D01*
X103485279Y-117863537D01*
X103361980Y-118043610D01*
X103356042Y-118054411D01*
X103270069Y-118255004D01*
X103266343Y-118266751D01*
X103220967Y-118480221D01*
X103219593Y-118492470D01*
X103216546Y-118710690D01*
X103217578Y-118722971D01*
X103256974Y-118937626D01*
X103260372Y-118949473D01*
X103340712Y-119152388D01*
X103346345Y-119163350D01*
X103464568Y-119346796D01*
X103472223Y-119356455D01*
X103623826Y-119513444D01*
X103633212Y-119521432D01*
X103780787Y-119624000D01*
X102697809Y-119624000D01*
X102624000Y-119697809D01*
X102624000Y-127302191D01*
X102697809Y-127376000D01*
X103902766Y-127376000D01*
X103852068Y-127391210D01*
X103842142Y-127395130D01*
X103626155Y-127502346D01*
X103617032Y-127507882D01*
X103422199Y-127649957D01*
X103414138Y-127656952D01*
X103246029Y-127829822D01*
X103239263Y-127838074D01*
X103102683Y-128036798D01*
X103097403Y-128046073D01*
X102996260Y-128264968D01*
X102992619Y-128275000D01*
X102918085Y-128551233D01*
X102993734Y-128650000D01*
X104522000Y-128650001D01*
X104521999Y-128906000D01*
X102996272Y-128905999D01*
X102920602Y-129002852D01*
X102983221Y-129254005D01*
X102986669Y-129264104D01*
X103083591Y-129484900D01*
X103088692Y-129494275D01*
X103174229Y-129624000D01*
X100376000Y-129624000D01*
X100376000Y-115876000D01*
X103234618Y-115876000D01*
X103220967Y-115940221D01*
%TD*%
M02*
