M48
; DRILL file {KiCad 5.99.0-unknown-ad88874~101~ubuntu20.04.1} date Tue May 19 21:45:11 2020
; FORMAT={-:-/ absolute / inch / decimal}
; #@! TF.CreationDate,2020-05-19T21:45:11-04:00
; #@! TF.GenerationSoftware,Kicad,Pcbnew,5.99.0-unknown-ad88874~101~ubuntu20.04.1
; #@! TF.FileFunction,Plated,1,2,PTH
FMAT,2
INCH
T1C0.0157
T2C0.0276
T3C0.0394
%
G90
G05
T1
X4.2913Y-4.8622
X4.3701Y-4.8622
X4.3996Y-4.3996
X4.4291Y-4.6358
X4.439Y-4.3701
X4.4587Y-4.6063
X4.4685Y-4.6949
X4.4692Y-4.9754
X4.4758Y-5.0142
X4.4783Y-4.5428
X4.4882Y-4.6358
X4.5177Y-5.1772
X4.626Y-4.3996
X4.626Y-4.5428
X4.6515Y-4.3612
X4.9992Y-4.7592
X5.0197Y-4.3656
X5.0197Y-4.5329
X5.0295Y-4.2869
X5.0394Y-4.7593
X5.0689Y-4.2869
X5.0689Y-4.3656
X5.1575Y-4.5329
X5.1575Y-4.6707
X5.2461Y-4.1786
X5.2461Y-4.4837
X5.2559Y-4.6412
T2
X4.72Y-4.6298
X4.72Y-4.7298
X4.72Y-4.8298
X4.77Y-4.5298
X4.77Y-4.6298
X4.77Y-4.7298
X4.77Y-4.8298
X4.77Y-4.9298
X4.82Y-4.5298
X4.82Y-4.6298
X4.82Y-4.7298
X4.82Y-4.8298
X4.82Y-4.9298
X4.87Y-4.5298
X4.87Y-4.6298
X4.87Y-4.7298
X4.87Y-4.8298
X4.87Y-4.9298
X4.92Y-4.6298
X4.92Y-4.7298
X4.92Y-4.8298
T3
X4.11Y-4.07
X4.11Y-4.17
X4.11Y-4.27
X4.11Y-4.37
X4.11Y-4.47
X4.11Y-4.57
X4.11Y-4.67
X4.11Y-4.77
X4.11Y-4.87
X4.11Y-4.97
X4.11Y-5.07
X4.11Y-5.17
X4.21Y-4.07
X4.21Y-4.17
X4.21Y-4.27
X4.21Y-4.37
X4.21Y-4.47
X4.21Y-4.57
X4.21Y-4.67
X4.21Y-4.77
X4.21Y-4.87
X4.21Y-4.97
X4.21Y-5.07
X4.21Y-5.17
T0
M30
